<svg width="57" height="33" viewBox="0 0 57 33" fill="none" xmlns="http://www.w3.org/2000/svg">
<g clip-path="url(#clip0_1947_16724)">
<path opacity="0.3" d="M52.8899 32.9501L4.59991 32.9301C4.59991 32.9301 -1.97009 24.6201 1.23991 16.0601C3.33991 10.4801 9.04991 6.42012 15.0099 7.06012C19.1899 7.51012 23.5499 10.5201 26.7799 5.13012C27.2299 4.37012 27.7699 3.71012 28.3699 3.12012C29.9199 1.61012 31.9099 0.670121 34.0699 0.250121C34.2399 0.220121 34.4099 0.190121 34.5799 0.160121C35.0399 0.0901209 35.5099 0.0401209 35.9899 0.0101209C43.7199 -0.409879 52.5499 5.25012 51.3699 15.0701C51.3699 15.1201 51.3599 15.1701 51.3499 15.2201C51.3299 15.4101 51.2999 15.6001 51.2699 15.7901C51.1999 16.2201 51.1499 16.6601 50.9999 17.0901C47.8699 25.9401 56.8799 25.1601 52.8999 32.9401L52.8899 32.9501Z" fill="#FFB088"/>
<path d="M36.7797 4.45996H36.7697C35.7756 4.45996 34.9697 5.26585 34.9697 6.25996V6.61996C34.9697 7.61407 35.7756 8.41996 36.7697 8.41996H36.7797C37.7738 8.41996 38.5797 7.61407 38.5797 6.61996V6.25996C38.5797 5.26585 37.7738 4.45996 36.7797 4.45996Z" fill="#C0D8FB"/>
<path d="M36.7799 4.63965C37.6899 4.63965 38.4299 5.37965 38.4299 6.28965V6.60965C38.4299 7.51965 37.6899 8.25965 36.7799 8.25965C35.8699 8.25965 35.1299 7.51965 35.1299 6.60965V6.28965C35.1299 5.37965 35.8699 4.63965 36.7799 4.63965Z" fill="#DFEBFD"/>
<path d="M36.6997 4.99992C36.6997 4.99992 36.7297 4.91992 36.7697 4.91992C36.8097 4.91992 36.8397 4.95992 36.8397 4.99992C36.8397 5.03992 36.8097 5.07992 36.7697 5.07992C36.7297 5.07992 36.6997 5.03992 36.6997 4.99992Z" fill="#B7D3F3"/>
<path d="M37.2996 5.11945C37.2996 5.11945 37.3696 5.05945 37.3996 5.08945C37.4396 5.10945 37.4496 5.15945 37.4296 5.19945C37.4096 5.23945 37.3596 5.25945 37.3296 5.22945C37.2896 5.20945 37.2796 5.15945 37.2996 5.11945Z" fill="#B7D3F3"/>
<path d="M37.8195 5.58021C37.8195 5.58021 37.8995 5.57021 37.9195 5.61021C37.9395 5.65021 37.9295 5.70021 37.8995 5.73021C37.8695 5.76021 37.8195 5.74021 37.7995 5.70021C37.7795 5.66021 37.7895 5.61021 37.8195 5.58021Z" fill="#B7D3F3"/>
<path d="M38.0798 6.2998C38.0798 6.2998 38.1498 6.3398 38.1498 6.3798C38.1498 6.4198 38.1198 6.4598 38.0798 6.4598C38.0398 6.4598 38.0098 6.4198 38.0098 6.3798C38.0098 6.3398 38.0398 6.2998 38.0798 6.2998Z" fill="#B7D3F3"/>
<path d="M37.9499 7.12992C37.9499 7.12992 37.9799 7.21992 37.9499 7.24992C37.9199 7.27992 37.8699 7.27992 37.8399 7.24992C37.8099 7.21992 37.8099 7.15992 37.8399 7.12992C37.8699 7.09992 37.9199 7.09992 37.9499 7.12992Z" fill="#B7D3F3"/>
<path d="M37.4797 7.6602C37.4797 7.6602 37.5097 7.7502 37.4797 7.7802C37.4497 7.8102 37.3997 7.8102 37.3697 7.7802C37.3397 7.7502 37.3397 7.6902 37.3697 7.6602C37.3997 7.6302 37.4497 7.6302 37.4797 7.6602Z" fill="#B7D3F3"/>
<path d="M36.6997 7.94035C36.6997 7.94035 36.7297 7.86035 36.7697 7.86035C36.8097 7.86035 36.8397 7.90035 36.8397 7.94035C36.8397 7.98035 36.8097 8.02035 36.7697 8.02035C36.7297 8.02035 36.6997 7.98035 36.6997 7.94035Z" fill="#B7D3F3"/>
<path d="M36.2401 5.11945C36.2401 5.11945 36.1701 5.05945 36.1401 5.08945C36.1001 5.10945 36.0901 5.15945 36.1101 5.19945C36.1301 5.23945 36.1801 5.25945 36.2101 5.22945C36.2501 5.20945 36.2601 5.15945 36.2401 5.11945Z" fill="#B7D3F3"/>
<path d="M35.73 5.57924C35.73 5.57924 35.65 5.56924 35.63 5.60924C35.61 5.64924 35.62 5.69924 35.65 5.72924C35.68 5.75924 35.73 5.73924 35.75 5.69924C35.77 5.65924 35.76 5.60924 35.73 5.57924Z" fill="#B7D3F3"/>
<path d="M35.4699 6.2998C35.4699 6.2998 35.3999 6.3398 35.3999 6.3798C35.3999 6.4198 35.4299 6.4598 35.4699 6.4598C35.5099 6.4598 35.5399 6.4198 35.5399 6.3798C35.5399 6.3398 35.5099 6.2998 35.4699 6.2998Z" fill="#B7D3F3"/>
<path d="M35.5998 7.12992C35.5998 7.12992 35.5698 7.21992 35.5998 7.24992C35.6298 7.27992 35.6798 7.27992 35.7098 7.24992C35.7398 7.21992 35.7398 7.15992 35.7098 7.12992C35.6798 7.09992 35.6298 7.09992 35.5998 7.12992Z" fill="#B7D3F3"/>
<path d="M36.07 7.65922C36.07 7.65922 36.04 7.74922 36.07 7.77922C36.1 7.80922 36.15 7.80922 36.18 7.77922C36.21 7.74922 36.21 7.68922 36.18 7.65922C36.15 7.62922 36.1 7.62922 36.07 7.65922Z" fill="#B7D3F3"/>
<path d="M36.7598 6.3798C36.7598 6.3798 36.7898 6.2998 36.8298 6.2998C36.8698 6.2998 36.8998 6.3398 36.8998 6.3798C36.8998 6.4198 36.8698 6.4598 36.8298 6.4598C36.7898 6.4598 36.7598 6.4198 36.7598 6.3798Z" fill="#B7D3F3"/>
<path d="M36.8398 5.33008H36.8198V6.38008H36.8398V5.33008Z" fill="#B7D3F3"/>
<path d="M36.8398 6.41016L36.7998 6.35016L37.2998 5.91016L37.3398 5.97016L36.8398 6.41016Z" fill="#B7D3F3"/>
<path d="M21.1299 25.4501V25.6301C21.1299 25.6901 21.1499 25.7501 21.1699 25.7501H27.1499C27.1499 25.7501 27.1899 25.7001 27.1899 25.6301V25.4501C27.1899 25.3901 27.1699 25.3301 27.1499 25.3301H21.1699C21.1699 25.3301 21.1299 25.3801 21.1299 25.4501Z" fill="#7298DB"/>
<path d="M21.1299 25.4501V25.6301C21.1299 25.6901 21.1499 25.7501 21.1699 25.7501H25.9199C25.9199 25.7501 25.9599 25.7001 25.9599 25.6301V25.4501C25.9599 25.3901 25.9399 25.3301 25.9199 25.3301H21.1699C21.1699 25.3301 21.1299 25.3801 21.1299 25.4501Z" fill="#C2D5FF"/>
<path d="M22.6399 32.7402H26.8799V25.7502H22.6399V32.7402Z" fill="#94B0ED"/>
<path d="M21.4597 32.7402H25.6997V25.7502H21.4597V32.7402Z" fill="#C0D4FF"/>
<path d="M21.6797 25.9502H25.4697V32.3502H21.6797V25.9502ZM25.4297 26.0002H21.7197V32.3102H25.4297V26.0002Z" fill="#94B0ED"/>
<path d="M25.4497 28.0703H21.6997V28.1203H25.4497V28.0703Z" fill="#94B0ED"/>
<path d="M25.4497 30.2197H21.6997V30.2697H25.4497V30.2197Z" fill="#94B0ED"/>
<path d="M23.1899 26.3597H23.8899C23.8899 26.3597 23.9499 26.3297 23.9499 26.2897C23.9499 26.2897 23.9199 26.2197 23.8899 26.2197H23.1899C23.1899 26.2197 23.1299 26.2497 23.1299 26.2897C23.1299 26.2897 23.1599 26.3597 23.1899 26.3597Z" fill="#94B0ED"/>
<path d="M23.1899 28.4701H23.8899C23.8899 28.4701 23.9499 28.4401 23.9499 28.4001C23.9499 28.4001 23.9199 28.3301 23.8899 28.3301H23.1899C23.1899 28.3301 23.1299 28.3601 23.1299 28.4001C23.1299 28.4001 23.1599 28.4701 23.1899 28.4701Z" fill="#94B0ED"/>
<path d="M23.1899 30.6703H23.8899C23.8899 30.6703 23.9499 30.6403 23.9499 30.6003C23.9499 30.6003 23.9199 30.5303 23.8899 30.5303H23.1899C23.1899 30.5303 23.1299 30.5603 23.1299 30.6003C23.1299 30.6003 23.1599 30.6703 23.1899 30.6703Z" fill="#94B0ED"/>
<path d="M44.96 25.4501V25.6301C44.96 25.6901 44.98 25.7501 45 25.7501H50.98C50.98 25.7501 51.02 25.7001 51.02 25.6301V25.4501C51.02 25.3901 51 25.3301 50.98 25.3301H45C45 25.3301 44.96 25.3801 44.96 25.4501Z" fill="#7298DB"/>
<path d="M44.96 25.4501V25.6301C44.96 25.6901 44.98 25.7501 45 25.7501H49.75C49.75 25.7501 49.79 25.7001 49.79 25.6301V25.4501C49.79 25.3901 49.77 25.3301 49.75 25.3301H45C45 25.3301 44.96 25.3801 44.96 25.4501Z" fill="#C2D5FF"/>
<path d="M46.4797 32.7402H50.7197V25.7502H46.4797V32.7402Z" fill="#94B0ED"/>
<path d="M45.2898 32.7402H49.5298V25.7502H45.2898V32.7402Z" fill="#C0D4FF"/>
<path d="M45.5098 25.9502H49.2998V32.3502H45.5098V25.9502ZM49.2598 26.0002H45.5498V32.3102H49.2598V26.0002Z" fill="#94B0ED"/>
<path d="M49.2798 28.0703H45.5298V28.1203H49.2798V28.0703Z" fill="#94B0ED"/>
<path d="M49.2798 30.2197H45.5298V30.2697H49.2798V30.2197Z" fill="#94B0ED"/>
<path d="M47.02 26.3597H47.72C47.72 26.3597 47.78 26.3297 47.78 26.2897C47.78 26.2897 47.75 26.2197 47.72 26.2197H47.02C47.02 26.2197 46.96 26.2497 46.96 26.2897C46.96 26.2897 46.99 26.3597 47.02 26.3597Z" fill="#94B0ED"/>
<path d="M47.02 28.4701H47.72C47.72 28.4701 47.78 28.4401 47.78 28.4001C47.78 28.4001 47.75 28.3301 47.72 28.3301H47.02C47.02 28.3301 46.96 28.3601 46.96 28.4001C46.96 28.4001 46.99 28.4701 47.02 28.4701Z" fill="#94B0ED"/>
<path d="M47.02 30.6703H47.72C47.72 30.6703 47.78 30.6403 47.78 30.6003C47.78 30.6003 47.75 30.5303 47.72 30.5303H47.02C47.02 30.5303 46.96 30.5603 46.96 30.6003C46.96 30.6003 46.99 30.6703 47.02 30.6703Z" fill="#94B0ED"/>
<path d="M7.08987 14.7002C7.08987 14.7002 5.73987 16.2802 5.66987 16.9102C5.59987 17.5402 6.39987 18.5002 6.39987 18.5002L7.08987 14.7002Z" fill="#94B0ED"/>
<path d="M7.81957 31.9701C7.81957 31.9701 7.86957 32.8601 8.01957 32.8701C8.03957 32.8701 8.78957 32.8701 8.78957 32.8701H9.74957C9.74957 32.8701 9.74957 32.6001 9.45957 32.5501C9.17957 32.5001 8.70957 32.2701 8.53957 31.8601C8.35957 31.4201 7.80957 31.9801 7.80957 31.9801L7.81957 31.9701Z" fill="#163560"/>
<path d="M5.67992 31.9701C5.67992 31.9701 5.72992 32.8601 5.87992 32.8701C5.89992 32.8701 6.64992 32.8701 6.64992 32.8701H7.60992C7.60992 32.8701 7.60992 32.6001 7.31992 32.5501C7.02992 32.5001 6.56992 32.2701 6.39992 31.8601C6.21992 31.4201 5.66992 31.9801 5.66992 31.9801L5.67992 31.9701Z" fill="#163560"/>
<path d="M8.85977 22.4096C8.85977 22.4096 8.60977 24.2196 7.67977 27.4496C6.74977 30.6696 6.61977 32.0696 6.61977 32.0696L5.61977 32.0396C5.61977 32.0396 5.59977 28.5196 6.02977 26.8996C6.45977 25.2796 6.10977 21.0596 6.10977 21.0596L8.84977 22.4096H8.85977Z" fill="#E58638"/>
<path d="M9.34994 21.1494C9.34994 21.1494 9.38994 23.8794 8.97994 27.2394C8.56994 30.5994 8.70994 32.0194 8.70994 32.0194L7.70994 32.0594C7.70994 32.0594 7.09994 28.7094 7.26994 27.0294C7.43994 25.3494 6.43994 21.2694 6.43994 21.2694L9.34994 21.1594V21.1494Z" fill="#F99746"/>
<path d="M7.38965 14.7594L7.92965 15.1494L8.69965 14.9894C8.68965 14.9194 8.63965 14.6294 8.58965 14.3594C8.58965 14.3394 8.58965 14.3294 8.58965 14.3094C8.54965 14.0894 8.51965 13.8894 8.51965 13.8894L7.79965 13.5294L7.52965 13.3994C7.52965 13.3994 7.54965 13.6494 7.54965 13.6894C7.59965 14.3194 7.39965 14.7594 7.39965 14.7594H7.38965Z" fill="#FFB27D"/>
<path d="M6.04972 21.4996C6.20972 22.2996 8.78972 22.3896 9.44972 21.6596C9.52972 21.5796 9.52972 21.1896 9.49972 20.6696C9.43972 19.6596 9.25972 18.1296 9.24972 17.3596C9.24972 16.9796 9.19972 16.5996 9.13972 16.2496C9.00972 15.5096 8.80972 14.9196 8.80972 14.9196C8.80972 14.9196 7.54972 14.4596 7.30972 14.5396C6.93972 14.6696 6.64972 15.3796 6.44972 16.3096C6.30972 16.9596 6.44972 18.2396 6.36972 18.9796C6.22972 20.3696 5.97972 21.1496 6.04972 21.4996Z" fill="#AEC3FF"/>
<path d="M7.59986 13.71C7.75986 14.01 8.34986 14.27 8.59986 14.37C8.59986 14.35 8.59986 14.34 8.59986 14.32C8.55986 14.1 8.52986 13.9 8.52986 13.9L7.80986 13.54C7.64986 13.54 7.54986 13.58 7.61986 13.7L7.59986 13.71Z" fill="#FCA56B"/>
<path d="M8.77956 13.8498C8.77956 13.8498 7.61956 14.2598 7.39956 13.4398C7.17956 12.6198 6.88956 12.1198 7.61956 11.8198C8.34956 11.5198 8.57956 11.7898 8.70956 12.0398C8.83956 12.2898 9.06956 13.7198 8.77956 13.8498Z" fill="#FFB27D"/>
<path d="M8.66969 11.9697C8.66969 11.9697 8.59969 12.9297 8.41969 12.8797C8.24969 12.8397 8.08969 12.8097 8.10969 13.0997C8.13969 13.3897 8.37969 13.7197 7.83969 13.7697C7.29969 13.8197 6.51969 12.2497 6.66969 11.9597C7.09969 11.0997 9.27969 10.9197 8.65969 11.9697H8.66969Z" fill="#1F2933"/>
<path d="M8.91965 17.3797C8.91965 17.3797 8.76965 18.4197 8.13965 18.7897L8.35965 24.5197H9.48965C9.48965 24.5197 9.85965 18.4497 9.48965 17.6697C9.11965 16.8897 8.90965 17.3697 8.90965 17.3697L8.91965 17.3797Z" fill="#2A4E96"/>
<path d="M9.08981 19.2602C9.08981 19.2602 9.03981 19.4002 9.14981 19.4902C9.25981 19.5802 9.32981 19.7402 9.29981 19.8502C9.27981 19.9602 9.03981 20.1402 8.95981 20.1102C8.87981 20.0802 8.70981 19.9402 8.72981 19.8802C8.74981 19.8202 8.61981 19.3702 8.81981 19.1902C9.01981 19.0102 9.09981 19.2602 9.09981 19.2602H9.08981Z" fill="#FFB27D"/>
<path d="M8.80994 14.9199C8.80994 14.9199 9.01994 14.9199 9.55994 15.8499C10.1299 16.8399 10.5399 17.5599 10.4299 17.9099C10.3199 18.2599 9.33994 19.4899 9.15994 19.4899C8.98994 19.4899 8.70994 19.3499 8.69994 19.0399C8.69994 19.0399 9.38994 17.8599 9.25994 17.6799C9.19994 17.5999 8.34994 16.8299 8.22994 17.1799C8.02994 17.7599 8.79994 14.9199 8.79994 14.9199H8.80994Z" fill="#AEC3FF"/>
<path d="M8.14963 18.79C8.14963 18.79 7.06963 19.06 6.38963 18.79L6.36963 19.01C6.36963 19.01 6.87963 19.32 8.16963 19.05L8.14963 18.79Z" fill="#2A4E96"/>
<path d="M6.77971 18.96L6.69971 21.15C6.69971 21.15 6.99971 21.29 6.99971 21.26V19.07L6.77971 18.96Z" fill="#2A4E96"/>
<path d="M6.60988 18.9199L6.37988 20.1099L6.57988 20.2499L6.76988 19.1299L6.60988 18.9199Z" fill="#2A4E96"/>
<path d="M8.49957 14.5597C8.49957 14.5597 7.56957 14.2497 7.46957 14.2897C7.36957 14.3297 7.30957 14.5397 7.30957 14.5397L8.80957 14.9197C8.80957 14.9197 8.68957 14.6497 8.49957 14.5597Z" fill="#2A4E96"/>
<path d="M24.6901 12.21H16.1001V24.02H24.6901V12.21Z" fill="#52606D"/>
<path d="M20.0801 12.7495C20.0801 12.5995 20.1901 12.4795 20.3201 12.4795C20.4501 12.4795 20.5601 12.5995 20.5601 12.7495C20.5601 12.8995 20.4501 13.0195 20.3201 13.0195C20.1901 13.0195 20.0801 12.8995 20.0801 12.7495Z" fill="#CBD2D9"/>
<path d="M16.2803 12.7495C16.2803 12.5995 16.3903 12.4795 16.5203 12.4795C16.6503 12.4795 16.7603 12.5995 16.7603 12.7495C16.7603 12.8995 16.6503 13.0195 16.5203 13.0195C16.3903 13.0195 16.2803 12.8995 16.2803 12.7495Z" fill="#CBD2D9"/>
<path d="M16.2803 17.8804C16.2803 17.7304 16.3903 17.6104 16.5203 17.6104C16.6503 17.6104 16.7603 17.7304 16.7603 17.8804C16.7603 18.0304 16.6503 18.1504 16.5203 18.1504C16.3903 18.1504 16.2803 18.0304 16.2803 17.8804Z" fill="#CBD2D9"/>
<path d="M24.2503 13.0195C24.3828 13.0195 24.4903 12.8986 24.4903 12.7495C24.4903 12.6004 24.3828 12.4795 24.2503 12.4795C24.1177 12.4795 24.0103 12.6004 24.0103 12.7495C24.0103 12.8986 24.1177 13.0195 24.2503 13.0195Z" fill="#CBD2D9"/>
<path d="M24.2503 18.1504C24.3828 18.1504 24.4903 18.0295 24.4903 17.8804C24.4903 17.7312 24.3828 17.6104 24.2503 17.6104C24.1177 17.6104 24.0103 17.7312 24.0103 17.8804C24.0103 18.0295 24.1177 18.1504 24.2503 18.1504Z" fill="#CBD2D9"/>
<path d="M24.2503 23.6699C24.3828 23.6699 24.4903 23.549 24.4903 23.3999C24.4903 23.2508 24.3828 23.1299 24.2503 23.1299C24.1177 23.1299 24.0103 23.2508 24.0103 23.3999C24.0103 23.549 24.1177 23.6699 24.2503 23.6699Z" fill="#CBD2D9"/>
<path d="M20.5501 23.6699C20.6826 23.6699 20.7901 23.549 20.7901 23.3999C20.7901 23.2508 20.6826 23.1299 20.5501 23.1299C20.4175 23.1299 20.3101 23.2508 20.3101 23.3999C20.3101 23.549 20.4175 23.6699 20.5501 23.6699Z" fill="#CBD2D9"/>
<path d="M23.88 13.3604H17.02V22.8704H23.88V13.3604Z" fill="#AEC3FF"/>
<path d="M20.6897 20.2006C20.8997 20.2806 21.0997 20.2506 21.2597 20.1806C21.4097 20.1206 21.5297 20.0206 21.6097 19.9306C21.6997 19.8406 21.7397 19.7706 21.7397 19.7706C21.7397 19.7706 21.7397 19.7706 21.7197 19.7406C21.6497 19.6406 21.4097 19.2706 21.3897 18.6006C21.3897 18.6006 21.3297 18.6106 21.2497 18.6506C20.9997 18.7706 20.5097 19.0306 20.4897 19.0406C20.4897 19.0406 20.4997 19.1806 20.5197 19.4306C20.5197 19.4506 20.5197 19.4706 20.5197 19.5006C20.5197 19.5306 20.5197 19.5606 20.5197 19.5906C20.5297 19.8506 20.6797 20.1906 20.6797 20.1906L20.6897 20.2006Z" fill="#FFB27D"/>
<path d="M20.53 19.4402C20.93 19.4702 21.4 18.7202 21.4 18.7202C21.35 18.6902 21.31 18.6702 21.26 18.6602C21.01 18.7802 20.52 19.0402 20.5 19.0502C20.5 19.0502 20.51 19.1902 20.53 19.4402Z" fill="#ED975D"/>
<path d="M20.3398 19.0404C20.3398 19.0404 20.5098 19.0704 20.7098 19.0704C21.0098 19.0704 21.3898 18.9604 21.4498 18.5404C21.5598 17.8304 21.7598 17.3804 21.1198 17.2104C20.7798 17.1204 20.5698 17.1504 20.4398 17.2304C20.3298 17.3004 20.2698 17.4104 20.2298 17.5204C20.1398 17.7504 20.0798 18.9704 20.3398 19.0404Z" fill="#FFB27D"/>
<path d="M20.4598 16.7304C20.1998 16.7804 19.9198 17.0804 20.1098 17.3004C20.2398 17.4504 20.4098 17.5604 20.7498 17.5604C20.9198 17.5604 20.9798 17.8904 20.9898 17.9704C21.0098 18.0604 21.0298 18.1304 21.2198 18.0404C21.2498 18.0304 21.2798 18.0204 21.2898 18.0404C21.3798 18.0804 21.3098 18.3704 21.2898 18.4404C21.2898 18.4404 21.2698 18.6404 21.3898 18.7204C21.3998 18.7204 21.6198 18.7904 21.9898 17.8504C22.0498 17.7004 22.0798 17.3904 21.9198 17.1204C21.7598 16.8504 21.2698 16.5704 20.4498 16.7304H20.4598Z" fill="#3E4C59"/>
<path d="M20.27 18.6105C20.27 18.6105 20.27 18.7005 20.46 18.7405C20.46 18.7405 20.62 18.7705 20.63 18.6805C20.63 18.6805 20.49 18.5705 20.27 18.6205V18.6105Z" fill="white"/>
<path d="M23.2998 21.7203C22.9398 20.0303 22.5198 19.8103 22.5198 19.8103C22.5198 19.8103 22.1998 19.6303 21.7698 19.5503C21.6798 19.5303 21.6198 19.5303 21.6098 19.5303C21.6098 19.5303 21.5898 19.5303 21.5698 19.5303L20.8298 19.9703C20.7798 19.9503 20.6298 19.7003 20.5398 19.6303C20.5398 19.6303 20.5398 19.6303 20.5298 19.6303C20.4798 19.6403 20.4298 19.6503 20.3798 19.6703C19.9898 19.7803 19.7398 20.0003 19.5898 20.2603C19.5498 20.3203 19.5198 20.3803 19.4998 20.4503C19.2698 20.9203 18.7098 22.1303 18.5498 22.8803H23.5298C23.4498 22.4303 23.3698 22.0303 23.3098 21.7303L23.2998 21.7203Z" fill="#F9DDBF"/>
<path d="M21.5096 19.3008L20.8296 19.9708C20.8296 19.9708 21.6796 19.7508 21.7696 19.5608C21.7696 19.5608 21.6496 19.2608 21.5096 19.3108V19.3008Z" fill="#EAC3A2"/>
<path d="M20.8299 19.9601L20.5299 19.3701C20.5299 19.3701 20.3999 19.4801 20.3799 19.6601C20.3799 19.6601 20.7199 19.9501 20.8399 19.9501L20.8299 19.9601Z" fill="#EAC3A2"/>
<path d="M16.73 31.8093C16.73 31.8093 16.78 32.7293 16.94 32.7393C16.96 32.7393 17.74 32.7393 17.74 32.7393H18.73C18.73 32.7393 18.73 32.4593 18.43 32.3993C18.14 32.3393 17.65 32.1093 17.48 31.6793C17.29 31.2193 16.73 31.7993 16.73 31.7993V31.8093Z" fill="#0E2C4F"/>
<path d="M13.8899 24.25C13.8899 24.25 12.8399 25.52 12.9199 26.47C12.9399 26.75 13.1599 26.96 13.4099 26.96H14.6399C14.6399 26.96 15.9599 26.59 15.9899 26.89C16.0199 27.2 16.2099 29.48 16.7199 31.83C16.7199 31.83 17.0999 31.98 17.3199 31.87C17.6199 31.73 17.6699 31.59 17.6699 31.59C17.6699 31.59 17.3699 26.33 17.1299 25.96C16.8899 25.59 14.4199 24.49 13.6199 24.38C12.8199 24.27 13.8899 24.25 13.8899 24.25Z" fill="#163560"/>
<path d="M18.4702 31.8093C18.4702 31.8093 18.5202 32.7293 18.6802 32.7393C18.7002 32.7393 19.4802 32.7393 19.4802 32.7393H20.4702C20.4702 32.7393 20.4702 32.4593 20.1702 32.3993C19.8802 32.3393 19.3902 32.1093 19.2202 31.6793C19.0302 31.2193 18.4702 31.7993 18.4702 31.7993V31.8093Z" fill="#163560"/>
<path d="M12.95 24.25C12.95 24.25 12.7 24.94 12.56 25.7C12.43 26.35 12.87 26.97 13.46 26.97H16.33C16.33 26.97 17.59 27.22 17.62 27.53C17.65 27.84 17.91 29.49 18.42 31.84C18.42 31.84 18.8 31.95 19.09 31.81C19.25 31.73 19.37 31.55 19.37 31.55C19.37 31.55 19.06 26.33 18.82 25.96C18.58 25.59 16.11 24.49 15.31 24.38C14.51 24.27 12.96 24.25 12.96 24.25H12.95Z" fill="#2B478B"/>
<path d="M14.1001 19.6101L14.5901 20.0201L15.3401 19.9101C15.3401 19.8401 15.3001 19.5601 15.2701 19.3001C15.2701 19.2801 15.2701 19.2701 15.2701 19.2601C15.2701 19.2001 15.2601 19.1501 15.2501 19.1001C15.2301 18.9601 15.2201 18.8601 15.2201 18.8601L15.0101 18.7401L14.5401 18.4701L14.2901 18.3301C14.2901 18.3301 14.2901 18.5701 14.2901 18.6101C14.3101 19.2201 14.1001 19.6201 14.1001 19.6201V19.6101Z" fill="#FFB27D"/>
<path d="M15.1798 19.3601C15.1798 19.3601 14.3098 19.0601 14.2198 19.1101C14.1298 19.1601 14.0498 19.5001 14.0498 19.5001L15.5198 19.6501C15.5198 19.6501 15.3798 19.4101 15.1898 19.3501L15.1798 19.3601Z" fill="#EAC3A2"/>
<path d="M12 22.6198C12.03 21.5198 12.59 20.6198 12.83 20.2798C12.98 19.9298 14.05 19.5098 14.05 19.5098C14.05 19.5098 14.99 19.6098 15.52 19.6598C15.52 19.6598 16.53 19.8798 16.75 20.8498C17.28 23.1898 17.85 24.2098 17.71 24.7698C17.12 27.1198 15.05 27.0598 14.66 26.5898C14.46 26.3498 12.49 25.0398 12.57 23.4598C12.23 23.3398 11.98 23.0898 11.99 22.6298L12 22.6198Z" fill="#F9DDBF"/>
<path d="M14.46 18.7595L14.5 18.7795C14.5 18.7795 14.89 19.0095 15.24 19.0895C15.22 18.9495 15.21 18.8495 15.21 18.8495L15 18.7295L14.46 18.7595Z" fill="#EAA16E"/>
<path d="M15.4801 18.8194C15.4801 18.8194 14.3501 19.1394 14.1801 18.3394C14.0101 17.5394 13.7501 17.0394 14.4701 16.7994C15.1901 16.5594 15.3901 16.8294 15.5101 17.0794C15.6201 17.3294 15.7801 18.7094 15.4901 18.8194H15.4801Z" fill="#FFB27D"/>
<path d="M15.4599 16.9997C15.4599 16.9997 15.3399 17.9097 15.1799 17.8597C15.0099 17.8097 14.8599 17.7697 14.8699 18.0497C14.8799 18.3297 15.0999 18.6597 14.5799 18.6797C14.0599 18.6997 13.3899 17.1397 13.5399 16.8697C13.9899 16.0697 16.0999 16.0297 15.4499 16.9997H15.4599Z" fill="#1F2933"/>
<path d="M10.8699 26.4004H17.0099V27.1404H11.5999C11.1899 27.1404 10.8599 26.8104 10.8599 26.4004H10.8699Z" fill="#77A4E5"/>
<path d="M17.6201 26.4004H13.4301C13.2257 26.4004 13.0601 26.566 13.0601 26.7704C13.0601 26.9747 13.2257 27.1404 13.4301 27.1404H17.6201C17.8244 27.1404 17.9901 26.9747 17.9901 26.7704C17.9901 26.566 17.8244 26.4004 17.6201 26.4004Z" fill="#F99746"/>
<path d="M14.0799 32.4697H13.7099L13.6099 27.1396H14.1699L14.0799 32.4697Z" fill="#94B0ED"/>
<path d="M15.6898 32.4692H12.0898V32.0992L13.9198 31.9092L15.6898 32.0992V32.4692Z" fill="#94B0ED"/>
<path d="M11.7397 32.4101C11.7397 32.2301 11.8697 32.0801 12.0397 32.0801C12.2097 32.0801 12.3397 32.2301 12.3397 32.4101C12.3397 32.5901 12.2097 32.7401 12.0397 32.7401C11.8697 32.7401 11.7397 32.5901 11.7397 32.4101Z" fill="#94B0ED"/>
<path d="M15.3398 32.4101C15.3398 32.2301 15.4698 32.0801 15.6398 32.0801C15.8098 32.0801 15.9398 32.2301 15.9398 32.4101C15.9398 32.5901 15.8098 32.7401 15.6398 32.7401C15.4698 32.7401 15.3398 32.5901 15.3398 32.4101Z" fill="#94B0ED"/>
<path d="M15.5599 27.4896H12.2099C12.0399 27.4896 11.8999 27.3296 11.8999 27.1396H15.8699C15.8699 27.3296 15.7299 27.4896 15.5599 27.4896Z" fill="#94B0ED"/>
<path d="M11.4397 27.14C11.2797 27.14 11.1597 27 11.1597 26.82V21.91C11.1597 20.99 11.6897 20.25 12.3497 20.25H15.0397C15.6997 20.25 16.2297 21 16.2297 21.91V27.13H11.4497L11.4397 27.14Z" fill="#F99746"/>
<path d="M11.3796 27.1398C11.0996 27.1398 10.8696 26.8798 10.8696 26.5598V21.9198C10.8696 20.9998 11.3996 20.2598 12.0596 20.2598H14.7496C15.4096 20.2598 15.9396 21.0098 15.9396 21.9198V27.1398H11.3896H11.3796Z" fill="#CC6A27"/>
<path d="M16.3696 24.1895C16.3696 24.1895 16.4996 25.1595 17.4596 25.4695L17.6796 25.1495L16.3696 24.1895Z" fill="#EAC3A2"/>
<path d="M17.1597 22.4199L18.0997 25.4699C18.0997 25.4699 16.6897 24.9799 16.4897 24.5599C16.2897 24.1399 16.2197 23.1699 16.2197 23.1699L17.1597 22.4199Z" fill="#F9DDBF"/>
<path d="M26.33 23.1299C26.49 23.1299 26.62 23.2599 26.62 23.4199V25.3299H26.04V23.4199C26.04 23.2599 26.17 23.1299 26.33 23.1299Z" fill="#2B478B"/>
<path d="M26.3299 22.8896C26.4299 22.8896 26.4999 22.9696 26.4999 23.0596V24.1996H26.1499V23.0596C26.1499 22.9596 26.2299 22.8896 26.3199 22.8896H26.3299Z" fill="#2B478B"/>
<path d="M25.5701 23.8301C25.6801 23.8301 25.7701 23.9201 25.7701 24.0301V25.3301H25.3701V24.0301C25.3701 23.9201 25.4601 23.8301 25.5701 23.8301Z" fill="#F99746"/>
<path d="M25.58 23.6602C25.65 23.6602 25.7 23.7102 25.7 23.7802V24.5602H25.46V23.7802C25.46 23.7102 25.51 23.6602 25.58 23.6602Z" fill="#F99746"/>
<path d="M25.1697 25.0903V25.2703C25.1697 25.2703 25.1497 25.3303 25.1197 25.3303H24.5197C24.5197 25.3303 24.4697 25.3003 24.4697 25.2703V25.0903C24.4697 25.0903 24.4897 25.0303 24.5197 25.0303H25.1197C25.1197 25.0303 25.1697 25.0603 25.1697 25.0903Z" fill="#ED7D2B"/>
<path d="M25.17 25.0903V25.1803H24.46V25.0903C24.46 25.0903 24.48 25.0303 24.51 25.0303H25.11C25.11 25.0303 25.16 25.0603 25.16 25.0903H25.17Z" fill="#F99746"/>
<path d="M48.1901 12.21H39.6001V24.02H48.1901V12.21Z" fill="#52606D"/>
<path d="M43.8103 13.0195C43.9429 13.0195 44.0503 12.8986 44.0503 12.7495C44.0503 12.6004 43.9429 12.4795 43.8103 12.4795C43.6778 12.4795 43.5703 12.6004 43.5703 12.7495C43.5703 12.8986 43.6778 13.0195 43.8103 13.0195Z" fill="#CBD2D9"/>
<path d="M40.0203 13.0195C40.1528 13.0195 40.2603 12.8986 40.2603 12.7495C40.2603 12.6004 40.1528 12.4795 40.0203 12.4795C39.8877 12.4795 39.7803 12.6004 39.7803 12.7495C39.7803 12.8986 39.8877 13.0195 40.0203 13.0195Z" fill="#CBD2D9"/>
<path d="M40.0203 18.1504C40.1528 18.1504 40.2603 18.0295 40.2603 17.8804C40.2603 17.7312 40.1528 17.6104 40.0203 17.6104C39.8877 17.6104 39.7803 17.7312 39.7803 17.8804C39.7803 18.0295 39.8877 18.1504 40.0203 18.1504Z" fill="#CBD2D9"/>
<path d="M47.7503 13.0195C47.8828 13.0195 47.9903 12.8986 47.9903 12.7495C47.9903 12.6004 47.8828 12.4795 47.7503 12.4795C47.6177 12.4795 47.5103 12.6004 47.5103 12.7495C47.5103 12.8986 47.6177 13.0195 47.7503 13.0195Z" fill="#CBD2D9"/>
<path d="M47.7503 18.1504C47.8828 18.1504 47.9903 18.0295 47.9903 17.8804C47.9903 17.7312 47.8828 17.6104 47.7503 17.6104C47.6177 17.6104 47.5103 17.7312 47.5103 17.8804C47.5103 18.0295 47.6177 18.1504 47.7503 18.1504Z" fill="#CBD2D9"/>
<path d="M47.7503 23.6699C47.8828 23.6699 47.9903 23.549 47.9903 23.3999C47.9903 23.2508 47.8828 23.1299 47.7503 23.1299C47.6177 23.1299 47.5103 23.2508 47.5103 23.3999C47.5103 23.549 47.6177 23.6699 47.7503 23.6699Z" fill="#CBD2D9"/>
<path d="M44.0501 23.6699C44.1826 23.6699 44.2901 23.549 44.2901 23.3999C44.2901 23.2508 44.1826 23.1299 44.0501 23.1299C43.9175 23.1299 43.8101 23.2508 43.8101 23.3999C43.8101 23.549 43.9175 23.6699 44.0501 23.6699Z" fill="#CBD2D9"/>
<path d="M47.38 13.3604H40.52V22.8704H47.38V13.3604Z" fill="#AEC3FF"/>
<path d="M44.2 20.2006C44.41 20.2806 44.61 20.2506 44.77 20.1806C44.92 20.1206 45.04 20.0206 45.12 19.9306C45.21 19.8406 45.25 19.7706 45.25 19.7706C45.25 19.7706 45.25 19.7706 45.23 19.7406C45.16 19.6406 44.92 19.2706 44.9 18.6006C44.9 18.6006 44.84 18.6106 44.76 18.6506C44.51 18.7706 44.02 19.0306 44 19.0406C44 19.0406 44.01 19.1806 44.03 19.4306C44.03 19.4506 44.03 19.4706 44.03 19.5006C44.03 19.5306 44.03 19.5606 44.03 19.5906C44.04 19.8506 44.19 20.1906 44.19 20.1906L44.2 20.2006Z" fill="#FFB27D"/>
<path d="M44.03 19.4402C44.43 19.4702 44.9 18.7202 44.9 18.7202C44.85 18.6902 44.81 18.6702 44.76 18.6602C44.51 18.7802 44.02 19.0402 44 19.0502C44 19.0502 44.01 19.1902 44.03 19.4402Z" fill="#ED975D"/>
<path d="M43.8403 19.0404C43.8403 19.0404 44.0103 19.0704 44.2103 19.0704C44.5103 19.0704 44.8903 18.9604 44.9503 18.5404C45.0603 17.8304 45.2603 17.3804 44.6203 17.2104C44.2803 17.1204 44.0703 17.1504 43.9403 17.2304C43.8303 17.3004 43.7703 17.4104 43.7303 17.5204C43.6403 17.7504 43.5803 18.9704 43.8403 19.0404Z" fill="#FFB27D"/>
<path d="M43.9598 16.7304C43.6998 16.7804 43.4198 17.0804 43.6098 17.3004C43.7398 17.4504 43.9098 17.5604 44.2498 17.5604C44.4198 17.5604 44.4798 17.8904 44.4898 17.9704C44.5098 18.0604 44.5298 18.1304 44.7198 18.0404C44.7498 18.0304 44.7798 18.0204 44.7898 18.0404C44.8798 18.0804 44.8098 18.3704 44.7898 18.4404C44.7898 18.4404 44.7698 18.6404 44.8898 18.7204C44.8998 18.7204 45.1198 18.7904 45.4898 17.8504C45.5498 17.7004 45.5798 17.3904 45.4198 17.1204C45.2598 16.8504 44.7698 16.5704 43.9498 16.7304H43.9598Z" fill="#3E4C59"/>
<path d="M47.02 22.8705H42.04C42.21 22.1205 42.77 20.9105 42.99 20.4405C43.02 20.3805 43.05 20.3105 43.08 20.2505C43.23 20.0005 43.48 19.7705 43.87 19.6605C43.92 19.6505 43.97 19.6305 44.02 19.6205H44.03C44.12 19.6805 44.27 19.9405 44.32 19.9605L45.06 19.5205C45.06 19.5205 45.08 19.5205 45.1 19.5205C45.11 19.5205 45.18 19.5305 45.27 19.5505C45.49 19.6105 45.86 19.7105 46.01 19.7905C46.33 19.9505 46.44 20.0205 46.8 21.7005C46.86 22.0005 46.94 22.4005 47.02 22.8505V22.8705Z" fill="#2A4E96"/>
<path d="M45.0101 19.3008L44.3301 19.9708C44.3301 19.9708 45.1801 19.7708 45.2801 19.5808C45.2801 19.5808 45.1501 19.2608 45.0101 19.3108V19.3008Z" fill="#163560"/>
<path d="M44.3299 19.9601L44.0299 19.3701C44.0299 19.3701 43.8999 19.4801 43.8799 19.6601C43.8799 19.6601 44.2199 19.9501 44.3399 19.9501L44.3299 19.9601Z" fill="#163560"/>
<path d="M40.23 31.8093C40.23 31.8093 40.28 32.7293 40.44 32.7393C40.46 32.7393 41.24 32.7393 41.24 32.7393H42.23C42.23 32.7393 42.23 32.4593 41.93 32.3993C41.64 32.3393 41.15 32.1093 40.98 31.6793C40.79 31.2193 40.23 31.7993 40.23 31.7993V31.8093Z" fill="#0E2C4F"/>
<path d="M37.3899 24.25C37.3899 24.25 36.3399 25.52 36.4199 26.47C36.4399 26.75 36.6599 26.96 36.9099 26.96L39.0799 25.65C39.0799 25.65 39.3999 27.22 39.4299 27.52C39.4599 27.82 39.7199 29.48 40.2299 31.83C40.2299 31.83 40.6099 31.98 40.8299 31.87C41.1299 31.73 41.1799 31.59 41.1799 31.59C41.1799 31.59 40.8799 26.33 40.6399 25.96C40.3999 25.59 37.9299 24.49 37.1299 24.38C36.3299 24.27 37.3999 24.25 37.3999 24.25H37.3899Z" fill="#163560"/>
<path d="M41.9702 31.8093C41.9702 31.8093 42.0202 32.7293 42.1802 32.7393C42.2002 32.7393 42.9802 32.7393 42.9802 32.7393H43.9702C43.9702 32.7393 43.9702 32.4593 43.6702 32.3993C43.3802 32.3393 42.8902 32.1093 42.7202 31.6793C42.5302 31.2193 41.9702 31.7993 41.9702 31.7993V31.8093Z" fill="#163560"/>
<path d="M36.4603 24.25C36.4603 24.25 36.2103 24.94 36.0703 25.7C35.9403 26.35 36.3803 26.97 36.9703 26.97H39.8403C39.8403 26.97 41.1003 27.22 41.1303 27.53C41.1603 27.84 41.4203 29.49 41.9303 31.84C41.9303 31.84 42.3103 31.95 42.6003 31.81C42.7603 31.73 42.8803 31.55 42.8803 31.55C42.8803 31.55 42.5703 26.33 42.3303 25.96C42.0903 25.59 39.6203 24.49 38.8203 24.38C38.0203 24.27 36.4703 24.25 36.4703 24.25H36.4603Z" fill="#2B478B"/>
<path d="M37.6001 19.6101L38.0901 20.0201L38.8401 19.9101C38.8401 19.8401 38.8001 19.5601 38.7701 19.3001C38.7701 19.2801 38.7701 19.2701 38.7701 19.2601C38.7701 19.2001 38.7601 19.1501 38.7501 19.1001C38.7301 18.9601 38.7201 18.8601 38.7201 18.8601L38.5101 18.7401L38.0401 18.4701L37.7901 18.3301C37.7901 18.3301 37.7901 18.5701 37.7901 18.6101C37.8101 19.2201 37.6001 19.6201 37.6001 19.6201V19.6101Z" fill="#FFB27D"/>
<path d="M38.6798 19.3601C38.6798 19.3601 37.8098 19.0601 37.7198 19.1101C37.6298 19.1601 37.5498 19.5001 37.5498 19.5001L39.0198 19.6501C39.0198 19.6501 38.8798 19.4101 38.6898 19.3501L38.6798 19.3601Z" fill="#163560"/>
<path d="M35.5 22.6198C35.53 21.5198 36.09 20.6198 36.33 20.2798C36.48 19.9298 37.55 19.5098 37.55 19.5098C37.55 19.5098 38.49 19.6098 39.02 19.6598C39.02 19.6598 40.03 19.8798 40.25 20.8498C40.78 23.1898 41.35 24.2098 41.21 24.7698C40.62 27.1198 38.55 27.0598 38.16 26.5898C37.96 26.3498 35.99 25.0398 36.07 23.4598C35.73 23.3398 35.48 23.0898 35.49 22.6298L35.5 22.6198Z" fill="#2A4E96"/>
<path d="M37.96 18.7595L38 18.7795C38 18.7795 38.39 19.0095 38.74 19.0895C38.72 18.9495 38.71 18.8495 38.71 18.8495L38.5 18.7295L37.96 18.7595Z" fill="#EAA16E"/>
<path d="M38.9801 18.8194C38.9801 18.8194 37.8501 19.1394 37.6801 18.3394C37.5101 17.5394 37.2501 17.0394 37.9701 16.7994C38.6901 16.5594 38.8901 16.8294 39.0101 17.0794C39.1201 17.3294 39.2801 18.7094 38.9901 18.8194H38.9801Z" fill="#FFB27D"/>
<path d="M38.9599 16.9997C38.9599 16.9997 38.8399 17.9097 38.6799 17.8597C38.5099 17.8097 38.3599 17.7697 38.3699 18.0497C38.3799 18.3297 38.5999 18.6597 38.0799 18.6797C37.5599 18.6997 36.8899 17.1397 37.0399 16.8697C37.4899 16.0697 39.5999 16.0297 38.9499 16.9997H38.9599Z" fill="#1F2933"/>
<path d="M34.3699 26.4004H40.5099V27.1404H35.0999C34.6899 27.1404 34.3599 26.8104 34.3599 26.4004H34.3699Z" fill="#77A4E5"/>
<path d="M41.1201 26.4004H36.9301C36.7257 26.4004 36.5601 26.566 36.5601 26.7704C36.5601 26.9747 36.7257 27.1404 36.9301 27.1404H41.1201C41.3244 27.1404 41.4901 26.9747 41.4901 26.7704C41.4901 26.566 41.3244 26.4004 41.1201 26.4004Z" fill="#F99746"/>
<path d="M37.5799 32.4697H37.2099L37.1099 27.1396H37.6699L37.5799 32.4697Z" fill="#94B0ED"/>
<path d="M39.1898 32.4692H35.5898V32.0992L37.4198 31.9092L39.1898 32.0992V32.4692Z" fill="#94B0ED"/>
<path d="M35.2397 32.4101C35.2397 32.2301 35.3697 32.0801 35.5397 32.0801C35.7097 32.0801 35.8397 32.2301 35.8397 32.4101C35.8397 32.5901 35.7097 32.7401 35.5397 32.7401C35.3697 32.7401 35.2397 32.5901 35.2397 32.4101Z" fill="#94B0ED"/>
<path d="M38.8398 32.4101C38.8398 32.2301 38.9698 32.0801 39.1398 32.0801C39.3098 32.0801 39.4398 32.2301 39.4398 32.4101C39.4398 32.5901 39.3098 32.7401 39.1398 32.7401C38.9698 32.7401 38.8398 32.5901 38.8398 32.4101Z" fill="#94B0ED"/>
<path d="M35.8696 27.1396H38.8996C38.8996 27.3296 38.7396 27.4896 38.5496 27.4896H36.2196C36.0296 27.4896 35.8696 27.3296 35.8696 27.1396Z" fill="#94B0ED"/>
<path d="M34.9397 27.14C34.7797 27.14 34.6597 27 34.6597 26.82V21.91C34.6597 20.99 35.1897 20.25 35.8497 20.25H38.5397C39.1997 20.25 39.7297 21 39.7297 21.91V27.13H34.9497L34.9397 27.14Z" fill="#F99746"/>
<path d="M34.8796 27.1398C34.5996 27.1398 34.3696 26.8798 34.3696 26.5598V21.9198C34.3696 20.9998 34.8996 20.2598 35.5596 20.2598H38.2496C38.9096 20.2598 39.4396 21.0098 39.4396 21.9198V27.1398H34.8896H34.8796Z" fill="#CC6A27"/>
<path d="M39.8696 24.1895C39.8696 24.1895 39.9996 25.1595 40.9596 25.4695L41.1796 25.1495L39.8696 24.1895Z" fill="#163560"/>
<path d="M40.6597 22.4199L41.5997 25.4699C41.5997 25.4699 40.1897 24.9799 39.9897 24.5599C39.7897 24.1399 39.7197 23.1699 39.7197 23.1699L40.6597 22.4199Z" fill="#2A4E96"/>
<path d="M49.83 23.1299C49.99 23.1299 50.12 23.2599 50.12 23.4199V25.3299H49.54V23.4199C49.54 23.2599 49.67 23.1299 49.83 23.1299Z" fill="#2B478B"/>
<path d="M49.8299 22.8896C49.9299 22.8896 49.9999 22.9696 49.9999 23.0596V24.1996H49.6499V23.0596C49.6499 22.9596 49.7299 22.8896 49.8199 22.8896H49.8299Z" fill="#2B478B"/>
<path d="M49.0701 23.8301C49.1801 23.8301 49.2701 23.9201 49.2701 24.0301V25.3301H48.8701V24.0301C48.8701 23.9201 48.9601 23.8301 49.0701 23.8301Z" fill="#F99746"/>
<path d="M49.08 23.6602C49.15 23.6602 49.2 23.7102 49.2 23.7802V24.5602H48.96V23.7802C48.96 23.7102 49.01 23.6602 49.08 23.6602Z" fill="#F99746"/>
<path d="M48.6697 25.0903V25.2703C48.6697 25.2703 48.6497 25.3303 48.6197 25.3303H48.0197C48.0197 25.3303 47.9697 25.3003 47.9697 25.2703V25.0903C47.9697 25.0903 47.9897 25.0303 48.0197 25.0303H48.6197C48.6197 25.0303 48.6697 25.0603 48.6697 25.0903Z" fill="#ED7D2B"/>
<path d="M48.67 25.0903V25.1803H47.96V25.0903C47.96 25.0903 47.98 25.0303 48.01 25.0303H48.61C48.61 25.0303 48.66 25.0603 48.66 25.0903H48.67Z" fill="#F99746"/>
<path d="M36.0498 17.3093C36.0498 17.3093 36.4398 17.0493 36.6498 17.0293C36.8598 17.0093 37.1998 17.3093 37.1898 17.3493C37.1798 17.4793 36.7598 17.3793 36.6698 17.4393C36.5798 17.4993 36.7398 17.6093 36.5298 17.6693C36.3498 17.7193 36.0298 17.6593 36.0298 17.6593V17.3193L36.0498 17.3093Z" fill="#FFB27D"/>
<path d="M36.2099 17.3697C36.2099 17.2297 36.1299 17.1197 36.0099 17.0897C35.5399 16.9797 34.3399 16.6897 34.1999 16.6497C34.0599 16.6097 32.4899 15.5897 32.0299 15.2797C31.9499 15.2297 31.8499 15.2297 31.7699 15.2797L30.8099 15.9597C30.6299 16.0897 30.6599 16.3897 30.8499 16.4697C31.7499 16.8497 33.6299 17.6497 33.9599 17.7297C34.5299 17.8797 35.5999 17.7497 35.9899 17.6897C36.0999 17.6697 36.1899 17.5797 36.2099 17.4497C36.2099 17.4197 36.2099 17.3997 36.2099 17.3697Z" fill="#E58638"/>
<path d="M31.6396 31.8993C31.6396 31.8993 31.6796 32.5893 31.7896 32.7493H33.5296C33.5196 32.6793 33.4696 32.5093 33.2496 32.4693C32.9796 32.4193 32.5196 32.1993 32.3496 31.7893C32.1796 31.3593 31.6396 31.8993 31.6396 31.8993Z" fill="#163560"/>
<path d="M28.5598 31.7995C28.5598 31.7995 28.4298 32.7395 28.5698 32.7595C28.5898 32.7595 29.3198 32.7495 29.5098 32.7795C29.8198 32.8295 30.3498 32.7695 30.3498 32.7695C30.4098 32.7695 30.4298 32.6395 30.3998 32.5695C30.3598 32.4995 30.2998 32.4295 30.1598 32.3995C29.8898 32.3395 29.4298 32.1095 29.2698 31.6995C29.0998 31.2695 28.5598 31.7995 28.5598 31.7995Z" fill="#163560"/>
<path d="M32.4498 22.7693C32.4498 22.7693 32.0098 24.4893 30.7598 27.4893C29.5098 30.4793 29.4098 31.8493 29.4098 31.8493L28.5498 31.7993C28.5498 31.7993 28.6298 28.2393 29.2198 26.7193C29.8098 25.2093 29.9298 21.0693 29.9298 21.0693L32.4398 22.7593L32.4498 22.7693Z" fill="#94B0ED"/>
<path d="M33.1598 21.29C33.1598 21.29 33.1898 23.96 32.7898 27.24C32.3798 30.52 32.5198 31.91 32.5198 31.91L31.5398 31.95C31.5398 31.95 30.9498 28.67 31.1198 27.03C31.2898 25.39 30.3198 21.4 30.3198 21.4L33.1598 21.3V21.29Z" fill="#AEC3FF"/>
<path d="M31.2197 15.0397L31.6797 15.4297L32.3497 15.2697C32.3497 15.1997 32.2997 14.9197 32.2597 14.6597C32.2597 14.6397 32.2597 14.6297 32.2597 14.6097C32.2297 14.3897 32.1997 14.1997 32.1997 14.1997L31.5797 13.8497L31.3497 13.7197C31.3497 13.7197 31.3697 13.9597 31.3697 13.9997C31.4097 14.6197 31.2397 15.0397 31.2397 15.0397H31.2197Z" fill="#FFB27D"/>
<path d="M29.8996 21.62C29.8896 20.92 30.0996 19.95 30.2396 18.53C30.2996 17.92 30.2496 17.0399 30.3696 16.4899C30.5696 15.5099 30.7596 14.9499 31.1396 14.8199C31.2796 14.7699 31.8096 14.93 32.1896 15.05C32.2196 15.05 32.2396 15.0699 32.2696 15.0799C32.3596 15.1199 32.4496 15.18 32.5196 15.26C32.6196 15.37 32.6996 15.5099 32.7396 15.6599C32.7996 15.8799 32.8696 16.1699 32.9196 16.4799C32.9796 16.8199 33.0196 17.1999 33.0296 17.5599C33.0296 17.9399 33.0796 18.5 33.1296 19.1C33.1296 19.17 33.1396 19.2299 33.1496 19.2999C33.1496 19.3499 33.2196 20.86 33.2396 21.26C33.2396 21.26 33.2396 21.27 33.2396 21.28C33.2396 21.28 33.2396 21.2899 33.2396 21.2999C33.2396 21.3399 33.2396 21.36 33.2396 21.36C33.2796 21.84 29.9096 22.4 29.8896 21.6L29.8996 21.62Z" fill="#F99746"/>
<path d="M31.4 14.0096C31.54 14.3096 32.05 14.5596 32.26 14.6596C32.26 14.6396 32.26 14.6296 32.26 14.6096C32.23 14.3896 32.2 14.1996 32.2 14.1996L31.58 13.8496C31.44 13.8496 31.36 13.8896 31.41 14.0096H31.4Z" fill="#FCA56B"/>
<path d="M32.4897 14.1594C32.4897 14.1594 31.3597 14.5594 31.1597 13.7594C30.9497 12.9594 30.6697 12.4794 31.3797 12.1894C32.0897 11.8994 32.3097 12.1594 32.4397 12.4094C32.5697 12.6594 32.7897 14.0394 32.4997 14.1594H32.4897Z" fill="#FFB27D"/>
<path d="M32.39 12.3297C32.39 12.3297 32.32 13.2597 32.15 13.2197C31.98 13.1797 31.83 13.1497 31.85 13.4297C31.87 13.7097 32.11 14.0297 31.59 14.0797C31.07 14.1297 30.32 12.6097 30.46 12.3197C30.87 11.4897 32.99 11.3197 32.39 12.3397V12.3297Z" fill="#1F2933"/>
<path d="M33.2397 21.3095C30.7297 21.1595 31.2497 18.0195 31.2497 18.0195L33.1397 19.1095C33.1397 19.1795 33.1497 19.2395 33.1597 19.3095C33.1597 19.3595 33.2297 20.8695 33.2497 21.2695C33.2497 21.2695 33.2497 21.2795 33.2497 21.2895C33.2497 21.2895 33.2497 21.2995 33.2497 21.3095H33.2397Z" fill="#E58638"/>
<path d="M37.0296 17.729C36.9896 17.819 36.8796 17.859 36.7996 17.809C36.7196 17.759 36.6796 17.649 36.7296 17.549C36.7696 17.459 36.8796 17.419 36.9596 17.469C37.0396 17.519 37.0796 17.629 37.0296 17.729ZM36.9696 17.699C36.9996 17.639 36.9696 17.569 36.9196 17.539C36.8696 17.509 36.8096 17.539 36.7796 17.589C36.7496 17.649 36.7796 17.719 36.8296 17.749C36.8796 17.779 36.9396 17.749 36.9696 17.699Z" fill="#2A4E96"/>
<path d="M37.0095 17.6391L37.8695 17.3991C37.8695 17.3991 37.7895 17.3291 37.6595 17.3291C37.5295 17.3291 36.9795 17.5091 36.9795 17.5091L36.9995 17.6391H37.0095Z" fill="#2A4E96"/>
<path d="M36.9697 17.3494C36.8797 17.3794 36.7897 17.3194 36.7597 17.2094C36.7397 17.1094 36.7897 16.9994 36.8797 16.9794C36.9697 16.9494 37.0597 17.0094 37.0897 17.1194C37.1097 17.2194 37.0597 17.3294 36.9697 17.3494ZM36.8997 17.0494C36.8397 17.0694 36.8097 17.1294 36.8297 17.1894C36.8397 17.2494 36.8997 17.2894 36.9597 17.2694C37.0197 17.2494 37.0497 17.1894 37.0297 17.1294C37.0197 17.0694 36.9597 17.0294 36.8997 17.0494Z" fill="#2A4E96"/>
<path d="M37.0598 17.1992L37.8598 17.6392C37.8598 17.6392 37.7698 17.6892 37.6398 17.6592C37.5098 17.6292 37.0098 17.3192 37.0098 17.3192L37.0598 17.1992Z" fill="#2A4E96"/>
<path d="M37.3594 17.4297C37.3594 17.4297 37.3394 17.4297 37.3394 17.4497C37.3394 17.4597 37.3394 17.4697 37.3594 17.4697C37.3694 17.4697 37.3794 17.4697 37.3794 17.4497C37.3794 17.4397 37.3794 17.4297 37.3594 17.4297Z" fill="#2A4E96"/>
<path d="M36.4799 17.4092C36.4799 17.4092 36.5999 17.4792 36.7199 17.5392C36.8099 17.5892 36.9099 17.5992 36.9399 17.6292C37.0199 17.6792 36.8899 17.7792 36.6799 17.7292C36.4999 17.6892 36.4099 17.7492 36.2599 17.6792C36.0799 17.5892 36.4799 17.4092 36.4799 17.4092Z" fill="#FFB27D"/>
<path d="M35.4097 18.5501L35.2497 18.5301C35.2497 18.5301 35.2397 18.5301 35.2397 18.5101C35.2397 18.5101 35.2397 18.4901 35.2597 18.4901L35.4197 18.5101C35.4197 18.5101 35.4597 18.4901 35.4697 18.4701L35.5797 17.4401C35.5797 17.4401 35.5697 17.3901 35.5397 17.3901L35.3797 17.3701C35.3797 17.3701 35.3697 17.3701 35.3697 17.3501C35.3697 17.3501 35.3697 17.3301 35.3897 17.3301L35.5497 17.3501C35.5497 17.3501 35.6197 17.4001 35.6097 17.4401L35.4997 18.4701C35.4997 18.4701 35.4597 18.5401 35.4297 18.5401L35.4097 18.5501Z" fill="#163560"/>
<path d="M35.5796 17.4404H35.5696L35.3596 17.4104L35.3496 17.4004H35.3596L35.5796 17.4304V17.4404Z" fill="#163560"/>
<path d="M35.5698 17.5107L35.3498 17.4807H35.3398L35.3498 17.4707L35.5698 17.5007V17.5107Z" fill="#163560"/>
<path d="M35.5598 17.59L35.3398 17.56V17.55V17.54L35.5598 17.57L35.5698 17.58L35.5598 17.59Z" fill="#163560"/>
<path d="M35.5496 17.6604L35.3296 17.6304V17.6204L35.3396 17.6104L35.5496 17.6404L35.5596 17.6504L35.5496 17.6604Z" fill="#163560"/>
<path d="M35.5493 17.7304H35.5393L35.3293 17.7004L35.3193 17.6904H35.3293L35.5493 17.7104V17.7204V17.7304Z" fill="#163560"/>
<path d="M35.5396 17.8007L35.3196 17.7707H35.3096L35.3196 17.7607L35.5396 17.7907V17.8007Z" fill="#163560"/>
<path d="M35.5296 17.8798L35.3096 17.8498V17.8398L35.5296 17.8698V17.8798Z" fill="#163560"/>
<path d="M35.5193 17.9602L35.2993 17.9302V17.9202V17.9102L35.5193 17.9402L35.5293 17.9502L35.5193 17.9602Z" fill="#163560"/>
<path d="M35.5096 18.0302L35.2995 18.0002L35.2896 17.9902H35.2995L35.5096 18.0202H35.5196L35.5096 18.0302Z" fill="#163560"/>
<path d="M35.4993 18.1103L35.2893 18.0803L35.2793 18.0703H35.2893L35.5093 18.0903V18.1003L35.4993 18.1103Z" fill="#163560"/>
<path d="M35.4995 18.1806L35.2795 18.1506L35.2695 18.1406H35.2795L35.4995 18.1706V18.1806Z" fill="#163560"/>
<path d="M35.4895 18.25L35.2695 18.23V18.22V18.21L35.4895 18.24L35.4995 18.25H35.4895Z" fill="#163560"/>
<path d="M35.4798 18.3203L35.2598 18.2903V18.2803H35.2698L35.4798 18.3003L35.4898 18.3103L35.4798 18.3203Z" fill="#163560"/>
<path d="M35.4695 18.3906L35.2595 18.3606L35.2495 18.3506H35.2595L35.4795 18.3806L35.4695 18.3906Z" fill="#163560"/>
<path d="M35.4697 18.4599L35.2497 18.4399L35.2397 18.4299L35.2497 18.4199L35.4697 18.4499V18.4599Z" fill="#163560"/>
<path d="M34.7396 18.3395C34.7396 18.3395 35.1296 18.0395 35.1996 18.0195C35.2696 17.9895 35.5196 17.9695 35.5296 17.9895C35.5396 18.0095 35.5696 18.0795 35.5296 18.0995C35.4896 18.1195 35.4396 18.1095 35.4496 18.1295C35.4696 18.1495 35.6196 18.0595 35.6596 18.1495C35.6996 18.2395 35.7296 18.5495 35.5396 18.6495C35.3496 18.7395 34.8896 18.6495 34.8596 18.6695C34.5796 18.7595 34.7296 18.3395 34.7296 18.3395H34.7396Z" fill="#FFB27D"/>
<path d="M30.2097 18.8593C30.2097 18.8593 30.9597 18.9493 31.8197 18.7393L31.7897 18.9593C31.7897 18.9593 31.2697 19.2493 30.1797 19.0793L30.2097 18.8593Z" fill="#2A4E96"/>
<path d="M32.2198 16.1398L31.8198 18.7398L32.0198 25.3198C32.0198 25.3198 32.6798 25.5198 33.2398 25.3198C33.2398 25.3198 33.3998 17.2298 32.8198 16.0098L32.2098 16.1398H32.2198Z" fill="#2A4E96"/>
<path d="M34.7396 18.2599C34.7396 18.2599 32.8496 18.6199 32.6796 18.5299C32.4096 18.3799 32.5896 16.0699 32.5896 16.0699C32.5896 16.0699 32.7996 15.7199 32.2896 15.6099C31.8496 15.5099 31.4196 15.8799 31.4196 15.8799C31.4196 15.8799 31.0296 16.2699 31.0796 16.7099C31.1896 17.6699 31.3596 19.6399 31.9296 19.9399C32.6696 20.3299 34.7996 18.8599 34.7996 18.8599C34.7996 18.8599 34.8696 18.7599 34.8596 18.5799C34.8596 18.4199 34.7396 18.2599 34.7396 18.2599Z" fill="#F99746"/>
<path d="M32.5899 16.0697C32.5899 16.0697 32.5299 15.1297 31.6299 14.8097L31.7699 14.7197C31.7699 14.7197 32.6399 15.0397 32.7199 16.0697H32.5799H32.5899Z" fill="#2A4E96"/>
<path d="M32.3099 14.8395C32.3099 14.8395 31.3999 14.5395 31.2999 14.5695C31.1999 14.6095 31.1499 14.8195 31.1499 14.8195L32.5299 15.2595C32.5299 15.2595 32.4999 14.9295 32.3099 14.8395Z" fill="#E58638"/>
<path d="M56.2298 32.7402H2.1798C2.10801 32.7402 2.0498 32.7984 2.0498 32.8702C2.0498 32.942 2.10801 33.0002 2.1798 33.0002H56.2298C56.3016 33.0002 56.3598 32.942 56.3598 32.8702C56.3598 32.7984 56.3016 32.7402 56.2298 32.7402Z" fill="#2E3552"/>
<path d="M17.02 13.3604V16.7604L21.49 13.3604H17.02Z" fill="#CADAFF"/>
<path d="M22.2098 13.3604L17.0198 17.6804L17.0098 18.4304L23.1298 13.3604H22.2098Z" fill="#CADAFF"/>
<path d="M40.5298 13.3604V16.7604L44.9998 13.3604H40.5298Z" fill="#CADAFF"/>
<path d="M45.72 13.3604L40.53 17.6804L40.52 18.4304L46.63 13.3604H45.72Z" fill="#CADAFF"/>
</g>
<defs>
<clipPath id="clip0_1947_16724">
<rect width="56" height="33" fill="white" transform="translate(0.359863)"/>
</clipPath>
</defs>
</svg>
