<svg width="57" height="33" viewBox="0 0 57 33" fill="none" xmlns="http://www.w3.org/2000/svg">
<g clip-path="url(#clip0_1947_16722)">
<path opacity="0.4" d="M50.2601 30.0203C50.2601 30.0203 53.6701 26.1903 51.9401 15.7803C48.8401 -2.79974 8.11008 0.580265 11.6801 12.3003C13.9201 19.6703 0.250077 18.2603 5.49008 30.0303H50.2601V30.0203Z" fill="#FFD0B5"/>
<path d="M38.4001 6.57031H17.3101V19.0203H38.4001V6.57031Z" fill="#82B378"/>
<path d="M38.7797 19.29H16.9297V6.29004H38.7897V19.28L38.7797 19.29ZM17.3097 19.02H38.3997V6.57004H17.3097V19.02Z" fill="#EAC3A0"/>
<path d="M38.9499 18.8906H16.7999C16.6949 18.8906 16.6099 18.9757 16.6099 19.0806C16.6099 19.1856 16.6949 19.2706 16.7999 19.2706H38.9499C39.0548 19.2706 39.1399 19.1856 39.1399 19.0806C39.1399 18.9757 39.0548 18.8906 38.9499 18.8906Z" fill="#D39E7A"/>
<path d="M34.2197 18.6406H33.5597C33.4879 18.6406 33.4297 18.6966 33.4297 18.7656C33.4297 18.8347 33.4879 18.8906 33.5597 18.8906H34.2197C34.2915 18.8906 34.3497 18.8347 34.3497 18.7656C34.3497 18.6966 34.2915 18.6406 34.2197 18.6406Z" fill="white"/>
<path d="M29.9498 18.6406H29.6798C29.608 18.6406 29.5498 18.6966 29.5498 18.7656C29.5498 18.8347 29.608 18.8906 29.6798 18.8906H29.9498C30.0216 18.8906 30.0798 18.8347 30.0798 18.7656C30.0798 18.6966 30.0216 18.6406 29.9498 18.6406Z" fill="white"/>
<path d="M29.26 18.6406H28.59C28.5182 18.6406 28.46 18.6966 28.46 18.7656C28.46 18.8347 28.5182 18.8906 28.59 18.8906H29.26C29.3318 18.8906 29.39 18.8347 29.39 18.7656C29.39 18.6966 29.3318 18.6406 29.26 18.6406Z" fill="white"/>
<path d="M43.5801 8.64062H43.0801C42.2627 8.64062 41.6001 9.30324 41.6001 10.1206V10.1306C41.6001 10.948 42.2627 11.6106 43.0801 11.6106H43.5801C44.3975 11.6106 45.0601 10.948 45.0601 10.1306V10.1206C45.0601 9.30324 44.3975 8.64062 43.5801 8.64062Z" fill="#EAC3A0"/>
<path d="M43.56 8.77051H43.1C42.3544 8.77051 41.75 9.37492 41.75 10.1205V10.1305C41.75 10.8761 42.3544 11.4805 43.1 11.4805H43.56C44.3056 11.4805 44.91 10.8761 44.91 10.1305V10.1205C44.91 9.37492 44.3056 8.77051 43.56 8.77051Z" fill="#FFEEDE"/>
<path d="M43.2603 9.04047C43.2603 9.04047 43.2903 8.98047 43.3303 8.98047C43.3703 8.98047 43.4003 9.01047 43.4003 9.04047C43.4003 9.07047 43.3703 9.10047 43.3303 9.10047C43.2903 9.10047 43.2603 9.07047 43.2603 9.04047Z" fill="#EAC3A0"/>
<path d="M43.8303 9.13009C43.8303 9.13009 43.8903 9.09009 43.9303 9.11009C43.9603 9.13009 43.9803 9.17009 43.9603 9.20009C43.9403 9.23009 43.9003 9.24009 43.8603 9.22009C43.8303 9.20009 43.8103 9.16009 43.8303 9.13009Z" fill="#EAC3A0"/>
<path d="M44.3302 9.48012C44.3302 9.48012 44.4102 9.47012 44.4302 9.50012C44.4502 9.53012 44.4402 9.57012 44.4102 9.59012C44.3802 9.61012 44.3302 9.60012 44.3102 9.57012C44.2902 9.54012 44.3002 9.50012 44.3302 9.48012Z" fill="#EAC3A0"/>
<path d="M44.5705 10.0205C44.5705 10.0205 44.6405 10.0505 44.6405 10.0805C44.6405 10.1105 44.6105 10.1405 44.5705 10.1405C44.5305 10.1405 44.5005 10.1105 44.5005 10.0805C44.5005 10.0505 44.5305 10.0205 44.5705 10.0205Z" fill="#EAC3A0"/>
<path d="M44.4501 10.64C44.4501 10.64 44.4801 10.7 44.4501 10.73C44.4201 10.75 44.3801 10.75 44.3501 10.73C44.3201 10.71 44.3201 10.67 44.3501 10.64C44.3801 10.62 44.4201 10.62 44.4501 10.64Z" fill="#EAC3A0"/>
<path d="M44.0004 11.0404C44.0004 11.0404 44.0304 11.1004 44.0004 11.1304C43.9704 11.1504 43.9304 11.1504 43.9004 11.1304C43.8704 11.1104 43.8704 11.0704 43.9004 11.0404C43.9304 11.0204 43.9704 11.0204 44.0004 11.0404Z" fill="#EAC3A0"/>
<path d="M43.2603 11.2407C43.2603 11.2407 43.2903 11.1807 43.3303 11.1807C43.3703 11.1807 43.4003 11.2107 43.4003 11.2407C43.4003 11.2707 43.3703 11.3007 43.3303 11.3007C43.2903 11.3007 43.2603 11.2707 43.2603 11.2407Z" fill="#EAC3A0"/>
<path d="M42.8202 9.13009C42.8202 9.13009 42.7602 9.09009 42.7202 9.11009C42.6902 9.13009 42.6702 9.17009 42.6902 9.20009C42.7102 9.23009 42.7502 9.24009 42.7902 9.22009C42.8202 9.20009 42.8402 9.16009 42.8202 9.13009Z" fill="#EAC3A0"/>
<path d="M42.3204 9.48012C42.3204 9.48012 42.2404 9.47012 42.2204 9.50012C42.2004 9.53012 42.2104 9.57012 42.2404 9.59012C42.2704 9.61012 42.3204 9.60012 42.3404 9.57012C42.3604 9.54012 42.3504 9.50012 42.3204 9.48012Z" fill="#EAC3A0"/>
<path d="M42.0803 10.0205C42.0803 10.0205 42.0103 10.0505 42.0103 10.0805C42.0103 10.1105 42.0403 10.1405 42.0803 10.1405C42.1203 10.1405 42.1503 10.1105 42.1503 10.0805C42.1503 10.0505 42.1203 10.0205 42.0803 10.0205Z" fill="#EAC3A0"/>
<path d="M42.2003 10.64C42.2003 10.64 42.1703 10.7 42.2003 10.73C42.2303 10.75 42.2703 10.75 42.3003 10.73C42.3303 10.71 42.3303 10.67 42.3003 10.64C42.2703 10.62 42.2303 10.62 42.2003 10.64Z" fill="#EAC3A0"/>
<path d="M42.6501 11.0404C42.6501 11.0404 42.6201 11.1004 42.6501 11.1304C42.6801 11.1504 42.7201 11.1504 42.7501 11.1304C42.7801 11.1104 42.7801 11.0704 42.7501 11.0404C42.7201 11.0204 42.6801 11.0204 42.6501 11.0404Z" fill="#EAC3A0"/>
<path d="M43.3101 10.0815C43.3101 10.0815 43.3401 10.0215 43.3801 10.0215C43.4201 10.0215 43.4501 10.0515 43.4501 10.0815C43.4501 10.1115 43.4201 10.1415 43.3801 10.1415C43.3401 10.1415 43.3101 10.1115 43.3101 10.0815Z" fill="#EAC3A0"/>
<path d="M43.3901 9.29102H43.3701V10.081H43.3901V9.29102Z" fill="#EAC3A0"/>
<path d="M43.3901 10.1014L43.3501 10.0614L43.8301 9.73145L43.8601 9.77145L43.3901 10.1014Z" fill="#EAC3A0"/>
<path d="M15.2499 22.9899V23.1699C15.2499 23.2299 15.2299 23.2799 15.1999 23.2799H7.92988C7.92988 23.2799 7.87988 23.2299 7.87988 23.1699V22.9899C7.87988 22.9299 7.89988 22.8799 7.92988 22.8799H15.1999C15.1999 22.8799 15.2499 22.9299 15.2499 22.9899Z" fill="#D39E7A"/>
<path d="M15.2499 22.9899V23.1699C15.2499 23.2299 15.2299 23.2799 15.1999 23.2799H9.42988C9.42988 23.2799 9.37988 23.2299 9.37988 23.1699V22.9899C9.37988 22.9299 9.39988 22.8799 9.42988 22.8799H15.1999C15.1999 22.8799 15.2499 22.9299 15.2499 22.9899Z" fill="#EFCBAB"/>
<path d="M13.41 23.2705H8.25V29.9205H13.41V23.2705Z" fill="#EAC3A0"/>
<path d="M14.8499 23.2705H9.68994V29.9205H14.8499V23.2705Z" fill="#F9DDBF"/>
<path d="M14.5797 29.5607H9.96973V23.4707H14.5797V29.5607ZM10.0197 29.5207H14.5297V23.5107H10.0197V29.5207Z" fill="#EAC3A0"/>
<path d="M14.5595 25.4805H9.99951V25.5205H14.5595V25.4805Z" fill="#EAC3A0"/>
<path d="M14.5595 27.5303H9.99951V27.5703H14.5595V27.5303Z" fill="#EAC3A0"/>
<path d="M12.7398 23.8509H11.8898C11.8898 23.8509 11.8198 23.8209 11.8198 23.7809C11.8198 23.7809 11.8498 23.7109 11.8898 23.7109H12.7398C12.7398 23.7109 12.8098 23.7409 12.8098 23.7809C12.8098 23.7809 12.7798 23.8509 12.7398 23.8509Z" fill="#EAC3A0"/>
<path d="M12.7398 25.8607H11.8898C11.8898 25.8607 11.8198 25.8307 11.8198 25.7907C11.8198 25.7907 11.8498 25.7207 11.8898 25.7207H12.7398C12.7398 25.7207 12.8098 25.7507 12.8098 25.7907C12.8098 25.7907 12.7798 25.8607 12.7398 25.8607Z" fill="#EAC3A0"/>
<path d="M12.7398 27.9603H11.8898C11.8898 27.9603 11.8198 27.9303 11.8198 27.8903C11.8198 27.8903 11.8498 27.8203 11.8898 27.8203H12.7398C12.7398 27.8203 12.8098 27.8503 12.8098 27.8903C12.8098 27.8903 12.7798 27.9603 12.7398 27.9603Z" fill="#EAC3A0"/>
<path d="M43.4798 29.8505C43.5298 29.8505 43.5798 29.8105 43.5698 29.7705L43.4298 24.3105L43.0098 24.2705L43.3698 29.7705C43.3698 29.7705 43.4198 29.8505 43.4698 29.8505H43.4798Z" fill="#EAC3A0"/>
<path d="M45.9197 29.8505C45.9697 29.8505 46.0197 29.8105 46.0097 29.7705L45.8697 24.3105L45.4497 24.2705L45.8097 29.7705C45.8097 29.7705 45.8597 29.8505 45.9097 29.8505H45.9197Z" fill="#EAC3A0"/>
<path d="M39.1699 29.8505C39.1199 29.8505 39.0699 29.8105 39.0799 29.7705L39.2199 24.3105L39.6399 24.2705L39.2799 29.7705C39.2799 29.7705 39.2299 29.8505 39.1799 29.8505H39.1699Z" fill="#EAC3A0"/>
<path d="M46.1997 23.9603V20.2203C46.1997 19.5603 45.5997 19.0303 44.8497 19.0303H41.7997C41.0597 19.0303 40.4497 19.5603 40.4497 20.2203V24.1003L46.1997 23.9603Z" fill="#EFCBAB"/>
<path d="M45.6097 24.5605H39.9097V23.9705H46.1997C46.1997 24.3005 45.9397 24.5605 45.6097 24.5605Z" fill="#EAC3A0"/>
<path d="M39.21 24.5605H43.66C43.8256 24.5605 43.96 24.4285 43.96 24.2655C43.96 24.1026 43.8256 23.9705 43.66 23.9705H39.21C39.0443 23.9705 38.91 24.1026 38.91 24.2655C38.91 24.4285 39.0443 24.5605 39.21 24.5605Z" fill="#F9DDBF"/>
<path d="M49.14 29.9596H49.15C49.22 29.9596 49.28 29.9096 49.27 29.8396L49.08 22.1996L48.52 22.1396L48.99 29.8396C48.99 29.9096 49.05 29.9596 49.12 29.9596H49.14Z" fill="#D39E7A"/>
<path d="M35.5998 29.9596H35.5898C35.5198 29.9596 35.4598 29.9096 35.4698 29.8396L35.6598 22.1996L36.2198 22.1396L35.7498 29.8396C35.7498 29.9096 35.6898 29.9596 35.6198 29.9596H35.5998Z" fill="#D39E7A"/>
<path d="M50.1299 21.7998H34.9399C34.7908 21.7998 34.6699 21.9185 34.6699 22.0648C34.6699 22.2112 34.7908 22.3298 34.9399 22.3298H50.1299C50.279 22.3298 50.3999 22.2112 50.3999 22.0648C50.3999 21.9185 50.279 21.7998 50.1299 21.7998Z" fill="#D39E7A"/>
<path d="M36.0601 21.04H37.4301C37.5501 21.04 37.6401 21.14 37.6401 21.25C37.6401 21.37 37.5401 21.47 37.4201 21.47H36.0601V21.04Z" fill="#FCECDB"/>
<path d="M38.8097 21.2203V21.2803C38.8097 21.2803 38.7997 21.3503 38.7797 21.3703C38.7397 21.4303 38.6697 21.4603 38.5997 21.4603H36.0197C36.0197 21.4603 35.9897 21.4503 35.9897 21.4303C35.9897 21.4303 35.9997 21.3903 36.0197 21.3903H37.5997C37.5997 21.3903 37.6197 21.3703 37.6197 21.3603C37.6297 21.3403 37.6397 21.3103 37.6397 21.2803V21.2003C37.6397 21.2003 37.6397 21.1703 37.6397 21.1603C37.6397 21.1403 37.6197 21.1103 37.5997 21.1003H36.0197C36.0197 21.1003 35.9897 21.0903 35.9897 21.0703C35.9897 21.0703 35.9997 21.0303 36.0197 21.0303H38.6197C38.7097 21.0303 38.7897 21.0803 38.8097 21.1603C38.8097 21.1803 38.8097 21.1903 38.8097 21.2103V21.2203Z" fill="#699DEE"/>
<path d="M38.81 21.17H37.63C37.63 21.17 37.61 21.12 37.59 21.11H36.01C36.01 21.11 35.98 21.1 35.98 21.08C35.98 21.08 35.99 21.04 36.01 21.04H38.61C38.7 21.04 38.78 21.09 38.8 21.17H38.81Z" fill="#548EE2"/>
<path d="M36.0601 21.2607H36.2501L36.0601 21.2707V21.2607Z" fill="#F4D2B8"/>
<path d="M36.0601 21.3203L36.5101 21.3303H36.0601V21.3203Z" fill="#F4D2B8"/>
<path d="M36.3902 21.7997H37.8602V21.4697H36.3802C36.2802 21.4697 36.2002 21.5397 36.2002 21.6297C36.2002 21.7297 36.2902 21.7997 36.4002 21.7997H36.3902Z" fill="#B5453C"/>
<path d="M39.4402 21.7998H37.7502C37.6602 21.7998 37.5802 21.7198 37.5802 21.6298C37.5802 21.5398 37.6502 21.4598 37.7502 21.4598H39.4502V21.7898L39.4402 21.7998Z" fill="#FCECDB"/>
<path d="M37.4704 21.8002H39.5004C39.5004 21.8002 39.5304 21.7902 39.5304 21.7702C39.5304 21.7702 39.5204 21.7402 39.5004 21.7402H37.4704C37.4704 21.7402 37.4404 21.7502 37.4404 21.7702C37.4404 21.7702 37.4504 21.8002 37.4704 21.8002Z" fill="#B5453C"/>
<path d="M37.4704 21.52H39.5004C39.5004 21.52 39.5304 21.51 39.5304 21.49C39.5304 21.49 39.5204 21.46 39.5004 21.46H37.4704C37.4704 21.46 37.4404 21.47 37.4404 21.49C37.4404 21.49 37.4504 21.52 37.4704 21.52Z" fill="#B5453C"/>
<path d="M39.4402 21.6396H39.2202L39.4402 21.6496V21.6396Z" fill="#F4D2B8"/>
<path d="M39.4404 21.5596L38.9004 21.5696H39.4404V21.5596Z" fill="#F4D2B8"/>
<path d="M38.9102 21.5596C38.9102 21.5596 38.9302 21.5696 38.9402 21.5996C38.9402 21.5996 38.9402 21.5996 38.9402 21.6096C38.9402 21.6396 38.9402 21.7096 38.9402 21.7096L39.0102 21.6696L39.0802 21.7096V21.6096C39.0802 21.6096 39.0802 21.5696 39.0602 21.5596C39.0602 21.5596 39.0502 21.5596 39.0402 21.5596H38.9102Z" fill="#699DEE"/>
<path d="M38.9102 21.5596C38.9102 21.5596 38.9302 21.5696 38.9402 21.5996H39.0802C39.0802 21.5996 39.0802 21.5696 39.0502 21.5596H38.9202H38.9102Z" fill="#568CDB"/>
<path d="M38.1299 20.7207H38.8699C38.9599 20.7207 39.0299 20.7907 39.0299 20.8807C39.0299 20.9707 38.9599 21.0507 38.8599 21.0507H38.1299V20.7307V20.7207Z" fill="#F99746"/>
<path d="M35.8799 20.7207H38.3699C38.4599 20.7207 38.5299 20.7907 38.5299 20.8807C38.5299 20.9707 38.4599 21.0407 38.3699 21.0407H35.8899V20.7207H35.8799Z" fill="#FCECDB"/>
<path d="M38.7098 20.9902H35.7798C35.7687 20.9902 35.7598 20.9992 35.7598 21.0102V21.0202C35.7598 21.0313 35.7687 21.0402 35.7798 21.0402H38.7098C38.7208 21.0402 38.7298 21.0313 38.7298 21.0202V21.0102C38.7298 20.9992 38.7208 20.9902 38.7098 20.9902Z" fill="#F99746"/>
<path d="M38.7098 20.7207H35.7798C35.7687 20.7207 35.7598 20.7297 35.7598 20.7407V20.7507C35.7598 20.7617 35.7687 20.7707 35.7798 20.7707H38.7098C38.7208 20.7707 38.7298 20.7617 38.7298 20.7507V20.7407C38.7298 20.7297 38.7208 20.7207 38.7098 20.7207Z" fill="#F99746"/>
<path d="M48.5801 21.5897H48.4801V19.9997L49.5401 17.5997L47.6401 16.2897L47.7001 16.2197L49.6701 17.5597L48.5801 20.0197V21.5897Z" fill="#EAC3A0"/>
<path d="M47.4202 16.4602C47.4202 16.4602 47.3602 16.3702 47.3902 16.3302L47.5502 16.1302C47.5502 16.1302 47.6502 16.0802 47.7002 16.1102C47.7002 16.1102 47.7602 16.2002 47.7302 16.2402L47.5702 16.4402C47.5702 16.4402 47.4702 16.4902 47.4202 16.4602Z" fill="#EAC3A0"/>
<path d="M49.5804 17.6902C49.6577 17.6902 49.7204 17.6365 49.7204 17.5702C49.7204 17.5039 49.6577 17.4502 49.5804 17.4502C49.5031 17.4502 49.4404 17.5039 49.4404 17.5702C49.4404 17.6365 49.5031 17.6902 49.5804 17.6902Z" fill="#EAC3A0"/>
<path d="M47.66 17.8297C47.66 17.8297 47.66 17.8297 47.64 17.8397C47.64 17.8397 47.64 17.8497 47.63 17.8497C47.49 17.9597 47.02 17.7597 46.56 17.3997C46.1 17.0397 45.83 16.6497 45.94 16.5097C45.94 16.5097 45.94 16.5097 45.95 16.4997C45.95 16.4997 45.95 16.4897 45.96 16.4797C46.38 16.0697 47.1 16.0297 47.57 16.3997C48.04 16.7697 48.08 17.4097 47.66 17.8197V17.8297Z" fill="#F99746"/>
<path d="M47.6498 17.8399C47.6498 17.8399 47.6498 17.8399 47.6398 17.8399C47.4998 17.9499 47.0298 17.7499 46.5698 17.3899C46.1098 17.0299 45.8398 16.6399 45.9498 16.4999C46.0498 16.4199 46.3098 16.4999 46.6198 16.6699C46.7498 16.7399 46.8898 16.8399 47.0298 16.9499C47.1398 17.0399 47.2398 17.1199 47.3198 17.2099C47.5998 17.4899 47.7398 17.7399 47.6498 17.8499V17.8399Z" fill="#F9DDBF"/>
<path d="M47.3198 17.1999C47.2398 17.2599 47.1398 17.2899 47.0198 17.2899C46.7598 17.2899 46.5498 17.0999 46.5498 16.8799C46.5498 16.7999 46.5698 16.7299 46.6198 16.6699C46.7498 16.7399 46.8898 16.8399 47.0298 16.9499C47.1398 17.0399 47.2398 17.1199 47.3198 17.2099V17.1999Z" fill="#FFF0E3"/>
<path d="M48.25 21.54H48.77C48.92 21.54 49.03 21.66 49.03 21.8H47.98C47.98 21.65 48.1 21.54 48.24 21.54H48.25Z" fill="#EAC3A0"/>
<path d="M48.6399 20.1104H48.4199V21.5804H48.6399V20.1104Z" fill="#EAC3A0"/>
<path d="M26.1099 23.1702L27.0199 19.9502L33.4299 21.3602L26.1199 23.1802L26.1099 23.1702ZM27.3099 20.3702L26.6699 22.6602L31.8699 21.3702L27.3199 20.3702H27.3099Z" fill="#F9DDBF"/>
<path d="M29.0197 22.3704L28.7197 22.3104L29.1997 20.6104L29.4997 20.6804L29.0197 22.3704Z" fill="#EAC3A0"/>
<path d="M24.3097 22.6105C23.8697 25.0305 23.5097 27.6305 23.6697 29.0005C23.7997 29.3805 24.1997 29.5105 24.5497 29.5605L24.3097 29.7905L23.6297 29.8205L22.7197 29.5005C22.7197 29.5005 22.7697 29.3405 22.8097 29.0605C22.8597 28.7405 22.6897 28.0005 22.6897 28.0005C22.6897 28.0005 22.2497 25.4505 22.4997 24.8805C22.5697 24.7205 22.6197 24.5305 22.6497 24.3305C22.7197 23.8205 22.6797 23.2005 22.6297 22.6005C22.5797 21.9505 22.5197 21.3205 22.5797 20.8605C22.8997 18.7805 22.8997 16.9805 22.8997 16.9805H24.6897C24.6897 16.9805 25.1997 18.2505 24.9597 19.3405C24.7597 20.2705 24.5297 21.4105 24.3097 22.5905V22.6105Z" fill="#FFB27D"/>
<path d="M22.6396 24.3504C22.7096 23.8404 22.6696 23.2204 22.6196 22.6204L23.9396 22.1504L24.3096 22.6104C24.2496 22.6704 23.2696 23.6904 22.6396 24.3504Z" fill="#F3A36C"/>
<path d="M27.7698 15.4005C27.7698 15.4005 27.9698 15.2105 28.1198 15.1205C28.2598 15.0305 28.6698 14.9305 28.7098 15.0905C28.7298 15.1605 28.5898 15.3105 28.4798 15.3705C28.3798 15.4305 28.3598 15.5005 28.2498 15.5905C28.1398 15.6905 27.8698 15.6905 27.8698 15.6905L27.7598 15.4005H27.7698Z" fill="#FFB27D"/>
<path d="M21.8198 13.8304C21.7298 13.6804 23.6798 13.1604 23.7098 14.6004C23.7098 14.6004 27.3498 14.5204 25.6098 12.7304C25.0098 12.1104 25.0698 11.6004 25.0898 11.1204C25.1098 10.6404 24.7198 9.25037 23.3698 9.39037C23.3698 9.39037 23.0198 9.26037 22.5798 9.47037C21.5798 9.93037 19.3298 14.3704 21.8298 13.8404L21.8198 13.8304Z" fill="#1F2933"/>
<path d="M24.3496 15.5405C24.3496 15.5405 24.4796 15.7705 24.7096 16.0205C24.9896 16.3305 25.4296 16.6905 25.9696 16.7605C26.2296 16.7905 26.4896 16.7405 26.7196 16.6505C27.3796 16.3905 27.8796 15.7905 27.8796 15.7905C27.9996 15.5105 27.8096 15.3205 27.8096 15.3205C27.8096 15.3205 26.4696 15.5905 26.3496 15.5305C26.2196 15.4705 25.4796 13.5805 25.2996 13.3405C25.1196 13.1005 24.5196 12.9805 24.5196 12.9805L24.3496 15.5305V15.5405Z" fill="#ADC8FE"/>
<path d="M24.7096 16.0199C24.9896 16.3299 25.4296 16.6899 25.9696 16.7599C26.2296 16.7899 26.4896 16.7399 26.7196 16.6499C26.6896 16.6499 26.0296 16.7299 25.7696 16.3099C25.4996 15.8799 25.2096 15.2099 24.8096 15.4299C24.6396 15.5299 24.6496 15.7699 24.7096 16.0099V16.0199Z" fill="#8EB3EF"/>
<path d="M20.5797 29.94H19.9597C19.7797 29.94 19.5797 29.82 19.5297 29.53C19.4797 29.24 19.1097 29.09 19.0297 28.85C18.9797 28.69 19.0997 28.57 19.2297 28.49C19.2897 28.45 19.3397 28.41 19.3797 28.38C19.5097 28.27 19.6197 27.79 19.6197 27.79L20.2697 28.09C20.2697 28.09 19.9597 28.55 20.1397 29.07C20.2197 29.31 20.2997 29.53 20.4797 29.67C20.5197 29.7 20.5697 29.73 20.6297 29.75C20.9097 29.86 20.5797 29.93 20.5797 29.93V29.94Z" fill="#FFB27D"/>
<path d="M21.0495 14.6006C21.0495 14.6006 21.0195 15.0306 21.0495 15.5406C21.0695 15.8806 21.4595 16.3306 21.5195 16.4406C21.6595 16.7206 21.8095 16.7706 21.8095 16.7706L23.0095 17.0306L23.4295 17.1206L24.7595 16.7706C24.7595 16.7706 25.3695 15.2706 25.1195 14.4306C24.8795 13.5906 24.4995 13.0006 24.4995 13.0006C24.4995 13.0006 22.9695 12.6506 21.7795 12.9506L21.0395 14.6006H21.0495Z" fill="#ADC8FE"/>
<path d="M21.8899 16.9399C21.8899 16.9399 20.8799 18.1399 20.7899 18.9399C20.6999 19.7499 21.5899 21.9899 21.3899 22.7699C21.2399 23.3499 20.4499 23.8199 20.2299 25.2899C20.1499 25.7999 19.8799 26.8299 19.6299 27.7799L20.1899 28.2599C21.5199 25.5799 22.8999 23.8899 22.9799 23.2999C23.0399 22.8799 23.3099 20.6699 24.3999 19.0499C24.6599 18.6599 24.2399 17.0999 24.2399 17.0999L21.8999 16.9199L21.8899 16.9399Z" fill="#FFB27D"/>
<path d="M25.0198 19.6902C24.8698 21.2902 24.6998 22.6302 24.6998 22.6302C24.6998 22.6302 23.8598 23.1302 22.6698 23.2002C22.1298 23.2302 21.5098 23.1702 20.8598 22.9202C20.8598 22.9202 20.6098 19.0602 20.7698 18.4502C20.9298 17.8402 21.6198 16.9902 21.6198 16.9902L24.7298 17.1002C24.7298 17.1002 25.1698 18.1002 25.0198 19.6902Z" fill="#F99746"/>
<path d="M24.7897 16.72C24.7897 16.72 24.5197 16.91 23.9997 16.91C23.3697 16.92 21.8097 16.77 21.8097 16.77C21.8097 16.77 21.7397 16.94 21.7397 17.12C21.7397 17.12 23.6497 17.54 24.7497 17.18C24.7497 17.18 24.8897 16.94 24.7897 16.71V16.72Z" fill="#ED7D2B"/>
<path d="M23.8599 17.1005C23.8599 16.9405 23.9899 16.8105 24.1499 16.8105C24.3099 16.8105 24.4399 16.9405 24.4399 17.1005C24.4399 17.2605 24.3099 17.3905 24.1499 17.3905C23.9899 17.3905 23.8599 17.2605 23.8599 17.1005ZM23.9599 17.1005C23.9599 17.2105 24.0499 17.3005 24.1499 17.3005C24.2499 17.3005 24.3399 17.2105 24.3399 17.1005C24.3399 16.9905 24.2499 16.9005 24.1499 16.9005C24.0499 16.9005 23.9599 16.9905 23.9599 17.1005Z" fill="white"/>
<path d="M19.7598 17.0407L21.7098 18.5507L24.0398 16.1807L22.0898 14.6807L19.7598 17.0407Z" fill="#1F2933"/>
<path d="M22.2499 17.05C22.2499 17.05 22.9699 17.12 22.9599 17.27C22.9599 17.42 22.7799 17.73 22.6899 17.74C22.5999 17.75 22.1099 17.32 22.1099 17.32L22.2499 17.04V17.05Z" fill="#FFB27D"/>
<path d="M22.0099 12.9102C22.0099 12.9102 21.0599 12.9702 20.6899 13.7602C20.3199 14.5502 19.6299 15.8702 19.6299 16.0902C19.6299 16.3102 20.0199 17.0002 22.0999 17.3902C22.0999 17.3902 22.3199 17.1902 22.2999 17.0302C22.2999 17.0302 20.9999 16.0402 20.9999 15.9302C20.9999 15.7102 21.2099 15.4202 22.3599 14.4102C22.6699 14.1402 22.0099 12.9102 22.0099 12.9102Z" fill="#ADC8FE"/>
<path d="M27.6399 17.6506L30.4999 10.2206C30.4999 10.2206 30.5299 10.1506 30.4999 10.1406H30.4699C30.4699 10.1406 30.4199 10.1406 30.4099 10.1706L27.3599 17.5006C27.3299 17.5706 27.3599 17.6506 27.4499 17.6806L27.5199 17.7106C27.5799 17.7306 27.6399 17.7106 27.6599 17.6606L27.6399 17.6506Z" fill="#F9DDBF"/>
<path d="M28.0195 15.36C28.0195 15.36 28.1495 15.36 28.2895 15.32C28.3995 15.29 28.5395 15.25 28.5395 15.25C28.6195 15.3 28.3395 15.45 28.2695 15.54C28.2095 15.62 28.1395 15.64 27.9795 15.67L28.0295 15.35L28.0195 15.36Z" fill="#FFB27D"/>
<path d="M23.4497 29.9205C23.8497 29.8805 23.7397 29.9705 24.2997 29.9705C24.8597 29.9705 25.0497 29.8105 25.0697 29.7405C25.0897 29.6805 24.8197 29.6305 24.5397 29.5705H24.5297C24.5297 29.5705 24.1797 29.7505 23.7197 29.7105C23.3497 29.6805 22.9597 29.5405 22.6997 29.5205C22.6797 29.5905 22.6697 29.6705 22.6797 29.7505C22.6997 29.9705 23.0497 29.9705 23.4497 29.9305V29.9205Z" fill="#1F2933"/>
<path d="M20.5797 29.9402H19.9597C19.7797 29.9402 19.5797 29.8202 19.5297 29.5302C19.4797 29.2402 19.1097 29.0902 19.0297 28.8502C18.9797 28.6902 19.0997 28.5702 19.2297 28.4902C19.2997 28.5802 19.4397 28.8002 19.5897 29.2202C19.7597 29.7002 20.1597 29.7202 20.4797 29.6802C20.5197 29.7102 20.5697 29.7402 20.6297 29.7602C20.9097 29.8702 20.5797 29.9402 20.5797 29.9402Z" fill="#1F2933"/>
<path d="M22.1599 12.8704C22.3499 12.8304 22.5099 12.7104 22.5799 12.5504C22.6599 12.3504 22.7199 12.0604 22.7199 11.6904H22.7799L23.7999 11.8804C23.7999 11.8804 23.7799 12.1604 23.7799 12.4304C23.7799 12.6604 23.9499 12.8704 24.1999 12.9304C24.3299 12.9604 23.5899 13.8204 23.4999 13.8104C23.3199 13.7704 22.0999 12.8804 22.1599 12.8704Z" fill="#FFB27D"/>
<path d="M23.7996 11.8802C23.7996 11.8802 23.7796 12.1602 23.7796 12.4302C23.2096 12.4202 22.9096 11.9602 22.7896 11.7002L23.8096 11.8802H23.7996Z" fill="#E8945B"/>
<path d="M23.9897 12.1308C23.9897 12.1308 22.6397 12.1508 22.6397 11.4108C22.6397 10.6708 22.4597 10.1708 23.3197 10.1308C24.1797 10.0908 24.3497 10.3708 24.4097 10.6208C24.4797 10.8708 24.3297 12.1108 23.9797 12.1408L23.9897 12.1308Z" fill="#FFB27D"/>
<path d="M23.9397 10.1102C23.9397 10.1102 23.5697 10.9802 23.0097 11.1102C22.4397 11.2402 22.1997 11.1102 22.1997 11.1102C22.1997 11.1102 22.6297 10.8102 22.7197 10.2702C22.7197 10.2702 23.6597 9.70025 23.9397 10.1102Z" fill="#1F2933"/>
<path d="M23.8496 10.1807C23.8496 10.1807 24.1196 10.2707 24.2396 10.4507C24.3496 10.6207 24.4396 10.8507 24.4196 11.1307C24.4196 11.1307 24.6996 10.5407 24.3896 10.2107C24.0596 9.86072 23.8596 10.1907 23.8596 10.1907L23.8496 10.1807Z" fill="#1F2933"/>
<path d="M23.7295 11.6908C23.7295 11.6908 23.7495 11.7808 23.9995 11.7608C23.9995 11.7608 24.2095 11.7508 24.1995 11.6508C24.1995 11.6508 23.9995 11.5808 23.7295 11.6808V11.6908Z" fill="white"/>
<path d="M23.4996 13.8106C23.4996 13.8106 22.5896 12.9506 22.5596 12.6006C22.5596 12.6006 22.3296 12.6606 22.0596 12.8906C22.0596 12.8906 22.2796 13.3706 22.5396 13.5306C22.5396 13.5306 22.7296 13.5106 22.8796 13.4506C22.8796 13.4506 22.7896 13.5906 22.7096 13.6706C22.7096 13.6706 23.1196 13.8806 23.5096 13.8006L23.4996 13.8106Z" fill="#D7E6FF"/>
<path d="M23.8195 12.6301C23.8195 12.6301 24.1795 13.2101 23.4995 13.8101C23.4995 13.8101 23.9295 13.7401 24.1395 13.4701C24.1395 13.4701 24.0695 13.3301 24.0095 13.2901C24.0095 13.2901 24.1395 13.2501 24.2195 13.3101C24.2195 13.3101 24.2695 13.0001 24.2195 12.9001C24.1695 12.8101 23.9195 12.6201 23.8095 12.6201L23.8195 12.6301Z" fill="#D7E6FF"/>
<path d="M23.4297 13.81C23.4297 13.81 23.4597 13.75 23.4997 13.75C23.5397 13.75 23.5697 13.78 23.5697 13.81C23.5697 13.84 23.5397 13.87 23.4997 13.87C23.4597 13.87 23.4297 13.84 23.4297 13.81Z" fill="#1F2933"/>
<path d="M23.7998 14.6606C23.7998 14.6606 23.8298 14.6006 23.8698 14.6006C23.9098 14.6006 23.9398 14.6306 23.9398 14.6606C23.9398 14.6906 23.9098 14.7206 23.8698 14.7206C23.8298 14.7206 23.7998 14.6906 23.7998 14.6606Z" fill="#1F2933"/>
<path d="M23.8599 15.6606C23.8599 15.6606 23.8899 15.6006 23.9299 15.6006C23.9699 15.6006 23.9999 15.6306 23.9999 15.6606C23.9999 15.6906 23.9699 15.7206 23.9299 15.7206C23.8899 15.7206 23.8599 15.6906 23.8599 15.6606Z" fill="#1F2933"/>
<path d="M25.0194 19.6904C24.8694 21.2904 24.6994 22.6304 24.6994 22.6304C24.6994 22.6304 23.8594 23.1304 22.6694 23.2004C22.6894 23.2004 23.3694 22.9604 23.8694 22.4404C24.3794 21.9104 25.0294 19.6904 25.0294 19.6904H25.0194Z" fill="#ED7D2B"/>
<g opacity="0.6">
<path d="M32.7199 7.86035H32.8299L33.1299 8.46035H32.9999L32.9299 8.32035H32.6099L32.5399 8.46035H32.4199L32.7199 7.86035ZM32.8899 8.23035L32.7699 7.99035L32.6499 8.23035H32.8799H32.8899Z" fill="white"/>
<path d="M33.8398 7.86059H34.1398C34.2198 7.86059 34.2798 7.88059 34.3198 7.91059C34.3498 7.94059 34.3698 7.97059 34.3698 8.01059C34.3698 8.08059 34.3198 8.12059 34.2698 8.14059C34.3498 8.16059 34.3998 8.20059 34.3998 8.29059C34.3998 8.40059 34.2998 8.45059 34.1498 8.45059H33.8398V7.85059V7.86059ZM34.1198 8.11059C34.1998 8.11059 34.2498 8.08059 34.2498 8.03059C34.2498 7.98059 34.2098 7.95059 34.1298 7.95059H33.9598V8.11059H34.1198ZM34.1498 8.36059C34.2298 8.36059 34.2798 8.33059 34.2798 8.28059C34.2798 8.23059 34.2298 8.20059 34.1398 8.20059H33.9498V8.36059H34.1498Z" fill="white"/>
<path d="M35.0996 8.16059C35.0996 7.99059 35.2396 7.85059 35.4496 7.85059C35.5696 7.85059 35.6496 7.89059 35.7196 7.94059L35.6396 8.02059C35.5896 7.98059 35.5296 7.95059 35.4496 7.95059C35.3196 7.95059 35.2296 8.04059 35.2296 8.16059C35.2296 8.28059 35.3196 8.37059 35.4496 8.37059C35.5296 8.37059 35.5896 8.34059 35.6396 8.29059L35.7196 8.36059C35.6496 8.43059 35.5696 8.47059 35.4396 8.47059C35.2396 8.47059 35.0996 8.33059 35.0996 8.16059Z" fill="white"/>
<path d="M31.8696 9.21094H32.1196C32.3296 9.21094 32.4796 9.34094 32.4796 9.51094C32.4796 9.68094 32.3296 9.81094 32.1196 9.81094H31.8696V9.21094ZM32.1196 9.71094C32.2596 9.71094 32.3596 9.63094 32.3596 9.51094C32.3596 9.39094 32.2696 9.31094 32.1196 9.31094H31.9896V9.72094H32.1196V9.71094Z" fill="white"/>
<path d="M33.2197 9.2102H33.7197V9.3002H33.3397V9.4602H33.6797V9.5502H33.3397V9.7102H33.7297V9.8002H33.2197V9.2002V9.2102Z" fill="white"/>
<path d="M34.47 9.21094H34.97V9.31094H34.58V9.47094H34.92V9.57094H34.58V9.81094H34.46V9.21094H34.47Z" fill="white"/>
<path d="M35.6699 9.5102C35.6699 9.3402 35.8199 9.2002 36.0199 9.2002C36.1399 9.2002 36.2099 9.2302 36.2799 9.2802L36.1999 9.3602C36.1499 9.3202 36.0999 9.3002 36.0099 9.3002C35.8899 9.3002 35.7899 9.4002 35.7899 9.5102C35.7899 9.6302 35.8799 9.7202 36.0199 9.7202C36.0799 9.7202 36.1399 9.7002 36.1799 9.6702V9.5602H36.0099V9.4702H36.2999V9.7202C36.2299 9.7702 36.1399 9.8102 36.0199 9.8102C35.8099 9.8102 35.6699 9.6802 35.6699 9.5002V9.5102Z" fill="white"/>
<path d="M31.5298 10.5508H31.6498V10.8008H31.9698V10.5508H32.0898V11.1508H31.9698V10.9008H31.6498V11.1508H31.5298V10.5508Z" fill="white"/>
<path d="M32.8696 10.5508H32.9896V11.1508H32.8696V10.5508Z" fill="white"/>
<path d="M33.6899 11.0608L33.7699 10.9908C33.7699 10.9908 33.8499 11.0608 33.9099 11.0608C33.9699 11.0608 34.0199 11.0208 34.0199 10.9408V10.5508H34.1399V10.9508C34.1399 11.0208 34.1199 11.0708 34.0799 11.1108C34.0399 11.1508 33.9799 11.1608 33.9199 11.1608C33.8199 11.1608 33.7499 11.1208 33.6999 11.0608H33.6899Z" fill="white"/>
<path d="M34.8999 10.5508H35.0199V10.8508L35.3399 10.5508H35.4899L35.2099 10.8108L35.4999 11.1508H35.3599L35.1299 10.8808L35.0199 10.9808V11.1508H34.8999V10.5508Z" fill="white"/>
<path d="M36.1997 10.5508H36.3197V11.0508H36.6797V11.1508H36.1997V10.5508Z" fill="white"/>
<path d="M31.73 11.9004H31.86L32.07 12.1804L32.28 11.9004H32.41V12.5004H32.29V12.0704L32.08 12.3504L31.87 12.0704V12.5004H31.75V11.9004H31.73Z" fill="white"/>
<path d="M33.1699 11.9004H33.2799L33.6399 12.3104V11.9004H33.7599V12.5004H33.6599L33.2899 12.0704V12.5004H33.1699V11.9004Z" fill="white"/>
<path d="M34.5 12.2006C34.5 12.0306 34.65 11.8906 34.86 11.8906C35.07 11.8906 35.21 12.0306 35.21 12.2006C35.21 12.3706 35.06 12.5106 34.85 12.5106C34.64 12.5106 34.5 12.3706 34.5 12.2006ZM35.08 12.2006C35.08 12.0806 34.98 11.9906 34.85 11.9906C34.72 11.9906 34.62 12.0906 34.62 12.2006C34.62 12.3106 34.72 12.4106 34.85 12.4106C34.98 12.4106 35.08 12.3106 35.08 12.2006Z" fill="white"/>
<path d="M35.9497 11.9006H36.2197C36.3797 11.9006 36.4797 11.9806 36.4797 12.1006C36.4797 12.2306 36.3597 12.3006 36.2097 12.3006H36.0797V12.4906H35.9597V11.8906L35.9497 11.9006ZM36.2097 12.2106C36.2997 12.2106 36.3597 12.1706 36.3597 12.1006C36.3597 12.0306 36.2997 11.9906 36.2097 11.9906H36.0697V12.2106H36.2097Z" fill="white"/>
<path d="M32.4096 13.8002C32.3496 13.8402 32.2796 13.8602 32.1996 13.8602C31.9896 13.8602 31.8496 13.7202 31.8496 13.5502C31.8496 13.3802 31.9996 13.2402 32.2096 13.2402C32.4196 13.2402 32.5596 13.3802 32.5596 13.5502C32.5596 13.6202 32.5396 13.6802 32.4896 13.7302L32.5696 13.7902L32.4896 13.8702L32.4096 13.8102V13.8002ZM32.3196 13.7302L32.1996 13.6402L32.2796 13.5602L32.3996 13.6502C32.3996 13.6502 32.4296 13.5802 32.4296 13.5402C32.4296 13.4202 32.3296 13.3302 32.1996 13.3302C32.0696 13.3302 31.9696 13.4302 31.9696 13.5402C31.9696 13.6502 32.0696 13.7502 32.1996 13.7502C32.2396 13.7502 32.2796 13.7402 32.3196 13.7202V13.7302Z" fill="white"/>
<path d="M33.2995 13.2402H33.5996C33.7596 13.2402 33.8496 13.3202 33.8496 13.4302C33.8496 13.5302 33.7796 13.5902 33.6896 13.6102L33.8695 13.8402H33.7295L33.5596 13.6302H33.4095V13.8402H33.2896V13.2402H33.2995ZM33.5896 13.5402C33.6796 13.5402 33.7295 13.5002 33.7295 13.4402C33.7295 13.3802 33.6796 13.3402 33.5896 13.3402H33.4196V13.5402H33.5896Z" fill="white"/>
<path d="M34.5498 13.7602L34.6198 13.6802C34.6798 13.7302 34.7498 13.7602 34.8298 13.7602C34.8998 13.7602 34.9498 13.7302 34.9498 13.6802C34.9498 13.6402 34.9198 13.6102 34.7998 13.5902C34.6598 13.5602 34.5698 13.5202 34.5698 13.4102C34.5698 13.3102 34.6698 13.2402 34.7998 13.2402C34.8998 13.2402 34.9798 13.2702 35.0498 13.3202L34.9898 13.4002C34.9298 13.3602 34.8698 13.3402 34.8098 13.3402C34.7398 13.3402 34.6998 13.3702 34.6998 13.4102C34.6998 13.4602 34.7298 13.4802 34.8598 13.5002C34.9998 13.5302 35.0798 13.5802 35.0798 13.6802C35.0798 13.7902 34.9798 13.8602 34.8398 13.8602C34.7398 13.8602 34.6398 13.8302 34.5598 13.7602H34.5498Z" fill="white"/>
<path d="M35.9798 13.3402H35.7598V13.2402H36.3098V13.3402H36.0898V13.8402H35.9698V13.3402H35.9798Z" fill="white"/>
<path d="M32.2798 14.9303V14.5803H32.3998V14.9203C32.3998 15.0303 32.4598 15.0903 32.5698 15.0903C32.6798 15.0903 32.7398 15.0303 32.7398 14.9203V14.5703H32.8598V14.9103C32.8598 15.0903 32.7498 15.1803 32.5698 15.1803C32.3898 15.1803 32.2798 15.0903 32.2798 14.9203V14.9303Z" fill="white"/>
<path d="M33.5698 14.5908H33.6998L33.8998 15.0508L34.0998 14.5908H34.2298L33.9498 15.1908H33.8498L33.5698 14.5908Z" fill="white"/>
<path d="M34.8899 14.5911H35.0199L35.1799 15.0311L35.3499 14.5811H35.4499L35.6199 15.0311L35.7799 14.5911H35.8999L35.6599 15.1911H35.5599L35.3899 14.7611L35.2199 15.1911H35.1199L34.8799 14.5911H34.8899Z" fill="white"/>
<path d="M32.7197 16.2304L32.4797 15.9404H32.6197L32.7897 16.1504L32.9597 15.9404H33.0997L32.8597 16.2304L33.1097 16.5404H32.9697L32.7897 16.3104L32.6097 16.5404H32.4697L32.7197 16.2404V16.2304Z" fill="white"/>
<path d="M34.0298 16.3004L33.7598 15.9404H33.8998L34.0898 16.2104L34.2798 15.9404H34.4198L34.1498 16.3004V16.5404H34.0298V16.3004Z" fill="white"/>
<path d="M35.0896 16.4604L35.4896 16.0304H35.0996V15.9404H35.6396V16.0204L35.2396 16.4504H35.6396V16.5404H35.0796V16.4604H35.0896Z" fill="white"/>
</g>
<path d="M2.93985 30.0703L53.7798 30.0703C53.813 30.0703 53.8398 30.0435 53.8398 30.0103V30.0003C53.8398 29.9672 53.813 29.9403 53.7798 29.9403L2.93985 29.9403C2.90671 29.9403 2.87984 29.9672 2.87984 30.0003V30.0103C2.87984 30.0435 2.90671 30.0703 2.93985 30.0703Z" fill="#2E3552"/>
<path d="M46.0194 21.3098L45.8994 21.3198L45.6694 20.0698L45.7894 20.0498L46.0194 21.3098Z" fill="#B5453C"/>
<path d="M45.6894 19.8398L45.6694 20.0698L45.7894 20.0498L45.6894 19.8398Z" fill="#F9DDBF"/>
<path d="M46.8295 21.4302L46.7095 21.4102L46.9795 20.1602L47.0995 20.1802L46.8295 21.4302Z" fill="#B5453C"/>
<path d="M47.0795 19.9502L46.9795 20.1602L47.0995 20.1802L47.0795 19.9502Z" fill="#EFCBAB"/>
<path d="M46.6796 21.06L46.5596 21.04L46.8296 19.79L46.9496 19.81L46.6796 21.06Z" fill="#B5453C"/>
<path d="M46.9296 19.5801L46.8296 19.7901L46.9496 19.8101L46.9296 19.5801Z" fill="#EFCBAB"/>
<path d="M47.0796 20.5801H46.1196V21.8001H47.0796V20.5801Z" fill="#ED7D2B"/>
<path d="M46.5997 20.5801H45.6396V21.8001H46.5997V20.5801Z" fill="#F99746"/>
<path d="M11.2 20.26C11.2 20.26 11.67 19.77 11.23 19.46C11.23 19.46 10.91 19.29 10.64 19.3C10.64 19.3 11.02 19.86 10.89 19.91C10.77 19.97 10.52 19.26 10.52 19.26C10.52 19.26 9.78003 19.2 9.54003 19.3C9.54003 19.3 10.17 19.76 10.04 19.78C9.91003 19.81 9.22003 19.36 9.22003 19.36C9.22003 19.36 8.53003 19.46 8.57003 19.83C8.61003 20.2 8.84003 20.32 8.95003 20.31C9.05003 20.31 9.66003 20.09 9.68003 20.17C9.69003 20.25 9.33003 20.49 9.07003 20.5C9.07003 20.5 9.55003 20.97 9.88003 20.84C10.2 20.7 10.23 20.49 10.43 20.41C10.63 20.33 10.8 20.33 10.72 20.41C10.64 20.49 10.27 20.57 10.16 20.75C10.05 20.93 9.94003 21.05 10.28 21.01C10.61 20.97 11.16 20.75 11.18 20.5L11.2 20.25V20.26Z" fill="#82B378"/>
<path d="M8.92016 19.8501C8.92016 19.8501 10.7902 19.7901 11.2002 20.2601C11.2002 20.2601 11.2902 20.5001 11.5702 20.7201L11.6102 20.8301C11.6102 20.8301 11.2902 20.5301 11.1702 20.5101C11.1702 20.5101 11.3502 19.9201 8.91016 19.8501H8.92016Z" fill="#82B378"/>
<path d="M11.5802 20.7202C11.5802 20.7202 11.9802 20.9802 12.0102 21.4502H11.9402C11.9402 21.4502 11.8102 20.9702 11.5802 20.7802C11.3502 20.5902 11.5802 20.7202 11.5802 20.7202Z" fill="#82B378"/>
<path d="M12.8598 19.6506C12.8598 19.6506 12.1098 19.2806 12.4598 18.7706C12.4598 18.7706 12.7398 18.4606 13.0398 18.3806C13.0398 18.3806 12.8798 19.1406 13.0398 19.1506C13.1998 19.1706 13.1498 18.3006 13.1498 18.3006C13.1498 18.3006 13.9398 17.9606 14.2598 17.9906C14.2598 17.9906 13.7698 18.7306 13.9298 18.7106C14.0898 18.6906 14.6398 17.9506 14.6398 17.9506C14.6398 17.9506 15.4498 17.8206 15.5798 18.2406C15.7098 18.6706 15.4998 18.8806 15.3798 18.9106C15.2598 18.9406 14.4898 18.9306 14.5098 19.0206C14.5298 19.1106 15.0498 19.2506 15.3398 19.1706C15.3398 19.1706 15.0198 19.8706 14.5998 19.8406C14.1798 19.8006 14.0498 19.5706 13.7898 19.5606C13.5298 19.5406 13.3398 19.6006 13.4698 19.6706C13.5998 19.7306 14.0398 19.6906 14.2498 19.8506C14.4598 20.0106 14.6298 20.1106 14.2398 20.1806C13.8498 20.2506 13.1398 20.2106 12.9998 19.9406L12.8598 19.6706V19.6506Z" fill="#A8D29F"/>
<path d="M15.2097 18.3704C15.2097 18.3704 13.0997 18.9704 12.8597 19.6504C12.8597 19.6504 12.8697 19.9504 12.6597 20.3004V20.4304C12.6597 20.4304 12.8797 19.9804 12.9997 19.9104C12.9997 19.9104 12.5297 19.3204 15.2097 18.3604V18.3704Z" fill="#82B378"/>
<path d="M12.6599 20.3006C12.6599 20.3006 12.3299 20.7406 12.5199 21.2706L12.5999 21.2506C12.5999 21.2506 12.5199 20.6606 12.6899 20.3706C12.8599 20.0806 12.6599 20.3006 12.6599 20.3006Z" fill="#82B378"/>
<path d="M11.6599 19.1305C11.6599 19.1305 12.6499 18.6405 12.1899 17.9705C12.1899 17.9705 11.8199 17.5605 11.4199 17.4505C11.4199 17.4505 11.6299 18.4505 11.4199 18.4705C11.2099 18.4905 11.2699 17.3505 11.2699 17.3505C11.2699 17.3505 10.2199 16.9105 9.80987 16.9405C9.80987 16.9405 10.4599 17.9105 10.2499 17.8905C10.0399 17.8705 9.30987 16.8805 9.30987 16.8805C9.30987 16.8805 8.23987 16.7005 8.05987 17.2705C7.88987 17.8305 8.16987 18.1105 8.31987 18.1505C8.47987 18.1905 9.49987 18.1705 9.46987 18.2905C9.43987 18.4105 8.74987 18.5905 8.36987 18.4905C8.36987 18.4905 8.78987 19.4105 9.34987 19.3705C9.90987 19.3205 10.0799 19.0205 10.4199 19.0005C10.7599 18.9805 11.0199 19.0605 10.8399 19.1405C10.6699 19.2205 10.0799 19.1705 9.80987 19.3805C9.52987 19.5905 9.30987 19.7205 9.81987 19.8105C10.3399 19.9005 11.2599 19.8505 11.4499 19.4905L11.6399 19.1405L11.6599 19.1305Z" fill="#A8D29F"/>
<path d="M8.56006 17.4502C8.56006 17.4502 11.3401 18.2502 11.6601 19.1402C11.6601 19.1402 11.6501 19.5402 11.9201 19.9902V20.1702C11.9201 20.1702 11.6301 19.5702 11.4701 19.4902C11.4701 19.4902 12.0901 18.7202 8.56006 17.4502Z" fill="#82B378"/>
<path d="M11.9299 19.9901C11.9299 19.9901 12.3599 20.5701 12.1099 21.2701L11.9999 21.2401C11.9999 21.2401 12.1099 20.4701 11.8799 20.0801C11.6599 19.6901 11.9199 19.9901 11.9199 19.9901H11.9299Z" fill="#82B378"/>
<path d="M9.75 21.0703C9.75 22.0203 10.62 22.7903 11.7 22.7903C11.92 22.7903 12.14 22.7603 12.34 22.6903C13.1 22.4603 13.65 21.8203 13.65 21.0703H9.76H9.75Z" fill="#ED7D2B"/>
<path d="M11.0298 21.0703C11.0298 21.7103 11.1998 22.3703 11.7998 22.6703C11.8998 22.7203 12.2298 22.6703 12.3398 22.7003C13.0998 22.4703 13.6498 21.8303 13.6498 21.0803H11.0398L11.0298 21.0703Z" fill="#F99746"/>
<path d="M9.71973 22.8702H13.6697C13.6697 22.8102 13.6397 22.7602 13.5997 22.7202C13.5597 22.6802 13.4997 22.6602 13.4297 22.6602H9.95973C9.82973 22.6602 9.71973 22.7602 9.71973 22.8702Z" fill="#ED7D2B"/>
<path d="M11.5698 22.8702H13.6698C13.6698 22.8102 13.6398 22.7602 13.5998 22.7202C13.5598 22.6802 13.4998 22.6602 13.4298 22.6602H11.8098C11.6798 22.6602 11.5698 22.7602 11.5698 22.8702Z" fill="#F99746"/>
<path d="M9.69971 21.1104H13.6997V21.0604H9.69971V21.1104Z" fill="#B5453C"/>
</g>
<defs>
<clipPath id="clip0_1947_16722">
<rect width="56" height="33" fill="white" transform="translate(0.359863)"/>
</clipPath>
</defs>
</svg>
