<svg width="56" height="33" viewBox="0 0 56 33" fill="none" xmlns="http://www.w3.org/2000/svg">
<g clip-path="url(#clip0_1830_10208)">
<path d="M56 0H0V33H56V0Z" fill="white"/>
<path d="M53.5926 32.7172C53.5926 32.7172 58.7701 21.8955 52.1416 13.8224C45.5131 5.74925 39.808 10.2256 36.917 10.0057C34.0259 9.7858 33.0915 2.71791 24.5394 0.581835C15.9872 -1.55424 8.00658 2.37237 8.87499 9.39314C10.1611 19.885 -5.877 14.6862 2.3674 32.9214L53.5816 32.7172H53.5926Z" fill="#FFE8D9"/>
<path d="M29.7282 19.3205C29.7282 21.8968 31.1899 23.9854 32.993 23.9854C34.7961 23.9854 36.2578 21.8968 36.2578 19.3205V16.2892C36.2578 13.7129 34.7961 11.6244 32.993 11.6244C31.1899 11.6244 29.7282 13.7129 29.7282 16.2892V19.3205Z" fill="#FF9466"/>
<path d="M17.2961 19.3205C17.2961 21.8968 18.7578 23.9854 20.5609 23.9854C22.364 23.9854 23.8257 21.8968 23.8257 19.3205V16.2892C23.8257 13.7129 22.364 11.6244 20.5609 11.6244C18.7578 11.6244 17.2961 13.7129 17.2961 16.2892V19.3205Z" fill="#FF9466"/>
<path d="M41.4348 19.3205C41.4348 21.8968 42.8965 23.9854 44.6996 23.9854C46.5027 23.9854 47.9644 21.8968 47.9644 19.3205V16.2892C47.9644 13.7129 46.5027 11.6244 44.6996 11.6244C42.8965 11.6244 41.4348 13.7129 41.4348 16.2892V19.3205Z" fill="#FF9466"/>
<path d="M42.7876 15.9412V19.7108C42.7876 20.5275 43.2823 21.1872 43.8978 21.1872H45.3269C45.9425 21.1872 46.4371 20.5275 46.4371 19.7108V15.9412C46.4371 15.5329 46.3162 15.1716 46.1073 14.9046C45.9095 14.6376 45.6237 14.4648 45.3269 14.4648H43.8978C43.5901 14.4648 43.3152 14.6376 43.1174 14.9046C42.9195 15.1716 42.7876 15.5486 42.7876 15.9412Z" fill="#52606D"/>
<path d="M43.106 16.1927V19.4439C43.106 20.1036 43.5347 20.6376 44.0513 20.6376H45.1616C45.6782 20.6376 46.1069 20.1036 46.1069 19.4439V16.1927C46.1069 15.533 45.6782 14.999 45.1616 14.999H44.0513C43.5347 14.999 43.106 15.533 43.106 16.1927Z" fill="#B6D7FF"/>
<path d="M43.106 14.89C43.2489 15.6753 43.8644 16.2564 44.6009 16.2564C45.3374 16.2564 45.953 15.6753 46.0959 14.89C45.8981 14.623 45.6123 14.4502 45.3155 14.4502H43.8864C43.5786 14.4502 43.3038 14.623 43.106 14.89Z" fill="#9AA5B1"/>
<path d="M43.106 18.3135V19.46C43.106 20.1197 43.5347 20.6537 44.0513 20.6537H45.1616C45.6782 20.6537 46.1069 20.1197 46.1069 19.46V18.3449C45.7112 18.3449 45.2825 18.3449 44.9637 18.3763C44.2272 18.4548 43.9854 18.3763 43.5457 18.3449C43.3808 18.3449 43.2379 18.3292 43.106 18.3292V18.3135Z" fill="#C3E0FF"/>
<path d="M43.106 18.4395V19.4604C43.106 20.12 43.5347 20.6541 44.0513 20.6541H45.1616C45.6672 20.6541 46.0849 20.1515 46.1069 19.5232C46.1069 19.5075 46.1069 19.4918 46.1069 19.4604V18.5965C45.8981 18.5494 45.6123 18.518 45.2715 18.5494C44.524 18.6279 44.0183 18.3766 43.6996 18.4552C43.4797 18.5023 43.3148 18.4552 43.106 18.4395Z" fill="#D5EAFF"/>
<path d="M43.106 19.4438C43.106 20.1035 43.5347 20.6532 44.0513 20.6532H45.1616C45.6672 20.6532 46.0849 20.1506 46.1069 19.5224C45.8981 19.4595 45.5573 19.3653 45.3155 19.4124C44.9527 19.4909 44.6229 19.4752 44.1722 19.4124C43.7215 19.3339 43.6116 19.3339 43.3588 19.4124C43.2708 19.4438 43.1829 19.4595 43.106 19.4752V19.4438Z" fill="#E2F1FF"/>
<path d="M31.2231 15.9412V19.7108C31.2231 20.5275 31.7178 21.1872 32.3334 21.1872H33.7624C34.378 21.1872 34.8727 20.5275 34.8727 19.7108V15.9412C34.8727 15.5329 34.7517 15.1716 34.5429 14.9046C34.345 14.6376 34.0592 14.4648 33.7624 14.4648H32.3334C32.0256 14.4648 31.7508 14.6376 31.5529 14.9046C31.3551 15.1716 31.2231 15.5486 31.2231 15.9412Z" fill="#52606D"/>
<path d="M33.0472 20.6543H33.0582C33.8839 20.6543 34.5532 19.6979 34.5532 18.5182V17.1518C34.5532 15.972 33.8839 15.0157 33.0582 15.0157H33.0472C32.2216 15.0157 31.5523 15.972 31.5523 17.1518V18.5182C31.5523 19.6979 32.2216 20.6543 33.0472 20.6543Z" fill="#B6D7FF"/>
<path d="M31.5527 18.4551V19.476C31.5527 20.1357 31.9814 20.6697 32.4981 20.6697H33.6083C34.114 20.6697 34.5317 20.1671 34.5537 19.5388C34.5537 19.5231 34.5537 19.5074 34.5537 19.476V18.6121C34.3448 18.565 34.059 18.5336 33.7183 18.565C32.9708 18.6436 32.4651 18.3923 32.1463 18.4708C31.9265 18.5179 31.7616 18.4708 31.5527 18.4551Z" fill="#D5EAFF"/>
<path d="M31.5527 19.4585C31.5527 20.1181 31.9814 20.6679 32.4981 20.6679H33.6083C34.114 20.6679 34.5317 20.1653 34.5537 19.537C34.3448 19.4742 34.0041 19.3799 33.7622 19.4271C33.3995 19.5056 33.0697 19.4899 32.619 19.4271C32.1683 19.3485 32.0584 19.3485 31.8056 19.4271C31.7176 19.4585 31.6297 19.4742 31.5527 19.4899V19.4585Z" fill="#E2F1FF"/>
<path d="M31.4867 17.6063V15.2974C31.4867 15.1404 31.5966 14.999 31.7175 14.999H34.3997C34.5316 14.999 34.6306 15.1247 34.6306 15.2974V17.7948C34.6306 18.7214 33.7402 19.2398 33.0586 19.2398C32.3771 19.2398 31.4537 18.5016 31.4867 17.5906V17.6063Z" fill="#9AA5B1"/>
<path d="M18.7349 15.9412V19.7108C18.7349 20.5275 19.2295 21.1872 19.8451 21.1872H21.2741C21.8897 21.1872 22.3844 20.5275 22.3844 19.7108V15.9412C22.3844 15.5329 22.2635 15.1716 22.0546 14.9046C21.8567 14.6376 21.5709 14.4648 21.2741 14.4648H19.8451C19.5373 14.4648 19.2625 14.6376 19.0646 14.9046C18.8668 15.1716 18.7349 15.5486 18.7349 15.9412Z" fill="#52606D"/>
<path d="M19.0645 16.1927V19.4439C19.0645 20.1036 19.4932 20.6376 20.0098 20.6376H21.1201C21.6367 20.6376 22.0654 20.1036 22.0654 19.4439V16.1927C22.0654 15.533 21.6367 14.999 21.1201 14.999H20.0098C19.4932 14.999 19.0645 15.533 19.0645 16.1927Z" fill="#B6D7FF"/>
<path d="M19.0645 14.89C19.2074 15.6753 19.8229 16.2564 20.5594 16.2564C21.2959 16.2564 21.9115 15.6753 22.0544 14.89C21.8566 14.623 21.5708 14.4502 21.274 14.4502H19.8449C19.5371 14.4502 19.2623 14.623 19.0645 14.89Z" fill="#9AA5B1"/>
<path d="M19.0645 18.3135V19.46C19.0645 20.1197 19.4932 20.6537 20.0098 20.6537H21.1201C21.6367 20.6537 22.0654 20.1197 22.0654 19.46V18.3449C21.6697 18.3449 21.241 18.3449 20.9222 18.3763C20.1857 18.4548 19.9439 18.3763 19.5042 18.3449C19.3393 18.3449 19.1964 18.3292 19.0645 18.3292V18.3135Z" fill="#C3E0FF"/>
<path d="M19.0645 18.4395V19.4604C19.0645 20.12 19.4932 20.6541 20.0098 20.6541H21.1201C21.6257 20.6541 22.0434 20.1515 22.0654 19.5232C22.0654 19.5075 22.0654 19.4918 22.0654 19.4604V18.5965C21.8566 18.5494 21.5708 18.518 21.23 18.5494C20.4825 18.6279 19.9768 18.3766 19.658 18.4552C19.4382 18.5023 19.2733 18.4552 19.0645 18.4395Z" fill="#D5EAFF"/>
<path d="M19.0645 19.4438C19.0645 20.1035 19.4932 20.6532 20.0098 20.6532H21.1201C21.6257 20.6532 22.0434 20.1506 22.0654 19.5224C21.8566 19.4595 21.5158 19.3653 21.274 19.4124C20.9112 19.4909 20.5814 19.4752 20.1307 19.4124C19.68 19.3339 19.5701 19.3339 19.3173 19.4124C19.2293 19.4438 19.1414 19.4595 19.0645 19.4752V19.4438Z" fill="#E2F1FF"/>
<path d="M19.0764 27.2031C19.0764 27.2031 19.2413 30.3444 18.9994 31.6638C18.9994 31.6638 18.2739 31.8522 17.9332 31.7423L17.8452 28.5382L19.0874 27.2031H19.0764Z" fill="#2C3A64"/>
<path d="M16.5478 31.318C16.5478 31.318 16.1851 31.8835 16.0422 31.962C15.8993 32.0405 15.5475 32.2604 15.3167 32.3232C15.0858 32.3861 14.8989 32.5588 14.877 32.8101H17.3723C17.3723 32.8101 17.4602 32.4018 17.3723 32.1034C17.2843 31.7892 17.6141 30.8154 17.6141 30.8154L16.5478 31.318Z" fill="#1F2933"/>
<path d="M18.197 31.2575C18.197 31.2575 17.8782 31.8857 17.7463 31.9643C17.6034 32.0428 17.2516 32.2627 17.0208 32.3255C16.7899 32.3884 16.603 32.5611 16.5811 32.8124H19.0764C19.0764 32.8124 19.1643 32.4041 19.0764 32.1056C18.9884 31.7915 18.9774 30.5664 18.9774 30.5664L18.2079 31.2732L18.197 31.2575Z" fill="#1F2933"/>
<path d="M24.6382 18.6434C25.2098 19.0832 26.353 18.612 26.353 18.612C26.353 18.612 26.0562 18.1408 26.0782 17.3869C26.0782 17.1984 26.1112 16.9942 26.1552 16.79L25.6935 17.057L25.1878 17.3398C25.1878 17.3398 25.1438 17.5439 25.1109 17.8895C25.1109 17.9837 25.0889 18.078 25.0889 18.1879C24.7811 18.2822 24.6382 18.6434 24.6382 18.6434Z" fill="#FFB07B"/>
<path d="M25.1118 17.8739C25.9253 17.8582 26.1011 16.9786 26.1561 16.7744L25.6944 17.0414L25.1888 17.3241C25.1888 17.3241 25.1448 17.5283 25.1118 17.8739Z" fill="#EA8E50"/>
<path d="M25.0901 17.5436C25.0901 17.5436 26.1564 17.5436 26.1564 16.7269C26.1564 15.8944 26.2883 15.329 25.6068 15.2819C24.9252 15.2348 24.7933 15.5646 24.7383 15.8316C24.6834 16.1143 24.8153 17.5279 25.0901 17.5436Z" fill="#FFB07B"/>
<path d="M24.3861 15.3921C24.2871 15.1565 24.2651 14.9523 24.2651 14.9523C24.2651 14.9523 24.441 15.1408 24.7598 14.811C25.0786 14.4811 25.6502 14.0885 26.1009 14.4026C26.1339 14.4183 26.1559 14.4497 26.1888 14.4654C26.1668 14.3241 26.0789 14.167 26.0789 14.167C26.2548 14.3241 26.3427 14.6382 26.3427 14.6382C26.3427 14.6382 26.3427 14.6382 26.3537 14.6539C26.4746 14.6539 26.6725 14.8581 26.6725 14.8581C26.6065 14.811 26.5296 14.811 26.4636 14.8267C26.6725 15.2036 26.7604 15.6748 26.6065 15.9732C26.3867 16.413 26.3207 16.2874 26.1559 16.8214C26.1559 16.8214 26.002 16.7586 26.002 16.6172C26.002 16.4758 26.1559 16.1617 25.958 16.1303C25.7711 16.1146 25.8041 16.2874 25.7052 16.2402C25.6062 16.1931 25.6942 15.7376 25.2765 15.7533C24.8587 15.7533 24.474 15.5963 24.3861 15.3607V15.3921Z" fill="#1F2933"/>
<path d="M25.4734 25.209L22.8022 24.832C22.8022 24.832 19.4715 24.832 18.724 25.3346C17.8006 25.9629 16.3496 31.6015 16.3496 31.6015C16.3496 31.6015 16.6684 32.0099 17.295 31.79C17.6357 31.6643 19.2626 28.4759 19.5045 27.3136C19.6364 26.7168 23.8905 27.9419 24.7149 27.5178C25.5394 27.078 25.4624 25.1933 25.4624 25.1933L25.4734 25.209Z" fill="#35488B"/>
<path d="M22.7588 24.7851C22.7588 24.7851 22.7918 24.8165 22.8138 24.8322C22.9676 24.8793 23.3194 25.0521 23.7041 25.1934C23.8471 25.2406 24.0009 25.2877 24.1548 25.3034C24.3417 25.3348 24.5176 25.3505 24.6935 25.3348C24.9463 25.3348 25.2101 25.272 25.4849 25.2092C25.5509 25.2092 25.6938 25.1463 25.7048 25.0678C25.7158 24.9736 25.7378 24.8479 25.7598 24.6908C25.8257 24.1411 25.9466 23.183 26.1995 22.115C26.2324 21.9579 26.2654 21.8166 26.2984 21.6595C26.2984 21.6124 26.3204 21.5653 26.3204 21.5181C26.3863 21.1726 26.4303 20.8428 26.4633 20.5129C26.5732 19.4606 26.5072 18.5653 26.2104 18.1256C26.1775 18.0784 25.9027 18.157 25.6608 18.2355C25.43 18.2983 25.2211 18.2512 25.0342 18.157L24.8034 18.314C24.5176 18.5182 24.1878 18.8323 23.968 19.3664C23.7811 19.8218 23.5612 20.6857 23.3634 21.5967C23.2754 22.005 23.1875 22.4134 23.1106 22.8061C23.1106 22.8061 23.0886 22.9003 23.0886 22.9474C22.8907 23.9526 22.7588 24.7694 22.7698 24.7851H22.7588Z" fill="#7EA6ED"/>
<path d="M23.6929 25.1942C23.8358 25.2413 23.9897 25.2884 24.1436 25.3041C24.3304 25.3355 24.5063 25.3513 24.6822 25.3355C24.935 25.3355 25.1988 25.2727 25.4737 25.2099C25.5396 25.2099 25.6825 25.1471 25.6935 25.0685C25.7045 24.9743 25.7375 24.8486 25.7705 24.6916C25.9024 24.0319 25.9903 23.2623 26.1662 22.1628C26.1882 22.0058 26.2431 21.8173 26.2761 21.6602C26.2761 21.6131 26.2981 21.566 26.2981 21.5189C26.3641 21.1733 26.408 20.8435 26.441 20.5137C25.7155 21.0163 24.1985 22.3827 23.6929 25.1785V25.1942Z" fill="#6488D3"/>
<path d="M20.9887 24.0147C21.0437 23.9048 21.4614 23.8577 21.6153 23.732C21.7692 23.6064 22.044 23.7948 22.044 23.7948C22.044 23.7948 23.9567 23.1038 24.1656 22.9938C24.2315 22.9624 24.6163 22.9467 24.4294 22.1771C24.2206 21.3132 24.3635 19.8996 24.3964 19.7112C24.4514 19.3499 25.7375 18.5332 26.1552 19.2557C26.1552 19.2557 25.9354 20.4337 25.8914 21.8786C25.8914 23.2608 25.6166 23.7634 25.3748 24.0304C24.8801 24.5487 22.4178 24.3446 22.4178 24.3446C22.2199 24.4388 22.0111 24.4859 21.9231 24.5644C21.7362 24.7372 20.9228 24.1561 20.9778 24.0461L20.9887 24.0147Z" fill="#FFB07B"/>
<path d="M24.1325 21.5343C24.1325 21.5343 24.847 22.1782 25.7484 21.9898L25.9573 22.0369C26.2211 20.8118 26.2761 19.0998 26.2761 19.0998C25.9793 18.2359 24.1985 19.0998 24.0995 19.4453C24.0446 19.6338 24.0775 20.6076 24.1325 21.5343Z" fill="#7EA6ED"/>
<path d="M20.9334 32.7958H26.4406C27.0672 32.7958 27.6278 32.4817 27.9246 31.9477C28.2214 31.4451 28.2104 30.8482 27.9246 30.3299L26.7264 28.2881L25.836 28.8064L27.0342 30.8482C27.1441 31.0367 27.1441 31.2409 27.0342 31.4294C26.9133 31.6336 26.6934 31.7592 26.4406 31.7592H21.8897C21.3621 31.7592 20.9224 32.2147 20.9224 32.7801L20.9334 32.7958Z" fill="#52606D"/>
<path d="M26.2098 29.9051L26.6825 30.015C26.8694 30.0622 27.0562 30.0464 27.2211 29.9993C27.2651 29.9993 27.3091 29.9679 27.353 29.9522C27.7378 29.7637 28.0456 29.3397 28.1335 28.7899L29.5735 19.2875C29.7054 18.4394 29.2547 17.6227 28.5952 17.4499L28.4303 17.4028L28.2214 17.3557H28.1225C27.452 17.1672 26.8034 17.7326 26.6715 18.5808L25.2315 28.0831C25.0996 28.9313 25.5503 29.748 26.2098 29.9208V29.9051Z" fill="#AFCDFB"/>
<path d="M26.6721 21.1883H26.7601C26.914 21.1883 27.0459 21.047 27.0789 20.8585L27.4306 18.5811C27.5186 17.9842 27.8703 17.5444 28.299 17.3717H28.2441L28.1451 17.3402C27.4746 17.1832 26.826 17.7329 26.6941 18.5811L26.3753 20.7014C26.3424 20.9527 26.4853 21.1883 26.6941 21.1883H26.6721Z" fill="#E57970"/>
<path d="M21.2854 26.9528H26.3749L27.6501 18.5812C27.738 18.0315 28.0458 17.6074 28.4306 17.4189L28.5954 17.4661C29.266 17.6231 29.7057 18.4556 29.5738 19.3037L28.1338 28.8061C28.0898 29.0888 27.9909 29.3401 27.8479 29.5443C27.705 29.8899 27.4192 30.1254 27.0785 30.1254H21.2854C20.8127 30.1254 20.417 29.6385 20.417 29.026V28.0679C20.417 27.4711 20.8017 26.9685 21.2854 26.9685V26.9528Z" fill="#9FC1F4"/>
<path d="M21.2307 24.769V24.8632C21.2307 24.9731 21.2967 25.0517 21.3736 25.0517H26.672L26.76 24.4862L26.782 24.3135H21.5935C21.3956 24.3135 21.2197 24.5177 21.2197 24.7847L21.2307 24.769Z" fill="#AFCDFB"/>
<path d="M21.4062 24.9263V25.0205H26.6717L26.7596 24.4551H21.78C21.5821 24.4551 21.4062 24.6593 21.4062 24.9263Z" fill="#9FC1F4"/>
<path d="M20.45 28.4287H28.1118C28.1118 28.4287 28.2107 28.4758 28.2107 28.5544C28.2107 28.6329 28.1668 28.68 28.1118 28.68H20.45C20.45 28.68 20.3511 28.6329 20.3511 28.5544C20.3511 28.4758 20.395 28.4287 20.45 28.4287Z" fill="#6488D3"/>
<path d="M31.7609 26.5908C31.7609 26.5908 32.1896 28.9468 32.2226 30.4546L31.8488 30.5017L31.0684 28.3342L31.7609 26.5908Z" fill="#EA8E50"/>
<path d="M30.4419 30.2829L30.7607 30.5813C30.7607 30.5813 32.2117 28.5238 32.4316 27.173C32.4865 26.8589 34.3223 27.1416 34.9049 26.8118C35.0258 26.7489 35.1357 26.6547 35.2017 26.5291C35.6304 25.838 35.3446 25.1155 35.3446 25.1155C35.3446 25.1155 34.4322 25.0526 33.5528 25.194C32.9262 25.2882 31.8709 25.4767 31.6181 25.8851C31.0355 26.8589 30.4199 30.2672 30.4199 30.2672L30.4419 30.2829Z" fill="#FFB07B"/>
<path d="M29.3321 30.1409C29.3321 30.1409 29.398 30.0937 29.442 30.1095C29.5409 30.1409 29.7168 30.2194 29.9366 30.1566C30.0576 30.1252 30.4863 30.0938 30.4863 30.0938C30.4863 30.0938 30.5193 30.1409 30.6182 30.3765C30.6622 30.5021 30.871 30.4079 30.871 30.4079C30.871 30.4079 30.882 30.4393 30.893 30.5021C30.893 30.5492 30.893 30.5964 30.86 30.6592C30.816 30.7377 30.7941 30.9105 30.7831 31.0361C30.7831 31.1147 30.7831 31.1618 30.7831 31.1618C30.7831 31.1618 30.7721 31.2246 30.5962 31.1304L30.4093 31.0047C30.3544 30.9576 30.3104 30.9105 30.2554 30.8477C30.1675 30.7691 30.1015 30.7848 30.0905 30.7848L29.2881 30.2665C29.2881 30.2665 29.3321 30.1566 29.376 30.1095L29.3321 30.1409Z" fill="#1F2933"/>
<path d="M31.0576 31.4277C31.0576 31.4277 31.0796 31.3334 31.1126 31.302C31.1895 31.2235 31.3544 31.1135 31.4643 30.8622C31.5193 30.7209 31.7831 30.2968 31.7831 30.2968C31.7831 30.2968 31.8271 30.2968 32.036 30.3439C32.1459 30.3753 32.2118 30.124 32.2118 30.124C32.2118 30.124 32.2448 30.124 32.2778 30.1711C32.2998 30.2026 32.3327 30.234 32.3437 30.2968C32.3547 30.391 32.4537 30.5167 32.5196 30.6109C32.5636 30.658 32.5966 30.7052 32.5966 30.7052C32.5966 30.7052 32.6186 30.7523 32.4647 30.8622L32.2668 30.9722C32.2008 31.0036 32.1459 31.0036 32.0689 31.035C31.959 31.0821 31.926 31.1449 31.926 31.1606L31.1016 31.6161C31.1016 31.6161 31.0686 31.5062 31.0686 31.4434L31.0576 31.4277Z" fill="#1F2933"/>
<path d="M33.9705 19.7418C33.9705 19.7418 34.0364 20.1344 34.1463 20.5271C34.1903 20.6999 34.2453 20.8726 34.3112 21.014L35.3445 20.6685C35.3445 20.6685 34.9598 20.213 34.8609 19.7732C34.8609 19.7418 34.8609 19.7261 34.8499 19.6947C34.8499 19.6161 34.8389 19.5376 34.8499 19.4748L34.696 19.4434L34.3332 19.6004L33.9595 19.7575L33.9705 19.7418Z" fill="#FFB07B"/>
<path d="M33.9707 19.7421C33.9707 19.7421 34.0367 20.1348 34.1466 20.5274C34.5203 20.3704 34.7732 19.9306 34.8611 19.7578C34.8611 19.7264 34.8611 19.7107 34.8501 19.6793L34.6083 19.6165L34.3444 19.5693L33.9707 19.7264V19.7421Z" fill="#EA8E50"/>
<path d="M33.8831 20.1979C33.8831 20.1979 35.0483 20.1037 35.1472 19.2084C35.2462 18.3132 35.4221 18.0776 34.7075 17.8891C33.993 17.7006 33.8171 18.0147 33.7182 18.3132C33.6303 18.5959 33.5863 20.1194 33.8721 20.1979H33.8831Z" fill="#FFB07B"/>
<path d="M35.4441 17.7322C35.4441 17.7322 35.3891 17.7322 35.3562 17.795C35.3562 17.6065 35.2023 17.4023 35.2023 17.4023C35.2682 17.5123 35.2462 17.7322 35.2462 17.7322C35.0374 17.2767 34.0041 17.6379 33.9051 17.6536C33.8062 17.6851 33.7403 17.4966 33.7403 17.4966C33.5864 17.6694 33.5314 18.0777 33.6523 18.3447C33.7732 18.6117 34.191 19.0044 34.3119 18.9259C34.4328 18.8473 34.4328 19.0044 34.4218 19.2243C34.4218 19.4442 34.7076 19.8054 34.9275 19.8683C35.0923 19.9154 35.1143 19.7583 35.1583 19.6641C35.1693 19.6484 35.1803 19.6169 35.2023 19.6012C35.4331 19.3342 35.565 18.8159 35.5101 18.2976C35.4881 18.0934 35.4221 17.9207 35.3891 17.8421C35.4001 17.8107 35.4331 17.7479 35.4551 17.7165L35.4441 17.7322Z" fill="#1F2933"/>
<path d="M33.575 25.2097C33.575 25.2097 33.575 25.8223 33.8608 26.0736C34.0476 26.2306 34.4873 26.6233 34.916 26.8118C35.037 26.7489 35.1469 26.6547 35.2128 26.5291C35.6416 25.838 35.3557 25.1155 35.3557 25.1155C35.3557 25.1155 34.4434 25.0526 33.564 25.194L33.575 25.2097Z" fill="#AA3E39"/>
<path d="M36.5313 24.752C36.5313 24.752 35.1572 25.3646 34.4097 25.0348C34.4097 25.0348 34.1569 25.0819 33.4204 25.2389C33.4204 25.2389 33.7502 26.7468 33.9261 26.9823C34.003 27.0923 35.4211 26.9666 35.6739 26.9823C35.6739 26.9823 36.4214 26.8567 36.5423 26.0714C36.6632 25.3018 36.5423 24.7363 36.5423 24.7363L36.5313 24.752Z" fill="#2C3A64"/>
<path d="M33.8828 21.8776L33.9927 22.286V22.3488L34.2016 24.1865L34.2236 24.799C34.2236 24.8932 34.2785 24.9875 34.3445 25.0346C34.5534 25.1603 34.8831 25.333 35.037 25.3173C36.0044 25.2545 36.532 24.7362 36.532 24.7362C36.4001 22.8671 35.9494 21.4535 35.8505 21.2022C35.6746 20.7625 35.081 20.2441 35.081 20.2441C34.8502 20.4169 34.3005 20.9352 34.3005 20.9352C34.3005 21.2651 33.8828 21.8462 33.8828 21.8462V21.8776Z" fill="#EE9849"/>
<path d="M34.0039 22.3511L34.2018 24.1887C35.1911 23.4662 35.0702 21.6914 35.0702 21.6914C35.0702 21.6914 34.1028 22.0527 34.0699 22.1155C34.0699 22.1155 34.0369 22.2097 34.0039 22.3511Z" fill="#E2751B"/>
<path d="M31.0031 24.0145C31.0031 24.0145 31.146 23.7946 31.5308 23.7946C31.9375 23.7475 33.1467 23.5904 33.2456 23.402C33.3115 23.2763 34.2899 20.7633 34.3778 20.7476C34.6636 20.7004 35.1583 21.3444 35.0813 21.6585C35.0813 21.6585 34.07 24.2815 33.8502 24.3286C33.4874 24.4072 32.1903 24.36 31.7066 24.2344C31.6517 24.2815 31.4208 24.4229 31.3659 24.4543C31.2999 24.4857 31.0581 24.4857 30.9591 24.4072C30.8602 24.3129 30.9262 24.1245 30.9921 24.0302L31.0031 24.0145Z" fill="#FFB07B"/>
<path d="M33.8274 21.8785C34.0033 22.2711 34.3331 22.601 34.7618 22.7109C34.8497 22.5852 35.0805 21.6429 35.0805 21.6429C35.1575 21.3287 35.3224 20.3235 34.5419 20.7319C34.0582 20.9832 33.8824 21.6743 33.8164 21.8942L33.8274 21.8785Z" fill="#EE9849"/>
<path d="M32.509 32.7958H38.0163C38.6429 32.7958 39.2035 32.4817 39.5003 31.9477C39.7971 31.4451 39.7861 30.8482 39.5003 30.3299L38.3021 28.2881L37.4117 28.8064L38.6099 30.8482C38.7198 31.0367 38.7198 31.2409 38.6099 31.4294C38.489 31.6336 38.2691 31.7592 38.0163 31.7592H33.4654C32.9377 31.7592 32.498 32.2147 32.498 32.7801L32.509 32.7958Z" fill="#52606D"/>
<path d="M37.786 29.9051L38.2587 30.015C38.4455 30.0622 38.6324 30.0464 38.7973 29.9993C38.8413 29.9993 38.8852 29.9679 38.9292 29.9522C39.3139 29.7637 39.6217 29.3397 39.7097 28.7899L41.1497 19.2875C41.2816 18.4394 40.8309 17.6227 40.1714 17.4499L40.0065 17.4028L39.7976 17.3557H39.6987C39.0281 17.1672 38.3796 17.7326 38.2477 18.5808L36.8076 28.0831C36.6757 28.9313 37.1264 29.748 37.786 29.9208V29.9051Z" fill="#AFCDFB"/>
<path d="M38.2468 21.1883H38.3348C38.4887 21.1883 38.6206 21.047 38.6536 20.8585L39.0053 18.5811C39.0933 17.9842 39.445 17.5444 39.8737 17.3717H39.8188L39.7198 17.3402C39.0493 17.1832 38.4007 17.7329 38.2688 18.5811L37.95 20.7014C37.9171 20.9527 38.06 21.1883 38.2688 21.1883H38.2468Z" fill="#E57970"/>
<path d="M32.8605 26.9528H37.9501L39.2252 18.5812C39.3132 18.0315 39.6209 17.6074 40.0057 17.4189L40.1706 17.4661C40.8411 17.6231 41.2808 18.4556 41.1489 19.3037L39.7089 28.8061C39.6649 29.0888 39.566 29.3401 39.4231 29.5443C39.4231 29.5443 39.4231 29.56 39.4121 29.5757C39.4011 29.6071 39.3791 29.6385 39.3681 29.67C39.3571 29.7014 39.3351 29.7171 39.3132 29.7485C39.3132 29.7485 39.3022 29.7642 39.2912 29.7799C39.2802 29.7799 39.2692 29.8113 39.2582 29.827C39.2582 29.827 39.2472 29.827 39.2362 29.8427C39.2362 29.8427 39.2142 29.8584 39.2032 29.8741C39.2032 29.8741 39.2032 29.8741 39.1922 29.8741C39.1922 29.8741 39.1922 29.8741 39.1812 29.8741C39.1812 29.8741 39.1812 29.8741 39.1703 29.8741C39.1703 29.8741 39.1483 29.8741 39.1483 29.8899C39.1483 29.8899 39.1483 29.8899 39.1373 29.8899C39.1373 29.8899 39.1263 29.8899 39.1153 29.8899C39.1153 29.8899 39.1153 29.8899 39.1043 29.8899C39.1043 29.8899 39.0823 29.8899 39.0713 29.9056C39.0713 29.9056 39.0713 29.9056 39.0603 29.9056C39.0603 29.9056 39.0493 29.9056 39.0383 29.9056C39.0383 29.9056 39.0383 29.9056 39.0274 29.9056H39.0054C39.0054 29.9056 38.9834 29.9056 38.9724 29.9056C38.9724 29.9056 38.9724 29.9056 38.9614 29.9056H38.9394C38.9284 29.9056 38.9174 29.9056 38.9064 29.9056C38.9064 29.9056 38.8844 29.9056 38.8735 29.9056C38.8625 29.9056 38.8515 29.9056 38.8405 29.9056C38.8405 29.9056 38.8185 29.9056 38.8075 29.9056C38.7965 29.9056 38.7855 29.9056 38.7635 29.9056H32.9705C32.8715 29.9056 32.7616 29.8899 32.6737 29.8427C32.5527 29.7799 32.4428 29.7014 32.3549 29.5914C32.201 29.3872 32.1021 29.1202 32.1021 28.8218V27.8637C32.1021 27.2669 32.4868 26.7643 32.9705 26.7643L32.8605 26.9528Z" fill="#9FC1F4"/>
<path d="M32.8059 24.769V24.8632C32.8059 24.9731 32.8719 25.0517 32.9488 25.0517H38.2472L38.3352 24.4862L38.3571 24.3135H33.1687C32.9708 24.3135 32.7949 24.5177 32.7949 24.7847L32.8059 24.769Z" fill="#AFCDFB"/>
<path d="M32.981 24.9263V25.0205H38.2464L38.3343 24.4551H33.3547C33.1568 24.4551 32.981 24.6593 32.981 24.9263Z" fill="#9FC1F4"/>
<path d="M32.0252 28.6654H39.687C39.687 28.6654 39.7859 28.6182 39.7859 28.5397C39.7859 28.5397 39.742 28.4141 39.687 28.4141H32.0252C32.0252 28.4141 31.9263 28.4612 31.9263 28.5397C31.9263 28.5397 31.9702 28.6654 32.0252 28.6654Z" fill="#6488D3"/>
<path d="M34.0694 30.5488H37.4991C37.609 30.5488 37.697 30.6588 37.697 30.8001V31.5226C37.697 31.664 37.609 31.7739 37.4991 31.7739H34.0694C33.9595 31.7739 33.8716 31.664 33.8716 31.5226V30.8001C33.8716 30.6588 33.9595 30.5488 34.0694 30.5488Z" fill="#7EA6ED"/>
<path d="M49.3054 15.3309C49.3054 15.3309 49.4373 14.7498 50.1078 14.9068C50.1078 14.9068 49.7781 14.8597 49.6901 15.0325C49.6901 15.0325 49.9539 14.8754 50.1188 15.0011C50.2837 15.1267 50.3167 15.5508 50.2947 15.6764C50.2727 15.8021 50.0968 16.1947 49.9759 16.2105C49.932 16.2105 49.877 16.1947 49.833 16.179C49.855 16.2419 49.866 16.3204 49.888 16.3989C50.0309 17.1528 49.6462 17.7497 49.4373 17.6083C49.3054 17.5141 49.1625 17.8596 49.1625 17.8596L48.0742 16.0063C48.0742 16.0063 48.8217 14.8126 49.3054 15.3466V15.3309Z" fill="#1F2933"/>
<path d="M42.6986 31.2891C42.6986 31.2891 42.149 32.0116 42.0171 32.1843C41.8851 32.3571 41.3685 32.2786 41.2256 32.8126H42.6106C42.6106 32.8126 42.9514 32.4828 43.4901 32.4985C43.4901 32.4985 43.589 31.9959 43.4901 31.8074C43.3911 31.6189 43.3471 31.2891 43.3471 31.2891H42.6876H42.6986Z" fill="#1F2933"/>
<path d="M43.5015 32.4813L43.4356 32.7954H42.9409V32.5284C42.9409 32.5284 43.2157 32.4185 43.5015 32.4813Z" fill="#233862"/>
<path d="M43.5454 26.1699C43.5454 26.1699 43.5674 29.4526 43.3585 31.2745H42.699L42.2373 27.8191L43.5454 26.1699Z" fill="#A53934"/>
<path d="M40.7422 31.2887H41.4017C41.4347 31.2416 43.4573 28.6029 43.7761 26.938C43.7761 26.938 43.963 26.9223 44.1938 26.938C44.2598 26.938 44.3258 26.938 44.4027 26.9537C44.7105 27.0008 48.7228 27.1893 48.9316 26.9223C49.1405 26.6553 49.0525 25.1318 49.0525 25.1318L48.6568 24.8647L48.2391 24.582C48.2391 24.582 43.6112 24.6763 43.1276 25.1318C42.6439 25.5872 41.5117 28.65 40.7422 31.2887Z" fill="#B64C41"/>
<path d="M40.742 31.2891C40.742 31.2891 40.1924 32.0116 40.0605 32.1843C39.9286 32.3571 39.4119 32.2786 39.269 32.8126H40.6541C40.6541 32.8126 40.9949 32.4828 41.5335 32.4985C41.5335 32.4985 41.6324 31.9959 41.5335 31.8074C41.4346 31.6189 41.3906 31.2891 41.3906 31.2891H40.731H40.742Z" fill="#323F4B"/>
<path d="M41.545 32.4813L41.479 32.7954H40.9844V32.5284C40.9844 32.5284 41.2592 32.4185 41.545 32.4813Z" fill="#35488B"/>
<path d="M44.1938 26.9225C44.2598 26.9225 44.4027 26.9539 44.4797 26.9697C44.7874 27.0168 48.7667 27.221 48.9756 26.9697C49.1845 26.7183 49.0965 25.1791 49.0965 25.1791L48.7008 24.9121L48.0412 25.2734C48.0412 25.2734 48.0852 26.8126 44.1938 26.9382V26.9225Z" fill="#A53934"/>
<path d="M48.075 19.0215C48.4927 19.0215 48.9544 18.9744 49.3391 18.9115C49.2622 18.7545 49.1852 18.3147 49.1522 17.7021H49.0093L48.3168 17.7493C48.3168 17.7493 48.3168 17.7493 48.3168 17.7807C48.3168 17.9063 48.3388 18.2833 48.3388 18.5032C48.3388 18.5817 48.3058 18.7702 48.2948 18.7702C48.2179 18.8487 48.1409 18.9272 48.064 19.0058L48.075 19.0215Z" fill="#FFB07B"/>
<path d="M48.3494 18.5033C48.7671 18.4404 49.0419 17.9692 49.1628 17.6865H49.0089L48.3164 17.7808C48.3164 17.9064 48.3384 18.2834 48.3384 18.5033H48.3494Z" fill="#EA8E50"/>
<path d="M48.2834 18.1118C48.2834 18.1118 49.2618 18.1118 49.2508 17.3265C49.2398 16.5569 49.3497 16.0386 48.7231 16.0072C48.0966 15.9758 47.9756 16.2742 47.9317 16.5412C47.8877 16.8082 48.0196 18.0961 48.2834 18.1118Z" fill="#FFB07B"/>
<path d="M47.9642 16.101C48.1071 15.8654 48.228 15.9126 48.294 15.9754C48.8216 15.5827 49.1843 16.1325 49.1843 16.1325C49.2613 16.6822 49.5801 16.9963 49.5801 16.9963C49.5801 16.9963 49.4042 17.1377 48.9865 17.0277C48.8546 16.9963 48.7446 16.8864 48.6457 16.745C48.8216 17.0905 49.0524 17.3418 49.0524 17.3418C48.5578 17.0748 48.3379 16.211 48.3159 16.1167C48.261 16.1796 48.1401 16.3366 48.1071 16.478C48.0631 16.6822 48.0521 17.0748 47.9532 17.0748C47.9532 17.0748 47.7333 16.4623 47.9532 16.1167L47.9642 16.101Z" fill="#1F2933"/>
<path d="M46.5463 24.7237C47.019 24.8022 47.8325 24.8808 47.9973 25.2106C48.1622 25.5404 49.1735 25.3048 49.2615 25.1007C49.3494 24.8965 49.0856 23.2316 49.2175 22.9489C49.3164 22.729 49.6682 21.5667 49.8441 20.8913C49.899 20.6714 49.943 20.4987 49.954 20.4359C49.987 20.1845 50.1079 19.305 49.6242 19.038C49.6242 19.038 49.3934 18.9123 49.3714 18.8024C49.3714 18.771 49.3714 18.7396 49.3714 18.6924C49.3714 18.5511 49.3714 18.3626 49.2615 18.4097C49.1186 18.4883 48.9647 18.661 48.7228 18.6453C48.481 18.6296 48.2722 18.4883 48.2392 18.5825C48.2062 18.6767 48.2941 18.7867 48.2392 18.8495C48.1842 18.9123 47.4697 19.4463 47.2498 20.2474C47.2498 20.2474 47.074 20.8285 47.074 21.2997C47.074 21.3311 47.074 21.3782 47.074 21.4097C47.074 21.6924 47.096 22.0065 47.074 22.2735C47.074 22.2735 47.074 22.3049 47.074 22.3206C47.041 22.6505 46.997 22.9803 46.964 23.2159C46.9201 23.4515 46.8871 23.6243 46.8431 23.6714C46.6562 23.907 46.0846 24.6295 46.5573 24.708L46.5463 24.7237Z" fill="#88B374"/>
<path d="M44.5129 24.5516C44.5129 24.5516 44.5129 24.4888 44.5349 24.4103C44.5459 24.3318 44.6888 24.0647 44.7768 24.0019C44.8647 23.9391 45.3484 23.9391 45.3484 23.9391C45.3484 23.9391 47.1292 23.358 47.371 23.0438C47.6788 22.6355 48.3164 21.1433 48.811 20.3266C49.0419 19.934 49.2507 19.6984 49.3607 19.8083C49.3607 19.8083 49.6575 20.0125 49.5146 20.8292C49.5146 20.8763 49.4926 20.9235 49.4816 20.9706C49.2727 21.8973 48.1405 23.9548 47.5579 24.2061C46.9753 24.4574 45.3484 24.3318 45.3484 24.3318C45.3484 24.3318 45.1835 24.3318 45.1175 24.4417C45.0516 24.5516 44.7658 24.5202 44.7328 24.5988C44.6668 24.7244 44.491 24.6616 44.502 24.5673L44.5129 24.5516Z" fill="#FFB07B"/>
<path d="M47.9972 25.2114C48.1621 25.5412 49.1734 25.3056 49.2614 25.1014C49.3493 24.8973 49.0855 23.2324 49.2174 22.9497C49.3163 22.7298 49.6681 21.5675 49.844 20.8921C49.811 20.8136 49.767 20.7822 49.7121 20.7979C49.3054 20.9392 47.3707 23.0439 46.9529 23.2167C46.909 23.4523 46.876 23.625 46.832 23.6721C46.832 23.6721 48.0522 24.2847 47.9862 25.1957L47.9972 25.2114Z" fill="#6C9358"/>
<path d="M47.0742 22.2733C47.6678 21.9591 49.1628 20.1372 49.1848 20.1058C49.1628 20.1058 48.6901 19.8388 47.5249 21.1738C47.393 21.3309 47.2061 21.645 47.1622 21.7707C47.1072 21.9277 47.0962 22.1319 47.0852 22.2576L47.0742 22.2733Z" fill="#6C9358"/>
<path d="M49.2398 19.7132C49.2398 19.7132 48.965 19.8545 48.7451 20.2315C48.5253 20.5928 47.503 22.7759 47.2941 22.933C47.0742 23.0901 46.5686 23.2157 46.6126 23.4042C46.6565 23.5927 46.9643 24.4565 47.1402 24.5665C47.3271 24.6764 48.1185 24.4879 48.4043 24.0953C48.6792 23.7026 49.8224 20.577 49.5915 20.0587C49.3717 19.5404 49.2288 19.7132 49.2288 19.7132H49.2398Z" fill="#88B374"/>
<path d="M48.9758 19.0379C49.1297 18.9908 49.6134 19.0379 49.6134 19.0379C49.6134 19.0379 49.3825 18.9123 49.3605 18.8023C49.3605 18.7709 49.3605 18.7395 49.3605 18.6924C49.3385 18.818 49.2616 18.8809 49.0637 18.8966C48.8659 18.8966 48.8329 19.085 48.9868 19.0379H48.9758Z" fill="#6C9358"/>
<path d="M41.4019 31.2895C41.4348 31.2424 43.4575 28.6037 43.7762 26.9388C43.7762 26.9388 43.2816 26.7661 42.9848 27.2687C42.688 27.7713 41.4128 31.2895 41.4128 31.2895H41.4019Z" fill="#A53934"/>
<path d="M44.447 32.7968H49.9543C50.5809 32.7968 51.1415 32.4827 51.4383 31.9487C51.7351 31.4461 51.7241 30.8492 51.4383 30.3309L50.2401 28.2891L49.3497 28.8074L50.5479 30.8492C50.6578 31.0377 50.6578 31.2419 50.5479 31.4303C50.427 31.6345 50.2071 31.7602 49.9543 31.7602H45.4034C44.8757 31.7602 44.436 32.2157 44.436 32.7811L44.447 32.7968Z" fill="#52606D"/>
<path d="M49.7337 29.9061L50.2064 30.016C50.3933 30.0631 50.5802 30.0474 50.745 30.0003C50.789 30.0003 50.833 29.9689 50.877 29.9532C51.2617 29.7647 51.5695 29.3406 51.6574 28.7909L53.0974 19.2885C53.2294 18.4404 52.7787 17.6236 52.1191 17.4509L51.9542 17.4038L51.7454 17.3566H51.6464C50.9759 17.1682 50.3273 17.7336 50.1954 18.5817L48.7554 28.0841C48.6235 28.9323 49.0742 29.749 49.7337 29.9218V29.9061Z" fill="#AFCDFB"/>
<path d="M50.1858 21.1893H50.2737C50.4276 21.1893 50.5596 21.0479 50.5925 20.8595L50.9443 18.582C51.0322 17.9852 51.384 17.5454 51.8127 17.3726H51.7577L51.6588 17.3412C50.9883 17.1842 50.3397 17.7339 50.2078 18.582L49.889 20.7024C49.856 20.9537 49.9989 21.1893 50.2078 21.1893H50.1858Z" fill="#E57970"/>
<path d="M44.8098 26.9537H49.8994L51.1745 18.5822C51.2624 18.0325 51.5702 17.6084 51.955 17.4199L52.1199 17.467C52.7904 17.6241 53.2301 18.4565 53.0982 19.3047L51.6582 28.8071C51.6142 29.0898 51.5153 29.3411 51.3724 29.5453C51.2295 29.8908 50.9437 30.1264 50.6029 30.1264H44.8098C44.3371 30.1264 43.9414 29.6395 43.9414 29.027V28.0689C43.9414 27.472 44.3261 26.9694 44.8098 26.9694V26.9537Z" fill="#9FC1F4"/>
<path d="M44.7551 24.7699V24.8642C44.7551 24.9741 44.8211 25.0527 44.898 25.0527H50.1964L50.2844 24.4872L50.3064 24.3145H45.1179C44.92 24.3145 44.7441 24.5186 44.7441 24.7856L44.7551 24.7699Z" fill="#AFCDFB"/>
<path d="M44.9302 24.9272V25.0215H50.1956L50.2835 24.4561H45.3039C45.1061 24.4561 44.9302 24.6602 44.9302 24.9272Z" fill="#9FC1F4"/>
<path d="M43.9739 28.6654H51.6357C51.6357 28.6654 51.7347 28.6182 51.7347 28.5397C51.7347 28.5397 51.6907 28.4141 51.6357 28.4141H43.9739C43.9739 28.4141 43.875 28.4612 43.875 28.5397C43.875 28.5397 43.919 28.6654 43.9739 28.6654Z" fill="#6488D3"/>
<path d="M40.138 22.9473H44.8538C44.9308 22.9473 44.9967 23.0258 44.9967 23.1357C44.9967 23.2457 44.9308 23.3242 44.8538 23.3242H40.138C40.0611 23.3242 39.9951 23.2457 39.9951 23.1357C39.9951 23.0258 40.0611 22.9473 40.138 22.9473Z" fill="#9FC1F4"/>
<path d="M45.711 30.5508H49.1407C49.2507 30.5508 49.3386 30.6607 49.3386 30.8021V31.5246C49.3386 31.6659 49.2507 31.7759 49.1407 31.7759H45.711C45.6011 31.7759 45.5132 31.6659 45.5132 31.5246V30.8021C45.5132 30.6607 45.6011 30.5508 45.711 30.5508Z" fill="#7EA6ED"/>
<path d="M22.3624 30.5498H25.7921C25.902 30.5498 25.99 30.6597 25.99 30.8011V31.5236C25.99 31.665 25.902 31.7749 25.7921 31.7749H22.3624C22.2525 31.7749 22.1646 31.665 22.1646 31.5236V30.8011C22.1646 30.6597 22.2525 30.5498 22.3624 30.5498Z" fill="#7EA6ED"/>
<path d="M37.9281 3.77051H8.39111V9.80178H37.9281V3.77051Z" fill="#FFD0B5"/>
<path d="M37.1912 9.53516L27.7596 9.53516C27.7596 6.91218 29.2436 4.79181 31.0793 4.79181H33.8824C35.7182 4.79181 37.2021 6.91218 37.2021 9.53516H37.1912Z" fill="#DAE6EF"/>
<path d="M31.1126 8.9069H33.8608C33.9267 8.9069 33.9817 8.84408 33.9817 8.74984C33.9817 8.6713 33.9267 8.59277 33.8608 8.59277H31.1126C31.0467 8.59277 30.9917 8.6556 30.9917 8.74984C30.9917 8.82837 31.0467 8.9069 31.1126 8.9069Z" fill="#95BEF9"/>
<path d="M26.594 9.53516L17.1624 9.53516C17.1624 6.91218 18.6464 4.79181 20.4821 4.79181H23.2852C25.121 4.79181 26.605 6.91218 26.605 9.53516H26.594Z" fill="#DAE6EF"/>
<path d="M20.5047 8.9069H23.2528C23.3188 8.9069 23.3738 8.84408 23.3738 8.74984C23.3738 8.6713 23.3188 8.59277 23.2528 8.59277H20.5047C20.4388 8.59277 20.3838 8.6556 20.3838 8.74984C20.3838 8.82837 20.4388 8.9069 20.5047 8.9069Z" fill="#95BEF9"/>
<path d="M15.9861 9.53516L6.55448 9.53516C6.55448 6.91218 8.03847 4.79181 9.87423 4.79181H12.6773C14.5131 4.79181 15.9971 6.91218 15.9971 9.53516H15.9861Z" fill="#DAE6EF"/>
<path d="M9.88557 8.9069H12.6337C12.6997 8.9069 12.7546 8.84408 12.7546 8.74984C12.7546 8.6713 12.6997 8.59277 12.6337 8.59277H9.88557C9.81961 8.59277 9.76465 8.6556 9.76465 8.74984C9.76465 8.82837 9.81961 8.9069 9.88557 8.9069Z" fill="#95BEF9"/>
<path d="M49.2398 17.3084C49.337 17.3084 49.4157 17.1467 49.4157 16.9472C49.4157 16.7477 49.337 16.5859 49.2398 16.5859C49.1427 16.5859 49.064 16.7477 49.064 16.9472C49.064 17.1467 49.1427 17.3084 49.2398 17.3084Z" fill="#95BEF9"/>
<path d="M49.217 16.7751C49.195 16.7751 49.184 16.7594 49.184 16.728C49.184 16.728 49.217 16.1625 48.9752 15.8327C48.8543 15.6599 48.6674 15.5657 48.4475 15.5814C48.4365 15.5814 48.4146 15.5657 48.4146 15.55C48.4146 15.5343 48.4255 15.5186 48.4475 15.5186C48.6894 15.5186 48.8872 15.6128 49.0301 15.8013C49.294 16.1625 49.261 16.7279 49.261 16.7594C49.261 16.7751 49.25 16.7908 49.228 16.7908L49.217 16.7751Z" fill="#95BEF9"/>
<path d="M12.0965 17.4512C12.6131 18.1737 12.5692 19.1789 12.5692 19.1789L12.2614 19.0532C12.2614 19.0532 12.2174 18.315 11.8766 17.7496C11.7777 17.5768 11.6898 17.4983 11.5908 17.4512H12.0965Z" fill="#2C3A64"/>
<path d="M11.2054 17.3568L11.5352 17.1841C11.6011 17.1526 11.6781 17.1369 11.755 17.1526L12.2387 17.2783C12.2387 17.2783 12.2607 17.7181 11.8759 17.7181C11.4912 17.7181 11.5462 17.9851 11.2164 17.8123C10.8866 17.6395 11.2164 17.3411 11.2164 17.3411L11.2054 17.3568Z" fill="#EA8E50"/>
<path d="M7.13864 14.1826C7.13864 14.1826 6.56702 14.6224 6.77588 15.4548C6.98474 16.2873 8.90844 17.8736 9.07332 17.9522C9.23821 18.015 10.5683 18.4076 11.2279 17.8265C11.2279 17.8265 11.3708 17.5281 11.2279 17.3553C11.2279 17.3553 9.58997 17.0883 9.39211 16.9941C9.19424 16.8998 7.90811 14.9051 7.72124 14.6695C7.53437 14.4339 7.14963 14.1826 7.14963 14.1826H7.13864Z" fill="#A53934"/>
<path d="M5.98391 18.5648H8.23738C8.5012 18.5648 8.71006 18.2978 8.71006 17.9679C8.71006 17.6381 8.5012 17.3711 8.23738 17.3711H5.98391C5.72009 17.3711 5.51123 17.6381 5.51123 17.9679C5.51123 18.2978 5.72009 18.5648 5.98391 18.5648Z" fill="#E2751B"/>
<path d="M5.90729 11.9688C5.90729 11.9688 5.95126 12.4242 5.72041 12.6284C5.48957 12.8169 5.32468 13.0211 5.40163 13.3666C5.47858 13.7122 5.32468 13.8535 5.15979 14.0734C4.9949 14.2933 5.09384 15.3456 5.62148 15.4399C6.14912 15.5341 6.86364 13.5551 6.79768 13.0682C6.73173 12.5656 5.89629 11.9845 5.89629 11.9845L5.90729 11.9688Z" fill="#1F2933"/>
<path d="M6.15969 13.7767H7.05009C7.31391 13.7767 7.28093 13.5254 7.28093 13.1956H7.52277C7.52277 12.85 7.31391 12.583 7.05009 12.583H6.15969C5.89587 12.583 5.68701 12.85 5.68701 13.1799C5.68701 13.5097 5.89587 13.7767 6.15969 13.7767Z" fill="#E2751B"/>
<path d="M6.50099 13.9951L6.96268 15.3616L7.85307 15.2988C7.85307 15.2988 7.38039 14.2464 7.3694 14.1522C7.3694 14.0737 7.3694 13.8538 7.3694 13.6653C7.3694 13.4925 7.39138 13.3355 7.39138 13.2883C7.39138 13.2569 7.39138 13.2255 7.39138 13.2098C7.39138 13.1941 7.39138 13.1784 7.39138 13.1784L6.59992 12.8643H6.57794C6.56694 13.1784 6.55595 13.4297 6.53397 13.6025C6.51198 13.8066 6.50099 13.9323 6.479 14.0108L6.50099 13.9951Z" fill="#FFB07B"/>
<path d="M7.73211 11.5758C7.73211 11.5758 7.64417 9.92659 5.95132 10.5548C5.56658 10.6962 5.62155 12.1569 6.54492 12.7223L7.73211 11.5758Z" fill="#1F2933"/>
<path d="M5.5332 21.3145C5.64313 22.3197 6.41261 24.9113 6.39062 25.8065C6.36864 26.5133 6.39062 28.1468 6.45658 29.2305C6.47856 29.529 6.50055 29.7803 6.53352 29.9687C6.59948 30.3771 6.68742 30.8326 6.73139 31.1153C6.83032 31.775 6.77536 32.1519 6.8633 32.4975C6.95124 32.8744 7.99553 32.8116 7.67675 32.576C7.56682 32.4975 7.40193 32.309 7.32499 32.0891C7.02819 31.2567 7.4459 27.6913 7.56682 26.3248C7.57781 26.1521 7.58881 26.0107 7.5998 25.9165C7.64377 25.0683 8.10546 19.414 8.10546 19.414C6.98422 18.6287 5.43427 20.2936 5.5442 21.2988L5.5332 21.3145Z" fill="#FFB07B"/>
<path d="M5.53333 21.3143C5.64326 22.3195 6.41274 24.9111 6.39075 25.8063C6.36877 26.5131 6.39075 28.1466 6.45671 29.2303L7.55596 26.3246C7.56695 26.1519 7.57795 26.0105 7.58894 25.9163C7.63291 25.0681 8.10559 19.3981 8.10559 19.3981C6.98435 18.6128 5.42341 20.2934 5.53333 21.2829V21.3143Z" fill="#EA8E50"/>
<path d="M7.9629 19.6191C7.9629 19.6191 6.99556 25.2105 6.88563 26.043C6.77571 26.8754 5.8963 30.8335 6.09417 31.823C6.20409 32.4041 6.40196 32.5769 6.40196 32.5769C6.44593 32.6868 5.68744 32.891 5.62149 32.4826C5.54454 31.9643 5.52256 31.2261 5.41263 29.9853C5.21477 27.8492 5.6105 26.6398 5.69844 25.7446C5.79737 24.8493 5.37965 22.0221 5.6105 21.0483C6.00623 19.3521 6.90762 18.661 7.95191 19.5876L7.9629 19.6191Z" fill="#FFB07B"/>
<path d="M5.39049 24.7542C5.39049 24.7542 5.64331 24.8014 6.00607 24.8328L6.20393 23.8119L6.26989 24.8485C6.86349 24.8799 7.63296 24.8485 8.20458 24.5501L8.08366 19.4298C8.08366 19.4298 7.25922 19.7125 6.2589 19.2256C6.2589 19.2256 4.96178 20.4978 5.3685 24.7542H5.39049Z" fill="#B64C41"/>
<path d="M5.25875 31.7443C5.30272 32.0898 5.31372 32.7181 5.31372 32.828H5.39066V32.027C5.39066 32.027 5.41265 32.0427 5.41265 32.0584C5.4896 32.1684 5.58853 32.7024 5.66548 32.828H6.55587C6.55587 32.828 6.55587 32.7495 6.55587 32.7181C6.5119 32.6396 6.41297 32.5767 6.41297 32.5767C6.41297 32.5767 6.12716 32.6396 5.84136 32.5453C5.72044 32.5139 5.52257 31.1475 5.52257 31.1475C5.52257 31.1475 5.23677 31.3831 5.20379 31.4773C5.1928 31.5244 5.22578 31.6344 5.26975 31.76L5.25875 31.7443Z" fill="#AA413E"/>
<path d="M6.50059 31.8071C6.53357 32.0898 6.54456 32.5139 6.54456 32.7181C6.54456 32.7652 6.54456 32.8123 6.54456 32.828H6.62151V32.0584C6.70945 32.1684 6.80838 32.7024 6.87434 32.828H7.76473C7.8197 32.7024 7.61084 32.5767 7.61084 32.5767C7.61084 32.5767 7.32503 32.6396 7.03923 32.5453C6.91831 32.5139 6.70945 31.1475 6.70945 31.1475C6.70945 31.1475 6.42364 31.3673 6.39067 31.4616C6.36868 31.5244 6.42364 31.6658 6.4896 31.8071H6.50059Z" fill="#AA413E"/>
<path d="M6.68701 13.0527C6.77495 13.2412 6.98381 13.5553 7.39053 13.6496C7.39053 13.4768 7.41252 13.3197 7.41252 13.2726C7.41252 13.2412 7.41252 13.2098 7.41252 13.1941C7.41252 13.1784 7.41252 13.1627 7.41252 13.1627L6.68701 13.0527Z" fill="#EA8E50"/>
<path d="M7.64422 13.2418C7.64422 13.2418 6.65489 13.4931 6.54496 12.7078C6.43504 11.9225 6.22618 11.4356 6.85275 11.2471C7.47933 11.0586 7.64422 11.3257 7.73216 11.577C7.8201 11.8283 7.89704 13.1633 7.64422 13.2418Z" fill="#FFB07B"/>
<path d="M7.3803 11.2467C7.3803 11.2467 7.78703 11.3095 7.80901 11.9064C7.80901 11.9064 7.98489 10.964 7.34732 10.9797C6.69876 10.9954 7.3803 11.2467 7.3803 11.2467Z" fill="#1F2933"/>
<path d="M7.30334 11.0736C7.30334 11.0736 7.57815 11.5133 7.07249 11.9217C6.56684 12.3301 6.55585 12.8327 6.68776 13.0526C6.68776 13.0526 5.72041 12.1102 6.19309 11.3563C6.66577 10.6181 7.30334 11.0736 7.30334 11.0736Z" fill="#1F2933"/>
<path d="M5.69824 20.028C5.69824 20.028 6.53368 20.4678 7.11628 20.4521C7.70988 20.4364 7.8198 20.1537 7.8198 20.1537C7.91874 20.2793 8.22653 20.1537 8.22653 20.1537C8.22653 20.1537 8.22653 19.5725 8.23752 18.9914C8.23752 18.8814 8.23752 18.7715 8.23752 18.6616C8.23752 18.3788 8.23752 18.1275 8.23752 17.9548C8.23752 17.8605 7.95171 17.4207 7.95171 17.3736C7.91874 17.0909 8.20454 16.2742 8.05065 15.6773C7.99568 15.4417 7.46804 14.3266 7.41308 14.2323C7.58896 14.6878 7.73186 15.1747 7.73186 15.1747C7.45705 15.0962 6.53368 13.8711 6.53368 13.8711L5.92909 14.7978L5.81916 14.9705C5.81916 14.9705 5.94008 17.4836 5.96206 17.9391C5.98405 18.4103 5.70923 20.0123 5.70923 20.0123L5.69824 20.028Z" fill="#B64C41"/>
<path d="M5.69824 20.0261C5.69824 20.0261 6.53368 20.4658 7.11628 20.4501C7.70988 20.4344 7.8198 20.1517 7.8198 20.1517C7.91874 20.2774 8.22653 20.1517 8.22653 20.1517C8.22653 20.1517 8.22653 19.5706 8.23752 18.9894C7.91874 18.7695 7.50102 18.5811 7.30315 18.424C7.0833 18.2512 6.31382 15.9895 5.91809 14.8115L5.80817 14.9843C5.80817 14.9843 5.92909 17.4973 5.95107 17.9528C5.97306 18.424 5.69824 20.0261 5.69824 20.0261Z" fill="#A53934"/>
<path d="M6.34717 14.7959C6.34717 14.7959 6.78687 17.2775 6.81985 17.3246C6.85283 17.3718 8.17193 18.5183 8.17193 18.5183L6.34717 14.7959Z" fill="#A53934"/>
<path d="M7.46813 11.1212C7.46813 11.1212 6.52278 11.3254 5.8962 11.9693C5.8962 11.9693 5.70933 11.9065 5.64337 11.3097C5.6104 11.0584 5.62139 10.7128 5.62139 10.7128L6.72064 9.97461C6.72064 9.97461 7.31424 10.383 7.46813 11.1212Z" fill="#B64C41"/>
<path d="M6.73145 9.97461C6.73145 9.97461 7.54489 10.4772 7.65482 11.0741L7.47894 11.1212C7.47894 11.1212 7.24809 10.3516 6.73145 9.97461Z" fill="#A03C37"/>
<path d="M6.18215 17.3578H8.19379C8.45761 17.3578 8.66647 17.0907 8.66647 16.7609C8.66647 16.4311 8.45761 16.1641 8.19379 16.1641H6.18215C5.91833 16.1641 5.70947 16.4311 5.70947 16.7609C5.70947 17.0907 5.91833 17.3578 6.18215 17.3578Z" fill="#E2751B"/>
<path d="M5.86282 17.3578H7.87445C8.13827 17.3578 8.34713 17.0907 8.34713 16.7609C8.34713 16.4311 8.13827 16.1641 7.87445 16.1641H5.86282C5.599 16.1641 5.39014 16.4311 5.39014 16.7609C5.39014 17.0907 5.599 17.3578 5.86282 17.3578Z" fill="#EE9849"/>
<path d="M5.55502 16.3203C5.55502 16.3203 5.52205 16.4617 5.52205 16.5559C5.52205 16.8857 5.73091 17.1528 5.99473 17.1528H8.00636C8.12728 17.1528 8.2372 17.0899 8.31415 17.0114C8.2482 17.2313 8.07232 17.3726 7.87445 17.3726H5.86282C5.599 17.3726 5.39014 17.1056 5.39014 16.7758C5.39014 16.603 5.45609 16.4303 5.55502 16.3203Z" fill="#E2751B"/>
<path d="M6.04983 16.1624H8.06146C8.32528 16.1624 8.53414 15.8954 8.53414 15.5656C8.53414 15.2358 8.32528 14.9688 8.06146 14.9688H6.04983C5.78601 14.9688 5.57715 15.2358 5.57715 15.5656C5.57715 15.8954 5.78601 16.1624 6.04983 16.1624Z" fill="#E2751B"/>
<path d="M5.74221 19.7581H7.99568C8.2595 19.7581 8.46836 19.4911 8.46836 19.1613C8.46836 18.8315 8.2595 18.5645 7.99568 18.5645H5.74221C5.47839 18.5645 5.26953 18.8315 5.26953 19.1613C5.26953 19.4911 5.47839 19.7581 5.74221 19.7581Z" fill="#EE9849"/>
<path d="M5.47839 18.6611C5.44541 18.7397 5.42343 18.8496 5.42343 18.9596C5.42343 19.2894 5.63229 19.5564 5.89611 19.5564H8.14958C8.24851 19.5564 8.33645 19.525 8.4134 19.4622C8.33645 19.6506 8.18255 19.7763 7.99568 19.7763H5.74221C5.47839 19.7763 5.26953 19.5093 5.26953 19.1794C5.26953 18.9753 5.35747 18.7868 5.47839 18.6768V18.6611Z" fill="#E2751B"/>
<path d="M5.74221 18.5648H7.99568C8.2595 18.5648 8.46836 18.2978 8.46836 17.9679C8.46836 17.6381 8.2595 17.3711 7.99568 17.3711H5.74221C5.47839 17.3711 5.26953 17.6381 5.26953 17.9679C5.26953 18.2978 5.47839 18.5648 5.74221 18.5648Z" fill="#EE9849"/>
<path d="M5.48938 17.4512C5.44541 17.5454 5.42343 17.6396 5.42343 17.7496C5.42343 18.0794 5.63229 18.3464 5.89611 18.3464H8.14958C8.24851 18.3464 8.33645 18.315 8.4024 18.2522C8.32546 18.425 8.17156 18.5506 7.99568 18.5506H5.74221C5.47839 18.5506 5.26953 18.2836 5.26953 17.9538C5.26953 17.7496 5.35747 17.5611 5.48938 17.4512Z" fill="#E2751B"/>
<path d="M5.72073 16.1624H7.49052C7.75435 16.1624 7.9632 15.8954 7.9632 15.5656C7.9632 15.2358 7.75435 14.9688 7.49052 14.9688H5.72073C5.4569 14.9688 5.24805 15.2358 5.24805 15.5656C5.24805 15.8954 5.4569 16.1624 5.72073 16.1624Z" fill="#EE9849"/>
<path d="M5.4017 15.1104C5.4017 15.1104 5.35773 15.2674 5.35773 15.3459C5.35773 15.6758 5.56659 15.9428 5.83041 15.9428H7.60021C7.72113 15.9428 7.83106 15.88 7.908 15.8014C7.83106 16.0056 7.66617 16.1627 7.47929 16.1627H5.7095C5.44567 16.1627 5.23682 15.8957 5.23682 15.5658C5.23682 15.3931 5.30277 15.2203 5.4017 15.1104Z" fill="#E2751B"/>
<path d="M5.7532 14.9701H7.50102L7.2262 14.1376C7.14926 13.9177 6.98437 13.7764 6.7865 13.7764H5.74221C5.47839 13.7764 5.26953 14.0434 5.26953 14.3732C5.26953 14.703 5.47839 14.9701 5.74221 14.9701H5.7532Z" fill="#EE9849"/>
<path d="M5.41242 13.9648C5.41242 13.9648 5.39044 14.1219 5.40143 14.2004C5.43441 14.4989 5.64327 14.7188 5.8851 14.7188H7.2152C7.34711 14.7188 7.45703 14.813 7.512 14.9701H5.76418C5.50036 14.9701 5.2915 14.703 5.2915 14.3732C5.2915 14.2161 5.33547 14.0748 5.42341 13.9648H5.41242Z" fill="#E2751B"/>
<path d="M7.39165 13.79C7.7654 13.79 8.07319 14.167 8.07319 14.6382V14.968H7.51257L7.45761 14.4026C7.45761 14.4026 7.44662 14.3084 7.42463 14.2769L7.40265 14.2298C7.40265 14.2298 7.36967 14.1356 7.38066 14.0885V13.8057L7.39165 13.79Z" fill="#E2751B"/>
<path d="M7.99558 19.7594C7.36901 19.4139 6.74243 18.6914 6.66549 18.5814C6.56655 18.4244 5.66517 15.8485 5.84105 15.0475C5.84105 15.0161 5.85204 14.9846 5.86303 14.9532C6.04991 14.3093 6.78641 14.3407 6.91832 15.0161C6.91832 15.0161 6.91832 15.0318 6.91832 15.0475C6.97328 15.3616 7.18214 17.8275 7.30305 18.0317C7.42397 18.2359 8.35834 19.0526 8.35834 19.0526C8.49025 19.3824 8.31437 19.7594 8.02856 19.7594H7.9736H7.99558Z" fill="#E2751B"/>
<path d="M8.79794 21.1426C8.79794 21.1426 8.75397 19.9489 9.4355 19.2264C9.79826 18.8652 11.3702 19.0537 11.5021 17.593C11.5021 17.593 11.667 17.483 11.8099 17.5144C11.8099 17.5144 11.8099 18.5982 10.9195 19.0694C10.0291 19.5406 9.82024 19.1636 9.49047 19.729C9.16069 20.2945 9.10573 21.0327 9.10573 21.0327L8.79794 21.1583V21.1426Z" fill="#35488B"/>
<path d="M9.18254 19.2735C9.18254 19.2735 9.62224 19.2735 9.66621 19.3678C9.71018 19.462 9.63323 19.8232 9.3914 19.8232C9.13857 19.8232 8.88574 19.5405 8.88574 19.5405L9.18254 19.2578V19.2735Z" fill="#FFB07B"/>
<path d="M6.92937 14.8119C6.7425 14.1365 5.97302 14.1837 5.83012 14.8747C5.83012 14.9062 5.81912 14.9376 5.80813 14.9847C5.67622 15.8485 6.79746 18.3773 6.91838 18.5343C7.0393 18.6914 8.25947 19.8537 9.05093 19.7123C9.05093 19.7123 9.34773 19.461 9.28177 19.2254C9.28177 19.2254 7.68786 18.0789 7.54495 17.8747C7.41304 17.6862 7.00632 15.1575 6.92937 14.8433C6.92937 14.8433 6.92937 14.8276 6.92937 14.8119Z" fill="#B64C41"/>
<path d="M10.6004 19.2895L11.216 18.9439L11.0401 18.457L10.4355 18.8183L10.6004 19.2895Z" fill="#95BEF9"/>
<path d="M0.817455 33L55.934 33C55.9705 33 56 32.9578 56 32.9058C56 32.8537 55.9705 32.8115 55.934 32.8115L0.817455 32.8115C0.781029 32.8115 0.751503 32.8537 0.751503 32.9058C0.751503 32.9578 0.781029 33 0.817455 33Z" fill="#2E3552"/>
</g>
<defs>
<clipPath id="clip0_1830_10208">
<rect width="56" height="33" fill="white"/>
</clipPath>
</defs>
</svg>
