<svg width="56" height="33" viewBox="0 0 56 33" fill="none" xmlns="http://www.w3.org/2000/svg">
<g clip-path="url(#clip0_1830_9562)">
<path d="M52.7398 32.9204C49.5398 32.9204 2.90985 32.9304 2.88985 32.8504V32.8304C2.86985 32.7904 -4.29016 21.7404 6.84984 14.0504C11.2098 11.0404 6.57984 9.0504 10.0398 5.7104C14.0198 1.8604 18.3698 6.1204 22.7998 4.3704C23.5798 4.0604 24.3698 3.5704 25.1498 2.8004C25.5898 2.3704 26.0798 2.0004 26.5998 1.6704C26.6798 1.6204 26.7598 1.5704 26.8398 1.5204C27.1498 1.3404 27.4698 1.1804 27.8098 1.0304C28.0298 0.930403 28.2598 0.840403 28.4898 0.760403C28.8598 0.630403 29.2298 0.510403 29.6198 0.420403C30.1698 0.280403 30.7298 0.180403 31.3098 0.110403C31.5598 0.0804034 31.8098 0.0604034 32.0698 0.0404034C37.0198 -0.309597 42.5898 1.6504 45.4598 4.5204C46.0398 5.1004 48.6698 8.0804 46.5998 12.1904C45.2898 14.7804 50.7798 17.2604 52.7298 20.2204C57.6898 27.7404 52.8098 32.8304 52.7598 32.9304L52.7398 32.9204Z" fill="#FFE8D9"/>
<path d="M29.3301 16.4105L26.4801 17.0805L25.8701 13.9005L28.7201 13.2305L29.3301 16.4105Z" fill="#D9E8FE"/>
<path d="M28.9199 18.0999L26.1899 16.9699L27.1999 13.9199L29.9399 15.0499L28.9199 18.0999Z" fill="#F5FBFF"/>
<path d="M26.9899 8.7398C26.9899 7.5303 26.0094 6.5498 24.7999 6.5498C23.5904 6.5498 22.6099 7.5303 22.6099 8.7398V9.4498C22.6099 10.6593 23.5904 11.6398 24.7999 11.6398C26.0094 11.6398 26.9899 10.6593 26.9899 9.4498V8.7398Z" fill="#8FADEF"/>
<path d="M26.79 8.76953C26.79 7.66496 25.8946 6.76953 24.79 6.76953C23.6855 6.76953 22.79 7.66496 22.79 8.76953V9.41953C22.79 10.5241 23.6855 11.4195 24.79 11.4195C25.8946 11.4195 26.79 10.5241 26.79 9.41953V8.76953Z" fill="#DFEBFD"/>
<path d="M24.6997 7.23012C24.6997 7.17012 24.7397 7.12012 24.7897 7.12012C24.8397 7.12012 24.8797 7.17012 24.8797 7.23012C24.8797 7.29012 24.8397 7.34012 24.7897 7.34012C24.7397 7.34012 24.6997 7.29012 24.6997 7.23012Z" fill="#8FADEF"/>
<path d="M25.4297 7.38027C25.4497 7.33027 25.5097 7.31027 25.5497 7.34027C25.5897 7.37027 25.6097 7.44027 25.5897 7.49027C25.5697 7.54027 25.5097 7.56027 25.4697 7.53027C25.4297 7.50027 25.4097 7.43027 25.4297 7.38027Z" fill="#8FADEF"/>
<path d="M26.0596 7.98051C26.0596 7.98051 26.1596 7.96051 26.1896 8.01051C26.2196 8.06051 26.2096 8.13051 26.1596 8.16051C26.1196 8.19051 26.0596 8.18051 26.0296 8.13051C25.9996 8.08051 26.0096 8.01051 26.0596 7.98051Z" fill="#8FADEF"/>
<path d="M26.3698 8.90039C26.4198 8.90039 26.4598 8.95039 26.4598 9.01039C26.4598 9.07039 26.4198 9.12039 26.3698 9.12039C26.3198 9.12039 26.2798 9.07039 26.2798 9.01039C26.2798 8.95039 26.3198 8.90039 26.3698 8.90039Z" fill="#8FADEF"/>
<path d="M26.2098 9.97043C26.2098 9.97043 26.2498 10.0804 26.2098 10.1204C26.1698 10.1604 26.1198 10.1604 26.0798 10.1204C26.0398 10.0804 26.0398 10.0104 26.0798 9.97043C26.1198 9.93043 26.1698 9.93043 26.2098 9.97043Z" fill="#8FADEF"/>
<path d="M25.6395 10.6599C25.6395 10.6599 25.6795 10.7699 25.6395 10.8099C25.5995 10.8499 25.5495 10.8499 25.5095 10.8099C25.4695 10.7699 25.4695 10.6999 25.5095 10.6599C25.5495 10.6199 25.5995 10.6199 25.6395 10.6599Z" fill="#8FADEF"/>
<path d="M24.6997 11.0104C24.6997 10.9504 24.7397 10.9004 24.7897 10.9004C24.8397 10.9004 24.8797 10.9504 24.8797 11.0104C24.8797 11.0704 24.8397 11.1204 24.7897 11.1204C24.7397 11.1204 24.6997 11.0704 24.6997 11.0104Z" fill="#8FADEF"/>
<path d="M24.1498 7.38027C24.1298 7.33027 24.0698 7.31027 24.0298 7.34027C23.9898 7.37027 23.9698 7.44027 23.9898 7.49027C24.0098 7.54027 24.0698 7.56027 24.1098 7.53027C24.1498 7.50027 24.1698 7.43027 24.1498 7.38027Z" fill="#8FADEF"/>
<path d="M23.5194 7.98051C23.5194 7.98051 23.4194 7.96051 23.3894 8.01051C23.3594 8.06051 23.3694 8.13051 23.4194 8.16051C23.4594 8.19051 23.5194 8.18051 23.5494 8.13051C23.5794 8.08051 23.5694 8.01051 23.5194 7.98051Z" fill="#8FADEF"/>
<path d="M23.2096 8.90039C23.1596 8.90039 23.1196 8.95039 23.1196 9.01039C23.1196 9.07039 23.1596 9.12039 23.2096 9.12039C23.2596 9.12039 23.2996 9.07039 23.2996 9.01039C23.2996 8.95039 23.2596 8.90039 23.2096 8.90039Z" fill="#8FADEF"/>
<path d="M23.3698 9.97043C23.3698 9.97043 23.3298 10.0804 23.3698 10.1204C23.4098 10.1604 23.4598 10.1604 23.4998 10.1204C23.5398 10.0804 23.5398 10.0104 23.4998 9.97043C23.4598 9.93043 23.4098 9.93043 23.3698 9.97043Z" fill="#8FADEF"/>
<path d="M23.9397 10.6599C23.9397 10.6599 23.8997 10.7699 23.9397 10.8099C23.9797 10.8499 24.0297 10.8499 24.0697 10.8099C24.1097 10.7699 24.1097 10.6999 24.0697 10.6599C24.0297 10.6199 23.9797 10.6199 23.9397 10.6599Z" fill="#8FADEF"/>
<path d="M24.77 9.01039C24.77 8.95039 24.81 8.90039 24.86 8.90039C24.91 8.90039 24.95 8.95039 24.95 9.01039C24.95 9.07039 24.91 9.12039 24.86 9.12039C24.81 9.12039 24.77 9.07039 24.77 9.01039Z" fill="#8FADEF"/>
<path d="M24.8701 7.66016H24.8501V9.02016H24.8701V7.66016Z" fill="#8FADEF"/>
<path d="M24.8701 9.05016L24.8301 8.98016L25.4301 8.41016L25.4701 8.48016L24.8701 9.05016Z" fill="#8FADEF"/>
<path d="M33.8598 5.33982L33.7398 5.26982C33.6098 5.18982 33.5598 5.00982 33.6298 4.86982L34.1798 3.73982C34.2498 3.59982 34.4098 3.53982 34.5398 3.61982L34.7098 3.72982C34.7098 3.72982 34.7398 3.77982 34.7298 3.80982C34.7198 3.83982 34.6798 3.84982 34.6598 3.82982L34.4898 3.71982C34.4098 3.66982 34.3098 3.69982 34.2698 3.78982L33.7198 4.91982C33.6798 5.00982 33.7098 5.11982 33.7798 5.16982L33.8998 5.23982C33.9798 5.28982 34.0798 5.25982 34.1198 5.16982L34.4898 4.41982C34.4898 4.41982 34.5398 4.37982 34.5598 4.39982C34.5898 4.41982 34.5898 4.44982 34.5798 4.47982L34.2098 5.22982C34.1398 5.36982 33.9798 5.42982 33.8498 5.34982L33.8598 5.33982Z" fill="#9FC1F4"/>
<path d="M33.3498 6.53013L33.1298 6.40013C32.9298 6.28013 32.8598 5.98013 32.9798 5.74013L33.8098 4.05013C33.8098 4.05013 33.8598 4.01013 33.8798 4.03013C33.9098 4.05013 33.9098 4.08013 33.8998 4.11013L33.0698 5.80013C32.9798 5.98013 33.0298 6.21013 33.1798 6.30013L33.3998 6.43013C33.5498 6.52013 33.7498 6.45013 33.8398 6.26013L34.7898 4.33013C34.8798 4.15013 34.8298 3.92013 34.6798 3.83013C34.6498 3.81013 34.6498 3.78013 34.6598 3.75013C34.6698 3.72013 34.7098 3.71013 34.7298 3.73013C34.9298 3.85013 34.9998 4.15013 34.8798 4.39013L33.9298 6.32013C33.8098 6.56013 33.5498 6.65013 33.3498 6.53013Z" fill="#9FC1F4"/>
<path d="M42.3201 10.16L42.4201 10.05C42.5201 9.92996 42.6901 9.92996 42.8001 10.05L43.6301 10.94C43.7401 11.05 43.7401 11.24 43.6301 11.36L43.4901 11.52C43.4901 11.52 43.4401 11.54 43.4201 11.52C43.4001 11.5 43.4001 11.46 43.4201 11.44L43.5601 11.28C43.6201 11.21 43.6201 11.09 43.5601 11.02L42.7301 10.13C42.6701 10.06 42.5601 10.06 42.5001 10.13L42.4001 10.24C42.3401 10.31 42.3401 10.43 42.4001 10.5L42.9501 11.09C42.9501 11.09 42.9701 11.15 42.9501 11.17C42.9301 11.19 42.9001 11.19 42.8801 11.17L42.3301 10.58C42.2201 10.47 42.2201 10.28 42.3301 10.16H42.3201Z" fill="#F9703E"/>
<path d="M41.4298 9.2996L41.5998 9.0996C41.7598 8.9196 42.0298 8.9196 42.2098 9.1096L43.4598 10.4496C43.4598 10.4496 43.4798 10.5096 43.4598 10.5296C43.4398 10.5496 43.4098 10.5496 43.3898 10.5296L42.1398 9.1896C42.0098 9.0396 41.7998 9.0396 41.6798 9.1796L41.5098 9.3796C41.3898 9.5196 41.3998 9.7496 41.5398 9.8896L42.9598 11.4196C43.0898 11.5696 43.2998 11.5696 43.4198 11.4296C43.4398 11.4096 43.4698 11.4096 43.4898 11.4296C43.5098 11.4496 43.5098 11.4896 43.4898 11.5096C43.3298 11.6896 43.0598 11.6896 42.8798 11.4996L41.4598 9.9696C41.2798 9.7796 41.2698 9.4796 41.4298 9.2896V9.2996Z" fill="#F35627"/>
<path d="M23.43 21.3905C23.43 21.3905 23.26 18.2505 22.77 17.2705H25.33V21.3805H23.43V21.3905Z" fill="#D9E8FE"/>
<path d="M24.7098 21.3905C24.7098 21.3905 24.5398 18.2505 24.0498 17.2705H26.6098V21.3805H24.7098V21.3905Z" fill="#BBC9F9"/>
<path d="M28.1602 15.5801H25.6802V24.4901H28.1602V15.5801Z" fill="#35488B"/>
<path d="M34.1204 15.5801H28.1504V24.4901H34.1204V15.5801Z" fill="#2C3A64"/>
<path d="M26.91 17.1602C27.1364 17.1602 27.32 16.9543 27.32 16.7002C27.32 16.4462 27.1364 16.2402 26.91 16.2402C26.6836 16.2402 26.5 16.4462 26.5 16.7002C26.5 16.9543 26.6836 17.1602 26.91 17.1602Z" fill="#DDE7FE"/>
<path d="M26.9101 17.0301C27.0703 17.0301 27.2001 16.8824 27.2001 16.7001C27.2001 16.5179 27.0703 16.3701 26.9101 16.3701C26.75 16.3701 26.6201 16.5179 26.6201 16.7001C26.6201 16.8824 26.75 17.0301 26.9101 17.0301Z" fill="#6C7AFF"/>
<path d="M27.5003 17.8105H26.3403V20.1605H27.5003V17.8105Z" fill="#8FADEF"/>
<path d="M34.7002 19.6709H29.9502V21.3809H34.7002V19.6709Z" fill="#CDE2FC"/>
<path d="M39.4502 19.6709H34.7002V21.3809H39.4502V19.6709Z" fill="#A4C8F4"/>
<path d="M31.1402 20.5107H29.9502V20.5507H31.1402V20.5107Z" fill="#8FADEF"/>
<path d="M34.7102 19.9805H31.4302V20.0205H34.7102V19.9805Z" fill="#8FADEF"/>
<path d="M32.0502 20.9707H29.9502V21.0107H32.0502V20.9707Z" fill="#8FADEF"/>
<path d="M33.23 17.96H28.48V19.67H33.23V17.96Z" fill="#D9E8FE"/>
<path d="M37.98 17.96H33.23V19.67H37.98V17.96Z" fill="#BBC9F9"/>
<path d="M29.67 18.8008H28.48V18.8408H29.67V18.8008Z" fill="#8FADEF"/>
<path d="M33.24 18.2705H29.96V18.3105H33.24V18.2705Z" fill="#8FADEF"/>
<path d="M30.58 19.2607H28.48V19.3007H30.58V19.2607Z" fill="#8FADEF"/>
<path opacity="0.5" d="M35.8901 13.1406H31.1401V14.8506H35.8901V13.1406Z" fill="#BDD8FF"/>
<path d="M40.6401 13.1406H35.8901V14.8506H40.6401V13.1406Z" fill="#A4C8F4"/>
<path d="M32.3301 13.9805H31.1401V14.0205H32.3301V13.9805Z" fill="#8FADEF"/>
<path d="M35.8899 13.46H32.6099V13.5H35.8899V13.46Z" fill="#8FADEF"/>
<path d="M33.2401 14.4209H31.1401V14.4609H33.2401V14.4209Z" fill="#8FADEF"/>
<path d="M34.4102 11.4404H29.6602V13.1504H34.4102V11.4404Z" fill="#F5FBFF"/>
<path d="M39.1699 11.4404H34.4199V13.1504H39.1699V11.4404Z" fill="#BDD8FF"/>
<path d="M30.8502 12.2705H29.6602V12.3105H30.8502V12.2705Z" fill="#8FADEF"/>
<path d="M35.3599 12.2705H34.1699V12.3105H35.3599V12.2705Z" fill="#8FADEF"/>
<path d="M37.01 11.75H33.73V11.79H37.01V11.75Z" fill="#8FADEF"/>
<path d="M31.7602 12.7305H29.6602V12.7705H31.7602V12.7305Z" fill="#8FADEF"/>
<path d="M35.02 17.9707H39.77V14.8607H35.02V17.9707Z" fill="#BDD8FF"/>
<path d="M30.2603 17.9707H35.0103V14.8607H30.2603V17.9707Z" fill="#F5FBFF"/>
<path d="M39.7701 16.3809H38.5801V16.4309H39.7701V16.3809Z" fill="#8FADEF"/>
<path d="M38.2903 15.4404H31.7603V15.4704H38.2903V15.4404Z" fill="#35488B"/>
<path d="M39.7699 17.2207H37.6699V17.2707H39.7699V17.2207Z" fill="#8FADEF"/>
<path d="M35.8901 15.9902H33.6401V16.0202H35.8901V15.9902Z" fill="#35488B"/>
<path d="M41.8201 21.3906H27.8301V32.9306H41.8201V21.3906Z" fill="#E66A6A"/>
<path d="M34.32 21.3906H23.23V32.9306H34.32V21.3906Z" fill="#F29B9B"/>
<path d="M29.5199 22.501H26.7599C26.55 22.501 26.3799 22.6711 26.3799 22.881V22.891C26.3799 23.1008 26.55 23.271 26.7599 23.271H29.5199C29.7298 23.271 29.8999 23.1008 29.8999 22.891V22.881C29.8999 22.6711 29.7298 22.501 29.5199 22.501Z" fill="#2C3A64"/>
<path d="M29.85 28.4808L27.23 27.9708L27.69 25.0508L30.31 25.5608L29.85 28.4808Z" fill="#9FC1F4"/>
<path d="M30.2401 26.0308L27.6201 25.5208L27.6901 25.0508L30.3101 25.5608L30.2401 26.0308Z" fill="#8FADEF"/>
<path d="M33.6699 25.5604L31.0999 26.3104L30.4199 23.4404L32.9999 22.6904L33.6699 25.5604Z" fill="#FFB93E"/>
<path d="M33.1099 23.1504L30.5299 23.9004L30.4199 23.4404L32.9999 22.6904L33.1099 23.1504Z" fill="#FFA412"/>
<path d="M23.2903 18.1803C23.2203 17.7403 23.0103 17.2803 23.0103 17.2803H23.0303C23.0303 17.2803 23.2403 17.7303 23.3103 18.1803H23.2903Z" fill="#8FADEF"/>
<path d="M23.9202 19.3003C23.7702 18.1003 23.4602 17.2803 23.4502 17.2803H23.4702C23.4702 17.2803 23.7902 18.1003 23.9402 19.3003H23.9202Z" fill="#8FADEF"/>
<path d="M50.56 24.2305H40.02V32.9205H50.56V24.2305Z" fill="#8FADEF"/>
<path d="M44.9103 24.2305H36.5503V32.9205H44.9103V24.2305Z" fill="#9FC1F4"/>
<path d="M41.2902 25.0703H39.2202C39.06 25.0703 38.9302 25.2002 38.9302 25.3603C38.9302 25.5205 39.06 25.6503 39.2202 25.6503H41.2902C41.4503 25.6503 41.5802 25.5205 41.5802 25.3603C41.5802 25.2002 41.4503 25.0703 41.2902 25.0703Z" fill="#1A338A"/>
<path d="M44.9101 22.75H36.1401V24.66H44.9101V22.75Z" fill="#BDD8FF"/>
<path d="M50.8202 22.75H44.9102V24.66H50.8202V22.75Z" fill="#7DA4EA"/>
<path d="M44.5004 29.03L41.8204 29.82L41.1104 26.83L43.7904 26.04L44.5004 29.03Z" fill="#FF8C64"/>
<path d="M43.9104 26.52L41.2304 27.31L41.1104 26.83L43.7904 26.04L43.9104 26.52Z" fill="#F77D48"/>
<path d="M41.9697 18.8501L44.1697 16.8701L47.4297 17.3201V18.8501H41.9697Z" fill="#F77D48"/>
<path d="M44.1699 18.8601V16.8701H38.7099V18.8601H44.1699Z" fill="#FF8C64"/>
<path d="M43.49 17.5498C43.65 17.5498 43.77 17.6898 43.77 17.8698C43.77 18.0498 43.64 18.1898 43.49 18.1898C43.34 18.1898 43.21 18.0498 43.21 17.8698C43.21 17.6898 43.34 17.5498 43.49 17.5498Z" fill="#DDE7FE"/>
<path d="M43.4901 17.6904C43.5801 17.6904 43.6501 17.7704 43.6501 17.8704C43.6501 17.9704 43.5801 18.0504 43.4901 18.0504C43.4001 18.0504 43.3301 17.9704 43.3301 17.8704C43.3301 17.7704 43.4001 17.6904 43.4901 17.6904Z" fill="#0B0755"/>
<path d="M42.8101 18.3197V17.4297H41.1201V18.3197H42.8101Z" fill="#BDD8FF"/>
<path d="M44.45 20.7998H39.04V22.7498H44.45V20.7998Z" fill="#DDE7FE"/>
<path d="M49.8602 20.7998H44.4502V22.7498H49.8602V20.7998Z" fill="#B5C6E8"/>
<path d="M40.39 21.75H39.04V21.79H40.39V21.75Z" fill="#35488B"/>
<path d="M44.4502 21.1602H40.7202V21.2002H44.4502V21.1602Z" fill="#35488B"/>
<path d="M41.43 22.2803H39.04V22.3203H41.43V22.2803Z" fill="#35488B"/>
<path d="M42.7704 18.8604H37.3604V20.8104H42.7704V18.8604Z" fill="#E9F0FF"/>
<path d="M48.1805 18.8604H42.7705V20.8104H48.1805V18.8604Z" fill="#BBC9F9"/>
<path d="M38.7104 19.8105H37.3604V19.8505H38.7104V19.8105Z" fill="#8FADEF"/>
<path d="M42.7705 19.21H39.0405V19.25H42.7705V19.21Z" fill="#8FADEF"/>
<path d="M39.7504 20.3301H37.3604V20.3701H39.7504V20.3301Z" fill="#8FADEF"/>
<path d="M9.19023 13.7199C9.09023 13.7199 9.03023 13.6899 8.99023 13.6399C8.97023 13.5999 8.96023 13.5499 8.97023 13.4899C9.07023 12.9099 10.7702 11.2599 13.0302 9.56992C15.2302 7.91992 17.6702 6.46992 17.9402 6.91992C17.9602 6.95992 17.9702 7.00992 17.9602 7.06992C17.8602 7.64992 16.1602 9.29992 13.9002 10.9899C11.9702 12.4399 9.86023 13.7199 9.18023 13.7199H9.19023ZM9.03023 13.6099C9.13023 13.7799 9.72023 13.5899 10.6002 13.0999C11.5202 12.5999 12.6802 11.8299 13.8702 10.9399C16.0802 9.27992 17.8102 7.60992 17.9102 7.05992C17.9102 7.01992 17.9102 6.97992 17.9002 6.94992C17.8002 6.77992 17.2102 6.96992 16.3302 7.45992C15.4102 7.95992 14.2502 8.72992 13.0602 9.61992C10.8502 11.2799 9.12023 12.9499 9.02023 13.4999C9.02023 13.5399 9.02023 13.5799 9.03023 13.6099Z" fill="#F99746"/>
<path d="M21.6399 22.37C20.1099 21.82 10.3299 26.52 10.3299 26.52C10.3299 26.52 8.73992 27.78 10.2599 30.42C11.5199 32.61 21.0199 25.91 21.1899 26.76C21.5999 28.77 25.0999 32.62 25.0999 32.62C25.6799 32.83 26.9899 31.96 26.9899 31.96C25.6199 29.64 22.8699 22.81 21.6399 22.37Z" fill="#2C3A64"/>
<path d="M16.6601 14.9705C16.6601 14.9705 16.4501 14.5905 16.4101 14.2105C16.3801 13.8305 16.4301 12.7505 16.1901 12.4905C15.9501 12.2405 15.1801 11.6105 14.9001 11.7505C14.6201 11.8805 15.5301 12.5105 15.5601 12.8205C15.5901 13.1405 15.5701 13.1705 15.4601 13.1905C15.3501 13.2105 15.0001 12.7505 15.0001 12.8905C15.0001 13.0405 15.3401 13.8505 15.5101 14.0105C15.6801 14.1705 15.9301 15.4205 15.9301 15.4205L16.6501 14.9505L16.6601 14.9705Z" fill="#ED975D"/>
<path d="M16.7205 14C16.7205 14 15.8105 14 15.6605 14.82C15.6605 14.82 15.7105 17.59 16.0305 20.06C14.0805 18 14.8005 18.03 13.2105 16.69C12.5605 16.15 11.9805 18.02 12.0005 19.35C12.0205 20.68 16.1605 23.71 17.2305 23.33C18.3905 22.93 18.6205 20.03 16.7205 14Z" fill="#8FADEF"/>
<path d="M33.34 32.8199C33.34 32.8199 33.37 32.7699 33.38 32.7699L35.22 29.3299C35.28 29.2299 35.22 29.0899 35.12 29.0599C34.9 29.0099 34.59 29.0599 34.39 29.3599C34.02 29.8899 33.23 30.7199 32.45 30.5399C32.43 30.5399 32.4 30.5299 32.37 30.5199C31.57 30.2699 31.87 32.1399 31.87 32.1399C31.87 32.1399 31.9 32.1599 31.94 32.1999C32.19 32.3899 33.1 33.0099 33.33 32.8299L33.34 32.8199Z" fill="#1F2933"/>
<path d="M8.58992 27.5905C8.58992 27.5905 17.1099 27.1705 20.3999 28.1205C20.3999 28.1205 23.6699 30.6905 20.9399 31.5405C19.8799 31.8705 16.2399 32.8405 14.2799 32.8405C11.0499 32.8405 7.95992 32.8605 7.95992 32.8605C7.45992 32.6205 7.37992 30.9705 7.29992 30.5305C6.73992 27.4505 8.58992 27.5805 8.58992 27.5805V27.5905Z" fill="#35488B"/>
<path d="M20.1903 28.0705C20.1903 28.0705 29.1203 29.9605 32.5803 30.5605C32.5803 30.5605 32.2003 32.1805 31.6403 32.5405C31.6403 32.5405 29.5803 32.6905 27.5203 32.8405C24.9703 33.0305 22.4603 32.6805 20.9403 31.9905C17.4903 30.4505 20.1903 28.0605 20.1903 28.0605V28.0705Z" fill="#35488B"/>
<path d="M13.5004 19.12C11.9304 19.04 9.88037 16.34 9.88037 16.34C9.88037 16.34 11.0404 15.95 11.8104 14.48C11.9604 14.19 12.0904 13.87 12.2004 13.5L12.7204 14.47L13.4904 15.89C13.4904 15.89 13.4204 16.1 13.2604 16.46C13.2104 16.58 13.1504 16.72 13.0704 16.88C12.9804 17.07 12.8804 17.28 12.7704 17.5C13.2504 18.12 13.4904 19.12 13.4904 19.12H13.5004Z" fill="#FFB27D"/>
<path d="M13.4903 15.8907C13.4903 15.8907 13.4203 16.1006 13.2603 16.4606C12.1503 15.6206 12.0503 14.4107 12.0503 14.4107C12.0503 14.4107 12.1403 14.4007 12.7103 14.4707L13.4803 15.8907H13.4903Z" fill="#ED975D"/>
<path d="M13.9403 16.1903C13.9403 16.1903 11.5703 15.2703 12.1103 13.6303C12.6503 11.9903 12.7003 10.7703 14.2403 11.2903C15.7803 11.8103 15.8603 12.5503 15.8003 13.1503C15.7403 13.7503 14.5703 16.3903 13.9403 16.1903Z" fill="#FFB27D"/>
<path d="M11.6799 10.6507C11.6799 10.6507 11.6099 10.5807 11.4999 10.5407C11.4999 10.5407 11.6099 10.4907 11.7399 10.5207C11.7999 10.3407 11.9499 10.0307 12.2499 10.0107C12.2499 10.0107 12.0799 10.0707 12.0199 10.2607C12.4199 9.95074 13.1799 9.84074 15.0999 10.4707C17.6299 11.3007 16.4299 12.9707 16.0599 13.1107C15.6899 13.2607 14.9599 12.4507 14.3299 12.3607C13.6999 12.2707 13.3899 13.2607 13.1499 13.3507C12.9099 13.4407 13.0399 13.2107 12.7799 13.0007C12.5199 12.7907 12.3999 13.3207 12.4099 13.6807C12.4199 14.0407 11.8699 14.3607 11.8699 14.3607C11.8699 14.3607 11.8099 14.1407 11.6499 13.8407C11.3399 13.2707 11.3499 11.1307 11.6099 10.7407C11.6299 10.7107 11.6599 10.6707 11.6799 10.6307V10.6507Z" fill="#1F2933"/>
<path d="M14.1602 20.9C13.9802 26.03 12.4402 25.24 13.2402 26.76C13.7502 27.73 12.6802 28.49 11.5102 29.48C11.4802 29.51 11.4402 29.54 11.4102 29.57C11.0702 29.86 10.7202 30.14 10.3602 30.39C9.81015 30.78 9.25016 31.12 8.77016 31.32C8.28016 31.53 7.86015 31.61 7.59015 31.48C7.59015 31.48 7.57015 31.48 7.57015 31.47C7.34015 31.34 7.15015 31 6.99015 30.53C6.71015 29.7 6.39015 26.42 6.30015 25.44C6.28015 25.26 6.27015 25.16 6.27015 25.16C5.75015 18.01 11.0702 15.5 11.0702 15.5C11.0702 15.5 11.5402 17.05 13.0402 16.96C13.0402 16.96 14.2402 18.72 14.1602 20.9Z" fill="#9FC1F4"/>
<path d="M11.5103 29.4805C11.5103 29.4805 11.4403 29.5405 11.4103 29.5705C11.0703 29.8605 10.7203 30.1405 10.3603 30.3905C9.81029 30.7805 9.25029 31.1205 8.77029 31.3205C8.24029 31.4905 7.80029 31.5605 7.59029 31.4805C7.59029 31.4805 7.57029 31.4805 7.57029 31.4705C7.34029 31.3405 7.15029 31.0005 6.99029 30.5305C6.71029 29.7005 6.39029 26.4205 6.30029 25.4405C6.95029 23.3405 7.85029 20.9805 8.85029 19.9205C10.8103 17.8305 11.4103 21.0105 11.4103 21.0105C11.4103 21.0105 9.89029 25.1905 11.5103 29.4805Z" fill="#8FADEF"/>
<path d="M9.50017 18.0004C8.72017 20.1604 7.11017 24.3204 7.68017 26.3504C7.68017 26.3504 10.0102 27.0404 10.0802 26.2304C10.4602 21.7404 13.9202 16.8204 11.2502 16.9204C10.5002 16.9504 9.79017 17.2304 9.51017 18.0004H9.50017Z" fill="#9FC1F4"/>
<path d="M12.8501 17.22C12.8501 17.22 14.7101 23.48 13.6301 29.51L12.0301 30.12L11.6401 28.85C11.6401 28.85 13.7101 22.95 12.5901 17.28L12.8501 17.21V17.22Z" fill="#F9703E"/>
<path d="M9.43016 31.3906C9.43016 31.3906 10.0402 32.3106 10.7802 32.1806C11.5202 32.0506 11.8002 32.2906 12.1302 32.4906C12.4602 32.6906 12.5502 32.7906 12.4302 32.8406C12.3402 32.8806 10.7202 32.8606 9.92016 32.8406C9.66016 32.8406 8.91016 32.0606 8.91016 32.0606L9.43016 31.3906Z" fill="#FFB27D"/>
<path d="M7.59015 25.7598C7.48015 29.1398 8.52015 31.4398 8.80015 32.6198C8.80015 32.6198 9.14014 32.7998 9.41014 32.6998C9.99014 32.4898 9.99014 31.9698 9.99014 31.9698C9.99014 31.9698 10.0101 27.7698 10.0801 26.2298C10.1501 24.7298 7.61015 25.0598 7.59015 25.7598Z" fill="#9FC1F4"/>
<path d="M11.4102 15.1104C11.4102 15.1104 10.9102 15.2604 10.6602 15.7404C10.6602 15.7404 10.8502 16.6804 12.7502 17.2004L12.6802 16.9604C12.6802 16.9604 11.6002 16.3704 11.4102 15.1204V15.1104Z" fill="#F9703E"/>
<path d="M12.6903 16.9605C12.6903 16.9605 13.0803 16.8005 13.1603 16.7305C13.1603 16.7305 13.2603 16.9805 13.2203 17.1805C13.2203 17.1805 13.0903 17.2705 12.7703 17.2105C12.4403 17.1505 12.7003 16.9705 12.7003 16.9705L12.6903 16.9605Z" fill="#F9703E"/>
<path d="M12.8499 16.9506C12.8499 16.9506 12.4699 16.9106 12.4299 16.9706C12.3899 17.0206 12.6499 17.5206 12.7799 17.5006C12.9099 17.4806 12.9499 17.0106 12.8499 16.9506Z" fill="#F9703E"/>
<path d="M9.23027 13.7102C9.13027 13.7102 9.07027 13.6802 9.03027 13.6302L9.07027 13.6002C9.27027 13.9202 11.2603 12.9202 13.9203 10.9302C16.1303 9.27016 17.8603 7.60016 17.9603 7.05016C17.9603 7.01016 17.9603 6.97016 17.9503 6.94016L17.9903 6.91016C17.9903 6.91016 18.0203 7.00016 18.0103 7.06016C17.9103 7.64016 16.2103 9.29016 13.9503 10.9802C12.0203 12.4302 9.91027 13.7102 9.23027 13.7102Z" fill="#F99746"/>
<path d="M9.79011 12.0406C9.26011 12.0406 8.84011 12.0006 8.52011 11.9206C8.18011 11.8306 7.98011 11.7006 7.93011 11.5306C7.90011 11.4406 7.92011 11.3406 7.97011 11.2406C8.20011 10.8006 9.12011 10.3606 9.65011 10.1406C10.5701 9.75059 11.7801 9.38059 13.0501 9.10059C14.5101 8.78059 15.9101 8.60059 17.0101 8.60059C17.5401 8.60059 17.9801 8.64059 18.3001 8.72059C18.6401 8.81059 18.8401 8.94059 18.8901 9.11059C18.9201 9.20059 18.9001 9.30059 18.8501 9.40059C18.6201 9.84059 17.7001 10.2806 17.1701 10.5006C16.2501 10.8906 15.0401 11.2606 13.7701 11.5406C12.3101 11.8606 10.9101 12.0406 9.81011 12.0406C9.81011 12.0406 9.80011 12.0406 9.79011 12.0406ZM17.0401 8.67059C17.0401 8.67059 17.0301 8.67059 17.0201 8.67059C15.9301 8.67059 14.5201 8.85059 13.0701 9.17059C10.4901 9.74059 8.37011 10.6206 8.03011 11.2806C7.99011 11.3606 7.97011 11.4406 7.99011 11.5106C8.08011 11.8106 8.73011 11.9806 9.79011 11.9806C9.79011 11.9806 9.80011 11.9806 9.81011 11.9806C10.9001 11.9806 12.3101 11.8006 13.7601 11.4806C16.3401 10.9106 18.4601 10.0306 18.8001 9.37059C18.8401 9.29059 18.8601 9.21059 18.8401 9.14059C18.7501 8.84059 18.1001 8.67059 17.0401 8.67059Z" fill="#F99746"/>
<path d="M9.51035 10.0899L9.36035 10.2299L9.55035 10.2799L9.62035 10.4899L9.72035 10.2999L9.92035 10.2899L9.79035 10.1299L9.84035 9.91988L9.66035 9.99988L9.50035 9.87988L9.51035 10.0899Z" fill="#FFB93E"/>
<path d="M17.3803 7.79043L17.3103 7.99043L17.5003 7.92043L17.6603 8.05043L17.6503 7.84043L17.8103 7.71043L17.6303 7.65043L17.5703 7.44043L17.4603 7.62043L17.2603 7.61043L17.3803 7.79043Z" fill="#FFB93E"/>
<path d="M15.2699 6.30047L15.1899 6.50047L15.3799 6.45047L15.5199 6.60047L15.5399 6.38047L15.7099 6.28047L15.5299 6.19047L15.4899 5.98047L15.3599 6.14047L15.1699 6.11047L15.2699 6.30047Z" fill="#F99746"/>
<path d="M17.64 11.7399L17.56 11.9399L17.75 11.8899L17.89 12.0399L17.91 11.8299L18.08 11.7199L17.9 11.6299L17.87 11.4199L17.74 11.5799L17.54 11.5599L17.64 11.7399Z" fill="#F99746"/>
<path d="M10.0604 13.2102L9.90039 13.3302L10.0804 13.4002L10.1404 13.6102L10.2504 13.4302L10.4504 13.4402L10.3404 13.2602L10.4004 13.0602L10.2204 13.1202L10.0604 12.9902V13.2102Z" fill="#FFB93E"/>
<path d="M6.16016 12.2705L7.20016 12.6605L7.08016 12.1905L7.68016 12.3205L6.62016 11.7305L6.80016 12.2805L6.16016 12.2705Z" fill="#F99746"/>
<path d="M13.05 5.53027L12.98 7.40027L13.55 6.99027L13.64 8.04027L13.96 6.04027L13.32 6.58027L13.05 5.53027Z" fill="#F99746"/>
<path d="M35.3201 31.5797C35.3501 31.6597 35.4101 32.0897 35.5201 32.4397C35.5901 32.6497 35.6801 32.8397 35.8101 32.9197C36.1401 33.1197 36.7201 32.8497 36.7201 32.8497C36.7201 32.8497 37.6901 33.0397 37.7901 32.9897C37.8901 32.9497 38.0601 31.3197 38.0601 31.3197C38.0601 31.3197 37.3501 30.3897 37.2801 30.3697C37.2101 30.3397 36.6401 30.6297 36.5501 30.6297C36.4601 30.6297 35.9201 30.1897 35.7701 30.2797C35.6201 30.3697 35.2801 31.4597 35.3201 31.5897V31.5797Z" fill="white"/>
<path d="M36.5503 30.6194C36.5503 30.6194 36.7003 31.0594 36.7403 31.0994C36.7903 31.1394 37.2803 30.3694 37.2803 30.3694C37.2103 30.3394 36.6403 30.6294 36.5503 30.6294V30.6194Z" fill="#F2F7FE"/>
<path d="M35.7502 30.7002C35.7502 30.7002 36.4102 31.4602 36.3902 31.5202C36.3802 31.5902 35.6102 32.0202 35.5902 32.0002C35.5602 31.9802 35.7802 31.4502 35.7702 31.3602C35.7702 31.2702 35.7502 30.7002 35.7502 30.7002Z" fill="#F2F7FE"/>
<path d="M35.3201 31.5795C35.3501 31.6595 35.4101 32.0895 35.5201 32.4395L35.4801 31.6395L35.7701 30.2695C35.6201 30.3595 35.2801 31.4495 35.3201 31.5795Z" fill="#F2F7FE"/>
<path d="M36.7202 32.8493C36.7202 32.8493 37.6902 33.0393 37.7902 32.9893C37.8902 32.9493 38.0602 31.3193 38.0602 31.3193C38.0602 31.3193 37.8102 32.1393 37.8002 32.1893C37.8002 32.2293 37.5002 32.1193 37.5002 32.1193L36.7202 32.8493Z" fill="#F2F7FE"/>
<path d="M37.8102 31.3096L37.6802 31.7296L37.4502 31.7196L37.6302 31.5496L37.8102 31.3096Z" fill="#F2F7FE"/>
<path d="M40.7898 31.9504C40.8098 32.0004 40.8598 32.2904 40.9498 32.5404C41.0098 32.6904 41.0798 32.8104 41.1698 32.8704C41.4298 33.0104 41.8798 32.8304 41.8798 32.8304C41.8798 32.8304 42.6298 32.9704 42.7098 32.9404C42.7898 32.9104 42.9198 31.8104 42.9198 31.8104C42.9198 31.8104 42.3698 31.1804 42.3098 31.1504C42.2598 31.1304 41.8198 31.3204 41.7398 31.3104C41.6698 31.3104 41.2498 31.0004 41.1298 31.0604C41.0098 31.1204 40.7498 31.8504 40.7898 31.9404V31.9504Z" fill="white"/>
<path d="M41.75 31.3207C41.75 31.3207 41.86 31.6207 41.9 31.6507C41.94 31.6807 42.32 31.1607 42.32 31.1607C42.27 31.1407 41.83 31.3307 41.75 31.3207Z" fill="#C4D9E8"/>
<path d="M41.1295 31.3604C41.1295 31.3604 41.6395 31.8804 41.6295 31.9304C41.6295 31.9704 41.0295 32.2604 41.0095 32.2404C40.9895 32.2304 41.1495 31.8704 41.1495 31.8104C41.1495 31.7504 41.1295 31.3604 41.1295 31.3604Z" fill="#DFEBF5"/>
<path d="M40.7896 31.9501C40.8096 32.0001 40.8596 32.2901 40.9496 32.5401L40.9195 32.0001L41.1395 31.0801C41.0195 31.1401 40.7595 31.8701 40.7995 31.9601L40.7896 31.9501Z" fill="#C4D9E8"/>
<path d="M41.8799 32.8305C41.8799 32.8305 42.6299 32.9705 42.7099 32.9405C42.7899 32.9105 42.9199 31.8105 42.9199 31.8105C42.9199 31.8105 42.7199 32.3605 42.7199 32.3905C42.7199 32.4205 42.4899 32.3405 42.4899 32.3405L41.8899 32.8305H41.8799Z" fill="#DFEBF5"/>
<path d="M42.7197 31.8008L42.6197 32.0808L42.4497 32.0708L42.5797 31.9608L42.7197 31.8008Z" fill="#DFEBF5"/>
<path d="M41.9099 15.9602C41.9299 16.0102 41.9799 16.3002 42.0699 16.5502C42.1299 16.7002 42.1999 16.8202 42.2899 16.8802C42.5499 17.0202 42.9999 16.8402 42.9999 16.8402C42.9999 16.8402 43.7499 16.9802 43.8299 16.9502C43.9099 16.9202 44.0399 15.8202 44.0399 15.8202C44.0399 15.8202 43.4899 15.1902 43.4299 15.1602C43.3799 15.1402 42.9399 15.3302 42.8599 15.3202C42.7899 15.3202 42.3699 15.0102 42.2499 15.0702C42.1299 15.1302 41.8699 15.8602 41.9099 15.9502V15.9602Z" fill="white"/>
<path d="M42.8599 15.3304C42.8599 15.3304 42.9699 15.6304 43.0099 15.6604C43.0499 15.6904 43.4299 15.1704 43.4299 15.1704C43.3799 15.1504 42.9399 15.3404 42.8599 15.3304Z" fill="#C4D9E8"/>
<path d="M42.2497 15.3604C42.2497 15.3604 42.7597 15.8804 42.7497 15.9304C42.7497 15.9704 42.1497 16.2604 42.1297 16.2404C42.1097 16.2304 42.2697 15.8704 42.2697 15.8104C42.2697 15.7504 42.2497 15.3604 42.2497 15.3604Z" fill="#DFEBF5"/>
<path d="M41.9097 15.9598C41.9297 16.0098 41.9797 16.2998 42.0697 16.5498L42.0397 16.0098L42.2597 15.0898C42.1397 15.1498 41.8797 15.8798 41.9197 15.9698L41.9097 15.9598Z" fill="#C4D9E8"/>
<path d="M43 16.8305C43 16.8305 43.75 16.9705 43.83 16.9405C43.91 16.9105 44.04 15.8105 44.04 15.8105C44.04 15.8105 43.84 16.3605 43.84 16.3905C43.84 16.4205 43.61 16.3405 43.61 16.3405L43.01 16.8305H43Z" fill="#DFEBF5"/>
<path d="M43.8398 15.7998L43.7398 16.0898L43.5698 16.0798L43.6998 15.9598L43.8398 15.7998Z" fill="#DFEBF5"/>
<path d="M55.92 32.8301H0.08C0.0358172 32.8301 0 32.8659 0 32.9101V32.9201C0 32.9643 0.0358172 33.0001 0.08 33.0001H55.92C55.9642 33.0001 56 32.9643 56 32.9201V32.9101C56 32.8659 55.9642 32.8301 55.92 32.8301Z" fill="#233862"/>
</g>
<defs>
<clipPath id="clip0_1830_9562">
<rect width="56" height="33" fill="white"/>
</clipPath>
</defs>
</svg>
