<svg width="56" height="33" viewBox="0 0 56 33" fill="none" xmlns="http://www.w3.org/2000/svg">
<g clip-path="url(#clip0_1802_14350)">
<path opacity="0.5" d="M54.332 32.745C54.332 32.745 54.3221 32.7597 54.3172 32.7695C54.2878 32.8283 54.2534 32.892 54.224 32.9557L4.37699 32.941C4.37699 32.941 4.32792 32.8822 4.2396 32.7695C4.2347 32.7646 4.22979 32.7548 4.22488 32.7499C4.00408 32.4559 3.55267 31.8384 3.02765 30.9661C1.63906 28.6433 -0.289268 24.5415 0.034573 19.989C0.1278 18.705 0.397668 17.3819 0.91287 16.0588C2.46829 12.0354 7.11492 9.32057 11.3003 9.26666C12.9195 9.24706 14.47 9.6244 15.7458 10.4771C15.9715 10.629 16.2561 10.7466 16.5897 10.825C16.8694 10.8936 17.1785 10.9328 17.5171 10.9475C20.2354 11.0504 24.6563 9.36957 27.2765 5.13064C28.67 2.88131 30.8044 1.40625 33.2626 0.636874C33.3755 0.60257 33.4933 0.568267 33.6061 0.533963C34.1655 0.377147 34.7396 0.254634 35.3235 0.166425C35.4265 0.151724 35.5344 0.137022 35.6424 0.122321C38.2331 -0.210914 41.0103 0.132122 43.5569 1.07792C43.8905 1.20043 44.2242 1.33765 44.548 1.48466C49.3419 3.62128 53.066 7.97783 52.7422 14.0643C52.7275 14.3044 52.7078 14.5494 52.6833 14.7944C52.6342 15.2649 52.5606 15.7402 52.4625 16.2303C52.4036 16.5194 52.3398 16.8085 52.2613 17.1026C50.2839 24.816 58.1837 25.1639 54.327 32.745H54.332Z" fill="#FFE8D9"/>
<path d="M54.3318 32.7455H15.5347L15.8683 19.9895V16.5248H17.3207V13.8198H20.2156V16.1181H21.0988V11.8693H21.2902V11.5704H21.3246V11.8693H22.0213V11.5704H22.0557V11.8693H23.0419V11.5704H23.0762V11.8693H23.6994V11.5704H23.7337V11.8693H23.9889V15.8339H24.9653V15.1919H26.1184V14.1579H26.349V13.9521H26.3784V14.1579H27.2666H27.4432V13.9521H27.4726V14.1579H27.6885V16.2259H29.0624V16.9855H29.8229V16.5444H30.5295V14.7901H30.8828V13.9717H30.9368V14.7901H31.7807V13.2562H31.8641V14.7901H32.4235V14.7704V14.5744V14.3882V14.0795V13.8835V13.5747V13.3787V13.07V12.8593V12.5505V12.281V11.9723V11.7713H32.5903V11.541H32.6148V11.7713H33.8513V11.541H33.8759V11.7713H34.1016V13.3738H34.2586V13.0651V12.8544V12.5456V12.3349V12.0262H35.7551H36.0103C36.025 12.036 36.0348 12.0409 36.0495 12.0507V14.0942H36.3243V13.8001H39.4842V16.0985H40.4508V11.8497H40.6618V11.5508H40.7011V11.8497H41.4616V11.5508H41.5008V11.8497H42.5803V11.5508H42.6196V11.8497H43.2967V11.5508H43.3359V11.8497H43.6156V15.8143H44.6804V15.1723H45.9365V14.1383H46.1916V13.9325H46.226V14.1383H47.1975H47.3938V13.9325H47.4281V14.1383H47.6636V16.2063H49.1602V16.9659H49.9943V16.5248H50.7647V14.7704H51.1474V13.9521H51.2063V14.7704H52.1287V13.2366H52.217V14.7704H52.6685C52.6194 15.2409 52.5458 15.7162 52.4477 16.2063C52.3888 16.4954 52.325 16.7846 52.2465 17.0786C50.2691 24.792 58.1689 25.1399 54.3122 32.721L54.3318 32.7455Z" fill="#E4E7EB"/>
<path d="M44.5478 1.48487V32.7452H43.5566V1.07812C43.8903 1.20064 44.224 1.33785 44.5478 1.48487Z" fill="#323F4B"/>
<path d="M16.5897 10.825V32.7645H4.24451C4.24451 32.7645 4.23469 32.7498 4.22979 32.7449C4.00899 32.4509 3.55757 31.8334 3.03256 30.9611C1.63906 28.6432 -0.28927 24.5415 0.0345709 19.9889C0.127798 18.705 0.397666 17.3818 0.912868 16.0587C2.46829 12.0354 7.11492 9.32051 11.3003 9.2666C12.9048 9.2862 14.4357 9.66844 15.7065 10.477C15.942 10.6289 16.2414 10.7466 16.5897 10.825Z" fill="#FFD0B5"/>
<path d="M35.6422 0.12207V3.97387C35.6422 4.2728 35.5735 4.51782 35.495 4.51782H35.4753C35.3919 4.51782 35.3281 4.2728 35.3281 3.97387V0.166175C35.4312 0.151473 35.5391 0.136772 35.6471 0.12207H35.6422Z" fill="#9FC1F4"/>
<path d="M35.4018 3.5918C34.2487 3.5918 33.3115 4.67971 33.3115 6.02245H37.4871C37.4871 4.67971 36.5499 3.5918 35.3969 3.5918H35.4018Z" fill="#F9703E"/>
<path d="M35.5685 3.62116C35.5097 3.60646 35.4459 3.60156 35.387 3.60156C34.6363 3.60156 34.0278 4.68457 34.0278 6.02241H34.3958C34.3958 4.79729 34.9061 3.78288 35.5734 3.62116H35.5685Z" fill="#FF9466"/>
<path d="M49.1549 29.1623C49.1549 29.1623 48.6004 28.4468 49.1205 27.9959C49.1205 27.9959 49.5032 27.7411 49.8124 27.7607C49.8124 27.7607 49.3708 28.5742 49.5131 28.6526C49.6554 28.731 49.9449 27.7068 49.9449 27.7068C49.9449 27.7068 50.8133 27.6137 51.093 27.7607C51.093 27.7607 50.3521 28.4272 50.5091 28.4664C50.6661 28.5056 51.4659 27.8489 51.4659 27.8489C51.4659 27.8489 52.2706 28.0008 52.2314 28.5399C52.1872 29.079 51.9124 29.2505 51.7898 29.2358C51.6671 29.2211 50.9507 28.9221 50.936 29.0299C50.9213 29.1378 51.3531 29.5004 51.6524 29.5151C51.6524 29.5151 51.0832 30.2061 50.7054 30.0051C50.3276 29.8042 50.2932 29.4906 50.0577 29.373C49.8222 29.2554 49.621 29.2554 49.7191 29.373C49.8173 29.4955 50.2442 29.6131 50.3766 29.8728C50.5091 30.1375 50.6318 30.3139 50.2393 30.2453C49.8467 30.1767 49.2138 29.8679 49.1843 29.5053L49.1549 29.1427V29.1623Z" fill="#9AA5B1"/>
<path d="M51.8293 28.5647C51.8293 28.5647 49.636 28.4716 49.1552 29.1626C49.1552 29.1626 49.0472 29.5154 48.7185 29.834L48.6694 29.9859C48.6694 29.9859 49.0472 29.5448 49.1846 29.5203C49.1846 29.5203 48.9736 28.6677 51.8342 28.5647H51.8293Z" fill="#9AA5B1"/>
<path d="M48.7183 29.8341C48.7183 29.8341 48.2472 30.2164 48.2129 30.9025L48.2963 30.9123C48.2963 30.9123 48.4484 30.2066 48.7183 29.9273C48.9881 29.6528 48.7183 29.8341 48.7183 29.8341Z" fill="#9AA5B1"/>
<path d="M47.212 28.2658C47.212 28.2658 48.0952 27.7219 47.683 26.9819C47.683 26.9819 47.3543 26.5261 47.001 26.4134C47.001 26.4134 47.1875 27.516 47.001 27.5405C46.8146 27.5651 46.8734 26.2958 46.8734 26.2958C46.8734 26.2958 45.9412 25.8009 45.5781 25.8401C45.5781 25.8401 46.1571 26.9182 45.9657 26.8888C45.7792 26.8643 45.1267 25.7715 45.1267 25.7715C45.1267 25.7715 44.1699 25.5754 44.0177 26.1978C43.8656 26.8202 44.111 27.1338 44.2533 27.1681C44.3956 27.2073 45.3033 27.1926 45.2788 27.3249C45.2542 27.4523 44.6409 27.6631 44.3023 27.5454C44.3023 27.5454 44.6801 28.5697 45.1757 28.5157C45.6713 28.4618 45.8234 28.1286 46.1325 28.0992C46.4367 28.0747 46.6624 28.1629 46.5103 28.256C46.3582 28.3491 45.8381 28.2854 45.5928 28.5157C45.3475 28.7461 45.1463 28.8882 45.6026 28.996C46.0638 29.0989 46.8882 29.0352 47.055 28.6481L47.2218 28.2609L47.212 28.2658Z" fill="#9AA5B1"/>
<path d="M44.4546 26.3984C44.4546 26.3984 46.9325 27.2805 47.2122 28.2655C47.2122 28.2655 47.2024 28.7066 47.4477 29.2113V29.4073C47.4477 29.4073 47.1876 28.7458 47.0453 28.6576C47.0453 28.6576 47.5998 27.8 44.4497 26.4033L44.4546 26.3984Z" fill="#9AA5B1"/>
<path d="M47.4476 29.2117C47.4476 29.2117 47.8304 29.8488 47.6096 30.6279L47.5114 30.5985C47.5114 30.5985 47.6047 29.7458 47.4084 29.3146C47.2072 28.8834 47.4476 29.2166 47.4476 29.2166V29.2117Z" fill="#9AA5B1"/>
<path d="M48.6204 27.5162C48.6204 27.5162 47.4526 26.8007 47.9973 25.8255C47.9973 25.8255 48.434 25.2276 48.9001 25.0757C48.9001 25.0757 48.6499 26.5263 48.9001 26.5606C49.1504 26.5949 49.0719 24.9189 49.0719 24.9189C49.0719 24.9189 50.2985 24.2671 50.7794 24.321C50.7794 24.321 50.0188 25.7373 50.2642 25.7079C50.5144 25.6736 51.3682 24.2377 51.3682 24.2377C51.3682 24.2377 52.6292 23.9829 52.8304 24.8013C53.0315 25.6197 52.7077 26.0313 52.5213 26.0852C52.3348 26.1342 51.1376 26.1195 51.167 26.291C51.1964 26.4626 52.0061 26.737 52.4575 26.5802C52.4575 26.5802 51.9619 27.9327 51.3093 27.8641C50.6567 27.7955 50.4555 27.3495 50.0483 27.3152C49.6459 27.2809 49.3466 27.3986 49.5527 27.5211C49.7539 27.6387 50.4408 27.5603 50.7647 27.8641C51.0885 28.1679 51.3535 28.3591 50.7499 28.4963C50.1415 28.6335 49.0571 28.5453 48.8363 28.0356L48.6204 27.5211V27.5162Z" fill="#7B8794"/>
<path d="M52.2565 25.0508C52.2565 25.0508 48.9936 26.2122 48.6206 27.5108C48.6206 27.5108 48.6354 28.094 48.3115 28.7605V29.0153C48.3115 29.0153 48.655 28.143 48.8414 28.0254C48.8414 28.0254 48.1104 26.8983 52.2614 25.0508H52.2565Z" fill="#7B8794"/>
<path d="M48.3064 28.7605C48.3064 28.7605 47.801 29.6034 48.0905 30.6227L48.2181 30.5835C48.2181 30.5835 48.0905 29.4563 48.3554 28.8879C48.6204 28.3194 48.3064 28.7556 48.3064 28.7556V28.7605Z" fill="#7B8794"/>
<path d="M48.581 32.843C49.842 32.843 50.8626 31.7208 50.8626 30.334H46.2944C46.2944 31.7208 47.315 32.843 48.576 32.843H48.581Z" fill="#7B8794"/>
<path d="M49.1404 32.8234C49.0472 32.8381 48.954 32.843 48.8558 32.843C47.5948 32.843 46.5742 31.7208 46.5742 30.334H47.1434C47.1434 31.613 48.0168 32.6715 49.1404 32.8283V32.8234Z" fill="#AFCDFB"/>
<path d="M50.9115 30.334H46.2207V30.4124H50.9115V30.334Z" fill="#7B8794"/>
<path d="M37.9479 32.721L35.7056 22.479L35.8626 22.0771L38.0853 32.721C38.0902 32.7504 38.0706 32.775 38.0461 32.775H38.0068C37.9774 32.775 37.9528 32.7553 37.9479 32.721Z" fill="#323F4B"/>
<path d="M27.8256 32.775C27.7814 32.775 27.7422 32.7309 27.752 32.6819L28.4144 28.2764H28.699L27.909 32.7015C27.8992 32.7456 27.8649 32.775 27.8256 32.775Z" fill="#323F4B"/>
<path d="M34.165 32.775C34.1208 32.775 34.0815 32.7309 34.0914 32.6819L34.7538 28.2764H35.0384L34.2484 32.7015C34.2386 32.7456 34.2042 32.775 34.165 32.775Z" fill="#3E4C59"/>
<path d="M35.701 28.2809H27.811L29.445 17.0098H37.3349L35.701 28.2809Z" fill="#F5FBFF"/>
<path d="M36.2897 28.1973H27.2271V28.5305H36.2897V28.1973Z" fill="#323F4B"/>
<path d="M32.5702 19.3674C32.5653 19.4556 32.5506 19.5438 32.5359 19.632C32.369 20.4357 31.7213 21.0532 30.9804 21.0581C30.1659 21.0581 29.5526 20.3083 29.6164 19.3772C29.6802 18.4461 30.3916 17.6914 31.2061 17.6914C31.3779 17.6914 31.5398 17.7257 31.687 17.7845C31.7557 17.8139 31.8195 17.8433 31.8784 17.8825C32.0108 17.9658 32.1286 18.0687 32.2267 18.1962C32.2807 18.2648 32.3298 18.3432 32.3739 18.4216C32.3985 18.4706 32.423 18.5147 32.4426 18.5686C32.5015 18.7058 32.5408 18.8577 32.5604 19.0194C32.5702 19.0979 32.5751 19.1812 32.5751 19.2645C32.5751 19.2988 32.5751 19.3331 32.5751 19.3723L32.5702 19.3674Z" fill="#616E7C"/>
<path d="M32.4475 18.564L31.0981 19.3677C31.0981 19.3677 31.6575 18.2896 31.8832 17.873C32.0157 17.9564 32.1335 18.0593 32.2316 18.1867C32.2856 18.2553 32.3346 18.3337 32.3788 18.4121C32.4033 18.4611 32.4279 18.5052 32.4475 18.5591V18.564Z" fill="white"/>
<path d="M32.5851 18.3626L31.3486 19.0977C31.3486 19.0977 31.8589 18.1127 32.065 17.7354C32.1877 17.8089 32.2907 17.9069 32.3839 18.0245C32.433 18.0882 32.4772 18.1568 32.5213 18.2303C32.5459 18.2744 32.5655 18.3185 32.5851 18.3626Z" fill="#DE3A11"/>
<path d="M35.0726 27.4231H28.5762L29.2337 23.3018H35.7301L35.0726 27.4231ZM28.6301 27.379H35.0334L35.6761 23.341H29.2729L28.6301 27.379Z" fill="#BDD1F9"/>
<path d="M34.6848 26.8591H28.9243C28.9243 26.8591 29.9449 26.2563 30.2246 26.2857C30.5043 26.3151 30.9066 26.5602 31.1667 26.57C31.4267 26.5798 31.7064 25.7222 31.9959 25.7663C32.2854 25.8055 32.3933 26.5651 32.5405 26.4916C32.6877 26.4181 33.1392 26.3838 33.3943 26.4916C33.6544 26.5994 34.0273 26.1534 34.2579 26.1681C34.4836 26.1828 34.6848 26.8591 34.6848 26.8591Z" fill="#DE3A11"/>
<path d="M30.3081 25.6487H29.209L29.2188 25.585H30.3228L30.3081 25.6487Z" fill="#DE3A11"/>
<path d="M30.2885 25.7864H29.1895L29.1993 25.7227H30.2984L30.2885 25.7864Z" fill="#DE3A11"/>
<path d="M29.2534 24.7917H35.0139C35.0139 24.7917 34.1846 24.1889 33.8951 24.2232C33.6056 24.2527 33.1248 24.4977 32.8598 24.5075C32.5998 24.5173 32.59 23.6597 32.2907 23.7038C31.9913 23.743 31.6381 24.5026 31.5154 24.4291C31.3878 24.3556 30.9511 24.3213 30.6616 24.4291C30.3672 24.5369 30.1366 24.0909 29.9011 24.1056C29.6705 24.1203 29.2534 24.7966 29.2534 24.7966V24.7917Z" fill="#9AA5B1"/>
<path d="M30.622 23.6985H29.5229L29.5328 23.6348H30.6319L30.622 23.6985Z" fill="#9AA5B1"/>
<path d="M30.5976 23.8362H29.4985L29.5083 23.7725H30.6074L30.5976 23.8362Z" fill="#9AA5B1"/>
<path d="M29.6262 22.7283H29.376L29.5968 21.4248H29.847L29.6262 22.7283Z" fill="#616E7C"/>
<path d="M29.9744 22.7283H29.7192L29.891 21.7188H30.1412L29.9744 22.7283Z" fill="#616E7C"/>
<path d="M30.3181 22.7284H30.063L30.2396 21.6748H30.4948L30.3181 22.7284Z" fill="#616E7C"/>
<path d="M30.6614 22.7285H30.4062L30.5436 21.9297H30.7939L30.6614 22.7285Z" fill="#616E7C"/>
<path d="M31.0051 22.7287H30.7549L30.8972 21.8711H31.1523L31.0051 22.7287Z" fill="#616E7C"/>
<path d="M31.3484 22.728H31.0981L31.211 22.0615H31.4612L31.3484 22.728Z" fill="#616E7C"/>
<path d="M33.0071 22.7283H32.7568L32.9727 21.4248H33.2279L33.0071 22.7283Z" fill="#DE3A11"/>
<path d="M33.3503 22.7283H33.1001L33.2718 21.7188H33.5221L33.3503 22.7283Z" fill="#DE3A11"/>
<path d="M33.699 22.7284H33.4438L33.6205 21.6748H33.8756L33.699 22.7284Z" fill="#DE3A11"/>
<path d="M34.0423 22.7285H33.7871L33.9245 21.9297H34.1747L34.0423 22.7285Z" fill="#DE3A11"/>
<path d="M34.386 22.7287H34.1309L34.2781 21.8711H34.5283L34.386 22.7287Z" fill="#DE3A11"/>
<path d="M34.7293 22.728H34.4741L34.587 22.0615H34.8421L34.7293 22.728Z" fill="#DE3A11"/>
<path d="M34.2242 18.4751H33.4048L33.4244 18.3525H34.2438L34.2242 18.4751Z" fill="#616E7C"/>
<path d="M35.2349 18.4751H34.3271L34.3468 18.3525H35.2545L35.2349 18.4751Z" fill="#616E7C"/>
<path d="M35.8827 18.4751H35.3037L35.3233 18.3525H35.9023L35.8827 18.4751Z" fill="#616E7C"/>
<path d="M36.4226 18.4751H35.9761L35.9957 18.3525H36.4422L36.4226 18.4751Z" fill="#616E7C"/>
<path d="M34.1358 19.0043H33.3115L33.3312 18.8818H34.1555L34.1358 19.0043Z" fill="#616E7C"/>
<path d="M35.1416 19.0043H34.2339L34.2584 18.8818H35.1662L35.1416 19.0043Z" fill="#616E7C"/>
<path d="M35.7894 19.0043H35.2104L35.235 18.8818H35.814L35.7894 19.0043Z" fill="#616E7C"/>
<path d="M36.3293 19.0043H35.8828L35.9073 18.8818H36.3539L36.3293 19.0043Z" fill="#616E7C"/>
<path d="M34.7146 18.186H33.4536L33.4732 18.0635H34.7343L34.7146 18.186Z" fill="#616E7C"/>
<path d="M35.5587 18.186H34.8325L34.8571 18.0635H35.5832L35.5587 18.186Z" fill="#616E7C"/>
<path d="M36.4712 18.186H35.6616L35.6862 18.0635H36.4909L36.4712 18.186Z" fill="#616E7C"/>
<path d="M34.6165 18.7495H33.3555L33.3751 18.627H34.641L34.6165 18.7495Z" fill="#616E7C"/>
<path d="M35.4654 18.7495H34.7393L34.7589 18.627H35.4851L35.4654 18.7495Z" fill="#616E7C"/>
<path d="M36.3731 18.7495H35.5684L35.588 18.627H36.3976L36.3731 18.7495Z" fill="#616E7C"/>
<path d="M34.0426 19.5336H33.2231L33.2428 19.4111H34.0671L34.0426 19.5336Z" fill="#616E7C"/>
<path d="M35.0532 19.5336H34.1455L34.1651 19.4111H35.0729L35.0532 19.5336Z" fill="#616E7C"/>
<path d="M35.7011 19.5336H35.1221L35.1417 19.4111H35.7207L35.7011 19.5336Z" fill="#616E7C"/>
<path d="M36.2409 19.5336H35.7944L35.8141 19.4111H36.2606L36.2409 19.5336Z" fill="#616E7C"/>
<path d="M34.5281 19.2788H33.2671L33.2867 19.1562H34.5477L34.5281 19.2788Z" fill="#616E7C"/>
<path d="M35.3771 19.2788H34.646L34.6705 19.1562H35.3967L35.3771 19.2788Z" fill="#616E7C"/>
<path d="M36.2847 19.2788H35.4751L35.4996 19.1562H36.3043L36.2847 19.2788Z" fill="#616E7C"/>
<path d="M33.9591 20.0288H33.1348L33.1593 19.9062H33.9787L33.9591 20.0288Z" fill="#616E7C"/>
<path d="M34.9697 20.0288H34.062L34.0816 19.9062H34.9894L34.9697 20.0288Z" fill="#616E7C"/>
<path d="M35.6176 20.0288H35.0386L35.0582 19.9062H35.6372L35.6176 20.0288Z" fill="#616E7C"/>
<path d="M36.1574 20.0288H35.7109L35.7306 19.9062H36.1771L36.1574 20.0288Z" fill="#616E7C"/>
<path d="M34.4446 19.7739H33.1787L33.2032 19.6514H34.4643L34.4446 19.7739Z" fill="#616E7C"/>
<path d="M35.2887 19.7739H34.5625L34.5821 19.6514H35.3132L35.2887 19.7739Z" fill="#616E7C"/>
<path d="M36.2012 19.7739H35.3916L35.4161 19.6514H36.2208L36.2012 19.7739Z" fill="#616E7C"/>
<path d="M32.0894 21.6213H31.687L31.6968 21.5576H32.0992L32.0894 21.6213Z" fill="#616E7C"/>
<path d="M32.5803 21.6213H32.1387L32.1485 21.5576H32.5901L32.5803 21.6213Z" fill="#616E7C"/>
<path d="M32.0454 21.8752H31.6431L31.6529 21.8164H32.0552L32.0454 21.8752Z" fill="#616E7C"/>
<path d="M32.5363 21.8752H32.0947L32.1045 21.8164H32.5461L32.5363 21.8752Z" fill="#616E7C"/>
<path d="M32.3252 21.4787H31.7119L31.7217 21.415H32.34L32.3252 21.4787Z" fill="#616E7C"/>
<path d="M32.742 21.4787H32.3838L32.3985 21.415H32.7518L32.742 21.4787Z" fill="#616E7C"/>
<path d="M32.2808 21.7531H31.6626L31.6724 21.6943H32.2907L32.2808 21.7531Z" fill="#616E7C"/>
<path d="M32.6931 21.7531H32.3398L32.3497 21.6943H32.7078L32.6931 21.7531Z" fill="#616E7C"/>
<path d="M35.313 21.6213H34.9106L34.9205 21.5576H35.3228L35.313 21.6213Z" fill="#616E7C"/>
<path d="M35.8088 21.6213H35.3623L35.3721 21.5576H35.8186L35.8088 21.6213Z" fill="#616E7C"/>
<path d="M35.269 21.8752H34.8667L34.8765 21.8164H35.2789L35.269 21.8752Z" fill="#616E7C"/>
<path d="M35.76 21.8752H35.3184L35.3282 21.8164H35.7747L35.76 21.8752Z" fill="#616E7C"/>
<path d="M35.5538 21.4787H34.9355L34.9454 21.415H35.5636L35.5538 21.4787Z" fill="#616E7C"/>
<path d="M35.9656 21.4787H35.6123L35.6221 21.415H35.9754L35.9656 21.4787Z" fill="#616E7C"/>
<path d="M35.5045 21.7531H34.8862L34.896 21.6943H35.5143L35.5045 21.7531Z" fill="#616E7C"/>
<path d="M35.9217 21.7531H35.5635L35.5733 21.6943H35.9315L35.9217 21.7531Z" fill="#616E7C"/>
<path d="M37.4527 32.6078C37.438 32.8185 37.1681 32.8234 36.859 32.7842C36.5498 32.745 36.6333 32.8283 36.2015 32.8381C35.7697 32.843 35.6225 32.6862 35.598 32.6176C35.5783 32.5588 35.7893 32.5049 36.0101 32.4461C36.0395 32.4363 36.0641 32.4314 36.0935 32.4216C36.3438 32.353 36.5106 32.1472 36.7265 31.9658C36.9277 31.7943 37.1926 31.1769 37.1926 31.1769L37.7814 31.1475C37.7814 31.1475 37.5312 31.7012 37.438 31.9413C37.384 32.0835 37.4085 32.255 37.4281 32.3873C37.4429 32.4608 37.4527 32.5343 37.4478 32.6078H37.4527Z" fill="#FFB27D"/>
<path d="M36.859 32.7798C36.5498 32.7406 36.6333 32.8239 36.2015 32.8337C35.7697 32.8386 35.6225 32.6818 35.598 32.6132C35.5783 32.5543 35.7893 32.5004 36.0101 32.4416C36.0101 32.4416 36.2898 32.6083 36.6431 32.569C36.9326 32.5347 37.227 32.4024 37.4281 32.3779C37.4429 32.4514 37.4527 32.5249 37.4478 32.5985C37.433 32.8092 37.1632 32.8141 36.8541 32.7749L36.859 32.7798Z" fill="#1F2933"/>
<path d="M41.5303 32.6523C41.5156 32.8631 41.2457 32.868 40.9366 32.8288C40.6275 32.7896 40.7109 32.8778 40.2791 32.8827C39.8473 32.8876 39.7001 32.7307 39.6756 32.667C39.656 32.6082 39.8669 32.5543 40.0877 32.4955C40.1172 32.4857 40.1417 32.4808 40.1712 32.471C40.4214 32.4024 40.5882 32.1917 40.8041 32.0153C41.0053 31.8438 40.8041 30.8293 40.8041 30.8293L41.4518 30.7607C41.4518 30.7607 41.4224 31.6134 41.4224 32.0006C41.4224 32.1525 41.4862 32.2995 41.5107 32.4318C41.5254 32.5053 41.5352 32.5788 41.5303 32.6523Z" fill="#FFB27D"/>
<path d="M40.9366 32.8286C40.6275 32.7894 40.7109 32.8776 40.2791 32.8825C39.8473 32.8874 39.7001 32.7306 39.6756 32.6669C39.656 32.6081 39.8669 32.5542 40.0877 32.4953C40.0877 32.4953 40.3674 32.662 40.7207 32.6228C41.0102 32.5885 41.3046 32.4561 41.5058 32.4316C41.5205 32.5051 41.5303 32.5787 41.5254 32.6522C41.5107 32.8629 41.2408 32.8678 40.9317 32.8286H40.9366Z" fill="#323F4B"/>
<path d="M39.636 15.1473C39.5232 14.6425 39.6851 14.4073 39.8323 14.2799C39.901 14.0937 39.9795 13.9613 40.0629 13.9074C40.2101 13.8143 40.3868 13.8045 40.5094 13.8143C40.48 13.78 40.4162 13.7653 40.4162 13.7653C40.4947 13.7506 40.6615 13.8388 40.6615 13.8388C41.7263 13.388 41.8931 15.113 41.8735 15.5148C41.8489 15.9166 41.8539 16.3871 42.4083 16.7056C43.4682 17.3084 42.055 19.5822 42.055 19.5822C42.0796 19.2588 40.7204 17.5485 40.0138 17.034C39.8421 16.7546 39.7783 16.2597 39.7734 16.2205C39.8029 16.6125 39.8617 16.833 39.9206 16.9556C39.5968 16.6272 39.5477 15.8431 39.636 15.1473Z" fill="#A9453D"/>
<path d="M40.0581 17.0588C40.0581 17.0588 40.4016 17.2598 40.6616 17.1814C40.907 17.1079 41.0689 16.7599 41.064 16.7599C40.9609 16.7354 40.9315 16.5786 40.9315 15.9072L40.8824 15.917L40.0925 16.0885C40.0925 16.0885 40.1121 16.363 40.1121 16.6178C40.1121 16.8334 40.1023 17.0392 40.0581 17.0637V17.0588Z" fill="#FFB27D"/>
<path d="M40.0923 16.0836C40.0923 16.0836 40.1119 16.3581 40.1119 16.6129C40.5535 16.5982 40.7841 16.1571 40.8823 15.9121L40.0923 16.0836Z" fill="#ED975D"/>
<path d="M36.8883 31.5203C36.8491 31.6526 36.9374 31.7898 37.065 31.7996L37.3741 31.8143L37.6979 31.8241C37.7813 31.8241 37.8549 31.7898 37.9089 31.7163C38.169 31.3635 38.9688 30.1971 39.4545 28.4967C39.4692 28.4477 39.484 28.3987 39.4987 28.3496C39.8176 27.3205 40.4849 26.0317 40.8333 24.8605C40.8873 24.6743 40.9412 24.4979 40.9854 24.3312C41.0001 24.2773 41.0148 24.2283 41.0296 24.1744C41.2896 23.1894 41.3632 22.5377 41.4319 21.8467L38.9001 21.8712C38.9001 21.8712 38.3652 26.4237 36.8883 31.5154V31.5203Z" fill="#2A4E96"/>
<path d="M39.2485 20.2777C39.2534 21.6008 39.0719 22.1693 39.0719 22.1693C39.0719 22.1693 40.1563 22.7769 41.4418 22.331C41.4565 22.3261 42.3643 22.0419 42.3643 22.0419C42.3447 21.9879 42.1631 21.101 42.1435 21.0519C41.8736 20.41 41.7951 20.1405 41.7657 19.9444C41.7068 19.5769 41.7068 19.1947 41.7362 18.8369C41.8147 17.8862 42.0503 17.0923 42.0503 17.0923C41.697 17.0041 41.3731 16.8522 41.0051 16.7003C40.9217 16.813 40.6666 16.9355 40.4409 16.9306C40.1857 16.9257 40.1023 16.8032 40.1121 16.6709C39.8373 16.8375 39.6214 16.9943 39.6214 16.9943C39.3908 17.4403 38.9198 17.8715 38.8854 18.5478C38.8756 18.7144 39.2534 20.2385 39.2534 20.2728L39.2485 20.2777Z" fill="white"/>
<path d="M41.427 20.4251C41.5398 20.5966 41.7508 21.6454 42.2758 21.7777C42.006 21.0328 41.7999 20.7045 41.7655 20.4741C41.7066 20.0478 41.7066 19.6018 41.7361 19.1853C41.5594 18.8472 41.427 18.6119 41.427 18.6119C41.4122 18.558 41.1473 17.6514 41.059 18.46C40.9755 19.2735 41.2994 20.234 41.427 20.4251Z" fill="#5F9AA8"/>
<path d="M39.9451 16.3281C39.9451 16.3281 40.9902 16.3477 40.9902 15.6322C40.9902 14.9167 41.1276 14.4365 40.4603 14.3973C39.793 14.3532 39.6654 14.6276 39.6114 14.8677C39.5575 15.1079 39.6752 16.3085 39.9451 16.333V16.3281Z" fill="#FFB27D"/>
<path d="M39.9844 14.3775C39.9844 14.3775 40.269 15.2155 40.7106 15.3429C41.1473 15.4654 41.3386 15.338 41.3386 15.338C41.3386 15.338 41.0001 15.044 40.9314 14.5294C40.9314 14.5294 40.2003 13.9806 39.9844 14.3775Z" fill="#A9453D"/>
<path d="M40.058 14.4418C40.058 14.4418 39.847 14.628 39.7931 14.8094C39.7391 14.9907 39.7195 15.368 39.6164 15.3533C39.6164 15.3533 39.4005 14.7849 39.641 14.4614C39.8961 14.1184 40.0531 14.4418 40.0531 14.4418H40.058Z" fill="#A9453D"/>
<path d="M38.3066 21.1943L37.811 22.8458L38.0907 22.9732L38.9101 21.5129L38.3066 21.1943Z" fill="#FFB27D"/>
<path d="M39.6311 16.8965C39.6311 16.8965 39.0521 17.1513 38.8804 17.5434C38.7135 17.9403 38.4584 20.5915 38.3554 20.8659C38.2523 21.1403 38.1787 21.3559 38.1787 21.3559C38.1787 21.3559 38.4731 21.6255 38.7675 21.65C39.0619 21.6696 39.6311 16.9014 39.6311 16.9014V16.8965Z" fill="#F9703E"/>
<path d="M40.1122 16.6709C40.1122 16.6709 39.5087 18.3126 39.489 18.6458C39.4694 18.979 39.4203 24.0756 39.4203 24.0756C39.4203 24.0756 39.4547 24.3108 39.0474 24.2128C38.6402 24.1148 38.5322 24.0168 38.5322 24.0168C38.5322 24.0168 38.9248 20.8706 38.8168 19.7778C38.7089 18.685 39.6313 16.9012 39.6313 16.9012L40.1122 16.6709Z" fill="#F9703E"/>
<path d="M37.3691 31.8139L37.7224 31.8237C37.7862 31.8237 37.8451 31.7943 37.8843 31.7403C38.1199 31.4218 38.954 30.2359 39.4496 28.4962C39.4643 28.4472 39.479 28.3982 39.4937 28.3492C39.8127 27.3201 40.48 26.0313 40.8284 24.86C40.8823 24.6738 40.9363 24.4974 40.9805 24.3308C40.9952 24.2769 41.0099 24.2279 41.0246 24.174L40.6517 23.8652C40.6517 23.8652 39.533 25.8597 39.1846 27.7317C38.8853 29.3587 37.6783 31.3189 37.3691 31.809V31.8139Z" fill="#1E3D70"/>
<path d="M40.6126 27.913C40.6077 28.7755 40.642 30.6965 40.7401 31.6374C40.75 31.7256 40.8137 31.7893 40.8922 31.7893H41.1572C41.2701 31.7893 41.3535 31.7893 41.4075 31.7893C41.4565 31.7893 41.4958 31.7501 41.5056 31.7011C41.7705 30.2309 41.957 29.0107 42.0944 27.9571C42.2072 27.075 42.3103 26.3154 42.3888 25.6636C42.4673 25.007 42.5213 24.4581 42.5409 23.9926C42.5409 23.9191 42.5458 23.8505 42.5458 23.7818C42.5458 23.7132 42.5458 23.6446 42.5458 23.5809L40.3574 23.3457C40.3869 24.9433 40.6077 27.3886 40.6077 27.9179L40.6126 27.913Z" fill="#2A4E96"/>
<path d="M41.1572 31.7899C41.2554 31.7899 41.3339 31.7899 41.3878 31.7899C41.4467 31.7899 41.4958 31.7409 41.5056 31.6821C41.7657 30.2217 41.9521 29.0064 42.0895 27.9577C42.2024 27.0756 42.3054 26.316 42.3839 25.6642C42.4624 25.0076 42.5164 24.4587 42.536 23.9932L41.7362 24.5126C41.7362 24.5126 42.2465 24.7135 42.0552 26.2131C41.8589 27.7175 41.4271 31.5742 41.1572 31.7899Z" fill="#1E3D70"/>
<path d="M41.054 23.9735C41.054 23.9735 41.2062 24.5861 41.741 24.5077C42.2758 24.4293 43.0314 24.0765 43.0314 24.0765C43.0314 24.0765 42.8057 23.2875 42.5211 22.2437C42.1777 20.9842 41.7557 19.3622 41.5545 18.338C41.5006 18.0488 41.4613 17.8136 41.4466 17.6421L41.005 16.6963C41.005 16.6963 40.3475 18.3233 40.3082 18.7349C40.2739 19.1465 41.054 23.9686 41.054 23.9686V23.9735Z" fill="#F9703E"/>
<path d="M41.5842 18.681L41.0003 16.7061C41.0003 16.7061 41.7364 16.9462 42.1093 17.152C42.1093 17.152 42.3399 17.4803 42.4822 18.235C42.4822 18.235 42.6343 20.0531 42.2957 20.7147C42.2957 20.7147 41.231 20.9499 39.5234 20.303V19.8718C39.5234 19.8718 41.388 19.9796 41.7707 20.0286L41.5842 18.6761V18.681Z" fill="#FFB27D"/>
<path d="M41.0787 19.5973C41.1033 20.2638 41.2455 21.5526 42.5115 22.2387C42.5115 22.2387 42.5164 22.2387 42.5213 22.2436C42.1778 20.9842 41.7558 19.3621 41.5547 18.3379C41.3241 18.7201 41.064 19.2298 41.0787 19.5924V19.5973Z" fill="#FF9466"/>
<path d="M41.005 16.7012C41.005 16.7012 42.0845 16.7845 42.3446 17.4215C42.6046 18.0586 42.688 20.1805 42.3544 20.8078C42.3544 20.8078 41.8981 20.9499 41.0885 20.7833C41.0786 20.7833 41.0688 20.7833 41.059 20.7784C41.059 20.7784 40.8039 20.0825 41.0345 19.9502C41.0345 19.9502 41.7165 19.9894 41.6429 19.7395C41.5742 19.4945 41.0001 16.7012 41.0001 16.7012H41.005Z" fill="#F9703E"/>
<path d="M38.2915 20.136L38.321 20.2487L40.0972 19.641C40.0972 19.641 40.1217 19.6116 40.107 19.5724C40.0923 19.5283 40.0628 19.5283 40.0628 19.5283L38.2866 20.136H38.2915Z" fill="#A9453D"/>
<path d="M38.1641 20.2436L38.2916 20.1357L38.3211 20.2485L38.1641 20.2436Z" fill="#A9453D"/>
<path d="M37.8796 22.8018C37.8796 22.8018 37.4282 23.0762 37.3694 23.282C37.3105 23.4927 37.3497 23.9289 37.4233 23.9191C37.4969 23.9142 37.6 23.4486 37.6588 23.4192C37.7177 23.3849 37.8011 23.2869 37.8011 23.3604C37.8011 23.4339 37.7423 23.5613 37.7717 23.5809C37.8011 23.6005 37.8944 23.3996 37.9631 23.3604C38.0269 23.3212 38.0563 22.9978 38.1201 22.9145C38.1839 22.8263 37.8796 22.8018 37.8796 22.8018Z" fill="#FFB27D"/>
<path d="M39.528 19.8718C39.528 19.8718 39.1257 19.5974 38.9589 19.6415C38.792 19.6856 38.3602 20.0287 38.5663 20.1022C38.7724 20.1757 38.9392 20.1022 39.0226 20.1512C39.1011 20.2051 39.16 20.3031 39.5329 20.3031C39.9058 20.3031 39.5329 19.8718 39.5329 19.8718H39.528Z" fill="#FFB27D"/>
<g opacity="0.6">
<path d="M20.0292 32.7754H20.0243C19.985 32.7754 19.9556 32.7411 19.9556 32.697L20.0635 27.6593L20.3726 27.6201L20.1077 32.7019C20.1077 32.746 20.0733 32.7803 20.0341 32.7803L20.0292 32.7754Z" fill="#52606D"/>
<path d="M18.2137 32.7754H18.2088C18.1696 32.7754 18.1401 32.7411 18.1401 32.697L18.2481 27.6593L18.5572 27.6201L18.2922 32.7019C18.2922 32.746 18.2579 32.7803 18.2186 32.7803L18.2137 32.7754Z" fill="#52606D"/>
<path d="M23.2238 32.7754H23.2287C23.268 32.7754 23.2974 32.7411 23.2974 32.697L23.1895 27.6593L22.8804 27.6201L23.1453 32.7019C23.1453 32.746 23.1797 32.7803 23.2189 32.7803L23.2238 32.7754Z" fill="#52606D"/>
<path d="M18.0078 27.3456V23.8907C18.0078 23.283 18.4543 22.7881 19.0088 22.7881H21.2708C21.8252 22.7881 22.2717 23.283 22.2717 23.8907V27.4779L18.0078 27.3456Z" fill="#52606D"/>
<path d="M18.0078 27.3457H22.6741V27.8897H18.5525C18.2531 27.8897 18.0078 27.6446 18.0078 27.3457Z" fill="#52606D"/>
<path d="M23.1502 27.3457H19.951C19.7993 27.3457 19.6763 27.4675 19.6763 27.6177C19.6763 27.7679 19.7993 27.8897 19.951 27.8897H23.1502C23.302 27.8897 23.425 27.7679 23.425 27.6177C23.425 27.4675 23.302 27.3457 23.1502 27.3457Z" fill="#52606D"/>
</g>
<path d="M25.672 30.7661C25.7014 30.9376 25.9271 30.9131 26.1773 30.8445C26.4276 30.7759 26.3687 30.8592 26.7269 30.8151C27.0851 30.771 27.193 30.624 27.2028 30.5652C27.2126 30.5112 27.036 30.4965 26.8446 30.472C26.8201 30.472 26.7956 30.4671 26.771 30.4622C26.5552 30.4328 26.3981 30.2809 26.2068 30.1584C26.0203 30.0408 25.7456 29.5605 25.7456 29.5605L25.2549 29.6047C25.2549 29.6047 25.51 30.0359 25.6131 30.2221C25.672 30.3299 25.667 30.4769 25.6621 30.5897C25.6621 30.6485 25.6523 30.7122 25.6621 30.7759L25.672 30.7661Z" fill="#FFB27D"/>
<path d="M26.1821 30.8392C26.4324 30.7706 26.3735 30.8539 26.7317 30.8098C27.0899 30.7657 27.1978 30.6187 27.2076 30.5599C27.2174 30.506 27.0408 30.4913 26.8494 30.4668C26.8494 30.4668 26.6336 30.6383 26.3392 30.6481C26.0987 30.653 25.8387 30.5795 25.6718 30.5795C25.6718 30.6383 25.662 30.702 25.6718 30.7657C25.7013 30.9372 25.927 30.9127 26.1772 30.8441L26.1821 30.8392Z" fill="#233862"/>
<path d="M21.457 31.5401C21.3589 31.6822 21.5257 31.8489 21.7416 32.0106C21.9526 32.1723 21.8594 32.1772 22.1243 32.4418C22.3893 32.7065 22.561 32.7016 22.6101 32.6721C22.6543 32.6476 22.5463 32.4859 22.4384 32.3144C22.4237 32.2948 22.4089 32.2703 22.3991 32.2507C22.2765 32.0547 22.2765 31.8244 22.2323 31.5842C22.193 31.3539 22.5316 30.511 22.5316 30.511L21.9821 30.4326C21.9821 30.4326 21.9085 30.9423 21.8496 31.1481C21.8152 31.2706 21.6631 31.349 21.5797 31.4176C21.5355 31.4568 21.4914 31.4911 21.457 31.545V31.5401Z" fill="#FFB27D"/>
<path d="M21.7416 32.0109C21.9526 32.1726 21.8594 32.1775 22.1243 32.4422C22.3893 32.7068 22.561 32.7019 22.6101 32.6725C22.6542 32.648 22.5463 32.4863 22.4383 32.3148C22.4383 32.3148 22.1832 32.2511 21.982 32.0109C21.8152 31.8149 21.6974 31.5503 21.5846 31.418C21.5404 31.4572 21.4963 31.4915 21.4619 31.5454C21.3638 31.6875 21.5306 31.8541 21.7465 32.0158L21.7416 32.0109Z" fill="#233862"/>
<path d="M23.6994 27.2179L23.1989 28.7027L22.5463 30.6384C22.5463 30.6384 22.3697 30.658 22.1979 30.6041C22.0409 30.5551 21.8594 30.4228 21.8594 30.4228C21.8594 30.4228 22.0409 28.345 22.3795 27.1493C22.4678 26.8406 22.5659 26.5955 22.669 26.4534C23.194 25.7722 23.6945 27.213 23.6945 27.213L23.6994 27.2179Z" fill="#163560"/>
<path d="M23.1893 24.8605C22.8606 24.7428 21.8694 24.8114 20.9322 25.0173L20.7899 24.7379L18.7586 24.5615C18.7586 24.5615 18.0864 26.1983 18.4544 27.2372C18.5083 27.3891 18.6163 27.4871 18.7978 27.492H18.8273C18.8273 27.492 20.0343 27.492 20.4269 27.492C21.4376 27.492 22.5662 26.7275 22.7134 26.6981C22.9538 26.6442 23.047 27.1686 23.2875 27.7223C23.5279 28.2761 25.5347 30.1677 25.5347 30.1677C25.5347 30.1677 25.8438 30.1677 25.9714 30.1187C26.1088 30.0599 26.1579 29.9864 26.1579 29.9864C26.1579 29.9864 23.9351 25.1202 23.1942 24.8605H23.1893Z" fill="#2A4E96"/>
<path d="M20.0736 17.9754C19.789 17.9019 19.4014 17.9901 19.3327 17.995C18.5623 18.093 18.3906 19.4113 18.4446 19.7788C18.5525 20.46 18.2532 20.6511 17.8999 21.195C17.1885 22.283 17.6791 23.1847 18.2581 23.4052C18.6065 23.5375 19.0775 23.1749 19.0775 23.1749C19.0873 23.1749 20.3042 21.9007 20.9077 21.2784C21.9185 20.8177 20.7998 18.1665 20.0736 17.9754Z" fill="#323F4B"/>
<path d="M20.2401 21.0828C20.2401 21.0828 19.9261 21.3131 19.666 21.2641C19.4207 21.22 19.1655 20.8672 19.1655 20.8672C19.2637 20.8329 19.352 20.7055 19.2882 20.0537H19.3324L20.1125 20.1419C20.1125 20.1419 20.1174 20.4065 20.142 20.6565C20.1616 20.8672 20.191 21.0632 20.2352 21.0779L20.2401 21.0828Z" fill="#FFB27D"/>
<path d="M20.1176 20.1468C20.1176 20.1468 20.1225 20.4114 20.147 20.6613C19.7201 20.6956 19.4552 20.2938 19.3374 20.0635L20.1176 20.1468Z" fill="#ED975D"/>
<path d="M20.2795 20.3665C20.2795 20.3665 19.2687 20.494 19.2049 19.803C19.1411 19.112 18.9694 18.6612 19.6073 18.5485C20.25 18.4357 20.3972 18.6857 20.4708 18.9111C20.5444 19.1365 20.5346 20.3126 20.2746 20.3665H20.2795Z" fill="#FFB27D"/>
<path d="M20.3579 18.5582C20.3579 18.5582 19.8722 19.3276 19.4551 19.4942C19.0429 19.6609 18.8467 19.558 18.8467 19.558C18.8467 19.558 19.0429 19.259 19.1067 18.8474C19.1264 18.7249 19.2049 18.6269 19.3079 18.5828C19.6023 18.47 20.1764 18.2936 20.353 18.5582H20.3579Z" fill="#52606D"/>
<path d="M19.9556 18.6128C19.9556 18.6128 20.2156 18.7745 20.3187 18.9215C20.4168 19.0636 20.5247 19.4361 20.51 19.6027C20.51 19.6027 20.6719 18.8137 20.4119 18.5295C20.1322 18.2256 19.9556 18.6128 19.9556 18.6128Z" fill="#52606D"/>
<path d="M21.0153 22.9204C20.9859 25.1599 21.0055 24.6944 20.7847 24.9051C20.7307 24.9541 20.5786 24.9884 20.3824 25.0031C19.7592 25.0472 18.6601 24.9345 18.6159 24.8071C18.4737 24.366 18.5718 24.2288 18.454 23.5575C18.4393 23.484 18.4246 23.4104 18.4099 23.3222C18.3117 22.8616 18.2136 22.7048 18.5669 21.9599C18.8907 21.2885 19.2391 20.7495 19.2685 20.7691C20.1174 21.3228 20.1763 20.8475 20.1763 20.8475C20.1763 20.8475 21.0349 21.8227 21.0202 22.9155L21.0153 22.9204Z" fill="white"/>
<path d="M23.199 28.7029L22.5317 30.7219C22.5317 30.7219 22.2913 30.8101 22.1146 30.7807C21.938 30.7513 21.8398 30.6435 21.8398 30.6435C21.8398 30.6435 22.0459 28.3451 22.3845 27.1543L23.2039 28.7078L23.199 28.7029Z" fill="#2A4E96"/>
<path d="M20.1714 20.8516C20.1714 20.8516 21.0448 21.0133 21.1478 21.4298C21.2509 21.8464 22.0016 24.13 22.0016 24.13C22.0016 24.13 21.4079 24.3701 21.2018 24.1447C20.9957 23.9193 20.4854 22.0473 20.4854 22.0473L20.1665 20.8516H20.1714Z" fill="white"/>
<path d="M20.3824 25.003C19.7593 25.0471 18.6602 24.9344 18.616 24.807C18.4737 24.3659 18.5719 24.2287 18.4541 23.5573L18.7485 22.8223C18.7485 22.8223 18.7092 23.6603 18.984 23.9347C19.2637 24.2091 20.1273 24.4639 20.2598 24.6894C20.3235 24.7972 20.3677 24.9099 20.3824 24.9981V25.003Z" fill="#DFEBFD"/>
<path d="M20.4316 24.5273C20.4316 24.5273 20.6181 24.7038 20.6721 24.7185C20.726 24.7332 20.7555 24.7185 20.7555 24.7185L20.6181 24.542L20.4316 24.5273Z" fill="#FFB27D"/>
<path d="M20.3579 24.3164L20.829 24.4487C20.829 24.4487 20.8191 24.4879 20.7652 24.4928C20.7112 24.5026 20.5689 24.4781 20.5689 24.4781L20.3579 24.3115V24.3164Z" fill="#FFB27D"/>
<path d="M19.5581 24.6008C19.5581 24.6008 20.2303 24.2725 20.3579 24.3166C20.4855 24.3607 20.8093 24.5469 20.8584 24.6302C20.9074 24.7086 20.5934 24.6204 20.4953 24.6155C20.4315 24.6155 20.2843 24.7086 20.2107 24.7527C19.9016 24.9487 19.6857 24.9291 19.6857 24.9291L19.563 24.6008H19.5581Z" fill="#FFB27D"/>
<path d="M19.2638 20.7735C19.2638 20.7735 18.3119 20.9695 18.1353 21.2586C17.7526 21.8908 16.9331 24.5125 17.3895 24.8654C17.9047 25.2623 19.7398 24.9683 19.7398 24.9683C19.7398 24.9683 19.7986 24.6547 19.7152 24.5027C19.6318 24.3508 18.2481 24.1058 18.1843 24.0372C18.1206 23.9686 18.8124 22.9542 18.7388 22.7582C18.5033 22.1358 19.2589 20.7686 19.2589 20.7686L19.2638 20.7735Z" fill="white"/>
<path d="M23.0273 24.4932C23.0273 24.4932 23.6946 24.6892 23.7633 24.8068C23.832 24.9195 23.9644 25.2674 23.9595 25.3606C23.9546 25.4537 23.7731 25.1792 23.7044 25.1106C23.6602 25.0665 23.4983 25.042 23.4198 25.0273C23.2235 24.993 23.1254 24.8901 23.0518 24.8411C23.0027 24.8068 22.9438 24.8117 22.9438 24.8117L23.0273 24.4932Z" fill="#FFB27D"/>
<path d="M23.7046 25.0029C23.7046 25.0029 23.7438 25.2529 23.7782 25.297C23.8076 25.3411 23.8371 25.3509 23.8371 25.3509V25.1352L23.7046 25.0029Z" fill="#FFB27D"/>
<path d="M23.7632 24.8018L24.0331 25.2036C24.0331 25.2036 24.0036 25.2232 23.9595 25.1938C23.9153 25.1644 23.827 25.0566 23.827 25.0566L23.7632 24.8018Z" fill="#FFB27D"/>
<path d="M23.0518 24.8359C23.0518 24.8359 23.1155 25.0026 23.2382 25.0614C23.3609 25.1202 23.4541 25.2084 23.4737 25.179C23.4934 25.1447 23.3805 24.9781 23.3805 24.9781L23.0567 24.8359H23.0518Z" fill="#FFB27D"/>
<path d="M21.8302 23.5918L23.2286 24.567C23.2286 24.567 23.0814 24.7826 23.0323 24.8022C22.7723 24.9051 21.6045 24.8022 21.207 24.1456L21.8302 23.5918Z" fill="white"/>
<path d="M21.2756 24.6496C21.359 24.6496 22.1784 24.5859 22.1784 24.5859C22.1784 24.5859 22.1539 24.7477 22.2078 24.831L21.408 24.9976L21.2412 24.9437L21.2756 24.6447V24.6496Z" fill="#F9DDBF"/>
<path d="M19.9019 24.7964L21.2708 24.6494C21.2708 24.6494 21.2218 24.9287 21.4033 25.0023L19.8921 25.1248C19.8921 25.1248 19.7694 24.9385 19.9019 24.7964Z" fill="#F99746"/>
<path d="M22.1783 24.6056L21.251 24.684C21.251 24.684 21.2559 24.6497 21.2755 24.6497C21.2951 24.6497 22.198 24.5762 22.198 24.5762V24.6056H22.1783Z" fill="#F99746"/>
<path d="M21.4031 25.0027L22.2225 24.8311L22.2127 24.8066L21.3442 24.9929L21.4031 25.0027Z" fill="#F99746"/>
<path d="M11.9033 32.7649H11.8934C11.8493 32.7649 11.8149 32.7257 11.8149 32.6767L11.9327 27.0509L12.2762 27.0068L11.9818 32.6767C11.9818 32.7257 11.9425 32.7649 11.8984 32.7649H11.9033Z" fill="#52606D"/>
<path d="M9.89154 32.7649H9.88173C9.83757 32.7649 9.80322 32.7257 9.80322 32.6767L9.92098 27.0509L10.2645 27.0068L9.97005 32.6767C9.97005 32.7257 9.9308 32.7649 9.88664 32.7649H9.89154Z" fill="#52606D"/>
<path d="M15.451 32.7649H15.4608C15.505 32.7649 15.5394 32.7257 15.5394 32.6767L15.4216 27.0509L15.0781 27.0068L15.3725 32.6767C15.3725 32.7257 15.4118 32.7649 15.4559 32.7649H15.451Z" fill="#52606D"/>
<path d="M9.66113 26.7029V22.8462C9.66113 22.17 10.1567 21.6162 10.77 21.6162H13.2823C13.8956 21.6162 14.3912 22.1651 14.3912 22.8462V26.85L9.66113 26.7029Z" fill="#52606D"/>
<path d="M9.66113 26.7031H14.8426V27.3108H10.2696C9.931 27.3108 9.66113 27.0364 9.66113 26.7031Z" fill="#52606D"/>
<path d="M15.3674 26.7031H11.815C11.6469 26.7031 11.5107 26.8392 11.5107 27.007C11.5107 27.1748 11.6469 27.3108 11.815 27.3108H15.3674C15.5354 27.3108 15.6716 27.1748 15.6716 27.007C15.6716 26.8392 15.5354 26.7031 15.3674 26.7031Z" fill="#52606D"/>
<path d="M13.4537 20.1953C13.4537 20.1953 13.2427 20.3913 13.1986 20.901C13.1642 21.2881 13.4095 24.297 13.5911 24.5323C14.1063 25.2036 14.754 24.9194 15.0091 25.0223L15.2496 24.7871C15.2496 24.7871 14.4056 24.1059 14.3418 23.8805C14.0965 23.0229 14.2486 20.5187 13.4537 20.1953Z" fill="#F9DDBF"/>
<path d="M13.3016 17.74C13.3016 17.74 13.3163 17.1862 12.6539 17.0784C11.9915 16.9706 11.8099 17.1421 11.6971 17.3234C11.5842 17.5096 11.3733 18.2643 11.3929 18.5682C11.4125 18.8671 12.1681 19.2444 12.1534 19.4159C12.1387 19.5924 13.2967 17.7351 13.2967 17.7351L13.3016 17.74Z" fill="#323F4B"/>
<path d="M16.3684 32.2899C16.3488 32.4762 16.5794 32.5301 16.8444 32.5595C17.1142 32.584 17.0308 32.6428 17.3939 32.7359C17.7619 32.8241 17.914 32.7163 17.9386 32.6624C17.9631 32.6134 17.7963 32.5301 17.6147 32.437C17.5902 32.4271 17.5706 32.4124 17.546 32.4026C17.3449 32.2948 17.2369 32.0841 17.0799 31.8832C16.9327 31.697 16.81 31.1089 16.81 31.1089L16.3145 30.9668C16.3145 30.9668 16.4371 31.4961 16.4813 31.7215C16.5058 31.8538 16.4567 32.0008 16.4175 32.1086C16.393 32.1674 16.3733 32.2311 16.3635 32.2948L16.3684 32.2899Z" fill="#FFB27D"/>
<path d="M16.8443 32.5592C17.1142 32.5838 17.0308 32.6426 17.3939 32.7357C17.7619 32.8239 17.914 32.7161 17.9385 32.6622C17.9631 32.6132 17.7962 32.5298 17.6147 32.4367C17.6147 32.4367 17.3497 32.5298 17.0553 32.4269C16.8149 32.3436 16.5843 32.1721 16.4174 32.1084C16.3929 32.1672 16.3733 32.2309 16.3635 32.2946C16.3438 32.4808 16.5745 32.5347 16.8394 32.5641L16.8443 32.5592Z" fill="#233862"/>
<path d="M12.644 24.6942C12.644 24.6942 15.9708 25.0716 16.5203 25.6351C17.0699 26.1938 16.9717 31.4128 16.9717 31.4128C16.8883 31.5108 16.8245 31.5059 16.6871 31.4961C16.5596 31.4863 16.2946 31.3638 16.2946 31.3638C16.2946 31.3638 15.5831 28.8009 15.5733 28.2079C15.5635 27.6149 15.4506 26.6103 15.2249 26.5466C14.9992 26.4878 12.3055 26.8211 12.0111 25.8851C11.7167 24.9491 12.2073 24.1797 12.2073 24.1797L12.6489 24.6942H12.644Z" fill="#FF9466"/>
<path d="M11.089 25.6349C11.2313 25.7427 11.4913 25.9045 11.9182 25.9192C12.6885 25.9486 13.6503 25.8506 13.8416 25.6545C13.8907 25.6055 13.9152 25.5173 13.9201 25.4144C13.9397 25.091 13.7975 24.5519 13.7042 24.1109C13.6404 23.8217 13.6012 23.5767 13.6355 23.4493C13.7386 23.0622 14.0624 22.2732 14.0919 22.0135C14.1213 21.7537 13.8367 20.3669 13.4491 20.1954C13.0615 20.0239 11.56 20.1954 11.56 20.1954C10.9761 20.3277 10.9516 21.6998 11.1429 22.871C11.1478 22.9004 11.1527 22.9299 11.1577 22.9593C11.3686 24.1452 10.6817 25.3409 11.0841 25.6349H11.089Z" fill="#F9DDBF"/>
<path d="M13.027 20.4456C13.0172 20.5191 12.8307 20.6416 12.4284 20.5289C12.0456 20.4162 11.9966 20.279 11.9966 20.1908C11.9966 20.083 12.1634 19.936 12.1634 19.2793L12.2076 19.2891L12.9828 19.4557C12.9828 19.4557 12.9632 19.7252 12.9632 19.9752C12.9632 20.1859 13.0417 20.3231 13.027 20.4505V20.4456Z" fill="#FFB27D"/>
<path d="M12.9828 19.4508C12.9828 19.4508 12.9631 19.7203 12.9631 19.9703C12.5314 19.9556 12.3007 19.5243 12.2075 19.2793L12.9828 19.4459V19.4508Z" fill="#ED975D"/>
<path d="M13.1254 19.6904C13.1254 19.6904 12.0999 19.71 12.0999 19.0044C12.0999 18.3036 11.9674 17.8331 12.62 17.789C13.2726 17.7498 13.4002 18.0145 13.4542 18.2497C13.5081 18.4849 13.3904 19.6659 13.1254 19.6855V19.6904Z" fill="#FFB27D"/>
<path d="M13.0909 17.7747C13.0909 17.7747 12.8113 18.598 12.3795 18.7205C11.9477 18.843 11.7612 18.7156 11.7612 18.7156C11.7612 18.7156 12.09 18.4265 12.1587 17.9217C12.1587 17.9217 12.875 17.3827 13.0909 17.7747Z" fill="#3E4C59"/>
<path d="M13.0176 17.843C13.0176 17.843 13.2286 18.0292 13.2776 18.2056C13.3267 18.382 13.3512 18.7545 13.4494 18.7398C13.4494 18.7398 13.6604 18.1811 13.4248 17.8626C13.1746 17.5244 13.0176 17.843 13.0176 17.843Z" fill="#3E4C59"/>
<path d="M13.8711 32.4418C13.8711 32.6281 14.1018 32.6526 14.3716 32.6477C14.6415 32.6379 14.563 32.7065 14.9359 32.7506C15.3088 32.7947 15.4511 32.6673 15.4707 32.6085C15.4903 32.5595 15.3137 32.4958 15.1273 32.4222C15.1027 32.4124 15.0782 32.4026 15.0537 32.3928C14.8427 32.3095 14.7102 32.1135 14.5385 31.9371C14.3765 31.7705 14.7347 30.957 14.7347 30.957L14.2588 30.6973C14.2588 30.6973 14.1704 31.2755 14.0527 31.7852C14.0232 31.9175 13.9251 32.1331 13.8957 32.2458C13.881 32.3095 13.8613 32.3732 13.8613 32.4369L13.8711 32.4418Z" fill="#FFB27D"/>
<path d="M11.1083 25.4932C11.2506 25.601 11.4862 25.8999 11.918 25.9195C12.6294 25.7431 13.439 25.5324 13.9199 25.4099C13.9395 25.0864 13.7972 24.5474 13.704 24.1063C13.1446 24.2926 12.3056 23.6506 12.0259 23.4007C11.7315 23.136 11.7413 22.2441 11.7413 22.2441L11.1476 22.8665C11.1525 22.8959 11.1574 22.9253 11.1623 22.9547C11.3733 24.1406 10.706 25.1991 11.1083 25.4932Z" fill="#F2CCAA"/>
<path d="M14.3716 32.6479C14.6415 32.6381 14.563 32.7067 14.9359 32.7508C15.3088 32.7949 15.4511 32.6675 15.4707 32.6087C15.4903 32.5597 15.3137 32.496 15.1272 32.4225C15.1272 32.4225 14.877 32.545 14.5679 32.4813C14.3176 32.4274 14.0723 32.2853 13.9006 32.2461C13.8858 32.3098 13.8662 32.3735 13.8662 32.4372C13.8662 32.6234 14.0968 32.6479 14.3667 32.643L14.3716 32.6479Z" fill="#233862"/>
<path d="M11.9231 24.9149C12.7671 24.8904 15.2891 25.1109 15.7749 25.5127C16.3735 26.0077 14.666 31.3541 14.666 31.3541C14.666 31.3541 14.4697 31.3737 14.4059 31.3688C14.1361 31.3345 14.0232 31.2463 14.0232 31.2463C14.0232 31.2463 14.0281 28.1002 14.2293 27.4974C14.4108 26.9388 14.5237 26.7428 14.2931 26.7085C14.0625 26.6742 11.1871 27.0809 10.9467 26.1253C10.7603 25.3804 11.035 24.6895 11.035 24.6895C11.035 24.6895 11.1381 24.9443 11.9182 24.9198L11.9231 24.9149Z" fill="#F9703E"/>
<path d="M11.5648 20.1954C11.5648 20.1954 10.976 20.2493 10.9318 20.7589C10.8975 21.1461 10.6423 23.8953 10.8239 24.1305C11.3391 24.8019 13.0662 24.944 13.3214 25.0469L13.3901 24.7284C13.3901 24.7284 11.5501 23.709 11.5795 23.4787C11.609 23.2484 12.1291 20.1023 11.5648 20.1954Z" fill="#F9DDBF"/>
<path d="M12.0162 17.3579C12.0162 17.3579 12.0604 17.0639 11.6875 16.9855C11.3146 16.9071 11.3097 17.7744 11.2704 17.9852C11.2312 18.1959 11.3293 18.3184 11.4716 18.3331C11.6139 18.3478 12.0162 17.3579 12.0162 17.3579Z" fill="#323F4B"/>
<path d="M13.4099 24.7132C13.4099 24.7132 13.935 24.5515 14.0576 24.5858C14.1803 24.625 14.6121 24.9338 14.5483 25.022C14.4894 25.1053 14.1116 24.973 13.9399 24.9975C13.7681 25.022 13.6307 25.1151 13.5081 25.0955C13.3854 25.0759 13.2529 25.022 13.2529 25.022L13.4099 24.7132Z" fill="#FFB27D"/>
<path d="M13.4102 24.7132C13.4102 24.7132 13.6653 24.5662 13.7389 24.4878C13.7487 24.478 13.7635 24.478 13.7684 24.4878C13.788 24.5221 13.8076 24.5858 13.7144 24.6544C13.5868 24.7475 13.4053 24.7132 13.4053 24.7132H13.4102Z" fill="#FFB27D"/>
<path d="M15.2497 24.7871C15.2497 24.7871 15.7943 24.8214 15.9023 24.8998C16.0102 24.9782 16.3242 25.4291 16.2408 25.4879C16.1574 25.5467 15.8434 25.2821 15.6717 25.2478C15.4999 25.2086 15.3478 25.2478 15.235 25.189C15.1221 25.1252 15.0142 25.0272 15.0142 25.0272L15.2546 24.792L15.2497 24.7871Z" fill="#FFB27D"/>
<path d="M11.5114 32.8139H9.29852C9.19057 32.6718 9.22983 32.1426 9.24945 31.971C9.24945 31.9367 9.25436 31.9171 9.25436 31.9171C9.25436 31.9171 10.01 31.2507 10.113 31.7603C10.113 31.775 10.1179 31.7897 10.1228 31.8093C10.2553 32.2847 10.8392 32.5003 11.1778 32.564C11.3986 32.6032 11.4771 32.7306 11.5114 32.8188V32.8139Z" fill="#1B3051"/>
<path d="M5.47127 24.9043C5.54978 24.9043 9.26414 25.6688 9.87747 26.5068C10.1866 26.9233 10.2308 31.7454 10.2308 31.7454C10.2308 31.7454 9.85294 32.2649 9.03352 31.961C9.03352 31.961 8.43491 28.663 8.47907 27.6584C8.49379 27.384 5.94231 27.6192 5.47618 27.4869C5.01004 27.3546 3.87169 26.2373 4.12193 25.6933C4.37217 25.1493 5.47618 24.8994 5.47618 24.8994L5.47127 24.9043Z" fill="#233862"/>
<path d="M8.16014 24.6797C8.16014 24.6797 8.39567 24.9051 8.641 24.9688C8.77839 25.0031 8.91577 25.0472 8.99428 25.0864C9.21508 25.1991 9.63215 25.6941 9.5929 25.7431C9.47023 25.8999 8.96484 25.4883 8.87161 25.5177C8.77348 25.5471 9.02863 25.7872 8.9305 25.8509C8.87652 25.8852 8.77839 25.6794 8.68516 25.65C8.55759 25.6108 8.47908 25.4001 8.43983 25.3903C8.36623 25.3609 8.06201 25.0619 8.06201 25.0619L8.16014 24.6797Z" fill="#FFB27D"/>
<path d="M12.4929 32.8139H10.28C10.172 32.6718 10.2113 32.1426 10.2309 31.971C10.2309 31.9367 10.2358 31.9171 10.2358 31.9171C10.2358 31.9171 10.9914 31.2507 11.0945 31.7603C11.0945 31.775 11.0994 31.7897 11.1043 31.8093C11.2368 32.2847 11.8207 32.5003 12.1592 32.564C12.38 32.6032 12.4585 32.7306 12.4929 32.8188V32.8139Z" fill="#1E3C68"/>
<path d="M6.56551 24.9043C6.64401 24.9043 10.3584 25.6688 10.9717 26.5068C11.2808 26.9233 11.325 31.7454 11.325 31.7454C11.325 31.7454 10.9472 32.2649 10.1278 31.961C10.1278 31.961 9.52915 28.663 9.57331 27.6584C9.58312 27.384 7.03655 27.6192 6.57041 27.4869C6.10428 27.3546 4.96593 26.2373 5.21617 25.6933C5.46641 25.1493 6.57041 24.8994 6.57041 24.8994L6.56551 24.9043Z" fill="#2B478B"/>
<path d="M6.33499 19.9454C6.07003 19.9209 5.79035 19.8425 5.54502 19.7543C5.2408 19.6465 5.00038 19.4896 5.15739 19.1858C5.30459 18.9065 5.53521 18.2792 5.52049 17.7598L6.08475 18.2596L6.46748 18.5978C6.46748 18.5978 6.46748 18.7987 6.42332 19.1466C6.4135 19.2103 6.40859 19.2789 6.39387 19.3524C6.38406 19.4112 6.4086 19.47 6.45766 19.5043C6.45766 19.5043 6.46257 19.5043 6.46748 19.5092C6.65884 19.6416 6.5607 19.965 6.33499 19.9405V19.9454Z" fill="#FFB27D"/>
<path d="M6.46225 18.5149C6.46225 18.5149 6.48188 18.5885 6.44754 18.8531C6.10897 18.7943 5.79004 18.4953 5.79004 18.4953C5.96177 18.4414 6.02556 18.2356 6.15804 18.2552L6.46716 18.5149H6.46225Z" fill="#ED975D"/>
<path d="M6.78128 18.5781C6.78128 18.5781 5.4712 18.8182 5.34853 17.9165C5.22586 17.0148 4.97562 16.4415 5.80485 16.2504C6.63899 16.0592 6.84507 16.3778 6.95302 16.6669C7.06096 16.956 7.11984 18.4948 6.78128 18.5781Z" fill="#FFB27D"/>
<path d="M7.14443 16.2651C7.19841 16.4808 7.0512 16.7454 6.79606 16.8336C6.41824 16.961 6.50166 17.4707 6.33483 17.4609C6.168 17.456 6.09931 17.1717 5.9472 17.3971C5.81963 17.5932 6.05515 17.8186 6.04043 17.9264C6.01099 18.1077 5.75093 18.4802 5.52032 18.4655C5.2848 18.4459 4.8481 17.2256 4.93642 16.8434C5.02474 16.4661 5.37312 16.0642 5.70677 16.0103C6.04043 15.9564 6.49675 16.1132 6.6047 16.1132C6.71264 16.1132 7.1199 16.1475 7.14934 16.2651H7.14443Z" fill="#323F4B"/>
<path d="M7.4683 24.6348C7.44868 24.8407 7.40452 24.9828 7.34564 25.0318C7.14937 25.1739 6.88931 25.3552 6.59982 25.5316C5.57432 26.1589 4.17101 26.7666 3.88642 25.7031C3.55277 24.4535 3.77357 22.1111 4.10232 20.6556C4.29368 19.8176 4.81379 18.9355 5.17197 18.9355C5.7755 18.9355 6.64398 19.112 6.99235 20.0627C7.12974 20.4302 7.32601 21.7043 7.42905 22.8756C7.48793 23.5714 7.51737 24.2281 7.47321 24.6348H7.4683Z" fill="white"/>
<path d="M5.1084 18.9456L5.24579 18.6074C5.24579 18.6074 6.45774 18.7446 6.66382 19.5091C6.66382 19.5091 5.72664 18.9652 5.1084 18.9456Z" fill="#DFEBFD"/>
<path d="M7.46842 24.6352C7.44879 24.841 7.40463 24.9831 7.34575 25.0321C7.14949 25.1742 6.88943 25.3556 6.59994 25.532C6.29572 25.3311 5.67748 24.8508 5.53519 24.2823C5.34383 23.5424 5.47631 22.626 5.47631 22.626L7.46842 24.6352Z" fill="#DFEBFD"/>
<path d="M5.35352 20.0874C5.35352 20.0874 5.45656 23.2776 5.62338 23.9049C5.90306 24.9781 8.46926 25.3652 8.46926 25.3652C8.46926 25.3652 8.62137 25.179 8.55267 24.8654C8.55267 24.8654 7.02179 23.5373 6.97272 23.2825C6.92856 23.0277 7.30638 21.3174 6.87459 20.6901C6.4428 20.0678 5.64301 19.5287 5.35352 20.0874Z" fill="white"/>
<path d="M2.1396 32.7854H2.12979C2.0611 32.7854 2.00712 32.7217 2.01203 32.6482L2.47326 27.5859L2.87561 27.6251L2.2132 32.7119C2.2083 32.7511 2.17395 32.7805 2.1347 32.7805L2.1396 32.7854Z" fill="#3E4C59"/>
<path d="M4.50923 32.7854H4.49942C4.43072 32.7854 4.37675 32.7217 4.38166 32.6482L4.84289 27.5859L5.24523 27.6251L4.58283 32.7119C4.57792 32.7511 4.54358 32.7805 4.50432 32.7805L4.50923 32.7854Z" fill="#3E4C59"/>
<path d="M8.95964 32.7854H8.96945C9.03814 32.7854 9.09212 32.7217 9.08721 32.6482L8.62598 27.5859L8.22363 27.6251L8.88604 32.7119C8.89094 32.7511 8.92529 32.7805 8.96454 32.7805L8.95964 32.7854Z" fill="#3E4C59"/>
<path d="M2.26704 26.8751L1.83035 22.6508C1.77147 22.0432 1.95792 21.4453 2.75771 21.4012L4.16102 21.3081C4.99516 21.2689 5.36807 22.0334 5.47602 22.6214L6.31015 27.2671L2.26704 26.88V26.8751Z" fill="#3E4C59"/>
<path d="M8.56735 27.6592H2.68424C2.45853 27.6592 2.27698 27.4779 2.27698 27.2524V26.8457H8.56735C8.79306 26.8457 8.97461 27.027 8.97461 27.2524C8.97461 27.4779 8.79306 27.6592 8.56735 27.6592Z" fill="#3E4C59"/>
<path d="M5.90769 27.6592H2.67909C2.45338 27.6592 2.27183 27.4779 2.27183 27.2524V26.8457H5.90769C6.13339 26.8457 6.31494 27.027 6.31494 27.2524C6.31494 27.4779 6.13339 27.6592 5.90769 27.6592Z" fill="#3E4C59"/>
<path d="M55.8724 32.75H0.436656C0.366199 32.75 0.309082 32.8059 0.309082 32.875C0.309082 32.944 0.366199 32.9999 0.436656 32.9999H55.8724C55.9428 32.9999 56 32.944 56 32.875C56 32.8059 55.9428 32.75 55.8724 32.75Z" fill="#323F4B"/>
<path d="M12.3355 12.6042C12.3355 11.9086 11.7709 11.3447 11.0745 11.3447C10.3781 11.3447 9.81348 11.9086 9.81348 12.6042V12.7757C9.81348 13.4712 10.3781 14.0351 11.0745 14.0351C11.7709 14.0351 12.3355 13.4712 12.3355 12.7757V12.6042Z" fill="#77A4E5"/>
<path d="M12.2226 12.6135C12.2226 11.9775 11.7075 11.4619 11.072 11.4619C10.4365 11.4619 9.92139 11.9775 9.92139 12.6135V12.7654C9.92139 13.4015 10.4365 13.9171 11.072 13.9171C11.7075 13.9171 12.2226 13.4015 12.2226 12.7654V12.6135Z" fill="#DFEBFD"/>
<path d="M11.0745 11.766C11.1043 11.766 11.1285 11.7397 11.1285 11.7072C11.1285 11.6748 11.1043 11.6484 11.0745 11.6484C11.0447 11.6484 11.0205 11.6748 11.0205 11.7072C11.0205 11.7397 11.0447 11.766 11.0745 11.766Z" fill="#77A4E5"/>
<path d="M11.4425 11.7861C11.4572 11.7567 11.4866 11.7469 11.5112 11.7616C11.5357 11.7763 11.5455 11.8106 11.5308 11.84C11.5161 11.8694 11.4866 11.8792 11.4621 11.8645C11.4376 11.8498 11.4277 11.8155 11.4425 11.7861Z" fill="#77A4E5"/>
<path d="M11.8057 12.1045C11.8057 12.1045 11.8646 12.0947 11.8793 12.1192C11.894 12.1437 11.8891 12.1829 11.8646 12.1976C11.8401 12.2172 11.8057 12.2074 11.791 12.1829C11.7763 12.1584 11.7812 12.1192 11.8057 12.1045Z" fill="#77A4E5"/>
<path d="M11.9822 12.5889C12.0116 12.5889 12.0362 12.6134 12.0362 12.6477C12.0362 12.682 12.0116 12.7065 11.9822 12.7065C11.9528 12.7065 11.9282 12.682 11.9282 12.6477C11.9282 12.6134 11.9528 12.5889 11.9822 12.5889Z" fill="#77A4E5"/>
<path d="M11.8548 13.2563C11.8846 13.2563 11.9087 13.23 11.9087 13.1975C11.9087 13.165 11.8846 13.1387 11.8548 13.1387C11.8249 13.1387 11.8008 13.165 11.8008 13.1975C11.8008 13.23 11.8249 13.2563 11.8548 13.2563Z" fill="#77A4E5"/>
<path d="M11.5654 13.5203C11.5654 13.5203 11.585 13.5791 11.5654 13.6036C11.5457 13.6281 11.5114 13.6281 11.4918 13.6036C11.4721 13.5791 11.4721 13.5448 11.4918 13.5203C11.5114 13.4958 11.5457 13.4958 11.5654 13.5203Z" fill="#77A4E5"/>
<path d="M11.0745 13.7651C11.1043 13.7651 11.1285 13.7387 11.1285 13.7063C11.1285 13.6738 11.1043 13.6475 11.0745 13.6475C11.0447 13.6475 11.0205 13.6738 11.0205 13.7063C11.0205 13.7387 11.0447 13.7651 11.0745 13.7651Z" fill="#77A4E5"/>
<path d="M10.7017 11.7861C10.687 11.7567 10.6575 11.7469 10.633 11.7616C10.6085 11.7763 10.5986 11.8106 10.6134 11.84C10.6281 11.8694 10.6575 11.8792 10.6821 11.8645C10.7066 11.8498 10.7164 11.8155 10.7017 11.7861Z" fill="#77A4E5"/>
<path d="M10.3436 12.1045C10.3436 12.1045 10.2847 12.0947 10.27 12.1192C10.2553 12.1437 10.2602 12.1829 10.2847 12.1976C10.3093 12.2172 10.3436 12.2074 10.3583 12.1829C10.373 12.1584 10.3681 12.1192 10.3436 12.1045Z" fill="#77A4E5"/>
<path d="M10.1619 12.5898C10.1324 12.5898 10.1079 12.6143 10.1079 12.6486C10.1079 12.683 10.1324 12.7075 10.1619 12.7075C10.1913 12.7075 10.2159 12.683 10.2159 12.6486C10.2159 12.6143 10.1913 12.5898 10.1619 12.5898Z" fill="#77A4E5"/>
<path d="M10.2942 13.2563C10.324 13.2563 10.3482 13.23 10.3482 13.1975C10.3482 13.165 10.324 13.1387 10.2942 13.1387C10.2644 13.1387 10.2402 13.165 10.2402 13.1975C10.2402 13.23 10.2644 13.2563 10.2942 13.2563Z" fill="#77A4E5"/>
<path d="M10.5839 13.5213C10.5839 13.5213 10.5643 13.5801 10.5839 13.6046C10.6035 13.6291 10.6379 13.6291 10.6575 13.6046C10.6771 13.5801 10.6771 13.5458 10.6575 13.5213C10.6379 13.4968 10.6035 13.4968 10.5839 13.5213Z" fill="#77A4E5"/>
<path d="M11.0596 12.6477C11.0596 12.6183 11.0841 12.5889 11.1135 12.5889C11.143 12.5889 11.1675 12.6134 11.1675 12.6477C11.1675 12.682 11.143 12.7065 11.1135 12.7065C11.0841 12.7065 11.0596 12.682 11.0596 12.6477Z" fill="#77A4E5"/>
<path d="M11.1182 11.9326H11.1035V12.6481H11.1182V11.9326Z" fill="#77A4E5"/>
<path d="M11.1183 12.6672L11.0938 12.628L11.4372 12.3291L11.4667 12.3683L11.1183 12.6672Z" fill="#77A4E5"/>
</g>
<defs>
<clipPath id="clip0_1802_14350">
<rect width="56" height="33" fill="white"/>
</clipPath>
</defs>
</svg>
