<svg width="56" height="32" viewBox="0 0 56 32" fill="none" xmlns="http://www.w3.org/2000/svg">
<g clip-path="url(#clip0_1830_9259)">
<path d="M53.289 31.9323H40.6929H29.9964H28.521L3.57778 31.9226C3.57778 31.9226 2.25916 27.7335 2.61878 23.1953C2.66489 22.6329 2.72944 22.0511 2.83087 21.4887C2.89542 21.1396 2.96919 20.7905 3.05218 20.4414C3.42102 18.9771 4.03884 17.5517 4.98862 16.3105C10.7795 8.77593 18.2486 15.079 21.0611 14.8947C23.8643 14.7105 24.0211 7.48623 32.4123 6.6232C37.0597 6.14805 42.0576 7.2632 43.6621 12.2959C44.2983 14.2741 44.409 16.8632 43.7635 20.199C43.3947 22.1384 43.7082 23.3311 44.4182 24.0971C45.8936 25.6971 49.0657 25.4838 51.2326 26.4826C52.8463 27.2196 53.8976 28.6353 53.2705 31.9517L53.289 31.9323Z" fill="#FFE8D9"/>
<path d="M44.4367 24.0776L8.08698 30.1673C7.75502 28.6255 7.58904 26.9576 7.67203 25.1733L43.6714 12.2764C44.3076 14.2545 44.4183 16.8436 43.7728 20.1794C43.404 22.1188 43.7175 23.3115 44.4275 24.0776H44.4367Z" fill="#F8FBFF"/>
<path d="M29.2309 14.6426L2.61865 23.1856C2.66476 22.6232 2.72931 22.0414 2.83074 21.4789C2.89529 21.1299 2.96906 20.7808 3.05205 20.4317L29.2217 14.6523L29.2309 14.6426Z" fill="#F8FBFF"/>
<path d="M28.5211 31.9225H3.57792C3.57792 31.9225 1.9089 26.6085 2.83101 21.4788C4.37094 21.3819 6.90675 21.6243 9.57166 23.5734C13.7765 26.657 20.6924 24.3976 22.6934 26.1334C24.6943 27.8692 25.1554 29.6534 26.64 29.9637C27.9402 30.2352 28.4197 31.5831 28.5211 31.9225Z" fill="#FFD0B5"/>
<path d="M38.5903 11.1128C38.5903 10.6182 38.9039 10.2109 39.2819 10.2109C39.66 10.2109 39.9735 10.6085 39.9735 11.1128C39.9735 11.617 39.66 12.0146 39.2819 12.0146C38.9039 12.0146 38.5903 11.617 38.5903 11.1128Z" fill="#F8FBFF"/>
<path d="M36.1468 29.3625C36.8384 29.0813 37.7236 28.6255 37.2441 28.2861C36.7277 27.9176 36.0638 28.6934 35.7134 29.2073C35.695 29.2073 35.6765 29.2073 35.6581 29.1976C35.5659 29.1782 35.4736 29.1685 35.3814 29.1685C36.0638 27.7625 36.8199 25.8813 36.1745 25.6485C35.4736 25.3867 34.9757 27.6752 34.7267 29.2752C34.0444 29.4692 33.3067 29.8958 32.5505 30.177C32.2831 28.9067 31.6561 27.0158 30.3559 27.0643C28.9912 27.1128 30.6971 29.1589 31.8497 30.3904C31.5915 30.4485 31.3334 30.4679 31.0659 30.4582C29.3969 30.3613 28.3457 31.8255 28.3457 31.8255H37.3363C37.6775 31.137 37.1611 29.8667 36.156 29.3819L36.1468 29.3625Z" fill="#57AE5B"/>
<path d="M20.9137 0.911769C20.9137 0.911769 20.2867 0.0293447 20.093 0.000253831C19.8994 -0.0288371 19.1064 0.465708 19.0603 0.659648C19.0142 0.853587 19.9363 0.465708 19.9916 0.659648C20.0469 0.853587 20.1023 0.989345 20.3604 0.999042C20.6186 1.01844 20.8492 1.20268 20.8492 1.20268L20.9137 0.911769Z" fill="#FFB27D"/>
<path d="M21.6602 31.8063C21.4573 31.6512 21.5772 30.4779 21.5772 30.4779C21.5772 30.4779 22.5085 29.5179 22.6284 30.2548C22.7575 30.9918 23.5136 31.3118 23.9378 31.4088C24.2329 31.467 24.3251 31.6803 24.3527 31.8063H21.6602Z" fill="#233862"/>
<path d="M21.4945 31.0697C21.2547 30.9533 19.9361 26.8612 19.9914 25.523C19.9914 25.3679 19.973 24.0685 19.9361 23.8067C19.9084 23.5933 19.8715 23.3509 19.8162 23.0891C19.7424 22.6818 19.6502 22.2067 19.5488 21.6927C19.2629 20.2673 18.9125 18.5703 18.6636 17.2224C19.1062 15.9424 19.6779 14.8176 20.1943 14.4297C20.5631 14.4879 20.9228 14.5751 21.1902 14.6527C21.4023 14.8176 21.559 14.9533 21.6789 15.0697C21.7158 15.3315 21.7803 15.7776 21.8264 16.3497C21.8541 16.7279 21.8818 17.1545 21.9002 17.62C21.9924 20.9461 21.5406 24.563 22.684 30.4685C22.7117 30.6333 21.8541 31.2539 21.4852 31.0697H21.4945Z" fill="#2B478B"/>
<path d="M21.8357 16.3399C21.6421 17.5811 21.181 20.2187 19.5581 21.683C19.2722 20.2575 18.9218 18.5605 18.6729 17.2126C19.1155 15.9326 19.6872 14.8078 20.2036 14.4199C20.5724 14.4781 20.932 14.5654 21.1994 14.643C21.4115 14.8078 21.5683 14.9436 21.6882 15.0599C21.7251 15.3217 21.7896 15.7678 21.8357 16.3399Z" fill="#233862"/>
<path d="M19.8347 4.7034V4.90704C19.8347 4.90704 19.8808 5.55673 19.2538 5.6537C18.636 5.75067 18.1657 5.40158 18.1841 4.89734C18.2394 4.50946 18.304 4.24764 18.304 3.91795C18.304 3.80158 18.304 3.67552 18.2856 3.53007L19.4843 3.50098L19.8347 3.57855V4.7034Z" fill="#FFB27D"/>
<path d="M19.8441 3.57862V4.70347C19.715 4.78105 19.5674 4.82953 19.4107 4.82953C18.8574 4.82953 18.4978 4.30589 18.3134 3.92771C18.3134 3.81135 18.3134 3.68529 18.2949 3.53983L19.4937 3.51074L19.8441 3.58832V3.57862Z" fill="#E8945B"/>
<path d="M19.9082 4.12139C19.9082 4.12139 18.3683 4.51896 18.1931 3.28745C18.0179 2.04624 17.6951 1.26078 18.6726 0.960176C19.65 0.649873 19.9082 1.07654 20.0465 1.47412C20.1849 1.87169 20.3139 3.99533 19.9174 4.13109L19.9082 4.12139Z" fill="#FFB27D"/>
<path d="M18.802 31.8067C18.802 31.8067 18.719 31.2152 18.5807 30.8661C18.4516 30.5267 17.6033 30.74 17.6033 30.74C17.6033 30.74 17.4373 30.9242 17.4004 31.797H18.802V31.8067Z" fill="#233862"/>
<path d="M20.4617 15.0795C20.4617 15.0795 19.6226 19.928 19.3459 22.1098C19.2445 22.9243 19.0324 25.5522 19.0048 26.3765C18.9587 27.511 18.6728 30.9825 18.6728 30.9825C18.6728 30.9825 18.1841 30.5849 17.4556 30.9534C17.4556 30.9534 17.2712 29.3922 17.1513 26.134C17.1144 25.174 17.262 23.7389 17.2435 23.2734C17.1605 20.9752 16.5888 15.0504 17.0407 14.6625C17.4925 14.2843 20.4617 15.0698 20.4617 15.0698V15.0795Z" fill="#2B478B"/>
<path d="M20.3418 0.552942C20.3418 0.552942 19.9084 0.514154 19.4104 0.223245C18.9955 -0.0094822 18.4791 0.242639 18.3131 0.359003C18.3131 0.320215 18.3316 0.27173 18.35 0.232942C18.35 0.232942 18.2762 0.300821 18.267 0.39779L18.2578 0.407487C18.2578 0.407487 18.1748 0.388094 18.1195 0.417184C18.1195 0.417184 18.1563 0.417184 18.1748 0.446275C17.5385 0.843851 17.474 2.15294 17.6768 2.45355C17.9258 2.81234 18.2209 3.63658 18.2209 3.63658C18.2209 3.63658 18.3316 3.44264 18.2854 3.12264C18.2393 2.80264 18.4514 2.80264 18.7281 2.65718C18.9955 2.51173 18.7742 2.10446 19.0139 1.86203C19.2537 1.61961 20.1205 1.76506 20.1112 1.57112C20.434 1.41597 20.351 0.59173 20.351 0.543245L20.3418 0.552942Z" fill="#1F2933"/>
<path d="M20.7569 0.485352C20.7569 0.485352 20.6278 0.55323 20.554 0.785958C20.4526 1.08656 20.5356 1.25141 20.5356 1.25141C20.5356 1.25141 22.1677 3.15202 22.0571 3.50111C22.0017 3.68535 20.7384 4.63565 20.2128 5.02353C20.0008 5.00414 19.8348 5.00414 19.8255 5.00414C19.8255 5.00414 19.4659 6.4102 18.1934 4.89747C17.9721 5.31444 16.2293 6.35202 16.5336 8.13626C16.6074 8.55323 16.6627 8.95081 16.718 9.31929C17.0776 11.8502 17.05 13.3338 16.9762 14.1581C16.9209 14.7981 16.718 14.866 16.9024 15.0308C16.9024 15.0308 17.2621 15.2344 17.9352 15.4187C18.4332 15.5544 19.1063 15.6708 19.9362 15.6805C21.2456 15.6902 21.7435 15.1084 21.7435 15.1084C22.0939 14.672 21.4024 12.946 21.4577 11.695C21.4854 11.055 21.4577 8.87323 21.4577 7.86475C21.5222 7.77747 23.4402 5.05262 23.8183 3.50111C23.8367 3.42353 23.8552 3.34596 23.8644 3.27808C23.9751 2.51202 20.7661 0.485352 20.7661 0.485352H20.7569Z" fill="#EE9849"/>
<path d="M16.976 14.1583C17.0497 13.3341 17.0774 11.8505 16.7178 9.31955C16.7454 9.22258 16.7639 9.12561 16.7915 9.02864C16.9022 8.61167 17.3633 8.63107 17.4462 9.05773C17.7137 10.3765 17.9534 12.6262 16.976 14.1583Z" fill="#F35627"/>
<path d="M16.5793 12.7812C16.5793 12.7812 17.3816 12.1606 17.6213 12.2382C17.8703 12.3157 18.4051 12.6163 18.3683 12.8006C18.3314 12.9848 17.7135 13.1109 17.6029 13.0915C17.4922 13.0721 17.317 13.0915 17.2525 13.1788C17.1787 13.2563 16.6162 13.2854 16.5425 13.0721C16.4779 12.8588 16.5701 12.7909 16.5701 12.7909L16.5793 12.7812Z" fill="#FFB27D"/>
<path d="M18.184 4.89746C18.184 4.89746 17.2066 4.98473 16.6718 5.39201C16.3306 5.65382 14.3296 9.74595 14.3296 10.3569C14.3296 10.9678 16.4228 13.1011 16.4228 13.1011C16.4228 13.1011 16.8101 13.2659 16.8285 12.4708C16.8285 12.4708 15.7865 10.4829 15.8419 10.2502C15.8787 10.1047 17.4187 8.51443 17.4187 8.51443L18.184 4.90716V4.89746Z" fill="#EE9849"/>
<path d="M23.809 3.51074C23.4309 5.06226 21.5129 7.78711 21.4484 7.87438C21.4484 7.84529 21.2824 7.06953 21.6605 6.50711C22.0478 5.93498 23.3756 4.51923 23.809 3.51074Z" fill="#F35627"/>
<path d="M17.8149 5.12998C17.8149 5.02332 18.2115 4.86816 18.2115 4.86816C18.2115 4.86816 18.6725 5.69241 19.4286 5.7021C19.4286 5.7021 19.2166 6.24513 18.9584 6.38089C18.9584 6.38089 17.8426 5.76998 17.8149 5.12029V5.12998Z" fill="#F35627"/>
<path d="M19.4287 5.69216C19.4287 5.69216 19.8344 5.38186 19.8344 5.05216C19.8344 5.05216 20.0926 5.01337 20.2033 5.16852C20.2033 5.16852 20.2955 5.74065 20.1756 6.07034C20.1756 6.07034 19.5947 5.95398 19.4287 5.69216Z" fill="#F35627"/>
<path d="M20.8304 13.4107C20.8304 13.6822 20.7382 13.9344 20.5906 14.1283L20.3601 14.4289C20.3048 14.5065 20.2033 14.4968 20.1572 14.4289L19.8437 13.9635C19.7607 13.8374 19.7146 13.6725 19.7238 13.5077C19.7331 13.1392 19.7607 12.4216 19.77 11.7332C19.7792 11.1707 19.7884 10.6277 19.77 10.298C19.7331 9.25073 19.438 5.90527 19.438 5.90527H19.6316C19.6316 5.90527 20.1665 7.17558 20.4984 8.92103C20.5814 9.3477 20.646 9.81315 20.6921 10.2883C20.6921 10.2883 20.8673 12.1986 20.8396 13.4107H20.8304Z" fill="#C65447"/>
<path d="M19.1613 5.64336L19.7054 5.47852C19.7054 5.47852 19.7791 5.47852 19.7699 5.60458C19.7699 5.72094 19.6131 6.05064 19.5486 6.07973C19.484 6.10882 19.023 5.88579 19.1521 5.65306L19.1613 5.64336Z" fill="#BA4C43"/>
<path d="M17.8149 4.97471C17.8149 4.86804 18.2115 4.71289 18.2115 4.71289C18.2115 4.71289 18.6725 5.53713 19.4286 5.54683C19.4286 5.54683 19.2166 6.08986 18.9584 6.22562C18.9584 6.22562 17.8426 5.61471 17.8149 4.96501V4.97471Z" fill="#EE9849"/>
<path d="M19.4287 5.54665C19.4287 5.54665 19.8344 5.23635 19.8344 4.90665C19.8344 4.90665 20.0926 4.86787 20.2033 5.02302C20.2033 5.02302 20.2955 5.59514 20.1756 5.92484C20.1756 5.92484 19.5947 5.80847 19.4287 5.54665Z" fill="#EE9849"/>
<path d="M20.8304 13.4107C20.8304 13.6822 20.7381 13.9343 20.5906 14.1282L20.3601 14.4288C20.3048 14.5064 20.2033 14.4967 20.1572 14.4288L19.8437 13.9634C19.7607 13.8373 19.7146 13.6725 19.7238 13.5076C19.733 13.1391 19.7607 12.4216 19.7699 11.7331C20.2771 10.9185 20.4523 9.82279 20.4984 8.93066C20.5814 9.35733 20.6459 9.82279 20.692 10.2979C20.692 10.2979 20.8672 12.2082 20.8396 13.4204L20.8304 13.4107Z" fill="#BA4C43"/>
<path d="M16.1648 28.0732H12.3749C12.3189 28.0732 12.2734 28.121 12.2734 28.1799V31.6999C12.2734 31.7588 12.3189 31.8066 12.3749 31.8066H16.1648C16.2208 31.8066 16.2662 31.7588 16.2662 31.6999V28.1799C16.2662 28.121 16.2208 28.0732 16.1648 28.0732Z" fill="#233862"/>
<path d="M15.962 28.4999V31.3799C15.962 31.6126 15.8145 31.8066 15.63 31.8066H12.3012C12.1168 31.8066 11.9692 31.6126 11.9692 31.3799V28.4999C11.9692 28.2672 12.1168 28.0732 12.3012 28.0732H15.63C15.8145 28.0732 15.962 28.2672 15.962 28.4999Z" fill="#2B478B"/>
<path d="M13.2417 28.0729C13.4538 27.7529 13.7304 27.6172 13.9056 27.6172C14.339 27.6172 14.5788 28.0536 14.588 28.0729H14.4866C14.4866 28.0729 14.3114 27.7917 13.9333 27.7917C13.7765 27.7917 13.5552 27.7917 13.3708 28.0729C13.3616 28.0923 13.2417 28.0729 13.2417 28.0729Z" fill="#233862"/>
<path d="M15.962 28.6161V29.4501C15.962 29.6828 15.8145 29.8767 15.63 29.8767H12.3012C12.1168 29.8767 11.9692 29.6828 11.9692 29.4501V28.6161C11.9692 28.3834 12.1168 28.1895 12.3012 28.1895H15.63C15.8145 28.1895 15.962 28.3834 15.962 28.6161Z" fill="#233862"/>
<path d="M15.962 28.4999V29.3338C15.962 29.5666 15.8145 29.7605 15.63 29.7605H12.3012C12.1168 29.7605 11.9692 29.5666 11.9692 29.3338V28.4999C11.9692 28.2672 12.1168 28.0732 12.3012 28.0732H15.63C15.8145 28.0732 15.962 28.2672 15.962 28.4999Z" fill="#2B478B"/>
<path d="M13.8042 29.4307C13.8042 29.3629 13.8503 29.3047 13.9056 29.3047C13.961 29.3047 14.0071 29.3629 14.0071 29.4307C14.0071 29.4986 13.961 29.5568 13.9056 29.5568C13.8503 29.5568 13.8042 29.4986 13.8042 29.4307Z" fill="#233862"/>
<path d="M53.2888 31.9321H40.6928H40.6743C40.6743 31.9321 41.7809 29.9636 43.9478 29.9733C46.1056 29.9733 46.0779 28.5382 48.9088 27.6364C49.7479 27.3745 50.5409 26.9479 51.251 26.4824C52.8647 27.2194 53.9159 28.6352 53.2888 31.9515V31.9321Z" fill="#57AE5B"/>
<path d="M34.3857 8.47486V31.4373C34.3857 31.6409 34.2658 31.8155 34.1183 31.8155H33.8509C33.7771 31.8155 33.7125 31.7767 33.6572 31.7088C33.6111 31.6409 33.5742 31.544 33.5742 31.447V8.47486C33.5742 8.3391 33.6295 8.22274 33.7033 8.15486C33.7402 8.11607 33.7955 8.09668 33.8416 8.09668H34.109C34.2566 8.09668 34.3765 8.26153 34.3765 8.47486H34.3857Z" fill="#F1A34F"/>
<path d="M33.777 8.41709V31.3795C33.777 31.5153 33.7217 31.6316 33.6479 31.6995C33.6018 31.6316 33.5649 31.5347 33.5649 31.4377V8.47527C33.5649 8.33952 33.6203 8.22315 33.694 8.15527C33.7401 8.22315 33.777 8.32012 33.777 8.41709Z" fill="#F35627"/>
<path d="M30.6695 17.4355L29.1665 18.7446L30.5312 20.2768L33.9062 20.0052V18.2501L30.6695 17.4355Z" fill="#F1A34F"/>
<path d="M33.6756 18.4918C33.6571 18.55 33.6664 18.6179 33.6848 18.6567C33.7032 18.6955 33.7401 18.6858 33.7493 18.6276C33.7678 18.5694 33.7586 18.5015 33.7401 18.4627C33.7217 18.4239 33.6848 18.4336 33.6756 18.4918Z" fill="#F35627"/>
<path d="M33.6756 19.5299C33.6571 19.5881 33.6664 19.656 33.6848 19.6948C33.7032 19.7335 33.7401 19.7238 33.7493 19.6657C33.7678 19.6075 33.7586 19.5396 33.7401 19.5008C33.7217 19.462 33.6848 19.4717 33.6756 19.5299Z" fill="#F35627"/>
<path d="M39.3558 13.8857L41.7072 15.1851L39.448 16.7367L34.0444 16.4942V14.3221L39.3558 13.8857Z" fill="#F1A34F"/>
<path d="M39.356 13.8857H39.6971L42.0485 15.1851H41.7073L39.356 13.8857Z" fill="#E89746"/>
<path d="M39.4482 16.7371H39.6327L42.0486 15.1855H41.7074L39.4482 16.7371Z" fill="#F35627"/>
<path d="M34.3947 14.6419C34.4132 14.7098 34.4039 14.8067 34.3763 14.8552C34.3486 14.9037 34.3117 14.8843 34.2933 14.8164C34.2748 14.7486 34.2841 14.6516 34.3117 14.6031C34.3394 14.5546 34.3763 14.574 34.3947 14.6419Z" fill="#F35627"/>
<path d="M34.3947 15.9808C34.4132 16.0486 34.4039 16.1456 34.3763 16.1941C34.3486 16.2426 34.3117 16.2232 34.2933 16.1553C34.2748 16.0874 34.2841 15.9905 34.3117 15.942C34.3394 15.8935 34.3763 15.9129 34.3947 15.9808Z" fill="#F35627"/>
<path d="M28.7332 10.1143L26.3818 11.4137L28.641 12.9652L34.0446 12.7227V10.5506L28.7332 10.1143Z" fill="#F1A34F"/>
<path d="M28.7331 10.1143H28.3919L26.0405 11.4137H26.3817L28.7331 10.1143Z" fill="#E89746"/>
<path d="M28.6409 12.9656H28.4565L26.0405 11.4141H26.3817L28.6409 12.9656Z" fill="#F35627"/>
<path d="M33.6942 10.8704C33.6757 10.9383 33.6849 11.0353 33.7126 11.0837C33.7403 11.1322 33.7772 11.1128 33.7956 11.045C33.814 10.9771 33.8048 10.8801 33.7772 10.8316C33.7495 10.7831 33.7126 10.8025 33.6942 10.8704Z" fill="#F35627"/>
<path d="M33.6942 12.2093C33.6757 12.2772 33.6849 12.3741 33.7126 12.4226C33.7403 12.4711 33.7772 12.4517 33.7956 12.3838C33.814 12.3159 33.8048 12.219 33.7772 12.1705C33.7495 12.122 33.7126 12.1414 33.6942 12.2093Z" fill="#F35627"/>
<path d="M30.6698 17.4355H30.4761L28.8809 18.7543H29.1667L30.6698 17.4355Z" fill="#E89746"/>
<path d="M30.5314 20.2763H30.264L28.8809 18.7539H29.1667L30.5314 20.2763Z" fill="#F35627"/>
<path d="M34.9852 29.217V31.8061H32.9658V29.2073C32.9658 28.7224 33.2517 28.3249 33.6113 28.2764C33.639 28.2764 33.6574 28.2764 33.6851 28.2764H34.2568C34.6625 28.2764 34.9852 28.703 34.9852 29.217Z" fill="#F1A34F"/>
<path d="M34.266 29.217V31.8061H32.9658V29.2073C32.9658 28.7224 33.2517 28.3249 33.6113 28.2764C33.9801 28.3249 34.266 28.7224 34.266 29.217Z" fill="#F35627"/>
<path d="M34.0725 7.3695V7.28223H33.8973C33.8512 7.28223 33.805 7.31132 33.7682 7.3598C33.7313 7.40829 33.7036 7.47617 33.7036 7.55374C33.7036 7.63132 33.7221 7.6895 33.7682 7.74768C33.8143 7.79617 33.8604 7.82526 33.9157 7.82526H34.0725V7.73798C34.1093 7.6895 34.1186 7.63132 34.1186 7.56344C34.1186 7.49556 34.1001 7.43738 34.0725 7.38889V7.3695Z" fill="#F35627"/>
<path d="M34.4134 5.16848C34.2843 5.03272 34.1276 4.96484 33.9339 4.96484C33.8141 4.96484 33.6942 5.00363 33.5835 5.07151C33.4729 5.13939 33.3899 5.24606 33.3253 5.37212C33.2885 5.44969 33.27 5.53697 33.27 5.61454C33.27 5.68242 33.2885 5.7309 33.3161 5.76969C33.3438 5.80848 33.3807 5.82787 33.436 5.82787H33.5928C33.5928 5.82787 33.5928 5.7503 33.5928 5.70181L33.7034 5.51757C33.7587 5.44 33.8325 5.4109 33.9339 5.4109C34.0169 5.4109 34.0815 5.44 34.1368 5.49818C34.1921 5.55636 34.2198 5.63393 34.2198 5.7406C34.2198 5.85697 34.1921 5.95393 34.1368 6.01212C34.0999 6.0606 34.0262 6.10909 33.9247 6.14787C33.851 6.17697 33.8048 6.20606 33.7772 6.24484C33.7495 6.27393 33.7403 6.32242 33.7403 6.3903V6.76848C33.7403 6.84606 33.7587 6.90424 33.7864 6.96242C33.8141 7.0109 33.8602 7.04 33.9155 7.04H34.0723V6.92363C34.0723 6.92363 34.0815 6.88484 34.0907 6.86545C34.0907 6.82666 34.0999 6.72 34.0999 6.55515C34.2567 6.51636 34.3858 6.42909 34.478 6.28363C34.5702 6.14787 34.6163 5.97333 34.6163 5.76C34.6163 5.51757 34.5518 5.32363 34.4134 5.17818V5.16848Z" fill="#F35627"/>
<path d="M34.773 5.75023C34.773 5.96356 34.7269 6.12841 34.6347 6.27387C34.5425 6.40962 34.4134 6.4969 34.2567 6.54538C34.2567 6.71023 34.2567 6.8169 34.2474 6.85568C34.2198 6.97205 34.1644 7.03023 34.0722 7.03023C34.0169 7.03023 33.9708 7.00114 33.9431 6.95265C33.9155 6.90417 33.897 6.83629 33.897 6.75871V6.38053C33.897 6.31265 33.9063 6.27387 33.9339 6.23508C33.9616 6.20599 34.0077 6.1769 34.0815 6.13811C34.1829 6.09932 34.2474 6.05084 34.2935 6.00235C34.3489 5.93447 34.3765 5.8472 34.3765 5.73084C34.3765 5.62417 34.3489 5.54659 34.2935 5.48841C34.2382 5.43023 34.1737 5.40114 34.0907 5.40114C33.9985 5.40114 33.9247 5.43993 33.8602 5.50781L33.7403 5.71144C33.7034 5.78902 33.6481 5.81811 33.5927 5.81811C33.5466 5.81811 33.5097 5.79871 33.4729 5.75993C33.4452 5.72114 33.4268 5.66296 33.4268 5.60478C33.4268 5.5272 33.4452 5.43993 33.4821 5.36235C33.5466 5.22659 33.6296 5.12962 33.7403 5.06174C33.8509 4.99387 33.9616 4.95508 34.0907 4.95508C34.2843 4.95508 34.4411 5.02296 34.5702 5.15871C34.6993 5.30417 34.773 5.49811 34.773 5.74053V5.75023ZM34.2843 7.54417C34.2843 7.62174 34.2659 7.67993 34.229 7.73811C34.1921 7.78659 34.1368 7.81568 34.0815 7.81568C34.0261 7.81568 33.9708 7.78659 33.9339 7.73811C33.8878 7.68962 33.8694 7.62174 33.8694 7.54417C33.8694 7.46659 33.8878 7.40841 33.9339 7.35023C33.9708 7.30174 34.0261 7.27265 34.0815 7.27265C34.1368 7.27265 34.1921 7.30174 34.229 7.35023C34.2659 7.39871 34.2843 7.46659 34.2843 7.54417Z" fill="#F1A34F"/>
<path d="M0.599609 31.8251L10.0697 31.9026C10.0697 31.9026 9.19371 29.6336 7.01752 30.1184C5.64357 30.4287 5.19174 29.9632 4.62925 29.5075C5.67124 28.9936 7.22039 28.1596 6.50114 27.956C5.80956 27.762 4.87822 28.6251 4.29729 29.2651C4.17741 29.1875 4.04832 29.1099 3.89156 29.042C5.12719 27.5584 7.45092 24.5911 6.42737 24.5039C5.42227 24.4166 4.14975 27.3548 3.54115 28.916C3.46738 28.8966 3.39362 28.8869 3.31985 28.8675C3.00633 28.8093 2.71125 28.8869 2.44384 29.042C2.30552 28.3923 2.06577 27.6457 1.73381 27.8008C1.40185 27.956 1.77992 28.7026 2.1211 29.2748C1.17132 30.0893 0.599609 31.8154 0.599609 31.8154V31.8251Z" fill="#7BC47F"/>
<path d="M55.9078 31.8057H0.0922114C0.0412845 31.8057 0 31.8491 0 31.9026C0 31.9562 0.0412845 31.9996 0.0922114 31.9996H55.9078C55.9587 31.9996 56 31.9562 56 31.9026C56 31.8491 55.9587 31.8057 55.9078 31.8057Z" fill="#2E3552"/>
</g>
<defs>
<clipPath id="clip0_1830_9259">
<rect width="56" height="32" fill="white"/>
</clipPath>
</defs>
</svg>
