<svg width="59" height="33" viewBox="0 0 59 33" fill="none" xmlns="http://www.w3.org/2000/svg">
<g clip-path="url(#clip0_1830_11583)">
<path d="M58.2698 29.0903C57.3798 31.4503 55.6398 32.5003 53.9798 32.9203H5.23977C0.639766 30.9203 -1.81023 16.3403 5.00977 12.7903C8.74977 10.8503 11.3198 10.5103 12.0498 7.45031C15.1098 -5.42969 26.0698 2.60031 30.1298 1.25031C44.5598 -3.55969 42.3898 20.0103 51.3798 17.8703C55.5098 16.8903 60.8798 22.1503 58.2698 29.0903Z" fill="#FFE8D9"/>
<path d="M33.8699 22.0102C33.8699 22.0102 32.2699 23.4002 31.9499 23.3202C31.6399 23.2402 33.1199 21.8202 33.1199 21.8202C32.5599 21.5102 30.8299 21.7002 30.8299 21.7002C30.8299 21.7002 30.2499 23.8702 29.9699 23.7002C29.6799 23.5302 30.5699 21.8102 30.5699 21.8102C29.9499 21.7702 29.1899 22.3002 29.1899 22.3002C28.1499 23.2602 29.2599 24.7802 29.2599 24.7802C29.2599 24.7802 29.0499 25.5302 28.3899 26.2102C28.3899 26.2102 27.4499 27.0202 27.3799 28.4702L27.5499 28.4902C27.5499 28.4902 27.8199 27.1402 28.3099 26.5002C28.3299 26.4802 28.3599 26.4402 28.3899 26.4002C28.4699 26.3102 28.5299 26.2502 28.5599 26.2002C28.8099 25.9302 29.1399 25.5802 29.3099 25.5402C29.3099 25.5402 29.3099 25.5102 29.3099 25.4402C29.3099 25.4702 29.3099 25.5002 29.3099 25.5402C29.3699 26.3102 30.6399 26.9702 31.4199 27.1102C32.1999 27.2502 31.9599 26.8702 31.6899 26.3202C31.4199 25.7602 30.5699 25.5102 30.3699 25.2602C30.1799 25.0002 30.5799 25.0002 31.0499 25.2602C31.5199 25.5102 31.5899 26.1802 32.3399 26.6002C33.0999 27.0202 34.2399 25.5602 34.2399 25.5602C33.6399 25.5202 32.7799 24.7602 32.8099 24.5302C32.8399 24.3002 34.2699 24.9302 34.5199 24.9602C34.7599 24.9902 35.3199 24.6402 35.4099 23.4902C35.4999 22.3402 33.8799 22.0202 33.8799 22.0202L33.8699 22.0102Z" fill="#57AE5B"/>
<path d="M25.36 22.8707C25.36 22.8707 27.13 21.7107 26.3 20.1407C26.3 20.1407 25.64 19.1807 24.93 18.9307C24.93 18.9307 25.31 21.2707 24.93 21.3207C24.55 21.3807 24.67 18.6807 24.67 18.6807C24.67 18.6807 22.81 17.6307 22.07 17.7207C22.07 17.7207 23.23 20.0007 22.85 19.9507C22.47 19.9007 21.17 17.5807 21.17 17.5807C21.17 17.5807 19.26 17.1707 18.95 18.4907C18.64 19.8107 19.14 20.4707 19.42 20.5507C19.7 20.6307 21.52 20.6107 21.47 20.8807C21.42 21.1607 20.2 21.6007 19.51 21.3507C19.51 21.3507 20.27 23.5207 21.26 23.4107C22.25 23.3007 22.56 22.5807 23.17 22.5307C23.78 22.4707 24.23 22.6707 23.93 22.8607C23.62 23.0507 22.58 22.9207 22.09 23.4107C21.59 23.9007 21.19 24.2007 22.11 24.4207C23.03 24.6407 24.68 24.5007 25.01 23.6807L25.34 22.8507L25.36 22.8707Z" fill="#7BC47F"/>
<path d="M25.8298 24.8811C25.3298 23.8111 25.3598 22.8711 25.3598 22.8711C24.7898 20.7811 19.8398 18.9111 19.8398 18.9111C26.1398 21.8811 25.0298 23.7011 25.0298 23.7011C25.1998 23.8211 25.4498 24.3711 25.6298 24.7911C25.6598 24.8611 25.6998 24.9611 25.7498 25.1011C25.7698 25.1611 25.7898 25.2111 25.8098 25.2511C26.1298 26.2011 25.9598 27.8311 25.9598 27.8311L26.1598 27.8911C26.5998 26.2411 25.8298 24.8911 25.8298 24.8911V24.8811Z" fill="#57AE5B"/>
<path d="M28.17 21.2804C28.17 21.2804 25.84 19.7604 26.93 17.6904C26.93 17.6904 27.8 16.4204 28.73 16.0904C28.73 16.0904 28.23 19.1704 28.73 19.2504C29.23 19.3204 29.07 15.7704 29.07 15.7704C29.07 15.7704 31.53 14.3904 32.49 14.5004C32.49 14.5004 30.97 17.5104 31.46 17.4404C31.96 17.3704 33.67 14.3204 33.67 14.3204C33.67 14.3204 36.19 13.7804 36.59 15.5204C36.99 17.2604 36.34 18.1304 35.97 18.2404C35.6 18.3504 33.2 18.3104 33.26 18.6804C33.32 19.0404 34.94 19.6204 35.84 19.3004C35.84 19.3004 34.84 22.1704 33.54 22.0204C32.23 21.8704 31.83 20.9304 31.02 20.8604C30.21 20.7904 29.62 21.0404 30.02 21.3004C30.42 21.5504 31.79 21.3804 32.45 22.0304C33.1 22.6804 33.63 23.0804 32.42 23.3704C31.21 23.6604 29.03 23.4804 28.59 22.3904L28.15 21.3004L28.17 21.2804Z" fill="#7BC47F"/>
<path d="M35.4501 16.0508C35.4501 16.0508 28.9201 18.5208 28.1701 21.2808C28.1701 21.2808 28.2001 22.5108 27.5501 23.9308C27.5501 23.9308 26.5401 25.7108 27.1201 27.8908L27.3801 27.8108C27.3801 27.8108 27.1501 25.6508 27.5801 24.4108C27.6001 24.3608 27.6201 24.3008 27.6501 24.2208C27.7301 24.0408 27.7801 23.9108 27.8101 23.8208C28.0401 23.2608 28.3801 22.5408 28.6001 22.3808C28.6001 22.3808 27.1401 19.9908 35.4401 16.0708L35.4501 16.0508Z" fill="#57AE5B"/>
<path d="M24.28 21.0202C24.28 21.0202 28.14 19.7302 29.11 20.9602C29.96 22.0302 32.26 26.2802 32.39 28.7902C32.51 31.2302 30.29 32.8402 28.01 32.8402H23.96L24.28 21.0302V21.0202Z" fill="#F1A34F"/>
<path d="M21.6099 22.2701C21.6099 22.2701 27.0699 19.3801 28.0999 21.2701C28.6499 22.2701 30.1599 26.2801 30.2699 28.7901C30.3799 31.2301 28.3399 32.8401 26.2499 32.8401H22.5299L21.6099 22.2801V22.2701Z" fill="#D16E24"/>
<path d="M10.8401 13.3702C10.8401 13.3702 17.6301 13.1602 20.2201 13.1602C21.5501 13.1602 21.5201 14.3402 22.1601 15.7102C23.4401 18.4402 25.5701 23.1402 25.4001 23.8802C25.1601 24.9302 16.0701 25.6502 15.4201 25.4102C14.7801 25.1702 10.8301 13.3802 10.8301 13.3802L10.8401 13.3702Z" fill="#E78B37"/>
<path opacity="0.4" d="M16.16 15.4902C16.16 15.4902 16.25 13.9402 15.93 14.0702C15.61 14.2002 13.56 16.3802 13.88 21.5002L14.82 22.4402L22.01 21.0502L16.15 15.5002L16.16 15.4902Z" fill="#C44F00"/>
<path d="M25.3102 21.7909L22.8902 23.1909C22.8902 23.1909 20.8102 14.2909 20.6802 13.6109C20.6202 13.3109 20.4302 13.2009 20.2402 13.1709C20.5802 13.1309 20.8202 13.1309 20.8202 13.1309C21.4802 13.1309 22.0702 13.6209 22.2802 14.3509C22.7402 15.9409 23.5902 18.8809 24.4602 21.8709C24.6902 21.7609 24.9502 21.6409 25.2502 21.5209L25.3202 21.8009L25.3102 21.7909Z" fill="#F1A34F"/>
<path d="M20.4601 22.2809C20.4601 22.2809 28.2901 21.4709 29.2601 22.5509C29.7101 23.0509 29.9601 25.3209 30.1001 27.6009C30.2801 30.4509 28.3001 32.8909 25.8601 32.8509H17.3701L20.4601 22.2809Z" fill="#DF812F"/>
<path d="M17.5298 11.2605C17.3098 11.2005 17.0698 11.2605 16.9198 11.3405C16.9498 11.2805 17.0198 11.2305 17.0198 11.2305C16.9198 11.2505 16.7198 11.4405 16.7198 11.4405C15.1798 11.3105 15.5798 13.7605 15.7498 14.3005C15.9198 14.8405 16.0898 15.4705 15.5298 16.2105C14.4298 17.6705 16.0198 18.9605 16.0198 18.9605C16.0298 18.9605 16.9698 19.9705 16.9698 19.9705C16.8198 19.5405 17.9698 16.5605 18.6998 15.5305C18.8198 15.0705 18.7198 14.3605 18.7198 14.3005C18.8198 14.8505 18.8198 15.1805 18.7998 15.3805C19.3598 14.2705 18.1198 11.4205 17.5198 11.2605H17.5298Z" fill="#1F2933"/>
<path d="M23.4497 15.5301C23.4497 15.5301 23.6697 14.7901 23.8797 14.8101C24.0897 14.8201 24.4097 14.8601 24.4897 14.8401C24.5697 14.8101 24.8397 14.5801 24.8897 14.6301C24.9997 14.7701 24.7497 15.2101 24.5597 15.2701C24.3797 15.3401 24.0797 15.2401 24.0097 15.3201C23.9397 15.4001 23.9497 15.6901 23.9497 15.6901L23.4597 15.5401L23.4497 15.5301Z" fill="#FFB27D"/>
<path d="M28.92 30.9602C28.9 31.2402 29.24 31.3102 29.63 31.3402C30.02 31.3602 29.9 31.4602 30.44 31.5702C30.98 31.6802 31.19 31.5102 31.23 31.4302C31.26 31.3502 31.01 31.2402 30.75 31.1002C30.72 31.0802 30.68 31.0702 30.65 31.0502C30.35 30.9002 30.18 30.5802 29.95 30.2902C29.73 30.0102 29.52 29.1302 29.52 29.1302L28.79 28.9502C28.79 28.9502 29 29.7502 29.07 30.0802C29.11 30.2802 29.05 30.5002 29 30.6702C28.97 30.7602 28.94 30.8602 28.93 30.9602H28.92Z" fill="#FFB27D"/>
<path d="M29.63 31.3299C30.02 31.3499 29.9 31.4499 30.44 31.5599C30.98 31.6699 31.19 31.4999 31.23 31.4199C31.26 31.3399 31.01 31.2299 30.75 31.0899C30.75 31.0899 30.37 31.2499 29.93 31.1099C29.57 30.9999 29.23 30.7499 28.98 30.6699C28.95 30.7599 28.92 30.8599 28.91 30.9599C28.89 31.2399 29.23 31.3099 29.62 31.3399L29.63 31.3299Z" fill="#1F2933"/>
<path d="M21.6299 20.8304C21.6299 20.8304 26.4999 20.4004 27.4099 21.0804C28.3299 21.7504 29.7899 29.6104 29.7899 29.6104C29.7899 29.6104 29.6999 29.6904 29.4999 29.7204C29.3099 29.7404 28.8999 29.6104 28.8999 29.6104C28.8999 29.6104 26.7899 26.1004 26.6399 25.2104C26.4899 24.3204 26.5299 23.5304 26.1899 23.5104C25.8499 23.4904 21.6299 24.1104 20.9899 22.8004C20.3499 21.4904 20.8799 20.1904 20.8799 20.1904L21.6299 20.8304Z" fill="#AA413E"/>
<path d="M23.9298 16.3702C23.5998 17.3502 22.7998 18.9402 22.5898 19.0002C22.4198 19.0502 21.5698 18.8202 20.8698 18.5502C20.4698 18.3902 20.1198 18.2102 19.9898 18.0602C19.6498 17.6602 18.5098 15.3002 18.5098 15.3002C18.5098 15.3002 19.5798 15.1402 20.0798 15.4902C20.5898 15.8402 21.7998 17.4502 21.9898 17.3902C22.1698 17.3402 23.0498 15.5402 23.3898 15.3802C23.3898 15.3802 23.9198 15.2502 24.0598 15.6702C24.0898 15.7802 24.0398 16.0402 23.9298 16.3602V16.3702Z" fill="#699DEE"/>
<path d="M27.0499 31.8704C27.0299 32.1504 27.3699 32.2204 27.7599 32.2504C28.1499 32.2804 28.0299 32.3704 28.5699 32.4804C29.1099 32.5904 29.3199 32.4204 29.3599 32.3404C29.3899 32.2604 29.1399 32.1503 28.8799 32.0103C28.8499 31.9903 28.8099 31.9804 28.7799 31.9604C28.4799 31.8104 28.3099 31.4904 28.0799 31.2004C27.8599 30.9204 27.6499 30.0404 27.6499 30.0404L26.9199 29.8604C26.9199 29.8604 27.1299 30.6604 27.1999 30.9904C27.2399 31.1904 27.1799 31.4104 27.1299 31.5804C27.0999 31.6704 27.0699 31.7704 27.0599 31.8704H27.0499Z" fill="#FFB27D"/>
<path d="M27.7599 32.2508C28.1499 32.2708 28.0299 32.3708 28.5699 32.4808C29.1099 32.5908 29.3199 32.4208 29.3599 32.3408C29.3899 32.2608 29.1399 32.1508 28.8799 32.0108C28.8799 32.0108 28.4999 32.1708 28.0599 32.0308C27.6999 31.9208 27.3599 31.6708 27.1099 31.5908C27.0799 31.6808 27.0499 31.7808 27.0399 31.8808C27.0199 32.1608 27.3599 32.2308 27.7499 32.2608L27.7599 32.2508Z" fill="#1F2933"/>
<path d="M23.9299 16.3701C23.5999 17.3501 22.7999 18.9401 22.5899 19.0001C22.4199 19.0501 21.5699 18.8201 20.8699 18.5501C20.5799 18.2701 20.4099 18.0201 20.3799 17.9701C20.3999 17.9701 22.0099 18.6901 22.3299 18.5301C22.6199 18.3901 23.4399 16.7501 23.9199 16.3701H23.9299Z" fill="#4A75CB"/>
<path d="M18.6599 15.58C18.6599 15.58 18.2899 16.01 17.9199 16.02C17.5799 16.03 17.2399 15.63 17.2499 15.62C17.3799 15.54 17.3599 15.31 17.1099 14.39H17.1699L18.2499 14.25C18.2499 14.25 18.3199 14.63 18.4199 14.99C18.4999 15.29 18.5899 15.56 18.6499 15.57L18.6599 15.58Z" fill="#FFB27D"/>
<path d="M18.2597 14.2607C18.2597 14.2607 18.3297 14.6407 18.4297 15.0007C17.8497 15.1807 17.3897 14.6807 17.1797 14.3907L18.2597 14.2607Z" fill="#E2915A"/>
<path d="M20.6696 21.1807C20.6696 21.1807 24.9896 21.4207 25.8796 22.1307C26.7696 22.8507 27.9796 30.7607 27.9796 30.7607C27.9796 30.7607 27.8896 30.8407 27.6796 30.8607C27.4896 30.8807 27.0796 30.7307 27.0796 30.7307C27.0796 30.7307 25.0896 27.1207 24.9696 26.2307C24.8496 25.3407 24.9096 24.5507 24.5796 24.5107C24.2396 24.4707 19.9996 24.9007 19.4096 23.5607C18.8196 22.2207 20.6696 21.1807 20.6696 21.1807Z" fill="#C65447"/>
<path d="M17.0397 14.29C17.0397 14.29 16.5997 13.84 16.3997 13.4C16.2597 13.08 16.0797 11.78 17.1997 11.58C17.1997 11.58 17.5197 11.5 17.8797 11.63C18.1597 11.73 18.5997 12.01 18.5097 13.23V13.63L17.0397 14.29Z" fill="#1F2933"/>
<path d="M20.6998 21.6103C20.6998 21.6103 20.6098 21.6103 20.5498 21.6103C20.2998 21.5903 19.8898 21.5203 19.7498 21.4803C18.5598 21.0703 17.4198 20.5503 16.9298 18.7603C16.8698 18.5403 16.8198 18.3103 16.7798 18.0503L16.9698 17.2303L17.3298 15.4903C17.3298 15.4903 17.7698 15.7703 18.1898 15.6603C18.3998 15.6103 18.5198 15.3203 18.5198 15.3203C18.5198 15.3203 20.7598 16.3403 21.5198 18.4603C22.2798 20.5803 22.5398 20.2603 22.7698 20.7103C22.9998 21.1703 21.9798 21.6203 20.6998 21.6303V21.6103Z" fill="#699DEE"/>
<path d="M18.5398 14.5306C18.5398 14.5306 17.1898 15.0406 16.9398 14.0606C16.6798 13.0806 16.3298 12.4806 17.1798 12.1206C18.0298 11.7506 18.2898 12.0706 18.4498 12.3706C18.5998 12.6706 18.8898 14.3806 18.5398 14.5406V14.5306Z" fill="#FFB27D"/>
<path d="M17.7899 11.8609C17.7899 11.8609 17.7199 13.1409 17.1999 13.5209C16.6799 13.8909 16.3799 13.8009 16.3799 13.8009C16.3799 13.8009 16.7099 13.2409 16.6199 12.5009C16.6199 12.5009 17.3699 11.4109 17.7899 11.8609Z" fill="#1F2933"/>
<path d="M17.7197 11.9905C17.7197 11.9905 18.0597 12.1505 18.1997 12.3805C18.3297 12.6105 18.4997 13.1105 18.6197 13.0505C18.6197 13.0505 18.6897 12.1705 18.2597 11.8405C17.7997 11.4905 17.7197 12.0005 17.7197 12.0005V11.9905Z" fill="#1F2933"/>
<path d="M20.5399 21.6008C20.2899 21.5808 19.8799 21.5108 19.7399 21.4708C18.5499 21.0608 17.4099 20.5408 16.9199 18.7508C16.9199 18.7408 16.9199 18.7208 16.9199 18.7108L17.0899 18.5608C17.4299 18.2508 17.8799 18.1808 18.2799 18.3708C19.2199 18.8308 20.5099 19.6708 20.5499 21.6008H20.5399Z" fill="#4A75CB"/>
<path d="M17.3301 15.4707C17.3301 15.4707 15.9401 15.7107 15.7101 16.7307C15.4801 17.7507 15.2801 21.0707 15.4801 21.3307C15.6901 21.5907 16.3001 21.2907 16.4401 21.1607C16.5801 21.0307 17.2901 17.6507 17.2901 17.6507C17.2901 17.6507 17.6401 16.1207 17.3201 15.4707H17.3301Z" fill="#699DEE"/>
<path d="M19.4499 20.1507C19.4499 20.1507 20.2499 19.9707 20.3399 20.0107C20.4299 20.0607 20.9299 20.5807 20.8799 20.6907C20.8299 20.8007 20.6199 20.8707 20.3899 20.7807C20.1599 20.6907 19.6499 20.6407 19.5599 20.5107C19.4699 20.3707 19.4399 20.1507 19.4399 20.1507H19.4499Z" fill="#FFB27D"/>
<path d="M19.6596 20.0106C19.6596 20.0106 16.5396 19.9506 15.7896 20.5206C15.7896 20.5206 15.3496 21.0506 15.4796 21.3306C15.6096 21.6206 16.0096 21.5706 16.1896 21.5606C16.3696 21.5406 19.5296 20.7006 19.5296 20.7006C19.5296 20.7006 19.8896 20.3806 19.6596 20.0106Z" fill="#699DEE"/>
<path d="M17 21.0202C17 21.0202 20.55 19.7302 21.44 20.9602C22.22 22.0302 24.34 26.2802 24.45 28.7902C24.56 31.2302 22.52 32.8402 20.43 32.8402H16.71L17 21.0302V21.0202Z" fill="#F1A34F"/>
<path d="M22.3501 28.7904C22.2401 26.2804 20.7301 22.2704 20.1801 21.2704C19.3801 19.8104 15.9201 21.2104 14.4001 21.9204C13.5401 18.9304 12.6901 15.9904 12.2201 14.4004C12.0101 13.6704 11.4201 13.1804 10.7601 13.1804C10.7601 13.1804 8.29014 12.7504 7.91014 16.5904C6.69014 28.8604 7.67014 32.8204 12.0501 32.8504C12.6001 32.8504 13.6701 32.8504 14.5901 32.8304H18.3101C20.4101 32.8304 22.4401 31.2304 22.3301 28.7804L22.3501 28.7904Z" fill="#F1A34F"/>
<path d="M22.3502 28.7809C22.2402 26.2609 20.7302 22.2509 20.1802 21.2409C19.5002 19.9909 16.8902 20.8309 15.2002 21.5409C14.9002 21.6609 14.6302 21.7909 14.4102 21.8909C13.5502 18.8909 12.7002 15.9509 12.2302 14.3509C12.0202 13.6209 11.4302 13.1309 10.7702 13.1309C10.7702 13.1309 10.5302 13.1309 10.1902 13.1709C9.65021 13.2309 8.87021 13.3709 8.50021 13.7309C8.25021 13.9709 8.07021 15.0309 7.92021 16.5509C7.56021 20.1409 7.39021 23.0209 7.44021 25.3009C7.46021 26.4709 7.55021 27.4809 7.69021 28.3509C7.79021 28.9609 7.92021 29.5009 8.08021 29.9709C8.78021 32.0209 10.0702 32.8509 12.0602 32.8609C12.2902 32.8609 12.6202 32.8609 12.9802 32.8609C13.4802 32.8609 14.0702 32.8509 14.6002 32.8409H18.3202C20.4202 32.8409 22.4502 31.2309 22.3402 28.7809H22.3502Z" fill="#D16E24"/>
<path d="M14.3599 21.7309C13.7999 21.9909 13.1799 22.2709 12.6799 22.5009C12.1899 20.3909 10.7399 14.1709 10.6299 13.6109C10.5699 13.3109 10.3799 13.2009 10.1899 13.1709C10.5299 13.1309 10.7699 13.1309 10.7699 13.1309C11.4299 13.1309 12.0199 13.6209 12.2299 14.3509C12.6899 15.9209 13.5199 18.7809 14.3699 21.7309H14.3599Z" fill="#F1A34F"/>
<path opacity="0.4" d="M15.4999 23.7202C15.2399 22.8002 13.5999 23.0902 13.5999 23.0902C13.5999 23.0902 12.4899 24.7002 12.1699 24.7302C11.8499 24.7702 12.8399 23.1802 12.8399 23.1802C12.2099 23.1202 10.6199 23.8502 10.6199 23.8502C10.6199 23.8502 10.7199 25.7202 10.3999 25.6902C10.0799 25.6502 10.3999 24.0302 10.3999 24.0302C9.78992 24.2002 9.22992 24.8702 9.22992 24.8702C8.51992 25.9602 10.0399 26.7602 10.0399 26.7602C10.0399 26.7602 10.0599 27.4102 9.63992 28.1602C9.63992 28.1602 9.10992 28.9302 9.27992 29.9202H8.80992C8.89992 29.2102 8.51992 28.6702 8.51992 28.6702C8.19992 28.1002 8.20992 27.6102 8.20992 27.6102C8.20992 27.6102 9.35992 27.0002 8.81992 26.1702C8.81992 26.1702 8.38992 25.6602 7.92992 25.5302C7.92992 25.5302 8.16992 26.7602 7.92992 26.7902C7.68992 26.8202 7.75992 25.4002 7.75992 25.4002C7.75992 25.4002 7.62992 25.3402 7.43992 25.2602C7.45992 26.4302 7.54992 27.4302 7.68992 28.3002C7.82992 28.2302 7.93992 28.1502 7.98992 28.0402C7.98992 28.0202 8.00992 28.0002 8.01992 27.9902C8.00992 28.0302 7.98992 28.0402 7.98992 28.0402C8.09992 28.1002 8.26992 28.3902 8.37992 28.6102C8.39992 28.6502 8.41992 28.7002 8.45992 28.7702C8.47992 28.8002 8.48992 28.8302 8.49992 28.8502C8.62992 29.1602 8.63992 29.6202 8.61992 29.9202H6.91992V30.0102H7.01992C7.05992 31.1502 7.80992 32.1202 8.86992 32.5302H7.33992C7.13992 32.5302 6.96992 32.6902 6.96992 32.8802H12.9799C12.9799 32.8802 12.9799 32.8302 12.9799 32.8102C12.9499 32.6502 12.7999 32.5302 12.6199 32.5302H11.0899C12.1499 32.1202 12.9099 31.1502 12.9399 30.0102H13.0099V29.9202H9.84992C9.91992 29.7702 10.0099 29.6202 10.1199 29.5102C10.1299 29.5002 10.1499 29.4802 10.1699 29.4602C10.2199 29.4102 10.2599 29.3802 10.2799 29.3602C10.4399 29.2202 10.6599 29.0302 10.7699 29.0102C10.7699 29.0102 10.7699 28.9902 10.7699 28.9602C10.7699 28.9802 10.7699 28.9902 10.7699 29.0102C10.8099 29.4102 11.6299 29.7702 12.1399 29.8402C12.6499 29.9102 12.4899 29.7102 12.3199 29.4202C12.1399 29.1302 11.5899 29.0002 11.4599 28.8602C11.3299 28.7202 11.5899 28.7202 11.8999 28.8602C12.2099 28.9902 12.2499 29.3502 12.7399 29.5702C13.2299 29.7902 13.9699 29.0202 13.9699 29.0202C13.5799 29.0002 13.0199 28.6002 13.0399 28.4802C13.0599 28.3602 13.9899 28.6902 14.1499 28.7102C14.3099 28.7302 14.6699 28.5402 14.7299 27.9302C14.7899 27.3202 13.7399 27.1602 13.7399 27.1602C13.7399 27.1602 13.4999 27.3302 13.2299 27.5002C13.1799 27.4302 13.0899 27.3602 12.9899 27.2802C13.0799 27.2002 13.1599 27.1402 13.2099 27.1002C13.3099 27.1302 13.4199 27.1502 13.5399 27.1602C14.3899 27.2402 15.0299 25.7302 15.0299 25.7302C14.4399 25.9002 13.3899 25.6002 13.3499 25.4102C13.3099 25.2202 14.8599 25.2402 15.1099 25.1802C15.3499 25.1202 15.7799 24.6602 15.5099 23.7502L15.4999 23.7202ZM10.3099 27.3302C10.3099 27.3302 10.2899 27.3002 10.2699 27.2602C10.2799 27.2802 10.2899 27.3102 10.3099 27.3302ZM10.1599 29.3502C10.1599 29.3502 9.87992 29.5502 9.68992 29.9102H9.48992C9.46992 29.5302 9.45992 28.8502 9.64992 28.4002C9.65992 28.3802 9.67992 28.3402 9.69992 28.3002C9.72992 28.2502 9.74992 28.2102 9.75992 28.1802C9.77992 28.1402 9.78992 28.1202 9.79992 28.0902C9.94992 27.8002 10.1699 27.4102 10.3099 27.3302C10.3499 27.4002 10.3999 27.4702 10.4699 27.5302C10.1899 28.0202 10.7299 28.6002 10.7299 28.6002C10.7299 28.6002 10.5899 28.9902 10.1599 29.3502ZM12.3899 26.9402C11.9599 26.8302 11.4299 26.8502 11.2399 26.7502C10.9799 26.6202 11.3599 26.4802 11.8899 26.5202C12.2399 26.5502 12.4799 26.7802 12.8499 26.9502C12.6999 26.9402 12.5399 26.9302 12.3899 26.9402Z" fill="#C44F00"/>
<path d="M9.78043 27.6199C9.78043 27.6199 9.06043 26.6399 9.74043 26.0099C9.74043 26.0099 10.2304 25.6599 10.6404 25.6899C10.6404 25.6899 10.0704 26.8099 10.2504 26.9199C10.4304 27.0299 10.8104 25.6199 10.8104 25.6199C10.8104 25.6199 11.9404 25.4899 12.3004 25.6999C12.3004 25.6999 11.3404 26.6199 11.5404 26.6699C11.7404 26.7199 12.7804 25.8199 12.7804 25.8199C12.7804 25.8199 13.8304 26.0299 13.7704 26.7699C13.7104 27.5199 13.3504 27.7499 13.1904 27.7299C13.0304 27.7099 12.1004 27.2999 12.0804 27.4499C12.0604 27.5999 12.6204 28.0999 13.0104 28.1199C13.0104 28.1199 12.2704 29.0699 11.7804 28.7999C11.2904 28.5299 11.2504 28.0899 10.9404 27.9299C10.6304 27.7699 10.3704 27.7699 10.5004 27.9299C10.6304 28.0999 11.1804 28.2599 11.3604 28.6199C11.5404 28.9799 11.6904 29.2199 11.1804 29.1399C10.6704 29.0499 9.85043 28.6199 9.81043 28.1199L9.77043 27.6199H9.78043Z" fill="#57AE5B"/>
<path d="M13.2503 26.7999C13.2503 26.7999 10.4003 26.6699 9.77029 27.6199C9.77029 27.6199 9.63029 28.1099 9.20029 28.5499C9.20029 28.5499 8.59029 29.0799 8.55029 30.0199H8.66029C8.66029 30.0199 8.84029 29.1499 9.16029 28.7399C9.17029 28.7299 9.19029 28.6999 9.21029 28.6799C9.26029 28.6199 9.30029 28.5799 9.32029 28.5499C9.48029 28.3699 9.70029 28.1399 9.81029 28.1199C9.81029 28.1199 9.53029 26.9399 13.2503 26.7999Z" fill="#57AE5B"/>
<path d="M7.25005 26.3806C7.25005 26.3806 8.40005 25.6306 7.86005 24.6106C7.86005 24.6106 7.43005 23.9806 6.97005 23.8206C6.97005 23.8206 7.22005 25.3406 6.97005 25.3706C6.72005 25.4106 6.80005 23.6606 6.80005 23.6606C6.80005 23.6606 5.59005 22.9806 5.12005 23.0306C5.12005 23.0306 5.87005 24.5106 5.63005 24.4806C5.38005 24.4406 4.54005 22.9406 4.54005 22.9406C4.54005 22.9406 3.30005 22.6706 3.10005 23.5306C2.90005 24.3906 3.22005 24.8206 3.41005 24.8706C3.59005 24.9206 4.77005 24.9106 4.74005 25.0806C4.71005 25.2606 3.91005 25.5406 3.47005 25.3806C3.47005 25.3806 3.96005 26.7906 4.60005 26.7206C5.24005 26.6506 5.44005 26.1806 5.84005 26.1506C6.24005 26.1106 6.53005 26.2406 6.33005 26.3606C6.13005 26.4906 5.46005 26.4006 5.14005 26.7206C4.82005 27.0406 4.56005 27.2406 5.16005 27.3806C5.76005 27.5206 6.83005 27.4306 7.04005 26.9006L7.25005 26.3606V26.3806Z" fill="#7BC47F"/>
<path d="M7.55992 27.6903C7.23992 26.9903 7.24992 26.3903 7.24992 26.3903C6.87992 25.0303 3.66992 23.8203 3.66992 23.8203C7.75992 25.7503 7.03992 26.9303 7.03992 26.9303C7.14992 27.0003 7.31992 27.3603 7.42992 27.6403C7.44992 27.6903 7.46992 27.7503 7.50992 27.8403C7.50992 27.8403 7.53992 27.9103 7.54992 27.9303C7.75992 28.5403 7.64992 29.6103 7.64992 29.6103L7.77992 29.6503C8.05992 28.5803 7.56992 27.7003 7.56992 27.7003L7.55992 27.6903Z" fill="#57AE5B"/>
<path d="M9.08015 25.3503C9.08015 25.3503 7.57015 24.3603 8.27015 23.0203C8.27015 23.0203 8.84015 22.2003 9.44015 21.9803C9.44015 21.9803 9.12015 23.9803 9.44015 24.0303C9.76015 24.0803 9.66015 21.7703 9.66015 21.7703C9.66015 21.7703 11.2501 20.8803 11.8801 20.9503C11.8801 20.9503 10.8901 22.9003 11.2101 22.8603C11.5301 22.8103 12.6401 20.8403 12.6401 20.8403C12.6401 20.8403 14.2801 20.4903 14.5401 21.6203C14.8001 22.7503 14.3801 23.3203 14.1401 23.3903C13.9001 23.4603 12.3401 23.4403 12.3801 23.6703C12.4201 23.9103 13.4701 24.2803 14.0601 24.0703C14.0601 24.0703 13.4101 25.9303 12.5701 25.8403C11.7201 25.7503 11.4601 25.1303 10.9301 25.0903C10.4101 25.0403 10.0201 25.2103 10.2801 25.3703C10.5401 25.5303 11.4301 25.4203 11.8501 25.8403C12.2701 26.2603 12.6201 26.5203 11.8301 26.7103C11.0401 26.9003 9.63015 26.7803 9.35015 26.0703L9.07015 25.3603L9.08015 25.3503Z" fill="#7BC47F"/>
<path d="M13.8103 21.96C13.8103 21.96 9.57027 23.56 9.09027 25.35C9.09027 25.35 9.11027 26.15 8.69027 27.07C8.69027 27.07 8.04027 28.23 8.41027 29.64L8.58027 29.59C8.58027 29.59 8.43027 28.19 8.71027 27.38C8.72027 27.35 8.74027 27.31 8.76027 27.26C8.81027 27.14 8.84027 27.06 8.87027 27C9.02027 26.64 9.24027 26.17 9.38027 26.07C9.38027 26.07 8.43027 24.52 13.8203 21.97L13.8103 21.96Z" fill="#57AE5B"/>
<path d="M6.06006 29.2305C6.06006 31.1405 7.39006 32.6905 9.03006 32.6905C10.6701 32.6905 12.0001 31.1405 12.0001 29.2305H6.06006Z" fill="#699DEE"/>
<path d="M9.75992 32.6605C9.63992 32.6805 9.51992 32.6905 9.38992 32.6905C7.74992 32.6905 6.41992 31.1405 6.41992 29.2305H7.15992C7.15992 31.0005 8.28992 32.4505 9.75992 32.6605Z" fill="#A1C7FF"/>
<path d="M11.67 32.4404H6.39002C6.19002 32.4404 6.02002 32.6304 6.02002 32.8704H12.03C12.03 32.6304 11.87 32.4404 11.66 32.4404H11.67Z" fill="#4A75CB"/>
<path d="M12.0702 29.2305H5.97021V29.3405H12.0702V29.2305Z" fill="#4A75CB"/>
<path d="M44.8001 22.5496V25.8696C44.8001 26.4496 44.6601 26.9296 44.4801 26.9296H38.9001C38.7301 26.9296 38.5801 26.4596 38.5801 25.8696V22.5496C38.5801 21.9696 39.0701 21.4296 40.5201 21.4396L44.4701 21.4896C44.6401 21.4896 44.7901 21.9596 44.7901 22.5496H44.8001Z" fill="#F1A34F"/>
<path d="M45.5301 22.5502V25.8702C45.5301 26.4502 45.3901 26.9302 45.2101 26.9302H39.6301C39.4601 26.9302 39.3101 26.4602 39.3101 25.8702V22.5502C39.3101 21.9702 39.8401 21.4102 40.6401 21.4302L45.2101 21.5002C45.3801 21.5002 45.5301 21.9702 45.5301 22.5602V22.5502Z" fill="#E78B37"/>
<path d="M44.1602 18.56C44.2402 18.36 44.1202 10.19 45.8302 10.28C47.5402 10.38 50.7302 10.48 50.7302 10.48C50.7302 10.48 52.1702 10.63 51.3002 14.64C50.4302 18.66 50.6202 25.02 50.6202 25.02H44.3102L44.1602 18.56Z" fill="#F1A34F"/>
<path d="M50.0799 14.6497C49.9699 15.1297 49.8899 15.6397 49.8099 16.1697C49.4999 18.3197 49.4099 20.7697 49.3799 22.5497C49.3599 24.0197 49.3899 25.0297 49.3899 25.0297H43.0899L42.9399 18.5697C43.0099 18.3797 42.8999 10.1997 44.6099 10.2997C45.4799 10.3497 46.7499 10.3997 47.7699 10.4397C47.8999 10.4397 48.0199 10.4397 48.1499 10.4497C48.9399 10.4797 49.5199 10.4897 49.5199 10.4897C49.5199 10.4897 50.9599 10.6397 50.0899 14.6497H50.0799Z" fill="#E78B37"/>
<path d="M46.1203 31.0494V26.7394C46.1203 26.5594 45.9903 26.3994 45.8303 26.3994C45.7803 26.3994 45.7303 26.4194 45.6903 26.4494C45.6003 26.5094 45.5403 26.6094 45.5403 26.7394V31.0594C45.5403 31.0594 45.5203 31.0594 45.5103 31.0594C44.6803 31.2094 44.0103 31.9194 43.7803 32.8394H47.9103C47.6803 31.8894 46.9803 31.1694 46.1203 31.0394V31.0494Z" fill="#D16E24"/>
<path opacity="0.4" d="M49.8102 16.0399C49.6602 13.2799 48.4202 10.9199 48.1502 10.4399L45.4402 10.1299C45.4402 10.1299 43.3502 11.7399 43.8702 17.9399C44.1402 21.1399 45.2702 19.0399 46.3002 16.2599L46.0902 22.2799C46.0902 22.2799 48.6102 22.4799 49.4002 22.5399C49.4202 20.7599 49.5202 18.3099 49.8302 16.1599C49.8302 16.1199 49.8302 16.0699 49.8302 16.0299L49.8102 16.0399Z" fill="#C44F00"/>
<path d="M45.69 26.4502C45.6 26.5102 45.54 26.6102 45.54 26.7402V32.0302C45.54 32.1602 45.6 32.2602 45.69 32.3202C45.77 32.2602 45.83 32.1602 45.83 32.0302V26.7402C45.83 26.6202 45.77 26.5102 45.69 26.4502Z" fill="#F1A34F"/>
<path d="M45.5103 31.0596C44.6803 31.2096 44.0103 31.9196 43.7803 32.8396H47.2303C47.0003 31.9096 46.3303 31.2096 45.5003 31.0596H45.5103Z" fill="#F1A34F"/>
<path d="M50.7103 25.3995L50.5703 26.3495C50.5703 26.5495 50.5703 26.9195 50.4003 26.9195H40.5803C40.4103 26.9195 40.2603 26.7595 40.2603 26.5495V25.3895C40.2603 25.1895 40.4003 25.0195 40.5803 25.0195H50.4003C50.5703 25.0195 50.7203 25.1795 50.7203 25.3895L50.7103 25.3995Z" fill="#F1A34F"/>
<path d="M38.9002 32.1503C38.9202 32.2503 38.9402 32.3603 38.9302 32.4603C38.9202 32.5203 38.8802 32.5603 38.8302 32.6003L38.7802 32.7003C38.7802 32.7003 38.6102 32.7503 38.4602 32.7703V32.6903C38.4602 32.6903 38.4202 32.6903 38.4002 32.6903C38.2202 32.6903 38.0002 32.7103 37.7202 32.8303C37.6702 32.8303 37.6202 32.8303 37.5802 32.8303H36.9202C36.6002 32.7803 36.4802 32.6303 36.4502 32.5503C36.4502 32.5303 36.6902 32.3903 36.8902 32.3303C36.8902 32.3303 36.8902 32.3303 36.9102 32.3303C36.9402 32.3203 36.9902 32.2903 37.0102 32.2903C37.0502 32.2803 37.0902 32.2603 37.1202 32.2503C37.4502 32.1403 37.6802 31.8803 37.9402 31.5903C38.2402 31.2603 38.6502 29.8103 38.6002 29.7803L39.2802 29.8803C39.2802 29.8803 38.7402 31.1503 38.7802 31.5403C38.8002 31.7103 38.8502 31.8603 38.8902 32.0103V32.0303C38.8902 32.0503 38.9002 32.0703 38.9102 32.0903C38.9102 32.1003 38.9102 32.1203 38.9102 32.1303L38.9002 32.1503Z" fill="#EF9A60"/>
<path d="M47.4 21.2103L44.49 21.0703C44.49 21.0703 40.07 21.4003 39.69 22.1503L38.02 31.2503C38.02 31.2503 38.11 31.4003 38.43 31.4603C38.6 31.4903 38.96 31.4003 38.96 31.4003C38.96 31.4003 41.12 28.1803 41.4 26.1603C41.63 24.4703 41.72 24.2903 42.52 24.3303C43.31 24.3703 45.75 24.5903 46.91 24.3303C48.07 24.0703 47.41 21.2203 47.41 21.2203L47.4 21.2103Z" fill="#233862"/>
<path d="M38.9401 32.3798C38.9401 32.3798 38.9401 32.4398 38.9301 32.4598C38.9201 32.5198 38.8801 32.5598 38.8301 32.5998C38.8301 32.5998 38.8201 32.5998 38.8101 32.6098C38.7301 32.6698 38.6101 32.6698 38.4701 32.6798H38.4101C38.2301 32.6798 38.0101 32.6998 37.7301 32.8298C37.7301 32.8298 37.7201 32.8298 37.7101 32.8298H36.5901C36.4401 32.7598 36.4001 32.6398 36.3901 32.5998C36.3801 32.5698 36.4101 32.5298 36.4801 32.4898C36.4801 32.4898 36.4901 32.4898 36.5001 32.4798C36.6001 32.4298 36.7401 32.3798 36.9001 32.3198C36.9001 32.3198 36.9001 32.3198 36.9101 32.3198C37.0201 32.3598 37.3801 32.4998 37.8101 32.3998C38.1701 32.3198 38.5301 32.1198 38.8001 32.0298C38.8201 32.0298 38.8501 32.0098 38.8701 32.0098C38.8701 32.0098 38.8801 32.0098 38.8901 32.0098C38.8901 32.0198 38.8901 32.0398 38.9001 32.0498C38.9301 32.1498 38.9501 32.2598 38.9501 32.3698L38.9401 32.3798Z" fill="#3E4C59"/>
<path d="M38.8499 32.5693L38.8299 32.6093L38.7899 32.7093L38.7199 32.8493H38.4099V32.7693L38.3999 32.6893V32.6593L38.8299 32.5793L38.8499 32.5693Z" fill="#3E4C59"/>
<path d="M39.8802 32.1503C39.9002 32.2503 39.9202 32.3603 39.9102 32.4603C39.9002 32.5203 39.8602 32.5603 39.8102 32.6003L39.7602 32.7003C39.7602 32.7003 39.5902 32.7503 39.4402 32.7703V32.6903C39.4402 32.6903 39.4002 32.6903 39.3802 32.6903C39.2002 32.6903 38.9802 32.7103 38.7002 32.8303C38.6502 32.8303 38.6002 32.8303 38.5602 32.8303H37.9002C37.5802 32.7803 37.4602 32.6303 37.4302 32.5503C37.4302 32.5303 37.6702 32.3903 37.8702 32.3303C37.8702 32.3303 37.8702 32.3303 37.8902 32.3303C37.9202 32.3203 37.9702 32.2903 37.9902 32.2903C38.0302 32.2803 38.0702 32.2603 38.1002 32.2503C38.4302 32.1403 38.6602 31.8803 38.9202 31.5903C39.2202 31.2603 39.6302 29.8103 39.5802 29.7803L40.2602 29.8803C40.2602 29.8803 39.7202 31.1503 39.7602 31.5403C39.7802 31.7103 39.8302 31.8603 39.8702 32.0103V32.0303C39.8702 32.0503 39.8802 32.0703 39.8902 32.0903C39.8902 32.1003 39.8902 32.1203 39.8902 32.1303L39.8802 32.1503Z" fill="#FFB27D"/>
<path d="M45.6403 12.7998L45.4103 13.8498L44.2203 19.3298C44.1703 19.4098 43.8003 19.5898 43.3803 19.7498C42.8803 19.9398 42.3303 20.1298 42.2203 20.1198C42.0303 20.0998 41.9203 19.6298 41.9803 19.4998C42.0203 19.4098 42.6503 19.0198 43.1503 18.6698C43.4303 18.4698 43.6603 18.2898 43.7303 18.1798C43.8503 17.9798 44.1403 16.1098 44.3703 14.7498C44.4903 14.0498 44.6003 13.4798 44.6603 13.3298C44.8203 12.9398 45.4303 12.8398 45.6003 12.8198C45.6303 12.8198 45.6403 12.8198 45.6403 12.8198V12.7998Z" fill="#466AA5"/>
<path d="M48.1699 21.2103L45.2599 21.0703C45.2599 21.0703 40.8399 21.4003 40.4599 22.1503L38.9199 31.4303C38.9199 31.4303 39.1899 31.5403 39.3599 31.5503C39.6299 31.5703 39.8099 31.4703 39.8099 31.4703C39.8099 31.4703 41.8799 28.1703 42.1599 26.1503C42.3899 24.4603 42.4799 24.2803 43.2799 24.3203C44.0699 24.3603 46.5099 24.5803 47.6699 24.3203C48.8299 24.0603 48.1699 21.2103 48.1699 21.2103Z" fill="#2B478B"/>
<path d="M39.9303 32.3798C39.9303 32.3798 39.9303 32.4398 39.9203 32.4598C39.9103 32.5198 39.8703 32.5598 39.8203 32.5998C39.8203 32.5998 39.8103 32.5998 39.8003 32.6098C39.7203 32.6698 39.6003 32.6698 39.4603 32.6798H39.4003C39.2203 32.6798 39.0003 32.6998 38.7203 32.8298C38.7203 32.8298 38.7103 32.8298 38.7003 32.8298H37.5803C37.4303 32.7598 37.3903 32.6398 37.3803 32.5998C37.3703 32.5698 37.4003 32.5298 37.4703 32.4898C37.4703 32.4898 37.4803 32.4898 37.4903 32.4798C37.5903 32.4298 37.7303 32.3798 37.8903 32.3198C37.8903 32.3198 37.8903 32.3198 37.9003 32.3198C38.0103 32.3598 38.3703 32.4998 38.8003 32.3998C39.1603 32.3198 39.5203 32.1198 39.7903 32.0298C39.8103 32.0298 39.8403 32.0098 39.8603 32.0098C39.8603 32.0098 39.8703 32.0098 39.8803 32.0098C39.8803 32.0198 39.8803 32.0398 39.8903 32.0498C39.9203 32.1498 39.9403 32.2598 39.9403 32.3698L39.9303 32.3798Z" fill="#323F4B"/>
<path d="M39.8301 32.5693L39.8201 32.6093L39.7701 32.7093L39.7101 32.8493H39.3901V32.7693V32.6893V32.6593L39.8201 32.5793L39.8301 32.5693Z" fill="#323F4B"/>
<path d="M47.0901 11.3198C48.4801 11.1998 48.7601 7.85984 47.0901 8.26984C47.0901 8.26984 46.8601 8.08984 46.7401 8.08984C46.7401 8.08984 46.8301 8.12984 46.8701 8.18984C46.6901 8.13984 46.4101 8.06984 46.1901 8.20984C43.9501 9.68984 46.5401 11.3698 47.0801 11.3198H47.0901Z" fill="#1F2933"/>
<path d="M45.52 13.1C45.52 13.1 45.98 13.5 46.38 13.45C46.75 13.4 47.06 12.91 47.06 12.9C46.91 12.84 46.9 12.58 47.06 11.54H46.99L45.8 11.59C45.8 11.59 45.77 12.02 45.71 12.42C45.66 12.76 45.6 13.07 45.53 13.09L45.52 13.1Z" fill="#FFB27D"/>
<path d="M45.4101 13.8401L44.2201 19.3201C44.1701 19.4001 43.8001 19.5801 43.3801 19.7401C43.3401 19.6401 43.3101 19.5201 43.2801 19.4001C43.2201 19.1501 43.1701 18.9001 43.1401 18.6601C43.4201 18.4601 43.6501 18.2801 43.7201 18.1701C43.8401 17.9701 44.1301 16.1001 44.3601 14.7401C44.8901 14.1301 45.4001 13.8301 45.4001 13.8301V13.8501L45.4101 13.8401Z" fill="#2B478B"/>
<path d="M45.7902 11.5998C45.7902 11.5998 45.7602 12.0298 45.7002 12.4298C46.3502 12.5298 46.7902 11.9098 46.9802 11.5498L45.7902 11.5998Z" fill="#EF9A60"/>
<path d="M47.1199 11.4294C47.1199 11.4294 47.5499 10.8694 47.6999 10.3494C47.8099 9.97941 47.8399 8.53941 46.5999 8.50941C46.5999 8.50941 46.2399 8.47941 45.8699 8.67941C45.5799 8.83941 45.1299 9.21941 45.3899 10.5294L45.4399 10.9694L47.1199 11.4294Z" fill="#1F2933"/>
<path d="M45.52 11.9403C45.52 11.9403 47.04 12.2603 47.2 11.1503C47.36 10.0403 47.6599 9.33029 46.6899 9.08029C45.7199 8.83029 45.4699 9.22029 45.3499 9.57029C45.2199 9.93029 45.13 11.8203 45.52 11.9403Z" fill="#FFB27D"/>
<path d="M46 8.92013C46 8.92013 46.24 10.3001 46.85 10.6201C47.47 10.9301 47.77 10.7901 47.77 10.7901C47.77 10.7901 47.34 10.2401 47.35 9.42013C47.35 9.42013 46.4 8.36013 46 8.92013Z" fill="#1F2933"/>
<path d="M46.0801 9.04C46.0801 9.04 45.7301 9.27 45.6101 9.54C45.4901 9.81 45.3801 10.38 45.2401 10.34C45.2401 10.34 45.0501 9.39 45.4701 8.96C45.9201 8.5 46.0801 9.04 46.0801 9.04Z" fill="#1F2933"/>
<path d="M48.2901 22.8998C48.1701 23.1498 47.9101 23.1698 47.5701 23.0598C47.4101 23.0098 47.2401 22.9198 47.0601 22.8298C47.0401 22.8198 47.0201 22.8098 47.0101 22.7998C46.4701 22.4998 45.8801 22.0398 45.4101 21.6898C44.4301 20.9598 44.3701 21.3698 44.0801 20.9598C44.0801 20.9598 44.3801 20.5898 44.0001 16.3198C43.8901 15.0998 45.6501 12.7998 45.6501 12.7998C45.6501 12.7998 45.6601 13.5598 47.0701 12.9098C47.1201 12.8898 47.5001 13.8498 47.8401 15.0198C47.8901 15.2098 47.9501 15.3998 48.0001 15.5898C48.2301 16.4898 48.4101 17.4398 48.3601 18.0898C48.3501 18.2498 48.3301 18.3898 48.2901 18.4998C48.2901 18.5098 48.2901 18.5198 48.2801 18.5298C47.8001 19.8798 48.6601 22.1598 48.3101 22.8898L48.2901 22.8998Z" fill="#466AA5"/>
<path d="M43.4601 17.5598L40.8701 17.3398L41.9801 20.8598L44.4001 21.1598L43.4601 17.5598Z" fill="#B64C41"/>
<path d="M43.4401 17.5999L40.8501 17.3799L41.9601 20.8999L44.3801 21.1899L43.4401 17.5999Z" fill="#D6716B"/>
<path d="M43.1999 17.5403C43.1999 17.5403 43.2599 17.0803 43.0399 17.0703C42.8199 17.0703 42.6899 17.5103 42.6899 17.5103L43.1999 17.5403Z" fill="#B2CBFD"/>
<path d="M42.79 17.95C42.85 18.27 43.21 18.81 43.19 19.07L41.54 19.05C41.54 19.05 41.55 18.93 41.2 18.04C41.05 17.68 41.23 17.02 41.38 17L43.06 17.07C43.06 17.07 42.68 17.32 42.8 17.95H42.79Z" fill="#D2E9FF"/>
<path d="M40.8701 17.3398L40.8501 17.3798H40.9101L40.9001 17.3598L40.8701 17.3398Z" fill="#B64C41"/>
<path d="M44.3799 21.1901L44.3999 21.1601L44.3599 21.1201L44.3799 21.1901Z" fill="#B64C41"/>
<path d="M48.2899 22.9C48.1699 23.15 47.9099 23.17 47.5699 23.06C47.4099 23.01 47.2399 22.92 47.0599 22.83C46.4199 22.34 45.7299 21.57 45.3399 20.32C44.4699 17.52 47.8099 15.5 47.8099 15.5L47.9699 15.59C48.1999 16.49 48.3799 17.44 48.3299 18.09C48.3199 18.25 48.2999 18.39 48.2599 18.5C48.2599 18.51 48.2599 18.52 48.2499 18.53C47.7699 19.88 48.6299 22.16 48.2799 22.89L48.2899 22.9Z" fill="#2B478B"/>
<path d="M44.4498 20.0095L44.3398 19.9195L45.3498 18.2695L45.4498 18.3595L44.4498 20.0095Z" fill="#D16E24"/>
<path d="M44.3398 19.9199V20.0699L44.4498 20.0099L44.3398 19.9199Z" fill="#F1A34F"/>
<path d="M45.68 19.2094C45.68 19.2094 45.23 18.9894 45 19.0494C44.77 19.1094 44.3 19.2894 44.32 19.4394C44.34 19.5894 44.84 19.7594 45.08 19.6594C45.32 19.5594 45.45 19.7694 45.73 19.7194C46.01 19.6694 45.69 19.2094 45.69 19.2094H45.68Z" fill="#FFB27D"/>
<path d="M47.06 12.9094C47.06 12.9094 48.49 13.1894 48.66 13.6294C48.84 14.0694 48.72 18.6594 48.61 19.1494C48.5 19.6394 46.19 19.8594 45.5 19.8294C45.5 19.8294 45.39 19.2794 45.52 18.9794C45.65 18.6794 47.35 18.3494 47.49 18.1194C47.63 17.8894 47.21 15.0994 47.26 14.5494C47.31 13.9994 47.04 12.8994 47.04 12.8994L47.06 12.9094Z" fill="#466AA5"/>
<path d="M41.4699 19.3801C41.4699 19.3801 41.9399 19.3301 41.8799 19.5501C41.8199 19.7801 41.6399 19.8801 41.6399 19.8801C41.6399 19.8801 41.2799 19.5701 41.4699 19.3701V19.3801Z" fill="#FFB27D"/>
<path d="M49.97 22.5498V25.8698C49.97 26.4498 49.83 26.9298 49.65 26.9298H44.07C43.9 26.9298 43.75 26.4598 43.75 25.8698V22.5498C43.75 21.9698 44.19 21.3898 45.72 21.4898H49.64C49.81 21.4898 49.96 21.9598 49.96 22.5498H49.97Z" fill="#F1A34F"/>
<path d="M50.7102 22.55V25.87C50.7102 26.45 50.5702 26.93 50.3902 26.93H44.8102C44.6402 26.93 44.4902 26.46 44.4902 25.87V22.55C44.4902 21.97 44.9702 21.44 46.0902 21.49L50.0702 21.46C50.7002 21.46 50.6902 21.96 50.6902 22.55H50.7102Z" fill="#DF812F"/>
<path d="M56.5698 24.0195H49.3198C49.1498 24.0195 49.0098 24.1795 49.0098 24.3895V24.5195C49.0098 24.7195 49.1498 24.8895 49.3198 24.8895H52.6598L52.8498 31.5895C51.9298 31.6195 51.1598 32.1595 50.9598 32.8695H54.9298C54.7298 32.1695 53.9798 31.6395 53.0598 31.5895L53.2298 24.8895H56.5698C56.7398 24.8895 56.8798 24.7295 56.8798 24.5195V24.3895C56.8798 24.1895 56.7398 24.0195 56.5698 24.0195Z" fill="#4055A8"/>
<path d="M52.4896 23.3099C52.4896 23.3099 52.3496 23.2899 52.2896 23.3099V23.1999C52.2896 23.1999 52.2896 23.1499 52.2896 23.1299H51.3096C51.3096 23.1299 51.3096 23.1799 51.3096 23.1999V23.4199C51.3096 23.7399 51.5296 23.9899 51.7996 23.9899C51.9496 23.9899 52.0796 23.9099 52.1696 23.7899C52.1696 23.7899 52.3996 23.7199 52.4796 23.6199C52.5496 23.5199 52.5796 23.3599 52.4996 23.2999L52.4896 23.3099ZM52.4396 23.5199C52.4196 23.5899 52.2996 23.6299 52.2496 23.6499C52.2696 23.5899 52.2896 23.5299 52.2896 23.4599C52.3196 23.4099 52.3796 23.3699 52.4196 23.3799C52.4496 23.3799 52.4796 23.4199 52.4396 23.5199Z" fill="#699DEE"/>
<path d="M51.3896 23.1999V23.4199C51.3896 23.7399 51.6097 23.9899 51.8797 23.9899C51.8997 23.9899 51.9196 23.9899 51.9496 23.9899C51.7096 23.9499 51.5196 23.7099 51.5196 23.4199V23.1999C51.5196 23.1999 51.5196 23.1499 51.5196 23.1299H51.3896C51.3896 23.1299 51.3896 23.1799 51.3896 23.1999Z" fill="#AFCDFB"/>
<path d="M51.9996 23.9502H51.5996V24.0202H51.9996V23.9502Z" fill="#699DEE"/>
<path d="M55.0799 23.3099C55.0799 23.3099 54.9399 23.2899 54.8799 23.3099V23.1999C54.8799 23.1999 54.8799 23.1499 54.8799 23.1299H53.8999C53.8999 23.1299 53.8999 23.1799 53.8999 23.1999V23.4199C53.8999 23.7399 54.1199 23.9899 54.3899 23.9899C54.5399 23.9899 54.6699 23.9099 54.7599 23.7899C54.7599 23.7899 54.9899 23.7199 55.0699 23.6199C55.1399 23.5199 55.1699 23.3599 55.0899 23.2999L55.0799 23.3099ZM55.0299 23.5199C55.0099 23.5899 54.8899 23.6299 54.8399 23.6499C54.8599 23.5899 54.8799 23.5299 54.8799 23.4599C54.9099 23.4099 54.9699 23.3699 55.0099 23.3799C55.0399 23.3799 55.0699 23.4199 55.0299 23.5199Z" fill="#699DEE"/>
<path d="M53.9697 23.1999V23.4199C53.9697 23.7399 54.1897 23.9899 54.4597 23.9899C54.4797 23.9899 54.4997 23.9899 54.5297 23.9899C54.2897 23.9499 54.0997 23.7099 54.0997 23.4199V23.1999C54.0997 23.1999 54.0997 23.1499 54.0997 23.1299H53.9697C53.9697 23.1299 53.9697 23.1799 53.9697 23.1999Z" fill="#AFCDFB"/>
<path d="M54.5797 23.9502H54.1797V24.0202H54.5797V23.9502Z" fill="#699DEE"/>
<path d="M57.87 32.8496H0.08C0.0358172 32.8496 0 32.8832 0 32.9246C0 32.966 0.0358172 32.9996 0.08 32.9996H57.87C57.9142 32.9996 57.95 32.966 57.95 32.9246C57.95 32.8832 57.9142 32.8496 57.87 32.8496Z" fill="#283250"/>
</g>
<defs>
<clipPath id="clip0_1830_11583">
<rect width="58.96" height="33" fill="white"/>
</clipPath>
</defs>
</svg>
