<svg width="57" height="33" viewBox="0 0 57 33" fill="none" xmlns="http://www.w3.org/2000/svg">
<g clip-path="url(#clip0_1947_16723)">
<path d="M53.3199 26.7699C53.0499 28.3999 51.5599 29.5999 49.8099 29.5999H39.7399H30.9099H28.7599H28.5199H26.7199H26.4099H23.8999H23.4599H21.4099H21.0999H20.8499H17.3199H16.6999H13.9699H13.3899H9.17991C8.63991 29.5999 8.11991 29.4899 7.64991 29.2799C6.92991 28.9699 6.32991 28.4499 5.94991 27.7699C5.67991 27.2899 5.37991 26.7299 5.09991 26.0999C4.63991 25.0899 4.20991 23.9199 3.92991 22.6299C3.69991 21.6099 3.56991 20.5099 3.58991 19.3899C3.58991 19.1899 3.59991 18.9799 3.61991 18.7799C3.62991 18.5999 3.64991 18.4299 3.66991 18.2499C3.73991 17.6799 3.84991 17.0999 4.01991 16.5199C4.21991 15.8199 4.49991 15.1099 4.86991 14.4099C5.30991 13.5799 5.87991 12.7499 6.60991 11.9499C6.99991 11.5099 7.43991 11.0899 7.92991 10.6599C16.6199 3.08987 25.0599 6.26987 26.2699 6.26987C32.0899 6.26987 30.6799 2.80987 37.1199 2.27987C50.7399 1.15987 48.7099 12.9899 48.7099 12.9899C48.7099 12.9899 48.5099 13.6399 48.4499 13.8799C48.3699 14.2099 48.2999 14.5099 48.2599 14.8099C48.2599 14.8299 48.2599 14.8499 48.2499 14.8799C48.2399 14.9599 48.2299 15.0499 48.2199 15.1299C48.1499 15.7099 48.1499 16.2299 48.2199 16.6999C48.3399 17.5699 48.6599 18.2599 49.0999 18.8599C49.3899 19.2599 49.7299 19.6099 50.0899 19.9499C50.1899 20.0499 50.2899 20.1399 50.3999 20.2299C50.5299 20.3499 50.6699 20.4699 50.7999 20.5899C50.9799 20.7499 51.1599 20.9099 51.3299 21.0799C51.3699 21.1199 51.4099 21.1499 51.4399 21.1899C51.4999 21.2499 51.5699 21.3099 51.6299 21.3799C51.8899 21.6399 52.1399 21.8999 52.3599 22.1899C52.4099 22.2499 52.4599 22.3199 52.4999 22.3799C52.5499 22.4599 52.6099 22.5299 52.6599 22.6099C52.8199 22.8599 52.9699 23.1399 53.0799 23.4299C53.4299 24.2999 53.5599 25.3699 53.3199 26.7799V26.7699Z" fill="#FFE8D9"/>
<path opacity="0.2" d="M28.8296 22.4402L25.1896 24.4802L10.1896 22.3602L3.57959 19.3702C3.57959 19.1702 3.58959 18.9602 3.60959 18.7602C3.61959 18.5802 3.63959 18.4102 3.65959 18.2302C3.72959 17.6602 3.83959 17.0802 4.00959 16.5002C4.20959 15.8002 4.48959 15.0902 4.85959 14.3902C4.85959 14.3902 9.31959 12.6502 10.1896 13.1702C11.0696 13.6902 13.5696 16.8902 14.6996 16.7302C15.8296 16.5702 16.6596 15.1702 18.1696 17.1902C19.6696 19.2102 20.5096 19.9302 21.8896 19.1602C23.2696 18.3902 23.9796 17.2802 25.1496 17.9502C26.3196 18.6202 28.8396 22.4402 28.8396 22.4402H28.8296Z" fill="#80B4FF"/>
<path opacity="0.4" d="M50.0697 19.9396C46.7597 20.9896 36.2497 24.2696 33.7797 24.4696C30.8297 24.7096 30.4097 22.3996 30.4097 22.3996C30.4097 22.3996 33.7097 17.9096 34.1297 17.9896C34.5497 18.0696 35.6897 19.8296 36.1297 19.5396C36.5697 19.2496 38.4097 13.2396 39.1097 13.1696C39.7697 13.1096 40.7297 14.5396 40.9997 14.2996C41.1497 14.1696 41.8397 12.8196 42.5397 11.6496C43.0997 10.7096 43.6797 9.88965 44.0097 9.88965C44.3397 9.88965 44.7897 10.5696 45.2697 11.4296C46.0697 12.8796 46.9497 14.8396 47.4297 14.9496C47.6697 14.9996 47.9497 14.9196 48.2497 14.7996C48.2497 14.8196 48.2497 14.8396 48.2397 14.8696C48.2297 14.9496 48.2197 15.0396 48.2097 15.1196C48.1397 15.6996 48.1397 16.2196 48.2097 16.6896C48.3297 17.5596 48.6497 18.2496 49.0897 18.8496C49.3797 19.2496 49.7197 19.5996 50.0797 19.9396H50.0697Z" fill="#80B4FF"/>
<path opacity="0.4" d="M33.7797 22.4895C33.7797 22.4895 34.9697 20.4595 35.1597 20.7795C35.3497 21.1095 35.8797 21.2695 36.1297 20.9195C36.3797 20.5695 39.4297 17.4595 39.4997 18.2295C39.5697 18.9995 38.3197 20.9295 38.8197 21.0095C39.3197 21.0995 42.0797 18.4995 43.0497 19.0295C44.0197 19.5595 45.1197 18.5895 46.1497 18.6195C47.1797 18.6495 47.1497 20.8995 47.1497 20.8995L38.7797 23.3195L34.8297 23.4995L32.9497 23.2895L33.7597 22.4895H33.7797Z" fill="#80B4FF"/>
<path d="M50.7798 20.5896C50.7798 20.5896 37.1798 23.2596 35.7598 23.1896C35.7598 23.1896 36.7598 22.2496 38.0198 22.2096C39.2798 22.1696 39.8198 21.0496 41.2798 20.9196C42.7398 20.7896 43.6198 21.0796 44.2298 20.7896C44.8398 20.4896 45.5298 19.0596 46.9498 19.0996C48.1698 19.1296 48.6298 19.0996 49.0998 18.8496C49.4698 19.3596 49.9198 19.7996 50.3898 20.2296C50.5198 20.3496 50.6598 20.4696 50.7898 20.5896H50.7798Z" fill="#80B4FF"/>
<path d="M23.6396 21.9903L3.59961 18.7703C3.60961 18.5903 3.62961 18.4203 3.64961 18.2403C3.71961 17.6703 3.82961 17.0903 3.99961 16.5103C3.99961 16.5103 6.13961 16.1003 7.16961 16.5103C8.19961 16.9203 8.10961 17.5703 8.91961 17.6503C9.72961 17.7403 10.4696 17.6603 11.0896 18.1203C11.6996 18.5803 12.6196 18.9103 13.5596 18.8603C14.4896 18.8103 16.4796 18.6003 17.2596 19.1903C18.0396 19.7803 19.5896 21.0703 20.9196 21.0503C22.2596 21.0303 22.9996 21.3703 23.2196 21.6603C23.4296 21.9503 23.6196 22.0003 23.6296 22.0003L23.6396 21.9903Z" fill="#AFCDFB"/>
<path d="M53.4297 25.7195C53.4197 26.0495 53.3797 26.3995 53.3197 26.7695C53.0497 28.3995 51.5597 29.5995 49.8097 29.5995H39.7397H30.9097H28.7597H28.5197H26.7197H26.4097H23.8997H23.4597H21.4097H21.0997H20.8497H17.3197H16.6997H13.8197H13.3897H9.17969C8.63969 29.5995 8.11969 29.4895 7.64969 29.2795C6.92969 28.9695 6.32969 28.4495 5.94969 27.7695C5.23969 26.5195 4.38969 24.7095 3.92969 22.6295C3.83969 22.2095 3.75969 21.7795 3.69969 21.3295C3.60969 20.6095 3.56969 19.8595 3.59969 19.0895C3.60969 18.8095 3.63969 18.5195 3.66969 18.2395C5.63969 18.2095 10.8497 18.3595 17.0497 20.2195C24.9697 22.5895 32.2797 24.1195 37.6097 22.8795C42.0397 21.8495 47.5497 20.5695 50.7897 20.5895C50.9697 20.7495 51.1497 20.9095 51.3197 21.0795C51.3597 21.1195 51.3997 21.1495 51.4297 21.1895C51.4897 21.2495 51.5597 21.3095 51.6197 21.3795C51.8797 21.6395 52.1297 21.8995 52.3497 22.1895C52.3997 22.2495 52.4497 22.3195 52.4897 22.3795C52.5397 22.4595 52.5997 22.5295 52.6497 22.6095C52.8097 22.8595 52.9597 23.1395 53.0697 23.4295C53.3297 24.0695 53.4697 24.8195 53.4297 25.7295V25.7195Z" fill="#BFE2A8"/>
<path opacity="0.8" d="M27.2598 10.6203C27.2598 10.6203 27.8698 9.56029 29.3398 9.68029C29.3398 9.68029 31.4698 7.91029 33.7298 9.44029C33.7298 9.44029 36.1398 9.06029 37.9198 9.77029C39.1098 10.2403 39.4998 10.7403 39.4998 10.7403L27.2598 10.6203Z" fill="#F8FCFF"/>
<path opacity="0.8" d="M19.0996 13.0899C19.0996 13.0899 19.6196 12.3399 20.8596 12.4299C20.8596 12.4299 22.6596 11.1799 24.5796 12.2599C24.5796 12.2599 26.6196 11.9899 28.1296 12.4899C29.1396 12.8199 29.4696 13.1699 29.4696 13.1699L19.0996 13.0899Z" fill="#F8FCFF"/>
<path opacity="0.8" d="M12.6599 9.68949C12.6599 9.68949 13.0299 8.93949 13.9099 9.02949C13.9099 9.02949 15.1899 7.77949 16.5599 8.85949C16.5599 8.85949 18.0099 8.58949 19.0899 9.08949C19.8099 9.41949 20.0399 9.76949 20.0399 9.76949L12.6499 9.68949H12.6599Z" fill="#F8FCFF"/>
<path d="M25.0498 22.8298C25.0498 22.8298 17.2698 21.9998 14.1298 20.9198C10.9798 19.8398 10.7498 20.1598 11.5198 20.7298C12.2798 21.2998 16.6798 22.6498 14.8598 22.7998C13.0398 22.9498 9.75977 22.4998 8.52977 23.6898C7.28977 24.8798 5.34977 25.9498 8.52977 26.1798C11.7098 26.4098 20.9798 24.7698 20.9798 24.7698L25.0698 22.8198L25.0498 22.8298Z" fill="#DAED8E"/>
<path d="M33.6298 21.54C33.6298 21.54 34.7598 24.1 34.8798 24.18C35.0098 24.26 35.4698 24.36 35.4998 24.48C35.5298 24.6 36.2498 26.16 36.2498 26.16L33.4898 26.66L31.2998 25.45L33.6298 21.54Z" fill="#A36F4B"/>
<path d="M49.8099 29.6H41.4899H39.7399H30.9099H30.6499H28.7599H28.5199H26.7199H26.4099H23.8999H23.4599H21.4099H21.0999H20.8499H17.3199H16.6999H13.8199H13.3899H9.1799C8.6399 29.6 8.1199 29.49 7.6499 29.28C9.8999 28.29 16.7499 25.33 22.1899 23.52C28.7899 21.31 32.5499 20.13 33.6399 21.55C34.7299 22.97 30.7599 25.96 32.9299 26.04C35.0999 26.12 40.3299 25.49 42.2899 25.84C44.2499 26.19 44.0499 26.9 44.5799 26.94C45.1199 26.98 49.2999 26.7 49.7999 27.41C50.2999 28.12 49.7999 29.61 49.7999 29.61L49.8099 29.6Z" fill="#D8A987"/>
<path opacity="0.8" d="M45.2696 11.4296C45.2696 11.4296 44.5496 10.8996 44.3796 10.7396C44.2096 10.5796 43.9996 10.9696 43.8796 11.1296C43.7496 11.2996 43.7396 10.7796 43.7396 10.6196C43.7396 10.4596 42.5396 11.6496 42.5396 11.6496C43.0996 10.7096 43.6796 9.88965 44.0096 9.88965C44.3396 9.88965 44.7896 10.5696 45.2696 11.4296Z" fill="#F8FCFF"/>
<path d="M38.0195 15.0102C38.0195 15.0102 38.8795 12.8702 39.3195 12.9402C39.7695 13.0102 40.3695 13.9802 40.3695 13.9802C40.3695 13.9802 39.7495 13.4802 39.6395 13.6502C39.5295 13.8202 39.4995 14.1502 39.3095 13.9802C39.1095 13.8102 38.9895 13.7902 38.8795 13.9802C38.7795 14.1702 38.0195 15.0202 38.0195 15.0202V15.0102Z" fill="#F8FCFF"/>
<path d="M16.0198 27.2499C15.4798 27.8799 12.1298 28.0799 12.2398 28.5299C12.3198 28.8899 13.8698 29.1499 13.9598 29.5899H13.3798H9.16984C8.62984 29.5899 8.10984 29.4799 7.63984 29.2699C6.91984 28.9599 6.31984 28.4399 5.93984 27.7599C5.66984 27.2799 5.36984 26.7199 5.08984 26.0899C5.08984 26.0899 6.51984 24.7399 10.0298 25.2699C13.5398 25.7999 14.0298 24.4299 15.6698 24.8499C17.3098 25.2799 17.7398 24.9099 18.3398 25.2699C18.9498 25.6199 16.0398 26.2099 15.7298 26.4899C15.4198 26.7699 16.5698 26.6299 16.0198 27.2599V27.2499Z" fill="#57AE5B"/>
<path d="M6.92008 25.3998C6.92008 25.3998 6.20008 23.7798 6.88008 23.4298C7.56008 23.0798 6.80008 24.8198 7.09008 25.4698C7.23008 25.7898 6.92008 25.4098 6.92008 25.4098V25.3998Z" fill="#509B67"/>
<path d="M6.57986 25.7998C6.57986 25.7998 5.69986 24.7798 6.10986 24.3798C6.51986 23.9798 6.36986 25.3998 6.71986 25.8098C6.89986 26.0098 6.57986 25.7998 6.57986 25.7998Z" fill="#509B67"/>
<path d="M7.24001 25.7002C7.24001 25.7002 7.16001 24.0902 7.87001 23.9802C8.58001 23.8702 7.34001 25.1602 7.37001 25.8002C7.39001 26.1202 7.24001 25.6902 7.24001 25.6902V25.7002Z" fill="#509B67"/>
<path d="M9.70964 27.3296C9.70964 27.3296 9.60964 26.3596 9.98964 26.2796C10.3596 26.1996 9.90964 27.2896 9.90964 27.2896L9.71964 27.3296H9.70964Z" fill="#82B378"/>
<path d="M9.98975 27.3497C9.98975 27.3497 10.3897 26.5897 10.7497 26.6897C11.1097 26.7997 10.1797 27.3997 10.1797 27.3997L9.98975 27.3397V27.3497Z" fill="#82B378"/>
<path d="M9.21979 27.3796C9.21979 27.3796 9.61979 27.1696 9.96979 27.2196C10.3198 27.2696 10.3698 27.3296 10.5298 27.3796C10.6798 27.4296 10.8698 27.5396 10.7898 27.5796C10.7098 27.6296 10.0098 27.5396 9.83979 27.5796C9.66979 27.6196 8.79979 27.5196 9.21979 27.3796Z" fill="#82B378"/>
<path d="M17.1396 28.6896C17.1396 28.6896 17.6096 26.6296 18.2596 27.1096C18.9096 27.5896 17.5196 28.0696 17.1396 28.6896Z" fill="#82B378"/>
<path d="M16.9497 28.8093C16.9497 28.8093 16.7397 27.3093 17.1697 27.2393C17.5997 27.1693 16.9597 28.3593 16.9497 28.8093Z" fill="#82B378"/>
<path d="M16.4997 28.6897C16.4997 28.6897 16.8697 28.5197 17.1497 28.5297C17.4197 28.5497 18.1597 28.6297 18.0897 28.7597C18.0197 28.8997 17.2897 28.7797 17.0997 28.7997C16.9097 28.8197 16.2997 28.7997 16.4997 28.6797V28.6897Z" fill="#82B378"/>
<path d="M41.7896 27.2401C41.7896 27.2401 41.7796 26.5301 42.1196 26.4101C42.4696 26.2901 41.8196 27.0601 41.7896 27.2401Z" fill="#509B67"/>
<path d="M42.0693 27.1399C42.0693 27.1399 42.3393 26.2399 42.8193 26.2099C43.3093 26.1799 42.1793 26.9199 42.0693 27.1399Z" fill="#509B67"/>
<path d="M9.47968 24.0698C9.61968 24.1198 10.1197 24.0798 10.1397 24.0398C10.1597 23.9998 9.82968 23.6398 9.68968 23.5898C9.54968 23.5398 9.38968 23.5998 9.32968 23.7298C9.26968 23.8598 9.33968 24.0098 9.47968 24.0698Z" fill="#509B67"/>
<path d="M10.7398 24.2896C10.6598 24.4096 10.6298 24.8796 10.6598 24.9096C10.6998 24.9296 11.1298 24.6796 11.1998 24.5596C11.2798 24.4396 11.2398 24.2796 11.1098 24.2096C10.9798 24.1396 10.8098 24.1696 10.7298 24.2996L10.7398 24.2896Z" fill="#509B67"/>
<path d="M10.0699 25.2199C10.2099 25.2599 10.7099 25.1799 10.7199 25.1499C10.7299 25.1099 10.3799 24.7799 10.2299 24.7299C10.0899 24.6899 9.92988 24.7599 9.88988 24.8999C9.83988 25.0399 9.91988 25.1799 10.0699 25.2199Z" fill="#509B67"/>
<path d="M10.7996 25.67C10.7996 25.67 10.7396 24.59 10.1196 24.04H10.1296C10.7596 24.58 10.8096 25.66 10.8096 25.67H10.7896H10.7996Z" fill="#509B67"/>
<path d="M14.7697 23.1894C14.6297 23.2794 14.0897 23.3294 14.0697 23.2894C14.0397 23.2494 14.3097 22.8094 14.4397 22.7194C14.5797 22.6294 14.7597 22.6694 14.8497 22.7994C14.9397 22.9294 14.8997 23.0994 14.7697 23.1894Z" fill="#509B67"/>
<path d="M13.4795 23.6795C13.5895 23.7895 13.7395 24.2895 13.6995 24.3195C13.6695 24.3495 13.1595 24.1795 13.0395 24.0595C12.9295 23.9495 12.9395 23.7695 13.0595 23.6695C13.1795 23.5695 13.3695 23.5695 13.4795 23.6795Z" fill="#509B67"/>
<path d="M14.4097 24.5194C14.2697 24.5994 13.7197 24.6094 13.6997 24.5694C13.6797 24.5294 13.9797 24.0994 14.1197 24.0294C14.2597 23.9494 14.4397 23.9994 14.5197 24.1394C14.5997 24.2694 14.5497 24.4394 14.4097 24.5194Z" fill="#509B67"/>
<path d="M13.7397 25.1591C13.7397 25.1591 13.5497 23.9991 14.0797 23.2891H14.0597C13.5197 23.9991 13.7097 25.1491 13.7097 25.1591H13.7297H13.7397Z" fill="#509B67"/>
<path d="M12.0795 25.77H12.0395C11.8795 23.85 11.2595 22.47 11.2495 22.46H11.2895C11.2895 22.46 11.9195 23.85 12.0795 25.77Z" fill="#509B67"/>
<path d="M10.8293 22.2604C10.9093 22.3404 11.2593 22.4704 11.2893 22.4504C11.3093 22.4304 11.2193 22.0804 11.1393 22.0004C11.0593 21.9204 10.9293 21.9104 10.8393 21.9804C10.7493 22.0504 10.7493 22.1804 10.8193 22.2604H10.8293Z" fill="white"/>
<path d="M11.3795 21.97C11.3095 22.06 11.2495 22.41 11.2695 22.43C11.2995 22.45 11.6395 22.29 11.7095 22.2C11.7795 22.11 11.7595 21.99 11.6695 21.92C11.5795 21.85 11.4495 21.87 11.3795 21.96V21.97Z" fill="white"/>
<path d="M11.7993 22.3504C11.6893 22.3204 11.3093 22.4004 11.2993 22.4304C11.2993 22.4604 11.5693 22.7104 11.6893 22.7304C11.7993 22.7604 11.9193 22.7004 11.9493 22.5904C11.9793 22.4804 11.9093 22.3804 11.7993 22.3504Z" fill="white"/>
<path d="M11.5393 22.8299C11.5293 22.7199 11.3193 22.4199 11.2893 22.4199C11.2593 22.4199 11.1093 22.7599 11.1293 22.8699C11.1393 22.9799 11.2393 23.0599 11.3593 23.0499C11.4793 23.0399 11.5593 22.9399 11.5493 22.8299H11.5393Z" fill="white"/>
<path d="M10.9695 22.8099C11.0695 22.7599 11.2895 22.4599 11.2795 22.4299C11.2595 22.3999 10.8795 22.3999 10.7795 22.4599C10.6795 22.5099 10.6395 22.6299 10.6895 22.7299C10.7395 22.8299 10.8695 22.8599 10.9695 22.8099Z" fill="white"/>
<path d="M11.2095 22.4203C11.2095 22.4203 11.2495 22.3603 11.2895 22.3703C11.3295 22.3703 11.3495 22.4103 11.3495 22.4403C11.3495 22.4803 11.3095 22.5003 11.2695 22.4903C11.2295 22.4903 11.2095 22.4503 11.2095 22.4203Z" fill="#F99746"/>
<path d="M12.0697 23.8096C11.9597 23.9396 11.8297 24.4996 11.8697 24.5296C11.9097 24.5596 12.4597 24.3296 12.5697 24.1996C12.6797 24.0696 12.6597 23.8696 12.5197 23.7696C12.3797 23.6596 12.1697 23.6796 12.0597 23.8096H12.0697Z" fill="#509B67"/>
<path d="M15.7295 25.8901H15.7695C15.9295 23.9701 16.5495 22.5901 16.5595 22.5801H16.5195C16.5195 22.5801 15.8895 23.9701 15.7295 25.8901Z" fill="#509B67"/>
<path d="M16.9799 22.3903C16.8999 22.4703 16.5499 22.6003 16.5199 22.5803C16.4999 22.5603 16.5899 22.2103 16.6699 22.1303C16.7499 22.0503 16.8799 22.0403 16.9699 22.1103C17.0599 22.1803 17.0599 22.3103 16.9899 22.3903H16.9799Z" fill="white"/>
<path d="M16.4297 22.0999C16.4997 22.1899 16.5597 22.5399 16.5397 22.5599C16.5097 22.5799 16.1697 22.4199 16.0997 22.3299C16.0297 22.2399 16.0497 22.1199 16.1397 22.0499C16.2297 21.9799 16.3597 21.9999 16.4297 22.0899V22.0999Z" fill="white"/>
<path d="M16.0198 22.4803C16.1298 22.4503 16.5098 22.5303 16.5198 22.5603C16.5198 22.5903 16.2498 22.8403 16.1298 22.8603C16.0198 22.8903 15.8998 22.8303 15.8698 22.7203C15.8398 22.6103 15.9098 22.5103 16.0198 22.4803Z" fill="white"/>
<path d="M16.2696 22.95C16.2796 22.84 16.4896 22.54 16.5196 22.54C16.5496 22.54 16.6996 22.88 16.6796 22.99C16.6696 23.1 16.5696 23.18 16.4496 23.17C16.3296 23.16 16.2496 23.06 16.2596 22.95H16.2696Z" fill="white"/>
<path d="M16.8396 22.93C16.7396 22.88 16.5196 22.58 16.5296 22.55C16.5496 22.52 16.9296 22.52 17.0296 22.58C17.1296 22.63 17.1696 22.75 17.1196 22.85C17.0696 22.95 16.9396 22.98 16.8396 22.93Z" fill="white"/>
<path d="M16.6 22.5501C16.6 22.5501 16.56 22.4901 16.52 22.5001C16.48 22.5001 16.46 22.5401 16.46 22.5701C16.46 22.6101 16.5 22.6301 16.54 22.6201C16.58 22.6201 16.6 22.5801 16.6 22.5501Z" fill="#F99746"/>
<path d="M15.7395 23.9298C15.8495 24.0598 15.9795 24.6198 15.9395 24.6498C15.8995 24.6798 15.3495 24.4498 15.2395 24.3198C15.1295 24.1898 15.1495 23.9898 15.2895 23.8898C15.4295 23.7798 15.6395 23.7998 15.7495 23.9298H15.7395Z" fill="#509B67"/>
<path d="M38.5695 25.3096C38.7495 25.3896 39.4195 25.3496 39.4395 25.2996C39.4595 25.2496 39.0395 24.7596 38.8595 24.6796C38.6795 24.5996 38.4595 24.6796 38.3795 24.8496C38.2995 25.0196 38.3795 25.2296 38.5695 25.2996V25.3096Z" fill="#509B67"/>
<path d="M40.2294 25.6496C40.1194 25.8096 40.0494 26.4296 40.0994 26.4596C40.1494 26.4896 40.7294 26.1796 40.8394 26.0196C40.9494 25.8596 40.8994 25.6496 40.7294 25.5496C40.5594 25.4496 40.3394 25.4896 40.2294 25.6496Z" fill="#509B67"/>
<path d="M39.2995 26.8499C39.4895 26.9099 40.1495 26.8299 40.1695 26.7799C40.1895 26.7299 39.7295 26.2699 39.5395 26.2099C39.3495 26.1499 39.1395 26.2399 39.0795 26.4199C39.0095 26.5999 39.1095 26.7899 39.2995 26.8599V26.8499Z" fill="#509B67"/>
<path d="M40.2494 27.4893C40.2494 27.4893 40.2194 26.0493 39.4194 25.2993L39.4394 25.2793C40.2494 26.0393 40.2694 27.4693 40.2794 27.4893H40.2494Z" fill="#509B67"/>
<path d="M41.4798 27.5299H41.4498C41.3098 25.8499 40.7698 24.6499 40.7598 24.6299H40.7898C40.7898 24.6299 41.3398 25.8399 41.4798 27.5299Z" fill="#509B67"/>
<path d="M40.3897 24.4593C40.4597 24.5293 40.7697 24.6493 40.7897 24.6293C40.8097 24.6093 40.7297 24.2993 40.6597 24.2293C40.5897 24.1593 40.4797 24.1493 40.3997 24.2093C40.3197 24.2693 40.3197 24.3793 40.3797 24.4493L40.3897 24.4593Z" fill="white"/>
<path d="M40.8695 24.2094C40.8095 24.2894 40.7495 24.5994 40.7795 24.6194C40.7995 24.6394 41.1095 24.4994 41.1695 24.4194C41.2295 24.3394 41.2095 24.2394 41.1295 24.1794C41.0495 24.1194 40.9295 24.1394 40.8695 24.2194V24.2094Z" fill="white"/>
<path d="M41.2298 24.5493C41.1298 24.5193 40.7998 24.5893 40.7998 24.6193C40.7998 24.6493 41.0398 24.8593 41.1398 24.8893C41.2398 24.9193 41.3398 24.8593 41.3598 24.7693C41.3898 24.6793 41.3298 24.5793 41.2298 24.5593V24.5493Z" fill="white"/>
<path d="M41.0095 24.9596C41.0095 24.8696 40.8195 24.5996 40.7895 24.5996C40.7595 24.5996 40.6395 24.8996 40.6495 24.9896C40.6495 25.0796 40.7495 25.1496 40.8495 25.1496C40.9495 25.1496 41.0195 25.0596 41.0095 24.9596Z" fill="white"/>
<path d="M40.5096 24.9398C40.5996 24.8998 40.7896 24.6398 40.7796 24.6098C40.7696 24.5898 40.4296 24.5898 40.3396 24.6298C40.2496 24.6698 40.2196 24.7798 40.2596 24.8598C40.3096 24.9398 40.4196 24.9798 40.5096 24.9298V24.9398Z" fill="white"/>
<path d="M40.7197 24.5998C40.7197 24.5998 40.7597 24.5498 40.7897 24.5498C40.8197 24.5498 40.8497 24.5798 40.8397 24.6198C40.8397 24.6498 40.7997 24.6698 40.7697 24.6698C40.7397 24.6698 40.7097 24.6398 40.7197 24.5998Z" fill="#F99746"/>
<path d="M41.4694 25.8196C41.3694 25.9396 41.2594 26.4196 41.2994 26.4496C41.3294 26.4796 41.8194 26.2796 41.9194 26.1596C42.0194 26.0396 41.9994 25.8696 41.8794 25.7796C41.7594 25.6896 41.5794 25.6996 41.4794 25.8196H41.4694Z" fill="#509B67"/>
<path d="M49.8096 29.6001H41.4896C41.5296 29.2201 42.2896 29.0301 42.2196 28.6601C42.1296 28.1901 38.4196 28.0101 39.9096 27.4101C41.3696 26.8201 44.4696 26.9201 44.5796 26.9301C45.1196 26.9701 49.2996 26.6901 49.7996 27.4001C50.2996 28.1101 49.7996 29.6001 49.7996 29.6001H49.8096Z" fill="#57AE5B"/>
<path d="M25.1396 25.3094C25.1396 25.3094 25.1896 26.0594 25.3496 26.0694C25.3696 26.0694 26.1296 26.0694 26.1296 26.0694H27.0996C27.0996 26.0694 27.0996 25.8394 26.8096 25.7994C26.5196 25.7594 26.0496 25.5694 25.8796 25.2094C25.6996 24.8394 25.1396 25.3094 25.1396 25.3094Z" fill="#1F2933"/>
<path d="M30.0898 24.6699C30.0898 24.6699 30.2398 25.4099 30.3898 25.3999C30.4098 25.3999 31.1698 25.3099 31.1698 25.3099L32.1298 25.1899C32.1298 25.1899 32.0898 24.9699 31.8098 24.9599C31.5198 24.9499 31.0198 24.8199 30.8098 24.4799C30.5798 24.1299 30.0898 24.6599 30.0898 24.6599V24.6699Z" fill="#1F2933"/>
<path d="M28.3695 17.2201C28.3695 17.2201 28.1195 18.7601 27.1795 21.4801C26.2395 24.2101 26.1095 25.3901 26.1095 25.3901L25.0895 25.3701C25.0895 25.3701 25.0695 22.3901 25.5095 21.0201C25.9395 19.6501 25.5895 16.0801 25.5895 16.0801L28.3695 17.2201Z" fill="#163560"/>
<path d="M28.6397 15.82C28.6397 15.82 30.0297 18.46 30.3797 20.55C30.7297 22.64 31.0097 24.55 31.0097 24.55C31.0097 24.55 30.6697 24.67 30.0297 24.72C30.0297 24.72 28.9497 21.69 28.8297 20.93C28.7197 20.17 25.4997 17.15 25.7497 16.41C25.9997 15.66 28.6397 15.82 28.6397 15.82Z" fill="#1C468A"/>
<path d="M26.6296 10.7295C26.6296 10.7295 25.1996 12.0295 25.1296 12.5595C25.0596 13.0895 25.8196 13.9295 25.8196 13.9295L26.6296 10.7295Z" fill="#ED7D2B"/>
<path d="M26.8799 10.7396L27.4199 11.0696L28.1999 10.9296C28.1899 10.8696 28.1399 10.6196 28.0899 10.3996C28.0899 10.3896 28.0899 10.3696 28.0899 10.3596C28.0499 10.1696 28.0099 10.0096 28.0099 10.0096L27.2799 9.70961L27.0099 9.59961C27.0099 9.59961 27.0299 9.80961 27.0299 9.83961C27.0799 10.3796 26.8799 10.7396 26.8799 10.7396Z" fill="#FFB27D"/>
<path d="M27.9998 10.5703C27.9998 10.5703 27.0598 10.3103 26.9598 10.3403C26.8598 10.3703 26.7998 10.5603 26.7998 10.5603L28.3198 10.8803C28.3198 10.8803 28.1998 10.6503 28.0098 10.5703H27.9998Z" fill="#ED7D2B"/>
<path d="M25.5199 16.4402C25.6799 17.1202 28.2899 17.1902 28.9699 16.5802C29.0499 16.5102 29.0499 16.1802 29.0199 15.7502C28.9599 14.8902 28.7799 13.6002 28.7699 12.9402C28.7699 12.6202 28.7199 12.3002 28.6599 12.0002C28.5299 11.3702 28.3299 10.8802 28.3299 10.8802C28.3299 10.8802 27.0499 10.4902 26.8099 10.5602C25.6599 10.8802 25.3699 15.7702 25.5299 16.4502L25.5199 16.4402Z" fill="#F99746"/>
<path d="M29.0198 15.7401C28.9598 14.8801 28.9298 13.4701 28.9198 12.8101C28.9198 12.4901 28.7198 12.2901 28.6498 12.0001L27.8798 11.8701C27.8798 11.8701 27.1398 14.7701 29.0098 15.7401H29.0198Z" fill="#ED7D2B"/>
<path d="M27.6394 14.7296C27.6394 14.7296 28.5094 14.0096 28.8394 13.5596L29.0894 13.7196C29.0894 13.7196 28.3994 14.7996 27.7494 15.0896C27.0894 15.3796 27.6494 14.7396 27.6494 14.7396L27.6394 14.7296Z" fill="#163560"/>
<path d="M27.0796 9.84973C27.2396 10.1097 27.8396 10.3297 28.0896 10.4097C28.0896 10.3997 28.0896 10.3797 28.0896 10.3697C28.0496 10.1797 28.0096 10.0197 28.0096 10.0197L27.2796 9.71973C27.1196 9.71973 27.0196 9.74973 27.0896 9.85973L27.0796 9.84973Z" fill="#FCA56B"/>
<path d="M28.2598 9.94025C28.2598 9.94025 27.1498 10.4502 26.8298 9.79025C26.5098 9.13025 26.1498 8.76025 26.8398 8.41025C27.5398 8.06025 27.7998 8.25025 27.9598 8.44025C28.1198 8.63025 28.5398 9.79025 28.2598 9.94025Z" fill="#FFB27D"/>
<path d="M27.8996 8.37953C27.8996 8.37953 27.9496 9.18953 27.7696 9.17953C27.5896 9.16953 27.4296 9.16953 27.4896 9.39953C27.5496 9.63953 27.8396 9.87953 27.3096 9.99953C26.7796 10.1195 25.7896 8.90953 25.8996 8.63953C26.2196 7.85953 28.3796 7.40953 27.8996 8.36953V8.37953Z" fill="#1F2933"/>
<path d="M26.1096 13.5602C26.1096 13.5602 25.9796 13.5802 25.9596 13.6902C25.9496 13.8102 25.8596 15.2402 25.9396 15.2802C26.0196 15.3202 26.3296 15.3002 26.3496 15.2802C26.3696 15.2602 26.4396 13.6802 26.3896 13.5902C26.3896 13.5902 26.2396 13.5302 26.0996 13.5602H26.1096Z" fill="#163560"/>
<path d="M29.0196 15.2004C29.0196 15.2004 29.1996 15.3304 29.2396 15.4704C29.2996 15.7004 29.2596 15.9104 29.0296 15.9904C28.9396 16.0204 28.9296 15.8304 28.8696 15.7404C28.8096 15.6604 28.5796 15.6104 28.6296 15.4804C28.6796 15.3504 28.7796 15.1104 28.7796 15.1104L29.0196 15.2004Z" fill="#FFB27D"/>
<path d="M28.7196 15.2803C28.7196 15.2803 28.5696 15.4303 28.5596 15.5303C28.5496 15.6303 28.5396 15.7803 28.5396 15.8403C28.5396 15.9003 28.5696 15.9603 28.6296 15.8503C28.6896 15.7503 28.7496 15.6103 28.7896 15.6103C28.8296 15.6103 28.7196 15.2803 28.7196 15.2803Z" fill="#FFB27D"/>
<path d="M27.7097 10.71C27.7097 10.71 28.6197 10.86 29.3197 11.83C30.0197 12.8 30.2797 13.42 30.1497 13.77C30.0197 14.12 29.3797 15.21 29.2497 15.36C29.1397 15.49 28.8197 15.48 28.6097 15.39C28.6097 15.39 29.0197 13.77 28.8497 13.6C28.7797 13.53 27.8797 12.81 27.7397 13.16C27.4997 13.74 27.6997 10.71 27.6997 10.71H27.7097Z" fill="#F99746"/>
<path d="M28.4894 11.0398C28.4894 11.0398 28.3394 10.7898 27.9894 10.7398C27.6394 10.6898 27.4194 11.0798 27.4194 11.0798L27.6794 11.1698C27.6794 11.1698 27.8494 10.8798 27.9994 10.8798C28.1894 10.8798 28.3494 10.9398 28.4794 11.0398H28.4894Z" fill="#163560"/>
<path d="M27.9196 12.2295C27.9196 12.2295 27.5496 12.2295 27.0796 12.2095C26.2496 12.1895 25.0996 12.1595 25.0696 12.0995C25.0196 12.0095 25.0896 11.0195 25.3696 10.9495C25.3896 10.9495 25.4296 10.9395 25.4696 10.9295C25.9296 10.8895 27.3296 10.9695 27.6496 11.0595C27.9996 11.1695 27.9196 12.2195 27.9196 12.2195V12.2295Z" fill="#163560"/>
<path d="M27.0796 12.2097C26.2496 12.1897 25.0996 12.1597 25.0696 12.0997C25.0196 12.0097 25.0896 11.0197 25.3696 10.9497C25.3896 10.9497 25.4296 10.9397 25.4696 10.9297C26.0096 10.9497 26.6096 10.9997 26.8096 11.0597C27.1396 11.1597 27.0896 12.0797 27.0796 12.1997V12.2097Z" fill="#1C468A"/>
<path d="M27.9194 12.229C27.9194 12.229 25.0794 11.959 24.5894 12.119C24.0994 12.269 24.0994 15.439 24.2494 15.649C24.3994 15.869 27.1995 16.069 27.5894 15.949C27.9894 15.829 27.9194 12.219 27.9194 12.219V12.229Z" fill="#1C468A"/>
<path d="M27.0795 12.1599C27.0795 12.1599 26.6895 12.1899 26.6595 12.4499C26.6195 12.7099 26.3795 15.8899 26.5995 15.9699C26.8195 16.0499 27.7495 16.0199 27.7995 15.9699C27.8495 15.9199 28.0495 12.4299 27.9195 12.2199C27.9195 12.2199 27.4695 12.0999 27.0795 12.1499V12.1599Z" fill="#163560"/>
<path d="M25.3195 11.29C25.3195 11.29 25.2295 11.73 25.3495 11.8C25.4695 11.87 25.7495 11.89 25.8195 11.8C25.8895 11.72 25.8795 11.29 25.8795 11.29H25.3295H25.3195Z" fill="#163560"/>
<path d="M25.3193 11.29C25.3193 11.29 25.3593 11.47 25.5793 11.47C25.7993 11.47 25.8693 11.3 25.8693 11.3C25.8693 11.3 25.5693 11.17 25.3193 11.3V11.29Z" fill="#29589B"/>
<path d="M25.5396 11.4004C25.5396 11.4004 25.5595 11.3604 25.5795 11.3604C25.5995 11.3604 25.6196 11.3804 25.6196 11.4004C25.6196 11.4204 25.5995 11.4404 25.5795 11.4404C25.5595 11.4404 25.5396 11.4204 25.5396 11.4004Z" fill="#F99746"/>
<path d="M26.1495 11.3398C26.1495 11.3398 26.0295 11.7698 26.1495 11.8498C26.2595 11.9198 26.5395 11.9598 26.6195 11.8898C26.6995 11.8198 26.7095 11.3898 26.7095 11.3898L26.1595 11.3498L26.1495 11.3398Z" fill="#163560"/>
<path d="M26.1494 11.3399C26.1494 11.3399 26.1794 11.5199 26.3994 11.5399C26.6194 11.5599 26.6994 11.3899 26.6994 11.3899C26.6994 11.3899 26.4094 11.2399 26.1494 11.3499V11.3399Z" fill="#29589B"/>
<path d="M26.3696 11.4697C26.3696 11.4697 26.3896 11.4297 26.4096 11.4297C26.4296 11.4297 26.4496 11.4497 26.4496 11.4697C26.4496 11.4897 26.4296 11.5097 26.4096 11.5097C26.3896 11.5097 26.3696 11.4897 26.3696 11.4697Z" fill="#F99746"/>
<path d="M24.5294 12.4902C24.5294 12.4902 24.4094 12.9002 24.4794 13.0102C24.5494 13.1202 26.1094 13.1902 26.2094 13.1002C26.3094 13.0102 26.3294 12.5402 26.3294 12.5402L24.5394 12.4902H24.5294Z" fill="#163560"/>
<path d="M24.5293 12.4898C24.5293 12.4898 24.7393 12.7398 25.2793 12.7498C25.8193 12.7498 26.3193 12.5398 26.3193 12.5398C26.3193 12.5398 25.0593 12.3298 24.5293 12.4898Z" fill="#29589B"/>
<path d="M25.2492 12.6996C25.2768 12.6996 25.2992 12.6772 25.2992 12.6496C25.2992 12.622 25.2768 12.5996 25.2492 12.5996C25.2216 12.5996 25.1992 12.622 25.1992 12.6496C25.1992 12.6772 25.2216 12.6996 25.2492 12.6996Z" fill="#F99746"/>
<path d="M25.8894 13.5496C25.8894 13.5496 24.5994 13.4996 24.5294 13.5496C24.4594 13.5996 24.4294 15.2796 24.4794 15.3596C24.5394 15.4396 25.8394 15.4796 25.8394 15.4796L25.8894 13.5496Z" fill="#29589B"/>
<path d="M53.4296 25.7203C52.6396 25.6803 51.4496 25.6303 50.4296 25.5603C48.7196 25.4503 49.4696 24.9603 50.2596 24.2503C51.0496 23.5403 47.7896 23.9403 45.3696 24.0903C42.9496 24.2503 39.3096 24.1703 40.6096 23.1803C41.8996 22.1903 51.3196 21.0703 51.3196 21.0703C51.3596 21.1103 51.3996 21.1403 51.4296 21.1803C51.4896 21.2403 51.5596 21.3003 51.6196 21.3703C51.8796 21.6303 52.1296 21.8903 52.3496 22.1803C52.3996 22.2403 52.4496 22.3103 52.4896 22.3703C52.5396 22.4503 52.5996 22.5203 52.6496 22.6003C52.8096 22.8503 52.9596 23.1303 53.0696 23.4203C53.3296 24.0603 53.4696 24.8103 53.4296 25.7203Z" fill="#DAED8E"/>
<path d="M8.07967 20.3103C7.27967 20.3103 5.99967 20.3503 6.38967 20.5903C6.77967 20.8303 7.11967 21.1803 5.77967 21.2203C4.45967 21.2603 3.69967 21.3203 3.67967 21.3203C3.58967 20.6003 3.54967 19.8503 3.57967 19.0803C3.57967 19.0803 4.81967 18.7503 5.56967 19.0803C6.31967 19.4103 6.85967 19.1503 7.44967 19.5003C8.02967 19.8503 9.26967 19.8903 9.51967 20.0903C9.76967 20.2903 8.87967 20.3103 8.07967 20.3103Z" fill="#82B378"/>
<path d="M38.8397 28.4199L38.8997 27.4799C38.8997 27.4799 38.3997 27.0899 38.3297 27.0599C38.2597 27.0299 37.1797 26.8799 37.1797 26.8799L37.2297 27.7599L37.5697 28.3999L38.8497 28.4199H38.8397Z" fill="#EDC5A2"/>
<path d="M36.3695 28.3796C36.3695 28.3796 36.2995 27.6996 36.3395 27.6196C36.3795 27.5496 37.0595 26.8496 37.1695 26.8696C37.2795 26.8896 37.8995 27.1096 38.0095 27.1896C38.1195 27.2696 38.3695 27.9196 38.3695 27.9896C38.3695 28.0596 38.3395 28.3996 38.3395 28.3996L36.3695 28.3796Z" fill="#F9DDBF"/>
<path d="M37.1596 28.6302V28.2302C37.1596 28.1702 37.1396 28.1102 37.0796 28.0702C36.9596 27.9902 36.7696 27.8502 36.7296 27.8402C36.6996 27.8302 36.3696 27.7902 36.1296 27.7702C35.9996 27.7602 35.8896 27.8602 35.8996 27.9802L35.9396 28.3502C35.9396 28.3502 35.9496 28.4002 35.9696 28.4302L36.1596 28.7502C36.1996 28.8102 36.2696 28.8502 36.3496 28.8502H36.9696C37.0796 28.8302 37.1696 28.7502 37.1696 28.6402L37.1596 28.6302Z" fill="#EDC5A2"/>
<path d="M35.5298 28.8699C35.4198 28.8699 35.3298 28.7999 35.3198 28.6999C35.2998 28.5499 35.2798 28.3599 35.2998 28.3199C35.3298 28.2599 35.9798 27.7599 36.0598 27.7799C36.1398 27.7899 36.4298 27.8999 36.5098 27.9599C36.5898 28.0199 36.7998 28.4899 36.7998 28.5399V28.6599C36.7998 28.7699 36.7098 28.8499 36.5898 28.8499L35.5298 28.8799V28.8699Z" fill="#F9DDBF"/>
<path d="M19.8999 26.2095V25.8695C19.8999 25.8195 19.9199 25.7695 19.9599 25.7295C20.0599 25.6595 20.2199 25.5395 20.2599 25.5295C20.2899 25.5295 20.5599 25.4895 20.7699 25.4695C20.8799 25.4595 20.9799 25.5495 20.9699 25.6495L20.9399 25.9595C20.9399 25.9595 20.9399 26.0095 20.9199 26.0295L20.7599 26.2995C20.7299 26.3495 20.6699 26.3895 20.5999 26.3895H20.0799C19.9899 26.3795 19.9099 26.2995 19.9099 26.2095H19.8999Z" fill="#EDC5A2"/>
<path d="M21.28 26.3999C21.37 26.3999 21.45 26.3399 21.46 26.2499C21.48 26.1199 21.49 25.9599 21.48 25.9299C21.46 25.8799 20.91 25.4599 20.83 25.4699C20.76 25.4799 20.52 25.5699 20.45 25.6199C20.38 25.6699 20.21 26.0699 20.21 26.1099V26.2099C20.21 26.2999 20.29 26.3699 20.38 26.3699L21.28 26.3899V26.3999Z" fill="#F9DDBF"/>
<path d="M18.4194 26.4596V26.2696C18.4194 26.2696 18.4294 26.2096 18.4494 26.1996C18.4994 26.1596 18.5894 26.0996 18.6094 26.0896C18.6294 26.0896 18.7794 26.0696 18.8894 26.0596C18.9494 26.0596 18.9994 26.0996 18.9994 26.1596L18.9794 26.3296C18.9794 26.3296 18.9794 26.3496 18.9694 26.3696L18.8794 26.5196C18.8794 26.5196 18.8294 26.5696 18.7894 26.5696H18.5094C18.4594 26.5696 18.4194 26.5196 18.4194 26.4696V26.4596Z" fill="#EDC5A2"/>
<path d="M19.1694 26.5599C19.1694 26.5599 19.2594 26.5299 19.2694 26.4799C19.2694 26.4099 19.2894 26.3199 19.2794 26.3099C19.2694 26.2799 18.9694 26.0499 18.9294 26.0599C18.8894 26.0599 18.7594 26.1199 18.7194 26.1399C18.6794 26.1699 18.5894 26.3799 18.5894 26.4099V26.4599C18.5894 26.4599 18.6294 26.5499 18.6794 26.5499H19.1694V26.5599Z" fill="#F9DDBF"/>
<path d="M33.1196 27.0602V26.8702C33.1196 26.8702 33.1296 26.8102 33.1496 26.8002C33.1996 26.7602 33.2896 26.7002 33.3096 26.6902C33.3296 26.6902 33.4796 26.6702 33.5896 26.6602C33.6496 26.6602 33.6996 26.7002 33.6996 26.7602L33.6796 26.9302C33.6796 26.9302 33.6796 26.9502 33.6696 26.9702L33.5796 27.1202C33.5796 27.1202 33.5296 27.1702 33.4896 27.1702H33.2096C33.1596 27.1702 33.1196 27.1202 33.1196 27.0702V27.0602Z" fill="#EDC5A2"/>
<path d="M33.8598 27.1702C33.8598 27.1702 33.9498 27.1402 33.9598 27.0902C33.9598 27.0202 33.9798 26.9302 33.9698 26.9202C33.9598 26.8902 33.6598 26.6602 33.6198 26.6702C33.5798 26.6802 33.4498 26.7302 33.4098 26.7502C33.3698 26.7802 33.2798 26.9902 33.2798 27.0202V27.0702C33.2798 27.0702 33.3198 27.1602 33.3698 27.1602H33.8598V27.1702Z" fill="#F9DDBF"/>
<path d="M14.4697 29.0104V28.8204C14.4697 28.8204 14.4797 28.7604 14.4997 28.7504C14.5497 28.7104 14.6397 28.6504 14.6597 28.6404C14.6797 28.6404 14.8297 28.6204 14.9397 28.6104C14.9997 28.6104 15.0497 28.6504 15.0497 28.7104L15.0297 28.8804C15.0297 28.8804 15.0297 28.9004 15.0197 28.9204L14.9297 29.0704C14.9297 29.0704 14.8797 29.1204 14.8397 29.1204H14.5597C14.5097 29.1204 14.4697 29.0704 14.4697 29.0204V29.0104Z" fill="#EDC5A2"/>
<path d="M15.2196 29.1204C15.2196 29.1204 15.3096 29.0904 15.3196 29.0404C15.3196 28.9704 15.3396 28.8804 15.3296 28.8704C15.3196 28.8404 15.0196 28.6104 14.9796 28.6204C14.9396 28.6204 14.8096 28.6804 14.7696 28.7004C14.7296 28.7304 14.6396 28.9404 14.6396 28.9704V29.0204C14.6396 29.0204 14.6796 29.1104 14.7296 29.1104H15.2196V29.1204Z" fill="#F9DDBF"/>
<path d="M18.9995 25.9096V25.7796C18.9995 25.7796 18.9995 25.7396 19.0195 25.7296C19.0595 25.6996 19.1195 25.6596 19.1295 25.6596C19.1395 25.6596 19.2495 25.6396 19.3195 25.6396C19.3595 25.6396 19.3995 25.6696 19.3895 25.7096V25.8296C19.3895 25.8296 19.3795 25.8496 19.3695 25.8496L19.3095 25.9496C19.3095 25.9496 19.2695 25.9796 19.2495 25.9796H19.0495C19.0495 25.9796 18.9895 25.9496 18.9795 25.9096H18.9995Z" fill="#EDC5A2"/>
<path d="M19.5296 25.9901C19.5296 25.9901 19.5896 25.9701 19.5996 25.9301C19.5996 25.8801 19.6096 25.8201 19.5996 25.8101C19.5996 25.7901 19.3796 25.6301 19.3596 25.6401C19.3296 25.6401 19.2396 25.6801 19.2096 25.7001C19.1796 25.7201 19.1196 25.8701 19.1196 25.8801V25.9201C19.1196 25.9201 19.1496 25.9801 19.1896 25.9801H19.5296V25.9901Z" fill="#F9DDBF"/>
</g>
<defs>
<clipPath id="clip0_1947_16723">
<rect width="56" height="33" fill="white" transform="translate(0.359863)"/>
</clipPath>
</defs>
</svg>
