<svg width="56" height="33" viewBox="0 0 56 33" fill="none" xmlns="http://www.w3.org/2000/svg">
<g clip-path="url(#clip0_1802_14182)">
<path d="M6.08377 32.8885C6.08377 32.8885 -0.0543613 25.4263 5.04569 17.3474C9.57083 10.1794 14.3107 13.0968 18.7298 14.7194C21.9348 15.8962 25.1193 13.7309 29.1649 6.43712C34.682 -3.50954 53.8062 2.52316 50.3191 17.8265C48.6317 25.2323 55.4546 25.5014 51.9781 32.9042L6.08377 32.8885Z" fill="#FFE8D9"/>
<path d="M39.2383 18.2091C39.2383 18.2091 37.9782 19.4851 37.6001 20.087C37.6001 20.087 35.9578 21.0022 35.8504 21.0744C35.7429 21.1465 35.9731 21.5331 35.9731 21.5331C35.9731 21.5331 37.5995 21.1135 38.0677 20.7727C38.536 20.4319 40.1128 19.3651 40.1315 18.7017C40.1502 18.0381 39.2383 18.2093 39.2383 18.2093V18.2091Z" fill="#EA9C68"/>
<path d="M41.1045 30.252L41.4222 32.1673H41.9989L42.1479 29.8301L41.1045 30.252Z" fill="#FFB27D"/>
<path d="M38.5061 30.0791L38.1455 32.1898L38.651 32.2135L39.612 30.1558L38.5061 30.0791Z" fill="#FFB27D"/>
<path d="M41.4103 32.0942C41.4103 32.0942 41.2733 32.3753 41.0146 32.4391C40.8516 32.4792 40.7122 32.5753 40.6253 32.7099C40.5521 32.8237 40.6229 32.9836 40.7474 32.9836H42.0603C42.172 32.9836 42.2593 32.8744 42.2481 32.7483C42.2383 32.6382 42.2281 32.5101 42.2237 32.4117C42.2139 32.1969 42.0096 32.0029 42.0096 32.0029C42.0096 32.0029 41.8287 32.1188 41.7593 32.1322C41.6079 32.1612 41.4105 32.0942 41.4105 32.0942H41.4103Z" fill="#911111"/>
<path d="M38.1587 32.0942C38.1587 32.0942 38.0232 32.3762 37.7647 32.4417C37.6021 32.4829 37.4629 32.5797 37.3769 32.7149C37.304 32.8292 37.3758 32.9887 37.5002 32.988L38.813 32.9795C38.9247 32.9788 39.0114 32.8691 38.9996 32.7431C38.9892 32.6329 38.9784 32.5048 38.9734 32.4064C38.9626 32.1919 38.7572 31.999 38.7572 31.999C38.7572 31.999 38.5769 32.1161 38.5075 32.1299C38.3563 32.1599 38.1585 32.0942 38.1585 32.0942H38.1587Z" fill="#911111"/>
<path d="M38.207 30.1668C38.207 30.1668 38.7532 30.3599 39.3558 30.4216C39.9232 30.4801 40.5406 30.4218 40.8009 29.9769C40.8764 29.8481 40.9189 29.6243 40.9369 29.3352C41.0455 27.5651 40.2197 23.3389 40.2197 23.3389H39.2559C39.2559 23.426 38.2072 30.1668 38.2072 30.1668H38.207Z" fill="#BA2525"/>
<path d="M39.3557 30.422C39.9231 30.4805 40.5405 30.4222 40.8008 29.9773C40.8763 29.8485 40.9188 29.6247 40.9368 29.3356C40.9359 29.3323 40.9353 29.3291 40.9345 29.3261C40.7809 28.6772 40.3614 24.6582 40.3614 24.6582C40.3614 24.6582 38.9204 28.9572 39.3559 30.4222L39.3557 30.422Z" fill="#911111"/>
<path d="M42.3298 23.5842C42.3298 23.5842 42.763 26.8756 42.9586 30.3884C42.9586 30.3884 41.5984 31.0213 40.336 30.5149L40.1055 23.8163L42.3298 23.584V23.5842Z" fill="#BA2525"/>
<path d="M41.6812 14.0415C41.6812 14.0415 41.7687 13.6042 42.134 13.583C42.134 13.583 42.0176 13.6618 41.9988 13.745C41.9988 13.745 42.2109 13.5436 42.5393 13.6782C42.8678 13.8127 43.3554 14.1916 43.1098 15.0722C42.8643 15.9531 43.3654 16.1713 43.5668 16.7396C43.7683 17.3078 43.0827 17.417 43.2247 17.8606C43.3668 18.3041 42.9439 19.3519 41.868 18.8938C40.792 18.4357 40.5476 16.6787 41.0047 16.2495C41.4618 15.8202 41.6808 14.0413 41.6808 14.0413L41.6812 14.0415Z" fill="#323F4B"/>
<path d="M41.353 14.0179C41.353 14.0179 41.8357 13.9449 42.1355 14.2993C42.2973 14.4905 42.1302 14.7657 42.1302 14.7657L41.353 14.0179Z" fill="#57AE5B"/>
<path d="M39.8892 14.866C39.8983 14.8487 40.2823 14.1613 40.9999 14.0242C41.5811 13.9132 42.1253 14.3782 42.2148 15.0379C42.3046 15.7008 42.213 16.56 41.2577 16.8695L39.8894 14.866H39.8892Z" fill="#323F4B"/>
<path d="M40.0647 17.8192L41.1457 18.5465L41.419 17.6849C41.419 17.6849 41.2936 17.3708 41.2572 16.8687C41.2419 16.6575 41.2423 16.413 41.2747 16.1445L40.3345 16.6068C40.3345 16.6068 40.3508 16.7038 40.3575 16.8452C40.3644 16.9985 40.3597 17.2038 40.3107 17.3957C40.2684 17.5605 40.1935 17.7153 40.0645 17.8192H40.0647Z" fill="#FFB27D"/>
<path d="M40.3112 17.3962C40.8298 17.4178 41.2575 16.869 41.2575 16.869L40.3578 16.8457C40.3648 16.9989 40.3601 17.2042 40.311 17.3962H40.3112Z" fill="#EA9C68"/>
<path d="M40.0782 17.0513C40.0782 17.0513 41.0935 17.4345 41.502 16.5303C41.9428 15.5545 41.5622 14.7932 41.2142 14.7185C40.5205 14.5699 40.0974 14.8425 39.9565 15.1528C39.8157 15.4632 39.5178 16.8458 40.0782 17.0515V17.0513Z" fill="#FFB27D"/>
<path d="M38.6986 18.6691L39.5603 17.8762V17.8769C39.662 17.7778 39.7921 17.7066 39.9569 17.6829C40.0178 17.6741 40.1454 17.6474 40.2166 17.6377C40.2046 17.8195 40.2046 17.9663 40.485 18.022C40.8584 18.0965 41.2315 17.8469 41.4091 17.6584C41.7014 17.7209 41.8404 17.7557 42.073 17.8598C42.2071 17.92 42.3137 18.0292 42.3803 18.1644C42.4409 18.2873 42.4682 18.4313 42.4531 18.5783L42.1662 21.3779C42.1662 21.3779 42.5093 23.7619 42.4503 23.7683C42.0571 23.811 40.3373 24.2017 39.1079 23.7568C38.9093 23.6847 39.3861 22.4227 39.2904 19.8408C38.6085 19.3781 38.6982 18.6691 38.6982 18.6691H38.6986Z" fill="#2242B2"/>
<path d="M40.7894 14.8265C40.7894 14.8265 40.776 15.7293 41.2355 16.0267C41.2355 16.0267 41.054 15.6014 41.1152 15.3415C41.1152 15.3415 41.2339 16.1468 41.5967 16.2871C41.9598 16.4277 42.1431 14.7919 41.3924 14.4629C40.6417 14.1341 39.9011 14.5246 39.8128 15.0995C39.7243 15.6744 39.7916 15.7945 39.7916 15.7945C39.7916 15.7945 40.1431 14.7007 40.7894 14.8265Z" fill="#323F4B"/>
<path d="M42.4502 23.7679C42.509 23.7617 42.1661 21.3775 42.1661 21.3775L42.4531 18.5779C42.4681 18.4309 42.4408 18.2869 42.3802 18.1641C42.3603 18.1677 42.3407 18.1783 42.3218 18.1963C41.72 18.7712 41.1671 21.1015 41.1671 21.1015C41.1671 21.1015 40.8767 22.9868 42.4504 23.7682L42.4502 23.7679Z" fill="#2C3A64"/>
<path d="M42.5398 18.8936C42.5398 18.8936 43.0522 21.083 42.9584 21.4858C42.8646 21.8886 41.8672 22.8206 41.7009 22.8817L41.5811 22.5232C41.5811 22.5232 42.3399 21.3381 42.2754 21.21C42.1366 20.9342 41.5811 19.3189 41.5811 19.3189L42.5398 18.8936Z" fill="#FFB27D"/>
<path d="M41.7266 19.7428C41.7266 19.7428 42.3151 19.8591 42.8896 19.1872C42.8896 19.1872 42.4018 17.571 41.7935 17.8982C41.1854 18.2257 41.3316 19.3531 41.7266 19.7428Z" fill="#2242B2"/>
<path d="M41.5809 22.5234C41.5809 22.5234 41.0782 22.635 41.0571 22.8188C41.04 22.9658 41.2685 23.2066 41.3914 23.1559C41.5143 23.105 41.7008 22.882 41.7008 22.882L41.5809 22.5234Z" fill="#FFB27D"/>
<path d="M26.6077 0.964319C26.6049 0.885745 26.5485 0.0394023 25.4093 0C25.4093 0 25.9695 0.0732744 26.0672 0.351625C26.0672 0.351625 25.6846 0.00875607 25.3745 0.120972C25.0643 0.233188 24.8838 0.85003 24.8828 1.05257C24.8818 1.25511 25.0564 1.90767 25.2536 1.96251C25.3283 1.98325 25.4144 1.97726 25.4923 1.96182C25.4402 2.05468 25.3891 2.15722 25.3403 2.27174C24.8893 3.33007 25.3615 4.36029 25.7459 4.24462C25.9923 4.17042 26.1218 4.85593 26.1218 4.85593L28.4539 2.43926C28.4539 2.43926 27.5666 0.379967 26.6077 0.96455V0.964319Z" fill="#323F4B"/>
<path d="M28.9499 31.8841L28.4407 32.0988C28.4407 32.0988 26.229 28.6254 25.9567 25.5696C25.9081 25.0239 26.0874 24.5969 26.1926 24.1089C26.1926 24.1089 26.0078 23.8674 25.97 23.6202C25.9525 23.505 25.9309 23.366 25.9065 23.2068C25.8346 22.7402 25.7355 22.1019 25.6226 21.3752C25.3623 19.7028 25.0251 17.5647 24.7632 15.993L24.9003 15.943L26.3849 15.4008L26.6918 14.2973L27.7972 13.9678C27.7972 13.9678 28.0443 14.5148 28.2649 17.0985C28.3056 17.4375 28.3426 17.8112 28.3705 18.2165C28.4566 19.4537 28.4629 20.9883 28.2653 22.7425C28.2146 23.1916 28.1505 23.6552 28.0712 24.1317C28.013 24.481 28.0042 24.9569 28.0288 25.5034C28.1404 28.0017 28.9501 31.8841 28.9501 31.8841H28.9499Z" fill="#BA2525"/>
<path d="M28.37 18.2168L25.9695 23.6202C25.952 23.505 25.9304 23.366 25.906 23.2068C25.8341 22.7402 25.735 22.1019 25.6221 21.3752C25.3618 19.7028 25.0246 17.5647 24.7627 15.993L24.8999 15.943L26.3844 15.4008L26.6913 14.2973L27.7968 13.9678C27.7968 13.9678 28.0438 14.5148 28.2644 17.0985C28.3051 17.4375 28.3421 17.8112 28.37 18.2165V18.2168Z" fill="#911111"/>
<path d="M27.314 14.6618C27.314 14.6618 27.3132 14.6662 27.3114 14.6747C27.3036 14.7104 27.2802 14.8196 27.2466 14.9761C27.0871 15.7197 26.6972 17.5248 26.6736 17.5234C26.4597 19.2163 26.1377 21.4097 25.738 23.0957C25.5264 23.9872 25.2936 24.737 25.0425 25.1958C24.9564 25.3534 24.8624 25.617 24.7645 25.9523C24.1869 27.9295 23.4761 32.405 23.4761 32.405L23.1519 32.553C23.1519 32.553 21.903 28.5314 22.9852 25.2658C23.0955 24.9333 23.23 24.6087 23.3924 24.2964C23.411 24.2603 23.4238 24.2209 23.4193 24.1796C23.4193 24.1792 23.4193 24.1789 23.4191 24.1782C23.4049 24.0423 23.3699 23.7017 23.3302 23.2231C23.2199 21.9024 23.1143 17.4395 23.0565 16.3893C23.0347 15.9918 23.0475 15.6369 23.0833 15.3229C23.1527 14.7099 23.3086 14.2512 23.461 13.9302C23.6533 13.5253 23.84 13.3398 23.84 13.3398C23.84 13.3398 26.3274 14.4021 27.2584 14.1221L27.314 14.6618Z" fill="#BA2525"/>
<path d="M27.3113 14.9289C27.2914 14.9452 27.27 14.9611 27.2468 14.9763C26.389 15.5441 23.3796 15.3445 23.0835 15.3233C23.1529 14.7104 23.3088 14.2516 23.4612 13.9307C24.7484 14.0602 26.8819 14.3224 27.3117 14.6749C27.4094 14.7551 27.4192 14.8399 27.3115 14.9289H27.3113Z" fill="#911111"/>
<path d="M32.1125 13.777L31.9615 14.2827C31.9615 14.2827 31.9312 14.2765 31.8787 14.2615C31.7138 14.2145 31.3121 14.106 30.8622 13.9565C30.1843 13.7382 29.3869 13.4336 29.0969 13.1396C28.6547 12.6947 28.007 11.4762 27.6435 10.3158C27.6323 10.287 27.6252 10.2589 27.6179 10.2308C27.4298 9.61598 27.3246 9.02265 27.38 8.57724C27.4117 8.30442 27.4752 8.07791 27.5566 7.8862C27.6635 7.6332 27.8031 7.44448 27.9384 7.30784C27.9577 7.28526 27.9769 7.26245 28.0031 7.24562C28.2241 7.03801 28.3796 6.89723 28.3796 6.89723C28.4775 6.8728 28.6071 7.01866 28.6897 7.16406C28.8572 7.52467 28.9303 7.79426 29.0131 8.18321C29.2964 9.42934 29.5158 11.2741 29.8465 11.878C29.9891 12.1377 30.7348 12.7421 31.3314 13.2009C31.761 13.5281 32.1129 13.7772 32.1129 13.7772L32.1125 13.777Z" fill="#ED985F"/>
<path d="M28.1224 8.11317C27.8526 8.31249 27.5166 8.47332 27.0974 8.56895C25.5259 8.92749 24.9649 7.4143 24.7656 6.38154C24.982 6.25043 25.183 6.22647 25.2992 6.21449C25.4124 6.20297 25.5314 6.19675 25.6297 6.19444C25.8088 6.04789 26.0856 5.43405 26.1674 4.46973L26.2402 4.49438L27.4613 4.9149C27.4613 4.9149 27.3939 5.35593 27.3558 5.77369C27.3263 6.10066 27.3151 6.41357 27.3681 6.49192C27.4635 6.51865 27.5207 6.5357 27.5207 6.5357C27.5207 6.5357 27.5207 6.53616 27.5213 6.53708C27.537 6.56819 27.8774 7.24425 28.1224 8.11317Z" fill="#FFB27D"/>
<path d="M28.6695 9.22434C28.6622 9.26213 28.6534 9.29923 28.6436 9.33748C28.3679 10.3818 28.1447 14.5561 28.1447 14.5561C28.3439 15.2674 23.2904 15.2077 23.1926 14.5464C22.9284 13.8715 23.5751 12.6113 23.9488 11.971C23.9956 11.8906 24.0359 11.8058 24.0693 11.7182C24.1535 11.4979 24.1942 11.2581 24.1859 11.0159C24.1529 10.061 24.0066 9.18517 23.9453 8.64805C24.0231 8.56049 24.0988 8.47915 24.1692 8.40196C24.2766 8.28306 24.3709 8.17292 24.437 8.06601C24.5098 7.94941 24.5503 7.83581 24.5414 7.71645C24.5345 7.62636 24.5202 7.53488 24.5003 7.44456C24.4911 7.40193 24.4805 7.3593 24.4691 7.3169C24.3491 6.87195 24.1283 6.48669 24.1283 6.48669C24.5284 6.22216 25.299 6.21387 25.299 6.21387C25.299 6.21387 25.3043 6.26156 25.3139 6.33945C25.3515 6.65236 25.457 7.45469 25.5648 7.59203C25.6997 7.763 27.8306 8.2591 27.9047 7.98467C27.9778 7.71484 27.5376 6.57955 27.5211 6.53646C27.5205 6.53554 27.5205 6.53508 27.5205 6.53508C28.2372 6.72494 28.512 6.93809 28.512 6.93809C28.1418 7.30515 28.8636 8.22315 28.6693 9.22388L28.6695 9.22434Z" fill="#2B478B"/>
<path d="M27.4613 4.91466C27.4613 4.91466 27.3937 5.35546 27.3558 5.77345C26.6607 5.67229 26.3558 4.91028 26.2402 4.49414L27.4613 4.91466Z" fill="#ED985F"/>
<path d="M27.4944 5.49101C27.4944 5.49101 25.8779 5.07464 26.1223 3.93888C26.3669 2.80313 26.3228 1.98444 27.3653 2.20219C28.4077 2.41994 28.5143 2.90866 28.5141 3.31006C28.5141 3.71169 27.9211 5.57005 27.4944 5.49101Z" fill="#FFB27D"/>
<path d="M28.6024 2.66507C28.4274 2.25445 28.2231 2.27726 28.0955 2.35077C27.3339 1.55904 26.1943 1.80743 26.1943 1.80743C25.9104 2.59225 25.688 3.31924 25.688 3.31924C25.688 3.31924 25.9371 3.60588 26.6561 3.59643C26.8756 3.59367 27.0962 3.47846 27.2967 3.32016C26.9104 3.76395 26.4568 4.03493 26.4568 4.03493C27.3563 3.83607 27.9561 2.65354 28.0175 2.52796C28.0942 2.65516 28.241 2.9259 28.254 3.15517C28.2717 3.46648 28.1791 4.0718 28.3366 4.09415C28.3366 4.09415 28.8645 3.28076 28.6022 2.66507H28.6024Z" fill="#323F4B"/>
<path d="M26.6395 13.4134C25.6633 13.562 24.6912 12.5516 24.0692 11.7186C24.1535 11.4983 24.1942 11.2585 24.1859 11.0163C24.1529 10.0614 24.0066 9.18557 23.9453 8.64845C24.0231 8.56089 24.0988 8.47955 24.1692 8.40236C24.2766 8.28346 24.3708 8.17332 24.437 8.06641C25.4309 9.46277 27.9629 13.212 26.6393 13.4134H26.6395Z" fill="#233862"/>
<path d="M25.0364 32.8527H22.4716C22.4716 32.8527 22.4101 32.4101 22.544 32.0744C22.6725 31.7522 22.8735 31.6057 22.8253 31.2158C22.9883 31.4059 23.2539 31.6186 23.6247 31.5621C23.67 31.6456 23.9179 32.0919 24.0697 32.2154C24.2374 32.3518 24.9847 32.3032 25.0364 32.8527Z" fill="#1F2933"/>
<path d="M30.5431 32.8522H27.9784C27.9784 32.8522 27.8825 32.3891 28.0508 32.0738C28.1998 31.795 28.1428 31.636 28.0323 31.4054C28.1485 31.4593 28.2987 31.5082 28.4643 31.4976C28.5921 31.4893 28.7273 31.4236 28.8457 31.3457C28.956 31.4881 29.4287 32.0948 29.5765 32.2149C29.7442 32.3513 30.4914 32.3026 30.5431 32.8522Z" fill="#1F2933"/>
<path d="M16.1197 29.6458L16.2495 29.6327C16.1999 28.5631 15.485 27.9644 15.485 27.9644C14.9843 27.4621 14.8217 26.9105 14.8217 26.9105C14.8217 26.9105 15.6665 25.7945 14.8738 25.0857C14.8738 25.0857 14.2949 24.689 13.8227 24.721C13.8227 24.721 14.4916 25.9911 14.2753 26.1176C14.059 26.2439 13.62 24.6415 13.62 24.6415C13.62 24.6415 12.3023 24.4968 11.8786 24.7274C11.8786 24.7274 13.005 25.771 12.7678 25.8332C12.5305 25.8955 11.3139 24.871 11.3139 24.871C11.3139 24.871 10.0876 25.1072 10.1529 25.9544C10.2182 26.8015 10.6409 27.063 10.8265 27.0404C11.0123 27.0178 12.0986 26.5482 12.1222 26.7206C12.1458 26.893 11.492 27.4561 11.0341 27.4824C11.0341 27.4824 11.8986 28.5619 12.4733 28.2504C13.0478 27.9388 13.097 27.4448 13.4552 27.2596C13.8134 27.0743 14.1192 27.0748 13.9713 27.2637C13.8233 27.4526 13.1752 27.6363 12.9702 28.0465C12.7653 28.4566 12.5815 28.7333 13.1762 28.6322C13.7706 28.5308 14.7371 28.0384 14.7794 27.4743C14.7812 27.4497 14.7831 27.4264 14.7847 27.4038C14.7855 27.4485 14.7794 27.4743 14.7794 27.4743C14.9033 27.4994 15.161 27.7577 15.3472 27.9603C15.3759 27.9958 15.418 28.0435 15.4786 28.1071C15.5014 28.1329 15.5204 28.155 15.5344 28.1713C15.9119 28.6396 16.1199 29.6458 16.1199 29.6458H16.1197Z" fill="#57AE5B"/>
<path d="M17.775 25.5075C17.775 25.5075 16.4313 24.6554 17.0583 23.4991C17.0583 23.4991 17.5599 22.789 18.0976 22.6065C18.0976 22.6065 17.8109 24.331 18.0976 24.3715C18.3843 24.4121 18.2946 22.424 18.2946 22.424C18.2946 22.424 19.71 21.653 20.2655 21.7138C20.2655 21.7138 19.3876 23.3977 19.6744 23.3572C19.9611 23.3166 20.9465 21.6124 20.9465 21.6124C20.9465 21.6124 22.3977 21.308 22.6307 22.2818C22.8637 23.2556 22.4874 23.7425 22.2723 23.8033C22.0572 23.8641 20.6776 23.8438 20.7135 24.0468C20.7493 24.2496 21.6809 24.5743 22.2007 24.3918C22.2007 24.3918 21.6274 25.9944 20.8748 25.9133C20.1223 25.8322 19.8895 25.3047 19.4234 25.2642C18.9576 25.2236 18.6171 25.3656 18.8502 25.5075C19.0832 25.6494 19.8714 25.554 20.2476 25.9163C20.6239 26.2785 20.9286 26.5018 20.2297 26.664C19.5309 26.8262 18.2767 26.7248 18.026 26.1163L17.775 25.5077V25.5075Z" fill="#7BC47F"/>
<path d="M21.9678 22.5859C21.9678 22.5859 18.2052 23.9655 17.7752 25.5072C17.7752 25.5072 17.7931 26.1971 17.4168 26.9882C17.4168 26.9882 16.8366 27.9859 17.1673 29.2005L17.3167 29.1551C17.3167 29.1551 17.1862 27.9502 17.4325 27.2522C17.4424 27.2264 17.4573 27.1893 17.4756 27.1442C17.5202 27.0453 17.5501 26.9727 17.5692 26.92C17.7033 26.6082 17.8971 26.2013 18.0261 26.116C18.0261 26.116 17.184 24.777 21.9678 22.5859Z" fill="#57AE5B"/>
<path d="M15.6375 24.3323C15.6375 24.3323 17.4088 23.2092 16.5821 21.6847C16.5821 21.6847 15.9207 20.7488 15.2123 20.5082C15.2123 20.5082 15.5903 22.7813 15.2123 22.8348C14.8344 22.8882 14.9525 20.2676 14.9525 20.2676C14.9525 20.2676 13.0867 19.2515 12.3545 19.3317C12.3545 19.3317 13.5118 21.5513 13.1339 21.4979C12.756 21.4444 11.4571 19.198 11.4571 19.198C11.4571 19.198 9.5439 18.7969 9.23702 20.0805C8.92993 21.3642 9.42607 22.006 9.70935 22.0861C9.99283 22.1663 11.8114 22.1396 11.7641 22.4071C11.7169 22.6744 10.4888 23.1023 9.80378 22.8617C9.80378 22.8617 10.5596 24.9745 11.5515 24.8673C12.5434 24.7604 12.8505 24.065 13.4646 24.0116C14.0786 23.9581 14.5275 24.1452 14.2205 24.3325C13.9134 24.5196 12.8743 24.3938 12.3783 24.8713C11.8824 25.3487 11.4809 25.6429 12.4019 25.8568C13.323 26.0708 14.9763 25.937 15.307 25.1349L15.6377 24.3325L15.6375 24.3323Z" fill="#7BC47F"/>
<path d="M16.1098 26.2844C15.6138 25.2415 15.6374 24.3323 15.6374 24.3323C15.0707 22.2999 10.1108 20.4814 10.1108 20.4814C16.4169 23.3696 15.3069 25.1346 15.3069 25.1346C15.4769 25.2468 15.7317 25.7821 15.9085 26.1927C15.9337 26.2625 15.9736 26.3593 16.0328 26.4906C16.0569 26.5501 16.076 26.5987 16.0894 26.6326C16.414 27.5524 16.2421 29.141 16.2421 29.141L16.4388 29.2009C16.875 27.5999 16.11 26.2849 16.11 26.2849L16.1098 26.2844Z" fill="#57AE5B"/>
<path d="M12.2275 28.7432C12.2275 30.9128 13.7811 32.6719 15.6973 32.6719C16.0974 32.6719 16.4816 32.5954 16.8392 32.4541C18.1945 31.9195 19.1671 30.46 19.1671 28.7432H12.2275Z" fill="#ED7D2B"/>
<path d="M14.5112 28.7434C14.5112 30.2153 14.8226 31.7145 15.8808 32.3873C16.0567 32.4993 16.6458 32.3781 16.8389 32.4541C18.1943 31.9195 19.1668 30.46 19.1668 28.7432H14.5112V28.7434Z" fill="#F99746"/>
<path d="M15.697 32.6719C15.838 32.6919 15.1282 32.6719 15.2743 32.6719C17.1905 32.6719 18.7441 30.9128 18.7441 28.7432H17.882C17.882 30.7478 17.4101 32.4315 15.6972 32.6719H15.697Z" fill="#FFB176"/>
<path d="M12.1792 32.8725H19.2148C19.2148 32.7386 19.1668 32.6174 19.0894 32.5296C19.0119 32.4418 18.9049 32.3877 18.7866 32.3877H12.6074C12.3711 32.3877 12.1794 32.6048 12.1794 32.8725H12.1792Z" fill="#ED7D2B"/>
<path d="M15.4761 32.8725H19.2151C19.2151 32.7386 19.1671 32.6174 19.0897 32.5296C19.0122 32.4418 18.9051 32.3877 18.7869 32.3877H15.904C15.6678 32.3877 15.4761 32.6048 15.4761 32.8725Z" fill="#F99746"/>
<path d="M12.1486 28.8643H19.2812V28.7437H12.1486V28.8643Z" fill="#F9703E"/>
<path d="M31.4536 32.8834C31.4575 32.8855 31.4618 32.8876 31.4668 32.8896H34.0913C34.0666 32.7839 33.981 32.5913 33.6806 32.5359C33.2734 32.4611 32.5676 32.1933 32.4101 31.6032C32.4052 31.5843 32.4007 31.5649 32.3967 31.5451C32.2717 30.9149 31.3627 31.7382 31.3627 31.7382C31.3627 31.7382 31.3598 31.7633 31.3559 31.8062C31.3348 32.0373 31.2808 32.7855 31.4534 32.8834H31.4536Z" fill="#1F2933"/>
<path d="M34.9249 22.2108C34.9249 22.2108 33.2181 29.0753 32.704 31.73C32.704 31.73 31.4372 32.0178 31.2402 31.5669C31.2402 31.5669 31.6485 24.0915 32.3992 23.1419C33.3333 21.9608 34.9249 22.2105 34.9249 22.2105V22.2108Z" fill="#2C3A64"/>
<path d="M35.0657 15.2537C35.0657 15.2537 35.0209 14.9466 35.0907 14.6908C35.1605 14.435 35.4528 13.7606 35.3604 13.5263C35.268 13.2919 34.9332 12.6612 34.7269 12.6631C34.5203 12.6649 34.944 13.338 34.8858 13.5481C34.8276 13.7583 34.8085 13.7753 34.7366 13.7569C34.6648 13.7385 34.5557 13.3359 34.5195 13.4299C34.4833 13.5239 34.5042 14.1468 34.5726 14.3023C34.6408 14.4579 34.501 15.3346 34.501 15.3346L35.0661 15.2537H35.0657Z" fill="#ED975D"/>
<path d="M35.231 15.1168C35.231 15.1168 34.7741 14.823 34.4206 14.9468C34.4206 14.9468 33.7193 17.2342 33.3329 18.916C32.5913 16.8445 32.1353 14.7783 32.1353 14.7783C32.1353 14.7783 31.2362 16.1839 30.9118 17.1187C30.5872 18.0536 32.5268 21.3327 33.2794 21.5901C34.0649 21.8588 33.9218 21.5896 34.3651 21.3025C34.5077 21.0931 34.9636 20.0506 35.2312 15.1166L35.231 15.1168Z" fill="#FFA412"/>
<path d="M37.2983 32.9908C37.3022 32.9929 37.3065 32.995 37.3116 32.9971H39.936C39.9113 32.8913 39.8255 32.6987 39.5253 32.6434C39.1181 32.5685 38.4123 32.3007 38.2548 31.7106C38.2499 31.6917 38.2454 31.6724 38.2414 31.6526C38.1164 31.0223 37.2074 31.8456 37.2074 31.8456C37.2074 31.8456 37.2045 31.8708 37.2006 31.9136C37.1795 32.1447 37.1256 32.8929 37.2983 32.9908Z" fill="#1F2933"/>
<path d="M35.4342 22.0444C35.4342 22.0444 35.1786 22.1733 34.8629 22.4366C34.8271 22.2297 34.7754 22.0954 34.7754 22.0954C32.5232 21.4313 26.4948 21.4854 26.4948 21.4854C26.4948 21.4854 25.1987 21.853 25.5792 23.9892C25.9295 25.9549 31.7176 25.0448 33.5874 24.4551C33.6311 24.4413 33.6735 24.4268 33.7144 24.4118C33.5656 25.6644 34.6073 27.4511 35.5192 29.0956C36.271 30.4512 36.9108 31.8234 36.9108 31.8234C37.2883 32.0886 38.556 31.9351 38.556 31.9351C37.7548 29.3733 35.4342 22.0449 35.4342 22.0449V22.0444Z" fill="#2242B2"/>
<path d="M30.4639 14.085C30.4639 14.085 31.1104 16.4287 32.0815 16.9529C32.0815 16.9529 32.1733 16.2418 32.0162 15.701C32.1444 15.5899 32.258 15.4867 32.3571 15.3938C32.6866 15.0835 32.8528 14.8848 32.8528 14.8848L32.7085 13.7422L32.6106 12.9668C32.4527 13.1716 32.2897 13.3394 32.1271 13.477C31.2887 14.185 30.4639 14.085 30.4639 14.085Z" fill="#FFB27D"/>
<path d="M32.127 13.4766C32.127 13.4766 31.8014 14.4911 32.3572 15.3934C32.6867 15.0831 32.8529 14.8844 32.8529 14.8844L32.7086 13.7418C32.3608 13.5217 32.127 13.4766 32.127 13.4766Z" fill="#ED975D"/>
<path d="M33.0992 15.1065C33.0992 15.1065 31.6674 14.0309 32.2728 13.0316C32.8782 12.0322 33.1011 11.2204 34.0409 11.8649C34.9806 12.5094 34.9255 13.0272 34.795 13.4164C34.6646 13.8055 33.4875 15.3604 33.0994 15.1063L33.0992 15.1065Z" fill="#FFB27D"/>
<path d="M32.4395 10.9394C32.4331 10.9122 32.4065 10.8781 32.3338 10.8322C32.3338 10.8322 32.412 10.8223 32.4926 10.8645C32.5597 10.7539 32.7063 10.5734 32.9067 10.6211C32.9067 10.6211 32.7854 10.6267 32.7181 10.7465C33.0302 10.617 33.55 10.6852 34.7277 11.4765C36.28 12.5196 35.2328 13.4136 34.9621 13.4394C34.6916 13.4653 34.3333 12.7844 33.9281 12.6037C33.5229 12.423 33.1686 13.0295 32.9979 13.045C32.8271 13.0604 32.9472 12.9323 32.8086 12.7399C32.67 12.5477 32.5054 12.8791 32.4612 13.1293C32.4171 13.3795 32.0447 13.5355 32.0447 13.5355L31.9295 13.0901C31.8143 12.6447 32.144 11.2119 32.377 10.997C32.3975 10.9781 32.4181 10.9585 32.4393 10.9394H32.4395Z" fill="#323F4B"/>
<path d="M32.206 17.9897C31.776 19.1429 31.3828 19.8794 31.3313 19.9757C31.1459 20.3225 30.9471 20.6409 30.765 20.9188C30.7593 20.9278 30.7536 20.9363 30.7477 20.9453C30.3893 21.4912 29.8412 21.6414 29.8583 21.7785C29.8925 22.0532 29.28 22.712 28.27 23.0041C27.098 23.3433 25.7398 23.5065 25.3965 23.0578C25.2817 22.9071 25.2435 22.6302 25.2563 22.2857C25.2813 21.5603 26.0878 18.639 26.0878 18.639C27.4674 13.9121 31.4178 13.9121 31.4178 13.9121C31.4178 13.9121 31.3405 15.0444 32.31 15.4375C32.3112 15.4398 32.5377 17.0998 32.206 17.9897Z" fill="#FFB93E"/>
<path d="M34.5264 21.3525C34.5264 21.3525 35.1196 21.5901 35.2824 21.7053C35.445 21.8208 35.8196 22.401 35.8618 22.6047C35.9039 22.8081 35.9533 23.4061 35.9226 23.5061C35.8919 23.6061 35.4379 23.2224 35.3369 22.8613C35.236 22.5003 34.9767 22.403 34.9867 22.4226C34.9967 22.442 35.1294 22.9044 35.1013 22.9243C35.0732 22.9443 34.9523 22.9786 34.8428 22.7208C34.7333 22.4627 34.5164 22.2742 34.5573 22.0076C34.5982 21.741 34.5264 21.3528 34.5264 21.3528V21.3525Z" fill="#FFB27D"/>
<path d="M29.8784 21.816C29.9125 22.0907 29.2803 22.7114 28.2703 23.0036C27.4277 21.1056 29.0297 16.7607 29.0297 16.7607L30.7652 20.9183C30.3989 21.478 29.8611 21.6768 29.8784 21.816Z" fill="#FFA412"/>
<path d="M31.3314 19.9755C31.146 20.3223 30.9472 20.6408 30.765 20.9187C30.7593 20.9276 30.7536 20.9362 30.7477 20.9452C30.5096 20.8412 30.2733 20.6341 30.1543 20.4433C29.881 20.0062 29.8584 17.3789 29.8584 17.3789C29.8584 17.3789 30.9775 18.9442 31.3312 19.9755H31.3314Z" fill="#FFA412"/>
<path d="M34.7541 21.4118C34.7541 21.4118 32.0472 20.5539 30.6579 20.1783C30.7804 18.3223 31.1815 12.7108 28.6573 14.9569C28.6573 14.9569 28.4666 20.9707 29.6896 22.1888C29.6896 22.1888 33.6163 22.283 34.364 22.2311C34.364 22.2311 34.5837 22.1023 34.6383 22.0166C34.8129 21.7422 34.7543 21.4118 34.7543 21.4118H34.7541Z" fill="#FFB93E"/>
<path d="M32.0498 24.6602H25.8773C25.6608 24.6602 25.4854 24.8588 25.4854 25.104V26.286C25.4854 26.5311 25.6608 26.7298 25.8773 26.7298H32.0498C32.2663 26.7298 32.4418 26.5311 32.4418 26.286V25.104C32.4418 24.8588 32.2663 24.6602 32.0498 24.6602Z" fill="#F99746"/>
<path d="M32.4418 26.0715V26.2867C32.4418 26.5307 32.2653 26.7305 32.0498 26.7305H25.8773C25.6618 26.7305 25.4854 26.5307 25.4854 26.2867V26.0537H32.3294C32.3683 26.0537 32.4062 26.0599 32.4418 26.0715Z" fill="#ED7D2B"/>
<path d="M26.9714 26.7294L26.6933 27.9227L26.6929 27.9232L25.5345 32.8899H25.4126L26.0821 28.7693C26.0827 28.7651 26.0838 28.7612 26.0844 28.7566L26.4155 26.7188L26.9712 26.7294H26.9714Z" fill="#E8C6A7"/>
<path d="M26.9716 26.7294L26.6934 27.9227L26.693 27.9232C26.6769 27.9319 26.1704 28.2287 26.0845 28.7566L26.4156 26.7188L26.9713 26.7294H26.9716Z" fill="#C69D7B"/>
<path d="M32.4419 32.8899H32.32L31.3761 28.8439V28.8432L31.1614 27.9232L31.161 27.9227L30.8828 26.7294L31.4386 26.7188L31.628 27.884L31.7697 28.7566C31.7703 28.761 31.7713 28.7651 31.7719 28.7693L32.4415 32.8899H32.4419Z" fill="#E8C6A7"/>
<path d="M30.5604 28.2928C30.5604 28.2928 30.5592 28.2928 30.5583 28.2914C30.5555 28.2863 30.5562 28.2873 30.5604 28.2928Z" fill="#E8C6A7"/>
<path d="M31.6283 27.884C31.5257 28.0529 31.3842 28.3707 31.3761 28.8432L31.1614 27.9232L31.161 27.9227L30.8828 26.7294L31.4386 26.7188L31.628 27.884H31.6283Z" fill="#C69D7B"/>
<path d="M30.0451 13.792C30.0451 13.792 30.7979 13.9671 30.8642 14.0586C30.9306 14.1501 31.4052 14.7837 31.1868 14.8591C30.9686 14.9342 30.5573 14.7823 30.4391 14.7181C30.3211 14.6535 30.2177 14.4558 30.2177 14.4558L30.0449 13.7922L30.0451 13.792Z" fill="#ED985F"/>
<path d="M30.0454 13.7922L30.2182 14.4558C30.2182 14.4558 29.7823 14.3436 29.5092 14.3134C29.4272 14.304 29.3802 14.2957 29.3802 14.2957C29.1614 14.2689 28.8991 14.2291 28.6138 14.1871H28.6099C28.1198 14.1042 27.5704 14.0005 27.1042 13.8712C26.7759 13.7768 26.4892 13.6692 26.2907 13.5528C26.2704 13.5417 26.2543 13.53 26.2338 13.5145C25.7561 13.1894 25.1393 12.155 24.6352 11.0308C24.5652 10.8757 24.4991 10.72 24.4336 10.5688C24.1969 10.0052 23.9993 9.44642 23.8692 8.95977C23.7888 8.6699 23.7298 8.40422 23.705 8.18325C23.6952 8.10536 23.6859 8.03186 23.6842 7.96181C23.6814 7.92172 23.6792 7.88231 23.6777 7.84429C23.8707 7.65304 24.3159 7.29566 24.923 7.33276C24.9356 7.35718 24.948 7.38207 24.9608 7.40718C25.2227 7.94637 25.5085 8.64962 25.7789 9.35034C25.9285 9.73422 26.0738 10.1183 26.2169 10.4723C26.2993 10.6875 26.3805 10.8898 26.4566 11.0751C26.6037 11.4285 26.7338 11.7136 26.8441 11.891C26.9149 12.0067 27.1044 12.159 27.3532 12.3272C27.7857 12.6219 28.4119 12.9675 28.9554 13.247C29.1811 13.365 29.3942 13.4712 29.5712 13.5588C29.857 13.7016 30.0454 13.7927 30.0454 13.7927V13.7922Z" fill="#ED985F"/>
<path d="M25.096 7.44163C24.3391 7.28356 23.6824 7.95985 23.6824 7.95985C23.5951 6.70036 24.1352 6.47362 24.1352 6.47362C24.3499 6.34735 24.7779 6.79184 25.0957 7.44163H25.096Z" fill="#2B478B"/>
<path d="M35.9731 21.533C35.9731 21.533 35.6615 21.6913 35.4411 21.5817C35.2207 21.472 35.6805 21.4964 35.6831 21.4019C35.6851 21.3296 35.2922 21.4881 35.1088 21.566C35.0632 21.5854 35.0221 21.5287 35.0471 21.4814C35.1096 21.3635 35.2936 21.1881 35.8278 21.0757C36.6941 20.8934 35.9731 21.5328 35.9731 21.5328V21.533Z" fill="#EA9C68"/>
<path d="M0.0634937 32.832H55.9365C55.9715 32.832 56 32.8643 56 32.9039V32.9283C56 32.968 55.9715 33.0002 55.9365 33.0002H0.0634937C0.0284908 33.0002 0 32.968 0 32.9283V32.9039C0 32.8643 0.0284908 32.832 0.0634937 32.832Z" fill="#2E3552"/>
</g>
<defs>
<clipPath id="clip0_1802_14182">
<rect width="56" height="33" fill="white"/>
</clipPath>
</defs>
</svg>
