<svg width="60" height="33" viewBox="0 0 60 33" fill="none" xmlns="http://www.w3.org/2000/svg">
<g clip-path="url(#clip0_1947_16721)">
<path opacity="0.6" d="M56.14 32.8203L44.68 32.8703L38.5 32.8503L34.32 32.8303H31.38L31.27 32.8203H30.19H30.15L24.83 32.8003H24.59L20.28 32.7803H18.83L16.8 32.7703H15.38L11.92 32.7503H10.92H9.56001H7.14001L3.41001 32.7303C3.41001 32.7303 3.28001 32.4603 3.09001 31.9703C2.95001 31.6103 2.77001 31.1303 2.59001 30.5503C2.56001 30.4403 2.52001 30.3303 2.49001 30.2203C2.44001 30.0603 2.39001 29.8903 2.35001 29.7203C2.33001 29.6603 2.31001 29.5903 2.30001 29.5303C2.19001 29.1403 2.09001 28.7103 2.00001 28.2703C2.00001 28.2403 1.99001 28.2103 1.98001 28.1803C1.94001 28.0103 1.91001 27.8303 1.88001 27.6603C1.86001 27.5603 1.84001 27.4603 1.83001 27.3603V27.3403C1.83001 27.3403 1.81001 27.2703 1.81001 27.2303C1.69001 26.5103 1.60001 25.7503 1.55001 24.9503C1.55001 24.8103 1.53001 24.6703 1.53001 24.5303C1.53001 24.3903 1.53001 24.2403 1.52001 24.0903C1.51001 23.1803 1.55001 22.2403 1.69001 21.2903C1.74001 20.9203 1.81001 20.5403 1.89001 20.1603C1.95001 19.8803 2.01001 19.6103 2.09001 19.3303C2.10001 19.2803 2.12001 19.2303 2.13001 19.1803C2.30001 18.5603 2.52001 17.9503 2.78001 17.3303C2.80001 17.2803 2.83001 17.2203 2.85001 17.1603C3.05001 16.7203 3.27001 16.2803 3.52001 15.8403C3.55001 15.8003 3.57001 15.7503 3.60001 15.7103C3.75001 15.4603 3.90001 15.2203 4.07001 14.9703C4.31001 14.6103 4.57001 14.2603 4.86001 13.9103C5.25001 13.4303 5.64001 12.9903 6.03001 12.6003C6.19001 12.4403 6.35001 12.2803 6.50001 12.1303C6.64001 12.0003 6.77001 11.8803 6.90001 11.7603C6.90001 11.7603 6.92001 11.7503 6.92001 11.7403C7.23001 11.4703 7.54001 11.2203 7.84001 11.0003C7.90001 10.9503 7.96001 10.9103 8.03001 10.8703C8.33001 10.6603 8.63001 10.4703 8.92001 10.3003C8.98001 10.2603 9.05001 10.2303 9.11001 10.1903C10.67 9.34027 12.15 9.06027 13.5 9.07027C13.56 9.07027 13.63 9.07027 13.69 9.07027C14.01 9.07027 14.32 9.10027 14.62 9.13027C15.89 9.27027 17.04 9.60027 18.02 9.84027C18.08 9.86027 18.15 9.87027 18.21 9.89027C18.85 10.0403 19.42 10.1403 19.91 10.1003C20.69 10.0403 21.33 9.47027 22.01 8.64027C22.06 8.58027 22.11 8.52027 22.16 8.45027C22.56 7.95027 22.98 7.36027 23.45 6.74027C23.54 6.63027 23.63 6.51027 23.72 6.39027C23.9 6.16027 24.09 5.93027 24.29 5.69027C24.32 5.65027 24.35 5.62027 24.38 5.58027C24.45 5.50027 24.51 5.42027 24.58 5.34027C24.61 5.31027 24.64 5.27027 24.67 5.24027C24.89 4.99027 25.13 4.74027 25.38 4.48027C26.47 3.40027 27.83 2.36027 29.63 1.56027C30.39 1.22027 31.23 0.930273 32.16 0.700273C33.18 0.440273 34.28 0.250273 35.41 0.140273C35.68 0.110273 35.95 0.0902734 36.23 0.0702734C36.52 0.0502734 36.82 0.0402734 37.12 0.0302734C37.3 0.0302734 37.48 0.0302734 37.65 0.0302734C38.09 0.0302734 38.53 0.0402734 38.97 0.0702734C39.13 0.0702734 39.28 0.0902734 39.43 0.100273C41.32 0.260273 43.14 0.690274 44.68 1.45027C45.76 1.99027 49.82 4.38027 51.01 8.44027C51.39 9.72027 51.48 11.1703 51.1 12.7703C49.76 18.4503 51.8 19.1603 54.36 21.8603C57.78 25.4703 58.88 30.3403 56.14 32.8403V32.8203Z" fill="#FFE8D9"/>
<path d="M11.3201 20.9298C11.3201 20.9298 11.3201 20.8798 11.2901 20.8698L11.0501 20.7698L10.8601 20.6998C10.8601 20.6998 10.8301 20.6998 10.8301 20.7198L10.6001 21.5598C10.6001 21.5598 10.6001 21.5898 10.6101 21.5998L10.7101 21.6398C10.5401 21.7398 10.2001 21.8398 9.98009 21.8898C9.95009 21.6198 9.93009 21.3598 9.92009 21.1598C9.92009 21.1598 9.92009 21.1598 9.92009 21.1498C9.92009 21.1298 9.92009 21.1198 9.92009 21.0998C9.92009 21.0798 9.92009 21.0598 9.92009 21.0398C9.92009 21.0298 9.92009 21.0198 9.92009 20.9998C9.92009 20.9798 9.92009 20.9498 9.92009 20.9298C9.92009 20.9298 9.92009 20.9298 9.92009 20.9198C9.94009 20.7398 9.94009 20.5798 9.94009 20.4398C9.93009 19.8998 9.80009 19.5898 9.69009 19.4598C9.66009 19.4298 9.63009 19.4198 9.51009 19.3898C9.49009 19.3598 9.25009 19.3398 9.25009 19.3398C9.25009 19.3398 9.22009 19.3398 9.21009 19.3398C9.21009 19.3398 9.19009 19.3398 9.18009 19.3398C9.15009 19.3198 9.14009 19.1498 9.14009 18.9698C9.14009 18.9398 9.14009 18.9198 9.14009 18.8898C9.14009 18.8598 9.14009 18.8398 9.14009 18.8098C9.14009 18.7798 9.14009 18.7498 9.14009 18.7198C9.21009 18.7198 9.26009 18.7198 9.26009 18.7198C9.40009 18.7098 9.48009 18.2698 9.51009 17.9098C9.51009 17.9098 9.68009 17.4298 9.49009 17.1698C9.46009 17.1198 9.42009 17.0898 9.39009 17.0698C9.39009 17.0598 9.37009 17.0498 9.36009 17.0398C9.23009 16.8698 8.71009 16.2398 8.37009 16.5998C8.37009 16.5598 8.25009 16.1498 7.71009 16.2898C7.71009 16.2898 7.98009 16.2498 8.05009 16.3698C8.05009 16.3698 7.84009 16.2498 7.70009 16.3498C7.57009 16.4498 7.54009 16.7798 7.56009 16.8798C7.58009 16.9798 7.73009 17.2798 7.83009 17.2798C7.87009 17.2798 7.91009 17.2698 7.94009 17.2498C7.92009 17.2998 7.91009 17.3598 7.90009 17.4198C7.80009 18.0098 8.12009 18.4498 8.29009 18.3398C8.40009 18.2698 8.48009 18.4998 8.48009 18.4998C8.48009 18.7098 8.44009 18.8898 8.41009 19.0198C8.25009 18.9498 8.01009 18.9098 7.65009 18.9598C6.83009 19.0898 6.75009 19.4198 6.68009 20.0098C6.61009 20.5998 6.49009 23.3098 6.55009 23.4998C6.57009 23.5498 6.64009 23.5998 6.74009 23.6298C6.66009 23.9598 6.57009 24.3098 6.49009 24.5598C6.47009 24.6198 6.41009 24.7498 6.35009 24.7998C6.27009 24.8598 6.17009 24.9998 6.19009 25.1098C6.21009 25.2198 6.23009 25.3898 6.33009 25.3898C6.43009 25.3898 6.65009 24.8798 6.68009 24.7898C6.71009 24.6898 6.73009 24.6798 6.73009 24.6798C6.73009 24.6798 6.97009 24.2098 7.20009 23.7098C7.28009 23.7098 7.36009 23.7098 7.44009 23.7098C7.39009 23.9698 7.35009 24.1998 7.34009 24.3498C7.34009 24.4098 7.34009 24.4598 7.34009 24.4898C7.35009 24.5298 7.37009 24.5698 7.41009 24.5898C7.40009 24.7198 7.39009 24.8598 7.39009 24.9998C7.35009 26.4298 7.63009 28.2998 7.67009 28.5698C7.67009 28.5898 7.67009 28.6098 7.67009 28.6298C7.37009 29.3398 7.33009 30.1498 7.38009 30.8698C7.43009 31.4898 7.57009 31.9898 7.69009 32.2998C7.69009 32.2998 7.67009 32.3198 7.65009 32.3598C7.64009 32.3898 7.63009 32.4398 7.63009 32.4898C7.64009 32.5698 7.61009 32.7098 7.58009 32.8098C7.56009 32.8698 7.55009 32.9098 7.55009 32.9098C7.55009 32.9098 7.55009 32.9598 7.69009 32.9798H7.86009C7.92009 32.9698 7.96009 32.9498 8.02009 32.9398C8.11009 32.9298 8.15009 32.9698 8.16009 32.9798H8.88009C8.88009 32.9798 8.88009 32.9598 8.88009 32.9498C8.89009 32.9498 8.90009 32.9498 8.92009 32.9498C9.01009 32.9398 9.05009 32.9798 9.06009 32.9898H9.78009C9.78009 32.9898 9.78009 32.8898 9.76009 32.8398C9.75009 32.7998 9.72009 32.7798 9.69009 32.7698C9.61009 32.7398 9.46009 32.7198 9.33009 32.5698C9.25009 32.4898 8.96009 32.2598 8.96009 32.2598C8.93009 31.9498 8.89009 31.4998 8.90009 30.9698C8.90009 30.2698 8.98009 29.4498 9.21009 28.6698C9.75009 26.8398 9.86009 25.3498 9.88009 24.5798C10.0001 24.4998 10.0801 24.3798 10.1001 24.2098C10.1501 23.7498 10.0901 23.0898 10.0201 22.4598C10.4601 22.2198 10.8601 21.8398 10.8601 21.8398C10.8601 21.8398 10.9101 21.8098 10.9701 21.7698L11.0201 21.7898C11.0201 21.7898 11.0601 21.7898 11.0701 21.7598L11.0901 21.6798C11.1501 21.6298 11.2001 21.5798 11.2301 21.5298C11.3201 21.3998 11.2901 21.1798 11.2501 21.0798L11.2801 20.9598L11.3201 20.9298ZM8.29009 31.0098C8.40009 31.5298 8.54009 31.9798 8.64009 32.2898C8.64009 32.2898 8.62009 32.3098 8.60009 32.3498C8.59009 32.3798 8.58009 32.4298 8.58009 32.4798C8.58009 32.5198 8.58009 32.5698 8.57009 32.6298C8.54009 32.6098 8.50009 32.5798 8.47009 32.5398C8.39009 32.4598 8.10009 32.2298 8.10009 32.2298C8.14009 31.9198 8.19009 31.5098 8.23009 31.0698C8.23009 30.9898 8.25009 30.8998 8.25009 30.8198C8.26009 30.8798 8.27009 30.9398 8.29009 30.9998V31.0098Z" fill="#E4E7EB"/>
<g opacity="0.5">
<path d="M28.5699 17.7305H11.6199C11.5099 17.7305 11.4199 17.8405 11.4199 17.9705V18.3905C11.4199 18.5205 11.5099 18.6305 11.6199 18.6305H28.5699C28.6799 18.6305 28.7699 18.5205 28.7699 18.3905V17.9705C28.7699 17.8405 28.6799 17.7305 28.5699 17.7305Z" fill="#9FC1F4"/>
<path d="M16.6202 19.56C16.3102 19.33 15.7102 18.93 15.0702 18.91V18.26C15.0702 18.19 15.0402 18.05 14.9302 18.05C14.8802 18.05 14.8402 18.01 14.8202 17.98C14.7902 17.94 14.7702 17.88 14.7802 17.83C14.7902 17.69 14.8702 17.6 14.9802 17.6C15.1202 17.6 15.1302 17.89 15.1302 17.9C15.1302 17.93 15.1502 17.95 15.1702 17.95C15.1902 17.95 15.2102 17.93 15.2102 17.9C15.2102 17.9 15.2102 17.81 15.1802 17.71C15.1302 17.54 15.0402 17.5 14.9802 17.5C14.8202 17.5 14.7102 17.62 14.7002 17.82C14.7002 17.89 14.7202 17.98 14.7602 18.04C14.8002 18.1 14.8602 18.14 14.9302 18.14C14.9902 18.14 14.9902 18.25 14.9902 18.25V18.9C14.3802 18.9 13.7802 19.28 13.4702 19.51C13.4102 19.55 13.3802 19.64 13.4002 19.72C13.4202 19.8 13.4802 19.86 13.5502 19.86H16.5402C16.6002 19.86 16.6602 19.81 16.6702 19.74C16.6902 19.67 16.6702 19.59 16.6102 19.55L16.6202 19.56ZM16.5602 19.71C16.5602 19.71 16.5602 19.72 16.5502 19.72H13.5602C13.5602 19.72 13.5302 19.7 13.5302 19.69C13.5302 19.68 13.5302 19.66 13.5402 19.65C13.8402 19.43 14.4302 19.07 15.0102 19.07H15.0302C15.6502 19.08 16.2402 19.47 16.5402 19.7C16.5402 19.7 16.5402 19.7 16.5402 19.72L16.5602 19.71Z" fill="#9FC1F4"/>
<path d="M14.0001 19.1699C14.0001 19.1699 14.4701 19.6699 15.1401 19.6399C15.8101 19.6099 16.1301 19.2099 16.1301 19.2099C16.1301 19.2099 16.6601 19.5299 16.7701 19.7099C16.8801 19.8899 16.9301 21.7399 16.9301 21.7399C16.9301 21.7399 16.6701 21.8599 16.4001 21.8499L16.2901 21.4599L16.6201 28.0199C16.6201 28.0199 16.2101 28.0399 15.9701 27.8699C15.7301 27.7099 15.3801 27.9199 15.0601 27.9799C14.7401 28.0299 14.5601 27.7399 14.2501 27.8599C13.7601 28.0499 13.3801 27.9399 13.3801 27.9399L13.8801 21.4399L13.7401 21.8199C13.7401 21.8199 13.2701 21.8199 13.1201 21.6299C13.1201 21.6299 13.3001 19.6699 13.4001 19.5499C13.5001 19.4299 14.0101 19.1799 14.0101 19.1799L14.0001 19.1699Z" fill="#9FC1F4"/>
<path d="M18.68 19.56C18.54 19.46 18.35 19.32 18.12 19.2C18.02 19.15 17.9 19.09 17.79 19.05C17.58 18.97 17.36 18.92 17.13 18.91V18.26C17.13 18.19 17.1 18.05 16.99 18.05C16.94 18.05 16.9 18.01 16.88 17.98C16.85 17.94 16.83 17.88 16.84 17.83C16.85 17.69 16.93 17.6 17.04 17.6C17.18 17.6 17.19 17.89 17.19 17.9C17.19 17.93 17.21 17.95 17.23 17.95C17.25 17.95 17.27 17.93 17.27 17.9C17.27 17.9 17.27 17.81 17.24 17.71C17.19 17.54 17.1 17.5 17.04 17.5C16.88 17.5 16.77 17.62 16.76 17.82C16.76 17.89 16.78 17.98 16.82 18.04C16.86 18.1 16.92 18.14 16.99 18.14C17.05 18.14 17.05 18.25 17.05 18.25V18.9C16.8 18.9 16.55 18.97 16.32 19.06C16.21 19.1 16.11 19.15 16.02 19.2C15.82 19.3 15.66 19.42 15.54 19.5C15.48 19.54 15.45 19.63 15.47 19.71C15.49 19.79 15.55 19.85 15.62 19.85H18.61C18.67 19.85 18.73 19.8 18.74 19.73C18.76 19.66 18.74 19.58 18.68 19.54V19.56ZM18.62 19.71C18.62 19.71 18.62 19.72 18.61 19.72H15.62C15.62 19.72 15.59 19.7 15.59 19.69C15.59 19.68 15.59 19.66 15.6 19.65C15.72 19.56 15.88 19.45 16.07 19.35C16.16 19.3 16.26 19.25 16.37 19.21C16.59 19.12 16.83 19.06 17.07 19.06H17.09C17.31 19.06 17.54 19.12 17.74 19.19C17.87 19.24 17.99 19.3 18.1 19.36C18.3 19.47 18.48 19.59 18.6 19.69C18.6 19.69 18.6 19.69 18.6 19.71H18.62Z" fill="#77A4E5"/>
<path d="M17.9901 22.01C17.9801 21.53 18.1401 21.06 18.1701 20.6C18.2001 20.14 18.0901 19.88 18.0901 19.88C18.0901 19.88 18.0901 19.87 18.0901 19.86C18.0901 19.81 18.0901 19.76 18.0901 19.71C18.0901 19.57 18.1001 19.45 18.1101 19.36C18.1201 19.28 18.1301 19.22 18.1301 19.22C18.1301 19.22 18.1301 19.2 18.1201 19.19C18.0201 19.14 17.9001 19.08 17.7901 19.04C17.7801 19.09 17.7601 19.14 17.7501 19.18C17.6901 19.39 17.6301 19.56 17.5601 19.7C17.5401 19.76 17.5101 19.81 17.4901 19.85C17.2601 20.32 17.0701 20.35 17.0701 20.35C16.9301 20.33 16.7801 20.11 16.6401 19.85C16.6101 19.8 16.5901 19.75 16.5701 19.7C16.4901 19.52 16.4101 19.33 16.3601 19.19C16.3401 19.13 16.3201 19.09 16.3101 19.05C16.2001 19.09 16.1001 19.14 16.0101 19.19C16.0301 19.22 16.0501 19.27 16.0601 19.33C16.0801 19.44 16.0801 19.59 16.0801 19.7C16.0801 19.77 16.0801 19.82 16.0701 19.85C16.0701 19.86 16.0701 19.87 16.0701 19.87C15.8401 20.88 16.3401 21.49 16.3201 22C16.3001 22.51 15.5801 26.81 15.5801 26.81C16.2901 26.99 16.6401 26.52 16.7501 26.75C16.9101 27.09 17.3001 27.06 17.6601 26.8C17.7301 26.75 18.0401 26.63 18.3401 26.75C18.6401 26.87 18.8401 26.61 18.8401 26.61C18.8201 25.83 18.0101 22.64 18.0001 22L17.9901 22.01ZM16.0701 19.89C16.0701 19.89 16.1001 19.91 16.1301 19.93C16.1001 19.91 16.0801 19.89 16.0701 19.89Z" fill="#77A4E5"/>
<path d="M20.7696 19.56C20.4596 19.33 19.8596 18.93 19.2196 18.91V18.26C19.2196 18.19 19.1896 18.05 19.0796 18.05C19.0296 18.05 18.9896 18.01 18.9696 17.98C18.9396 17.94 18.9196 17.88 18.9296 17.83C18.9396 17.69 19.0196 17.6 19.1296 17.6C19.2696 17.6 19.2796 17.89 19.2796 17.9C19.2796 17.93 19.2996 17.95 19.3196 17.95C19.3396 17.95 19.3596 17.93 19.3596 17.9C19.3596 17.9 19.3596 17.81 19.3296 17.71C19.2796 17.54 19.1896 17.5 19.1296 17.5C18.9696 17.5 18.8596 17.62 18.8496 17.82C18.8496 17.89 18.8696 17.98 18.9096 18.04C18.9496 18.1 19.0096 18.14 19.0796 18.14C19.1396 18.14 19.1396 18.25 19.1396 18.25V18.9C18.5296 18.9 17.9296 19.28 17.6196 19.51C17.5596 19.55 17.5296 19.64 17.5496 19.72C17.5696 19.8 17.6296 19.86 17.6996 19.86H20.6896C20.7496 19.86 20.8096 19.81 20.8196 19.74C20.8396 19.67 20.8196 19.59 20.7596 19.55L20.7696 19.56ZM20.7096 19.71C20.7096 19.71 20.7096 19.72 20.6996 19.72H17.7096C17.7096 19.72 17.6796 19.7 17.6796 19.69C17.6796 19.68 17.6796 19.66 17.6896 19.65C17.9896 19.43 18.5796 19.07 19.1596 19.07H19.1796C19.7996 19.08 20.3896 19.47 20.6896 19.7C20.6896 19.7 20.6896 19.7 20.6896 19.72L20.7096 19.71Z" fill="#9FC1F4"/>
<path d="M18.1598 19.1699C18.1598 19.1699 18.6298 19.6699 19.2998 19.6399C19.9698 19.6099 20.2898 19.2099 20.2898 19.2099C20.2898 19.2099 20.8198 19.5299 20.9298 19.7099C21.0398 19.8899 21.0898 21.7399 21.0898 21.7399C21.0898 21.7399 20.8298 21.8599 20.5598 21.8499L20.4498 21.4599L20.7798 28.0199C20.7798 28.0199 20.3698 28.0399 20.1298 27.8699C19.8898 27.7099 19.5398 27.9199 19.2198 27.9799C18.8998 28.0399 18.7198 27.7399 18.4098 27.8599C17.9198 28.0499 17.5398 27.9399 17.5398 27.9399L18.0398 21.4399L17.8998 21.8199C17.8998 21.8199 17.4298 21.8199 17.2798 21.6299C17.2798 21.6299 17.4598 19.6699 17.5598 19.5499C17.6598 19.4299 18.1698 19.1799 18.1698 19.1799L18.1598 19.1699Z" fill="#9FC1F4"/>
<path d="M22.2401 19.56C22.1001 19.46 21.9101 19.32 21.6801 19.2C21.5801 19.15 21.4601 19.09 21.3501 19.05C21.1401 18.97 20.9201 18.92 20.6901 18.91V18.26C20.6901 18.19 20.6601 18.05 20.5501 18.05C20.5001 18.05 20.4601 18.01 20.4401 17.98C20.4101 17.94 20.3901 17.88 20.4001 17.83C20.4101 17.69 20.4901 17.6 20.6001 17.6C20.7401 17.6 20.7501 17.89 20.7501 17.9C20.7501 17.93 20.7701 17.95 20.7901 17.95C20.8101 17.95 20.8301 17.93 20.8301 17.9C20.8301 17.9 20.8301 17.81 20.8001 17.71C20.7501 17.54 20.6601 17.5 20.6001 17.5C20.4401 17.5 20.3301 17.62 20.3201 17.82C20.3201 17.89 20.3401 17.98 20.3801 18.04C20.4201 18.1 20.4801 18.14 20.5501 18.14C20.6101 18.14 20.6101 18.25 20.6101 18.25V18.9C20.3601 18.9 20.1101 18.97 19.8801 19.06C19.7701 19.1 19.6701 19.15 19.5801 19.2C19.3801 19.3 19.2201 19.42 19.1001 19.5C19.0401 19.54 19.0101 19.63 19.0301 19.71C19.0501 19.79 19.1101 19.85 19.1801 19.85H22.1701C22.2301 19.85 22.2901 19.8 22.3001 19.73C22.3201 19.66 22.3001 19.58 22.2401 19.54V19.56ZM22.1801 19.71C22.1801 19.71 22.1801 19.72 22.1701 19.72H19.1801C19.1801 19.72 19.1501 19.7 19.1501 19.69C19.1501 19.68 19.1501 19.66 19.1601 19.65C19.2801 19.56 19.4401 19.45 19.6301 19.35C19.7201 19.3 19.8201 19.25 19.9301 19.21C20.1501 19.12 20.3901 19.06 20.6301 19.06H20.6501C20.8701 19.06 21.1001 19.12 21.3001 19.19C21.4301 19.24 21.5501 19.3 21.6601 19.36C21.8601 19.47 22.0401 19.59 22.1601 19.69C22.1601 19.69 22.1601 19.69 22.1601 19.71H22.1801Z" fill="#77A4E5"/>
<path d="M21.5599 22.01C21.5499 21.53 21.7099 21.06 21.7399 20.6C21.7699 20.14 21.6599 19.88 21.6599 19.88C21.6599 19.88 21.6599 19.87 21.6599 19.86C21.6599 19.81 21.6599 19.76 21.6599 19.71C21.6599 19.57 21.6699 19.45 21.6799 19.36C21.6899 19.28 21.6999 19.22 21.6999 19.22C21.6999 19.22 21.6999 19.2 21.6899 19.19C21.5899 19.14 21.4699 19.08 21.3599 19.04C21.3499 19.09 21.3299 19.14 21.3199 19.18C21.2599 19.39 21.1999 19.56 21.1299 19.7C21.1099 19.76 21.0799 19.81 21.0599 19.85C20.8299 20.32 20.6399 20.35 20.6399 20.35C20.4999 20.33 20.3499 20.11 20.2099 19.85C20.1799 19.8 20.1599 19.75 20.1399 19.7C20.0599 19.52 19.9799 19.33 19.9299 19.19C19.9099 19.13 19.8899 19.09 19.8799 19.05C19.7699 19.09 19.6699 19.14 19.5799 19.19C19.5999 19.22 19.6199 19.27 19.6299 19.33C19.6499 19.44 19.6499 19.59 19.6499 19.7C19.6499 19.77 19.6499 19.82 19.6399 19.85C19.6399 19.86 19.6399 19.87 19.6399 19.87C19.4099 20.88 19.9099 21.49 19.8899 22C19.8699 22.51 19.1499 26.81 19.1499 26.81C19.8599 26.99 20.2099 26.52 20.3199 26.75C20.4799 27.09 20.8699 27.06 21.2299 26.8C21.2999 26.75 21.6099 26.63 21.9099 26.75C22.2099 26.87 22.4099 26.61 22.4099 26.61C22.3899 25.83 21.5799 22.64 21.5699 22L21.5599 22.01ZM19.6399 19.89C19.6399 19.89 19.6699 19.91 19.6999 19.93C19.6699 19.91 19.6499 19.89 19.6399 19.89Z" fill="#77A4E5"/>
<path d="M23.7501 19.56C23.4401 19.33 22.8401 18.93 22.2001 18.91V18.26C22.2001 18.19 22.1701 18.05 22.0601 18.05C22.0101 18.05 21.9701 18.01 21.9501 17.98C21.9201 17.94 21.9001 17.88 21.9101 17.83C21.9201 17.69 22.0001 17.6 22.1101 17.6C22.2501 17.6 22.2601 17.89 22.2601 17.9C22.2601 17.93 22.2801 17.95 22.3001 17.95C22.3201 17.95 22.3401 17.93 22.3401 17.9C22.3401 17.9 22.3401 17.81 22.3101 17.71C22.2601 17.54 22.1701 17.5 22.1101 17.5C21.9501 17.5 21.8401 17.62 21.8301 17.82C21.8301 17.89 21.8501 17.98 21.8901 18.04C21.9301 18.1 21.9901 18.14 22.0601 18.14C22.1201 18.14 22.1201 18.25 22.1201 18.25V18.9C21.5101 18.9 20.9101 19.28 20.6001 19.51C20.5401 19.55 20.5101 19.64 20.5301 19.72C20.5501 19.8 20.6101 19.86 20.6801 19.86H23.6701C23.7301 19.86 23.7901 19.81 23.8001 19.74C23.8201 19.67 23.8001 19.59 23.7401 19.55L23.7501 19.56ZM23.6901 19.71C23.6901 19.71 23.6901 19.72 23.6801 19.72H20.6901C20.6901 19.72 20.6601 19.7 20.6601 19.69C20.6601 19.68 20.6601 19.66 20.6701 19.65C20.9701 19.43 21.5601 19.07 22.1401 19.07H22.1601C22.7801 19.08 23.3701 19.47 23.6701 19.7C23.6701 19.7 23.6701 19.7 23.6701 19.72L23.6901 19.71Z" fill="#9FC1F4"/>
<path d="M21.13 19.1699C21.13 19.1699 21.6 19.6699 22.27 19.6399C22.94 19.6099 23.26 19.2099 23.26 19.2099C23.26 19.2099 23.79 19.5299 23.9 19.7099C24.01 19.8899 24.06 21.7399 24.06 21.7399C24.06 21.7399 23.8 21.8599 23.53 21.8499L23.42 21.4599L23.75 28.0199C23.75 28.0199 23.34 28.0399 23.1 27.8699C22.86 27.7099 22.51 27.9199 22.19 27.9799C21.87 28.0299 21.69 27.7399 21.38 27.8599C20.89 28.0499 20.51 27.9399 20.51 27.9399L21.01 21.4399L20.87 21.8199C20.87 21.8199 20.4 21.8199 20.25 21.6299C20.25 21.6299 20.43 19.6699 20.53 19.5499C20.63 19.4299 21.14 19.1799 21.14 19.1799L21.13 19.1699Z" fill="#9FC1F4"/>
<path d="M25.2201 19.56C25.0801 19.46 24.8901 19.32 24.6601 19.2C24.5601 19.15 24.4401 19.09 24.3301 19.05C24.1201 18.97 23.9001 18.92 23.6701 18.91V18.26C23.6701 18.19 23.6401 18.05 23.5301 18.05C23.4801 18.05 23.4401 18.01 23.4201 17.98C23.3901 17.94 23.3701 17.88 23.3801 17.83C23.3901 17.69 23.4701 17.6 23.5801 17.6C23.7201 17.6 23.7301 17.89 23.7301 17.9C23.7301 17.93 23.7501 17.95 23.7701 17.95C23.7901 17.95 23.8101 17.93 23.8101 17.9C23.8101 17.9 23.8101 17.81 23.7801 17.71C23.7301 17.54 23.6401 17.5 23.5801 17.5C23.4201 17.5 23.3101 17.62 23.3001 17.82C23.3001 17.89 23.3201 17.98 23.3601 18.04C23.4001 18.1 23.4601 18.14 23.5301 18.14C23.5901 18.14 23.5901 18.25 23.5901 18.25V18.9C23.3401 18.9 23.0901 18.97 22.8601 19.06C22.7501 19.1 22.6501 19.15 22.5601 19.2C22.3601 19.3 22.2001 19.42 22.0801 19.5C22.0201 19.54 21.9901 19.63 22.0101 19.71C22.0301 19.79 22.0901 19.85 22.1601 19.85H25.1501C25.2101 19.85 25.2701 19.8 25.2801 19.73C25.3001 19.66 25.2801 19.58 25.2201 19.54V19.56ZM25.1601 19.71C25.1601 19.71 25.1601 19.72 25.1501 19.72H22.1601C22.1601 19.72 22.1301 19.7 22.1301 19.69C22.1301 19.68 22.1301 19.66 22.1401 19.65C22.2601 19.56 22.4201 19.45 22.6101 19.35C22.7001 19.3 22.8001 19.25 22.9101 19.21C23.1301 19.12 23.3701 19.06 23.6101 19.06H23.6301C23.8501 19.06 24.0801 19.12 24.2801 19.19C24.4101 19.24 24.5301 19.3 24.6401 19.36C24.8401 19.47 25.0201 19.59 25.1401 19.69C25.1401 19.69 25.1401 19.69 25.1401 19.71H25.1601Z" fill="#77A4E5"/>
<path d="M24.5301 22.01C24.5201 21.53 24.6801 21.06 24.7101 20.6C24.7401 20.14 24.6301 19.88 24.6301 19.88C24.6301 19.88 24.6301 19.87 24.6301 19.86C24.6301 19.81 24.6301 19.76 24.6301 19.71C24.6301 19.57 24.6401 19.45 24.6501 19.36C24.6601 19.28 24.6701 19.22 24.6701 19.22C24.6701 19.22 24.6701 19.2 24.6601 19.19C24.5601 19.14 24.4401 19.08 24.3301 19.04C24.3201 19.09 24.3001 19.14 24.2901 19.18C24.2301 19.39 24.1701 19.56 24.1001 19.7C24.0801 19.76 24.0501 19.81 24.0301 19.85C23.8001 20.32 23.6101 20.35 23.6101 20.35C23.4701 20.33 23.3201 20.11 23.1801 19.85C23.1501 19.8 23.1301 19.75 23.1101 19.7C23.0301 19.52 22.9501 19.33 22.9001 19.19C22.8801 19.13 22.8601 19.09 22.8501 19.05C22.7401 19.09 22.6401 19.14 22.5501 19.19C22.5701 19.22 22.5901 19.27 22.6001 19.33C22.6201 19.44 22.6201 19.59 22.6201 19.7C22.6201 19.77 22.6201 19.82 22.6101 19.85C22.6101 19.86 22.6101 19.87 22.6101 19.87C22.3801 20.88 22.8801 21.49 22.8601 22C22.8401 22.51 22.1201 26.81 22.1201 26.81C22.8301 26.99 23.1801 26.52 23.2901 26.75C23.4501 27.09 23.8401 27.06 24.2001 26.8C24.2701 26.75 24.5801 26.63 24.8801 26.75C25.1801 26.87 25.3801 26.61 25.3801 26.61C25.3601 25.83 24.5501 22.64 24.5401 22L24.5301 22.01ZM22.6101 19.89C22.6101 19.89 22.6401 19.91 22.6701 19.93C22.6401 19.91 22.6201 19.89 22.6101 19.89Z" fill="#77A4E5"/>
<path d="M28.6199 31.4604H26.8999C26.8999 31.4604 26.9299 31.3904 26.9299 31.3504V18.7904C26.9299 18.6904 26.8599 18.6104 26.7799 18.6104C26.6999 18.6104 26.6299 18.6904 26.6299 18.7904V31.3504C26.6299 31.3504 26.6399 31.4304 26.6599 31.4604H11.5599C11.4799 31.4604 11.4199 31.5403 11.4199 31.6304V31.7404C11.4199 31.8304 11.4799 31.9104 11.5599 31.9104H28.6199C28.6999 31.9104 28.7599 31.8304 28.7599 31.7404V31.6304C28.7599 31.5403 28.6999 31.4604 28.6199 31.4604Z" fill="#9FC1F4"/>
<path d="M26.8098 32.6102C26.9755 32.6102 27.1098 32.4535 27.1098 32.2602C27.1098 32.0669 26.9755 31.9102 26.8098 31.9102C26.6441 31.9102 26.5098 32.0669 26.5098 32.2602C26.5098 32.4535 26.6441 32.6102 26.8098 32.6102Z" fill="#9FC1F4"/>
<path d="M13.3898 32.6102C13.5555 32.6102 13.6898 32.4535 13.6898 32.2602C13.6898 32.0669 13.5555 31.9102 13.3898 31.9102C13.2242 31.9102 13.0898 32.0669 13.0898 32.2602C13.0898 32.4535 13.2242 32.6102 13.3898 32.6102Z" fill="#9FC1F4"/>
</g>
<path d="M20.0798 24.0503H2.0098C1.8898 24.0503 1.7998 24.1603 1.7998 24.3003V27.1903C1.7998 27.1903 1.8098 27.2603 1.8198 27.3003V27.3203C1.8398 27.4203 1.8598 27.5203 1.8798 27.6203C1.9098 27.8003 1.9498 27.9703 1.9798 28.1403C1.9798 28.1703 1.9898 28.2003 1.9998 28.2303C2.0898 28.6803 2.1998 29.1003 2.2998 29.4903C2.3198 29.5603 2.3398 29.6203 2.3498 29.6803C2.3998 29.8503 2.4498 30.0203 2.4898 30.1803C2.5198 30.2903 2.5598 30.4103 2.5898 30.5103C2.7698 31.0903 2.9498 31.5703 3.0898 31.9303C3.2798 32.4203 3.4098 32.6903 3.4098 32.6903H7.1398L10.9198 32.7203H11.9198L15.3798 32.7403H16.7998L18.8398 32.7503H20.2898C20.2898 32.7503 20.2898 32.7303 20.2898 32.7203V24.2803C20.2898 24.1403 20.1898 24.0303 20.0798 24.0303V24.0503Z" fill="#CBD2D9"/>
<path d="M23.7402 16.2196C23.7202 16.0296 23.6802 15.8796 23.6302 15.7496C23.5602 15.5796 23.4702 15.4496 23.3802 15.3496C23.3702 15.3296 23.3502 15.3196 23.3402 15.3096C23.3202 15.2896 23.2902 15.2596 23.2702 15.2396C23.1602 15.1496 23.0702 15.1196 23.0702 15.1196C23.0102 15.0996 22.9502 15.1496 22.8902 15.2496C22.8902 15.2496 22.8002 15.4496 22.7702 15.5896C22.7702 15.6196 22.7502 15.6496 22.7402 15.6896V15.7096C22.7402 15.7396 22.7302 15.7696 22.7202 15.7996C22.7202 15.8396 22.7002 15.8896 22.6902 15.9296C22.5102 16.7796 22.3602 18.0396 22.1502 18.4596C22.0602 18.6396 21.5702 19.0496 21.1902 19.3596C21.0602 19.4696 20.9302 19.5596 20.8402 19.6296C20.7302 19.6696 20.3802 19.8096 20.2102 19.7896C19.9902 19.7596 19.6702 20.1096 19.6702 20.1096C19.6702 20.1096 19.6402 20.2096 19.7802 20.2596C19.9202 20.3096 20.1402 20.5196 20.4302 20.3296C20.6402 20.1996 20.8602 20.0896 20.9702 20.0496C20.9802 20.0496 21.0002 20.0496 21.0002 20.0396C21.1302 19.9996 21.3002 19.9496 21.4902 19.8796C21.9302 19.7296 22.4502 19.5196 22.6302 19.3196C22.9202 19.0196 23.3402 18.1796 23.5702 17.3896C23.5702 17.3696 23.5802 17.3496 23.5902 17.3296C23.7102 16.9096 23.7802 16.4996 23.7402 16.1996V16.2196Z" fill="#FFB27D"/>
<path d="M24.4902 11.0298C24.4902 10.9798 24.6002 10.4098 25.3402 10.5098C25.3402 10.5098 24.9702 10.4998 24.8902 10.6798C24.8902 10.6798 25.1602 10.4898 25.3502 10.5998C25.5402 10.7098 25.6102 11.1498 25.5902 11.2798C25.5702 11.4198 25.4102 11.8398 25.2802 11.8598C25.2302 11.8598 25.1802 11.8598 25.1302 11.8298C25.1602 11.8998 25.1802 11.9698 25.2002 12.0598C25.4002 12.8298 25.0202 13.4698 24.7802 13.3498C24.6302 13.2698 24.5402 13.5898 24.5402 13.5898L23.1802 11.8398C23.1802 11.8398 23.9102 10.5398 24.4802 11.0398L24.4902 11.0298Z" fill="#1F2933"/>
<path d="M22.7202 32.1599L23.0502 32.3099C23.0502 32.3099 24.4802 29.9299 24.6602 27.8399C24.6902 27.4699 24.6802 27.1099 24.6102 26.7699C24.6102 26.7699 24.6202 26.6699 24.6502 26.5099C24.6602 26.4299 24.6802 26.3399 24.6902 26.2299C24.7402 25.9099 24.8002 25.4699 24.8702 24.9799C25.0402 23.8399 25.2602 22.3699 25.4302 21.2999L25.3402 21.2699L24.3802 20.8999L24.1802 20.1499L23.4602 19.9199C23.4602 19.9199 23.3002 20.2899 23.1602 22.0599C23.1302 22.2899 23.1102 22.5499 23.0902 22.8199C23.0302 23.6699 23.0302 24.7199 23.1602 25.9199C23.1902 26.2299 23.2302 26.5399 23.2902 26.8699C23.3302 27.1099 23.3302 27.4299 23.3202 27.8099C23.2502 29.5199 22.7202 32.1799 22.7202 32.1799V32.1599Z" fill="#2B478B"/>
<path d="M23.1001 22.8099L24.6601 26.5099C24.6701 26.4299 24.6901 26.3399 24.7001 26.2299C24.7501 25.9099 24.8101 25.4699 24.8801 24.9799C25.0501 23.8399 25.2701 22.3699 25.4401 21.2999L25.3501 21.2699L24.3901 20.8999L24.1901 20.1499L23.4701 19.9199C23.4701 19.9199 23.3101 20.2899 23.1701 22.0599C23.1401 22.2899 23.1201 22.5499 23.1001 22.8199V22.8099Z" fill="#233862"/>
<path d="M23.7803 20.3797L23.8203 20.0097C24.4203 20.1997 26.0303 19.4697 26.0303 19.4697C26.0303 19.4697 26.6103 20.0797 26.5403 21.5597C26.5003 22.2797 26.4303 25.3297 26.3603 26.2397C26.3303 26.5697 26.3103 26.7997 26.3003 26.8897C26.3003 26.9197 26.3003 26.9497 26.3203 26.9697C26.4303 27.1797 26.5103 27.4097 26.5803 27.6297C27.2803 29.8597 26.4703 32.6197 26.4703 32.6197L26.2603 32.5197C26.2603 32.5197 25.8003 29.4597 25.4303 28.1097C25.3703 27.8797 25.3103 27.6997 25.2503 27.5897C25.0903 27.2797 24.9403 26.7597 24.8003 26.1497C24.5403 24.9997 24.3303 23.4997 24.1903 22.3397C24.1703 22.3397 23.7803 20.3797 23.7803 20.3797Z" fill="#2B478B"/>
<path d="M23.2603 15.9002C23.4303 16.0402 23.6503 16.1502 23.9203 16.2102C24.9403 16.4602 25.3003 15.4202 25.4303 14.7102C25.2903 14.6202 25.1603 14.6002 25.0803 14.6002C25.0103 14.6002 24.9303 14.5902 24.8703 14.5902C24.7503 14.4902 24.5703 14.0702 24.5203 13.4102L24.4703 13.4302L23.6803 13.7202C23.6803 13.7202 23.7203 14.0202 23.7503 14.3102C23.7703 14.5302 23.7803 14.7502 23.7503 14.8002C23.6903 14.8202 23.6503 14.8302 23.6503 14.8302C23.6403 14.8502 23.4203 15.3102 23.2603 15.9102V15.9002Z" fill="#FFB27D"/>
<path d="M23.6899 13.7099C23.6899 13.7099 23.7299 14.0099 23.7599 14.2999C24.2099 14.2299 24.4099 13.7099 24.4799 13.4199L23.6899 13.7099Z" fill="#ED985F"/>
<path d="M23.56 14.0001C23.56 14.0001 24.63 13.8901 24.56 13.1001C24.49 12.3001 24.59 11.7501 23.9 11.7901C23.21 11.8201 23.11 12.1401 23.07 12.4201C23.04 12.6901 23.27 14.0201 23.55 14.0101L23.56 14.0001Z" fill="#FFB27D"/>
<path d="M25.9602 18.5398C25.9302 18.4798 25.9002 18.4298 25.8802 18.3698C25.8302 18.2198 25.8002 18.0598 25.8002 17.8898C25.8202 17.2398 25.9202 16.6398 25.9602 16.2698C25.9102 16.2098 25.8602 16.1498 25.8102 16.0998C25.7402 16.0198 25.6802 15.9398 25.6402 15.8698C25.5902 15.7898 25.5702 15.7098 25.5702 15.6298C25.5702 15.5698 25.5802 15.5098 25.6002 15.4398C25.6002 15.4098 25.6102 15.3798 25.6202 15.3498C25.7002 15.0498 25.8402 14.7798 25.8402 14.7798C25.5802 14.5998 25.0802 14.5898 25.0802 14.5898C25.0802 14.5898 25.0802 14.6198 25.0802 14.6798C25.0602 14.8898 24.9902 15.4398 24.9202 15.5398C24.8302 15.6598 23.4502 15.9998 23.4002 15.8098C23.3502 15.6298 23.6402 14.8498 23.6502 14.8198C23.2302 14.9398 23.0502 15.0698 23.0102 15.0898C22.9702 15.1098 22.9302 15.1798 22.8902 15.2498C22.8902 15.2498 22.8002 15.4498 22.7702 15.5898C22.7702 15.6198 22.7502 15.6498 22.7402 15.6898V15.7098C22.7402 15.7398 22.7302 15.7698 22.7202 15.7998C22.7802 15.8098 22.8802 15.8398 22.9602 15.8798C22.9002 16.1098 22.8602 16.3798 22.9102 16.6498C22.9102 16.6798 22.9202 16.6998 22.9302 16.7298C23.1102 17.4398 23.2502 20.2998 23.2502 20.2998C23.1202 20.7898 26.4002 20.7498 26.4602 20.2998C26.6302 19.8398 26.2102 18.9798 25.9702 18.5398H25.9602Z" fill="#FF9843"/>
<path d="M23.0702 11.9595C23.2202 11.6995 23.3402 11.7395 23.4202 11.7995C23.9702 11.3495 24.4002 11.8695 24.4002 11.8695C24.5202 12.4295 24.8902 12.7195 24.8902 12.7195C24.8902 12.7195 24.7102 12.8895 24.2502 12.7995C24.1102 12.7695 23.9802 12.6695 23.8602 12.5395C24.0702 12.8795 24.3402 13.1195 24.3402 13.1195C23.7802 12.8895 23.4902 12.0195 23.4602 11.9295C23.4002 12.0095 23.2802 12.1795 23.2602 12.3295C23.2202 12.5395 23.2302 12.9595 23.1302 12.9595C23.1302 12.9595 22.8602 12.3495 23.0702 11.9595Z" fill="#1F2933"/>
<path d="M24.2201 19.5194C24.8501 19.6194 25.4801 18.9294 25.8901 18.3594C25.8401 18.2094 25.8101 18.0494 25.8101 17.8794C25.8301 17.2294 25.9301 16.6294 25.9701 16.2594C25.9201 16.1994 25.8701 16.1394 25.8201 16.0894C25.7501 16.0094 25.6901 15.9294 25.6501 15.8594C25.0101 16.8194 23.3701 19.3794 24.2201 19.5194Z" fill="#ED7D2B"/>
<path d="M25.26 32.8202H26.92C26.92 32.8202 26.96 32.5202 26.87 32.2902C26.79 32.0702 26.66 31.9702 26.69 31.7002C26.58 31.8302 26.41 31.9802 26.17 31.9402C26.14 32.0002 25.98 32.3002 25.88 32.3902C25.77 32.4802 25.29 32.4502 25.25 32.8302L25.26 32.8202Z" fill="#233862"/>
<path d="M21.6902 32.82H23.3502C23.3502 32.82 23.4102 32.5 23.3002 32.29C23.2002 32.1 23.2402 31.99 23.3102 31.83C23.2302 31.87 23.1402 31.9 23.0302 31.89C22.9502 31.89 22.8602 31.84 22.7802 31.79C22.7102 31.89 22.4002 32.3 22.3102 32.38C22.2002 32.47 21.7202 32.44 21.6802 32.82H21.6902Z" fill="#233862"/>
<path d="M23.8104 13.54C23.8104 13.54 23.8004 13.65 23.5804 13.65C23.5804 13.65 23.4004 13.65 23.4004 13.54C23.4004 13.54 23.5704 13.45 23.8104 13.54Z" fill="white"/>
<path d="M21.7002 18.6103L21.2202 18.8803C21.1802 18.8103 21.0902 18.6903 20.9702 18.5803C20.7402 18.3703 20.5102 18.3103 20.3002 18.4203C20.0902 18.5303 19.9802 18.7803 20.0002 19.1503C20.0002 19.3003 20.0302 19.4303 20.0502 19.5303L19.7002 19.7203L20.0802 21.1403C20.1502 21.4103 20.4002 21.5403 20.6202 21.4203L21.8302 20.7503L21.7002 18.6203V18.6103ZM20.1402 19.4703C20.0802 19.2103 20.0202 18.6803 20.3402 18.5203C20.6902 18.3403 21.0202 18.7603 21.1302 18.9303L20.1402 19.4803V19.4703Z" fill="#99332B"/>
<path d="M22.5201 19.6804L21.7001 18.6104L19.8501 19.6304L20.6501 20.8804C20.7901 21.1004 21.0501 21.1804 21.2601 21.0604L22.3801 20.4404C22.6201 20.3104 22.6901 19.9304 22.5101 19.6904L22.5201 19.6804Z" fill="#C65447"/>
<path d="M21.7001 18.6102L21.3601 18.8002C21.3201 18.7302 21.2301 18.6102 21.1101 18.5002C20.8801 18.2902 20.6501 18.2302 20.4401 18.3402C20.2301 18.4502 20.1201 18.7002 20.1401 19.0702C20.1401 19.2202 20.1701 19.3502 20.1901 19.4502L19.8501 19.6402C19.8501 19.6402 20.7001 19.9002 21.2901 19.5402C21.8901 19.1802 21.6901 18.6302 21.6901 18.6302L21.7001 18.6102ZM20.2801 19.3902C20.2201 19.1302 20.1601 18.6002 20.4801 18.4402C20.8301 18.2602 21.1601 18.6802 21.2701 18.8502L20.2801 19.4002V19.3902Z" fill="#C4453B"/>
<path d="M27.0701 19.6997L26.8901 18.7597C26.8601 18.6097 26.7401 18.5197 26.6101 18.5497L25.3301 18.9097C25.2101 18.9397 25.1301 19.0897 25.1601 19.2397L25.3401 20.1797C25.3701 20.3297 25.4901 20.4197 25.6201 20.3897L26.9001 20.0297C27.0201 19.9997 27.1001 19.8497 27.0701 19.6997Z" fill="#1F2933"/>
<path d="M25.3501 19.1794C25.3501 19.1794 25.0601 18.4794 24.9001 17.5994C24.8101 17.0894 24.7801 16.6094 24.8201 16.1894C24.8701 15.6594 25.0201 15.2094 25.2701 14.8594C25.3701 14.7294 25.5101 14.6494 25.6501 14.6494C25.8001 14.6494 25.9301 14.7394 26.0201 14.8694C26.5201 15.6394 26.6201 17.3794 26.6201 18.7094H26.5601C26.5601 16.3294 26.2401 15.3294 25.9701 14.9194C25.8901 14.7994 25.7701 14.7294 25.6401 14.7194C25.5101 14.7194 25.3901 14.7794 25.3001 14.8994C24.9901 15.3294 24.6801 16.1394 24.9401 17.5794C25.0901 18.4394 25.3801 19.1294 25.3801 19.1394L25.3301 19.1694L25.3501 19.1794Z" fill="#233862"/>
<path d="M25.3101 15.4195C25.8001 15.3095 26.1401 15.7995 26.1401 15.7995C26.2001 14.9395 25.8501 14.7795 25.8501 14.7795C25.7101 14.6895 25.5201 14.9695 25.3201 15.4195H25.3101Z" fill="#FF9843"/>
<path d="M25.33 15.3594C25.33 15.3594 25.31 15.3894 25.31 15.4094C25.14 15.7794 24.96 16.2594 24.78 16.7394C24.68 16.9994 24.59 17.2694 24.5 17.5094C24.45 17.6594 24.39 17.7994 24.34 17.9194C24.24 18.1594 24.16 18.3594 24.09 18.4794C24.04 18.5594 23.92 18.6594 23.76 18.7794C23.48 18.9794 23.07 19.2194 22.72 19.4094C22.57 19.4894 22.44 19.5594 22.32 19.6194C22.23 19.6694 22.15 19.7094 22.1 19.7294C22.06 19.7294 21.98 19.7394 21.9 19.7594C21.86 19.7494 21.82 19.7294 21.78 19.7094C21.68 19.6394 21.34 19.7494 21.37 19.7994C21.4 19.8494 21.59 19.7894 21.61 19.8194C21.56 19.8394 21.5 19.8594 21.46 19.8894C21.22 20.0494 20.94 20.0394 21.05 20.2094C21.14 20.3494 21.37 20.5694 21.67 20.3994C21.88 20.2794 22.11 20.1994 22.22 20.1594H22.24C22.27 20.1594 22.31 20.1594 22.35 20.1494C22.4 20.1494 22.43 20.1394 22.43 20.1394C22.57 20.1194 22.74 20.0894 22.93 20.0694C23.25 20.0094 23.6 19.9394 23.91 19.8494C24.12 19.7894 24.31 19.7094 24.44 19.6294C24.45 19.6294 24.46 19.6094 24.48 19.5994C24.79 19.3794 25.19 18.6694 25.52 17.8994C25.57 17.7894 25.61 17.6894 25.65 17.5794C25.8 17.1894 25.93 16.8094 26.02 16.4794C26.07 16.2794 26.11 16.0994 26.13 15.9494C26.13 15.8994 26.14 15.8494 26.14 15.7994C26.14 15.7694 26.14 15.7494 26.14 15.7194C26.01 15.5894 25.73 15.3394 25.33 15.3694V15.3594Z" fill="#FFB27D"/>
<path d="M50.0102 21.4004L49.9502 24.6104H50.9402V21.4004H50.0102Z" fill="#659BDB"/>
<path d="M51.6702 21.4004H50.1802L50.2702 24.6104H51.8002L51.6702 21.4004Z" fill="#7CA8E8"/>
<g opacity="0.4">
<path d="M50.98 22.1203C50.77 22.1203 50.66 21.9703 50.61 21.8403C50.55 21.7003 50.54 21.5603 50.54 21.5503C50.54 21.5503 50.54 21.5303 50.55 21.5303C50.55 21.5303 50.56 21.5303 50.57 21.5503C50.57 21.5503 50.58 21.6903 50.64 21.8303C50.72 22.0103 50.84 22.0903 51.01 22.0903C51.12 22.0903 51.21 22.0403 51.26 21.9603C51.36 21.8103 51.32 21.5703 51.32 21.5703C51.32 21.5703 51.32 21.5503 51.33 21.5503C51.33 21.5503 51.35 21.5503 51.35 21.5603C51.35 21.5703 51.39 21.8203 51.28 21.9803C51.22 22.0703 51.13 22.1203 51.01 22.1303C51.01 22.1303 51 22.1303 50.99 22.1303L50.98 22.1203Z" fill="#DFE5F4"/>
</g>
<path d="M50.82 22.3604L50.73 24.6004H52.15V22.3604H50.82Z" fill="#8CB3ED"/>
<path d="M53.2003 22.3604H51.0703L51.2003 24.6104H53.3903L53.2003 22.3604Z" fill="#9FC1F4"/>
<path d="M52.21 23.05C52 23.05 51.89 22.9 51.84 22.77C51.78 22.63 51.77 22.49 51.77 22.48C51.77 22.48 51.77 22.46 51.78 22.46C51.78 22.46 51.79 22.46 51.8 22.48C51.8 22.48 51.81 22.62 51.87 22.76C51.95 22.94 52.07 23.02 52.24 23.02C52.35 23.02 52.44 22.97 52.49 22.89C52.59 22.74 52.55 22.5 52.55 22.5C52.55 22.5 52.55 22.48 52.56 22.48C52.56 22.48 52.58 22.48 52.58 22.49C52.58 22.5 52.62 22.75 52.51 22.91C52.45 23 52.36 23.05 52.24 23.06C52.24 23.06 52.23 23.06 52.22 23.06L52.21 23.05Z" fill="#7CA8E8"/>
<path d="M51.0702 22.3604H50.9702V24.6004H51.2002L51.0702 22.3604Z" fill="#7CA8E8"/>
<path d="M52.2802 23.6305C52.2802 23.6305 52.2602 23.5605 52.2302 23.5605C52.2002 23.5605 52.1802 23.5905 52.1802 23.6305C52.1802 23.6705 52.2002 23.7005 52.2302 23.7005C52.2602 23.7005 52.2802 23.6705 52.2802 23.6305ZM52.2102 23.6305C52.2102 23.6305 52.2102 23.6005 52.2302 23.6005C52.2502 23.6005 52.2502 23.6105 52.2502 23.6305C52.2502 23.6505 52.2502 23.6605 52.2302 23.6605C52.2102 23.6605 52.2102 23.6505 52.2102 23.6305Z" fill="#7CA8E8"/>
<path d="M52.3502 23.5703L52.2002 23.8203H52.2402L52.3902 23.5703H52.3502Z" fill="#7CA8E8"/>
<path d="M52.3605 23.7002C52.3605 23.7002 52.3105 23.7302 52.3105 23.7702C52.3105 23.8102 52.3305 23.8402 52.3605 23.8402C52.3905 23.8402 52.4105 23.8102 52.4105 23.7702C52.4105 23.7302 52.3905 23.7002 52.3605 23.7002ZM52.3605 23.8002C52.3605 23.8002 52.3405 23.7902 52.3405 23.7702C52.3405 23.7502 52.3405 23.7402 52.3605 23.7402C52.3805 23.7402 52.3805 23.7502 52.3805 23.7702C52.3805 23.7902 52.3805 23.8002 52.3605 23.8002Z" fill="#7CA8E8"/>
<path d="M52.7302 24.0107C52.7302 24.0107 52.6802 24.0407 52.6802 24.0807C52.6802 24.1207 52.7002 24.1507 52.7302 24.1507C52.7602 24.1507 52.7802 24.1207 52.7802 24.0807C52.7802 24.0407 52.7602 24.0107 52.7302 24.0107ZM52.7302 24.1107C52.7302 24.1107 52.7102 24.1007 52.7102 24.0807C52.7102 24.0607 52.7102 24.0507 52.7302 24.0507C52.7502 24.0507 52.7502 24.0607 52.7502 24.0807C52.7502 24.1007 52.7502 24.1107 52.7302 24.1107Z" fill="#7CA8E8"/>
<path d="M52.7303 23.8906L52.5703 24.1406H52.6103L52.7603 23.8906H52.7303Z" fill="#7CA8E8"/>
<path d="M52.6503 23.9509C52.6503 23.9509 52.6303 23.8809 52.6003 23.8809C52.5703 23.8809 52.5503 23.9109 52.5503 23.9509C52.5503 23.9909 52.5703 24.0209 52.6003 24.0209C52.6303 24.0209 52.6503 23.9909 52.6503 23.9509ZM52.5803 23.9509C52.5803 23.9509 52.5803 23.9209 52.6003 23.9209C52.6203 23.9209 52.6203 23.9309 52.6203 23.9509C52.6203 23.9709 52.6203 23.9809 52.6003 23.9809C52.5803 23.9809 52.5803 23.9709 52.5803 23.9509Z" fill="#7CA8E8"/>
<path d="M52.6103 23.4902L52.7603 23.2402H52.7303L52.5703 23.4902H52.6103Z" fill="#7CA8E8"/>
<path d="M52.6003 23.3705C52.6003 23.3705 52.6503 23.3405 52.6503 23.3005C52.6503 23.2605 52.6303 23.2305 52.6003 23.2305C52.5703 23.2305 52.5503 23.2605 52.5503 23.3005C52.5503 23.3405 52.5703 23.3705 52.6003 23.3705ZM52.6003 23.2705C52.6003 23.2705 52.6203 23.2805 52.6203 23.3005C52.6203 23.3205 52.6203 23.3305 52.6003 23.3305C52.5803 23.3305 52.5803 23.3205 52.5803 23.3005C52.5803 23.2805 52.5803 23.2705 52.6003 23.2705Z" fill="#7CA8E8"/>
<path d="M52.6802 23.4304C52.6802 23.4304 52.7002 23.5004 52.7302 23.5004C52.7602 23.5004 52.7802 23.4704 52.7802 23.4304C52.7802 23.3904 52.7602 23.3604 52.7302 23.3604C52.7002 23.3604 52.6802 23.3904 52.6802 23.4304ZM52.7502 23.4304C52.7502 23.4304 52.7502 23.4604 52.7302 23.4604C52.7102 23.4604 52.7102 23.4504 52.7102 23.4304C52.7102 23.4104 52.7102 23.4004 52.7302 23.4004C52.7502 23.4004 52.7502 23.4104 52.7502 23.4304Z" fill="#7CA8E8"/>
<path d="M51.9203 23.3005C51.9203 23.3005 51.9003 23.2305 51.8703 23.2305C51.8403 23.2305 51.8203 23.2605 51.8203 23.3005C51.8203 23.3405 51.8403 23.3705 51.8703 23.3705C51.9003 23.3705 51.9203 23.3405 51.9203 23.3005ZM51.8503 23.3005C51.8503 23.3005 51.8503 23.2705 51.8703 23.2705C51.8903 23.2705 51.8903 23.2805 51.8903 23.3005C51.8903 23.3205 51.8903 23.3305 51.8703 23.3305C51.8503 23.3305 51.8503 23.3205 51.8503 23.3005Z" fill="#7CA8E8"/>
<path d="M52.0303 23.2402H51.9903L51.8403 23.4902H51.8703L52.0303 23.2402Z" fill="#7CA8E8"/>
<path d="M51.9502 23.4304C51.9502 23.4304 51.9702 23.5004 52.0002 23.5004C52.0302 23.5004 52.0502 23.4704 52.0502 23.4304C52.0502 23.3904 52.0302 23.3604 52.0002 23.3604C51.9702 23.3604 51.9502 23.3904 51.9502 23.4304ZM52.0202 23.4304C52.0202 23.4304 52.0202 23.4604 52.0002 23.4604C51.9802 23.4604 51.9802 23.4504 51.9802 23.4304C51.9802 23.4104 51.9802 23.4004 52.0002 23.4004C52.0202 23.4004 52.0202 23.4104 52.0202 23.4304Z" fill="#7CA8E8"/>
<path d="M52.0301 23.8906L51.8701 24.1406H51.9101L52.0701 23.8906H52.0301Z" fill="#7CA8E8"/>
<path d="M51.9604 23.9509C51.9604 23.9509 51.9404 23.8809 51.9104 23.8809C51.8804 23.8809 51.8604 23.9109 51.8604 23.9509C51.8604 23.9909 51.8804 24.0209 51.9104 24.0209C51.9404 24.0209 51.9604 23.9909 51.9604 23.9509ZM51.8904 23.9509C51.8904 23.9509 51.8904 23.9209 51.9104 23.9209C51.9304 23.9209 51.9304 23.9309 51.9304 23.9509C51.9304 23.9709 51.9304 23.9809 51.9104 23.9809C51.8904 23.9809 51.8904 23.9709 51.8904 23.9509Z" fill="#7CA8E8"/>
<path d="M52.0402 24.0107C52.0402 24.0107 51.9902 24.0407 51.9902 24.0807C51.9902 24.1207 52.0102 24.1507 52.0402 24.1507C52.0702 24.1507 52.0902 24.1207 52.0902 24.0807C52.0902 24.0407 52.0702 24.0107 52.0402 24.0107ZM52.0402 24.1107C52.0402 24.1107 52.0202 24.1007 52.0202 24.0807C52.0202 24.0607 52.0202 24.0507 52.0402 24.0507C52.0602 24.0507 52.0602 24.0607 52.0602 24.0807C52.0602 24.1007 52.0602 24.1107 52.0402 24.1107Z" fill="#7CA8E8"/>
<path d="M55.0403 28.2803H51.0703V32.8203H55.0403V28.2803Z" fill="#9FC1F4"/>
<path d="M54.0603 28.2803H50.0903V32.8203H54.0603V28.2803Z" fill="#BDD8FF"/>
<path d="M52.8802 24.6006H49.6602V28.2806H52.8802V24.6006Z" fill="#9FC1F4"/>
<path d="M53.6702 24.6006H50.4502V28.2806H53.6702V24.6006Z" fill="#BDD8FF"/>
<path d="M53.6703 28.2803L50.0903 30.2703V28.2803H53.6703Z" fill="#AFCDFB"/>
<path d="M54.1003 27.7799L53.9603 26.3599H53.5903C53.5803 26.2699 53.5503 26.1399 53.5103 26.0099C53.4003 25.6799 53.2303 25.5099 53.0003 25.5199C52.7803 25.5199 52.6003 25.6899 52.4703 25.9899C52.4003 26.1399 52.3703 26.2899 52.3503 26.3699H51.8403L52.4503 28.2899H53.7303C53.9603 28.2899 54.1303 28.0499 54.1003 27.7899V27.7799ZM52.4403 26.3599C52.4803 26.1599 52.6303 25.6399 53.0003 25.6199C53.3303 25.6099 53.4503 26.1099 53.4903 26.3599H52.4403Z" fill="#7CA8E8"/>
<path d="M53.43 26.3502C53.42 26.2602 53.39 26.1302 53.35 26.0002C53.24 25.6702 53.07 25.5002 52.84 25.5102C52.62 25.5102 52.44 25.6802 52.31 25.9802C52.24 26.1302 52.21 26.2802 52.19 26.3602H51.83L51.48 27.6902C51.4 27.9802 51.59 28.2802 51.84 28.2802H53.03C53.26 28.2802 53.45 28.0902 53.5 27.8302L53.78 26.3602H53.42L53.43 26.3502ZM52.29 26.3502C52.33 26.1502 52.48 25.6302 52.85 25.6102C53.18 25.6002 53.3 26.1002 53.34 26.3502H52.29Z" fill="#9FC1F4"/>
<path d="M51.8403 26.3506C51.8403 26.3506 51.8503 26.9306 52.5003 26.9506C53.1403 26.9806 53.7903 26.3506 53.7903 26.3506H51.8403Z" fill="#89B2EF"/>
<path d="M42.6102 22.01C42.5702 21.96 42.2402 21.85 42.2402 21.85C42.2402 21.85 41.7202 20.58 41.3902 19.93C41.2802 19.71 41.2002 18.83 41.1202 18.36C41.1202 18.36 41.0702 17.94 40.9102 17.71C40.8002 17.55 40.2102 17.48 40.2102 17.48C40.1902 17.48 40.1702 17.48 40.1502 17.47C40.0902 17.46 40.0402 17.42 40.0302 17.35C40.0302 17.35 40.0302 17.35 40.0302 17.34C40.0302 17.25 40.0302 17.17 40.0302 17.09C40.0302 16.97 40.0302 16.87 40.0302 16.87L39.4102 16.75C39.4102 16.98 39.3902 17.15 39.3802 17.28C39.3802 17.38 39.3002 17.46 39.2202 17.46C39.2102 17.46 39.1902 17.46 39.1802 17.46C39.1802 17.46 38.7802 17.44 38.6302 17.5C38.4602 17.56 38.0702 18.06 38.0702 18.06C37.6102 18.6 37.1202 19.37 37.1502 19.51C37.1902 19.72 37.8402 20.89 38.0802 21.1H38.3202C38.3202 21.1 37.8002 19.67 37.7902 19.55C37.7902 19.45 38.2402 19.08 38.6202 18.76C38.6202 18.78 38.6202 18.81 38.6202 18.84C38.5902 18.95 38.4902 19.12 38.5702 19.4C38.7402 20.08 38.7302 20.17 38.7302 20.17C38.7302 20.17 38.7302 20.17 38.7402 20.17C38.7402 20.26 38.7602 20.35 38.7702 20.45C38.7702 20.45 38.7402 20.55 38.4502 20.9L39.3302 21.34L40.6602 21.39C40.6602 21.39 40.6002 21.18 40.5302 20.96C40.4702 20.76 40.4102 20.56 40.3902 20.51C40.3902 20.49 40.3902 20.42 40.3902 20.31C40.4002 20.31 40.5402 19.8 40.6402 19.46C40.6502 19.4 40.6602 19.36 40.6702 19.32C40.7502 19.77 40.8502 20.23 40.9602 20.46C41.1702 20.9 42.0902 22.04 42.0902 22.04C42.1302 22.14 42.3002 22.18 42.4302 22.34C42.4302 22.34 42.5502 22.49 42.7902 22.47C42.8402 22.47 42.7102 22.04 42.6602 21.99L42.6102 22.01Z" fill="#BDD8FF"/>
<path d="M39.4802 30.2605C39.4802 30.2605 39.6702 27.8905 39.4202 26.5805C39.4202 26.5805 39.3302 26.2505 39.5002 25.5905C39.7802 24.5105 39.7002 22.7305 39.6002 22.4805C39.5602 22.3905 39.4402 22.2805 39.2902 22.1605C38.8302 21.8205 38.0902 21.4805 38.0902 21.4805C38.0902 21.4805 37.5702 22.4705 37.5802 23.0905C37.5802 23.6805 38.4402 26.4505 38.4702 26.8805C38.5002 27.3105 38.5202 28.4405 39.0902 30.2505C39.0902 30.2505 39.0702 30.5505 39.0402 30.6105C39.0102 30.6705 38.8702 30.8805 38.7202 30.9505C38.5702 31.0205 38.1302 30.9805 38.0902 31.1705H39.6402C39.6402 31.1705 39.6602 30.8805 39.6002 30.7005C39.5402 30.5105 39.4702 30.2605 39.4702 30.2605H39.4802Z" fill="#BDD8FF"/>
<path d="M40.0302 17.3302C39.7702 17.2902 39.4102 16.7402 39.4102 16.7402L40.0302 16.8402C40.0302 16.8402 40.0302 16.8402 40.0302 16.8602C40.0302 16.9002 40.0302 16.9802 40.0302 17.0802C40.0302 17.1602 40.0302 17.2402 40.0302 17.3302Z" fill="#AFCDFB"/>
<path d="M40.22 16.8803C40.22 16.8803 39.49 17.1703 39.35 16.6303C39.21 16.0903 39.02 15.7603 39.47 15.5503C39.93 15.3403 40.07 15.5203 40.16 15.6803C40.25 15.8503 40.4 16.7903 40.22 16.8803Z" fill="#BDD8FF"/>
<path d="M39.5101 25.6007C38.5401 24.8707 37.8101 22.5907 37.8101 22.5907L39.3001 22.1807C39.4501 22.2907 39.5701 22.4007 39.6101 22.5007C39.7201 22.7507 39.6101 24.4807 39.5101 25.6107V25.6007Z" fill="#AFCDFB"/>
<path d="M41.8999 30.5899C41.8599 30.4799 41.6799 30.1999 41.6799 30.1999C41.2499 27.0499 40.6799 26.9999 40.6699 26.6299C40.6699 26.5099 40.7199 26.1199 40.7799 25.6399C40.9099 24.6599 41.0999 23.2799 41.0399 22.9099C41.0099 22.7399 40.9599 22.5399 40.8999 22.3399C40.7699 21.8799 40.6299 21.4199 40.6299 21.4199L38.9199 22.0599C38.9199 22.0599 39.4599 25.6799 39.5299 26.5899C39.5899 27.3199 41.2499 30.1999 41.2499 30.1999C41.2299 30.3699 41.3399 30.6599 41.3299 30.8099C41.3299 30.9599 41.3999 31.1899 41.3999 31.1899C41.3999 31.1899 42.1499 31.1899 42.1799 31.1899C42.2099 31.1899 41.9299 30.7099 41.8899 30.5999L41.8999 30.5899Z" fill="#BDD8FF"/>
<path d="M40.79 25.6398C40.47 24.8998 40 22.9998 40 22.9998C40 22.9998 40.53 22.6998 40.91 22.3398C40.96 22.5398 41.01 22.7398 41.05 22.9098C41.12 23.2798 40.93 24.6598 40.79 25.6398Z" fill="#AFCDFB"/>
<path d="M41.0501 22.9001C41.0501 22.9001 40.5401 22.9201 40.0301 23.0901C39.6901 23.2001 39.3501 23.3801 39.1601 23.6601C39.1601 23.6601 38.6701 23.0301 38.0901 22.8701C37.9301 22.8301 37.7701 22.8201 37.6001 22.8701C37.6001 22.8701 37.6101 22.2301 38.3001 21.1001C38.3501 21.0301 38.3901 20.9501 38.4501 20.8701C38.4501 20.8701 39.1101 21.3301 40.1901 21.0401C40.2901 21.0101 40.3901 20.9801 40.5001 20.9401C40.5001 20.9401 40.7501 21.6601 40.8301 21.9401C40.8901 22.1401 41.0401 22.8901 41.0401 22.8901L41.0501 22.9001Z" fill="#9FC1F4"/>
<path d="M38.3799 20.9707C38.3799 20.9707 38.8499 21.3907 39.3399 21.4107C39.8299 21.4307 40.4999 21.0307 40.4999 21.0307L38.3799 20.9707Z" fill="#89B0E8"/>
<path d="M38.0701 21.1104C38.0701 21.1104 37.8301 21.4704 37.8301 21.5304C37.8301 21.5904 37.8801 21.8704 37.9401 21.8704C38.0001 21.8704 38.0201 21.6504 38.0601 21.6104C38.1001 21.5704 38.2601 21.4904 38.2901 21.4204C38.3101 21.3504 38.3101 21.1204 38.3101 21.1204H38.0701V21.1104Z" fill="#BDD8FF"/>
<path d="M38.7903 17.4707C38.7903 17.4707 38.0603 17.5207 37.1503 18.2507C37.1503 18.2507 36.9203 18.3807 37.0303 18.6307C37.1403 18.8807 37.3903 19.0107 37.3903 19.0107C37.3903 19.0107 37.5003 19.5007 37.9203 19.5207C37.9203 19.5207 38.0503 19.6207 38.2503 19.5507C38.2503 19.5507 38.4703 19.2507 38.4803 19.2007C38.4803 19.2007 38.7503 20.4507 38.7103 20.4907C38.6703 20.5307 38.2803 20.7707 38.3103 20.8907C38.3503 21.0107 38.9903 21.3407 39.4703 21.3007C39.9503 21.2607 40.6503 21.1607 40.5603 20.9407C40.4703 20.7207 40.3603 20.4007 40.3803 20.3807C40.3903 20.3607 40.6303 19.5807 40.6303 19.5807C40.6303 19.5807 40.5103 20.3907 40.5703 20.4607C40.6303 20.5407 41.1503 20.4907 41.2803 20.2207C41.2803 20.2207 41.5303 20.1907 41.7003 19.9907C41.7003 19.9907 42.0403 19.8707 42.1203 19.6107C42.1203 19.6107 41.2803 17.5007 40.6403 17.4807C40.0003 17.4607 39.9203 17.6807 39.6203 17.6607C39.3203 17.6407 39.0803 17.4307 38.8003 17.4807L38.7903 17.4707Z" fill="#9FC1F4"/>
<path d="M37.27 28.251H34.71V31.181H37.27V28.251Z" fill="#9FC1F4"/>
<path d="M36.6498 28.251H34.0898V31.181H36.6498V28.251Z" fill="#BDD8FF"/>
<path d="M35.8801 21.6406H33.8101V28.2506H35.8801V21.6406Z" fill="#9FC1F4"/>
<path d="M36.3898 21.6406H34.3198V28.2506H36.3898V21.6406Z" fill="#BDD8FF"/>
<path d="M36.3898 28.251L34.0898 29.541V28.251H36.3898Z" fill="#AFCDFB"/>
<path d="M35.3999 20.1703C35.3899 20.1103 35.3599 20.0003 35.3099 19.8803C35.2099 19.6503 35.0699 19.5303 34.9099 19.5303C34.7399 19.5303 34.6099 19.6503 34.5199 19.9003C34.4899 20.0003 34.4699 20.1003 34.4599 20.1703H34.1799L34.0699 21.2503C34.0499 21.4503 34.1799 21.6303 34.3499 21.6303H35.3299L35.7899 20.1703H35.3999ZM34.5299 20.1703C34.5599 19.9803 34.6499 19.6003 34.9099 19.6103C35.1899 19.6203 35.2999 20.0203 35.3299 20.1703H34.5299Z" fill="#77A4E5"/>
<path d="M36.0598 21.1803L35.7898 20.1703H35.5198C35.5098 20.1103 35.4798 20.0003 35.4298 19.8803C35.3298 19.6503 35.1898 19.5303 35.0298 19.5303C34.8598 19.5303 34.7298 19.6503 34.6398 19.9003C34.6098 20.0003 34.5898 20.1003 34.5798 20.1703H34.2998L34.5098 21.2903C34.5498 21.4903 34.6998 21.6303 34.8698 21.6303H35.7698C35.9698 21.6303 36.1098 21.4003 36.0498 21.1803H36.0598ZM34.6498 20.1703C34.6798 19.9803 34.7698 19.6003 35.0298 19.6103C35.3098 19.6203 35.4198 20.0203 35.4498 20.1703H34.6498Z" fill="#9FC1F4"/>
<path d="M36.27 26.7904C36.26 26.7304 36.23 26.6204 36.18 26.5004C36.08 26.2704 35.94 26.1504 35.78 26.1504C35.61 26.1504 35.48 26.2704 35.39 26.5204C35.36 26.6204 35.34 26.7204 35.33 26.7904H35.05L34.94 27.8704C34.92 28.0704 35.05 28.2504 35.22 28.2504H36.2L36.66 26.7904H36.27ZM35.4 26.7904C35.43 26.6004 35.52 26.2204 35.78 26.2304C36.06 26.2404 36.17 26.6404 36.2 26.7904H35.4Z" fill="#77A4E5"/>
<path d="M36.9202 27.8004L36.6502 26.7904H36.3802C36.3702 26.7304 36.3402 26.6204 36.2902 26.5004C36.1902 26.2704 36.0502 26.1504 35.8902 26.1504C35.7202 26.1504 35.5902 26.2704 35.5002 26.5204C35.4702 26.6204 35.4502 26.7204 35.4402 26.7904H35.1602L35.3702 27.9104C35.4102 28.1104 35.5602 28.2504 35.7302 28.2504H36.6302C36.8302 28.2504 36.9702 28.0204 36.9102 27.8004H36.9202ZM35.5102 26.7904C35.5402 26.6004 35.6302 26.2204 35.8902 26.2304C36.1702 26.2404 36.2802 26.6404 36.3102 26.7904H35.5102Z" fill="#9FC1F4"/>
<path d="M34.0699 26.71C34.0699 26.71 33.4099 27.29 33.2799 27.26C33.1499 27.22 33.7599 26.63 33.7599 26.63C33.5299 26.5 32.8199 26.58 32.8199 26.58C32.8199 26.58 32.5799 27.5 32.4699 27.42C32.3499 27.35 32.7099 26.62 32.7099 26.62C32.4499 26.6 32.1399 26.83 32.1399 26.83C31.7099 27.23 32.1699 27.87 32.1699 27.87C32.1699 27.87 32.0799 28.19 31.8099 28.47C31.8099 28.47 31.4199 28.81 31.3999 29.42H31.4699C31.4699 29.42 31.5799 28.85 31.7899 28.59C31.7899 28.59 31.8099 28.57 31.8199 28.55C31.8499 28.51 31.8799 28.49 31.8899 28.47C31.9899 28.35 32.1299 28.21 32.1999 28.19C32.1999 28.19 32.1999 28.18 32.1999 28.15C32.1999 28.16 32.1999 28.18 32.1999 28.19C32.2199 28.51 32.7499 28.79 33.0699 28.85C33.3899 28.91 33.2899 28.75 33.1799 28.52C33.0699 28.29 32.7199 28.18 32.6399 28.07C32.5599 27.96 32.7299 27.96 32.9199 28.07C33.1099 28.18 33.1399 28.46 33.4499 28.64C33.7599 28.82 34.2299 28.2 34.2299 28.2C33.9799 28.18 33.6299 27.86 33.6399 27.77C33.6499 27.67 34.2399 27.94 34.3399 27.95C34.4399 27.96 34.6699 27.81 34.6999 27.33C34.7399 26.85 34.0699 26.71 34.0699 26.71Z" fill="#77A4E5"/>
<path d="M30.5798 27.08C30.5798 27.08 31.3098 26.59 30.9698 25.93C30.9698 25.93 30.6998 25.52 30.4098 25.42C30.4098 25.42 30.5698 26.4 30.4098 26.43C30.2498 26.45 30.2998 25.32 30.2998 25.32C30.2998 25.32 29.5298 24.88 29.2298 24.91C29.2298 24.91 29.6998 25.87 29.5498 25.85C29.3898 25.83 28.8598 24.85 28.8598 24.85C28.8598 24.85 28.0798 24.68 27.9498 25.23C27.8198 25.79 28.0298 26.06 28.1398 26.1C28.2598 26.13 28.9998 26.12 28.9798 26.24C28.9598 26.36 28.4598 26.54 28.1798 26.44C28.1798 26.44 28.4898 27.36 28.8998 27.31C29.3098 27.26 29.4298 26.96 29.6798 26.94C29.9298 26.92 30.1198 27 29.9898 27.08C29.8598 27.16 29.4398 27.11 29.2298 27.31C29.0298 27.52 28.8598 27.64 29.2298 27.74C29.6098 27.83 30.2898 27.77 30.4198 27.43C30.4198 27.41 30.4298 27.4 30.4398 27.39C30.4398 27.42 30.4198 27.43 30.4198 27.43C30.4898 27.48 30.5898 27.71 30.6698 27.89C30.6798 27.92 30.6998 27.96 30.7198 28.02C30.7198 28.04 30.7398 28.06 30.7398 28.08C30.8798 28.48 30.7998 29.17 30.7998 29.17L30.8798 29.2C31.0598 28.51 30.7498 27.94 30.7498 27.94C30.5498 27.49 30.5598 27.09 30.5598 27.09L30.5798 27.08Z" fill="#77A4E5"/>
<path d="M35.1899 23.9807C35.0199 23.2507 33.9899 23.4807 33.9899 23.4807C33.9899 23.4807 33.2899 24.7607 33.0799 24.7907C32.8799 24.8207 33.4999 23.5507 33.4999 23.5507C33.0999 23.5007 32.0899 24.0807 32.0899 24.0807C32.0899 24.0807 32.1499 25.5807 31.9499 25.5507C31.7499 25.5207 31.9499 24.2207 31.9499 24.2207C31.5699 24.3607 31.2099 24.8907 31.2099 24.8907C30.7599 25.7607 31.7199 26.4007 31.7199 26.4007C31.7199 26.4007 31.7299 26.9207 31.4599 27.5107C31.4599 27.5107 31.0499 28.2607 31.2799 29.1807L31.3899 29.1507C31.3899 29.1507 31.2999 28.2407 31.4699 27.7207C31.4699 27.7007 31.4899 27.6707 31.4999 27.6407C31.5299 27.5707 31.5499 27.5107 31.5699 27.4707C31.6699 27.2407 31.7999 26.9307 31.8999 26.8707C31.8999 26.8707 31.8899 26.8507 31.8799 26.8107C31.8799 26.8307 31.8899 26.8507 31.8999 26.8707C32.0799 27.3307 32.9699 27.4007 33.4699 27.2807C33.9699 27.1607 33.7499 26.9907 33.4799 26.7207C33.2099 26.4507 32.6499 26.5207 32.4799 26.4107C32.3099 26.3007 32.5599 26.2007 32.8899 26.2307C33.2199 26.2607 33.3899 26.6607 33.9199 26.7207C34.4599 26.7807 34.8699 25.5707 34.8699 25.5707C34.4999 25.7107 33.8399 25.4607 33.8099 25.3107C33.7799 25.1607 34.7699 25.1707 34.9199 25.1307C35.0699 25.0807 35.3399 24.7207 35.1799 23.9807H35.1899Z" fill="#9FC1F4"/>
<path d="M33.5796 28.9407C33.5796 30.0407 32.9196 30.9507 32.0496 31.1407C31.9696 31.1607 31.8996 31.1707 31.8196 31.1707C31.7796 31.1707 31.7396 31.1707 31.7096 31.1707C30.6696 31.1707 29.8296 30.1707 29.8296 28.9307H33.5796V28.9407Z" fill="#9FC1F4"/>
<path d="M32.0496 31.1407C31.9696 31.1607 31.8996 31.1707 31.8196 31.1707C30.8396 31.1007 30.0596 30.1207 30.0596 28.9307H30.5296C30.5296 30.0307 31.1896 30.9407 32.0596 31.1307L32.0496 31.1407Z" fill="#AFCDFB"/>
<path d="M33.6198 28.9199H29.7598V28.9899H33.6198V28.9199Z" fill="#9FC1F4"/>
<path d="M18.6703 23.6902C18.6703 23.6902 18.3203 23.5302 18.1303 23.4902C17.9403 23.4502 17.8203 22.2602 17.8003 22.1002C17.7803 21.9502 17.5503 21.7002 17.5503 21.7002L17.6903 23.5202L18.0103 23.9802H18.5903L18.6703 23.6902Z" fill="#7C1818"/>
<path d="M18.8502 24.0497H17.7402C17.6502 23.8797 17.5302 23.1297 17.4302 22.9797C17.4302 22.9797 17.4202 22.9597 17.4102 22.9497V24.0597H17.3002C17.3002 23.8997 17.2902 23.0297 17.2302 22.5497C17.1702 22.3897 17.1302 22.2297 17.1402 22.1597C17.1802 22.0197 17.5302 21.7197 17.5302 21.7197C17.5302 21.7797 17.7902 23.5997 17.9302 23.6597C18.2902 23.7897 18.6502 23.7097 18.6502 23.7097C18.6502 23.7097 18.9102 23.8897 18.8402 24.0697L18.8502 24.0497Z" fill="#AA413E"/>
<path d="M18.0101 23.6902C18.0101 23.6902 17.6601 23.5302 17.4701 23.4902C17.2801 23.4502 17.1601 22.2602 17.1401 22.1002C17.1201 21.9502 16.8901 21.7002 16.8901 21.7002L17.0301 23.5202L17.3501 23.9802H17.9301L18.0101 23.6902Z" fill="#7C1818"/>
<path d="M18.19 24.0497H17.08C16.99 23.8797 16.87 23.1297 16.77 22.9797C16.77 22.9797 16.76 22.9597 16.75 22.9497V24.0597H16.64C16.64 23.8997 16.63 23.0297 16.57 22.5497C16.51 22.3897 16.47 22.2297 16.48 22.1597C16.52 22.0197 16.87 21.7197 16.87 21.7197C16.87 21.7797 17.13 23.5997 17.27 23.6597C17.63 23.7897 17.99 23.7097 17.99 23.7097C17.99 23.7097 18.25 23.8897 18.18 24.0697L18.19 24.0497Z" fill="#AA413E"/>
<path d="M11.1497 24.14C11.1497 24.14 10.7097 24.16 10.7997 23.76C10.8497 23.55 11.0497 23.54 11.3397 23.54H15.9197C15.9197 23.54 16.1597 23.64 16.1597 23.84C16.1597 24.04 16.0597 24.09 15.9897 24.14C15.9097 24.19 11.1597 24.14 11.1597 24.14H11.1497Z" fill="#74ACBE"/>
<path d="M11.1497 23.6C11.1497 23.6 10.7097 23.62 10.7997 23.22C10.8497 23.01 11.0497 23 11.3397 23H15.9197C15.9197 23 16.1597 23.1 16.1597 23.3C16.1597 23.5 16.0597 23.55 15.9897 23.6C15.9097 23.65 11.1597 23.6 11.1597 23.6H11.1497Z" fill="#5E97A5"/>
<path d="M11.1497 22.9701C11.1497 22.9701 10.7097 22.9901 10.7997 22.5901C10.8497 22.3801 11.0497 22.3701 11.3397 22.3701H15.9197C15.9197 22.3701 16.1597 22.4701 16.1597 22.6701C16.1597 22.8701 16.0597 22.9201 15.9897 22.9701C15.9097 23.0201 11.1597 22.9701 11.1597 22.9701H11.1497Z" fill="#74ACBE"/>
<path d="M41.6798 10.4502H37.4298C37.3698 10.4502 37.3198 10.5102 37.3198 10.5902V11.9802C37.3198 12.0502 37.3698 12.1202 37.4298 12.1202H41.6798C41.7398 12.1202 41.7898 12.0602 41.7898 11.9802V10.5902C41.7898 10.5202 41.7398 10.4502 41.6798 10.4502Z" fill="#9AA5B1"/>
<path d="M38.5298 10.9805H38.6498L38.9298 11.4105V10.9805H39.0598V11.6905H38.9498L38.6598 11.2405V11.6905H38.5298V10.9805Z" fill="#CBD2D9"/>
<path d="M39.1997 10.9805H39.6497V11.1205H39.3297V11.2605H39.6097V11.4005H39.3297V11.5505H39.6497V11.6905H39.1997V10.9805Z" fill="#CBD2D9"/>
<path d="M39.7197 10.9805H39.8597L39.9797 11.4605L40.1097 10.9805H40.2197L40.3497 11.4605L40.4697 10.9805H40.6097L40.4097 11.6905H40.2997L40.1697 11.2305L40.0397 11.6905H39.9297L39.7297 10.9805H39.7197Z" fill="#CBD2D9"/>
<path d="M42.8798 12.6299H36.2298C36.1498 12.6299 36.0898 12.7099 36.0898 12.7999V14.1199C36.0898 14.2099 36.1498 14.2899 36.2298 14.2899H42.8798C42.9598 14.2899 43.0198 14.2099 43.0198 14.1199V12.7999C43.0198 12.7099 42.9598 12.6299 42.8798 12.6299Z" fill="#9AA5B1"/>
<path d="M36.71 13.5094C36.71 13.3094 36.84 13.1494 37.02 13.1494C37.13 13.1494 37.19 13.1994 37.25 13.2594L37.17 13.3694C37.17 13.3694 37.09 13.2894 37.02 13.2894C36.92 13.2894 36.85 13.3894 36.85 13.5094C36.85 13.6294 36.92 13.7294 37.02 13.7294C37.09 13.7294 37.13 13.6994 37.18 13.6494L37.26 13.7594C37.2 13.8394 37.13 13.8794 37.02 13.8794C36.85 13.8794 36.72 13.7194 36.72 13.5194L36.71 13.5094Z" fill="#CBD2D9"/>
<path d="M37.3198 13.5094C37.3198 13.3094 37.4498 13.1494 37.6298 13.1494C37.8098 13.1494 37.9398 13.3094 37.9398 13.5094C37.9398 13.7094 37.8098 13.8694 37.6298 13.8694C37.4498 13.8694 37.3198 13.7094 37.3198 13.5094ZM37.8098 13.5094C37.8098 13.3894 37.7398 13.2894 37.6298 13.2894C37.5198 13.2894 37.4498 13.3894 37.4498 13.5094C37.4498 13.6294 37.5198 13.7294 37.6298 13.7294C37.7398 13.7294 37.8098 13.6294 37.8098 13.5094Z" fill="#CBD2D9"/>
<path d="M38.0601 13.1594H38.1901V13.7194H38.4801V13.8594H38.0601V13.1494V13.1594Z" fill="#CBD2D9"/>
<path d="M38.5801 13.1594H38.7101V13.7194H39.0001V13.8594H38.5801V13.1494V13.1594Z" fill="#CBD2D9"/>
<path d="M39.1099 13.1592H39.5599V13.2992H39.2399V13.4392H39.5199V13.5792H39.2399V13.7292H39.5599V13.8692H39.1099V13.1592Z" fill="#CBD2D9"/>
<path d="M39.6401 13.5094C39.6401 13.3094 39.7701 13.1494 39.9501 13.1494C40.0601 13.1494 40.1201 13.1994 40.1801 13.2594L40.1001 13.3694C40.1001 13.3694 40.0201 13.2894 39.9501 13.2894C39.8501 13.2894 39.7801 13.3894 39.7801 13.5094C39.7801 13.6294 39.8501 13.7294 39.9501 13.7294C40.0201 13.7294 40.0601 13.6994 40.1101 13.6494L40.1901 13.7594C40.1301 13.8394 40.0601 13.8794 39.9501 13.8794C39.7801 13.8794 39.6501 13.7194 39.6501 13.5194L39.6401 13.5094Z" fill="#CBD2D9"/>
<path d="M40.43 13.2992H40.25V13.1592H40.74V13.2992H40.56V13.8592H40.43V13.2992Z" fill="#CBD2D9"/>
<path d="M40.8501 13.1592H40.9801V13.8692H40.8501V13.1592Z" fill="#CBD2D9"/>
<path d="M41.1001 13.5094C41.1001 13.3094 41.2301 13.1494 41.4101 13.1494C41.5901 13.1494 41.7201 13.3094 41.7201 13.5094C41.7201 13.7094 41.5901 13.8694 41.4101 13.8694C41.2301 13.8694 41.1001 13.7094 41.1001 13.5094ZM41.5901 13.5094C41.5901 13.3894 41.5201 13.2894 41.4101 13.2894C41.3001 13.2894 41.2301 13.3894 41.2301 13.5094C41.2301 13.6294 41.3001 13.7294 41.4101 13.7294C41.5201 13.7294 41.5901 13.6294 41.5901 13.5094Z" fill="#CBD2D9"/>
<path d="M41.8398 13.1592H41.9598L42.2398 13.5892V13.1592H42.3698V13.8692H42.2598L41.9698 13.4192V13.8692H41.8398V13.1592Z" fill="#CBD2D9"/>
<path d="M20.21 14.6104H15.15C15.08 14.6104 15.02 14.6804 15.02 14.7704V16.4304C15.02 16.5204 15.08 16.5904 15.15 16.5904H20.21C20.28 16.5904 20.34 16.5204 20.34 16.4304V14.7704C20.34 14.6804 20.28 14.6104 20.21 14.6104Z" fill="#9AA5B1"/>
<path d="M16.3599 15.9507L16.4499 15.8207C16.5099 15.8807 16.5799 15.9207 16.6599 15.9207C16.7199 15.9207 16.7599 15.8907 16.7599 15.8407C16.7599 15.7907 16.7399 15.7707 16.6199 15.7307C16.4799 15.6907 16.3899 15.6407 16.3899 15.4707C16.3899 15.3207 16.4899 15.2207 16.6399 15.2207C16.7399 15.2207 16.8299 15.2607 16.8999 15.3307L16.8199 15.4707C16.7599 15.4207 16.6999 15.3907 16.6399 15.3907C16.5799 15.3907 16.5499 15.4207 16.5499 15.4707C16.5499 15.5307 16.5799 15.5407 16.6999 15.5807C16.8399 15.6207 16.9199 15.6907 16.9199 15.8307C16.9199 16.0007 16.8099 16.0907 16.6599 16.0907C16.5499 16.0907 16.4499 16.0507 16.3599 15.9607V15.9507Z" fill="#CBD2D9"/>
<path d="M17.2697 15.2305H17.4097L17.7097 16.0805H17.5497L17.4897 15.8905H17.1897L17.1297 16.0805H16.9697L17.2697 15.2305ZM17.4297 15.7205L17.3397 15.4505L17.2497 15.7205H17.4397H17.4297Z" fill="#CBD2D9"/>
<path d="M17.8201 15.2402H17.9701V15.9102H18.3201V16.0802H17.8101V15.2402H17.8201Z" fill="#CBD2D9"/>
<path d="M18.4499 15.2405H18.9799V15.4005H18.5999V15.5705H18.9299V15.7305H18.5999V15.9105H18.9799V16.0705H18.4399V15.2305L18.4499 15.2405Z" fill="#CBD2D9"/>
<path d="M9.36977 24.0503H1.50977C1.50977 24.2003 1.50977 24.3403 1.51977 24.4903C1.51977 24.6303 1.52977 24.7703 1.53977 24.9103C1.58977 25.7103 1.67977 26.4703 1.79977 27.1903C1.79977 27.2303 1.80977 27.2603 1.81977 27.3003V27.3203C1.83977 27.4203 1.85977 27.5203 1.87977 27.6203C1.90977 27.8003 1.94977 27.9703 1.97977 28.1403C1.97977 28.1703 1.98977 28.2003 1.99977 28.2303C2.08977 28.6803 2.19977 29.1003 2.29977 29.4903C2.31977 29.5603 2.33977 29.6203 2.34977 29.6803C2.39977 29.8503 2.44977 30.0203 2.48977 30.1803C2.51977 30.2903 2.55977 30.4103 2.58977 30.5103C2.76977 31.0903 2.94977 31.5703 3.08977 31.9303C3.27977 32.4203 3.40977 32.6903 3.40977 32.6903H7.13977L9.55977 32.7103V24.3103C9.55977 24.1503 9.46977 24.0303 9.35977 24.0303L9.36977 24.0503Z" fill="#9AA5B1"/>
<path d="M20.2601 28.6699H2.37008C2.37008 28.6699 2.33008 28.6899 2.33008 28.7099V28.8999C2.33008 28.8999 2.35008 28.9399 2.37008 28.9399H20.2601C20.2601 28.9399 20.3001 28.9199 20.3001 28.8999V28.7099C20.3001 28.7099 20.2801 28.6699 20.2601 28.6699Z" fill="#9AA5B1"/>
<path d="M10.69 26.0801L10.5 27.9901C10.46 28.3501 10.7 28.6701 11 28.6701H12.73L13.55 26.0801H10.7H10.69Z" fill="#99332B"/>
<path d="M11.2902 26.2698C11.2902 26.2698 11.3802 25.0598 11.9802 25.0898C12.5902 25.1098 12.7502 26.1698 12.7502 26.1798L12.8702 26.1598C12.8702 26.1598 12.8302 25.8598 12.7002 25.5698C12.5302 25.1698 12.2802 24.9498 11.9902 24.9398C11.6902 24.9298 11.4502 25.1598 11.3102 25.5998C11.2002 25.9198 11.1802 26.2398 11.1802 26.2598H11.3002L11.2902 26.2698Z" fill="#99332B"/>
<path d="M13.5402 26.0801H10.9102L11.2902 28.0601C11.3602 28.4101 11.6202 28.6701 11.9302 28.6701H13.5302C13.8802 28.6701 14.1202 28.2701 14.0202 27.8701L13.5502 26.0801H13.5402Z" fill="#C65447"/>
<path d="M13.5402 26.0801C13.5402 26.0801 13.5202 26.8601 12.6502 26.8901C11.7802 26.9301 10.9102 26.0801 10.9102 26.0801H13.5402Z" fill="#C4453B"/>
<path d="M11.5001 26.2698C11.5001 26.2698 11.5901 25.0598 12.1901 25.0898C12.8001 25.1098 12.9601 26.1698 12.9601 26.1798L13.0801 26.1598C13.0801 26.1598 13.0401 25.8598 12.9101 25.5698C12.7401 25.1698 12.4901 24.9498 12.2001 24.9398C11.9001 24.9298 11.6601 25.1598 11.5201 25.5998C11.4101 25.9198 11.3901 26.2398 11.3901 26.2598H11.5101L11.5001 26.2698Z" fill="#C4453B"/>
<path d="M12.1301 19.5498L11.9201 21.6398C11.8801 22.0298 12.1401 22.3798 12.4701 22.3798H14.3501L15.2401 19.5598H12.1301V19.5498Z" fill="#D86713"/>
<path d="M14.3202 18.9996C14.1302 18.5696 13.8602 18.3296 13.5402 18.3196C13.2102 18.3096 12.9602 18.5596 12.8002 19.0396C12.6802 19.3896 12.6602 19.7396 12.6602 19.7496H12.7902C12.7902 19.7496 12.8902 18.4496 13.5402 18.4696C14.2002 18.4896 14.3702 19.6496 14.3802 19.6596L14.5102 19.6296C14.5102 19.6296 14.4602 19.3096 14.3302 18.9896L14.3202 18.9996Z" fill="#99332B"/>
<path d="M15.7599 21.4998L15.2399 19.5498H12.3799L12.7899 21.7098C12.8599 22.0998 13.1499 22.3698 13.4799 22.3698H15.2199C15.5999 22.3698 15.8699 21.9298 15.7499 21.4998H15.7599Z" fill="#EE9849"/>
<path d="M12.3701 19.5498C12.3701 19.5498 13.3201 20.4798 14.2701 20.4398C15.2101 20.3998 15.2401 19.5498 15.2401 19.5498H12.3801H12.3701Z" fill="#C4453B"/>
<path d="M14.5501 18.9996C14.3601 18.5696 14.0901 18.3296 13.7701 18.3196C13.4401 18.3096 13.1901 18.5596 13.0301 19.0396C12.9101 19.3896 12.8901 19.7396 12.8901 19.7496H13.0201C13.0201 19.7496 13.1201 18.4496 13.7701 18.4696C14.4301 18.4896 14.6001 19.6496 14.6101 19.6596L14.7401 19.6296C14.7401 19.6296 14.6901 19.3096 14.5601 18.9896L14.5501 18.9996Z" fill="#C4453B"/>
<path d="M15.7701 26.0693L15.5801 27.9793C15.5401 28.3393 15.7801 28.6593 16.0801 28.6593H17.8101L18.6301 26.0693H15.7801H15.7701Z" fill="#5E97A5"/>
<path d="M16.3703 26.2698C16.3703 26.2698 16.4603 25.0598 17.0603 25.0898C17.6703 25.1098 17.8303 26.1698 17.8303 26.1798L17.9503 26.1598C17.9503 26.1598 17.9103 25.8598 17.7803 25.5698C17.6103 25.1698 17.3603 24.9498 17.0703 24.9398C16.7703 24.9298 16.5303 25.1598 16.3903 25.5998C16.2803 25.9198 16.2603 26.2398 16.2603 26.2598H16.3803L16.3703 26.2698Z" fill="#5E97A5"/>
<path d="M18.6202 26.0693H15.9902L16.3702 28.0493C16.4402 28.3993 16.7002 28.6593 17.0102 28.6593H18.6102C18.9602 28.6593 19.2002 28.2593 19.1002 27.8593L18.6302 26.0693H18.6202Z" fill="#74ACBE"/>
<path d="M16.5802 26.2698C16.5802 26.2698 16.6702 25.0598 17.2702 25.0898C17.8802 25.1098 18.0402 26.1698 18.0402 26.1798L18.1602 26.1598C18.1602 26.1598 18.1202 25.8598 17.9902 25.5698C17.8202 25.1698 17.5702 24.9498 17.2802 24.9398C16.9802 24.9298 16.7402 25.1598 16.6002 25.5998C16.4902 25.9198 16.4702 26.2398 16.4702 26.2598H16.5902L16.5802 26.2698Z" fill="#74ACBE"/>
<path d="M16.69 32.58C16.69 32.58 16.79 32.47 16.74 32.37C16.69 32.27 16.61 32.25 16.46 32.25H14.08C14.08 32.25 13.96 32.31 13.96 32.42C13.96 32.53 14.01 32.56 14.05 32.59C14.09 32.62 16.7 32.59 16.7 32.59L16.69 32.58Z" fill="#99332B"/>
<path d="M16.56 32.2394C16.56 32.2394 16.79 32.2494 16.74 32.0194C16.72 31.8994 16.61 31.8994 16.46 31.8994H14.08C14.08 31.8994 13.96 31.9494 13.96 32.0694C13.96 32.1894 14.01 32.2094 14.05 32.2394C14.09 32.2694 16.56 32.2394 16.56 32.2394Z" fill="#99332B"/>
<path d="M16.56 31.8996C16.56 31.8996 16.79 31.9096 16.74 31.6796C16.72 31.5596 16.61 31.5596 16.46 31.5596H14.08C14.08 31.5596 13.96 31.6096 13.96 31.7296C13.96 31.8496 14.01 31.8696 14.05 31.8996C14.09 31.9296 16.56 31.8996 16.56 31.8996Z" fill="#99332B"/>
<path d="M16.4101 31.55C16.4101 31.55 16.6401 31.56 16.5901 31.33C16.5701 31.21 16.4601 31.21 16.3101 31.21H13.9301C13.9301 31.21 13.8101 31.27 13.8101 31.38C13.8101 31.49 13.8601 31.52 13.9001 31.55C13.9401 31.58 16.4101 31.55 16.4101 31.55Z" fill="#99332B"/>
<path d="M16.56 31.2101C16.56 31.2101 16.79 31.2201 16.74 30.9901C16.72 30.8701 16.61 30.8701 16.46 30.8701H14.08C14.08 30.8701 13.96 30.9201 13.96 31.0401C13.96 31.1601 14.01 31.1801 14.05 31.2101C14.09 31.2401 16.56 31.2101 16.56 31.2101Z" fill="#99332B"/>
<path d="M16.56 30.8703C16.56 30.8703 16.79 30.8803 16.74 30.6503C16.72 30.5303 16.61 30.5303 16.46 30.5303H14.08C14.08 30.5303 13.96 30.5803 13.96 30.7003C13.96 30.8203 14.01 30.8403 14.05 30.8703C14.09 30.9003 16.56 30.8703 16.56 30.8703Z" fill="#99332B"/>
<path d="M16.4101 30.5295C16.4101 30.5295 16.6401 30.5395 16.5901 30.3095C16.5701 30.1895 16.4601 30.1895 16.3101 30.1895H13.9301C13.9301 30.1895 13.8101 30.2495 13.8101 30.3595C13.8101 30.4695 13.8601 30.4995 13.9001 30.5295C13.9401 30.5595 16.4101 30.5295 16.4101 30.5295Z" fill="#99332B"/>
<path d="M16.56 30.1798C16.56 30.1798 16.79 30.1898 16.74 29.9598C16.72 29.8398 16.61 29.8398 16.46 29.8398H14.08C14.08 29.8398 13.96 29.8998 13.96 30.0098C13.96 30.1198 14.01 30.1498 14.05 30.1798C14.09 30.2098 16.56 30.1798 16.56 30.1798Z" fill="#99332B"/>
<path d="M18.1602 32.58C18.1602 32.58 18.2602 32.47 18.2102 32.37C18.1602 32.27 18.0802 32.25 17.9302 32.25H15.5502C15.5502 32.25 15.4302 32.31 15.4302 32.42C15.4302 32.53 15.4802 32.56 15.5202 32.59C15.5602 32.62 18.1702 32.59 18.1702 32.59L18.1602 32.58Z" fill="#C4453B"/>
<path d="M18.0302 32.2394C18.0302 32.2394 18.2602 32.2494 18.2102 32.0194C18.1902 31.8994 18.0802 31.8994 17.9302 31.8994H15.5502C15.5502 31.8994 15.4302 31.9494 15.4302 32.0694C15.4302 32.1894 15.4802 32.2094 15.5202 32.2394C15.5602 32.2694 18.0302 32.2394 18.0302 32.2394Z" fill="#C4453B"/>
<path d="M18.0302 31.8996C18.0302 31.8996 18.2602 31.9096 18.2102 31.6796C18.1902 31.5596 18.0802 31.5596 17.9302 31.5596H15.5502C15.5502 31.5596 15.4302 31.6096 15.4302 31.7296C15.4302 31.8496 15.4802 31.8696 15.5202 31.8996C15.5602 31.9296 18.0302 31.8996 18.0302 31.8996Z" fill="#E57970"/>
<path d="M17.8803 31.55C17.8803 31.55 18.1103 31.56 18.0603 31.33C18.0403 31.21 17.9303 31.21 17.7803 31.21H15.4003C15.4003 31.21 15.2803 31.27 15.2803 31.38C15.2803 31.49 15.3303 31.52 15.3703 31.55C15.4103 31.58 17.8803 31.55 17.8803 31.55Z" fill="#C4453B"/>
<path d="M18.0302 31.2101C18.0302 31.2101 18.2602 31.2201 18.2102 30.9901C18.1902 30.8701 18.0802 30.8701 17.9302 30.8701H15.5502C15.5502 30.8701 15.4302 30.9201 15.4302 31.0401C15.4302 31.1601 15.4802 31.1801 15.5202 31.2101C15.5602 31.2401 18.0302 31.2101 18.0302 31.2101Z" fill="#C65447"/>
<path d="M18.0302 30.8703C18.0302 30.8703 18.2602 30.8803 18.2102 30.6503C18.1902 30.5303 18.0802 30.5303 17.9302 30.5303H15.5502C15.5502 30.5303 15.4302 30.5803 15.4302 30.7003C15.4302 30.8203 15.4802 30.8403 15.5202 30.8703C15.5602 30.9003 18.0302 30.8703 18.0302 30.8703Z" fill="#C4453B"/>
<path d="M17.8803 30.5295C17.8803 30.5295 18.1103 30.5395 18.0603 30.3095C18.0403 30.1895 17.9303 30.1895 17.7803 30.1895H15.4003C15.4003 30.1895 15.2803 30.2495 15.2803 30.3595C15.2803 30.4695 15.3303 30.4995 15.3703 30.5295C15.4103 30.5595 17.8803 30.5295 17.8803 30.5295Z" fill="#C65447"/>
<path d="M18.0302 30.1798C18.0302 30.1798 18.2602 30.1898 18.2102 29.9598C18.1902 29.8398 18.0802 29.8398 17.9302 29.8398H15.5502C15.5502 29.8398 15.4302 29.8998 15.4302 30.0098C15.4302 30.1198 15.4802 30.1498 15.5202 30.1798C15.5602 30.2098 18.0302 30.1798 18.0302 30.1798Z" fill="#E57970"/>
<path d="M13.2998 32.58C13.2998 32.58 13.3998 32.47 13.3498 32.37C13.2998 32.27 13.2198 32.25 13.0698 32.25H10.6898C10.6898 32.25 10.5698 32.31 10.5698 32.42C10.5698 32.53 10.6198 32.56 10.6598 32.59C10.6998 32.62 13.3098 32.59 13.3098 32.59L13.2998 32.58Z" fill="#99332B"/>
<path d="M13.1601 32.2394C13.1601 32.2394 13.3901 32.2494 13.3401 32.0194C13.3201 31.8994 13.2101 31.8994 13.0601 31.8994H10.6801C10.6801 31.8994 10.5601 31.9494 10.5601 32.0694C10.5601 32.1894 10.6101 32.2094 10.6501 32.2394C10.6901 32.2694 13.1601 32.2394 13.1601 32.2394Z" fill="#99332B"/>
<path d="M13.1601 31.8996C13.1601 31.8996 13.3901 31.9096 13.3401 31.6796C13.3201 31.5596 13.2101 31.5596 13.0601 31.5596H10.6801C10.6801 31.5596 10.5601 31.6096 10.5601 31.7296C10.5601 31.8496 10.6101 31.8696 10.6501 31.8996C10.6901 31.9296 13.1601 31.8996 13.1601 31.8996Z" fill="#99332B"/>
<path d="M13.0199 31.55C13.0199 31.55 13.2499 31.56 13.1999 31.33C13.1799 31.21 13.0699 31.21 12.9199 31.21H10.5399C10.5399 31.21 10.4199 31.27 10.4199 31.38C10.4199 31.49 10.4699 31.52 10.5099 31.55C10.5499 31.58 13.0199 31.55 13.0199 31.55Z" fill="#99332B"/>
<path d="M13.1601 31.2101C13.1601 31.2101 13.3901 31.2201 13.3401 30.9901C13.3201 30.8701 13.2101 30.8701 13.0601 30.8701H10.6801C10.6801 30.8701 10.5601 30.9201 10.5601 31.0401C10.5601 31.1601 10.6101 31.1801 10.6501 31.2101C10.6901 31.2401 13.1601 31.2101 13.1601 31.2101Z" fill="#99332B"/>
<path d="M13.1601 30.8703C13.1601 30.8703 13.3901 30.8803 13.3401 30.6503C13.3201 30.5303 13.2101 30.5303 13.0601 30.5303H10.6801C10.6801 30.5303 10.5601 30.5803 10.5601 30.7003C10.5601 30.8203 10.6101 30.8403 10.6501 30.8703C10.6901 30.9003 13.1601 30.8703 13.1601 30.8703Z" fill="#99332B"/>
<path d="M13.0199 30.5295C13.0199 30.5295 13.2499 30.5395 13.1999 30.3095C13.1799 30.1895 13.0699 30.1895 12.9199 30.1895H10.5399C10.5399 30.1895 10.4199 30.2495 10.4199 30.3595C10.4199 30.4695 10.4699 30.4995 10.5099 30.5295C10.5499 30.5595 13.0199 30.5295 13.0199 30.5295Z" fill="#99332B"/>
<path d="M13.1601 30.1798C13.1601 30.1798 13.3901 30.1898 13.3401 29.9598C13.3201 29.8398 13.2101 29.8398 13.0601 29.8398H10.6801C10.6801 29.8398 10.5601 29.8998 10.5601 30.0098C10.5601 30.1198 10.6101 30.1498 10.6501 30.1798C10.6901 30.2098 13.1601 30.1798 13.1601 30.1798Z" fill="#99332B"/>
<path d="M14.77 32.58C14.77 32.58 14.87 32.47 14.82 32.37C14.77 32.27 14.69 32.25 14.54 32.25H12.16C12.16 32.25 12.04 32.31 12.04 32.42C12.04 32.53 12.09 32.56 12.13 32.59C12.17 32.62 14.78 32.59 14.78 32.59L14.77 32.58Z" fill="#C4453B"/>
<path d="M14.6303 32.2394C14.6303 32.2394 14.8603 32.2494 14.8103 32.0194C14.7903 31.8994 14.6803 31.8994 14.5303 31.8994H12.1503C12.1503 31.8994 12.0303 31.9494 12.0303 32.0694C12.0303 32.1894 12.0803 32.2094 12.1203 32.2394C12.1603 32.2694 14.6303 32.2394 14.6303 32.2394Z" fill="#C4453B"/>
<path d="M14.6303 31.8996C14.6303 31.8996 14.8603 31.9096 14.8103 31.6796C14.7903 31.5596 14.6803 31.5596 14.5303 31.5596H12.1503C12.1503 31.5596 12.0303 31.6096 12.0303 31.7296C12.0303 31.8496 12.0803 31.8696 12.1203 31.8996C12.1603 31.9296 14.6303 31.8996 14.6303 31.8996Z" fill="#E57970"/>
<path d="M14.4901 31.55C14.4901 31.55 14.7201 31.56 14.6701 31.33C14.6501 31.21 14.5401 31.21 14.3901 31.21H12.0101C12.0101 31.21 11.8901 31.27 11.8901 31.38C11.8901 31.49 11.9401 31.52 11.9801 31.55C12.0201 31.58 14.4901 31.55 14.4901 31.55Z" fill="#C4453B"/>
<path d="M14.6303 31.2101C14.6303 31.2101 14.8603 31.2201 14.8103 30.9901C14.7903 30.8701 14.6803 30.8701 14.5303 30.8701H12.1503C12.1503 30.8701 12.0303 30.9201 12.0303 31.0401C12.0303 31.1601 12.0803 31.1801 12.1203 31.2101C12.1603 31.2401 14.6303 31.2101 14.6303 31.2101Z" fill="#C65447"/>
<path d="M14.6303 30.8703C14.6303 30.8703 14.8603 30.8803 14.8103 30.6503C14.7903 30.5303 14.6803 30.5303 14.5303 30.5303H12.1503C12.1503 30.5303 12.0303 30.5803 12.0303 30.7003C12.0303 30.8203 12.0803 30.8403 12.1203 30.8703C12.1603 30.9003 14.6303 30.8703 14.6303 30.8703Z" fill="#C4453B"/>
<path d="M14.4901 30.5295C14.4901 30.5295 14.7201 30.5395 14.6701 30.3095C14.6501 30.1895 14.5401 30.1895 14.3901 30.1895H12.0101C12.0101 30.1895 11.8901 30.2495 11.8901 30.3595C11.8901 30.4695 11.9401 30.4995 11.9801 30.5295C12.0201 30.5595 14.4901 30.5295 14.4901 30.5295Z" fill="#C65447"/>
<path d="M14.6303 30.1798C14.6303 30.1798 14.8603 30.1898 14.8103 29.9598C14.7903 29.8398 14.6803 29.8398 14.5303 29.8398H12.1503C12.1503 29.8398 12.0303 29.8998 12.0303 30.0098C12.0303 30.1198 12.0803 30.1498 12.1203 30.1798C12.1603 30.2098 14.6303 30.1798 14.6303 30.1798Z" fill="#E57970"/>
<path d="M6.39972 23.4891C6.33972 23.7191 6.64972 23.7091 6.64972 23.7091C6.64972 23.7091 6.66972 23.7091 6.68972 23.7091C6.53972 23.7091 6.44972 23.7391 6.38972 23.8291C6.31972 23.9291 6.45972 24.0391 6.45972 24.0391C6.45972 24.0391 10.0197 24.0691 10.0797 24.0391C10.1297 24.0091 10.1997 23.9891 10.1997 23.8691C10.1997 23.7691 10.0797 23.7191 10.0397 23.7091C10.0597 23.7091 10.0697 23.7091 10.0797 23.7091C10.1297 23.6791 10.1997 23.6591 10.1997 23.5391C10.1997 23.4191 10.0297 23.3691 10.0297 23.3691H6.77972C6.56972 23.3691 6.42972 23.3691 6.38972 23.4891H6.39972Z" fill="#99332B"/>
<path d="M10.2395 22.6798H9.99954C10.0495 22.6798 10.0795 22.6798 10.0895 22.6798C10.1395 22.6498 10.2095 22.6298 10.2095 22.5098C10.2095 22.3898 10.0395 22.3398 10.0395 22.3398H6.78954C6.57954 22.3398 6.43954 22.3398 6.39954 22.4598C6.33954 22.6898 6.64954 22.6798 6.64954 22.6798C6.64954 22.6798 6.93954 22.6798 7.35954 22.6798H6.97954C6.76954 22.6798 6.62954 22.6798 6.58954 22.7998C6.52954 23.0298 6.83954 23.0198 6.83954 23.0198C6.83954 23.0198 7.12954 23.0198 7.54954 23.0198H6.77954C6.56954 23.0198 6.42954 23.0198 6.38954 23.1398C6.32954 23.3698 6.63954 23.3598 6.63954 23.3598C6.63954 23.3598 8.08954 23.3698 9.10954 23.3698C9.63954 23.3698 10.0495 23.3698 10.0695 23.3598C10.1195 23.3298 10.1895 23.3098 10.1895 23.1898C10.1895 23.0898 10.0595 23.0398 10.0295 23.0298C10.1695 23.0298 10.2595 23.0298 10.2695 23.0298C10.3195 22.9998 10.3895 22.9798 10.3895 22.8598C10.3895 22.7398 10.2195 22.6898 10.2195 22.6898L10.2395 22.6798Z" fill="#99332B"/>
<path d="M10.2095 22.1592C10.2095 22.0692 10.1095 22.0192 10.0695 21.9992C10.1995 21.9992 10.2795 21.9992 10.2895 21.9992C10.3395 21.9692 10.4095 21.9492 10.4095 21.8292C10.4095 21.7092 10.2395 21.6592 10.2395 21.6592H6.98954C6.77954 21.6592 6.63954 21.6592 6.59954 21.7792C6.54954 21.9492 6.71954 21.9892 6.79954 21.9892H6.77954C6.56954 21.9892 6.42954 21.9892 6.38954 22.1092C6.32954 22.3392 6.63954 22.3292 6.63954 22.3292C6.63954 22.3292 8.08954 22.3392 9.10954 22.3392C9.63954 22.3392 10.0495 22.3392 10.0695 22.3292C10.1195 22.2992 10.1895 22.2692 10.1895 22.1592H10.2095Z" fill="#99332B"/>
<path d="M10.2098 21.4796C10.2098 21.3696 10.0398 21.3096 10.0398 21.3096H6.7898C6.5798 21.3096 6.4398 21.3096 6.3998 21.4296C6.3398 21.6596 6.6498 21.6496 6.6498 21.6496C6.6498 21.6496 8.0998 21.6596 9.1198 21.6596C9.6498 21.6596 10.0598 21.6596 10.0798 21.6496C10.1298 21.6196 10.1998 21.5896 10.1998 21.4796H10.2098Z" fill="#99332B"/>
<path d="M4.45972 24.04C4.45972 24.04 4.31972 23.93 4.38972 23.83C4.45972 23.73 4.56972 23.71 4.77972 23.71H8.02972C8.02972 23.71 8.19972 23.77 8.19972 23.88C8.19972 23.99 8.12972 24.02 8.07972 24.05C8.02972 24.08 4.45972 24.05 4.45972 24.05V24.04Z" fill="#C4453B"/>
<path d="M4.63989 23.7091C4.63989 23.7091 4.31989 23.7191 4.38989 23.4891C4.41989 23.3691 4.56989 23.3691 4.77989 23.3691H8.02989C8.02989 23.3691 8.19989 23.4191 8.19989 23.5391C8.19989 23.6591 8.12989 23.6791 8.07989 23.7091C8.02989 23.7391 4.64989 23.7091 4.64989 23.7091H4.63989Z" fill="#C4453B"/>
<path d="M4.63989 23.3595C4.63989 23.3595 4.31989 23.3695 4.38989 23.1395C4.41989 23.0195 4.56989 23.0195 4.77989 23.0195H8.02989C8.02989 23.0195 8.19989 23.0695 8.19989 23.1895C8.19989 23.3095 8.12989 23.3295 8.07989 23.3595C8.02989 23.3895 4.64989 23.3595 4.64989 23.3595H4.63989Z" fill="#E57970"/>
<path d="M4.8396 23.0197C4.8396 23.0197 4.5196 23.0297 4.5896 22.7997C4.6196 22.6797 4.7696 22.6797 4.9796 22.6797H8.2296C8.2296 22.6797 8.3996 22.7397 8.3996 22.8497C8.3996 22.9597 8.3296 22.9897 8.2796 23.0197C8.2296 23.0497 4.8496 23.0197 4.8496 23.0197H4.8396Z" fill="#C4453B"/>
<path d="M4.63989 22.6798C4.63989 22.6798 4.31989 22.6898 4.38989 22.4598C4.41989 22.3398 4.56989 22.3398 4.77989 22.3398H8.02989C8.02989 22.3398 8.19989 22.3898 8.19989 22.5098C8.19989 22.6298 8.12989 22.6498 8.07989 22.6798C8.02989 22.7098 4.64989 22.6798 4.64989 22.6798H4.63989Z" fill="#C65447"/>
<path d="M4.63989 22.3293C4.63989 22.3293 4.31989 22.3393 4.38989 22.1093C4.41989 21.9893 4.56989 21.9893 4.77989 21.9893H8.02989C8.02989 21.9893 8.19989 22.0393 8.19989 22.1593C8.19989 22.2793 8.12989 22.2993 8.07989 22.3293C8.02989 22.3593 4.64989 22.3293 4.64989 22.3293H4.63989Z" fill="#C4453B"/>
<path d="M4.8396 21.9992C4.8396 21.9992 4.5196 22.0092 4.5896 21.7792C4.6196 21.6592 4.7696 21.6592 4.9796 21.6592H8.2296C8.2296 21.6592 8.3996 21.7192 8.3996 21.8292C8.3996 21.9392 8.3296 21.9692 8.2796 21.9992C8.2296 22.0292 4.8496 21.9992 4.8496 21.9992H4.8396Z" fill="#C65447"/>
<path d="M4.63989 21.6496C4.63989 21.6496 4.31989 21.6596 4.38989 21.4296C4.41989 21.3096 4.56989 21.3096 4.77989 21.3096H8.02989C8.02989 21.3096 8.19989 21.3696 8.19989 21.4796C8.19989 21.5896 8.12989 21.6196 8.07989 21.6496C8.02989 21.6796 4.64989 21.6496 4.64989 21.6496H4.63989Z" fill="#E57970"/>
<path d="M2.6001 30.5303C2.7801 31.1103 2.9601 31.5903 3.1001 31.9503C3.1701 31.8803 3.1301 31.6603 3.1001 31.4003C3.0601 31.0703 2.7801 30.7603 2.6001 30.5303Z" fill="#A3D9A5"/>
<path d="M5.40002 29.2003C5.40002 29.2003 4.08002 29.6503 3.90002 29.5003C3.72002 29.3503 4.97002 28.8503 4.97002 28.8503C4.68002 28.4803 3.52002 28.1003 3.52002 28.1003C3.52002 28.1003 2.69002 29.3603 2.55002 29.1703C2.40002 28.9703 3.33002 28.1003 3.33002 28.1003C2.94002 27.8903 2.34002 28.0203 2.34002 28.0203C2.20002 28.0703 2.10002 28.1503 2.02002 28.2403C2.11002 28.6903 2.22002 29.1103 2.32002 29.5003C2.34002 29.5703 2.36002 29.6303 2.37002 29.6903C2.42002 29.8603 2.47002 30.0303 2.51002 30.1903C2.58002 30.1903 2.75002 30.3003 2.92002 30.5003C3.17002 30.8003 3.07002 31.2603 3.47002 31.7603C3.87002 32.2603 4.91002 31.6303 4.91002 31.6303C4.53002 31.4303 4.14002 30.6803 4.20002 30.5303C4.27002 30.3903 5.06002 31.2203 5.21002 31.3103C5.36002 31.4003 5.79002 31.3303 6.09002 30.6003C6.39002 29.8703 5.41002 29.1903 5.41002 29.1903L5.40002 29.2003Z" fill="#A3D9A5"/>
<path d="M6.73977 23.3602C6.44977 23.4502 4.59977 23.4202 4.64977 23.7102C4.69977 24.0002 5.94977 24.4602 6.64977 24.2002C6.64977 24.2002 5.87977 26.4702 4.86977 26.3602C3.85977 26.2502 3.54977 25.5002 2.91977 25.4402C2.28977 25.3802 1.83977 25.5802 2.14977 25.7902C2.45977 25.9902 3.51977 25.8602 4.02977 26.3702C4.53977 26.8802 4.93977 27.2002 4.00977 27.4302C3.40977 27.5802 2.49977 27.5702 1.83977 27.3202C1.70977 26.5702 1.60977 25.7702 1.55977 24.9302C1.55977 24.7902 1.53977 24.6502 1.53977 24.5102C1.53977 24.3702 1.53977 24.2202 1.52977 24.0702C1.51977 23.1602 1.55977 22.2202 1.69977 21.2702C2.25977 20.9702 3.49977 20.3502 4.05977 20.4202C4.05977 20.4202 2.87977 22.8102 3.26977 22.7502C3.64977 22.6902 4.97977 20.2802 4.97977 20.2802C4.97977 20.2802 6.92977 19.8502 7.23977 21.2302C7.54977 22.6102 7.04977 23.3002 6.75977 23.3902L6.73977 23.3602Z" fill="#7BC47F"/>
<path d="M6.32978 21.6406C3.56978 22.9706 2.20979 24.0806 1.54979 24.9206C1.54979 24.7806 1.52979 24.6406 1.52979 24.5006C3.10979 22.9106 6.26978 21.6706 6.32978 21.6506V21.6406Z" fill="#A3D9A5"/>
<path d="M51.0199 8.41977H22.1699C22.5699 7.91977 22.9899 7.32977 23.4599 6.70977C23.5499 6.59977 23.6399 6.47977 23.7299 6.35977C23.9099 6.12977 24.0999 5.89977 24.2999 5.65977C24.3299 5.61977 24.3599 5.58977 24.3899 5.54977C24.4599 5.46977 24.5199 5.38977 24.5899 5.30977C24.6199 5.27977 24.6499 5.23977 24.6799 5.20977C24.8999 4.95977 25.1399 4.70977 25.3899 4.45977C26.3299 3.51977 27.4899 2.60977 28.9499 1.86977C29.0699 1.80977 29.1899 1.74977 29.3099 1.68977C29.4199 1.63977 29.5199 1.58977 29.6299 1.53977C30.6799 1.12977 31.8599 0.769766 33.1999 0.489766C33.9099 0.339766 34.6499 0.219766 35.4099 0.119766C35.6799 0.0897656 35.9499 0.0697656 36.2299 0.0497656C36.5199 0.0297656 36.8199 0.0197656 37.1199 0.00976562C37.2999 0.00976562 37.4799 0.00976562 37.6499 0.00976562C37.7699 0.00976562 37.8899 0.00976562 38.0099 0.00976562C38.3299 0.00976562 38.6399 0.0297656 38.9599 0.0497656C39.1199 0.0497656 39.2699 0.0697656 39.4199 0.0797656C41.3099 0.239766 43.1299 0.669766 44.6699 1.42977C44.9799 1.58977 45.5499 1.89977 46.2299 2.36977C46.3499 2.44977 46.4699 2.53977 46.5899 2.62977C48.1899 3.80977 50.2099 5.75977 50.9999 8.41977H51.0199Z" fill="#FFD0B5"/>
<path d="M42.6798 31.1797H29.9898C29.8598 31.1797 29.7598 31.2997 29.7598 31.4597V32.6297C29.7598 32.7797 29.8598 32.9097 29.9898 32.9097H42.6798C42.8098 32.9097 42.9098 32.7897 42.9098 32.6297V31.4597C42.9098 31.3097 42.8098 31.1797 42.6798 31.1797Z" fill="#9FC1F4"/>
<path d="M59.27 32.8096H1.04996C1.00026 32.8096 0.959961 32.8499 0.959961 32.8996V32.9096C0.959961 32.9593 1.00026 32.9996 1.04996 32.9996H59.27C59.3197 32.9996 59.36 32.9593 59.36 32.9096V32.8996C59.36 32.8499 59.3197 32.8096 59.27 32.8096Z" fill="#2E3552"/>
<path d="M34.7898 18.2596H29.7998V9.84961H34.7898V18.2596ZM29.9498 18.0896H34.6498V10.0196H29.9498V18.0796V18.0896Z" fill="#CBD2D9"/>
<path opacity="0.6" d="M34.4596 10.1494H30.0996V17.9194H34.4596V10.1494Z" fill="#CBD2D9"/>
<path d="M49.5598 18.2596H44.5698V9.84961H49.5598V18.2596ZM44.7198 18.0896H49.4198V10.0196H44.7198V18.0796V18.0896Z" fill="#CBD2D9"/>
<path opacity="0.6" d="M49.2199 10.1494H44.8599V17.9194H49.2199V10.1494Z" fill="#CBD2D9"/>
<path d="M47.71 24.8398C47.65 24.8698 47.58 24.9098 47.51 24.9498C47.48 24.8798 47.44 24.8098 47.44 24.8098C47.44 24.8098 46.58 23.0798 46.51 22.6798C46.49 22.5498 46.43 22.2898 46.36 21.9898C46.22 21.3798 46.05 20.6298 46.05 20.6298L45.99 20.3298L45.79 19.2998C45.79 19.2998 46.17 19.3498 46.39 19.4598C46.46 19.4998 46.52 19.5398 46.54 19.5898C46.7 20.0198 46.87 21.1098 46.98 21.8798C47.04 22.3098 47.09 22.6498 47.12 22.7198C47.19 22.9198 47.41 24.0098 47.59 24.5498C47.59 24.5498 47.64 24.7398 47.7 24.8398H47.71Z" fill="#D9935C"/>
<path d="M47.5099 24.9502C47.5099 24.9502 47.4999 25.0602 47.5299 25.1202C47.5599 25.1802 47.6799 25.2802 47.6999 25.2302C47.7299 25.1702 47.5099 24.9502 47.5099 24.9502Z" fill="#D9935C"/>
<path d="M46.8396 32.2899C46.8396 32.2899 46.5396 32.5599 46.4196 32.6199C46.2996 32.6699 46.1396 32.7199 46.1396 32.8199H46.7096C46.7096 32.8199 46.8696 32.7299 46.9296 32.7699C47.0296 32.8299 47.1196 32.8199 47.1996 32.8199C47.2696 32.8199 47.2796 32.5299 47.2196 32.4299C47.1596 32.3299 47.1096 32.1699 47.1096 32.1699L46.8396 32.2899Z" fill="#163560"/>
<path d="M44.52 19.6897C44.49 19.5897 44.47 19.5197 44.46 19.4897C44.46 19.4697 44.46 19.4697 44.46 19.4697C44.46 19.4697 44.46 19.4697 44.44 19.4997C44.36 19.6197 44.08 20.1397 44.29 21.3497C44.32 21.5297 44.36 21.7197 44.42 21.9297C44.42 21.9297 43.65 21.7697 43.43 21.5897C43.43 21.5597 43.31 21.1597 43.22 21.1097C43.13 21.0597 42.98 20.9997 42.94 21.0197C42.9 21.0397 42.84 21.3397 42.94 21.4997C43.04 21.6597 43.31 21.8097 43.31 21.8097C43.31 21.8097 44.17 22.6297 44.77 22.6097C45.27 22.5897 44.72 20.4097 44.52 19.6997V19.6897Z" fill="#D9935C"/>
<path d="M47.23 18.9202C46.89 18.6702 47.38 18.1302 47.23 17.3302C47.08 16.5402 46.53 16.6902 46.12 16.4302C45.83 16.2402 45.62 16.4302 45.52 16.5502C45.15 16.5202 44.73 17.1302 44.73 17.1302L45.44 18.2502L45.41 19.6102C45.41 19.6102 46.02 20.6902 46.61 20.6602C47.2 20.6302 47.82 19.3602 47.23 18.9202Z" fill="#1F2933"/>
<path d="M45.3097 30.9501C45.0397 31.8701 44.8697 32.1801 44.8697 32.1801L44.5297 32.2101C44.5297 32.2101 44.6197 31.8001 44.6897 30.8201C44.7397 30.1401 44.7297 29.3201 44.5697 28.5201C43.9997 25.7801 44.2797 23.8701 44.2797 23.8701L45.7197 24.2401L45.7897 24.2601C45.7297 25.0601 45.6597 26.1501 45.6097 27.0001C45.5597 27.7701 45.5297 28.3401 45.5297 28.3401C45.7497 29.0901 45.5697 30.1001 45.3197 30.9501H45.3097Z" fill="#163560"/>
<path d="M46.9497 30.1498C47.1397 31.2298 47.1097 32.1698 47.1097 32.1698C47.1097 32.1698 47.0497 32.2698 46.9997 32.2798C46.9397 32.2998 46.8497 32.2898 46.8497 32.2898C46.8497 32.2898 46.6897 31.4098 46.3297 30.6198C45.9497 29.7998 45.6297 29.0898 45.4997 28.8098C45.0097 27.7098 44.9897 23.6798 44.9897 23.6798L46.4797 23.5898C46.6297 23.8898 46.6897 24.3798 46.7097 24.9398C46.7497 26.3498 46.4697 28.1998 46.4297 28.4598C46.4297 28.4798 46.4297 28.4998 46.4297 28.5198C46.7297 29.2198 46.8297 29.4498 46.9497 30.1498Z" fill="#1C468A"/>
<path d="M44.3396 24.0699C44.7096 24.0699 45.7296 24.0399 45.9696 23.9399C46.2696 23.8199 46.3396 23.4699 46.3396 23.4299C46.3396 23.4299 46.3196 23.2599 46.2796 22.9999C46.1996 22.7999 46.1596 22.6899 46.1596 22.5599C46.1596 22.4999 46.1596 22.4399 46.1796 22.3599C46.2096 22.2099 46.2796 22.0099 46.3796 21.6799C46.4096 21.5599 46.4396 21.4499 46.4496 21.3299C46.5496 20.5299 46.2996 19.5599 45.9896 19.3299C45.9496 19.2999 45.8696 19.3099 45.8296 19.2899C45.7496 19.2699 45.6196 18.9199 45.6196 18.3799H45.5796L44.9796 18.5299C44.9796 18.5299 44.9896 18.7499 44.9896 18.9699C44.9896 19.1499 44.9896 19.3099 44.9496 19.3299C44.9096 19.3299 44.8796 19.3299 44.8796 19.3299C44.7696 19.3299 44.4596 19.3699 44.4196 19.4699L44.5296 19.8699L44.5596 19.9899C44.4796 20.2099 44.3996 20.4599 44.3596 20.7099C44.3496 20.7799 44.3396 20.8499 44.3396 20.9299C44.3396 20.9899 44.3396 21.0499 44.3396 21.1099C44.3596 21.7599 44.7096 22.1599 44.3396 23.5699C44.2896 23.7699 44.2896 23.9299 44.3296 24.0599L44.3396 24.0699Z" fill="#D9935C"/>
<path d="M44.3399 24.0698C44.5299 24.3698 45.6199 24.3698 45.8699 24.2698C46.1699 24.1498 46.3499 23.4698 46.3499 23.4298C46.3499 23.4298 46.3299 23.2598 46.2899 22.9998C46.2599 22.8198 46.2299 22.5998 46.1899 22.3598C46.0299 21.2998 45.7999 19.8398 45.7999 19.8398C45.7999 19.8398 45.3099 20.3498 44.9799 20.2398C44.6499 20.1298 44.5599 19.8698 44.5599 19.8698C44.5599 19.8698 44.5599 19.8698 44.5599 19.8798C44.5399 19.9598 44.4199 20.4298 44.3899 20.6698C44.3899 20.6798 44.3899 20.6998 44.3899 20.7198C44.3899 20.7998 44.3799 20.9298 44.3699 21.1098C44.3899 21.7598 44.7399 22.1598 44.3699 23.5698C44.3199 23.7698 44.3199 23.9298 44.3599 24.0598L44.3399 24.0698Z" fill="#EE9849"/>
<path d="M44.99 18.5502C44.99 18.5502 45 18.7702 45 18.9902C45.33 18.9802 45.51 18.6102 45.58 18.4102L44.98 18.5502H44.99Z" fill="#CB7D45"/>
<path d="M45.64 18.3301C45.64 18.3301 45.81 18.0001 45.86 17.7201C45.89 17.5201 45.8 16.7701 45.18 16.8801C45.18 16.8801 45 16.9001 44.83 17.0401C44.69 17.1501 44.5 17.3901 44.72 18.0401L44.78 18.2601L45.66 18.3301H45.64Z" fill="#1F2933"/>
<path d="M44.8697 18.75C44.8697 18.75 45.6597 18.77 45.6597 18.18C45.6597 17.59 45.7597 17.2 45.2597 17.16C44.7597 17.13 44.6597 17.35 44.6197 17.55C44.5797 17.75 44.6697 18.74 44.8697 18.75Z" fill="#D9935C"/>
<path d="M45.4497 17.94C45.7797 18.04 45.9297 17.94 45.9297 17.94C45.9297 17.94 45.6797 17.7 45.6197 17.28C45.6197 17.28 45.2797 16.95 44.9097 17.14C44.8597 17.09 44.7697 17.05 44.6397 17.22C44.4597 17.49 44.6197 17.95 44.6197 17.95C44.6997 17.96 44.7097 17.65 44.7497 17.5C44.7797 17.39 44.8697 17.28 44.9197 17.23C44.9397 17.3 45.0897 17.96 45.4897 18.18C45.4897 18.18 45.3097 17.99 45.1697 17.72C45.2497 17.82 45.3397 17.91 45.4397 17.94H45.4497Z" fill="#1F2933"/>
<path d="M45.32 26.2098C45.39 26.8998 45.42 28.6098 45.23 29.2598C45.83 29.1898 46.9 28.7298 47.22 28.3298C47.05 27.5598 46.88 26.6498 46.84 25.9098C46.84 25.7298 46.81 25.5198 46.79 25.2698C46.71 24.2698 46.56 22.7798 46.43 21.5598C46.3 20.3498 46.2 19.3998 46.2 19.3998L45.91 19.3398C45.91 19.3398 45.49 19.7498 45.43 21.1298C45.36 22.5098 45.21 25.1998 45.31 26.2298L45.32 26.2098Z" fill="#D86713"/>
<path d="M44.8897 19.3606C44.8897 19.3606 44.5697 19.3606 44.4497 19.4706C44.3397 19.5706 44.0397 20.2506 44.0797 21.2606C44.0497 21.4306 44.0197 21.6006 43.9897 21.7706C43.9097 21.7906 43.7997 21.7606 43.7997 21.7606C43.7997 21.7606 43.7397 22.4506 43.8597 22.9406C43.8597 23.0106 43.8597 23.0906 43.8597 23.1606C43.8197 24.6606 44.2797 26.7706 44.2797 26.7706C44.2797 26.7706 44.4397 25.0806 44.4997 23.2106C44.5497 21.9306 44.3897 21.1406 44.5697 20.4706C44.6597 20.1606 44.8797 19.3506 44.8797 19.3506L44.8897 19.3606Z" fill="#D86713"/>
<path d="M44.52 32.2107C44.52 32.2107 44.19 32.5607 44.07 32.6107C43.95 32.6607 43.79 32.7107 43.79 32.8107H44.36C44.36 32.8107 44.52 32.7207 44.58 32.7607C44.68 32.8207 44.77 32.8107 44.85 32.8107C44.93 32.8107 44.93 32.5207 44.87 32.4207C44.81 32.3207 44.87 32.1807 44.87 32.1807L44.53 32.2107H44.52Z" fill="#163560"/>
<path d="M47.7597 25.0704C48.0297 25.0304 48.1997 25.3004 48.2997 25.5304C48.4097 25.7904 48.4497 26.0604 48.4497 26.0704C48.4497 26.0904 48.4497 26.1004 48.4397 26.1104C48.4397 26.1104 48.4197 26.1104 48.4197 26.0804C48.4197 26.0804 48.3797 25.8104 48.2697 25.5604C48.1297 25.2304 47.9597 25.0904 47.7397 25.1404C47.5997 25.1704 47.4997 25.2804 47.4397 25.4404C47.3397 25.7604 47.4397 26.2104 47.4397 26.2104C47.4397 26.2304 47.4397 26.2504 47.4297 26.2504C47.4297 26.2504 47.4097 26.2504 47.4097 26.2304C47.4097 26.2104 47.2997 25.7404 47.4097 25.4004C47.4697 25.2104 47.5797 25.1004 47.7297 25.0704C47.7297 25.0704 47.7497 25.0704 47.7597 25.0704Z" fill="#3675C1"/>
<path d="M47.8499 25.8604L46.6499 25.9304L46.7399 30.0704L48.0099 30.0004L47.8499 25.8604Z" fill="#4A84D8"/>
<path d="M48.7901 25.8004L48.4701 25.8204C48.4501 25.7304 48.4101 25.6304 48.3701 25.5304C48.2701 25.3004 48.1001 25.0304 47.8301 25.0704C47.8301 25.0704 47.8101 25.0704 47.8001 25.0704C47.6401 25.1104 47.5401 25.2204 47.4801 25.4004C47.4301 25.5504 47.4301 25.7204 47.4301 25.8704L46.8701 25.9004L47.1501 30.0304L49.1101 29.9204L48.7801 25.7904L48.7901 25.8004ZM47.5201 25.4404C47.5701 25.2704 47.6701 25.1704 47.8201 25.1404C48.0301 25.0904 48.2101 25.2304 48.3501 25.5604C48.3901 25.6504 48.4201 25.7404 48.4401 25.8204L47.4901 25.8704C47.4901 25.7304 47.4901 25.5704 47.5301 25.4304L47.5201 25.4404Z" fill="#699FF0"/>
<path d="M46.8698 25.9102L46.7798 25.9202L46.9498 30.0602L47.1598 30.0502L46.8698 25.9102Z" fill="#3675C1"/>
<path d="M43.5598 21.4005L43.3098 20.5005C43.3098 20.5005 43.2898 20.4805 43.2798 20.4805L42.9498 20.6105C42.9498 20.6105 42.9298 20.6305 42.9398 20.6505L43.1898 21.5505C43.1898 21.5505 43.2098 21.5705 43.2198 21.5705L43.5498 21.4405C43.5498 21.4405 43.5698 21.4205 43.5598 21.4005Z" fill="#F1A34F"/>
<path d="M43.4799 21.4102L43.2399 20.5502C43.2399 20.5502 43.2099 20.5102 43.1899 20.5202L42.8899 20.6402C42.8899 20.6402 42.8599 20.6802 42.8599 20.7002L43.0999 21.5602C43.0999 21.5602 43.1299 21.6002 43.1499 21.5902L43.4499 21.4702C43.4499 21.4702 43.4799 21.4302 43.4799 21.4102Z" fill="#D86713"/>
<path d="M42.9097 21.0603C42.9097 21.0603 42.9797 20.8903 43.0997 20.9603C43.2197 21.0303 43.1697 21.2803 43.0997 21.3703C43.0297 21.4603 43.0097 21.5003 43.0097 21.5003L42.9097 21.0603Z" fill="#D9935C"/>
<path d="M46.7998 25.2602C46.7198 24.2602 46.5698 22.7702 46.4398 21.5502C46.3298 21.4502 46.2198 21.4102 46.2198 21.4102C46.2198 21.4102 45.5098 23.8602 46.7898 25.2602H46.7998Z" fill="#BA550F"/>
<path d="M46.2097 19.3799C46.2097 19.3799 46.4997 19.4499 46.6397 19.6999C46.8297 20.0199 47.1297 22.4599 47.2897 22.8699C47.4497 23.2899 47.5297 23.4699 47.5297 23.4699C47.5297 23.4699 47.6097 24.1199 47.0797 24.4999C47.0797 24.4999 46.4297 23.0899 46.3497 22.8899C46.2697 22.6899 45.9897 19.8199 46.2197 19.3899L46.2097 19.3799Z" fill="#D86713"/>
<path d="M47.7099 24.8402C47.7099 24.8402 47.9499 25.0402 47.9699 25.1102C47.9899 25.1802 47.8999 25.3702 47.8199 25.3702C47.7399 25.3702 47.7599 25.2202 47.7199 25.1702C47.6799 25.1202 47.4799 25.0702 47.5099 24.9402C47.5399 24.8102 47.7099 24.8302 47.7099 24.8302V24.8402Z" fill="#D9935C"/>
<path d="M20.4701 32.5801H3.24014C3.19014 32.5801 3.14014 32.6301 3.14014 32.7001C3.14014 32.7701 3.18014 32.8201 3.24014 32.8201H20.4701C20.5201 32.8201 20.5701 32.7701 20.5701 32.7001C20.5701 32.6301 20.5301 32.5801 20.4701 32.5801Z" fill="#9FC1F4"/>
<path d="M29.32 1.67969V4.93969C29.32 5.04969 29.24 5.13969 29.15 5.13969H29.13C29.04 5.13969 28.96 5.04969 28.96 4.93969V1.85969C29.08 1.79969 29.2 1.73969 29.32 1.67969Z" fill="#9FC1F4"/>
<path d="M29.0401 3.98926C27.7101 3.98926 26.6401 5.34926 26.6401 7.02926H31.4401C31.4401 5.34926 30.3601 3.98926 29.0401 3.98926Z" fill="#FF9843"/>
<path d="M29.2402 4.03C29.1702 4.01 29.1002 4 29.0302 4C28.1702 4 27.4702 5.36 27.4702 7.03H27.8902C27.8902 5.5 28.4802 4.23 29.2402 4.03Z" fill="#FFC48A"/>
<path d="M37.6602 0V4.95C37.6602 5.06 37.7402 5.15 37.8302 5.15H37.8502C37.9402 5.15 38.0202 5.06 38.0202 4.95V0C37.9002 0 37.7802 0 37.6602 0Z" fill="#9FC1F4"/>
<path d="M37.7501 3.99023C36.4201 3.99023 35.3501 5.35023 35.3501 7.03023H40.1501C40.1501 5.35023 39.0701 3.99023 37.7501 3.99023Z" fill="#FF9843"/>
<path d="M37.9399 4.03C37.8699 4.01 37.7999 4 37.7299 4C36.8699 4 36.1699 5.36 36.1699 7.03H36.5899C36.5899 5.5 37.1799 4.23 37.9399 4.03Z" fill="#FFC48A"/>
<path d="M46.61 2.62035V4.94035C46.61 5.05035 46.53 5.14035 46.44 5.14035H46.42C46.33 5.14035 46.25 5.05035 46.25 4.94035V2.36035C46.37 2.44035 46.49 2.53035 46.61 2.62035Z" fill="#9FC1F4"/>
<path d="M46.3302 3.99023C45.0002 3.99023 43.9302 5.35023 43.9302 7.03023H48.7302C48.7302 5.35023 47.6502 3.99023 46.3302 3.99023Z" fill="#FF9843"/>
<path d="M46.52 4.03C46.45 4.01 46.38 4 46.31 4C45.45 4 44.75 5.36 44.75 7.03H45.17C45.17 5.5 45.76 4.23 46.52 4.03Z" fill="#FFC48A"/>
<path d="M10.2302 13.5704H7.7002C7.7002 12.7104 8.2402 12.0004 8.9202 11.9704V10.2604C8.9802 10.2204 9.0502 10.1904 9.1102 10.1504V11.9804C9.7402 12.0704 10.2302 12.7504 10.2302 13.5704Z" fill="#9AA5B1"/>
<path d="M14.82 13.57H12.29C12.29 12.62 12.83 11.85 13.51 11.82V9.04004C13.57 9.04004 13.64 9.04004 13.7 9.04004V11.83C14.33 11.93 14.82 12.67 14.82 13.57Z" fill="#9AA5B1"/>
<path d="M19.3401 13.5696H16.8101C16.8101 12.7096 17.3501 11.9996 18.0301 11.9696V9.80957C18.0901 9.82957 18.1601 9.83957 18.2201 9.85957V11.9796C18.8501 12.0696 19.3401 12.7496 19.3401 13.5696Z" fill="#9AA5B1"/>
</g>
<defs>
<clipPath id="clip0_1947_16721">
<rect width="58.4" height="33" fill="white" transform="translate(0.959961)"/>
</clipPath>
</defs>
</svg>
