<svg width="117" height="116" viewBox="0 0 117 116" fill="none" xmlns="http://www.w3.org/2000/svg">
<g clip-path="url(#clip0_1808_10044)">
<path d="M43.8363 81.4203C43.7028 78.8141 41.2262 76.4841 41.5647 73.9374C41.6842 73.0356 41.1533 72.4599 40.4125 72.2113C40.3079 71.683 40.2033 71.1508 40.1033 70.6187C39.7464 68.7542 39.1009 66.8439 39.0701 64.952C39.0608 64.5255 38.9176 64.1712 38.6911 63.8857C38.7293 63.7466 38.7583 63.6035 38.7646 63.4447C38.823 61.798 38.56 60.1749 37.7727 58.6583C37.6827 58.4867 37.5558 58.3342 37.4011 58.2084C37.3979 58.0727 37.3901 57.937 37.387 57.8013C37.2953 55.1413 36.9695 52.4941 36.8824 49.8419C36.8646 49.3495 36.6759 48.9559 36.3762 48.6541L36.3872 47.5999C37.0024 47.13 37.3126 46.4242 36.9305 45.6563C36.9877 45.4593 37.0038 45.2347 36.9697 44.9823C36.9313 44.699 36.8976 44.4117 36.8639 44.1245C37.0994 43.5419 37.217 42.8184 37.3922 42.3009C37.9082 40.7795 38.3094 39.2646 38.4636 37.681C38.5202 37.0886 38.3047 36.6366 37.9362 36.3224C37.9603 36.2141 37.9844 36.1058 37.9993 35.9936C38.7408 33.5289 39.2396 31.0151 39.9216 28.5381C40.6518 27.6005 41.3638 26.6511 41.9159 25.6301C42.1077 25.2717 42.2033 24.9085 42.1931 24.5595C42.3183 24.4369 42.4435 24.3103 42.5413 24.1758C42.6996 23.9605 42.8306 23.7178 42.8974 23.4704C43.0016 23.1576 43.0094 22.8438 42.9301 22.5289C43.3354 22.39 43.6916 22.111 43.9396 21.6526C44.9127 19.8649 45.601 18.1051 46.7251 16.3541C47.7746 14.7146 48.7694 13.0512 49.86 11.4316C51.0205 9.70803 52.3499 8.07554 53.5242 6.35992C54.3582 5.14439 55.5352 4.04509 56.1316 2.73776C56.4406 2.59005 56.718 2.39159 56.9363 2.13433C57.0571 1.98839 57.1826 1.84249 57.3034 1.69268C57.4428 1.52756 57.5409 1.36586 57.6114 1.20385C58.2201 0.916066 58.8153 0.604871 59.3926 0.250839L58.5102 85.0609L43.1991 84.89C43.7966 83.9199 43.8926 82.6264 43.8318 81.4203L43.8363 81.4203Z" fill="white"/>
<path d="M72.7956 81.943C72.9562 79.3384 75.457 77.0362 75.145 74.4859C75.0349 73.5828 75.5717 73.0131 76.3151 72.7728C76.4252 72.2457 76.5353 71.7147 76.6409 71.1837C77.0171 69.3233 77.6825 67.4202 77.7329 65.5288C77.7467 65.1025 77.8935 64.7498 78.123 64.4668C78.0862 64.3273 78.0587 64.1839 78.0541 64.025C78.0128 62.3778 78.2927 60.7577 79.0957 59.25C79.1875 59.0794 79.316 58.9283 79.472 58.8042C79.4766 58.6686 79.4858 58.5329 79.4903 58.3973C79.6096 55.7384 79.963 53.0951 80.0777 50.444C80.1006 49.9518 80.2933 49.5604 80.5962 49.2619V48.2077C79.9859 47.731 79.6831 47.0217 80.0731 46.2581C80.018 46.0605 80.0043 45.8357 80.041 45.5838C80.0823 45.3008 80.119 45.014 80.1557 44.7272C79.9263 44.1419 79.8161 43.4172 79.6464 42.8978C79.1462 41.3707 78.7608 39.8514 78.6231 38.2662C78.5726 37.6732 78.7929 37.2236 79.1646 36.9135C79.1416 36.805 79.1187 36.6964 79.1049 36.584C78.3891 34.1113 77.9165 31.592 77.2603 29.1076C76.5399 28.1618 75.8379 27.2045 75.2964 26.1774C75.1083 25.817 75.0165 25.4526 75.0303 25.1038C74.9064 24.9798 74.7825 24.8519 74.6861 24.7162C74.5301 24.4992 74.4016 24.255 74.3374 24.0069C74.2364 23.693 74.2319 23.3791 74.3145 23.0651C73.9107 22.9217 73.5573 22.6388 73.3141 22.1776C72.3597 20.3792 71.6898 18.6118 70.584 16.8483C69.5515 15.1972 68.5742 13.5228 67.5004 11.8911C66.3579 10.1547 65.0456 8.50747 63.8892 6.77884C63.0679 5.55408 61.9024 4.44171 61.3197 3.1278C61.0122 2.97664 60.7369 2.7751 60.5212 2.51542C60.4019 2.36814 60.278 2.22085 60.1587 2.0697C60.0211 1.90304 59.9247 1.74025 59.8559 1.57747C59.2502 1.2829 58.6583 0.965083 58.0847 0.60463V85.4196H73.3967C72.8094 84.4429 72.7268 83.1484 72.8002 81.943H72.7956Z" fill="#D64544"/>
<path d="M47.4117 86.4506C47.5677 86.7762 47.6228 87.1521 47.531 87.5707C46.9391 90.2528 46.0994 93.1868 43.7867 95.2022H73.1443C72.4882 94.2682 72.3046 93.2411 72.1991 92.1907C71.9743 91.3419 71.7035 90.528 71.2493 89.6753C70.7491 88.7412 70.3774 87.7567 70.6482 86.7645C70.4646 86.3304 70.2949 85.8963 70.1572 85.4506C70.1159 85.315 70.093 85.1871 70.0838 85.0592H47.5035C47.687 85.5243 47.687 86.0398 47.4117 86.4506Z" fill="#D64544"/>
<path d="M33.1689 46.4597C33.9627 47.8201 33.3846 50.2425 33.4167 51.7192C33.4626 53.9246 33.5911 56.126 33.8297 58.3236C34.0637 60.5174 34.3665 62.5948 35.3118 64.6606C36.2203 66.6412 36.8627 68.4396 37.1243 70.5635C37.1701 70.9472 37.3262 71.2767 37.5464 71.5402C37.5877 72.1643 37.6749 72.7728 37.9594 73.3231C37.8309 73.327 37.7024 73.3309 37.5693 73.3348C36.7755 73.0906 35.3714 73.1603 34.5042 73.0906C30.6039 72.7844 27.2772 74.2572 23.6385 75.168C23.5788 75.1835 23.5238 75.2029 23.4641 75.2184C22.138 72.8542 22.1656 70.2147 22.1747 67.6566C22.1839 65.1296 22.083 62.556 22.6015 60.0523C23.1659 57.3004 24.7351 55.1648 26.3503 52.7851C27.2405 51.4711 28.1903 50.0565 29.5164 48.9829C30.1772 48.6728 30.7737 48.3085 31.2142 47.855C31.6822 47.3705 31.8291 46.793 31.7419 46.2504C32.0998 46.2039 32.4669 46.169 32.8477 46.1186C32.9028 46.1109 32.9533 46.0992 33.0037 46.0876C33.045 46.2116 33.1001 46.3318 33.1689 46.4558V46.4597Z" fill="#D64544"/>
<path d="M83.253 46.1496C82.4592 47.51 83.0373 49.9324 83.0052 51.4091C82.9593 53.6145 82.8308 55.816 82.5922 58.0136C82.3582 60.2073 82.0554 62.2847 81.1101 64.3506C80.2016 66.3311 79.5592 68.1295 79.2976 70.2535C79.2518 70.6372 79.0957 70.9666 78.8755 71.2302C78.8342 71.8542 78.747 72.4627 78.4625 73.0131C78.591 73.0169 78.7195 73.0208 78.8526 73.0247C79.6464 72.7805 81.0505 72.8503 81.9177 72.7805C85.818 72.4743 89.1447 73.9471 92.7834 74.858C92.8431 74.8735 92.8981 74.8928 92.9578 74.9084C94.2839 72.5441 94.2563 69.9046 94.2472 67.3466C94.238 64.8195 94.3389 62.246 93.8204 59.7422C93.256 56.9903 91.6867 54.8548 90.0716 52.475C89.1814 51.1611 88.2316 49.7464 86.9055 48.6728C86.2447 48.3627 85.6482 47.9984 85.2077 47.5449C84.7397 47.0604 84.5928 46.4829 84.68 45.9403C84.3221 45.8938 83.955 45.8589 83.5742 45.8085C83.5191 45.8008 83.4686 45.7892 83.4182 45.7775C83.3769 45.9016 83.3218 46.0217 83.253 46.1457V46.1496Z" fill="#D64544"/>
<path d="M58.4931 46.7194C63.896 46.7194 68.2759 43.2349 68.2759 38.9367C68.2759 34.6384 63.896 31.154 58.4931 31.154C53.0902 31.154 48.7103 34.6384 48.7103 38.9367C48.7103 43.2349 53.0902 46.7194 58.4931 46.7194Z" fill="#ED1C24"/>
<path d="M62.9394 40.77L53.9963 41.0568L55.0333 43.5063C55.3591 43.5954 55.6803 43.6846 56.0061 43.7776C56.3594 43.8784 56.7128 43.9791 57.0615 44.0915C57.1624 44.1226 57.2588 44.1613 57.3689 44.1729C57.4791 44.1846 57.5938 44.1846 57.7085 44.1807C58.4381 44.1613 59.1676 44.1226 59.8926 44.0683C59.9936 44.0605 60.067 44.0412 60.1588 44.0063L60.3515 43.9288L60.8746 43.7195L61.8749 43.3164C61.9208 43.297 61.9667 43.2776 62.0125 43.2621L62.944 40.7738L62.9394 40.77Z" fill="#E8E5E1"/>
<path d="M63.2928 39.9211C63.1873 40.0142 63.0588 40.1266 62.8798 40.2002C62.8156 40.2273 62.7468 40.2467 62.6688 40.2622C61.9667 40.394 61.6134 39.7506 60.6177 39.7312C60.1267 39.7235 59.7504 39.8746 59.6128 39.9366C59.4797 39.9948 59.0484 40.1963 58.8557 40.5839C58.7547 40.7855 58.7547 40.9676 58.7639 41.0878C58.7547 41.1343 58.7501 41.1847 58.7501 41.2312C58.718 41.235 58.6492 41.1769 58.5895 41.0761L58.5528 41.0141L58.4611 40.7622C58.4519 40.7157 58.4427 40.6653 58.4381 40.6149C58.4381 40.549 58.4381 40.4831 58.4519 40.4172C58.5345 39.987 58.9658 39.7273 59.1218 39.6305C59.4522 39.4328 59.7688 39.3708 60.1542 39.2971C60.5167 39.2274 60.6314 39.2429 61.0123 39.2157C61.1087 39.208 61.2188 39.2002 61.3564 39.1886C62.1273 39.1188 62.5173 39.0801 62.9211 38.8824C63.4075 38.6499 63.4901 38.3824 63.6278 38.4212C63.871 38.491 63.9123 39.3669 63.2928 39.9134V39.9211Z" fill="#CDA4BB" stroke="#63324E" stroke-width="0.1" stroke-miterlimit="10"/>
<path d="M61.4941 41.2777C61.4941 41.673 61.0673 41.9908 60.5351 41.9908C60.0028 41.9908 59.576 41.673 59.576 41.2777C59.576 40.8823 60.0028 40.5645 60.5351 40.5645C60.5764 40.5645 60.6131 40.5645 60.6498 40.5684C60.5305 40.6459 60.4571 40.7544 60.4571 40.8785C60.4571 41.1071 60.714 41.2971 61.0306 41.2971C61.2096 41.2971 61.3702 41.2389 61.4757 41.142C61.4849 41.1847 61.4941 41.2312 61.4941 41.2777Z" fill="#323F4B"/>
<path d="M61.3702 39.9599C61.1362 39.8746 60.8792 39.8281 60.6039 39.8281C59.6678 39.8281 58.8924 40.3746 58.7639 41.0878C58.7547 41.1343 58.7501 41.1847 58.7501 41.2312C58.7501 41.2506 58.7501 41.2738 58.7501 41.2932C58.7501 41.3668 58.7593 41.4405 58.7731 41.5141C58.796 41.6226 58.8281 41.7273 58.8786 41.8242C59.1447 42.3745 59.8193 42.7621 60.6131 42.7621C61.3014 42.7621 61.9025 42.4676 62.2237 42.0257C62.3797 41.8087 62.4714 41.5606 62.4714 41.2932C62.4714 40.7002 62.0218 40.1847 61.3794 39.956L61.3702 39.9599Z" fill="white" stroke="#63324E" stroke-width="0.1" stroke-miterlimit="10"/>
<path d="M61.0306 41.2971C60.714 41.2971 60.4571 41.111 60.4571 40.8785C60.4571 40.7544 60.5305 40.642 60.6498 40.5684C60.6131 40.5684 60.5718 40.5645 60.5351 40.5645C60.0074 40.5645 59.576 40.8823 59.576 41.2777C59.576 41.673 60.0028 41.9908 60.5351 41.9908C61.0673 41.9908 61.4941 41.673 61.4941 41.2777C61.4941 41.2312 61.4895 41.1885 61.4757 41.142C61.3702 41.2389 61.2096 41.2971 61.0306 41.2971V41.2971Z" fill="#63324E"/>
<path d="M53.5879 39.9211C53.6935 40.0142 53.8219 40.1266 54.0009 40.2002C54.0651 40.2273 54.134 40.2467 54.212 40.2622C54.914 40.394 55.2673 39.7506 56.2631 39.7312C56.754 39.7235 57.1303 39.8746 57.268 39.9366C57.401 39.9948 57.8324 40.1963 58.0251 40.5839C58.126 40.7855 58.126 40.9676 58.1168 41.0878C58.126 41.1343 58.1306 41.1847 58.1306 41.2312C58.1627 41.2351 58.2316 41.1769 58.2912 41.0761L58.3279 41.0141L58.4197 40.7622C58.4289 40.7157 58.438 40.6653 58.4426 40.6149C58.4426 40.549 58.4426 40.4831 58.4289 40.4172C58.3463 39.987 57.9149 39.7273 57.7589 39.6305C57.4286 39.4328 57.1119 39.3708 56.7265 39.2971C56.364 39.2274 56.2493 39.2429 55.8684 39.2157C55.7721 39.208 55.662 39.2002 55.5243 39.1886C54.7534 39.1188 54.3634 39.0801 53.9596 38.8824C53.4732 38.6499 53.3906 38.3824 53.253 38.4212C53.0098 38.491 52.9685 39.3669 53.5879 39.9134V39.9211Z" fill="#CDA4BB" stroke="#63324E" stroke-width="0.1" stroke-miterlimit="10"/>
<path d="M55.3912 41.2777C55.3912 41.673 55.818 41.9908 56.3502 41.9908C56.8825 41.9908 57.3093 41.673 57.3093 41.2777C57.3093 40.8823 56.8825 40.5645 56.3502 40.5645C56.3089 40.5645 56.2722 40.5645 56.2355 40.5684C56.3548 40.6459 56.4283 40.7544 56.4283 40.8785C56.4283 41.1071 56.1713 41.2971 55.8547 41.2971C55.6757 41.2971 55.5151 41.2389 55.4096 41.142C55.4004 41.1847 55.3912 41.2312 55.3912 41.2777Z" fill="#323F4B"/>
<path d="M54.4185 41.2971C54.4185 41.5645 54.5102 41.8126 54.6662 42.0296C54.9874 42.4714 55.5885 42.766 56.2768 42.766C57.0661 42.766 57.7406 42.3746 58.0113 41.8281C58.0572 41.7312 58.0939 41.6304 58.1168 41.5219C58.1306 41.4482 58.1398 41.3746 58.1398 41.2971C58.1398 41.2777 58.1398 41.2544 58.1398 41.2351C58.1398 41.1885 58.1306 41.1382 58.126 41.0916C57.9975 40.3785 57.2221 39.832 56.286 39.832C56.0107 39.832 55.7537 39.8785 55.5197 39.9638C54.8773 40.1925 54.4276 40.7041 54.4276 41.3009L54.4185 41.2971Z" fill="white" stroke="#63324E" stroke-width="0.1" stroke-miterlimit="10"/>
<path d="M56.8412 41.2971C56.5246 41.2971 56.2676 41.111 56.2676 40.8785C56.2676 40.7545 56.341 40.6421 56.4603 40.5684C56.4236 40.5684 56.3823 40.5645 56.3456 40.5645C55.8179 40.5645 55.3866 40.8824 55.3866 41.2777C55.3866 41.673 55.8133 41.9908 56.3456 41.9908C56.8779 41.9908 57.3046 41.673 57.3046 41.2777C57.3046 41.2312 57.3 41.1885 57.2863 41.142C57.1807 41.2389 57.0201 41.2971 56.8412 41.2971V41.2971Z" fill="#63324E"/>
<path d="M58.9887 42.173L58.461 43.0179C58.2867 42.797 57.9517 42.3125 57.8737 42.2001C57.8645 42.1846 57.8553 42.1769 57.8553 42.1769L57.8966 42.0839L57.9609 41.9405L58.0802 41.6498L58.1169 41.2971V41.2854L58.2958 41.1071V41.0994L58.305 41.0916L58.3693 40.9482V40.9405L58.4473 40.7777L58.539 41.0296L58.5757 41.0916L58.6629 41.2467L58.7593 41.5296L58.8648 41.8397L58.9841 42.1846L58.9887 42.173Z" stroke="#63324E" stroke-width="0.1" stroke-miterlimit="10"/>
<path d="M62.2145 42.0296C61.8933 43.2195 60.2964 44.1225 58.3784 44.1225C56.3411 44.1225 54.6709 43.1032 54.5011 41.8048C54.7443 42.39 55.4418 42.8125 56.2631 42.8125C57.0202 42.8125 57.6764 42.4521 57.9609 41.9366L57.8966 42.08L57.8553 42.173C57.8553 42.173 57.8599 42.1808 57.8737 42.1963C57.9517 42.3087 58.2821 42.7931 58.461 43.0141L58.9887 42.1691L58.8694 41.8242C59.1355 42.3745 59.8101 42.7621 60.6039 42.7621C61.2922 42.7621 61.8933 42.4676 62.2145 42.0257V42.0296Z" stroke="#63324E" stroke-width="0.1" stroke-miterlimit="10"/>
<path d="M63.5497 41.5025C63.5497 42.9753 61.1728 44.1729 58.2453 44.1729C57.8323 44.1729 55.5748 44.3008 54.0055 43.1071C53.6338 42.8241 52.9409 42.2932 52.9409 41.5025C52.9409 40.7699 53.5374 40.2545 53.7302 40.0994C53.8495 40.1886 53.9963 40.2738 54.1936 40.3126C54.8956 40.4444 55.249 39.801 56.2447 39.7816C56.7357 39.7739 57.1119 39.9211 57.2496 39.987C57.3826 40.0452 57.814 40.2467 58.0067 40.6343C58.1076 40.8397 58.1076 41.018 58.0985 41.1382C57.97 40.425 57.1945 39.8785 56.2584 39.8785C55.8363 39.8785 55.4509 39.9909 55.1388 40.1769C54.6892 40.4444 54.4047 40.8707 54.4047 41.3474C54.4047 41.5102 54.4368 41.6653 54.4964 41.8087C54.6708 43.1071 56.341 44.1264 58.3738 44.1264C60.2918 44.1264 61.8886 43.2234 62.2098 42.0335C62.3658 41.8164 62.4576 41.5684 62.4576 41.3009C62.4576 40.7079 62.0079 40.1924 61.3655 39.9638C61.1315 39.8785 60.8745 39.832 60.5992 39.832C59.6632 39.832 58.8877 40.3785 58.7592 41.0916C58.7546 40.9715 58.75 40.7932 58.851 40.5878C59.0437 40.2002 59.4796 39.9987 59.6081 39.9405C59.7503 39.8746 60.122 39.7273 60.613 39.7351C61.6087 39.7545 61.9574 40.3979 62.6641 40.2661C62.7421 40.2506 62.8109 40.2312 62.8751 40.2041C63.3019 40.5878 63.5451 41.0335 63.5451 41.5025H63.5497Z" fill="#CDA4BB" stroke="#63324E" stroke-width="0.1" stroke-miterlimit="10"/>
<path d="M62.4622 41.2971C62.4622 41.5645 62.3705 41.8126 62.2144 42.0296C61.8932 43.2195 60.2964 44.1226 58.3784 44.1226C56.3411 44.1226 54.6709 43.1032 54.5011 41.8048C54.4414 41.6614 54.4093 41.5064 54.4093 41.3436C54.4093 40.8668 54.6984 40.4405 55.1435 40.1731C55.4555 39.987 55.8455 39.8746 56.2631 39.8746C57.1991 39.8746 57.9746 40.4211 58.1031 41.1343C58.1123 41.1808 58.1169 41.2312 58.1169 41.2777C58.1811 41.2118 58.2408 41.1459 58.305 41.08L58.3692 40.9366V40.9289C58.3922 40.8242 58.4105 40.7196 58.4289 40.6149C58.4564 40.7157 58.4839 40.8203 58.5069 40.9211C58.5298 40.9715 58.5528 41.0219 58.5757 41.0723C58.64 41.173 58.7042 41.2312 58.7363 41.2273C58.7363 41.1808 58.7455 41.1304 58.7501 41.0839C58.8786 40.3707 59.654 39.8242 60.5901 39.8242C60.8654 39.8242 61.1224 39.8708 61.3564 39.956C61.9988 40.1847 62.4485 40.6963 62.4485 41.2932L62.4622 41.2971Z" stroke="#63324E" stroke-width="0.1" stroke-miterlimit="10"/>
<path d="M62.6182 38.6382C62.5632 38.894 60.1496 38.4444 58.6537 39.6188C58.5528 39.7002 58.4702 39.7739 58.4151 39.8281C58.3784 39.7816 58.3096 39.6963 58.204 39.5994C57.8232 39.2545 57.2267 38.9948 55.3454 38.7351C54.3955 38.6034 54.1844 38.6189 54.1707 38.5491C54.1248 38.3204 56.1621 37.6654 58.3463 37.677C60.7782 37.6887 62.6641 38.4057 62.6136 38.6344L62.6182 38.6382Z" fill="#63324E"/>
<path d="M51.078 38.0065L58.4289 35.6306L65.6054 38.0065L64.0086 38.615C63.9443 38.3863 63.8388 38.177 63.6598 38.1421C63.3065 38.0801 62.8844 38.7274 62.7192 38.6615C62.6687 38.6421 62.6412 38.553 62.7054 38.3049C61.8749 38.0103 60.3607 37.5763 58.4059 37.5724C56.4283 37.5724 54.9003 38.0065 54.0652 38.3049C54.1477 38.5723 54.1202 38.646 54.0789 38.6615C53.9275 38.7274 53.487 38.084 53.1612 38.1499C52.9777 38.1886 52.8997 38.4406 52.863 38.6615L51.0826 38.0026L51.078 38.0065Z" fill="#63324E"/>
<path d="M58.4243 41.235L58.0297 42.049L58.4243 42.766L58.8418 42.0257L58.4243 41.235Z" fill="#FEE174"/>
<path d="M64.6143 38.3786V40.1188C64.6143 40.1188 64.5179 40.0878 64.4537 40.1188C64.3573 40.1653 64.3527 40.3204 64.4537 40.3707C64.5179 40.4017 64.6005 40.3746 64.6143 40.3707V40.5762C64.4904 40.8785 64.3711 41.1808 64.2472 41.4831H65.2108L64.8116 40.5723V40.3824C64.8437 40.3901 64.8988 40.4017 64.9401 40.3824C65.0272 40.3397 65.0227 40.1731 64.9217 40.1304C64.8712 40.1111 64.8162 40.1227 64.7886 40.1304V38.3398L64.6097 38.3824L64.6143 38.3786Z" fill="#CDA4BB" stroke="#63324E" stroke-width="0.1" stroke-miterlimit="10"/>
<path d="M65.9817 110.787C66.5002 108.721 67.5189 106.752 68.7945 104.938C68.8174 104.838 68.8404 104.733 68.8587 104.632C68.8587 104.613 68.8725 104.593 68.8771 104.574C68.8771 100.803 67.2435 97.4696 64.7428 95.4464C62.2787 95.5821 59.7734 95.3689 57.3185 95.2565C56.2218 95.2061 54.9737 95.2798 53.7669 95.241C51.1193 97.2371 49.3711 100.671 49.3711 104.574C49.3711 106.078 49.6372 107.512 50.1099 108.822C50.431 108.915 50.7477 109.086 51.0367 109.357C51.1147 109.43 51.1836 109.504 51.2616 109.578C51.3442 109.648 51.4222 109.721 51.491 109.803C51.8214 110.136 52.1426 110.477 52.4638 110.818C53.8312 111.884 55.1894 112.919 56.4145 114.093C56.8596 114.275 57.2818 114.5 57.6626 114.814C58.9979 114.457 60.402 114.372 61.7464 114.062C62.9073 112.857 64.7152 112.19 65.9542 110.996C65.9633 110.93 65.9771 110.861 65.9909 110.791L65.9817 110.787Z" fill="#F7D070"/>
<path d="M47.2328 85.6754C46.1178 85.6754 45.2001 85.6599 44.287 85.6793C43.5298 85.6948 43.2086 85.3886 43.227 84.7762C43.2362 84.4662 43.1949 84.1522 43.227 83.8422C43.5253 81.1833 42.7268 78.7106 41.777 76.1951C40.3775 72.4821 39.2487 68.6954 38.1245 64.9164C35.9312 57.5446 35.7477 50.041 36.3717 42.5141C36.5919 39.8553 36.9636 37.1771 37.6381 34.5764C38.565 31.0106 39.7122 27.4758 41.0337 23.9992C41.9697 21.5303 43.1444 19.0885 44.5806 16.7979C46.7877 13.2748 49.1646 9.80976 51.748 6.47654C53.4228 4.3177 55.5978 2.43792 57.5479 0.426356C58.0389 -0.0813791 58.539 -0.166648 59.1218 0.32946C59.3237 0.499997 59.6173 0.604644 59.7917 0.790685C61.6638 2.81775 63.6094 4.80218 65.353 6.90676C66.9223 8.80592 68.3356 10.8059 69.68 12.8252C70.9327 14.7088 72.1303 16.6351 73.1169 18.6234C74.4751 21.3598 75.6406 24.162 76.8382 26.9526C79.1784 32.4059 79.9814 38.0995 80.4678 43.8358C80.6329 45.7814 80.9633 47.7387 80.8486 49.6728C80.4494 56.5989 79.55 63.4824 77.4347 70.2031C76.6547 72.6836 75.6222 75.106 74.7045 77.5556C74.3787 78.4276 74.0621 79.257 74.1998 80.2454C74.4017 81.7182 74.2227 83.2259 74.264 84.722C74.2824 85.4778 73.874 85.7064 73.0572 85.6754C72.2267 85.6444 71.3962 85.6677 70.4096 85.6677C70.5656 86.2491 70.662 86.6677 70.7951 87.0746C71.6026 89.5629 72.4194 92.0473 73.2224 94.5356C73.5574 95.5782 73.3922 95.7759 72.1441 95.7836C70.3867 95.7991 68.6247 95.7875 66.6332 95.7875C66.8994 96.3185 67.0875 96.7022 67.2756 97.082C68.9551 100.489 69.5103 103.958 68.0924 107.535C67.0416 110.186 64.9997 112.209 62.4622 113.923C61.5721 114.523 60.6544 115.097 59.7412 115.671C59.0392 116.112 58.406 116.078 57.6443 115.643C55.0425 114.155 52.5785 112.523 50.922 110.244C47.7926 105.931 48.0542 101.446 50.2888 96.9193C50.431 96.6324 50.5779 96.3495 50.7201 96.0666C50.7339 96.0394 50.7201 96.0045 50.7201 95.7875C49.7611 95.7875 48.7929 95.7875 47.8247 95.7875C46.9391 95.7875 46.0581 95.7991 45.1726 95.7875C43.9061 95.7681 43.7088 95.5666 44.0713 94.5589C44.9844 92.0124 45.9251 89.4699 46.8474 86.9235C46.9759 86.5746 47.063 86.2181 47.2282 85.6638L47.2328 85.6754ZM58.383 1.4302C58.0435 1.85654 57.8966 2.07359 57.7177 2.26738C55.7538 4.42622 53.6339 6.49592 51.8443 8.75553C48.9489 12.4182 46.4803 16.3134 44.4934 20.3869C42.4699 24.5418 40.7629 28.7936 39.7076 33.2276C38.51 38.2662 37.9226 43.3552 37.684 48.4751C37.6014 50.2309 37.8676 52.006 38.0924 53.7579C38.5513 57.3043 38.9321 60.8662 39.6433 64.3777C40.1802 67.0249 41.1346 69.614 41.9743 72.2108C42.5938 74.1254 43.3692 76.0052 44.0162 77.9121C44.3191 78.8075 44.8101 79.1757 46.0123 79.1602C52.2343 79.0865 58.4564 79.1098 64.6785 79.102C66.8489 79.102 69.0239 79.0981 71.1943 79.1292C71.933 79.1408 72.3093 78.9237 72.5433 78.3075C72.9104 77.3424 73.5207 76.4354 73.8465 75.4626C75.1175 71.6759 76.5537 67.9125 77.4806 64.0638C78.2928 60.6957 78.6782 57.2384 78.9535 53.8005C79.5546 46.3279 79.1921 38.8902 76.7327 31.6307C75.6635 28.4797 74.5302 25.3402 73.2041 22.2628C72.2038 19.9451 70.9327 17.701 69.625 15.4879C68.4962 13.581 67.2527 11.7089 65.8715 9.92604C64.0866 7.61991 62.1273 5.40681 60.2139 3.17433C59.7458 2.63171 59.1585 2.16273 58.383 1.42632V1.4302ZM58.7501 95.8534C57.2038 95.8534 55.6528 95.9348 54.1157 95.8263C52.9593 95.7449 52.3261 96.1945 51.8994 96.9503C50.2108 99.954 49.4261 103.438 50.5641 106.686C51.1101 108.248 52.1013 109.671 53.3402 110.911C54.5791 112.151 56.1163 113.26 57.7131 114.221C58.8602 114.911 60.0165 114.031 60.9021 113.457C62.008 112.74 63.0633 111.958 63.9856 111.07C66.5048 108.651 67.8722 105.338 67.4454 102.117C67.1701 100.024 66.1973 98.0394 64.9355 96.2371C64.7841 96.0201 64.2839 95.8766 63.9398 95.8689C62.2099 95.834 60.48 95.8534 58.7547 95.8495L58.7501 95.8534ZM71.722 94.5821C71.5889 94.1054 71.5109 93.7449 71.387 93.3961C70.7216 91.5628 70.015 89.7412 69.3818 87.9002C68.6247 85.6948 68.6522 85.6871 65.9312 85.6871C60.6681 85.6871 55.4005 85.6871 50.1374 85.6754C49.4216 85.6754 48.9122 85.7297 48.6644 86.4545C47.8018 88.9815 46.852 91.4853 45.9434 94.0046C45.8838 94.1713 45.893 94.3534 45.8608 94.5821H71.7174H71.722ZM58.718 84.377C62.2879 84.377 65.8578 84.377 69.4277 84.377C72.4791 84.377 72.424 84.3809 72.5295 81.7918C72.5663 80.819 72.2038 80.5942 71.1071 80.602C63.3432 80.6368 55.5748 80.6175 47.811 80.6136C44.7412 80.6136 44.7733 80.6136 44.755 83.1949C44.7504 84.0553 45.0303 84.408 46.1361 84.3964C50.3301 84.3499 54.5286 84.377 58.7226 84.377H58.718Z" fill="#3C3C3C"/>
<path d="M34.4493 49.6415C34.5824 56.1878 35.3212 62.6721 37.3814 69.0052C37.8173 70.3385 38.5286 71.6059 39.0562 72.9159C39.1847 73.2299 39.0884 73.6058 39.093 73.9547C38.68 73.9469 38.2165 74.0399 37.854 73.9198C32.8387 72.2764 28.3465 73.1291 24.2214 75.8809C23.3726 76.4468 22.776 76.2763 22.4594 75.3422C21.0829 71.2881 20.7204 67.1526 21.1884 62.9667C21.3444 61.5791 21.661 60.1993 22.0281 58.8389C22.8357 55.8312 24.4646 53.0871 26.6442 50.6764C28.4016 48.7307 30.6821 47.1183 32.7653 45.3858C32.9993 45.1882 33.6142 45.0254 33.7932 45.1378C34.1144 45.3393 34.3943 45.7579 34.4172 46.0951C34.4906 47.2734 34.4447 48.4555 34.4447 49.6376L34.4493 49.6415ZM32.5221 47.2501C23.3358 53.1143 20.0137 65.6914 24.0241 74.4508C27.929 72.0749 32.2376 71.3191 36.739 72.2803C35.6928 68.0983 34.4126 64.017 33.7152 59.866C33.0177 55.6995 32.8984 51.4632 32.5267 47.2501H32.5221Z" fill="#3C3C3C"/>
<path d="M96.0001 67.1838C95.8486 68.2923 95.6513 70.3077 95.2797 72.296C95.0778 73.3852 94.6097 74.4394 94.2243 75.4975C93.9123 76.354 93.5498 76.4122 92.6275 75.8347C90.6911 74.6293 88.6354 73.6371 86.2172 73.2766C83.7991 72.9123 81.4635 73.1138 79.1738 73.8619C78.7792 73.9898 78.2928 73.92 77.8523 73.9433C77.8661 73.5944 77.8018 73.2301 77.9074 72.9046C78.6874 70.5093 79.5271 68.1295 80.3026 65.7342C82.3674 59.343 82.5326 52.7967 82.5372 46.2349C82.5372 45.1109 83.0787 45.1225 84.1432 45.4365C84.3451 45.4946 84.5516 45.5993 84.6984 45.7272C86.5522 47.3938 88.4932 49.0022 90.2185 50.7619C92.5999 53.192 93.7792 56.1222 94.8529 59.1182C95.6972 61.4824 95.8762 63.8545 96.0001 67.1838ZM93.123 74.2223C93.1093 74.2456 93.2377 74.0906 93.279 73.92C94.963 66.9358 94.9906 60.1181 90.6957 53.6532C89.1218 51.2851 87.0294 49.3239 84.7994 47.4287C84.6434 47.2969 84.3864 47.2465 84.0469 47.1031C83.7761 55.6919 83.3173 64.1413 79.7703 72.1139C82.1243 72.1139 84.4415 71.8426 86.6165 72.1914C88.8373 72.5441 90.9159 73.5092 93.123 74.2262V74.2223Z" fill="#3C3C3C"/>
<path d="M72.814 38.2003C72.8782 41.2738 72.2083 43.5218 70.4922 45.3861C67.2618 48.8976 62.9486 50.6301 57.6305 50.413C54.4965 50.2851 51.7158 49.4053 49.1783 47.7969C45.6314 45.5489 43.8556 42.5916 43.7546 38.9096C43.6308 34.5609 47.6136 30.0416 52.2756 28.5146C57.3047 26.8673 62.141 27.0611 66.6424 29.4758C70.6298 31.6152 72.8645 34.7779 72.814 38.2003ZM59.5806 28.689C54.1799 28.6425 50.5457 30.0726 47.9486 32.902C45.0532 36.0492 44.6494 39.6886 46.7189 43.2815C48.8755 47.0256 52.7207 48.9364 57.5616 49.1883C63.5864 49.5022 68.1245 47.0527 70.4738 42.7738C72.0523 39.894 71.8275 36.9251 69.7672 34.0648C67.1655 30.4408 63.3157 28.9021 59.5806 28.689Z" fill="#00AEEF"/>
<path d="M57.5112 18.3327C54.7443 18.0692 51.8259 17.8211 48.9214 17.4994C48.2652 17.4258 47.1869 17.4219 47.3888 16.5305C47.6045 15.5886 48.6231 15.9491 49.316 16.0809C55.4738 17.2281 61.6271 17.1545 67.7895 16.1196C67.9685 16.0886 68.1842 15.9956 68.3218 16.0498C68.6797 16.1855 69.0055 16.387 69.3405 16.5615C69.0973 16.7979 68.8954 17.1855 68.6017 17.2475C67.3903 17.4994 66.1606 17.7165 64.9263 17.825C62.5173 18.0343 60.0991 18.1622 57.5112 18.3366V18.3327Z" fill="#3C3C3C"/>
<path d="M58.328 16.0227C55.5932 15.7553 53.0007 15.5382 50.4265 15.2204C49.7611 15.139 48.6232 15.1041 48.8985 14.1391C49.16 13.2205 50.1603 13.6662 50.766 13.7941C55.9006 14.8716 61.0169 14.8367 66.1606 13.86C66.7617 13.7476 67.8125 13.2786 68.0007 14.2205C68.1796 15.108 67.0462 15.046 66.4084 15.1274C63.6874 15.4724 60.9572 15.7359 58.3234 16.0227H58.328Z" fill="#3C3C3C"/>
<path d="M76.6317 38.208C76.5491 38.5142 76.3885 38.9793 76.1132 39.208C75.6865 39.5568 75.2873 38.7933 75.168 38.5452C75.0074 38.2119 74.9569 37.8476 74.911 37.4949C74.5623 34.9329 73.617 32.495 72.7773 30.03C72.4928 29.2006 72.1716 28.375 71.9238 27.534C71.7954 27.0882 71.5981 26.658 71.4971 26.2084C71.4283 25.8984 71.286 25.193 71.6669 24.972C71.9009 24.8364 72.4928 25.224 72.6213 25.3751C72.8599 25.6581 73.0113 26.0573 73.1857 26.3712C73.5574 27.0379 73.9015 27.72 74.1126 28.437C74.5944 30.0765 75.0441 31.7199 75.48 33.3671C75.8195 34.6384 76.1637 35.9135 76.5996 37.1654C76.7189 37.5104 76.7143 37.8669 76.6225 38.2119L76.6317 38.208Z" fill="#3C3C3C"/>
<path d="M64.5592 77.3385C63.9718 77.3191 63.3891 77.2997 62.8018 77.292C62.2649 77.2842 61.728 77.2803 61.1912 77.2803C60.7323 77.2803 60.1725 77.354 59.7733 77.1176C59.7182 77.0866 59.6724 77.0478 59.6311 77.0052C59.5255 76.8889 59.498 76.7339 59.4934 76.5866C59.4934 76.4005 59.5255 76.199 59.6724 76.0595C59.8926 75.8463 60.2781 75.8424 60.613 75.854C62.7742 75.9238 64.9309 76.0013 67.0875 76.075C67.2343 76.0788 67.3811 76.075 67.528 76.075C70.5151 76.0129 70.9969 75.7106 71.9468 73.2921C72.0615 72.9975 72.1119 72.6487 72.3322 72.4278C72.5249 72.2379 72.9517 72.0635 73.2086 72.1138C73.4702 72.1642 73.8235 72.4859 73.851 72.7107C74.0713 74.6564 71.7082 77.1796 69.4185 77.3462C67.7987 77.4625 66.1744 77.3927 64.55 77.3385H64.5592Z" fill="#3C3C3C"/>
<path d="M74.1677 65.2343C74.1448 65.1567 74.1677 65.0715 74.1861 64.994C74.4797 63.7498 74.7734 62.5057 75.0671 61.2615C75.1175 61.0522 75.1588 60.7654 75.3286 60.5988C75.7921 60.1414 76.3197 60.2073 76.5492 60.8003C76.6042 60.9476 76.5767 61.1065 76.5492 61.2576C76.384 62.1375 76.2004 63.0173 75.9939 63.8893C75.8746 64.3932 75.7462 65.928 74.7917 65.8505C74.4568 65.8234 74.2732 65.5017 74.1769 65.2653C74.1769 65.2575 74.1723 65.2459 74.1677 65.2381V65.2343Z" fill="#3C3C3C"/>
<path d="M75.9985 52.6882C76.0122 52.1998 76.0535 51.6649 76.2141 51.2386C76.3289 50.9402 76.7418 50.6844 77.1135 50.6534C78.0587 50.572 77.9624 51.9866 77.9348 52.4634C77.8981 53.0757 77.9303 54.6493 76.8336 54.6145C76.1224 54.5912 75.9801 53.475 75.9893 53.0564C75.9893 52.9401 75.9939 52.8161 75.9985 52.6882Z" fill="#3C3C3C"/>
<path d="M51.0275 103.334C51.0275 101.214 51.9728 99.1595 53.4824 97.2215C53.9367 96.6363 54.68 96.7874 54.703 97.5355C54.7259 98.2835 53.8357 99.1556 53.5421 99.8339C52.762 101.636 52.5968 103.574 53.0924 105.45C53.4733 106.88 54.3405 108.151 55.4463 109.268C56.0107 109.837 56.6348 110.361 57.2726 110.872C57.7636 111.264 58.7914 111.744 59.0621 112.252C59.3558 112.802 58.7226 113.171 58.149 113.147C57.5754 113.124 57.034 112.671 56.6485 112.376C55.7629 111.698 55.0563 110.865 54.3497 110.051C52.5922 108.024 51.0184 105.95 51.023 103.338L51.0275 103.334Z" fill="#3C3C3C"/>
<path d="M65.0593 107.384C65.0502 107.508 64.9767 107.628 64.9079 107.737C63.9718 109.221 62.8109 110.628 61.2692 111.694C60.9342 111.926 60.535 112.151 60.1037 112.124C60.0303 112.12 59.9523 112.105 59.8926 112.074C59.2273 111.717 60.3469 110.663 60.5947 110.38C60.9067 110.02 61.2325 109.667 61.5583 109.314C62.141 108.686 62.7192 108.058 63.3432 107.462C63.5864 107.225 63.8617 106.981 64.2242 106.907C64.5867 106.834 65.041 107.016 65.0639 107.33C65.0639 107.349 65.0639 107.369 65.0639 107.388L65.0593 107.384Z" fill="#3C3C3C"/>
<path d="M66.6791 103.311C66.725 104.307 66.1927 105.431 65.2245 105.857C65.1694 105.88 65.1052 105.907 65.0409 105.896C64.9859 105.888 64.94 105.853 64.9033 105.818C64.7014 105.632 64.6326 105.372 64.6004 105.121C64.5454 104.655 64.6004 104.186 64.6555 103.721C64.7106 103.264 64.7656 102.803 64.9171 102.361C64.9905 102.14 65.1006 101.636 65.3897 101.535C65.7614 101.404 66.1927 102.024 66.3395 102.229C66.5506 102.535 66.6653 102.911 66.6837 103.307L66.6791 103.311Z" fill="#3C3C3C"/>
<path d="M47.6136 39.9367C47.5081 34.8399 51.7754 30.8478 57.2817 30.4408C62.7008 30.0416 67.5555 32.6733 68.8082 36.774C69.6525 39.5452 69.1064 42.1614 66.8856 44.297C63.3615 47.6845 57.7222 48.4596 53.1382 46.3822C49.6555 44.8047 47.8843 42.3048 47.6136 39.9328V39.9367ZM58.4839 46.3124C63.3707 46.4054 67.7712 42.8474 67.7803 38.9754C67.7895 35.0337 63.3845 31.4796 58.3187 31.5803C53.3401 31.6772 49.2288 34.7004 49.2104 38.9328C49.1875 43.2427 53.4732 46.3279 58.4839 46.3163V46.3124Z" fill="#00AEEF" stroke="#00AEEF" stroke-miterlimit="10"/>
<path opacity="0.05" d="M57.7828 46.6368C63.1857 46.6368 67.5656 43.1524 67.5656 38.8541C67.5656 34.5559 63.1857 31.0714 57.7828 31.0714C52.3799 31.0714 48 34.5559 48 38.8541C48 43.1524 52.3799 46.6368 57.7828 46.6368Z" fill="#ED1C24"/>
<path opacity="0.2" d="M71.9967 39.1396C71.8869 43.2321 68.875 46.7913 64.7554 48.5164C60.6038 50.2576 55.4544 50.0839 51.4492 48.1043C48.5426 46.6661 46.254 44.2219 45.3797 41.3818C43.9241 36.6429 46.7987 31.8515 51.5179 29.5244C52.3601 29.1083 53.2527 28.769 54.1773 28.5185C58.8004 27.2621 64.1054 28.167 67.7764 30.9788C70.4404 33.0231 72.0837 36.0005 71.9967 39.1356V39.1396Z" fill="#00AEEF"/>
<path d="M54.3083 35.6306C54.9038 35.6306 55.3866 35.2228 55.3866 34.7198C55.3866 34.2167 54.9038 33.8089 54.3083 33.8089C53.7128 33.8089 53.23 34.2167 53.23 34.7198C53.23 35.2228 53.7128 35.6306 54.3083 35.6306Z" fill="white"/>
</g>
<rect x="16.8317" y="64.2143" width="82.9263" height="18.3007" fill="#323F4B"/>
<path d="M14.7789 74.3381H0L5.33684 80.5681V81.3469L0 87.5769H29.1474V84.4619H14.7789V74.3381Z" fill="#323F4B"/>
<path d="M102.221 74.3381H117L111.663 80.5681V81.3469L117 87.5769H87.8526V84.4619H102.221V74.3381Z" fill="#323F4B"/>
<path d="M48.2518 78.4063C47.8838 78.4063 47.5318 78.3543 47.1958 78.2503C46.8598 78.1463 46.5518 77.9903 46.2718 77.7823C45.9918 77.5743 45.7478 77.3223 45.5398 77.0263C45.3318 76.7223 45.1678 76.3703 45.0478 75.9703L46.5718 75.3703C46.6838 75.8023 46.8798 76.1623 47.1598 76.4503C47.4398 76.7303 47.8078 76.8703 48.2638 76.8703C48.4318 76.8703 48.5918 76.8503 48.7438 76.8103C48.9038 76.7623 49.0438 76.6983 49.1638 76.6183C49.2918 76.5303 49.3918 76.4223 49.4638 76.2943C49.5358 76.1663 49.5718 76.0183 49.5718 75.8503C49.5718 75.6903 49.5438 75.5463 49.4878 75.4183C49.4318 75.2903 49.3358 75.1703 49.1998 75.0583C49.0718 74.9463 48.8998 74.8383 48.6838 74.7343C48.4758 74.6303 48.2158 74.5223 47.9038 74.4103L47.3758 74.2183C47.1438 74.1383 46.9078 74.0303 46.6678 73.8943C46.4358 73.7583 46.2238 73.5943 46.0318 73.4023C45.8398 73.2103 45.6798 72.9863 45.5518 72.7303C45.4318 72.4663 45.3718 72.1703 45.3718 71.8423C45.3718 71.5063 45.4358 71.1943 45.5638 70.9063C45.6998 70.6103 45.8878 70.3543 46.1278 70.1383C46.3758 69.9143 46.6678 69.7423 47.0038 69.6223C47.3478 69.4943 47.7278 69.4303 48.1438 69.4303C48.5758 69.4303 48.9478 69.4903 49.2598 69.6103C49.5798 69.7223 49.8478 69.8703 50.0638 70.0543C50.2878 70.2303 50.4678 70.4263 50.6038 70.6423C50.7398 70.8583 50.8398 71.0623 50.9038 71.2543L49.4758 71.8543C49.3958 71.6143 49.2478 71.3983 49.0318 71.2063C48.8238 71.0143 48.5358 70.9183 48.1678 70.9183C47.8158 70.9183 47.5238 71.0023 47.2918 71.1703C47.0598 71.3303 46.9438 71.5423 46.9438 71.8063C46.9438 72.0623 47.0558 72.2823 47.2798 72.4663C47.5038 72.6423 47.8598 72.8143 48.3478 72.9823L48.8878 73.1623C49.2318 73.2823 49.5438 73.4223 49.8238 73.5823C50.1118 73.7343 50.3558 73.9183 50.5558 74.1343C50.7638 74.3503 50.9198 74.5983 51.0238 74.8783C51.1358 75.1503 51.1918 75.4663 51.1918 75.8263C51.1918 76.2743 51.0998 76.6623 50.9158 76.9903C50.7398 77.3103 50.5118 77.5743 50.2318 77.7823C49.9518 77.9903 49.6358 78.1463 49.2838 78.2503C48.9318 78.3543 48.5878 78.4063 48.2518 78.4063ZM52.6774 73.6783H51.6454V72.3343H52.6774V70.5343H54.2494V72.3343H55.6894V73.6783H54.2494V75.9583C54.2494 76.0943 54.2614 76.2223 54.2854 76.3423C54.3174 76.4543 54.3734 76.5503 54.4534 76.6303C54.5654 76.7583 54.7254 76.8223 54.9334 76.8223C55.0694 76.8223 55.1774 76.8103 55.2574 76.7863C55.3374 76.7543 55.4134 76.7143 55.4854 76.6663L55.9294 78.0463C55.7454 78.1343 55.5454 78.1983 55.3294 78.2383C55.1214 78.2863 54.8894 78.3103 54.6334 78.3103C54.3374 78.3103 54.0694 78.2663 53.8294 78.1783C53.5974 78.0823 53.4014 77.9543 53.2414 77.7943C52.8654 77.4343 52.6774 76.9223 52.6774 76.2583V73.6783ZM60.3526 77.5903H60.2566C60.0726 77.8143 59.8486 78.0063 59.5846 78.1663C59.3286 78.3263 58.9966 78.4063 58.5886 78.4063C58.2846 78.4063 57.9966 78.3543 57.7246 78.2503C57.4606 78.1543 57.2286 78.0183 57.0286 77.8423C56.8286 77.6663 56.6726 77.4543 56.5606 77.2063C56.4486 76.9583 56.3926 76.6863 56.3926 76.3903C56.3926 76.0863 56.4526 75.8143 56.5726 75.5743C56.6926 75.3263 56.8606 75.1143 57.0766 74.9383C57.2926 74.7623 57.5446 74.6303 57.8326 74.5423C58.1286 74.4463 58.4486 74.3983 58.7926 74.3983C59.1766 74.3983 59.4926 74.4303 59.7406 74.4943C59.9886 74.5503 60.1926 74.6103 60.3526 74.6743V74.4943C60.3526 74.1823 60.2286 73.9263 59.9806 73.7263C59.7326 73.5183 59.4246 73.4143 59.0566 73.4143C58.5126 73.4143 58.0526 73.6423 57.6766 74.0983L56.5366 73.3183C57.1606 72.5343 58.0126 72.1423 59.0926 72.1423C60.0046 72.1423 60.7006 72.3583 61.1806 72.7903C61.6606 73.2143 61.9006 73.8463 61.9006 74.6863V78.2143H60.3526V77.5903ZM60.3526 75.8263C60.1686 75.7383 59.9766 75.6703 59.7766 75.6223C59.5846 75.5663 59.3726 75.5383 59.1406 75.5383C58.7646 75.5383 58.4726 75.6223 58.2646 75.7903C58.0646 75.9503 57.9646 76.1503 57.9646 76.3903C57.9646 76.6303 58.0606 76.8223 58.2526 76.9663C58.4526 77.1103 58.6806 77.1823 58.9366 77.1823C59.1446 77.1823 59.3366 77.1463 59.5126 77.0743C59.6886 76.9943 59.8366 76.8943 59.9566 76.7743C60.0846 76.6463 60.1806 76.5023 60.2446 76.3423C60.3166 76.1743 60.3526 76.0023 60.3526 75.8263ZM64.6265 73.1503H64.7225C64.8825 72.8543 65.1145 72.6183 65.4185 72.4423C65.7305 72.2583 66.0745 72.1663 66.4505 72.1663C66.5865 72.1663 66.6945 72.1703 66.7745 72.1783C66.8545 72.1863 66.9305 72.2023 67.0025 72.2263V73.7863C66.9145 73.7463 66.8145 73.7143 66.7025 73.6903C66.5985 73.6663 66.4705 73.6543 66.3185 73.6543C65.8225 73.6543 65.4305 73.8063 65.1425 74.1103C64.8625 74.4063 64.7225 74.8143 64.7225 75.3343V78.2143H63.1505V72.3343H64.6265V73.1503ZM68.7425 73.6783H67.7105V72.3343H68.7425V70.5343H70.3145V72.3343H71.7545V73.6783H70.3145V75.9583C70.3145 76.0943 70.3265 76.2223 70.3505 76.3423C70.3825 76.4543 70.4385 76.5503 70.5185 76.6303C70.6305 76.7583 70.7905 76.8223 70.9985 76.8223C71.1345 76.8223 71.2425 76.8103 71.3225 76.7863C71.4025 76.7543 71.4785 76.7143 71.5505 76.6663L71.9945 78.0463C71.8105 78.1343 71.6105 78.1983 71.3945 78.2383C71.1865 78.2863 70.9545 78.3103 70.6985 78.3103C70.4025 78.3103 70.1345 78.2663 69.8945 78.1783C69.6625 78.0823 69.4665 77.9543 69.3065 77.7943C68.9305 77.4343 68.7425 76.9223 68.7425 76.2583V73.6783Z" fill="white"/>
<defs>
<clipPath id="clip0_1808_10044">
<rect width="75" height="116" fill="white" transform="translate(21)"/>
</clipPath>
</defs>
</svg>
