<svg width="18" height="18" viewBox="0 0 18 18" fill="none" xmlns="http://www.w3.org/2000/svg">
<path d="M10.7089 2.08915L11.2064 2.0394V2.0394L10.7089 2.08915ZM10.663 1.74895L11.147 1.62342V1.62342L10.663 1.74895ZM10.7953 2.69811L10.3216 2.85804V2.85804L10.7953 2.69811ZM12.1866 3.27438L12.4085 3.72245V3.72245L12.1866 3.27438ZM12.6783 2.9049L12.3617 2.51793V2.51793L12.6783 2.9049ZM12.9513 2.69683L12.6978 2.26584L12.6978 2.26584L12.9513 2.69683ZM14.0485 2.75155L13.7534 3.15518V3.15518L14.0485 2.75155ZM14.2994 2.98575L13.9459 3.3393L13.9516 3.345L13.9574 3.35052L14.2994 2.98575ZM14.2994 2.98576L14.653 2.63221L14.6473 2.6265L14.6414 2.62099L14.2994 2.98576ZM15.0142 3.70053L14.6607 4.05409L15.0142 3.70053ZM15.2484 3.95151L14.8448 4.24661L14.8448 4.24661L15.2484 3.95151ZM15.3031 5.04864L14.8722 4.79517L14.8722 4.79518L15.3031 5.04864ZM15.0951 5.32168L15.4486 5.67523L15.4662 5.6576L15.482 5.6383L15.0951 5.32168ZM15.0951 5.32169L14.7415 4.96814L14.7239 4.98577L14.7081 5.00507L15.0951 5.32169ZM14.7256 5.81342L15.1736 6.0353L15.1736 6.0353L14.7256 5.81342ZM15.3018 7.20464L15.4618 6.73091V6.73091L15.3018 7.20464ZM15.9108 7.29108L15.9606 6.79356H15.9606L15.9108 7.29108ZM16.2511 7.33702L16.3766 6.85303L16.3766 6.85303L16.2511 7.33702ZM16.9881 8.15149L17.4822 8.07474V8.07474L16.9881 8.15149ZM16.9882 9.84843L17.4822 9.92515L17.4822 9.92514L16.9882 9.84843ZM16.251 10.663L16.3765 11.147L16.3765 11.147L16.251 10.663ZM15.9109 10.7089L15.9607 11.2064H15.9607L15.9109 10.7089ZM15.3023 10.7953L15.1424 10.3215H15.1424L15.3023 10.7953ZM14.7259 12.1867L14.2779 12.4087L14.7259 12.1867ZM15.0952 12.678L14.7082 12.9947V12.9947L15.0952 12.678ZM15.0952 12.6781L14.7082 12.9947L14.7082 12.9947L15.0952 12.6781ZM15.3031 12.9509L15.7341 12.6974L15.7341 12.6974L15.3031 12.9509ZM15.2484 14.0482L15.652 14.3434L15.652 14.3434L15.2484 14.0482ZM15.0144 14.299L15.3679 14.6526L15.3679 14.6526L15.0144 14.299ZM15.0143 14.299L15.3679 14.6526H15.3679L15.0143 14.299ZM14.2995 15.0139L13.9459 14.6603H13.9459L14.2995 15.0139ZM14.0485 15.2481L14.3436 15.6517L14.3436 15.6517L14.0485 15.2481ZM12.9514 15.3028L12.6979 15.7338L12.6979 15.7338L12.9514 15.3028ZM12.6784 15.0948L12.3491 15.471L12.3553 15.4765L12.3617 15.4817L12.6784 15.0948ZM12.6783 15.0947L13.0076 14.7185L13.0014 14.713L12.995 14.7078L12.6783 15.0947ZM12.1866 14.7253L11.9647 15.1733L12.1866 14.7253ZM10.7954 15.3015L11.2691 15.4615L11.2691 15.4615L10.7954 15.3015ZM10.7089 15.9106L11.2052 15.9727L11.2065 15.9604L10.7089 15.9106ZM10.7089 15.9107L11.204 15.9814L11.2051 15.9727L10.7089 15.9107ZM10.7089 15.9107L10.214 15.84L10.2125 15.8504L10.2114 15.8609L10.7089 15.9107ZM10.663 16.2511L11.1469 16.3767L11.1469 16.3767L10.663 16.2511ZM9.8486 16.9881L9.7718 16.4941L9.7718 16.4941L9.8486 16.9881ZM8.15149 16.9881L8.07474 17.4822L8.15149 16.9881ZM7.33702 16.2511L6.85303 16.3766L7.33702 16.2511ZM7.29108 15.9108L6.79357 15.9606V15.9606L7.29108 15.9108ZM7.20464 15.3018L7.67837 15.1419L7.67837 15.1419L7.20464 15.3018ZM5.81343 14.7256L5.59155 14.2775L5.81343 14.7256ZM5.32166 15.0951L5.63828 15.4821L5.63828 15.4821L5.32166 15.0951ZM5.04859 15.3032L5.30206 15.7342L5.04859 15.3032ZM3.95149 15.2485L3.65639 15.6521L3.6564 15.6521L3.95149 15.2485ZM3.70049 15.0142L4.05404 14.6607L4.05404 14.6607L3.70049 15.0142ZM2.98573 14.2995L2.61716 14.6373L2.6245 14.6454L2.63218 14.653L2.98573 14.2995ZM2.98573 14.2995L3.3543 13.9616L3.34696 13.9536L3.33928 13.9459L2.98573 14.2995ZM2.75151 14.0485L3.15514 13.7534L3.15514 13.7534L2.75151 14.0485ZM2.69679 12.9514L3.12778 13.2048L3.12778 13.2048L2.69679 12.9514ZM2.90488 12.6783L3.29185 12.9949L3.30285 12.9815L3.31289 12.9673L2.90488 12.6783ZM2.90488 12.6783L2.5179 12.3617L2.50691 12.3751L2.49687 12.3893L2.90488 12.6783ZM3.27437 12.1866L3.72244 12.4085H3.72244L3.27437 12.1866ZM2.69811 10.7953L2.85804 10.3216L2.85804 10.3216L2.69811 10.7953ZM2.08915 10.7089L2.1389 10.2114H2.1389L2.08915 10.7089ZM1.74895 10.663L1.87448 10.179H1.87447L1.74895 10.663ZM1.01185 9.8485L1.50592 9.77176L1.01185 9.8485ZM1.01186 8.15142L0.517793 8.07464V8.07464L1.01186 8.15142ZM1.74887 7.33703L1.62331 6.85306L1.62331 6.85306L1.74887 7.33703ZM2.08924 7.29107L2.13899 7.78859H2.139L2.08924 7.29107ZM2.69852 7.20458L2.53853 6.73087H2.53853L2.69852 7.20458ZM3.27473 5.81349L3.72282 5.59166H3.72282L3.27473 5.81349ZM2.90503 5.32146L3.29207 5.00479L3.286 4.99764L2.90503 5.32146ZM2.90502 5.32145L2.51797 5.63813L2.52405 5.64528L2.90502 5.32145ZM2.69677 5.04818L3.12779 4.79476L3.12779 4.79476L2.69677 5.04818ZM2.75148 3.95124L3.15514 4.24629L3.15514 4.24629L2.75148 3.95124ZM3.70052 2.98541L3.34697 2.63186V2.63186L3.70052 2.98541ZM3.95152 2.75118L3.65643 2.34754L3.65643 2.34754L3.95152 2.75118ZM5.04863 2.69646L5.3021 2.26546H5.3021L5.04863 2.69646ZM5.32176 2.90461L5.63838 2.51763V2.51763L5.32176 2.90461ZM5.81334 3.27401L5.5914 3.72206L5.5914 3.72206L5.81334 3.27401ZM7.20472 2.69768L6.73097 2.5378L6.73097 2.53781L7.20472 2.69768ZM7.2911 2.08904L7.78861 2.1388V2.1388L7.2911 2.08904ZM7.33699 1.74903L6.853 1.62354L6.85299 1.62355L7.33699 1.74903ZM8.15158 1.01184L8.07488 0.517755L8.15158 1.01184ZM9.8485 1.01185L9.92525 0.517774L9.92525 0.517774L9.8485 1.01185ZM11.2064 2.0394C11.1905 1.88046 11.1785 1.74481 11.147 1.62342L10.179 1.87447C10.1863 1.90254 10.1919 1.94387 10.2114 2.1389L11.2064 2.0394ZM11.2691 2.53817C11.256 2.49938 11.2434 2.40895 11.2064 2.0394L10.2114 2.1389C10.2413 2.43799 10.2621 2.68187 10.3216 2.85804L11.2691 2.53817ZM11.9647 2.82631C11.6934 2.96065 11.3659 2.825 11.2691 2.53817L10.3216 2.85804C10.6121 3.71852 11.5946 4.12548 12.4085 3.72245L11.9647 2.82631ZM12.3617 2.51793C12.0742 2.7531 12.0014 2.80814 11.9647 2.82631L12.4085 3.72245C12.5751 3.63993 12.7623 3.48221 12.9949 3.29188L12.3617 2.51793ZM12.6978 2.26584C12.5898 2.32941 12.4853 2.41678 12.3617 2.51793L12.9949 3.29188C13.1466 3.16777 13.1798 3.14252 13.2048 3.12782L12.6978 2.26584ZM14.3436 2.34792C13.8605 1.99473 13.2137 1.96247 12.6978 2.26584L13.2048 3.12782C13.3767 3.0267 13.5923 3.03745 13.7534 3.15518L14.3436 2.34792ZM14.653 2.63219C14.54 2.51926 14.4448 2.42193 14.3436 2.34792L13.7534 3.15518C13.7768 3.17229 13.8073 3.20072 13.9459 3.3393L14.653 2.63219ZM14.6414 2.62099L14.6414 2.62098L13.9574 3.35052L13.9575 3.35053L14.6414 2.62099ZM15.3678 3.34698L14.653 2.63221L13.9459 3.33931L14.6607 4.05409L15.3678 3.34698ZM15.6521 3.65642C15.578 3.55518 15.4807 3.45993 15.3678 3.34698L14.6607 4.05409C14.7992 4.19268 14.8277 4.2232 14.8448 4.24661L15.6521 3.65642ZM15.7341 5.30211C16.0375 4.78629 16.0052 4.1395 15.6521 3.65642L14.8448 4.24661C14.9625 4.40764 14.9733 4.62323 14.8722 4.79517L15.7341 5.30211ZM15.482 5.6383C15.5832 5.51468 15.6706 5.41021 15.7341 5.30211L14.8722 4.79518C14.8575 4.82017 14.8322 4.85337 14.7081 5.00506L15.482 5.6383ZM15.4486 5.67524L15.4486 5.67523L14.7415 4.96813L14.7415 4.96814L15.4486 5.67524ZM15.1736 6.0353C15.1918 5.9986 15.2468 5.92576 15.482 5.63831L14.7081 5.00507C14.5177 5.2377 14.36 5.4249 14.2775 5.59154L15.1736 6.0353ZM15.4618 6.73091C15.175 6.63408 15.0393 6.30658 15.1736 6.0353L14.2775 5.59153C13.8745 6.40539 14.2814 7.38787 15.1419 7.67837L15.4618 6.73091ZM15.9606 6.79356C15.591 6.75661 15.5006 6.74401 15.4618 6.73091L15.1419 7.67837C15.3181 7.73785 15.562 7.75869 15.8611 7.7886L15.9606 6.79356ZM16.3766 6.85303C16.2552 6.82155 16.1195 6.80946 15.9606 6.79356L15.8611 7.7886C16.0561 7.80811 16.0975 7.81372 16.1255 7.821L16.3766 6.85303ZM17.4822 8.07474C17.3904 7.48342 16.9558 7.00327 16.3766 6.85303L16.1255 7.821C16.3186 7.87108 16.4635 8.03113 16.4941 8.22824L17.4822 8.07474ZM17.5 8.4946C17.5 8.33486 17.5015 8.19866 17.4822 8.07474L16.4941 8.22824C16.4985 8.2569 16.5 8.29858 16.5 8.4946H17.5ZM17.5 9.5055V8.4946H16.5V9.5055H17.5ZM17.4822 9.92514C17.5015 9.80128 17.5 9.66516 17.5 9.5055H16.5C16.5 9.70142 16.4985 9.74308 16.4941 9.77172L17.4822 9.92514ZM16.3765 11.147C16.9558 10.9968 17.3904 10.5166 17.4822 9.92515L16.4941 9.77172C16.4635 9.96886 16.3186 10.1289 16.1255 10.179L16.3765 11.147ZM15.9607 11.2064C16.1195 11.1905 16.2551 11.1785 16.3765 11.147L16.1255 10.179C16.0974 10.1863 16.0561 10.1919 15.8612 10.2114L15.9607 11.2064ZM15.4622 11.269C15.5009 11.2559 15.5913 11.2434 15.9607 11.2064L15.8612 10.2114C15.5622 10.2413 15.3185 10.2621 15.1424 10.3215L15.4622 11.269ZM15.174 11.9647C15.0396 11.6934 15.1753 11.3658 15.4622 11.269L15.1424 10.3215C14.2817 10.6119 13.8747 11.5947 14.2779 12.4087L15.174 11.9647ZM15.4821 12.3614C15.2471 12.0742 15.1921 12.0014 15.174 11.9647L14.2779 12.4087C14.3604 12.5751 14.518 12.7622 14.7082 12.9947L15.4821 12.3614ZM15.4822 12.3615L15.4821 12.3614L14.7082 12.9947L14.7082 12.9947L15.4822 12.3615ZM15.7341 12.6974C15.6705 12.5894 15.5832 12.485 15.4822 12.3614L14.7082 12.9947C14.8322 13.1463 14.8575 13.1794 14.8722 13.2044L15.7341 12.6974ZM15.652 14.3434C16.0053 13.8602 16.0376 13.2133 15.7341 12.6974L14.8722 13.2044C14.9733 13.3764 14.9626 13.592 14.8448 13.7531L15.652 14.3434ZM15.3679 14.6526C15.4808 14.5397 15.578 14.4445 15.652 14.3434L14.8448 13.7531C14.8277 13.7765 14.7993 13.807 14.6608 13.9455L15.3679 14.6526ZM15.3679 14.6526L15.3679 14.6526L14.6608 13.9454L14.6608 13.9455L15.3679 14.6526ZM14.653 15.3674L15.3679 14.6526L14.6608 13.9455L13.9459 14.6603L14.653 15.3674ZM14.3436 15.6517C14.4448 15.5777 14.5401 15.4804 14.653 15.3674L13.9459 14.6603C13.8073 14.7989 13.7768 14.8274 13.7534 14.8445L14.3436 15.6517ZM12.6979 15.7338C13.2137 16.0372 13.8605 16.0049 14.3436 15.6517L13.7534 14.8445C13.5924 14.9622 13.3768 14.9729 13.2048 14.8718L12.6979 15.7338ZM12.3617 15.4817C12.4853 15.5829 12.5898 15.6702 12.6979 15.7338L13.2048 14.8718C13.1798 14.8571 13.1467 14.8319 12.995 14.7078L12.3617 15.4817ZM12.3491 15.471L12.3491 15.471L13.0076 14.7185L13.0076 14.7185L12.3491 15.471ZM11.9647 15.1733C12.0014 15.1915 12.0743 15.2465 12.3617 15.4817L12.995 14.7078C12.7623 14.5174 12.5751 14.3597 12.4085 14.2772L11.9647 15.1733ZM11.2691 15.4615C11.3659 15.1746 11.6934 15.039 11.9647 15.1733L12.4085 14.2772C11.5946 13.8742 10.6122 14.2811 10.3217 15.1416L11.2691 15.4615ZM11.2065 15.9604C11.2434 15.5907 11.256 15.5003 11.2691 15.4615L10.3217 15.1416C10.2622 15.3178 10.2413 15.5617 10.2114 15.8609L11.2065 15.9604ZM11.2051 15.9727L11.2051 15.9726L10.2128 15.8486L10.2128 15.8486L11.2051 15.9727ZM11.2039 15.9814L11.2039 15.9814L10.214 15.8399L10.214 15.84L11.2039 15.9814ZM11.1469 16.3767C11.1785 16.2553 11.1905 16.1195 11.2065 15.9604L10.2114 15.8609C10.1919 16.0561 10.1863 16.0975 10.179 16.1256L11.1469 16.3767ZM9.92539 17.4822C10.5166 17.3903 10.9967 16.9559 11.1469 16.3767L10.179 16.1256C10.1289 16.3186 9.96888 16.4634 9.7718 16.4941L9.92539 17.4822ZM9.5053 17.5C9.66513 17.5 9.8014 17.5015 9.92539 17.4822L9.7718 16.4941C9.74313 16.4985 9.70143 16.5 9.5053 16.5V17.5ZM8.49459 17.5H9.5053V16.5H8.49459V17.5ZM8.07474 17.4822C8.19866 17.5015 8.33486 17.5 8.49459 17.5V16.5C8.29858 16.5 8.2569 16.4985 8.22824 16.4941L8.07474 17.4822ZM6.85303 16.3766C7.00327 16.9558 7.48342 17.3904 8.07474 17.4822L8.22824 16.4941C8.03113 16.4635 7.87108 16.3186 7.821 16.1255L6.85303 16.3766ZM6.79357 15.9606C6.80946 16.1195 6.82154 16.2552 6.85303 16.3766L7.821 16.1255C7.81372 16.0975 7.80811 16.0561 7.7886 15.8611L6.79357 15.9606ZM6.73091 15.4618C6.74401 15.5006 6.75661 15.591 6.79357 15.9606L7.7886 15.8611C7.75869 15.562 7.73785 15.3181 7.67837 15.1419L6.73091 15.4618ZM6.03531 15.1736C6.30659 15.0393 6.63407 15.175 6.73091 15.4618L7.67837 15.1419C7.38786 14.2814 6.4054 13.8745 5.59155 14.2775L6.03531 15.1736ZM5.63828 15.4821C5.92575 15.2469 5.9986 15.1918 6.03531 15.1736L5.59155 14.2775C5.42491 14.36 5.2377 14.5178 5.00504 14.7081L5.63828 15.4821ZM5.30206 15.7342C5.41017 15.6706 5.51464 15.5832 5.63828 15.4821L5.00504 14.7081C4.85333 14.8322 4.82013 14.8575 4.79513 14.8722L5.30206 15.7342ZM3.6564 15.6521C4.13947 16.0053 4.78624 16.0375 5.30206 15.7342L4.79513 14.8722C4.62319 14.9733 4.4076 14.9626 4.24658 14.8448L3.6564 15.6521ZM3.34693 15.3678C3.45989 15.4807 3.55515 15.5781 3.65639 15.6521L4.24658 14.8448C4.22316 14.8277 4.19264 14.7993 4.05404 14.6607L3.34693 15.3678ZM2.63218 14.653L3.34693 15.3678L4.05404 14.6607L3.33929 13.9459L2.63218 14.653ZM2.61715 14.6373L2.61716 14.6373L3.35431 13.9616L3.3543 13.9616L2.61715 14.6373ZM2.34787 14.3436C2.42189 14.4448 2.51923 14.5401 2.63218 14.653L3.33928 13.9459C3.20069 13.8073 3.17226 13.7768 3.15514 13.7534L2.34787 14.3436ZM2.26579 12.6979C1.96244 13.2137 1.9947 13.8605 2.34787 14.3436L3.15514 13.7534C3.03741 13.5924 3.02666 13.3768 3.12778 13.2048L2.26579 12.6979ZM2.5179 12.3617C2.41675 12.4853 2.32937 12.5898 2.26579 12.6979L3.12778 13.2048C3.14248 13.1798 3.16773 13.1466 3.29185 12.9949L2.5179 12.3617ZM2.49687 12.3893L2.49686 12.3893L3.31289 12.9673L3.3129 12.9673L2.49687 12.3893ZM2.82631 11.9647C2.80813 12.0014 2.75309 12.0742 2.5179 12.3617L3.29186 12.9949C3.4822 12.7623 3.63993 12.5751 3.72244 12.4085L2.82631 11.9647ZM2.53817 11.2691C2.82499 11.3659 2.96065 11.6934 2.82631 11.9647L3.72244 12.4085C4.12547 11.5946 3.71851 10.6121 2.85804 10.3216L2.53817 11.2691ZM2.03939 11.2064C2.40894 11.2434 2.49937 11.256 2.53817 11.2691L2.85804 10.3216C2.68187 10.2621 2.43798 10.2413 2.1389 10.2114L2.03939 11.2064ZM1.62342 11.147C1.74481 11.1785 1.88046 11.1905 2.03939 11.2064L2.1389 10.2114C1.94387 10.1919 1.90255 10.1863 1.87448 10.179L1.62342 11.147ZM0.517774 9.92524C0.609625 10.5166 1.04417 10.9967 1.62343 11.147L1.87447 10.179C1.68139 10.1289 1.53654 9.96887 1.50592 9.77176L0.517774 9.92524ZM0.5 9.50542C0.5 9.66515 0.498526 9.80133 0.517774 9.92524L1.50592 9.77176C1.50147 9.7431 1.5 9.70142 1.5 9.50542H0.5ZM0.5 8.49468V9.50542H1.5V8.49468H0.5ZM0.517793 8.07464C0.498525 8.19862 0.5 8.33487 0.5 8.49468H1.5C1.5 8.29858 1.50148 8.25687 1.50593 8.2282L0.517793 8.07464ZM1.62331 6.85306C1.04415 7.00332 0.609677 7.4834 0.517793 8.07464L1.50593 8.2282C1.53656 8.03112 1.68138 7.8711 1.87444 7.82101L1.62331 6.85306ZM2.03949 6.79356C1.88048 6.80946 1.74476 6.82155 1.62331 6.85306L1.87443 7.82101C1.90252 7.81372 1.94387 7.80811 2.13899 7.78859L2.03949 6.79356ZM2.53853 6.73087C2.49971 6.74398 2.40924 6.75658 2.03949 6.79356L2.139 7.78859C2.43823 7.75867 2.68225 7.73782 2.85851 7.67829L2.53853 6.73087ZM2.82663 6.03532C2.96092 6.30658 2.82529 6.63402 2.53853 6.73087L2.85851 7.67829C3.71881 7.38773 4.12569 6.40544 3.72282 5.59166L2.82663 6.03532ZM2.51805 5.63808C2.75338 5.92571 2.80845 5.99861 2.82663 6.03532L3.72282 5.59166C3.64029 5.42493 3.48246 5.23762 3.29201 5.00484L2.51805 5.63808ZM2.52405 5.64528L2.52406 5.64529L3.286 4.99764L3.28599 4.99763L2.52405 5.64528ZM2.26575 5.3016C2.32936 5.40979 2.41681 5.51434 2.51804 5.63807L3.292 5.00483C3.16777 4.853 3.1425 4.81978 3.12779 4.79476L2.26575 5.3016ZM2.34781 3.65619C1.99476 4.13921 1.96251 4.78585 2.26575 5.3016L3.12779 4.79476C3.02671 4.62284 3.03746 4.4073 3.15514 4.24629L2.34781 3.65619ZM2.63231 3.34652C2.51928 3.45955 2.42187 3.55487 2.34781 3.65619L3.15514 4.24629C3.17227 4.22286 3.20072 4.19232 3.33942 4.05362L2.63231 3.34652ZM3.34697 2.63186L2.63231 3.34652L3.33942 4.05362L4.05408 3.33897L3.34697 2.63186ZM3.34697 2.63186L3.34697 2.63186L4.05408 3.33897L4.05408 3.33897L3.34697 2.63186ZM3.65643 2.34754C3.55519 2.42156 3.45992 2.51891 3.34697 2.63186L4.05408 3.33897C4.19268 3.20036 4.2232 3.17193 4.24661 3.15481L3.65643 2.34754ZM5.3021 2.26546C4.78628 1.96211 4.13951 1.99437 3.65643 2.34754L4.24661 3.15481C4.40764 3.03709 4.62323 3.02634 4.79517 3.12745L5.3021 2.26546ZM5.63838 2.51763C5.51471 2.41645 5.4102 2.32904 5.3021 2.26546L4.79517 3.12745C4.82017 3.14215 4.85338 3.16742 5.00514 3.29159L5.63838 2.51763ZM6.03528 2.82597C5.99861 2.8078 5.92576 2.75276 5.63838 2.51763L5.00514 3.29159C5.23773 3.48189 5.42487 3.63956 5.5914 3.72206L6.03528 2.82597ZM6.73097 2.53781C6.63415 2.82469 6.30659 2.96037 6.03528 2.82597L5.5914 3.72206C6.40534 4.12525 7.38802 3.7182 7.67847 2.85756L6.73097 2.53781ZM6.79358 2.03929C6.75664 2.40865 6.74406 2.49902 6.73097 2.5378L7.67847 2.85756C7.73789 2.68148 7.75872 2.43772 7.78861 2.1388L6.79358 2.03929ZM6.85299 1.62355C6.82154 1.74487 6.80946 1.88044 6.79358 2.03929L7.78861 2.1388C7.80811 1.94388 7.81372 1.90257 7.82099 1.87451L6.85299 1.62355ZM8.07488 0.517755C7.48345 0.609571 7.0032 1.04419 6.853 1.62354L7.82099 1.87451C7.87106 1.6814 8.03114 1.53652 8.22828 1.50592L8.07488 0.517755ZM8.49448 0.5C8.33484 0.5 8.19873 0.498528 8.07488 0.517755L8.22828 1.50592C8.25693 1.50147 8.29858 1.5 8.49448 1.5V0.5ZM9.50542 0.5H8.49448V1.5H9.50542V0.5ZM9.92525 0.517774C9.80133 0.498526 9.66515 0.5 9.50542 0.5V1.5C9.70142 1.5 9.7431 1.50147 9.77176 1.50592L9.92525 0.517774ZM11.147 1.62342C10.9967 1.04417 10.5166 0.609626 9.92525 0.517774L9.77176 1.50592C9.96887 1.53654 10.1289 1.68139 10.179 1.87447L11.147 1.62342ZM11.7 9C11.7 10.4912 10.4912 11.7 9 11.7V12.7C11.0435 12.7 12.7 11.0435 12.7 9H11.7ZM9 6.3C10.4912 6.3 11.7 7.50883 11.7 9H12.7C12.7 6.95655 11.0435 5.3 9 5.3V6.3ZM6.3 9C6.3 7.50883 7.50883 6.3 9 6.3V5.3C6.95655 5.3 5.3 6.95655 5.3 9H6.3ZM9 11.7C7.50883 11.7 6.3 10.4912 6.3 9H5.3C5.3 11.0435 6.95655 12.7 9 12.7V11.7Z" fill="#323F4B"/>
</svg>
