<svg width="17" height="17" viewBox="0 0 17 17" fill="none" xmlns="http://www.w3.org/2000/svg">
<path d="M0 6.05263C0 4.77322 0 4.13351 0.281892 3.66043C0.452042 3.37488 0.690681 3.13625 0.97623 2.9661C1.44931 2.6842 2.08901 2.6842 3.36842 2.6842H13.4737C14.7531 2.6842 15.3928 2.6842 15.8659 2.9661C16.1514 3.13625 16.3901 3.37488 16.5602 3.66043C16.8421 4.13351 16.8421 4.77322 16.8421 6.05263C16.8421 6.37248 16.8421 6.5324 16.7716 6.65067C16.7291 6.72206 16.6694 6.78172 16.598 6.82426C16.4798 6.89473 16.3199 6.89473 16 6.89473H0.842104C0.522253 6.89473 0.362327 6.89473 0.244058 6.82426C0.17267 6.78172 0.113011 6.72206 0.070473 6.65067C0 6.5324 0 6.37248 0 6.05263Z" fill="#9AA5B1"/>
<path fill-rule="evenodd" clip-rule="evenodd" d="M0 13C0 14.8856 0 15.8284 0.585786 16.4142C1.17157 17 2.11438 17 4 17H12.8421C14.7277 17 15.6705 17 16.2563 16.4142C16.8421 15.8284 16.8421 14.8856 16.8421 13V9.57895C16.8421 9.10754 16.8421 8.87184 16.6957 8.72539C16.5492 8.57895 16.3135 8.57895 15.8421 8.57895H1C0.528595 8.57895 0.292893 8.57895 0.146447 8.72539C0 8.87184 0 9.10754 0 9.57895V13ZM4.21053 11.1053C4.21053 10.7854 4.21053 10.6255 4.281 10.5072C4.32354 10.4358 4.3832 10.3762 4.45458 10.3336C4.57285 10.2632 4.73278 10.2632 5.05263 10.2632H6.73684C7.05669 10.2632 7.21662 10.2632 7.33489 10.3336C7.40628 10.3762 7.46594 10.4358 7.50847 10.5072C7.57895 10.6255 7.57895 10.7854 7.57895 11.1053C7.57895 11.4251 7.57895 11.585 7.50847 11.7033C7.46594 11.7747 7.40628 11.8344 7.33489 11.8769C7.21662 11.9474 7.05669 11.9474 6.73684 11.9474H5.05263C4.73278 11.9474 4.57285 11.9474 4.45458 11.8769C4.3832 11.8344 4.32354 11.7747 4.281 11.7033C4.21053 11.585 4.21053 11.4251 4.21053 11.1053ZM4.281 13.8756C4.21053 13.9939 4.21053 14.1538 4.21053 14.4737C4.21053 14.7935 4.21053 14.9535 4.281 15.0717C4.32354 15.1431 4.3832 15.2028 4.45458 15.2453C4.57285 15.3158 4.73278 15.3158 5.05263 15.3158H6.73684C7.05669 15.3158 7.21662 15.3158 7.33489 15.2453C7.40628 15.2028 7.46594 15.1431 7.50847 15.0717C7.57895 14.9535 7.57895 14.7935 7.57895 14.4737C7.57895 14.1538 7.57895 13.9939 7.50847 13.8756C7.46594 13.8042 7.40628 13.7446 7.33489 13.7021C7.21662 13.6316 7.05669 13.6316 6.73684 13.6316H5.05263C4.73278 13.6316 4.57285 13.6316 4.45458 13.7021C4.3832 13.7446 4.32354 13.8042 4.281 13.8756ZM9.26316 11.1053C9.26316 10.7854 9.26316 10.6255 9.33363 10.5072C9.37617 10.4358 9.43583 10.3762 9.50722 10.3336C9.62548 10.2632 9.78541 10.2632 10.1053 10.2632H11.7895C12.1093 10.2632 12.2693 10.2632 12.3875 10.3336C12.4589 10.3762 12.5186 10.4358 12.5611 10.5072C12.6316 10.6255 12.6316 10.7854 12.6316 11.1053C12.6316 11.4251 12.6316 11.585 12.5611 11.7033C12.5186 11.7747 12.4589 11.8344 12.3875 11.8769C12.2693 11.9474 12.1093 11.9474 11.7895 11.9474H10.1053C9.78541 11.9474 9.62548 11.9474 9.50722 11.8769C9.43583 11.8344 9.37617 11.7747 9.33363 11.7033C9.26316 11.585 9.26316 11.4251 9.26316 11.1053ZM9.33363 13.8756C9.26316 13.9939 9.26316 14.1538 9.26316 14.4737C9.26316 14.7935 9.26316 14.9535 9.33363 15.0717C9.37617 15.1431 9.43583 15.2028 9.50722 15.2453C9.62548 15.3158 9.78541 15.3158 10.1053 15.3158H11.7895C12.1093 15.3158 12.2693 15.3158 12.3875 15.2453C12.4589 15.2028 12.5186 15.1431 12.5611 15.0717C12.6316 14.9535 12.6316 14.7935 12.6316 14.4737C12.6316 14.1538 12.6316 13.9939 12.5611 13.8756C12.5186 13.8042 12.4589 13.7446 12.3875 13.7021C12.2693 13.6316 12.1093 13.6316 11.7895 13.6316H10.1053C9.78541 13.6316 9.62548 13.6316 9.50722 13.7021C9.43583 13.7446 9.37617 13.8042 9.33363 13.8756Z" fill="#9AA5B1"/>
<path d="M4.21057 1L4.21057 3.52632" stroke="#9AA5B1" stroke-width="2" stroke-linecap="round"/>
<path d="M12.6316 1L12.6316 3.52632" stroke="#9AA5B1" stroke-width="2" stroke-linecap="round"/>
</svg>
