<svg width="18" height="11" viewBox="0 0 18 11" fill="none" xmlns="http://www.w3.org/2000/svg">
<path d="M16.2929 0.292893C16.6834 -0.0976314 17.3166 -0.0976315 17.7071 0.292893C18.0976 0.683417 18.0976 1.31658 17.7071 1.70711L16.2929 0.292893ZM9 9L9.70711 9.70711L9 10.4142L8.29289 9.70711L9 9ZM0.292892 1.70711C-0.0976318 1.31658 -0.0976318 0.683418 0.292892 0.292894C0.683418 -0.0976307 1.31658 -0.0976308 1.70711 0.292894L0.292892 1.70711ZM17.7071 1.70711L9.70711 9.70711L8.29289 8.29289L16.2929 0.292893L17.7071 1.70711ZM8.29289 9.70711L0.292892 1.70711L1.70711 0.292894L9.70711 8.29289L8.29289 9.70711Z" fill="#9AA5B1"/>
</svg>
