<svg width="26" height="18" viewBox="0 0 26 18" fill="none" xmlns="http://www.w3.org/2000/svg">
<path d="M8.64594 16.8031L12.9367 10.9698C12.9585 10.9401 12.9694 10.9253 12.9829 10.92C12.9946 10.9154 13.0077 10.9154 13.0195 10.92C13.0329 10.9253 13.0438 10.9401 13.0656 10.9698L17.3564 16.8031C17.4004 16.8629 17.4224 16.8928 17.4201 16.9124C17.4181 16.9294 17.4075 16.9442 17.3921 16.9516C17.3743 16.9602 17.3389 16.949 17.268 16.9268L13.0251 15.5957L13.0251 15.5957C13.0162 15.5929 13.0118 15.5915 13.0072 15.5909C13.0032 15.5904 12.9991 15.5904 12.9951 15.5909C12.9906 15.5915 12.9861 15.5929 12.9772 15.5957L12.9772 15.5957L8.73433 16.9268C8.66345 16.949 8.62801 16.9602 8.61021 16.9516C8.59481 16.9442 8.58427 16.9294 8.58225 16.9124C8.57991 16.8928 8.60192 16.8629 8.64594 16.8031Z" stroke="#4C63B6" stroke-linecap="round"/>
<path d="M1 14.1769L5.50007 1" stroke="#4C63B6" stroke-linecap="round"/>
<path d="M25 14.1769L20.4999 1" stroke="#4C63B6" stroke-linecap="round"/>
<path d="M13.0004 7.58883L13.0004 5.70642" stroke="#4C63B6" stroke-linecap="round"/>
<path d="M13.0007 2.88241L13.0007 1" stroke="#4C63B6" stroke-linecap="round"/>
</svg>
