<svg width="16" height="18" viewBox="0 0 16 18" fill="none" xmlns="http://www.w3.org/2000/svg">
<path d="M15.2222 9V13C15.2222 14.8856 15.2222 15.8284 14.6364 16.4142C14.0506 17 13.1078 17 11.2222 17H3.22222C1.99492 17 1 16.0051 1 14.7778V14.7778C1 13.5505 1.99492 12.5556 3.22222 12.5556H11.2222C13.1078 12.5556 14.0506 12.5556 14.6364 11.9698C15.2222 11.384 15.2222 10.4412 15.2222 8.55556V5C15.2222 3.11438 15.2222 2.17157 14.6364 1.58579C14.0506 1 13.1078 1 11.2222 1H5C3.11438 1 2.17157 1 1.58579 1.58579C1 2.17157 1 3.11438 1 5V14.7778" stroke="#323F4B"/>
<path d="M5.44446 5.44434L10.7778 5.44434" stroke="#323F4B" stroke-linecap="round"/>
</svg>
