<svg width="40" height="40" viewBox="0 0 40 40" fill="none" xmlns="http://www.w3.org/2000/svg">
<rect x="0.5" y="0.5" width="39" height="39" rx="7.5" fill="white" stroke="#9AA5B1"/>
<path d="M20.1455 28.0447V16.4084M18.7913 15.7103C18.9354 15.7426 19.0872 15.703 19.1909 15.5993C19.2946 15.4956 19.3342 15.3437 19.3019 15.1997C19.1726 14.6716 18.6963 12.903 18.2073 12.414C17.598 11.8047 16.6063 11.8021 16 12.4084C15.3938 13.0147 15.3962 14.0063 16.0056 14.6157C16.5026 15.1127 18.2632 15.581 18.7913 15.7103ZM20.2701 15.1997C20.2378 15.3437 20.2774 15.4955 20.3811 15.5992C20.4848 15.703 20.6367 15.7425 20.7807 15.7103C21.3088 15.581 23.0774 15.1047 23.5664 14.6156C24.1757 14.0063 24.1783 13.0147 23.572 12.4084C22.9657 11.8021 21.9741 11.8046 21.3647 12.4139C20.8677 12.911 20.3994 14.6715 20.2701 15.1997ZM12.5818 20.4811H27.4182C27.7395 20.4811 28 20.2206 28 19.8993V16.9902C28 16.6689 27.7395 16.4084 27.4182 16.4084H12.5818C12.2605 16.4084 12 16.6689 12 16.9902V19.8993C12 20.2206 12.2605 20.4811 12.5818 20.4811ZM26.5455 20.4811V27.4629C26.5455 27.7842 26.285 28.0447 25.9636 28.0447H14.0364C13.715 28.0447 13.4545 27.7842 13.4545 27.4629V20.4811H26.5455Z" stroke="#323F4B" stroke-linecap="round" stroke-linejoin="round"/>
</svg>
