<svg width="236" height="230" viewBox="0 0 236 230" fill="none" xmlns="http://www.w3.org/2000/svg">
<path d="M0 197.95L48.74 137.34L91.42 167.23L41.71 229.05L35.34 216.19L18.35 216.96L15.64 201.29L0 197.95Z" fill="#079FC3"/>
<path d="M192.75 228.38L142.82 168.62L184.9 137.99L235.82 198.94L220.86 201.32L217.21 216.82L200.29 215.16L192.75 228.38Z" fill="#079FC3"/>
<path d="M220.63 83.29L211.12 96.46L220.63 109.62L207.67 119.91L213.01 134.98L197.56 141.62L198.36 157.47L181.56 159.98L177.74 175.45L160.84 173.63L152.69 187.56L136.94 181.55L125.07 192.92L111.64 183.17L96.9202 191.12L86.8102 178.35L70.3402 182.3L64.3002 167.46L47.2902 167.12L45.7602 151.31L29.4902 146.69L32.5902 131.08L18.2502 122.54L25.7502 108.29L14.4102 96.46L25.7502 84.62L18.2502 70.37L32.5902 61.83L29.4902 46.22L45.7602 41.61L47.2902 25.8L64.3002 25.45L70.3402 10.61L86.8102 14.57L96.9202 1.8L111.64 9.75L125.07 0L136.94 11.36L152.69 5.36L160.84 19.29L177.74 17.47L181.56 32.94L198.36 35.44L197.56 51.3L213.01 57.94L207.67 73.01L220.63 83.29Z" fill="#026A8A"/>
<path d="M117.51 164.67C157.17 164.67 189.32 134.664 189.32 97.6499C189.32 60.6358 157.17 30.6299 117.51 30.6299C77.8506 30.6299 45.7002 60.6358 45.7002 97.6499C45.7002 134.664 77.8506 164.67 117.51 164.67Z" fill="#079FC3" stroke="white" stroke-width="8" stroke-miterlimit="10"/>
<path d="M158.49 65.5897L139.22 68.4697L158.4 71.9197L155.46 52.9897L151.95 71.8197L171.22 68.9497L152.05 65.4897L154.99 84.4197L158.49 65.5897Z" fill="white"/>
<path d="M88.3301 124.37L69.0601 127.25L88.2401 130.7L85.3001 111.77L81.7901 130.61L101.06 127.73L81.8801 124.28L84.8201 143.21L88.3301 124.37Z" fill="white"/>
</svg>
