<svg width="40" height="40" viewBox="0 0 40 40" fill="none" xmlns="http://www.w3.org/2000/svg">
<rect x="0.5" y="0.5" width="39" height="39" rx="7.5" fill="white" stroke="#9AA5B1"/>
<g clip-path="url(#clip0_1782_12675)">
<path d="M29.2623 20.7667C29.2552 21.7948 28.5184 22.635 27.475 22.8012C25.382 23.1352 23.2893 23.4704 21.1962 23.804C19.0757 24.1419 16.9551 24.4806 14.8335 24.8133C13.5758 25.0106 12.5678 24.2361 12.3767 22.9706C12.1276 21.3228 11.8518 19.6794 11.593 18.0328C11.5225 17.5856 11.4307 17.1359 11.4217 16.6862C11.4014 15.6788 12.1696 14.8231 13.1659 14.6667C15.0879 14.3647 17.0081 14.0529 18.9298 13.748C21.2914 13.3731 23.653 12.9906 26.0177 12.6326C26.9638 12.4892 28.0781 13.1236 28.2809 14.4001C28.5992 16.4042 28.9193 18.4076 29.2363 20.4121C29.255 20.5289 29.2542 20.6486 29.2623 20.7671L29.2623 20.7667ZM21.9922 15.7218C21.969 15.7238 21.9265 15.7241 21.8855 15.7304C20.9432 15.8803 20.001 16.031 19.0583 16.1813C17.4836 16.4326 15.9088 16.6844 14.3336 16.9344C14.051 16.9794 13.8895 17.1639 13.9232 17.4145C13.9559 17.658 14.1697 17.793 14.4544 17.7481C16.2778 17.4605 18.1012 17.1737 19.9243 16.8844C20.6537 16.7685 21.3827 16.6517 22.1104 16.5261C22.3309 16.4882 22.4673 16.2918 22.4455 16.0883C22.4219 15.8692 22.2465 15.7206 21.993 15.7218L21.9922 15.7218ZM15.1108 22.4927C15.1713 22.4851 15.2616 22.4763 15.3508 22.4624C16.8363 22.2262 18.3218 21.9901 19.8072 21.7531C20.2955 21.6751 20.7841 21.5992 21.271 21.5128C21.484 21.475 21.6214 21.2941 21.6127 21.0996C21.6047 20.9172 21.4613 20.7389 21.2845 20.7156C21.19 20.7029 21.0895 20.7146 20.9939 20.73C19.6803 20.9371 18.367 21.1464 17.0533 21.3552C16.3793 21.4625 15.705 21.5684 15.0317 21.6795C14.7955 21.7184 14.6626 21.8932 14.6783 22.1217C14.6936 22.3383 14.8555 22.4875 15.1104 22.4931L15.1108 22.4927ZM14.7436 20.1289C14.7647 20.1268 14.8068 20.1248 14.8479 20.1181C16.2446 19.8942 17.6413 19.6699 19.0376 19.4452C19.335 19.3975 19.4815 19.2301 19.4531 18.9733C19.4263 18.7301 19.224 18.5918 18.9262 18.6366C18.1066 18.7601 17.2879 18.8916 16.4688 19.0218C15.8565 19.1194 15.244 19.215 14.633 19.3219C14.4099 19.361 14.2706 19.5569 14.2922 19.7549C14.3163 19.9753 14.4935 20.129 14.7432 20.1284L14.7436 20.1289Z" fill="#323F4B"/>
<path d="M27.5686 23.2985C27.5642 24.0301 27.6333 24.7642 27.5364 25.4764C27.4184 26.3415 26.6471 26.9078 25.7752 26.903C21.6948 26.8798 17.614 26.8549 13.5337 26.827C12.5329 26.8202 11.75 26.0504 11.7382 25.0513C11.7279 24.199 11.7441 23.3465 11.7493 22.4939C11.7495 22.4607 11.7559 22.4274 11.7796 22.3926C11.8494 22.7957 11.9031 23.2018 11.9916 23.6006C12.2598 24.8091 13.423 25.5607 14.6456 25.3578C16.3922 25.0678 18.1425 24.7998 19.8912 24.5209C21.2887 24.2979 22.6859 24.0724 24.0838 23.8498C25.2473 23.6646 26.4107 23.4819 27.569 23.299L27.5686 23.2985Z" fill="#323F4B"/>
</g>
<defs>
<clipPath id="clip0_1782_12675">
<rect width="18" height="14.7351" fill="white" transform="translate(11.613 12) rotate(2.38459)"/>
</clipPath>
</defs>
</svg>
