<svg width="16" height="18" viewBox="0 0 16 18" fill="none" xmlns="http://www.w3.org/2000/svg">
<path d="M1 8.78462C1 7.43099 1 6.75418 1.27446 6.15926C1.54892 5.56433 2.06437 5.12387 3.09525 4.24294L4.09525 3.3884C5.95857 1.79613 6.89023 1 8 1C9.10977 1 10.0414 1.79613 11.9047 3.3884L12.9047 4.24294C13.9356 5.12387 14.4511 5.56433 14.7255 6.15926C15 6.75418 15 7.43099 15 8.78462V13.0121C15 14.892 15 15.8319 14.4142 16.4159C13.8284 16.9999 12.8856 16.9999 11 16.9999H5C3.11438 16.9999 2.17157 16.9999 1.58579 16.4159C1 15.8319 1 14.892 1 13.0121V8.78462Z" stroke="#323F4B"/>
<path d="M10.5 16.9998V12.0181C10.5 11.4658 10.0523 11.0181 9.5 11.0181H6.5C5.94772 11.0181 5.5 11.4658 5.5 12.0181V16.9998" stroke="#323F4B" stroke-linecap="round" stroke-linejoin="round"/>
</svg>
