<svg width="24" height="24" viewBox="0 0 24 24" fill="none" xmlns="http://www.w3.org/2000/svg">
<path d="M12 1.25C6.06294 1.25 1.25 6.06294 1.25 12C1.25 17.9371 6.06294 22.75 12 22.75C17.9371 22.75 22.75 17.9371 22.75 12C22.75 6.06294 17.9371 1.25 12 1.25ZM6.49585 12.25C6.49585 11.8358 6.83164 11.5 7.24585 11.5H14.4352L11.2155 8.28033C10.9226 7.98744 10.9226 7.51256 11.2155 7.21967C11.5084 6.92678 11.9833 6.92678 12.2762 7.21967L16.7762 11.7197C16.8481 11.7916 16.9023 11.8745 16.9389 11.9629C16.9756 12.0513 16.9958 12.1483 16.9958 12.25C16.9958 12.3517 16.9756 12.4487 16.9389 12.5371C16.9023 12.6255 16.8481 12.7084 16.7762 12.7803L12.2762 17.2803C11.9833 17.5732 11.5084 17.5732 11.2155 17.2803C10.9226 16.9874 10.9226 16.5126 11.2155 16.2197L14.4352 13H7.24585C6.83164 13 6.49585 12.6642 6.49585 12.25Z" fill="#0A6CDF"/>
</svg>
