<svg width="16" height="16" viewBox="0 0 16 16" fill="none" xmlns="http://www.w3.org/2000/svg">
<path d="M4.79998 15.234C5.35226 15.234 5.79998 14.7863 5.79998 14.234C5.79998 13.6817 5.35226 13.234 4.79998 13.234V15.234ZM1.59998 14.234H0.599976C0.599976 14.7863 1.04769 15.234 1.59998 15.234V14.234ZM2.59998 11.0709C2.59998 10.5186 2.15226 10.0709 1.59998 10.0709C1.04769 10.0709 0.599976 10.5186 0.599976 11.0709H2.59998ZM5.90297 11.3867C6.29575 10.9984 6.29942 10.3653 5.91117 9.97251C5.52292 9.57973 4.88976 9.57606 4.49698 9.96431L5.90297 11.3867ZM11.2 0.581558C10.6477 0.581558 10.2 1.02927 10.2 1.58156C10.2 2.13384 10.6477 2.58156 11.2 2.58156V0.581558ZM14.4 1.58156H15.4C15.4 1.02927 14.9523 0.581558 14.4 0.581558V1.58156ZM13.4 4.74467C13.4 5.29696 13.8477 5.74467 14.4 5.74467C14.9523 5.74467 15.4 5.29696 15.4 4.74467H13.4ZM10.097 4.42886C9.7042 4.81712 9.70053 5.45027 10.0888 5.84305C10.477 6.23584 11.1102 6.23951 11.503 5.85125L10.097 4.42886ZM0.599976 4.74467C0.599976 5.29696 1.04769 5.74467 1.59998 5.74467C2.15226 5.74467 2.59998 5.29696 2.59998 4.74467H0.599976ZM1.59998 1.58156L1.59998 0.581558C1.04769 0.581558 0.599976 1.02927 0.599976 1.58156L1.59998 1.58156ZM4.79998 2.58156C5.35226 2.58156 5.79998 2.13384 5.79998 1.58156C5.79998 1.02927 5.35226 0.581558 4.79998 0.581558V2.58156ZM4.49698 5.85125C4.88976 6.23951 5.52292 6.23584 5.91117 5.84306C6.29942 5.45027 6.29575 4.81712 5.90297 4.42887L4.49698 5.85125ZM15.4 11.0709C15.4 10.5186 14.9523 10.0709 14.4 10.0709C13.8477 10.0709 13.4 10.5186 13.4 11.0709L15.4 11.0709ZM14.4 14.234V15.234C14.9523 15.234 15.4 14.7863 15.4 14.234H14.4ZM11.2 13.234C10.6477 13.234 10.2 13.6817 10.2 14.234C10.2 14.7863 10.6477 15.234 11.2 15.234V13.234ZM11.503 9.96431C11.1102 9.57606 10.477 9.57973 10.0888 9.97251C9.70053 10.3653 9.7042 10.9984 10.097 11.3867L11.503 9.96431ZM4.79998 13.234H1.59998V15.234H4.79998V13.234ZM2.59998 14.234V11.0709H0.599976V14.234H2.59998ZM2.30297 14.9452L5.90297 11.3867L4.49698 9.96431L0.89698 13.5228L2.30297 14.9452ZM11.2 2.58156H14.4V0.581558H11.2V2.58156ZM13.4 1.58156V4.74467H15.4V1.58156H13.4ZM13.697 0.870364L10.097 4.42886L11.503 5.85125L15.103 2.29275L13.697 0.870364ZM2.59998 4.74467L2.59998 1.58156L0.599976 1.58156L0.599976 4.74467H2.59998ZM1.59998 2.58156L4.79998 2.58156V0.581558L1.59998 0.581558L1.59998 2.58156ZM0.89698 2.29275L4.49698 5.85125L5.90297 4.42887L2.30297 0.870364L0.89698 2.29275ZM13.4 11.0709L13.4 14.234H15.4L15.4 11.0709L13.4 11.0709ZM14.4 13.234H11.2V15.234H14.4V13.234ZM15.103 13.5228L11.503 9.96431L10.097 11.3867L13.697 14.9452L15.103 13.5228Z" fill="#323F4B"/>
</svg>
