<svg width="20" height="20" viewBox="0 0 20 20" fill="none" xmlns="http://www.w3.org/2000/svg">
<path d="M2.72728 5C2.72728 2.23858 4.76235 0 7.27275 0C9.78314 0 11.8182 2.23858 11.8182 5C11.8182 7.76142 9.78314 10 7.27275 10C4.76235 10 2.72728 7.76142 2.72728 5Z" fill="#323F4B"/>
<path d="M13.6365 5C13.6365 6.90772 12.9427 8.63721 11.8175 9.89982C12.1115 9.96551 12.4158 10 12.7274 10C15.2378 10 17.2728 7.76142 17.2728 5C17.2728 2.23858 15.2378 0 12.7274 0C12.4158 0 12.1115 0.0344883 11.8175 0.100184C12.9427 1.36279 13.6365 3.09228 13.6365 5Z" fill="#323F4B"/>
<path d="M16.3636 20V17C16.3636 15.132 15.6666 13.3073 14.4536 12H15.4545C16.6601 12 17.8162 12.5268 18.6687 13.4645C19.5211 14.4021 20 15.6739 20 17V20H16.3636Z" fill="#323F4B"/>
<path d="M1.33134 13.4645C2.18378 12.5268 3.33993 12 4.54547 12H10C11.2056 12 12.3617 12.5268 13.2142 13.4645C14.0666 14.4021 14.5455 15.6739 14.5455 17V20H0V17C0 15.6739 0.478896 14.4021 1.33134 13.4645Z" fill="#323F4B"/>
</svg>
