<svg width="30" height="30" viewBox="0 0 30 30" fill="none" xmlns="http://www.w3.org/2000/svg">
<rect width="30" height="30" rx="8" fill="#F9703E"/>
<rect x="5" y="5" width="20" height="20" rx="8" fill="#FF9466"/>
<g clip-path="url(#clip0_1907_10288)">
<path d="M14.2491 13.0597C14.2491 12.5326 14.2491 12.0089 14.2491 11.4851C14.2491 11.4254 14.2461 11.3657 14.2491 11.306C14.2574 11.1463 14.34 11.0639 14.5 11.053C14.5248 11.0513 14.5496 11.053 14.5737 11.053C15.9379 11.053 17.3014 11.053 18.6657 11.053C18.6905 11.053 18.7153 11.0522 18.7393 11.053C18.9016 11.0648 18.997 11.1673 18.9985 11.3363C19.0007 11.5204 18.9985 11.7037 18.9985 11.8878C18.9985 12.9706 19 14.0534 18.9955 15.1362C18.9955 15.2127 18.9654 15.2968 18.9249 15.3624C18.8753 15.4431 18.7776 15.4431 18.6912 15.4431C18.2938 15.4439 17.8972 15.4431 17.4998 15.4431C17.475 15.4431 17.4502 15.4431 17.4261 15.4448C17.3811 15.4473 17.3675 15.4717 17.3773 15.5154C17.4667 15.9155 17.5568 16.3157 17.644 16.7167C17.7011 16.9773 17.7529 17.2388 17.81 17.4994C17.8686 17.7651 17.9317 18.0299 17.9903 18.2955C18.0181 18.4208 18.0429 18.5469 18.0632 18.6738C18.0917 18.8512 18.0271 18.9479 17.8573 18.9933C17.7507 19.0219 17.6109 18.9151 17.5824 18.7857C17.5208 18.5082 17.4569 18.2308 17.3968 17.9534C17.3292 17.6415 17.2654 17.3296 17.1978 17.0177C17.1301 16.7066 17.0595 16.3956 16.9904 16.0845C16.9476 15.892 16.9033 15.6986 16.8627 15.5053C16.8529 15.4582 16.8274 15.4439 16.7861 15.4439C16.6801 15.4439 16.5742 15.4439 16.4683 15.4439C16.4255 15.4439 16.4014 15.4607 16.3924 15.5061C16.3526 15.6928 16.309 15.8777 16.2677 16.0643C16.2301 16.2308 16.1933 16.3964 16.1565 16.5629C16.1092 16.7806 16.0634 16.9983 16.0153 17.2161C15.9792 17.38 15.9424 17.544 15.9064 17.707C15.8703 17.8693 15.835 18.0307 15.8004 18.193C15.7569 18.3931 15.7163 18.594 15.6712 18.7941C15.6419 18.9235 15.5232 19.0009 15.3933 18.9824C15.252 18.9622 15.1739 18.879 15.1889 18.7335C15.2055 18.5788 15.2415 18.4267 15.2723 18.2737C15.3061 18.1089 15.3437 17.9458 15.3797 17.7819C15.4188 17.6053 15.4586 17.4296 15.4969 17.2531C15.533 17.0866 15.5668 16.9193 15.6029 16.7529C15.6502 16.5377 15.699 16.3233 15.7463 16.1081C15.7832 15.9391 15.8185 15.7701 15.8545 15.6011C15.8568 15.591 15.8568 15.5809 15.859 15.5717C15.8796 15.4859 15.8453 15.4431 15.7561 15.4431C15.3519 15.4431 14.947 15.4439 14.5429 15.4431C14.4459 15.4431 14.3475 15.433 14.2897 15.338C14.2709 15.3077 14.2559 15.2707 14.2544 15.2354C14.2484 15.0841 14.2469 14.9328 14.2476 14.7815C14.2476 14.763 14.2664 14.731 14.2807 14.7276C14.4587 14.694 14.5872 14.5881 14.6954 14.4494C14.7006 14.4427 14.7089 14.4376 14.7277 14.4233C14.7277 14.5763 14.7277 14.7167 14.7277 14.8571C14.7277 14.9563 14.7329 14.9622 14.8328 14.9622C16.0168 14.9622 17.2008 14.9622 18.3847 14.9622C18.4118 14.9622 18.4418 14.9664 18.4651 14.9563C18.4869 14.9462 18.5064 14.9218 18.5184 14.9C18.5267 14.8849 18.5207 14.8613 18.5207 14.8411C18.5207 13.7802 18.5207 12.7201 18.5207 11.6591C18.5207 11.5389 18.5207 11.5381 18.402 11.5381C17.2135 11.5381 16.0243 11.5381 14.8358 11.5381C14.7307 11.5381 14.7292 11.5398 14.7292 11.6465C14.7292 11.9744 14.7284 12.3023 14.7299 12.6301C14.7299 12.6755 14.7217 12.7083 14.6758 12.7209C14.5053 12.768 14.4024 12.8991 14.2949 13.0253C14.2852 13.0362 14.2754 13.0471 14.2656 13.058C14.2641 13.0589 14.2611 13.058 14.2529 13.0589L14.2491 13.0597Z" fill="white"/>
<path d="M11.843 15.4237C11.9001 15.4321 11.9527 15.4473 12.0053 15.4473C12.2697 15.4473 12.4673 15.327 12.577 15.0883C12.6881 14.847 12.6438 14.6183 12.471 14.4174C12.3614 14.2896 12.2502 14.1635 12.136 14.04C12.0969 13.9971 12.0932 13.9685 12.13 13.9214C12.2306 13.7928 12.3268 13.6608 12.423 13.5288C12.4387 13.5078 12.4477 13.4809 12.4598 13.4574C12.4538 13.4523 12.4485 13.4481 12.4425 13.4431C12.4222 13.4582 12.4004 13.4708 12.3816 13.4876C12.1946 13.6566 12.0098 13.8281 11.8212 13.9946C11.7701 14.04 11.7671 14.0711 11.8137 14.1215C11.9497 14.2686 12.0796 14.4208 12.2156 14.5687C12.2832 14.6427 12.3238 14.7276 12.3381 14.8252C12.3576 14.9538 12.2134 15.1278 12.0834 15.1438C11.9444 15.1614 11.8377 15.1076 11.7491 15.0084C11.532 14.7646 11.3179 14.5183 11.1 14.2753C10.964 14.1232 10.964 13.9088 11.1241 13.7642C11.3862 13.5271 11.6432 13.285 11.9016 13.0437C11.9504 12.9983 11.9962 12.9496 12.0443 12.9033C12.148 12.8025 12.2674 12.7377 12.4154 12.7276C12.6145 12.7142 12.8144 12.6948 13.0082 12.7604C13.223 12.8327 13.3552 12.9899 13.4093 13.2077C13.4319 13.2976 13.4371 13.3943 13.4379 13.4876C13.4394 15.1715 13.4379 16.8563 13.4379 18.5402C13.4379 18.71 13.3898 18.8529 13.2358 18.942C13.1186 19.0101 12.9992 19.0009 12.879 18.9487C12.8376 18.9311 12.8376 18.9075 12.8482 18.8663C12.873 18.7739 12.9038 18.6789 12.9045 18.5856C12.909 17.8205 12.9075 17.0555 12.9068 16.2905C12.9068 16.2022 12.897 16.193 12.8091 16.1921C12.5852 16.1913 12.6085 16.182 12.6085 16.3922C12.6085 17.1076 12.61 17.8231 12.6063 18.5385C12.6063 18.6251 12.5927 18.7192 12.5552 18.7957C12.4876 18.9336 12.3155 19.0185 12.2028 18.9967C11.9647 18.9521 11.867 18.8033 11.8468 18.6368C11.843 18.6024 11.843 18.5671 11.843 18.5326C11.8422 17.5145 11.8415 16.4956 11.8407 15.4775C11.8407 15.4607 11.8422 15.4439 11.8437 15.4246L11.843 15.4237Z" fill="white"/>
<path d="M12.6347 12.5225C12.2125 12.5259 11.873 12.177 11.879 11.7709C11.8857 11.2808 12.2155 11.0017 12.6355 11C13.0569 10.9983 13.3867 11.2934 13.3942 11.7676C13.4003 12.177 13.0442 12.5343 12.6347 12.5225Z" fill="white"/>
<path d="M13.7307 13.3212C13.8464 13.4212 13.9584 13.5137 14.0643 13.612C14.1184 13.6625 14.1499 13.6541 14.1942 13.5994C14.3257 13.438 14.4617 13.2808 14.5962 13.1228C14.7021 12.9983 14.8719 12.9353 15.0244 13.0278C15.0499 13.0429 15.0927 13.0437 15.122 13.0336C15.6058 12.863 16.0881 12.689 16.5704 12.5158C16.6215 12.4973 16.6636 12.5082 16.6899 12.5578C16.7192 12.6141 16.6824 12.6478 16.641 12.673C16.466 12.7789 16.2902 12.8823 16.1137 12.9857C15.7508 13.1993 15.388 13.4128 15.0266 13.6272C14.9958 13.6457 14.9688 13.6734 14.9447 13.7011C14.7787 13.8945 14.6127 14.0879 14.4482 14.2829C14.3843 14.3586 14.3092 14.4292 14.2115 14.43C14.1311 14.43 14.0425 14.4014 13.9711 14.3619C13.893 14.3191 13.8276 14.2493 13.76 14.1887C13.7443 14.1745 13.7315 14.1467 13.7315 14.1249C13.7292 13.86 13.73 13.5961 13.73 13.3203L13.7307 13.3212Z" fill="white"/>
</g>
<defs>
<clipPath id="clip0_1907_10288">
<rect width="8" height="8" fill="white" transform="translate(11 11)"/>
</clipPath>
</defs>
</svg>
