<svg width="13" height="17" viewBox="0 0 13 17" fill="none" xmlns="http://www.w3.org/2000/svg">
<path fill-rule="evenodd" clip-rule="evenodd" d="M3.48212 1.61146L6.22317 1.25356C9.38004 0.841366 10.9585 0.63527 11.9792 1.53142C13 2.42756 13 4.01939 13 7.20306V7.85577H7.9224L10.0061 5.6916L8.56534 4.30443L4.85105 8.16218L4.18326 8.85577L4.85105 9.54935L8.56534 13.4071L10.0061 12.0199L7.9224 9.85577H13V10.5085C13 13.6921 13 15.284 11.9792 16.1801C10.9585 17.0763 9.38004 16.8702 6.22317 16.458L3.48211 16.1001C1.8234 15.8835 0.994044 15.7752 0.497022 15.2091C0 14.6429 0 13.8065 0 12.1337V5.5778C0 3.905 0 3.0686 0.497022 2.50246C0.994044 1.93633 1.8234 1.82804 3.48212 1.61146Z" fill="#F9703E"/>
</svg>
