<svg width="18" height="16" viewBox="0 0 18 16" fill="none" xmlns="http://www.w3.org/2000/svg">
<path d="M2 13H6C7.65685 13 9 14.3431 9 16V6C9 3.17157 9 1.75736 8.12132 0.87868C7.24264 0 5.82843 0 3 0H2C1.05719 0 0.585787 0 0.292893 0.292893C0 0.585786 0 1.05719 0 2V11C0 11.9428 0 12.4142 0.292893 12.7071C0.585787 13 1.05719 13 2 13Z" fill="#F9703E"/>
<path d="M16 13H13C11.3431 13 10 14.3431 10 16V6C10 3.17157 10 1.75736 10.8787 0.87868C11.7574 0 13.1716 0 16 0C16.9428 0 17.4142 0 17.7071 0.292893C18 0.585786 18 1.05719 18 2V11C18 11.9428 18 12.4142 17.7071 12.7071C17.4142 13 16.9428 13 16 13Z" fill="#F9703E"/>
<path d="M2 0.15C2 0.0671574 2.06716 0 2.15 0H4.85C4.93284 0 5 0.0671573 5 0.15V4.39645C5 4.61917 4.73071 4.73071 4.57322 4.57322L3.67678 3.67678C3.57915 3.57915 3.42085 3.57915 3.32322 3.67678L2.42678 4.57322C2.26929 4.73071 2 4.61917 2 4.39645V0.15Z" fill="white"/>
</svg>
