<svg width="40" height="40" viewBox="0 0 40 40" fill="none" xmlns="http://www.w3.org/2000/svg">
<rect x="0.5" y="0.5" width="39" height="39" rx="7.5" fill="white" stroke="#9AA5B1"/>
<g clip-path="url(#clip0_1782_12677)">
<path d="M24.3094 24.2199C24.4578 24.3033 24.5879 24.3785 24.7221 24.4517C24.9214 24.5595 25.1288 24.655 25.3199 24.773C25.6737 24.9925 25.8831 25.2914 25.8709 25.7062C25.8587 26.1494 25.4114 26.5947 24.9397 26.6354C24.4965 26.674 24.1142 26.5175 23.7523 26.308C23.3721 26.0885 23.0061 25.8485 22.6361 25.6127C22.5588 25.5639 22.4937 25.5537 22.4043 25.5883C21.4609 25.9543 20.4748 26.0437 19.4663 25.9929C18.8177 25.9604 18.1854 25.8465 17.5815 25.6228C16.1705 25.1023 15.2372 24.1467 14.7187 22.8231C14.3528 21.8878 14.245 20.916 14.3101 19.9238C14.3629 19.1389 14.5337 18.3806 14.8875 17.6649C15.6093 16.2091 16.8313 15.345 18.4965 15.0278C19.633 14.8123 20.7675 14.8428 21.8777 15.164C23.6425 15.6744 24.7486 16.7947 25.2609 18.4456C25.507 19.2386 25.5659 20.0498 25.5273 20.8692C25.4887 21.6764 25.3301 22.4592 24.96 23.1911C24.8035 23.5002 24.594 23.7848 24.407 24.0796C24.3826 24.1183 24.3521 24.1528 24.3094 24.2118V24.2199ZM20.186 23.7279C20.1373 23.7015 20.0905 23.675 20.0417 23.6506C19.8384 23.5408 19.631 23.4371 19.4338 23.3213C19.2752 23.2277 19.1715 23.0895 19.1247 22.9166C18.9987 22.4653 19.2955 22.0098 19.7896 21.898C20.0966 21.8289 20.3873 21.9041 20.6679 22.0078C21.1071 22.1705 21.4975 22.4124 21.8899 22.6544C21.9366 22.6828 21.9854 22.7113 22.0403 22.7438C22.0749 22.6991 22.1095 22.6645 22.1298 22.6259C22.2437 22.4022 22.3738 22.1827 22.4592 21.9488C22.6645 21.3836 22.693 20.796 22.6788 20.2043C22.6666 19.7489 22.5913 19.3057 22.4368 18.8746C21.9448 17.5144 20.7553 16.998 19.4765 17.1586C18.5615 17.2725 17.9251 17.7584 17.5408 18.5412C17.2989 19.0332 17.1891 19.5557 17.1586 20.0945C17.12 20.7635 17.1647 21.4243 17.4128 22.0546C17.7686 22.9614 18.4172 23.5754 19.4663 23.7482C19.7001 23.7869 19.938 23.8153 20.186 23.7259V23.7279Z" fill="#323F4B"/>
<path d="M19.9827 28.7357C17.3518 28.693 15.1234 27.7841 13.3362 25.9665C12.1366 24.7465 11.3843 23.3029 11.118 21.6642C10.7011 19.0942 11.3924 16.8028 13.1735 14.8041C13.2508 14.7187 13.3301 14.6354 13.4134 14.5541C13.6107 14.3568 13.8811 14.3365 14.0722 14.5032C14.2633 14.6699 14.2552 14.918 14.0661 15.1254C13.8242 15.3938 13.5741 15.6601 13.3565 15.9448C12.5758 16.9736 12.098 18.1223 11.9475 19.3768C11.6791 21.6032 12.3196 23.5835 13.879 25.2813C15.0644 26.5744 16.5649 27.3958 18.348 27.7414C19.9583 28.0546 21.528 27.9143 23.057 27.3389C23.1566 27.3023 23.2725 27.2758 23.3762 27.284C23.5754 27.3002 23.7218 27.4548 23.7462 27.6378C23.7706 27.8126 23.675 27.9895 23.4941 28.0647C23.2786 28.1522 23.061 28.2314 22.8374 28.3006C21.9123 28.5893 20.9627 28.7398 19.9827 28.7357Z" fill="#323F4B"/>
<path d="M29 20.2979C28.9715 21.8919 28.5303 23.368 27.6459 24.7262C27.5605 24.8563 27.4568 24.9539 27.284 24.9682C27.105 24.9844 26.9586 24.9295 26.8611 24.7872C26.7614 24.6428 26.7635 24.4903 26.8529 24.3399C26.9647 24.1528 27.0867 23.9678 27.1925 23.7767C27.656 22.937 27.9427 22.0444 28.0423 21.103C28.2538 19.1186 27.7272 17.3233 26.4524 15.7272C26.2023 15.4141 25.9014 15.1335 25.6188 14.8448C25.4439 14.6659 25.4154 14.4443 25.5618 14.2714C25.7347 14.0681 26.0356 14.0437 26.2369 14.245C26.5703 14.5805 26.9099 14.918 27.2047 15.2819C28.1277 16.4165 28.6767 17.7015 28.8882 19.1105C28.9471 19.5029 28.9634 19.9014 28.998 20.2979H29Z" fill="#323F4B"/>
<path d="M17.5103 13.7794C17.3253 13.7245 17.1972 13.8079 17.0549 13.9055C16.7377 14.1271 16.3839 14.2674 15.9773 14.2694C15.6337 14.2694 15.3511 14.1515 15.1213 13.9136C14.7126 13.4907 14.6394 12.8929 14.9851 12.4761C15.3836 11.9942 15.9264 11.7645 16.5771 11.8296C17.1443 11.8865 17.5937 12.4558 17.5733 13.0373C17.5679 13.1796 17.6411 13.2535 17.7929 13.2589C17.9759 13.265 18.0817 13.3341 18.0938 13.4602C18.106 13.5883 18.0064 13.7123 17.8499 13.7448C17.738 13.7672 17.6221 13.7692 17.5103 13.7794ZM16.2314 13.6716C16.0464 13.4358 16.1399 13.2467 16.4388 13.2182C16.5222 13.2101 16.6055 13.2121 16.6909 13.2101C16.8312 13.2081 16.8699 13.1857 16.8353 13.0576C16.7967 12.9092 16.7377 12.7567 16.6482 12.6286C16.514 12.4354 16.3026 12.3602 16.0586 12.4192C15.7923 12.4822 15.5767 12.6103 15.5178 12.8868C15.4649 13.1369 15.6418 13.4887 15.8777 13.6127C15.9813 13.6676 16.0932 13.7062 16.2314 13.6737V13.6716Z" fill="#323F4B"/>
<path d="M19.2609 13.4134C19.1288 13.3992 18.9865 13.3951 18.8502 13.3687C18.5087 13.3016 18.2809 13.1084 18.1976 12.7872C18.1589 12.6388 18.1447 12.4863 18.1284 12.3338C18.102 12.0573 18.0756 11.7808 18.0614 11.5042C18.0492 11.2745 18.1874 11.1383 18.4192 11.1261C18.6368 11.1139 18.7933 11.2562 18.8116 11.4798C18.838 11.8153 18.8645 12.1488 18.895 12.4843C18.9214 12.775 19.0373 12.8706 19.3484 12.8665C19.3972 12.8665 19.446 12.8645 19.4927 12.8543C19.7469 12.8096 19.8506 12.6855 19.8302 12.4436C19.8038 12.1 19.7713 11.7584 19.7367 11.4168C19.7144 11.185 19.8465 11.0203 20.0824 11.002C20.308 10.9837 20.4646 11.1098 20.4849 11.3355C20.5195 11.6954 20.5561 12.0532 20.5825 12.4131C20.6212 12.9173 20.2938 13.2792 19.7164 13.3687C19.568 13.3911 19.4175 13.3972 19.2589 13.4134H19.2609Z" fill="#323F4B"/>
<path d="M23.0407 13.4256C23.118 13.4602 23.1647 13.4825 23.2115 13.5008C23.4941 13.6106 23.7767 13.7143 24.0573 13.8262C24.2769 13.9136 24.3562 14.0478 24.2891 14.1962C24.226 14.3385 24.0675 14.3833 23.856 14.304C23.3131 14.1027 22.7743 13.8933 22.2355 13.6879C22.1908 13.6716 22.1481 13.6472 22.1095 13.6208C21.8696 13.452 21.9001 13.1776 22.1745 13.0678C22.6625 12.8726 23.1525 12.6835 23.6405 12.4903C23.6872 12.472 23.734 12.4497 23.8113 12.4151C23.7482 12.3846 23.7137 12.3643 23.6751 12.35C23.4636 12.2667 23.2501 12.1874 23.0387 12.104C22.9858 12.0837 22.9329 12.0593 22.8862 12.0288C22.7743 11.9556 22.7357 11.8417 22.7784 11.736C22.8252 11.6242 22.939 11.5591 23.0753 11.5754C23.1322 11.5835 23.1871 11.5998 23.2399 11.6201C23.6913 11.7909 24.1407 11.9637 24.59 12.1345C24.7405 12.1915 24.8767 12.2687 24.8767 12.4395C24.8767 12.6144 24.7771 12.7343 24.6042 12.8014C24.1386 12.9824 23.6751 13.1654 23.2115 13.3484C23.1647 13.3667 23.12 13.389 23.0427 13.4236L23.0407 13.4256Z" fill="#323F4B"/>
<path d="M21.282 13.452C21.0237 13.4459 20.8774 13.2813 20.916 13.0413C20.9993 12.5127 21.0807 11.9841 21.164 11.4554C21.1986 11.2338 21.3592 11.1057 21.5666 11.1322C21.8228 11.1647 21.9428 11.3192 21.9062 11.5591C21.8208 12.0959 21.7415 12.6327 21.652 13.1694C21.6195 13.3646 21.4894 13.4561 21.282 13.452Z" fill="#323F4B"/>
</g>
<defs>
<clipPath id="clip0_1782_12677">
<rect width="18" height="17.7357" fill="white" transform="translate(11 11)"/>
</clipPath>
</defs>
</svg>
