<svg width="12" height="16" viewBox="0 0 12 16" fill="none" xmlns="http://www.w3.org/2000/svg">
<path fill-rule="evenodd" clip-rule="evenodd" d="M1.91671 1.83337C1.83617 1.83337 1.77087 1.90799 1.77087 2.00004V14C1.77087 14.0921 1.83617 14.1667 1.91671 14.1667H10.0834C10.1639 14.1667 10.2292 14.0921 10.2292 14V2.00004C10.2292 1.90799 10.1639 1.83337 10.0834 1.83337H1.91671ZM0.895874 2.00004C0.895874 1.35571 1.35292 0.833374 1.91671 0.833374H10.0834C10.6472 0.833374 11.1042 1.35571 11.1042 2.00004V14C11.1042 14.6444 10.6472 15.1667 10.0834 15.1667H1.91671C1.35292 15.1667 0.895874 14.6444 0.895874 14V2.00004Z" fill="#1C1B1F"/>
<path fill-rule="evenodd" clip-rule="evenodd" d="M4.68754 4.66671C4.68754 4.39057 4.88342 4.16671 5.12504 4.16671H8.62504C8.86667 4.16671 9.06254 4.39057 9.06254 4.66671C9.06254 4.94285 8.86667 5.16671 8.62504 5.16671H5.12504C4.88342 5.16671 4.68754 4.94285 4.68754 4.66671Z" fill="#1C1B1F"/>
<path fill-rule="evenodd" clip-rule="evenodd" d="M4.68754 8.00004C4.68754 7.7239 4.88342 7.50004 5.12504 7.50004H8.62504C8.86667 7.50004 9.06254 7.7239 9.06254 8.00004C9.06254 8.27618 8.86667 8.50004 8.62504 8.50004H5.12504C4.88342 8.50004 4.68754 8.27618 4.68754 8.00004Z" fill="#1C1B1F"/>
<path fill-rule="evenodd" clip-rule="evenodd" d="M4.68754 11.3334C4.68754 11.0572 4.88342 10.8334 5.12504 10.8334H8.62504C8.86667 10.8334 9.06254 11.0572 9.06254 11.3334C9.06254 11.6095 8.86667 11.8334 8.62504 11.8334H5.12504C4.88342 11.8334 4.68754 11.6095 4.68754 11.3334Z" fill="#1C1B1F"/>
<path fill-rule="evenodd" clip-rule="evenodd" d="M3.37504 5.33337C3.69722 5.33337 3.95837 5.03491 3.95837 4.66671C3.95837 4.29851 3.69722 4.00004 3.37504 4.00004C3.05287 4.00004 2.79171 4.29851 2.79171 4.66671C2.79171 5.03491 3.05287 5.33337 3.37504 5.33337Z" fill="#1C1B1F"/>
<path fill-rule="evenodd" clip-rule="evenodd" d="M3.37504 8.66671C3.69722 8.66671 3.95837 8.36824 3.95837 8.00004C3.95837 7.63184 3.69722 7.33337 3.37504 7.33337C3.05287 7.33337 2.79171 7.63184 2.79171 8.00004C2.79171 8.36824 3.05287 8.66671 3.37504 8.66671Z" fill="#1C1B1F"/>
<path fill-rule="evenodd" clip-rule="evenodd" d="M3.37504 12C3.69722 12 3.95837 11.7016 3.95837 11.3334C3.95837 10.9652 3.69722 10.6667 3.37504 10.6667C3.05287 10.6667 2.79171 10.9652 2.79171 11.3334C2.79171 11.7016 3.05287 12 3.37504 12Z" fill="#1C1B1F"/>
</svg>
