<svg width="11" height="11" viewBox="0 0 11 11" fill="none" xmlns="http://www.w3.org/2000/svg">
<path fill-rule="evenodd" clip-rule="evenodd" d="M4.64393 8.08866C4.83659 8.06458 5.0123 8.20124 5.03639 8.3939L5.27076 10.2689C5.29484 10.4616 5.15818 10.6373 4.96552 10.6614C4.77286 10.6854 4.59715 10.5488 4.57306 10.3561L4.33869 8.48111C4.31461 8.28845 4.45127 8.11274 4.64393 8.08866Z" fill="#1C1B1F"/>
<path fill-rule="evenodd" clip-rule="evenodd" d="M5.59582 2.57984C5.66256 2.50424 5.75854 2.46094 5.85938 2.46094H10.3125C10.5067 2.46094 10.6641 2.61834 10.6641 2.8125V10.3125C10.6641 10.5067 10.5067 10.6641 10.3125 10.6641H4.92188C4.78394 10.6641 4.65874 10.5834 4.60174 10.4578C4.54474 10.3322 4.56647 10.1848 4.6573 10.081L6.1941 8.32465L5.51053 2.85611C5.49803 2.75605 5.52909 2.65543 5.59582 2.57984ZM6.25762 3.16406L6.91135 8.39389C6.92379 8.49342 6.89313 8.59352 6.82708 8.66901L5.69664 9.96094H9.96094V3.16406H6.25762Z" fill="#1C1B1F"/>
<path fill-rule="evenodd" clip-rule="evenodd" d="M5.97656 6.5625C5.97656 6.36834 6.13396 6.21094 6.32813 6.21094H8.20313C8.39729 6.21094 8.55469 6.36834 8.55469 6.5625C8.55469 6.75666 8.39729 6.91406 8.20313 6.91406H6.32813C6.13396 6.91406 5.97656 6.75666 5.97656 6.5625Z" fill="#1C1B1F"/>
<path fill-rule="evenodd" clip-rule="evenodd" d="M5.74219 4.6875C5.74219 4.49334 5.89959 4.33594 6.09375 4.33594H8.20313C8.39729 4.33594 8.55469 4.49334 8.55469 4.6875C8.55469 4.88166 8.39729 5.03906 8.20313 5.03906H6.09375C5.89959 5.03906 5.74219 4.88166 5.74219 4.6875Z" fill="#1C1B1F"/>
<path fill-rule="evenodd" clip-rule="evenodd" d="M0.585938 0.9375C0.585938 0.743337 0.743337 0.585938 0.9375 0.585938H5.625C5.8023 0.585938 5.95186 0.717962 5.97385 0.893894L6.91135 8.39389C6.92386 8.49396 6.89279 8.59457 6.82606 8.67017C6.75932 8.74576 6.66334 8.78906 6.5625 8.78906H0.9375C0.743337 8.78906 0.585938 8.63166 0.585938 8.4375V0.9375ZM1.28906 1.28906V8.08594H6.16426L5.31465 1.28906H1.28906Z" fill="#1C1B1F"/>
<path fill-rule="evenodd" clip-rule="evenodd" d="M1.99219 2.8125C1.99219 2.61834 2.14959 2.46094 2.34375 2.46094H3.98438C4.17854 2.46094 4.33594 2.61834 4.33594 2.8125C4.33594 3.00666 4.17854 3.16406 3.98438 3.16406H2.34375C2.14959 3.16406 1.99219 3.00666 1.99219 2.8125Z" fill="#1C1B1F"/>
<path fill-rule="evenodd" clip-rule="evenodd" d="M1.99219 4.6875C1.99219 4.49334 2.14959 4.33594 2.34375 4.33594H4.21875C4.41291 4.33594 4.57031 4.49334 4.57031 4.6875C4.57031 4.88166 4.41291 5.03906 4.21875 5.03906H2.34375C2.14959 5.03906 1.99219 4.88166 1.99219 4.6875Z" fill="#1C1B1F"/>
<path fill-rule="evenodd" clip-rule="evenodd" d="M1.99219 6.5625C1.99219 6.36834 2.14959 6.21094 2.34375 6.21094H4.45313C4.64729 6.21094 4.80469 6.36834 4.80469 6.5625C4.80469 6.75666 4.64729 6.91406 4.45313 6.91406H2.34375C2.14959 6.91406 1.99219 6.75666 1.99219 6.5625Z" fill="#1C1B1F"/>
</svg>
