<svg width="18" height="18" viewBox="0 0 18 18" fill="none" xmlns="http://www.w3.org/2000/svg">
<path d="M9.00005 6.98399V9.3374C9.00005 9.49016 9.06073 9.63667 9.16875 9.74469L10.44 11.016M1.80005 5.25599V4.67999C1.80005 3.08941 3.08947 1.79999 4.68005 1.79999H5.25605M12.744 1.79999L13.32 1.79999C14.9106 1.79999 16.2 3.08941 16.2 4.67999V5.25599M4.39205 14.184L2.37605 16.2M15.624 16.2L13.608 14.184M15.336 9.57599C15.336 13.0753 12.4993 15.912 9.00005 15.912C5.50077 15.912 2.66405 13.0753 2.66405 9.57599C2.66405 6.07671 5.50077 3.23999 9.00005 3.23999C12.4993 3.23999 15.336 6.07671 15.336 9.57599Z" stroke="#323F4B" stroke-width="2" stroke-linecap="round"/>
</svg>
