<svg width="12" height="12" viewBox="0 0 12 12" fill="none" xmlns="http://www.w3.org/2000/svg">
<path d="M1.62512 1.5C1.62512 1.01675 2.01687 0.625 2.50012 0.625H9.50012C9.98338 0.625 10.3751 1.01675 10.3751 1.5V11C10.3751 11.1309 10.3069 11.2523 10.1951 11.3203C10.0833 11.3884 9.94414 11.3932 9.82789 11.3331L6.00012 9.35398L2.17235 11.3331C2.0561 11.3932 1.91693 11.3884 1.80514 11.3203C1.69335 11.2523 1.62512 11.1309 1.62512 11V1.5ZM4.00012 4.125C3.79302 4.125 3.62512 4.29289 3.62512 4.5C3.62512 4.70711 3.79302 4.875 4.00012 4.875H8.00012C8.20723 4.875 8.37512 4.70711 8.37512 4.5C8.37512 4.29289 8.20723 4.125 8.00012 4.125H4.00012Z" fill="#1C1B1F"/>
</svg>
