<svg width="18" height="16" viewBox="0 0 18 16" fill="none" xmlns="http://www.w3.org/2000/svg">
<g clip-path="url(#clip0_1581_2671)">
<path d="M7.10768 4.00498C7.10768 2.98004 7.10768 1.96164 7.10768 0.943238C7.10768 0.827176 7.10111 0.711114 7.10768 0.595052C7.12576 0.284464 7.30653 0.124266 7.65656 0.103016C7.71079 0.0997462 7.76502 0.103016 7.81761 0.103016C10.8019 0.103016 13.7846 0.103016 16.7689 0.103016C16.8231 0.103016 16.8774 0.101381 16.93 0.103016C17.2849 0.125901 17.4936 0.325331 17.4969 0.653901C17.5019 1.01189 17.4969 1.36825 17.4969 1.72625C17.4969 3.83171 17.5002 5.93717 17.4903 8.04263C17.4903 8.19138 17.4246 8.35485 17.3359 8.48235C17.2274 8.63928 17.0138 8.63928 16.8248 8.63928C15.9555 8.64092 15.0878 8.63928 14.2184 8.63928C14.1642 8.63928 14.11 8.63928 14.0574 8.64255C13.9588 8.64745 13.9292 8.69486 13.9506 8.77986C14.1461 9.55797 14.3433 10.3361 14.534 11.1158C14.6589 11.6226 14.7723 12.1309 14.8971 12.6377C15.0253 13.1543 15.1634 13.6692 15.2915 14.1857C15.3524 14.4293 15.4066 14.6745 15.451 14.9213C15.5134 15.2662 15.3721 15.4542 15.0007 15.5425C14.7673 15.5981 14.4617 15.3905 14.3992 15.1387C14.2645 14.5993 14.1248 14.0599 13.9933 13.5204C13.8454 12.914 13.7057 12.3075 13.5578 11.701C13.4099 11.0962 13.2554 10.4914 13.1043 9.88654C13.0106 9.5122 12.9136 9.13622 12.8249 8.76025C12.8035 8.66871 12.7476 8.64092 12.6573 8.64092C12.4256 8.64092 12.1938 8.64092 11.9621 8.64092C11.8685 8.64092 11.8159 8.67361 11.7961 8.76188C11.7091 9.12478 11.6137 9.48441 11.5234 9.84731C11.4412 10.171 11.3607 10.493 11.2801 10.8167C11.1766 11.24 11.0764 11.6634 10.9712 12.0868C10.8923 12.4056 10.8118 12.7243 10.7329 13.0415C10.654 13.357 10.5768 13.6708 10.5012 13.9863C10.4059 14.3754 10.3171 14.766 10.2185 15.1551C10.1544 15.4068 9.8948 15.5572 9.6105 15.5213C9.30155 15.482 9.13064 15.3202 9.16351 15.0374C9.19966 14.7366 9.27854 14.4407 9.34592 14.1432C9.41987 13.8228 9.50204 13.5057 9.58092 13.1869C9.66637 12.8437 9.75347 12.502 9.83728 12.1587C9.91616 11.8351 9.99011 11.5098 10.069 11.1861C10.1725 10.7676 10.2793 10.3508 10.3829 9.93231C10.4634 9.60374 10.5406 9.27517 10.6195 8.9466C10.6244 8.92698 10.6244 8.90737 10.6294 8.88939C10.6743 8.72265 10.5992 8.63928 10.4042 8.63928C9.52011 8.63928 8.63435 8.64092 7.75023 8.63928C7.53824 8.63928 7.32296 8.61967 7.19642 8.43495C7.15534 8.3761 7.12247 8.30417 7.11918 8.23552C7.10604 7.94128 7.10275 7.64703 7.10439 7.35279C7.10439 7.31683 7.14548 7.25471 7.1767 7.24817C7.56617 7.18279 7.84719 6.97682 8.08383 6.7071C8.09533 6.69402 8.11341 6.68421 8.15449 6.65642C8.15449 6.95393 8.15449 7.22692 8.15449 7.49991C8.15449 7.69281 8.166 7.70425 8.38456 7.70425C10.9745 7.70425 13.5644 7.70425 16.1543 7.70425C16.2135 7.70425 16.2792 7.71242 16.3301 7.69281C16.3778 7.67319 16.4205 7.62578 16.4468 7.58328C16.4649 7.55386 16.4518 7.50809 16.4518 7.46886C16.4518 5.4059 16.4518 3.34457 16.4518 1.28162C16.4518 1.04786 16.4518 1.04622 16.1921 1.04622C13.5923 1.04622 10.9909 1.04622 8.39114 1.04622C8.16107 1.04622 8.15778 1.04949 8.15778 1.2571C8.15778 1.89462 8.15614 2.53214 8.15942 3.16966C8.15942 3.25794 8.14135 3.32169 8.0411 3.34621C7.66806 3.43775 7.44292 3.69276 7.20793 3.93796C7.18656 3.95921 7.1652 3.98046 7.14383 4.00171C7.14055 4.00335 7.13397 4.00171 7.1159 4.00335L7.10768 4.00498Z" fill="#F9703E"/>
<path d="M1.84414 8.60158C1.96903 8.61793 2.08406 8.64736 2.1991 8.64736C2.77756 8.64736 3.20976 8.4136 3.44969 7.94935C3.6929 7.4802 3.59594 7.03557 3.21797 6.64488C2.97804 6.39641 2.73483 6.15121 2.48504 5.91091C2.39959 5.82754 2.39137 5.77196 2.47189 5.68042C2.6921 5.43032 2.90245 5.17367 3.1128 4.91703C3.14731 4.87616 3.16703 4.82385 3.19332 4.77808C3.18018 4.76827 3.16867 4.7601 3.15553 4.75029C3.11116 4.77972 3.0635 4.80424 3.02241 4.83693C2.61322 5.1655 2.20896 5.49897 1.79648 5.82264C1.68473 5.91091 1.67816 5.97139 1.78004 6.06948C2.07749 6.35554 2.36179 6.65142 2.65924 6.93912C2.80714 7.08297 2.89588 7.24807 2.9271 7.4377C2.96983 7.6878 2.65431 8.02618 2.37001 8.05724C2.06599 8.09157 1.83263 7.98695 1.63872 7.79406C1.16379 7.32 0.695436 6.84104 0.218865 6.36862C-0.0785809 6.07274 -0.0785809 5.6559 0.271452 5.37474C0.84498 4.91376 1.407 4.44297 1.97232 3.97382C2.07913 3.88555 2.17938 3.79074 2.28455 3.70083C2.51133 3.50467 2.77263 3.3788 3.09637 3.35919C3.53185 3.33303 3.96898 3.29543 4.39297 3.42294C4.86296 3.56352 5.15219 3.8692 5.27051 4.29258C5.31981 4.46749 5.33132 4.65548 5.33296 4.83693C5.33625 8.11118 5.33296 11.3871 5.33296 14.6613C5.33296 14.9915 5.22779 15.2694 4.8909 15.4427C4.63454 15.5751 4.37325 15.5571 4.11031 15.4558C4.01993 15.4214 4.01993 15.3757 4.04293 15.2956C4.09716 15.1158 4.16454 14.931 4.16618 14.7496C4.17604 13.262 4.17276 11.7745 4.17111 10.2869C4.17111 10.1153 4.14975 10.0973 3.95748 10.0957C3.46776 10.094 3.51871 10.0761 3.51871 10.4847C3.51871 11.8758 3.52199 13.2669 3.51378 14.6581C3.51378 14.8264 3.4842 15.0095 3.40203 15.1583C3.25413 15.4263 2.8778 15.5914 2.6313 15.5489C2.11036 15.4623 1.89672 15.173 1.85235 14.8493C1.84414 14.7823 1.84414 14.7136 1.84414 14.6466C1.84249 12.667 1.84085 10.6858 1.83921 8.7062C1.83921 8.67351 1.84249 8.64082 1.84578 8.60322L1.84414 8.60158Z" fill="#F9703E"/>
<path d="M3.57574 2.96041C2.65218 2.96695 1.90939 2.28856 1.92254 1.49901C1.93733 0.545995 2.65875 0.00328324 3.57739 1.38976e-05C4.4993 -0.00325545 5.22073 0.570515 5.23717 1.49247C5.25031 2.28856 4.47137 2.98329 3.57574 2.96041V2.96041Z" fill="#F9703E"/>
<path d="M5.97359 4.51311C6.22666 4.70764 6.47152 4.88745 6.70323 5.07871C6.82155 5.17679 6.89057 5.16045 6.98753 5.05419C7.27512 4.74033 7.57256 4.43465 7.86672 4.12733C8.09843 3.8854 8.46983 3.7628 8.80343 3.94261C8.8593 3.97204 8.95297 3.97367 9.01706 3.95406C10.0754 3.62222 11.1304 3.28384 12.1854 2.9471C12.2972 2.91113 12.3892 2.93239 12.4467 3.02883C12.5108 3.13835 12.4303 3.20374 12.3399 3.25278C11.957 3.45875 11.5725 3.65982 11.1863 3.86088C10.3925 4.27609 9.59881 4.69129 8.80836 5.10814C8.74098 5.1441 8.68182 5.19804 8.62923 5.25199C8.26605 5.62796 7.90288 6.00394 7.54298 6.38318C7.4033 6.5303 7.23896 6.66761 7.02533 6.66925C6.84949 6.66925 6.65557 6.61367 6.49946 6.53684C6.32855 6.45347 6.18558 6.31779 6.03768 6.2001C6.00317 6.17231 5.97523 6.11836 5.97523 6.07586C5.9703 5.56094 5.97194 5.04765 5.97194 4.51148L5.97359 4.51311Z" fill="#F9703E"/>
</g>
<defs>
<clipPath id="clip0_1581_2671">
<rect width="17.5" height="15.5556" fill="white"/>
</clipPath>
</defs>
</svg>
