<svg width="16" height="16" viewBox="0 0 16 16" fill="none" xmlns="http://www.w3.org/2000/svg">
<g clip-path="url(#clip0_1581_2778)">
<path d="M2.9375 15.9999C2.94455 15.6152 2.95198 15.2308 2.95903 14.846C2.97038 14.2245 3.31483 13.7763 3.9137 13.6193C4.03269 13.588 4.16029 13.5802 4.28437 13.5794C5.11731 13.5759 5.95025 13.5747 6.78318 13.5786C7.43372 13.5814 7.88737 13.9211 8.04003 14.511C8.05686 14.5756 8.06312 14.6433 8.06664 14.6636C8.14454 14.5 8.21303 14.284 8.3375 14.1082C8.58997 13.7524 8.96299 13.6056 9.39316 13.6048C10.2418 13.6029 11.0903 13.5986 11.9389 13.606C12.564 13.6115 13.006 13.9462 13.1613 14.5212C13.1962 14.6495 13.2017 14.7881 13.2052 14.9224C13.2146 15.2813 13.2154 15.6402 13.2197 15.9995H12.1883C12.1879 15.6261 12.1918 15.2523 12.182 14.8793C12.1804 14.8257 12.1151 14.7736 12.0791 14.7208C12.0497 14.774 11.9961 14.8268 11.9957 14.8801C11.9914 15.2531 11.998 15.6265 12.0008 15.9995H9.282C9.28356 15.8285 9.28552 15.6578 9.2863 15.4868C9.28709 15.2797 9.29178 15.0719 9.28239 14.8652C9.28004 14.8175 9.2272 14.7721 9.19745 14.7259C9.16575 14.7724 9.12778 14.8159 9.10547 14.866C9.09177 14.8961 9.10234 14.9376 9.10194 14.9736C9.0996 15.3157 9.09725 15.6574 9.0949 15.9995H7.06344C7.06344 15.9373 7.06344 15.8751 7.06344 15.8132C7.06227 15.4868 7.065 15.1603 7.05561 14.8343C7.05444 14.7865 6.99768 14.74 6.96637 14.693C6.93192 14.7356 6.86812 14.7779 6.86773 14.8206C6.86421 15.2136 6.87164 15.6066 6.87595 15.9995H4.15716C4.15794 15.6152 4.16146 15.2304 4.15559 14.846C4.15481 14.7963 4.10432 14.7478 4.07653 14.6985C4.04247 14.7474 4.00372 14.7944 3.97672 14.8468C3.96419 14.8715 3.97437 14.9079 3.97398 14.9392C3.97241 15.2926 3.97084 15.6457 3.96967 15.9991H2.93828L2.9375 15.9999Z" fill="#35469C"/>
<path d="M0 12.8434C0.043056 12.6207 0.0489273 12.3815 0.136996 12.1784C0.32566 11.7415 0.68733 11.4891 1.16212 11.4793C2.10348 11.4597 3.04562 11.4734 3.96546 11.4734C3.92827 11.7392 3.85351 12.0042 3.86486 12.2652C3.87621 12.522 3.97563 12.7745 4.03748 13.0348C3.9361 13.0555 3.80184 13.0731 3.67385 13.1107C3.2977 13.2215 2.98887 13.4348 2.75989 13.7538C2.70235 13.8341 2.64403 13.8693 2.54265 13.8677C2.16259 13.8615 1.78252 13.8654 1.40245 13.865C1.35666 13.865 1.31125 13.8599 1.2498 13.8564C1.2498 13.5166 1.2498 13.1851 1.2498 12.8532C1.2498 12.8168 1.24862 12.7804 1.2498 12.744C1.25254 12.6606 1.24119 12.5659 1.13981 12.5803C1.09715 12.5862 1.03961 12.6907 1.03804 12.7518C1.02865 13.1154 1.03334 13.4794 1.03334 13.8438H0C0 13.51 0 13.1769 0 12.8434Z" fill="#35469C"/>
<path d="M2.51896 8.46509V8.2412C2.51896 6.69471 2.51935 5.14821 2.51739 3.60133C2.51739 3.51561 2.55693 3.37665 2.42737 3.37352C2.27941 3.37 2.32599 3.51717 2.3256 3.60524C2.31816 4.6883 2.31503 5.77135 2.31072 6.8544C2.31072 6.91155 2.31268 6.96948 2.30642 7.02624C2.27863 7.28183 2.07196 7.46932 1.8238 7.46737C1.56938 7.46502 1.36271 7.26618 1.34744 7.00354C1.34157 6.89981 1.34549 6.7953 1.34588 6.69118C1.35214 5.64453 1.35762 4.59788 1.36545 3.55123C1.37132 2.77622 1.84102 2.31356 2.61838 2.31239C2.86393 2.31213 3.03172 2.42903 3.12174 2.6631C3.25013 2.9962 3.37851 3.32929 3.53625 3.65417C3.52373 3.58019 3.51981 3.50347 3.4975 3.43263C3.43762 3.24475 3.46032 3.07291 3.58048 2.91713C3.67247 2.79814 3.66151 2.69246 3.58362 2.56485C3.44192 2.33313 3.45719 2.3163 3.73353 2.3163C3.82199 2.3163 3.91045 2.31474 3.99891 2.31709C4.10146 2.31983 4.14295 2.38441 4.07993 2.45839C3.90106 2.66975 3.96251 2.85646 4.09676 3.05804C4.1363 3.11754 4.1363 3.21617 4.12651 3.29289C4.1089 3.43106 4.07054 3.56649 4.05449 3.70936C4.07798 3.6573 4.10342 3.60642 4.12456 3.55358C4.27486 3.17703 4.42321 2.7997 4.57586 2.42394C4.59308 2.38167 4.63496 2.31826 4.66667 2.31748C4.9982 2.31121 5.33443 2.28029 5.64052 2.45956C5.98301 2.66036 6.18811 2.95275 6.21747 3.35004C6.23743 3.61973 6.23156 3.89098 6.23743 4.16184C6.2386 4.21194 6.24213 4.26204 6.24604 4.33993C6.49068 4.18806 6.71457 4.04911 6.93846 3.91055C7.03123 3.85301 7.12243 3.79234 7.21832 3.74028C7.46061 3.60837 7.73813 3.67805 7.87434 3.90076C8.01173 4.12583 7.95184 4.40608 7.71777 4.55717C7.34162 4.79946 6.95881 5.03157 6.57914 5.2676C6.39791 5.38032 6.21943 5.49736 6.03468 5.60382C5.66674 5.81597 5.2855 5.60069 5.28002 5.1764C5.27337 4.65581 5.27454 4.13483 5.27219 3.61425C5.27219 3.57784 5.28276 3.53635 5.26906 3.50621C5.24401 3.45181 5.20409 3.40445 5.17043 3.35395C5.13559 3.40249 5.09253 3.44789 5.06866 3.50152C5.053 3.53635 5.06592 3.58372 5.06592 3.62521C5.06983 5.89543 5.07218 8.16605 5.0804 10.4363C5.08079 10.5709 5.05378 10.6472 4.91248 10.6786C4.82363 10.6981 4.72577 10.7369 4.66119 10.7976C4.45922 10.9866 4.23533 10.9678 3.99969 10.8962C4.05214 10.7404 4.11947 10.5842 4.15626 10.421C4.24746 10.0198 4.18679 9.63778 3.98599 9.27572C3.94803 9.20683 3.92689 9.11954 3.92611 9.04048C3.92141 8.40012 3.92337 7.75936 3.92337 7.119C3.92337 7.06264 3.92337 7.00628 3.92337 6.94013H3.67951V8.88117C3.32411 8.60639 2.96204 8.4463 2.51857 8.46431L2.51896 8.46509Z" fill="#35469C"/>
<path d="M7.26621 5.41261V6.20837H14.2432V1.22718H7.26974C7.26974 1.46281 7.26974 1.69062 7.26974 1.91882C7.26974 2.28871 7.26543 2.6586 7.27209 3.02809C7.27443 3.15178 7.24625 3.21363 7.11669 3.26295C6.93429 3.33223 6.77068 3.44965 6.58241 3.55573C6.5781 3.50367 6.57184 3.46022 6.57184 3.41716C6.57106 2.60458 6.57066 1.792 6.57184 0.979803C6.57223 0.651404 6.6967 0.526541 7.02314 0.526541C9.51804 0.526541 12.0126 0.52615 14.5075 0.526541C14.8315 0.526541 14.949 0.643967 14.949 0.970409C14.9498 2.80381 14.9498 4.63721 14.949 6.47023C14.949 6.79236 14.8284 6.90861 14.5012 6.90861C12.0118 6.90861 9.52196 6.90861 7.03254 6.90861C6.69514 6.90861 6.57106 6.78571 6.57223 6.44791C6.57301 6.24594 6.519 6.00992 6.60472 5.85179C6.68731 5.69991 6.91864 5.62868 7.08538 5.5226C7.13626 5.49011 7.18793 5.45998 7.26661 5.41261H7.26621Z" fill="#35469C"/>
<path d="M14.7508 13.8652C14.3336 13.8652 13.9386 13.8668 13.5441 13.8625C13.5096 13.8625 13.4646 13.8335 13.4431 13.8046C13.1096 13.3486 12.6587 13.1039 12.0786 13.0519C12.3542 12.5419 12.3796 12.0264 12.1385 11.4921C12.1945 11.4862 12.2289 11.4799 12.2634 11.4799C13.0806 11.4795 13.8979 11.4741 14.7152 11.4811C15.3458 11.4866 15.7947 11.8299 15.9443 12.408C15.9713 12.5125 15.9799 12.6237 15.9822 12.7321C15.9893 13.0652 15.9889 13.3983 15.992 13.7314C15.9928 13.8014 15.9998 13.8676 15.8938 13.8664C15.5928 13.8629 15.2918 13.8652 14.9677 13.8652C14.9677 13.5787 14.9677 13.3051 14.9677 13.0311C14.9677 12.9321 14.979 12.8311 14.9618 12.7352C14.9524 12.6828 14.8937 12.6393 14.8573 12.592C14.8217 12.6401 14.7571 12.6871 14.7555 12.7364C14.7461 13.0484 14.7508 13.3607 14.7504 13.6731C14.7504 13.7298 14.7504 13.7866 14.7504 13.8648L14.7508 13.8652Z" fill="#35469C"/>
<path d="M6.91487 11.4761H9.25359C9.01052 12.0115 9.02265 12.5309 9.31426 13.0586C8.84847 13.0856 8.44492 13.2367 8.11261 13.5674C7.76581 13.2288 7.35991 13.0425 6.85498 13.0253C7.12075 12.5149 7.15559 12.0014 6.91526 11.4761H6.91487Z" fill="#35469C"/>
<path d="M11.755 12.2105C11.7562 12.796 11.2822 13.2755 10.6966 13.2802C10.1095 13.2849 9.62178 12.7968 9.62452 12.2069C9.62765 11.6202 10.1044 11.1478 10.6919 11.1489C11.281 11.1501 11.7534 11.6222 11.7546 12.2105H11.755Z" fill="#35469C"/>
<path d="M4.43457 12.1859C4.43457 11.5964 4.90466 11.1243 5.49414 11.1216C6.08753 11.1189 6.56858 11.5999 6.56389 12.1929C6.55958 12.7785 6.08048 13.2529 5.49492 13.2513C4.90858 13.2493 4.43418 12.7734 4.43457 12.1863V12.1859Z" fill="#35469C"/>
<path d="M14.469 10.1063C14.4565 10.6856 13.9609 11.1639 13.3957 11.1424C12.8055 11.1201 12.3397 10.6379 12.36 10.0703C12.3812 9.48161 12.8595 9.01856 13.4321 9.03305C14.0126 9.04753 14.4815 9.53328 14.469 10.1067V10.1063Z" fill="#35469C"/>
<path d="M8.26848 9.02493C8.84856 9.02063 9.32139 9.48485 9.33118 10.0692C9.34097 10.6419 8.86304 11.1249 8.28375 11.1284C7.7021 11.1315 7.22574 10.6638 7.22026 10.0845C7.21478 9.50794 7.68762 9.02924 8.26848 9.02493Z" fill="#35469C"/>
<path d="M2.58281 9.02491C3.16328 9.02217 3.63611 9.48953 3.64238 10.072C3.64825 10.6466 3.17111 11.1264 2.5922 11.1284C2.00977 11.13 1.53537 10.6614 1.53224 10.0814C1.52911 9.50323 2.00194 9.02765 2.58281 9.02491V9.02491Z" fill="#35469C"/>
<path d="M2.80472 1.00489C2.80003 0.458472 3.23959 0.00873231 3.7864 0.000121115C4.33595 -0.00849008 4.79117 0.443206 4.79117 0.997455C4.79117 1.54387 4.3473 1.99166 3.80167 1.99557C3.25955 1.99948 2.80942 1.55209 2.80472 1.00489V1.00489Z" fill="#35469C"/>
<path d="M8.36262 3.73371C8.24128 3.59436 8.13324 3.47067 8.0166 3.33681C8.04674 3.31019 8.08314 3.27535 8.12228 3.24443C8.45225 2.98375 8.78261 2.72306 9.11336 2.46355C9.15406 2.43185 9.19634 2.39975 9.24213 2.37744C9.36778 2.31677 9.48011 2.34965 9.56075 2.45494C9.64725 2.56767 9.64334 2.69332 9.53922 2.79313C9.43471 2.89333 9.31728 2.98023 9.20338 3.07025C8.92313 3.29258 8.6417 3.51373 8.36262 3.7341V3.73371Z" fill="#35469C"/>
</g>
<defs>
<clipPath id="clip0_1581_2778">
<rect width="15.9926" height="16" fill="white"/>
</clipPath>
</defs>
</svg>
