<svg width="20" height="17" viewBox="0 0 20 17" fill="none" xmlns="http://www.w3.org/2000/svg">
<g clip-path="url(#clip0_1571_7282)">
<path d="M19.5977 9.76102C19.5902 10.8464 18.8123 11.7333 17.7109 11.9089C15.5013 12.2614 13.2921 12.6153 11.0825 12.9675C8.84384 13.3241 6.60518 13.6817 4.36545 14.033C3.03769 14.2413 1.97361 13.4236 1.77191 12.0877C1.50892 10.3481 1.21779 8.61316 0.944537 6.87494C0.870134 6.40287 0.773216 5.92808 0.7637 5.45338C0.742323 4.38985 1.55329 3.48655 2.60505 3.32137C4.63401 3.00255 6.66117 2.67345 8.68981 2.35151C11.183 1.95574 13.676 1.55198 16.1724 1.17409C17.1712 1.02268 18.3475 1.69239 18.5616 3.03991C18.8977 5.15566 19.2355 7.27059 19.5703 9.38673C19.59 9.51001 19.5891 9.63643 19.5977 9.76146L19.5977 9.76102ZM11.9227 4.43527C11.8982 4.43735 11.8534 4.4377 11.8101 4.44433C10.8154 4.60257 9.82068 4.76169 8.82554 4.92035C7.16308 5.18567 5.5006 5.45142 3.83776 5.71538C3.5394 5.76286 3.3689 5.95764 3.40446 6.22222C3.43902 6.47923 3.66469 6.62173 3.96527 6.57435C5.89021 6.27072 7.81511 5.96798 9.73969 5.66256C10.5097 5.54022 11.2793 5.41698 12.0475 5.28436C12.2804 5.24436 12.4243 5.03694 12.4013 4.82213C12.3763 4.59081 12.1912 4.43402 11.9236 4.4353L11.9227 4.43527ZM4.65826 11.5832C4.72204 11.5752 4.81738 11.5658 4.91161 11.5511C6.47978 11.3019 8.04795 11.0526 9.61616 10.8024C10.1316 10.7201 10.6474 10.6399 11.1614 10.5487C11.3863 10.5088 11.5313 10.3178 11.5221 10.1124C11.5137 9.91997 11.3623 9.73176 11.1756 9.70712C11.0759 9.69365 10.9698 9.70609 10.8689 9.7223C9.4821 9.94097 8.09569 10.1619 6.70886 10.3823C5.99735 10.4956 5.28545 10.6074 4.57465 10.7247C4.32537 10.7658 4.18502 10.9503 4.2016 11.1915C4.21781 11.4202 4.38872 11.5777 4.6578 11.5836L4.65826 11.5832ZM4.27057 9.0877C4.29285 9.08552 4.3373 9.08338 4.38064 9.07631C5.85509 8.83999 7.32957 8.60323 8.80362 8.36602C9.11763 8.31564 9.2723 8.13884 9.24232 7.86783C9.21397 7.61109 9.00042 7.46509 8.6861 7.51235C7.8208 7.6427 6.95648 7.78152 6.09178 7.91899C5.44546 8.02208 4.7988 8.12293 4.15386 8.23583C3.91832 8.27705 3.77127 8.4839 3.79407 8.69294C3.81943 8.9256 4.00657 9.08779 4.27015 9.08723L4.27057 9.0877Z" fill="#026A8A"/>
<path d="M17.8096 12.434C17.8049 13.2063 17.8778 13.9814 17.7755 14.7332C17.651 15.6464 16.8367 16.2443 15.9163 16.2393C11.6087 16.2147 7.30065 16.1884 2.99321 16.159C1.93665 16.1518 1.11017 15.3392 1.09775 14.2844C1.08686 13.3846 1.10392 12.4847 1.10946 11.5846C1.10959 11.5496 1.11638 11.5144 1.14142 11.4777C1.2151 11.9032 1.27179 12.3319 1.36518 12.7529C1.64837 14.0287 2.87629 14.8222 4.16703 14.6079C6.01088 14.3018 7.85864 14.0189 9.70467 13.7244C11.18 13.489 12.655 13.251 14.1307 13.016C15.359 12.8205 16.5871 12.6276 17.81 12.4345L17.8096 12.434Z" fill="#026A8A"/>
</g>
<defs>
<clipPath id="clip0_1571_7282">
<rect width="19.0022" height="15.5556" fill="white" transform="translate(0.96582 0.506348) rotate(2.38459)"/>
</clipPath>
</defs>
</svg>
