<svg width="23" height="17" viewBox="0 0 23 17" fill="none" xmlns="http://www.w3.org/2000/svg">
<g clip-path="url(#clip0_1571_7281)">
<path d="M22.4568 7.13801C22.4228 7.16484 22.4014 7.18273 22.3763 7.19883C21.5786 7.69606 20.7791 8.1933 19.9796 8.69053C19.4931 8.9928 19.0066 9.29687 18.5201 9.60093C18.3788 9.68857 18.3627 9.68321 18.3216 9.50971C18.2178 9.06256 17.996 8.72094 17.6401 8.46338C16.7601 7.82663 15.7889 7.4707 14.7622 7.26322C14.0378 7.11655 13.3081 7.01281 12.5694 6.9985C12.0632 6.98956 11.5552 6.95915 11.0491 6.97704C9.90077 7.01818 8.75784 7.12013 7.64175 7.45102C6.89769 7.67102 6.19298 7.98939 5.54729 8.45622C5.2003 8.70842 4.98209 9.06077 4.89623 9.50971C4.89087 9.53475 4.8855 9.56158 4.88013 9.58662C4.86583 9.68679 4.8229 9.70825 4.74062 9.65638C4.50095 9.50435 4.25949 9.3541 4.01624 9.20565C3.90713 9.13947 3.79624 9.07866 3.68713 9.01248C3.62095 8.97134 3.57803 8.97134 3.57803 9.0715C3.57803 9.4328 3.57445 9.79589 3.58339 10.1572C3.58339 10.2108 3.63168 10.2842 3.6764 10.3128C4.05022 10.5614 4.11103 10.9746 3.81233 11.3305C3.75867 11.3931 3.76404 11.4468 3.78193 11.5147C3.99477 12.3661 4.16648 13.2264 4.2738 14.1011C4.33819 14.6251 4.35965 15.1546 4.40973 15.6804C4.4294 15.8915 4.33461 16.0077 4.18079 16.0864C3.84811 16.2564 3.49754 16.3333 3.13445 16.2349C2.9699 16.1902 2.81071 16.1151 2.6551 16.0364C2.54242 15.9791 2.50128 15.87 2.50128 15.7269C2.49949 15.1581 2.56388 14.5965 2.63364 14.0349C2.73559 13.2068 2.88941 12.3912 3.08437 11.5845C3.11299 11.4665 3.0951 11.3806 3.02356 11.2822C2.77852 10.9442 2.84291 10.5578 3.17917 10.3307C3.25429 10.2788 3.28469 10.2198 3.28469 10.1268C3.2829 9.71183 3.28112 9.29687 3.28469 8.8837C3.28469 8.78711 3.25071 8.73167 3.1738 8.68516C2.41543 8.22907 1.65706 7.76939 0.898685 7.31151C0.769905 7.2346 0.766328 7.19346 0.895108 7.11297C1.46746 6.75346 2.04161 6.39574 2.61754 6.0416C3.29364 5.62664 3.97152 5.21705 4.6494 4.80566C5.33086 4.3925 6.0159 3.98112 6.69736 3.56795C7.34663 3.17445 7.99411 2.78096 8.64337 2.38567C9.38386 1.93494 10.1226 1.48242 10.863 1.03169C10.9632 0.970882 11.0634 0.910069 11.1653 0.849256C11.4479 0.682915 11.7341 0.681127 12.0185 0.84389C12.3154 1.01381 12.6087 1.19088 12.9021 1.36616C13.8876 1.95641 14.8731 2.54844 15.8604 3.13868C16.5401 3.54469 17.2233 3.94892 17.903 4.35493C18.4611 4.68941 19.0173 5.02745 19.5754 5.36013C20.2854 5.78225 20.9991 6.19899 21.7092 6.62289C21.931 6.75525 22.1438 6.90907 22.3602 7.05395C22.3906 7.07541 22.4157 7.10403 22.4532 7.13801H22.4568Z" fill="#D64545"/>
<path d="M11.4889 14.5339C10.7877 14.5178 10.1599 14.5285 9.5357 14.4838C8.94009 14.4409 8.34806 14.3425 7.75603 14.2585C7.26595 14.1887 6.78124 14.0868 6.31441 13.9097C6.08547 13.822 5.86368 13.7076 5.64547 13.5913C5.47734 13.5019 5.38255 13.3427 5.38791 13.1352C5.41295 12.1247 5.39328 11.1105 5.52563 10.1053C5.62759 9.33979 5.72596 9.20743 6.34661 8.84434C7.19441 8.34711 8.10839 8.09134 9.05099 7.94109C9.67164 7.84272 10.2959 7.79085 10.9219 7.78012C11.3225 7.77296 11.725 7.74613 12.1256 7.75865C13.2614 7.798 14.3882 7.91963 15.4864 8.25589C16.141 8.45621 16.7563 8.75133 17.3162 9.17881C17.4432 9.2754 17.5308 9.39881 17.5809 9.558C17.6649 9.82808 17.7007 10.1089 17.7061 10.3933C17.7258 11.259 17.7472 12.1229 17.7633 12.9886C17.7705 13.3481 17.7079 13.4339 17.4056 13.5859C16.6007 13.9938 15.7475 14.1887 14.8747 14.3103C14.1199 14.4141 13.3633 14.4928 12.6032 14.5017C12.2061 14.5071 11.809 14.525 11.4871 14.5357L11.4889 14.5339ZM11.7858 12.3554C11.7858 12.3554 11.7858 12.3482 11.7858 12.3447C11.2885 12.3572 10.7913 12.3608 10.2941 12.3822C9.73603 12.4055 9.17619 12.4359 8.61993 12.477C7.93668 12.5271 7.26238 12.6523 6.60417 12.8651C6.504 12.8973 6.39669 12.9206 6.30547 12.976C6.23571 13.019 6.1588 13.0941 6.13734 13.171C6.11051 13.2712 6.20888 13.3302 6.28043 13.382C6.31083 13.4053 6.34661 13.4268 6.38238 13.4375C6.66677 13.5251 6.94937 13.636 7.23912 13.6933C8.12628 13.8668 9.02595 13.89 9.92204 13.9455C10.5141 13.9812 11.1079 13.9777 11.6999 13.9848C12.0058 13.9884 12.3134 13.9938 12.6175 13.9759C13.1183 13.9472 13.6173 13.89 14.1181 13.8614C14.7191 13.8256 15.3201 13.7791 15.9139 13.6629C16.2448 13.5985 16.5685 13.5055 16.869 13.3373C17.0336 13.2461 17.0568 13.0941 16.9173 12.9617C16.8332 12.883 16.7241 12.8186 16.6168 12.79C16.3843 12.7292 16.1482 12.6899 15.9121 12.6541C15.3773 12.5718 14.8425 12.4699 14.3059 12.4251C13.7014 12.3733 13.0932 12.3733 12.4869 12.3554C12.2526 12.3482 12.0183 12.3554 11.784 12.3554H11.7858Z" fill="#D64545"/>
</g>
<defs>
<clipPath id="clip0_1571_7281">
<rect width="21.6511" height="15.5556" fill="white" transform="translate(0.805664 0.722168)"/>
</clipPath>
</defs>
</svg>
