<svg width="40" height="40" viewBox="0 0 40 40" fill="none" xmlns="http://www.w3.org/2000/svg">
<rect x="0.5" y="0.5" width="39" height="39" rx="7.5" fill="white" stroke="#9AA5B1"/>
<g opacity="0.9">
<path d="M24.5 20C24.5 22.1444 23.0002 23.9384 20.9922 24.3903C20.4534 24.5115 20 24.0523 20 23.5V16.5C20 15.9477 20.4534 15.4885 20.9922 15.6097C23.0002 16.0616 24.5 17.8556 24.5 20Z" stroke="#323F4B"/>
<path fill-rule="evenodd" clip-rule="evenodd" d="M27.2 20C27.2 23.9765 23.9765 27.2 20 27.2C16.0236 27.2 12.8 23.9765 12.8 20C12.8 16.0236 16.0236 12.8 20 12.8C23.9765 12.8 27.2 16.0236 27.2 20Z" stroke="#323F4B"/>
</g>
</svg>
