<svg width="12" height="12" viewBox="0 0 12 12" fill="none" xmlns="http://www.w3.org/2000/svg">
<path d="M2.32081 0.389758C2.65884 0.149001 3.1286 0.22707 3.37005 0.564129C3.61151 0.901189 3.53321 1.3696 3.19518 1.61036L1.44014 2.86036C1.10211 3.10112 0.632344 3.02305 0.390893 2.68599C0.149443 2.34893 0.227737 1.88051 0.565767 1.63976L2.32081 0.389758ZM8.66467 0.564131C8.90612 0.227069 9.37588 0.149002 9.71391 0.389758L11.469 1.63976C11.807 1.88051 11.8853 2.34893 11.6438 2.68599C11.4024 3.02305 10.9326 3.10112 10.5946 2.86036L8.83954 1.61036C8.50151 1.3696 8.42322 0.901189 8.66467 0.564131ZM6.01739 1.16663C3.06337 1.16663 0.668682 3.55443 0.668682 6.49997C0.668682 9.44548 3.06337 11.8333 6.01739 11.8333C8.9714 11.8333 11.3661 9.44548 11.3661 6.49997C11.3661 3.55443 8.9714 1.16663 6.01739 1.16663ZM5.95692 3.46338C6.16463 3.4634 6.33299 3.63131 6.33296 3.83842L6.33268 6.43527L8.17119 8.26849C8.31805 8.41494 8.31805 8.65237 8.17119 8.79882C8.02432 8.94527 7.7862 8.94527 7.63933 8.79882L5.69065 6.85574C5.62011 6.78541 5.58049 6.69001 5.5805 6.59054L5.5808 3.83834C5.58082 3.63123 5.74922 3.46336 5.95692 3.46338Z" fill="#1C1B1F"/>
</svg>
