<svg width="16" height="16" viewBox="0 0 16 16" fill="none" xmlns="http://www.w3.org/2000/svg">
<path fill-rule="evenodd" clip-rule="evenodd" d="M13.2628 6.42435L14.8977 4.78944C15.324 4.36317 15.5371 4.15004 15.6667 3.92929C16.0337 3.30418 16.0337 2.52945 15.6667 1.90434C15.5371 1.6836 15.324 1.47046 14.8977 1.04419L14.8977 1.04418C14.4715 0.617922 14.2583 0.40479 14.0376 0.275212C13.4125 -0.0917373 12.6378 -0.0917373 12.0126 0.275212C11.7919 0.40479 11.5788 0.617921 11.1525 1.04418L11.1525 1.04419L11.1525 1.04419L9.49622 2.70047C10.3963 4.24773 11.6948 5.53624 13.2628 6.42435ZM8.04172 4.15497L1.70945 10.4872C1.28439 10.9123 1.07186 11.1248 0.93213 11.3859C0.792395 11.647 0.733449 11.9417 0.615559 12.5312L0.0638519 15.2897C-0.00267024 15.6223 -0.0359313 15.7887 0.0586767 15.8833C0.153285 15.9779 0.31959 15.9446 0.6522 15.8781L3.41074 15.3264C4.00019 15.2085 4.29491 15.1495 4.55601 15.0098C4.81711 14.8701 5.02964 14.6575 5.4547 14.2325L11.8046 7.88262C10.2876 6.92997 9.00357 5.65475 8.04172 4.15497Z" fill="white"/>
</svg>
