<svg width="14" height="16" viewBox="0 0 14 16" fill="none" xmlns="http://www.w3.org/2000/svg">
<path fill-rule="evenodd" clip-rule="evenodd" d="M0.273627 5.15928C0 5.7542 0 6.43102 0 7.78465V12.0122C0 13.892 0 14.832 0.584006 15.416C1.11359 15.9456 1.93587 15.9949 3.48633 15.9995V11.0153C3.48633 9.91236 4.3804 9.01829 5.48329 9.01829H8.47417C9.57706 9.01829 10.4711 9.91236 10.4711 11.0153V15.9995C12.0216 15.9949 12.8439 15.9456 13.3735 15.416C13.9575 14.832 13.9575 13.892 13.9575 12.0122V7.78465C13.9575 6.43102 13.9575 5.7542 13.6838 5.15928C13.4102 4.56435 12.8963 4.12388 11.8686 3.24295L10.8716 2.38841C9.01396 0.796138 8.08513 0 6.97873 0C5.87233 0 4.9435 0.796138 3.08585 2.38841L2.08888 3.24295C1.06113 4.12388 0.547255 4.56435 0.273627 5.15928ZM8.47113 16V11.0183H5.48633V16H8.47113Z" fill="#F9703E"/>
</svg>
