<svg width="17" height="12" viewBox="0 0 17 12" fill="none" xmlns="http://www.w3.org/2000/svg">
<path fill-rule="evenodd" clip-rule="evenodd" d="M0.687525 4.28287C1.93165 2.50976 4.37804 0 8.25857 0C12.1391 0 14.5855 2.50976 15.8296 4.28287C16.3004 4.95389 16.5359 5.2894 16.516 5.95382C16.4961 6.61824 16.2276 6.95603 15.6905 7.63161C14.2781 9.40833 11.6386 12 8.25857 12C4.87856 12 2.23902 9.40833 0.826616 7.63161C0.289564 6.95603 0.0210386 6.61824 0.00116186 5.95382C-0.0187148 5.2894 0.216699 4.95389 0.687525 4.28287ZM8.25857 9.42857C10.1521 9.42857 11.6871 7.89355 11.6871 6C11.6871 4.10645 10.1521 2.57143 8.25857 2.57143C6.36502 2.57143 4.83 4.10645 4.83 6C4.83 7.89355 6.36502 9.42857 8.25857 9.42857Z" fill="#9AA5B1"/>
</svg>
