<svg width="17" height="16" viewBox="0 0 17 16" fill="none" xmlns="http://www.w3.org/2000/svg">
<path d="M15.4 1.31262H10.85L9.45001 4.69271C11.0115 4.98989 12.3213 5.93687 13.0445 7.21952L15.4 1.31262Z" fill="#323F4B"/>
<path d="M5.95002 1.31262H1.40002L3.75556 7.21952C4.47869 5.93687 5.78853 4.98989 7.35002 4.69271L5.95002 1.31262Z" fill="#323F4B"/>
<path d="M13.65 9.51665C13.65 12.2352 11.2995 14.4391 8.40002 14.4391C5.50052 14.4391 3.15002 12.2352 3.15002 9.51665C3.15002 8.687 3.36894 7.90528 3.75556 7.21953C4.47869 5.93688 5.78853 4.9899 7.35002 4.69272C7.68928 4.62814 8.04043 4.59424 8.40002 4.59424C8.75961 4.59424 9.11077 4.62814 9.45002 4.69272C11.0115 4.9899 12.3214 5.93688 13.0445 7.21953C13.4311 7.90528 13.65 8.687 13.65 9.51665Z" fill="#323F4B"/>
<path fill-rule="evenodd" clip-rule="evenodd" d="M8.4 5.08647C8.07569 5.08647 7.75952 5.11704 7.45446 5.17511L7.45444 5.17512C6.05058 5.4423 4.87096 6.29435 4.21968 7.44956L4.21968 7.44956C3.87205 8.06614 3.675 8.76909 3.675 9.51664C3.675 11.9634 5.79044 13.9468 8.4 13.9468C11.0096 13.9468 13.125 11.9634 13.125 9.51664C13.125 8.76909 12.9279 8.06614 12.5803 7.44956C11.929 6.29435 10.7494 5.4423 9.34556 5.17512L9.34554 5.17511C9.04048 5.11704 8.72431 5.08647 8.4 5.08647ZM7.24556 4.21031C7.619 4.13922 8.00514 4.10199 8.4 4.10199C8.79486 4.10199 9.18101 4.13922 9.55446 4.21031L9.45 4.69271L9.55446 4.21031C11.2736 4.5375 12.7136 5.57938 13.5086 6.98948L13.0445 7.21952L13.5086 6.98948C13.9342 7.74441 14.175 8.60489 14.175 9.51664C14.175 12.5071 11.5895 14.9313 8.4 14.9313C5.21055 14.9313 2.625 12.5071 2.625 9.51664C2.625 8.60489 2.86577 7.74441 3.29139 6.98948C4.08637 5.57939 5.52642 4.5375 7.24554 4.21031" fill="white"/>
<path d="M8.19362 6.68918C8.27803 6.52125 8.52192 6.52125 8.60634 6.68918L9.2933 8.05563C9.32683 8.12232 9.39164 8.16854 9.46659 8.17923L11.0027 8.39835C11.1914 8.42528 11.2668 8.653 11.1302 8.7837L10.0187 9.84735C9.96446 9.89924 9.9397 9.97402 9.95252 10.0473L10.2149 11.5492C10.2472 11.7338 10.0498 11.8745 9.88099 11.7874L8.50706 11.0782C8.44002 11.0437 8.35993 11.0437 8.2929 11.0782L6.91896 11.7874C6.75013 11.8745 6.5528 11.7338 6.58504 11.5492L6.84743 10.0473C6.86025 9.97402 6.83549 9.89924 6.78125 9.84735L5.66973 8.7837C5.53313 8.653 5.60852 8.42528 5.79727 8.39835L7.33336 8.17923C7.40831 8.16854 7.47312 8.12232 7.50665 8.05563L8.19362 6.68918Z" fill="white"/>
</svg>
