<svg width="15" height="15" viewBox="0 0 15 15" fill="none" xmlns="http://www.w3.org/2000/svg">
<g clip-path="url(#clip0_1306_902)">
<path d="M13.75 1.24658H9.6875L8.4375 4.45611C9.83169 4.7383 11.0012 5.63749 11.6468 6.85542L13.75 1.24658Z" fill="#1C1B1F"/>
<path fill-rule="evenodd" clip-rule="evenodd" d="M9.25054 1.07701C9.32056 0.897244 9.4941 0.778809 9.6875 0.778809H13.75C13.9037 0.778809 14.0476 0.853903 14.1351 0.979795C14.2227 1.10569 14.2429 1.26639 14.1891 1.4099L12.0859 7.01874C12.0213 7.19115 11.8611 7.30967 11.6769 7.32149C11.4927 7.3333 11.3187 7.23621 11.2324 7.07348C10.6509 5.97657 9.59769 5.1675 8.34425 4.9138C8.20881 4.88639 8.09241 4.80078 8.02615 4.67985C7.95988 4.55892 7.95051 4.415 8.00054 4.28654L9.25054 1.07701ZM10.0083 1.71361L9.06488 4.13601C10.0478 4.44782 10.9023 5.04511 11.5308 5.82979L13.0743 1.71361H10.0083Z" fill="#1C1B1F"/>
<path d="M5.3125 1.24658H1.25L3.35316 6.85542C3.99881 5.63749 5.16831 4.7383 6.5625 4.45611L5.3125 1.24658Z" fill="#1C1B1F"/>
<path fill-rule="evenodd" clip-rule="evenodd" d="M0.864855 0.979795C0.95244 0.853903 1.09634 0.778809 1.25 0.778809H5.3125C5.5059 0.778809 5.67945 0.897244 5.74946 1.07701L6.99946 4.28654C7.04949 4.415 7.04012 4.55892 6.97386 4.67985C6.90759 4.80078 6.79119 4.88639 6.65575 4.9138C5.40231 5.1675 4.34908 5.97657 3.76757 7.07348C3.68131 7.23621 3.50729 7.3333 3.32307 7.32149C3.13885 7.30967 2.97874 7.19115 2.9141 7.01874L0.810939 1.4099C0.757125 1.26639 0.777269 1.10569 0.864855 0.979795ZM1.92571 1.71361L3.46916 5.82979C4.09773 5.04511 4.95219 4.44782 5.93512 4.13601L4.99168 1.71361H1.92571Z" fill="#1C1B1F"/>
<path d="M12.1875 9.03634C12.1875 11.6177 10.0888 13.7104 7.5 13.7104C4.91116 13.7104 2.8125 11.6177 2.8125 9.03634C2.8125 8.24854 3.00796 7.50628 3.35316 6.85512C3.99881 5.63719 5.16831 4.738 6.5625 4.45582C6.86541 4.39449 7.17894 4.3623 7.5 4.3623C7.82106 4.3623 8.13459 4.39449 8.4375 4.45582C9.83169 4.738 11.0012 5.63719 11.6468 6.85512C11.992 7.50628 12.1875 8.24854 12.1875 9.03634Z" fill="#1C1B1F"/>
<path fill-rule="evenodd" clip-rule="evenodd" d="M7.5 4.82983C7.21043 4.82983 6.92814 4.85885 6.65577 4.91399L6.65575 4.914C5.40231 5.1677 4.34907 5.97676 3.76757 7.07367L3.76757 7.07367C3.45719 7.65914 3.28125 8.32662 3.28125 9.03645C3.28125 11.3597 5.17004 13.2431 7.5 13.2431C9.82996 13.2431 11.7188 11.3597 11.7188 9.03645C11.7188 8.32662 11.5428 7.65914 11.2324 7.07367C10.6509 5.97676 9.59769 5.1677 8.34425 4.914L8.34423 4.91399C8.07186 4.85885 7.78957 4.82983 7.5 4.82983ZM6.46925 3.99787C6.80268 3.93037 7.14745 3.89502 7.5 3.89502C7.85256 3.89502 8.19733 3.93037 8.53077 3.99788L8.4375 4.45593L8.53077 3.99788C10.0657 4.30855 11.3514 5.29786 12.0613 6.63681L11.6468 6.85524L12.0613 6.63681C12.4413 7.35364 12.6562 8.1707 12.6562 9.03645C12.6562 11.876 10.3477 14.1779 7.5 14.1779C4.65227 14.1779 2.34375 11.876 2.34375 9.03645C2.34375 8.17071 2.55872 7.35365 2.93874 6.63681C3.64855 5.29787 4.93431 4.30856 6.46923 3.99788" fill="#1C1B1F"/>
<path d="M7.31575 6.35152C7.39112 6.19207 7.60888 6.19207 7.68425 6.35152L8.29761 7.64902C8.32755 7.71235 8.38541 7.75624 8.45234 7.76639L9.82384 7.97445C9.99237 8.00002 10.0597 8.21626 9.93772 8.34035L8.94529 9.35033C8.89686 9.39961 8.87475 9.47062 8.8862 9.54021L9.12048 10.9663C9.14927 11.1416 8.97307 11.2752 8.82234 11.1925L7.59561 10.5191C7.53575 10.4863 7.46425 10.4863 7.40439 10.5191L6.17766 11.1925C6.02693 11.2752 5.85073 11.1416 5.87952 10.9663L6.1138 9.54021C6.12525 9.47062 6.10314 9.39961 6.05471 9.35033L5.06228 8.34035C4.94031 8.21626 5.00763 8.00002 5.17616 7.97445L6.54766 7.76639C6.61459 7.75624 6.67245 7.71235 6.70239 7.64902L7.31575 6.35152Z" fill="white"/>
</g>
<defs>
<clipPath id="clip0_1306_902">
<rect width="15" height="14.9569" fill="white"/>
</clipPath>
</defs>
</svg>
