<svg width="12" height="12" viewBox="0 0 12 12" fill="none" xmlns="http://www.w3.org/2000/svg">
<path d="M2.31413 0.389758C2.65119 0.149001 3.1196 0.22707 3.36036 0.564129C3.60112 0.901189 3.52305 1.3696 3.18599 1.61036L1.43599 2.86036C1.09893 3.10112 0.630515 3.02305 0.389758 2.68599C0.149001 2.34893 0.22707 1.88051 0.56413 1.63976L2.31413 0.389758ZM8.63976 0.564131C8.88052 0.227069 9.34893 0.149002 9.68599 0.389758L11.436 1.63976C11.773 1.88051 11.8511 2.34893 11.6104 2.68599C11.3696 3.02305 10.9012 3.10112 10.5641 2.86036L8.81413 1.61036C8.47707 1.3696 8.399 0.901189 8.63976 0.564131ZM6.00009 1.16663C3.05455 1.16663 0.666748 3.55443 0.666748 6.49997C0.666748 9.44548 3.05455 11.8333 6.00009 11.8333C8.9456 11.8333 11.3334 9.44548 11.3334 6.49997C11.3334 3.55443 8.9456 1.16663 6.00009 1.16663ZM5.93979 3.46338C6.1469 3.4634 6.31478 3.63131 6.31475 3.83842L6.31447 6.43527L8.14769 8.26849C8.29414 8.41494 8.29414 8.65237 8.14769 8.79882C8.00125 8.94527 7.76381 8.94527 7.61736 8.79882L5.67429 6.85574C5.60395 6.78541 5.56444 6.69001 5.56445 6.59054L5.56475 3.83834C5.56478 3.63123 5.73269 3.46336 5.93979 3.46338Z" fill="#1C1B1F"/>
</svg>
