<svg width="24" height="24" viewBox="0 0 24 24" fill="none" xmlns="http://www.w3.org/2000/svg">
<path fill-rule="evenodd" clip-rule="evenodd" d="M3 3.75C2.86193 3.75 2.75 3.86193 2.75 4V17C2.75 17.1381 2.86192 17.25 3 17.25H13C13.4142 17.25 13.75 17.5858 13.75 18C13.75 18.4142 13.4142 18.75 13 18.75H3C2.03351 18.75 1.25 17.9665 1.25 17V4C1.25 3.0335 2.0335 2.25 3 2.25H21C21.9665 2.25 22.75 3.03351 22.75 4V17C22.75 17.9665 21.9665 18.75 21 18.75H17C16.5858 18.75 16.25 18.4142 16.25 18C16.25 17.5858 16.5858 17.25 17 17.25H21C21.1381 17.25 21.25 17.1381 21.25 17V4C21.25 3.86192 21.1381 3.75 21 3.75H3Z" fill="#F9703E"/>
<path fill-rule="evenodd" clip-rule="evenodd" d="M5.25 7C5.25 6.58579 5.58579 6.25 6 6.25H18C18.4142 6.25 18.75 6.58579 18.75 7C18.75 7.41421 18.4142 7.75 18 7.75H6C5.58579 7.75 5.25 7.41421 5.25 7Z" fill="#F9703E"/>
<path fill-rule="evenodd" clip-rule="evenodd" d="M5.25 10.5C5.25 10.0858 5.58579 9.75 6 9.75H9C9.41421 9.75 9.75 10.0858 9.75 10.5C9.75 10.9142 9.41421 11.25 9 11.25H6C5.58579 11.25 5.25 10.9142 5.25 10.5Z" fill="#F9703E"/>
<path fill-rule="evenodd" clip-rule="evenodd" d="M5.25 14C5.25 13.5858 5.58579 13.25 6 13.25H8C8.41421 13.25 8.75 13.5858 8.75 14C8.75 14.4142 8.41421 14.75 8 14.75H6C5.58579 14.75 5.25 14.4142 5.25 14Z" fill="#F9703E"/>
<path d="M15 16.5C16.6568 16.5 18 15.1568 18 13.5C18 11.8432 16.6568 10.5 15 10.5C13.3432 10.5 12 11.8432 12 13.5C12 15.1568 13.3432 16.5 15 16.5Z" fill="#F9703E"/>
<path fill-rule="evenodd" clip-rule="evenodd" d="M11.25 13.5C11.25 11.4289 12.9289 9.75 15 9.75C17.0711 9.75 18.75 11.4289 18.75 13.5C18.75 15.5711 17.0711 17.25 15 17.25C12.9289 17.25 11.25 15.5711 11.25 13.5ZM15 11.25C13.7574 11.25 12.75 12.2574 12.75 13.5C12.75 14.7426 13.7574 15.75 15 15.75C16.2426 15.75 17.25 14.7426 17.25 13.5C17.25 12.2574 16.2426 11.25 15 11.25Z" fill="#F9703E"/>
<path d="M15 20L17 21V15.7361C17 15.7361 16.4297 16.5 15 16.5C13.5703 16.5 13 15.75 13 15.75V21L15 20Z" fill="#F9703E"/>
<path fill-rule="evenodd" clip-rule="evenodd" d="M17.2364 15.0243C17.543 15.1262 17.75 15.413 17.75 15.7361V21C17.75 21.2599 17.6154 21.5013 17.3943 21.638C17.1732 21.7746 16.8971 21.7871 16.6646 21.6708L15 20.8385L13.3354 21.6708C13.1029 21.7871 12.8268 21.7746 12.6057 21.638C12.3846 21.5013 12.25 21.2599 12.25 21V15.75C12.25 15.4281 12.4554 15.1421 12.7605 15.0393C13.0597 14.9384 13.3894 15.0359 13.5857 15.2816C13.5895 15.2863 13.5933 15.2912 13.597 15.296M13.75 17.0657V19.7865L14.6646 19.3292C14.8757 19.2236 15.1243 19.2236 15.3354 19.3292L16.25 19.7865V17.063C15.9033 17.175 15.4881 17.25 15 17.25C14.5117 17.25 14.0966 17.1761 13.75 17.0657ZM16.3995 15.2867L16.4 15.286L16.401 15.2847L16.4029 15.2823L16.406 15.2782L16.4101 15.273C16.4119 15.2708 16.4118 15.271 16.4099 15.2732C16.6048 15.0246 16.9354 14.9244 17.2364 15.0243M16.4097 15.2734C16.4055 15.2781 16.3936 15.2913 16.3735 15.3103ZM16.3735 15.3103C16.3333 15.3483 16.261 15.4091 16.1529 15.4733ZM16.1529 15.4733C15.942 15.5987 15.5737 15.75 15 15.75ZM15 15.75C14.4235 15.75 14.0533 15.6006 13.8419 15.4772ZM13.8419 15.4772C13.7336 15.4141 13.6614 15.3544 13.6215 15.3173ZM13.6215 15.3173C13.6015 15.2988 13.5898 15.2861 13.5857 15.2816Z" fill="#F9703E"/>
</svg>
