<svg width="8" height="10" viewBox="0 0 8 10" fill="none" xmlns="http://www.w3.org/2000/svg">
<path d="M2.95841 0.520813C2.84217 0.520813 2.73553 0.585337 2.68159 0.688311L0.389926 5.06331C0.339184 5.16018 0.342771 5.27653 0.399382 5.37009C0.455993 5.46365 0.557393 5.52081 0.666748 5.52081H3.17804L2.23954 9.08712C2.20302 9.2259 2.26571 9.37171 2.39155 9.44069C2.51739 9.50966 2.67404 9.48406 2.77137 9.37861L7.77137 3.96194C7.85556 3.87074 7.87779 3.73835 7.82801 3.62464C7.77823 3.51094 7.66587 3.43748 7.54175 3.43748H5.05971L6.95414 1.02638C7.02805 0.932313 7.04177 0.804304 6.98948 0.696708C6.93718 0.589111 6.82805 0.520813 6.70841 0.520813H2.95841Z" fill="#1C1B1F"/>
</svg>
