<svg width="18" height="18" viewBox="0 0 18 18" fill="none" xmlns="http://www.w3.org/2000/svg">
<path d="M4.56522 17L8.73913 12.8261H15C16.1046 12.8261 17 11.9307 17 10.8261V3C17 1.89543 16.1046 1 15 1H3C1.89543 1 1 1.89543 1 3V10.8261C1 11.9307 1.89543 12.8261 3 12.8261H4.56522V17Z" fill="white"/>
<path d="M5 7.07519V7M9 7.07519V7M13 7.07519V7M8.73913 12.8261L4.56522 17V12.8261H3C1.89543 12.8261 1 11.9307 1 10.8261V3C1 1.89543 1.89543 1 3 1H15C16.1046 1 17 1.89543 17 3V10.8261C17 11.9307 16.1046 12.8261 15 12.8261H8.73913Z" stroke="#323F4B" stroke-linecap="round" stroke-linejoin="round"/>
</svg>
