<svg width="40" height="40" viewBox="0 0 40 40" fill="none" xmlns="http://www.w3.org/2000/svg">
<rect x="0.5" y="0.5" width="39" height="39" rx="7.5" fill="white" stroke="#9AA5B1"/>
<path d="M17.1009 27.7953L19.9287 22.0286C19.9518 21.9816 19.9633 21.9581 19.979 21.9506C19.9926 21.944 20.0085 21.944 20.0221 21.9506C20.0378 21.9581 20.0493 21.9816 20.0724 22.0286L22.9002 27.7953C22.931 27.8581 22.9464 27.8895 22.941 27.9081C22.9363 27.9242 22.9238 27.9369 22.9077 27.9419C22.8892 27.9476 22.8576 27.9327 22.7943 27.9029L20.0346 26.6042L20.0346 26.6042C20.0221 26.5983 20.0158 26.5954 20.0093 26.5942C20.0035 26.5932 19.9976 26.5932 19.9918 26.5942C19.9852 26.5954 19.979 26.5983 19.9665 26.6042L19.9665 26.6042L17.2067 27.9029C17.1435 27.9327 17.1119 27.9476 17.0933 27.9419C17.0773 27.9369 17.0648 27.9242 17.0601 27.9081C17.0547 27.8895 17.0701 27.8581 17.1009 27.7953Z" stroke="#323F4B" stroke-width="2" stroke-linecap="round"/>
<path d="M12 25.177L15 12" stroke="#323F4B" stroke-width="2" stroke-linecap="round"/>
<path d="M28.0002 25.177L25.0002 12" stroke="#323F4B" stroke-width="2" stroke-linecap="round"/>
<path d="M20 18.5892L20 16.7068" stroke="#323F4B" stroke-width="2" stroke-linecap="round"/>
<path d="M20.0001 13.8824L20.0001 12" stroke="#323F4B" stroke-width="2" stroke-linecap="round"/>
</svg>
