<svg width="30" height="30" viewBox="0 0 30 30" fill="none" xmlns="http://www.w3.org/2000/svg">
<rect width="30" height="30" rx="8" fill="#F9703E"/>
<rect x="5" y="5" width="20" height="20" rx="8" fill="#FF9466"/>
<g clip-path="url(#clip0_1916_9727)">
<path d="M19.9152 15.7597C19.9114 16.3179 19.5113 16.774 18.9449 16.8643C17.8085 17.0456 16.6723 17.2276 15.536 17.4087C14.3847 17.5921 13.2334 17.776 12.0815 17.9567C11.3987 18.0638 10.8514 17.6433 10.7477 16.9562C10.6124 16.0616 10.4627 15.1693 10.3222 14.2754C10.2839 14.0326 10.2341 13.7884 10.2292 13.5443C10.2182 12.9974 10.6353 12.5328 11.1762 12.4479C12.2196 12.2839 13.2622 12.1146 14.3055 11.9491C15.5877 11.7455 16.8698 11.5379 18.1537 11.3435C18.6673 11.2657 19.2723 11.6101 19.3824 12.3031C19.5552 13.3912 19.729 14.4789 19.9011 15.5672C19.9113 15.6306 19.9108 15.6956 19.9152 15.7599L19.9152 15.7597ZM15.9681 13.0207C15.9555 13.0218 15.9325 13.022 15.9102 13.0254C15.3986 13.1067 14.8871 13.1886 14.3753 13.2702C13.5203 13.4066 12.6653 13.5433 11.8101 13.6791C11.6567 13.7035 11.569 13.8036 11.5873 13.9397C11.6051 14.0719 11.7211 14.1452 11.8757 14.1208C12.8657 13.9647 13.8556 13.809 14.8454 13.6519C15.2414 13.589 15.6372 13.5256 16.0323 13.4574C16.152 13.4368 16.2261 13.3301 16.2142 13.2197C16.2014 13.1007 16.1062 13.0201 15.9686 13.0207L15.9681 13.0207ZM12.2321 16.6968C12.2649 16.6927 12.3139 16.6879 12.3624 16.6803C13.1689 16.5521 13.9754 16.4239 14.7819 16.2952C15.047 16.2529 15.3122 16.2117 15.5766 16.1647C15.6922 16.1442 15.7668 16.046 15.7621 15.9404C15.7578 15.8414 15.6799 15.7446 15.5839 15.7319C15.5326 15.725 15.478 15.7314 15.4261 15.7398C14.7129 15.8522 13.9999 15.9658 13.2867 16.0792C12.9208 16.1374 12.5547 16.195 12.1891 16.2553C12.0609 16.2764 11.9887 16.3713 11.9972 16.4953C12.0056 16.613 12.0935 16.694 12.2319 16.697L12.2321 16.6968ZM12.0327 15.4134C12.0442 15.4123 12.067 15.4112 12.0893 15.4075C12.8476 15.286 13.6059 15.1642 14.364 15.0422C14.5255 15.0163 14.605 14.9254 14.5896 14.786C14.575 14.654 14.4652 14.5789 14.3036 14.6032C13.8585 14.6702 13.414 14.7416 12.9693 14.8123C12.6369 14.8654 12.3044 14.9172 11.9727 14.9753C11.8516 14.9965 11.7759 15.1029 11.7877 15.2104C11.8007 15.33 11.8969 15.4134 12.0325 15.4131L12.0327 15.4134Z" fill="#F5F7FA"/>
<path d="M18.9956 17.1342C18.9932 17.5314 19.0307 17.93 18.9781 18.3166C18.914 18.7863 18.4953 19.0938 18.0219 19.0912C15.8066 19.0786 13.591 19.065 11.3758 19.0499C10.8324 19.0462 10.4073 18.6283 10.4009 18.0858C10.3953 17.6231 10.4041 17.1602 10.407 16.6974C10.407 16.6793 10.4105 16.6612 10.4234 16.6424C10.4613 16.8612 10.4904 17.0817 10.5385 17.2982C10.6841 17.9543 11.3156 18.3624 11.9794 18.2522C12.9277 18.0948 13.878 17.9493 14.8274 17.7978C15.5861 17.6768 16.3446 17.5543 17.1036 17.4335C17.7353 17.333 18.3669 17.2338 18.9958 17.1344L18.9956 17.1342Z" fill="#F5F7FA"/>
</g>
<defs>
<clipPath id="clip0_1916_9727">
<rect width="9.77258" height="8" fill="white" transform="translate(10.333 11) rotate(2.38459)"/>
</clipPath>
</defs>
</svg>
