<svg width="17" height="17" viewBox="0 0 17 17" fill="none" xmlns="http://www.w3.org/2000/svg">
<g clip-path="url(#clip0_1304_2138)">
<path d="M15.4 1.59619H10.85L9.45001 5.19087C11.0115 5.50692 12.3213 6.51401 13.0445 7.87809L15.4 1.59619Z" fill="#E6F9ED"/>
<path fill-rule="evenodd" clip-rule="evenodd" d="M10.3606 1.40674C10.439 1.2054 10.6334 1.07275 10.85 1.07275H15.4C15.5721 1.07275 15.7333 1.15686 15.8314 1.29786C15.9294 1.43886 15.952 1.61884 15.8917 1.77958L13.5362 8.06148C13.4638 8.25458 13.2845 8.38732 13.0782 8.40055C12.8718 8.41379 12.6769 8.30504 12.5803 8.12278C11.929 6.89424 10.7494 5.98809 9.34555 5.70395C9.19386 5.67325 9.06349 5.57736 8.98927 5.44192C8.91506 5.30648 8.90456 5.14529 8.9606 5.00141L10.3606 1.40674ZM11.2093 2.11974L10.1527 4.83282C11.2535 5.18204 12.2105 5.85101 12.9145 6.72985L14.6432 2.11974H11.2093Z" fill="#E6F9ED"/>
<path d="M5.95002 1.59619H1.40002L3.75556 7.87809C4.47869 6.51401 5.78853 5.50692 7.35002 5.19087L5.95002 1.59619Z" fill="#E6F9ED"/>
<path fill-rule="evenodd" clip-rule="evenodd" d="M0.968637 1.29786C1.06673 1.15686 1.2279 1.07275 1.4 1.07275H5.95C6.16661 1.07275 6.36098 1.2054 6.43939 1.40674L7.8394 5.00141C7.89543 5.14529 7.88493 5.30648 7.81072 5.44192C7.7365 5.57736 7.60613 5.67325 7.45444 5.70395C6.05059 5.98809 4.87096 6.89424 4.21968 8.12278C4.12306 8.30504 3.92816 8.41379 3.72184 8.40055C3.51552 8.38732 3.33619 8.25458 3.26379 8.06148L0.908252 1.77958C0.84798 1.61884 0.870542 1.43886 0.968637 1.29786ZM2.15679 2.11974L3.88546 6.72985C4.58946 5.85101 5.54646 5.18204 6.64734 4.83282L5.59069 2.11974H2.15679Z" fill="#E6F9ED"/>
<path d="M13.65 10.3209C13.65 13.212 11.2995 15.5558 8.40002 15.5558C5.50052 15.5558 3.15002 13.212 3.15002 10.3209C3.15002 9.43852 3.36894 8.60718 3.75556 7.87789C4.47869 6.51381 5.78853 5.50672 7.35002 5.19067C7.68928 5.12199 8.04043 5.08594 8.40002 5.08594C8.75961 5.08594 9.11077 5.12199 9.45002 5.19067C11.0115 5.50672 12.3214 6.51381 13.0445 7.87789C13.4311 8.60718 13.65 9.43852 13.65 10.3209Z" fill="#1C1B1F"/>
<path fill-rule="evenodd" clip-rule="evenodd" d="M8.4 5.60948C8.07569 5.60948 7.75952 5.64199 7.45446 5.70375L7.45444 5.70375C6.05058 5.9879 4.87096 6.89405 4.21968 8.12259L4.21968 8.12259C3.87205 8.77832 3.675 9.52589 3.675 10.3209C3.675 12.923 5.79044 15.0323 8.4 15.0323C11.0096 15.0323 13.125 12.923 13.125 10.3209C13.125 9.52589 12.9279 8.77832 12.5803 8.12259C11.929 6.89405 10.7494 5.9879 9.34556 5.70375L9.34554 5.70375C9.04048 5.64199 8.72431 5.60948 8.4 5.60948ZM7.24556 4.6777C7.619 4.60209 8.00514 4.5625 8.4 4.5625C8.79486 4.5625 9.18101 4.6021 9.55446 4.6777L9.45 5.19072L9.55446 4.6777C11.2736 5.02566 12.7136 6.13369 13.5086 7.6333L13.0445 7.87795L13.5086 7.63331C13.9342 8.43616 14.175 9.35126 14.175 10.3209C14.175 13.5012 11.5895 16.0793 8.4 16.0793C5.21055 16.0793 2.625 13.5012 2.625 10.3209C2.625 9.35127 2.86577 8.43616 3.29139 7.6333C4.08637 6.13369 5.52642 5.02566 7.24554 4.6777" fill="#E6F9ED"/>
<path d="M8.19362 7.31412C8.27803 7.13553 8.52192 7.13553 8.60634 7.31412L9.2933 8.76732C9.32683 8.83824 9.39164 8.8874 9.46659 8.89876L11.0027 9.13179C11.1914 9.16043 11.2668 9.40262 11.1302 9.54161L10.0187 10.6728C9.96446 10.728 9.9397 10.8075 9.95252 10.8854L10.2149 12.4827C10.2472 12.6789 10.0498 12.8286 9.88099 12.736L8.50706 11.9818C8.44002 11.945 8.35993 11.945 8.2929 11.9818L6.91896 12.736C6.75013 12.8286 6.5528 12.6789 6.58504 12.4827L6.84743 10.8854C6.86025 10.8075 6.83549 10.728 6.78125 10.6728L5.66973 9.54161C5.53313 9.40262 5.60852 9.16043 5.79727 9.13179L7.33336 8.89876C7.40831 8.8874 7.47312 8.83824 7.50665 8.76732L8.19362 7.31412Z" fill="white"/>
</g>
<defs>
<clipPath id="clip0_1304_2138">
<rect width="16.8" height="16.7517" fill="white" transform="translate(0 0.200195)"/>
</clipPath>
</defs>
</svg>
