<svg width="12" height="12" viewBox="0 0 12 12" fill="none" xmlns="http://www.w3.org/2000/svg">
<path d="M4.03675 10.7927L5.63325 7.33365C5.65637 7.28355 5.66793 7.2585 5.68389 7.25068C5.69777 7.24389 5.714 7.24389 5.72787 7.25068C5.74383 7.2585 5.7554 7.28355 5.77852 7.33365L7.37502 10.7927C7.40433 10.8562 7.41898 10.888 7.41311 10.9065C7.40803 10.9225 7.39525 10.9349 7.3791 10.9394C7.36045 10.9447 7.32916 10.9291 7.2666 10.8978L5.74166 10.1353L5.74166 10.1353C5.72854 10.1288 5.72198 10.1255 5.7151 10.1242C5.70901 10.1231 5.70276 10.1231 5.69666 10.1242C5.68978 10.1255 5.68323 10.1288 5.67011 10.1353L5.67011 10.1353L4.14516 10.8978C4.0826 10.9291 4.05132 10.9447 4.03266 10.9394C4.01651 10.9349 4.00374 10.9225 3.99866 10.9065C3.99278 10.888 4.00744 10.8562 4.03675 10.7927Z" stroke="#323F4B" stroke-width="2" stroke-linecap="round"/>
<path d="M1 9.23529L2.76471 1" stroke="#323F4B" stroke-width="2" stroke-linecap="round"/>
<path d="M10.4118 9.23529L8.64706 1" stroke="#323F4B" stroke-width="2" stroke-linecap="round"/>
<path d="M5.70588 5.11788L5.70588 3.94141" stroke="#323F4B" stroke-width="2" stroke-linecap="round"/>
<path d="M5.70588 2.17647L5.70588 1" stroke="#323F4B" stroke-width="2" stroke-linecap="round"/>
</svg>
