<svg width="31" height="31" viewBox="0 0 31 31" fill="none" xmlns="http://www.w3.org/2000/svg">
<path d="M7.73913 29.5L15.0435 22.1956H26C27.933 22.1956 29.5 20.6286 29.5 18.6956V5C29.5 3.067 27.933 1.5 26 1.5H5C3.067 1.5 1.5 3.06701 1.5 5V18.6956C1.5 20.6286 3.067 22.1956 5 22.1956H7.73913V29.5Z" fill="#EAEBFB"/>
<path d="M8.5 12.1316V12M15.5 12.1316V12M22.5 12.1316V12M15.0435 22.1956L7.73913 29.5V22.1956H5C3.067 22.1956 1.5 20.6286 1.5 18.6956V5C1.5 3.06701 3.067 1.5 5 1.5H26C27.933 1.5 29.5 3.067 29.5 5V18.6956C29.5 20.6286 27.933 22.1956 26 22.1956H15.0435Z" stroke="white" stroke-width="2" stroke-linecap="round" stroke-linejoin="round"/>
</svg>
