<svg width="18" height="18" viewBox="0 0 18 18" fill="none" xmlns="http://www.w3.org/2000/svg">
<path d="M3.47119 0.584637C3.97678 0.223502 4.6794 0.340605 5.04054 0.846194C5.40167 1.35178 5.28457 2.0544 4.77898 2.41554L2.15398 4.29054C1.64839 4.65167 0.945772 4.53457 0.584637 4.02898C0.223502 3.52339 0.340605 2.82077 0.846194 2.45964L3.47119 0.584637ZM12.9596 0.846196C13.3208 0.340604 14.0234 0.223503 14.529 0.584637L17.154 2.45964C17.6596 2.82077 17.7767 3.52339 17.4155 4.02898C17.0544 4.53457 16.3518 4.65167 15.8462 4.29054L13.2212 2.41554C12.7156 2.0544 12.5985 1.35178 12.9596 0.846196ZM9.00014 1.74994C4.58183 1.74994 1.00012 5.33164 1.00012 9.74995C1.00012 14.1682 4.58183 17.7499 9.00014 17.7499C13.4184 17.7499 17.0001 14.1682 17.0001 9.74995C17.0001 5.33165 13.4184 1.74994 9.00014 1.74994ZM8.90969 5.19507C9.22035 5.1951 9.47216 5.44697 9.47213 5.75763L9.47171 9.6529L12.2215 12.4027C12.4412 12.6224 12.4412 12.9786 12.2215 13.1982C12.0019 13.4179 11.6457 13.4179 11.426 13.1982L8.51143 10.2836C8.40593 10.1781 8.34666 10.035 8.34668 9.88581L8.34713 5.75751C8.34716 5.44685 8.59903 5.19503 8.90969 5.19507Z" fill="#1C1B1F"/>
</svg>
