<svg width="69" height="41" viewBox="0 0 69 41" fill="none" xmlns="http://www.w3.org/2000/svg">
<g clip-path="url(#clip0_1947_13976)">
<path d="M0 3.13988C0.09 3.23988 0.19 3.32988 0.27 3.43988C0.47 3.68988 0.61 3.99988 0.86 4.19988C1.44 4.68988 2.04 5.14988 2.67 5.57988C2.93 5.75988 3.26 5.82988 3.57 5.93988C3.65 5.96988 3.76 5.96988 3.82 6.01988C4.29 6.36988 4.76 6.72988 5.23 7.09988C4.27 7.70988 2.72 7.59988 1.71 6.85988C1.13 6.43988 0.57 5.99988 0.01 5.55988C0.01 4.74988 0.01 3.93988 0.01 3.12988L0 3.13988Z" fill="#F29B9B"/>
<path d="M69.0002 5.5699C68.4402 5.9999 67.8902 6.4299 67.3202 6.8499C66.3002 7.6099 64.9302 7.7199 63.7402 7.1199C64.2502 6.7299 64.7302 6.3599 65.2302 5.9899C65.2802 5.9599 65.3702 5.9699 65.4302 5.9499C65.7202 5.8399 66.0602 5.7799 66.3002 5.6099C66.9502 5.1599 67.5802 4.6699 68.1902 4.1699C68.4202 3.9799 68.5402 3.6899 68.7302 3.4499C68.8102 3.3399 68.9102 3.2499 69.0002 3.1499V5.5799V5.5699Z" fill="#F29B9B"/>
<path d="M0 0.649902C0.43 0.959902 0.86 1.2699 1.29 1.5799C1.49 1.7199 1.68 1.8699 1.87 2.0199C2.27 2.3399 2.33 2.8299 2.02 3.1799C1.7 3.5299 1.18 3.5699 0.76 3.2799C0.51 3.1099 0.25 2.9299 0 2.7599C0 2.0599 0 1.3499 0 0.649902Z" fill="#F29B9B"/>
<path d="M69.0002 2.7599C68.7602 2.9199 68.5202 3.0799 68.2902 3.2499C67.8402 3.5799 67.3102 3.5599 66.9802 3.1899C66.6502 2.8299 66.7302 2.3299 67.1802 1.9899C67.7802 1.5399 68.3902 1.0999 69.0002 0.649902V2.7599Z" fill="#F29B9B"/>
<path d="M29.34 25.5098C29.86 25.9098 30.31 26.2398 30.74 26.5898C30.79 26.6298 30.81 26.7498 30.78 26.7998C30.34 27.7698 30.54 28.7898 30.49 29.8198H38.29C38.24 28.8698 38.43 27.9198 38.07 27.0098C38.01 26.8398 38.02 26.7498 38.18 26.6298C38.6 26.3298 39.01 25.9998 39.44 25.6798C40.31 26.9998 40.12 28.4498 40.15 29.8698C40.26 29.8998 40.34 29.9298 40.43 29.9498C41.55 30.2798 42.28 31.1698 42.29 32.2698C42.29 34.0498 42.3 35.8298 42.29 37.5998C42.28 38.9798 41.14 40.0098 39.65 40.0098C36.16 40.0098 32.66 40.0098 29.17 40.0098C27.67 40.0098 26.53 38.9698 26.52 37.5698C26.52 35.8098 26.52 34.0598 26.52 32.2998C26.52 31.1698 27.24 30.2698 28.41 29.9398C28.63 29.8798 28.65 29.7798 28.66 29.5998C28.69 28.7598 28.68 27.9198 28.8 27.0898C28.87 26.5698 29.15 26.0698 29.35 25.5098H29.34ZM33.64 35.0898C33.64 35.3198 33.64 35.5598 33.64 35.7898C33.64 36.2798 33.96 36.6098 34.41 36.5998C34.85 36.5998 35.15 36.2798 35.15 35.7998C35.15 35.3598 35.16 34.9298 35.15 34.4898C35.15 34.2698 35.2 34.0998 35.38 33.9298C35.88 33.4598 35.85 32.6998 35.36 32.2298C34.85 31.7498 34.03 31.7298 33.49 32.1798C32.96 32.6298 32.88 33.3898 33.36 33.8698C33.6 34.1098 33.66 34.3498 33.64 34.6398C33.64 34.7898 33.64 34.9398 33.64 35.0898Z" fill="#F29B9B"/>
<path d="M25.6798 20.4198C25.6598 20.9098 25.4998 21.1598 25.1698 21.3098C24.8198 21.4698 24.4998 21.4098 24.2098 21.1898C23.4998 20.6498 22.7898 20.1098 22.0798 19.5698C21.1698 18.8698 20.2498 18.1798 19.3398 17.4798C18.8698 17.1198 18.7898 16.6298 19.1398 16.2498C19.4698 15.8898 19.9998 15.8698 20.4598 16.2198C22.0698 17.4398 23.6698 18.6598 25.2698 19.8998C25.4698 20.0598 25.5898 20.3098 25.6798 20.4198Z" fill="#F29B9B"/>
<path d="M49.1598 15.9202C49.5598 15.9602 49.8898 16.1702 50.0098 16.4802C50.1398 16.8102 50.0598 17.1502 49.7398 17.4002C48.8498 18.0902 47.9498 18.7702 47.0598 19.4502C46.2998 20.0302 45.5398 20.6202 44.7698 21.1902C44.4598 21.4202 44.1198 21.4502 43.7698 21.2702C43.4598 21.1102 43.2598 20.7902 43.3498 20.4702C43.3998 20.2802 43.5198 20.0602 43.6798 19.9302C45.3198 18.6602 46.9698 17.4002 48.6198 16.1502C48.7698 16.0402 48.9798 15.9902 49.1598 15.9102V15.9202Z" fill="#F29B9B"/>
<path d="M10.04 8.48013C10.02 8.95013 9.88003 9.20013 9.57003 9.35013C9.23003 9.52013 8.90003 9.48013 8.60003 9.26013C7.97003 8.78013 7.34003 8.30013 6.71003 7.82013C5.71003 7.06013 4.71003 6.29013 3.71003 5.53013C3.24003 5.17013 3.17003 4.68013 3.51003 4.30013C3.84003 3.94013 4.37003 3.92013 4.83003 4.27013C6.44003 5.49013 8.04003 6.71013 9.64003 7.95013C9.84003 8.11013 9.96003 8.36013 10.05 8.47013L10.04 8.48013Z" fill="#F29B9B"/>
<path d="M65.7 4.98009C65.64 5.08009 65.56 5.32009 65.38 5.45009C63.73 6.73009 62.06 8.01009 60.39 9.27009C59.99 9.57009 59.47 9.50009 59.16 9.15009C58.87 8.81009 58.89 8.32009 59.27 8.03009C60.94 6.74009 62.62 5.47009 64.29 4.19009C64.57 3.97009 64.91 3.96009 65.23 4.11009C65.54 4.26009 65.7 4.51009 65.7 4.97009V4.98009Z" fill="#F29B9B"/>
<path d="M16.9601 15.47C16.7701 15.38 16.5501 15.33 16.3901 15.21C14.7401 13.97 13.1001 12.71 11.4701 11.46C11.0601 11.14 11.0001 10.66 11.3201 10.3C11.6401 9.94 12.1601 9.88999 12.5801 10.2C14.2301 11.45 15.8801 12.71 17.5301 13.98C17.8601 14.23 17.9501 14.56 17.8101 14.9C17.6801 15.22 17.3601 15.43 16.9601 15.48V15.47Z" fill="#F29B9B"/>
<path d="M57.8901 10.9401C57.8201 11.0501 57.7301 11.2901 57.5601 11.4301C55.9101 12.7101 54.2501 13.9701 52.5901 15.2301C52.2001 15.5301 51.6701 15.4801 51.3501 15.1401C51.0201 14.7801 51.0601 14.2901 51.4701 13.9801C53.1101 12.7201 54.7701 11.4601 56.4201 10.2001C56.7101 9.98014 57.0401 9.92014 57.3801 10.0801C57.7101 10.2301 57.8701 10.4901 57.8901 10.9401Z" fill="#F29B9B"/>
<path d="M27.6398 21.8799C27.8298 21.9599 28.0498 22.0199 28.2098 22.1399C29.8198 23.3599 31.4198 24.5799 33.0198 25.8099C33.4498 26.1399 33.5098 26.6299 33.1898 26.9899C32.8598 27.3599 32.3398 27.3899 31.8998 27.0599C30.2998 25.8499 28.7098 24.6299 27.1098 23.4099C26.7698 23.1499 26.6598 22.8099 26.7898 22.4699C26.9098 22.1599 27.2498 21.9299 27.6298 21.8799H27.6398Z" fill="#F29B9B"/>
<path d="M36.5099 27.3398C36.1099 27.2798 35.7899 27.0698 35.6599 26.7498C35.5299 26.4298 35.6099 26.0998 35.9199 25.8598C36.4899 25.4098 37.0699 24.9798 37.6399 24.5398C38.6699 23.7598 39.6999 22.9698 40.7299 22.1898C41.1899 21.8398 41.6999 21.8498 42.0399 22.2198C42.3799 22.5898 42.2999 23.0898 41.8299 23.4498C40.2599 24.6498 38.6999 25.8498 37.1199 27.0398C36.9399 27.1698 36.7099 27.2498 36.5099 27.3498V27.3398Z" fill="#F29B9B"/>
<path d="M13.0598 13.0799C11.9998 13.6699 10.5798 13.5899 9.57979 12.8699C8.84979 12.3499 8.13979 11.8099 7.44979 11.2499C6.47979 10.4699 6.11979 9.21986 6.53979 8.10986C7.03979 8.48986 7.51979 8.85986 7.99979 9.22986C7.99979 9.22986 8.01979 9.23986 8.01979 9.24986C8.27979 10.1899 9.23979 10.5299 9.89979 11.1299C10.0798 11.2899 10.2798 11.4399 10.4898 11.5799C10.6498 11.6799 10.8198 11.8199 10.9898 11.8399C11.5898 11.8899 11.9698 12.2699 12.3898 12.5899C12.5998 12.7499 12.8098 12.9199 13.0498 13.0899L13.0598 13.0799Z" fill="#F29B9B"/>
<path d="M55.96 13.0701C56.42 12.7201 56.88 12.3701 57.34 12.0201C57.39 11.9801 57.46 11.9401 57.52 11.9401C58.07 11.9301 58.46 11.6301 58.85 11.3201C59.34 10.9301 59.85 10.5701 60.34 10.1801C60.5 10.0501 60.7 9.90012 60.76 9.73012C60.91 9.24012 61.33 8.98012 61.72 8.69012C61.96 8.51012 62.2 8.33012 62.47 8.12012C62.68 8.66012 62.69 9.17012 62.56 9.69012C62.41 10.3201 62.07 10.8601 61.54 11.2801C60.86 11.8201 60.17 12.3601 59.46 12.8601C58.47 13.5601 57.39 13.6601 56.24 13.2401C56.17 13.2101 56.1 13.1801 56.03 13.1401C56.01 13.1401 56 13.1101 55.98 13.0701H55.96Z" fill="#F29B9B"/>
<path d="M38.7202 23.2998C38.3802 22.0298 38.6602 20.9698 39.6702 20.1298C40.3402 19.5698 41.0402 19.0498 41.7402 18.5398C42.7702 17.7898 44.2602 17.6998 45.2602 18.3098C44.7802 18.6798 44.3002 19.0398 43.8302 19.3998C43.8102 19.4098 43.7902 19.4298 43.7702 19.4298C42.8602 19.4698 42.3602 20.1298 41.7102 20.5698C41.4202 20.7698 41.1302 20.9898 40.8602 21.2198C40.6802 21.3798 40.4702 21.5598 40.4002 21.7598C40.2902 22.0998 40.0402 22.2898 39.7802 22.4898C39.4402 22.7398 39.1102 22.9998 38.7202 23.2898V23.2998Z" fill="#F29B9B"/>
<path d="M23.71 18.2799C24.92 17.7499 26.05 17.7499 27.09 18.4399C27.92 18.9899 28.72 19.5899 29.46 20.2499C30.39 21.0699 30.61 22.0999 30.28 23.2999C29.76 22.8999 29.28 22.5299 28.79 22.1599C28.76 22.1399 28.74 22.1099 28.73 22.0799C28.61 21.5199 28.14 21.2099 27.71 20.8799C27.26 20.5399 26.81 20.1799 26.35 19.8499C26.18 19.7299 25.99 19.5699 25.79 19.5499C25.19 19.4899 24.81 19.1199 24.39 18.7999C24.18 18.6399 23.97 18.4799 23.71 18.2799Z" fill="#F29B9B"/>
<path d="M0.279785 0.400149C1.18979 -0.159851 2.62979 -0.139851 3.58979 0.500149C4.43979 1.07015 5.26978 1.69015 6.02979 2.36015C6.93979 3.17015 7.14979 4.20015 6.81979 5.38015C6.29979 4.98015 5.80978 4.60015 5.31979 4.22015C5.26978 4.18015 5.27978 4.10015 5.23978 4.05015C5.06978 3.80015 4.92978 3.52015 4.69978 3.33015C4.09978 2.82015 3.45978 2.35015 2.81979 1.89015C2.63979 1.76015 2.42979 1.63015 2.21979 1.61015C1.80979 1.57015 1.52979 1.35015 1.23979 1.13015C0.929785 0.890149 0.609785 0.650149 0.289785 0.400149H0.279785Z" fill="#F29B9B"/>
<path d="M68.7499 0.380071C68.2299 0.770071 67.77 1.13007 67.3 1.49007C67.27 1.52007 67.2199 1.55007 67.1799 1.55007C66.5399 1.55007 66.11 1.94007 65.66 2.29007C65.22 2.63007 64.7699 2.96007 64.3399 3.31007C64.1499 3.46007 63.9399 3.64007 63.8699 3.85007C63.7499 4.22007 63.4699 4.43007 63.1699 4.65007C62.8499 4.89007 62.5399 5.13007 62.2099 5.38007C61.7599 4.45007 62.1099 3.07007 63.0299 2.31007C63.7499 1.72007 64.49 1.14007 65.26 0.610071C66.33 -0.119929 67.49 -0.139929 68.73 0.400071L68.7499 0.380071Z" fill="#F29B9B"/>
<path d="M54.6701 14.0598C54.9801 15.1998 54.8201 16.2098 53.9501 16.9998C53.1601 17.7198 52.2901 18.3798 51.3801 18.9698C50.3801 19.6098 49.2701 19.5798 48.1001 19.0698C48.4801 18.7798 48.8301 18.5198 49.1801 18.2398C49.4301 18.0498 49.6701 17.8898 50.0101 17.8398C50.2501 17.8098 50.4901 17.6798 50.6801 17.5398C51.3201 17.0698 51.9501 16.5898 52.5701 16.0998C52.7201 15.9798 52.9001 15.8298 52.9601 15.6598C53.1001 15.1998 53.4801 14.9598 53.8401 14.6798C54.1001 14.4798 54.3701 14.2798 54.6701 14.0498V14.0598Z" fill="#F29B9B"/>
<path d="M20.8698 19.0498C19.8598 19.6298 18.3998 19.5598 17.4298 18.8698C16.6798 18.3298 15.9298 17.7798 15.2198 17.1798C14.2398 16.3498 13.9998 15.2998 14.3298 14.0298C14.8898 14.6098 15.6998 14.8398 15.9998 15.5898C16.0798 15.7898 16.2598 15.9698 16.4398 16.1098C17.0498 16.5998 17.6598 17.0798 18.2998 17.5298C18.5498 17.7098 18.8998 17.7798 19.1998 17.8898C19.2898 17.9298 19.3998 17.9398 19.4798 17.9898C19.9398 18.3298 20.3798 18.6798 20.8598 19.0398L20.8698 19.0498Z" fill="#F29B9B"/>
<path d="M40.3 25.0198C40.78 24.6498 41.24 24.2998 41.7 23.9498C41.76 23.9098 41.84 23.8598 41.91 23.8598C42.38 23.8498 42.73 23.6198 43.07 23.3498C43.6 22.9398 44.14 22.5398 44.66 22.1298C44.84 21.9898 45.05 21.8198 45.12 21.6298C45.27 21.1798 45.63 20.9398 45.98 20.6798C46.25 20.4798 46.51 20.2798 46.81 20.0498C47.04 20.6298 47.03 21.1698 46.88 21.7198C46.72 22.3298 46.37 22.8298 45.85 23.2398C45.19 23.7498 44.53 24.2598 43.85 24.7598C42.83 25.5098 41.37 25.6198 40.29 25.0198H40.3Z" fill="#F29B9B"/>
<path d="M22.1802 20.04C22.6702 20.42 23.1402 20.77 23.6102 21.13C23.6502 21.16 23.7002 21.21 23.7102 21.26C23.8202 21.75 24.2002 22.04 24.5902 22.33C25.0902 22.7 25.5702 23.11 26.0902 23.46C26.3702 23.64 26.7202 23.73 27.0402 23.86C27.1102 23.89 27.2102 23.89 27.2602 23.93C27.7402 24.29 28.2202 24.66 28.7002 25.02C27.7202 25.61 26.2302 25.53 25.2402 24.82C24.4902 24.29 23.7602 23.74 23.0602 23.15C22.1402 22.38 21.8602 21.39 22.1002 20.28C22.1102 20.21 22.1502 20.15 22.1902 20.05L22.1802 20.04Z" fill="#F29B9B"/>
<path d="M53.1 12.3299C52.6 12.7099 52.13 13.0699 51.66 13.4299C51.63 13.4599 51.58 13.4899 51.54 13.4899C50.9 13.4899 50.49 13.8699 50.05 14.2099C49.6 14.5599 49.14 14.8899 48.7 15.2499C48.54 15.3799 48.34 15.5299 48.28 15.6999C48.13 16.1999 47.71 16.4499 47.32 16.7399C47.08 16.9199 46.84 17.0999 46.57 17.3099C46.36 16.7699 46.36 16.2699 46.48 15.7499C46.63 15.0999 46.97 14.5599 47.52 14.1299C48.2 13.5999 48.87 13.0799 49.57 12.5699C50.58 11.8299 51.97 11.7299 53.11 12.3199L53.1 12.3299Z" fill="#F29B9B"/>
<path d="M60.9298 6.34982C60.4198 6.73982 59.9598 7.09982 59.4898 7.44982C59.4498 7.47982 59.3898 7.51982 59.3398 7.51982C58.7498 7.51982 58.3498 7.86982 57.9298 8.18982C57.4598 8.54982 56.9798 8.89982 56.5298 9.26982C56.3398 9.41982 56.1298 9.59982 56.0598 9.80982C55.9398 10.1798 55.6598 10.3898 55.3698 10.6098C55.0498 10.8498 54.7298 11.0898 54.3698 11.3598C54.0598 10.2398 54.1998 9.22982 55.0598 8.44982C55.8698 7.70982 56.7698 7.01982 57.7098 6.42982C58.6998 5.79982 59.7998 5.84982 60.9298 6.35982V6.34982Z" fill="#F29B9B"/>
<path d="M22.4199 17.2998C21.9299 16.9298 21.4699 16.5798 21.0099 16.2298C20.9699 16.1998 20.9199 16.1498 20.9099 16.1098C20.7899 15.5798 20.3599 15.2698 19.9299 14.9598C19.4599 14.6098 18.9999 14.2298 18.5199 13.8898C18.3199 13.7398 18.0699 13.5898 17.8299 13.5598C17.4399 13.5098 17.1599 13.3098 16.8899 13.0898C16.5799 12.8398 16.2599 12.5998 15.9399 12.3598C16.4799 11.9298 17.6499 11.8398 18.3099 12.0698C18.7199 12.2098 19.1399 12.3898 19.4899 12.6298C20.1599 13.0898 20.7999 13.5998 21.4399 14.0998C22.4599 14.8998 22.8699 16.2098 22.4299 17.3098L22.4199 17.2998Z" fill="#F29B9B"/>
<path d="M14.6098 11.3398C14.1298 10.9698 13.6698 10.6198 13.2098 10.2698C13.1598 10.2298 13.1098 10.1798 13.0898 10.1198C12.9698 9.64976 12.6198 9.35976 12.2298 9.07976C11.7098 8.69976 11.2198 8.27976 10.6798 7.90976C10.4198 7.73976 10.0898 7.65976 9.78984 7.53976C9.68984 7.49976 9.55984 7.48976 9.47984 7.42976C9.01984 7.08976 8.56984 6.73976 8.08984 6.36976C8.61984 6.06976 9.16984 5.96976 9.73984 5.98976C10.4598 6.00976 11.1098 6.22976 11.6698 6.65976C12.3298 7.15976 12.9898 7.64976 13.6398 8.15976C14.6398 8.94976 15.0398 10.2398 14.5998 11.3498L14.6098 11.3398Z" fill="#F29B9B"/>
<path d="M31.0498 23.8799C32.8698 22.5499 35.8498 22.4599 37.8698 23.9499C37.3998 24.3099 36.9398 24.6699 36.4698 25.0099C36.4198 25.0399 36.2998 25.0099 36.2298 24.9799C35.0698 24.4399 33.8998 24.4199 32.7098 24.9199C32.6298 24.9599 32.4698 24.9599 32.4098 24.9199C31.9498 24.5899 31.5098 24.2399 31.0498 23.8899V23.8799Z" fill="#F29B9B"/>
</g>
<defs>
<clipPath id="clip0_1947_13976">
<rect width="69" height="40.02" fill="white"/>
</clipPath>
</defs>
</svg>
