<svg width="55" height="39" viewBox="0 0 55 39" fill="none" xmlns="http://www.w3.org/2000/svg">
<path d="M37.7022 11.2646C35.8032 13.8784 31.9474 15.667 27.5 15.667C23.0524 15.667 19.1968 13.8784 17.2978 11.2646C13.0604 13.4742 10.3125 17.0253 10.3125 21.0294C10.3125 21.6908 10.3875 22.3398 10.5318 22.9725C10.8374 22.9552 11.1464 22.9464 11.4583 22.9464C17.7865 22.9464 22.9167 26.5677 22.9167 31.0347C22.9167 31.5978 22.8351 32.1475 22.6799 32.6782C24.2092 32.993 25.8267 33.1618 27.5 33.1618C29.1733 33.1618 30.7907 32.993 32.3201 32.6782C32.1648 32.1475 32.0833 31.5978 32.0833 31.0347C32.0833 26.5677 37.2133 22.9464 43.5417 22.9464C43.8536 22.9464 44.1626 22.9552 44.4683 22.9725C44.6126 22.3398 44.6875 21.6908 44.6875 21.0294C44.6875 17.0253 41.9395 13.4742 37.7022 11.2646Z" fill="white"/>
<path fill-rule="evenodd" clip-rule="evenodd" d="M17.6902 10.0834C18.1813 10.1647 18.597 10.3941 18.8272 10.7109C20.4435 12.9357 23.722 14.4538 27.5 14.4538C31.2779 14.4538 34.5565 12.9357 36.1728 10.7109C36.403 10.3941 36.8187 10.1647 37.3098 10.0834C37.8008 10.0021 38.3177 10.0772 38.7234 10.2887C43.3805 12.7173 46.4062 16.624 46.4062 21.0294C46.4062 21.7556 46.324 22.4691 46.1652 23.1653C46.0228 23.7897 45.2247 24.2322 44.3315 24.1818C44.0711 24.1672 43.8077 24.1596 43.5417 24.1596C38.1626 24.1596 33.8021 27.2377 33.8021 31.0346C33.8021 31.515 33.8715 31.9825 34.0033 32.4328C34.1845 33.0521 33.6613 33.6659 32.8012 33.8429C31.1172 34.1895 29.3378 34.375 27.5 34.375C25.6622 34.375 23.8827 34.1895 22.1988 33.8429C21.3388 33.6659 20.8156 33.0523 20.9967 32.433C21.1284 31.9824 21.1979 31.5149 21.1979 31.0346C21.1979 27.2377 16.8373 24.1596 11.4583 24.1596C11.1923 24.1596 10.9289 24.1672 10.6686 24.1818C9.77539 24.2322 8.97726 23.7897 8.83485 23.1653C8.67608 22.4691 8.59375 21.7556 8.59375 21.0294C8.59375 16.624 11.6194 12.7173 16.2766 10.2887C16.6823 10.0772 17.1992 10.0021 17.6902 10.0834ZM16.8826 13.0884C13.8933 15.0804 12.0312 17.9013 12.0312 21.0294C12.0312 21.2692 12.0422 21.5071 12.0637 21.7428C19.0602 21.9662 24.6354 26.0408 24.6354 31.0346C24.6354 31.2775 24.6222 31.5182 24.5962 31.7567C25.5358 31.8825 26.5064 31.9485 27.5 31.9485C28.4936 31.9485 29.4642 31.8825 30.4038 31.7567C30.3778 31.5182 30.3646 31.2774 30.3646 31.0346C30.3646 26.0408 35.9398 21.9661 42.9363 21.7428C42.9578 21.5071 42.9688 21.2692 42.9688 21.0294C42.9688 17.9013 41.1066 15.0804 38.1174 13.0884C35.7199 15.3866 31.8581 16.8802 27.5 16.8802C23.1418 16.8802 19.28 15.3866 16.8826 13.0884Z" fill="#F9703E" stroke="#F9703E" stroke-linecap="round" stroke-linejoin="round"/>
<path fill-rule="evenodd" clip-rule="evenodd" d="M27.5 10.5147C30.0313 10.5147 32.0834 9.06619 32.0834 7.27942C32.0834 5.49262 30.0313 4.04413 27.5 4.04413C24.9688 4.04413 22.9167 5.49262 22.9167 7.27942C22.9167 9.06619 24.9688 10.5147 27.5 10.5147Z" fill="#F9703E"/>
<path fill-rule="evenodd" clip-rule="evenodd" d="M21.1979 7.2794C21.1979 4.82254 24.0195 2.83087 27.5 2.83087C30.9805 2.83087 33.8021 4.82254 33.8021 7.2794C33.8021 9.73622 30.9805 11.7279 27.5 11.7279C24.0195 11.7279 21.1979 9.73622 21.1979 7.2794ZM27.5 5.25734C25.918 5.25734 24.6354 6.16266 24.6354 7.2794C24.6354 8.39612 25.918 9.30146 27.5 9.30146C29.082 9.30146 30.3646 8.39612 30.3646 7.2794C30.3646 6.16266 29.0821 5.25734 27.5 5.25734Z" fill="#F9703E"/>
<path fill-rule="evenodd" clip-rule="evenodd" d="M10.3125 34.7794C12.8438 34.7794 14.8959 33.3309 14.8959 31.5441C14.8959 29.7574 12.8438 28.3088 10.3125 28.3088C7.78121 28.3088 5.72919 29.7574 5.72919 31.5441C5.72919 33.3309 7.78121 34.7794 10.3125 34.7794Z" fill="#F9703E"/>
<path fill-rule="evenodd" clip-rule="evenodd" d="M4.01044 31.5441C4.01044 29.0873 6.83196 27.0956 10.3125 27.0956C13.793 27.0956 16.6146 29.0873 16.6146 31.5441C16.6146 34.0009 13.793 35.9926 10.3125 35.9926C6.83196 35.9926 4.01044 34.0009 4.01044 31.5441ZM10.3125 29.5221C8.73047 29.5221 7.44794 30.4274 7.44794 31.5441C7.44794 32.6608 8.73047 33.5662 10.3125 33.5662C11.8945 33.5662 13.1771 32.6608 13.1771 31.5441C13.1771 30.4274 11.8945 29.5221 10.3125 29.5221Z" fill="#F9703E"/>
<path fill-rule="evenodd" clip-rule="evenodd" d="M44.6875 34.7794C47.2188 34.7794 49.2709 33.3309 49.2709 31.5441C49.2709 29.7574 47.2188 28.3088 44.6875 28.3088C42.1563 28.3088 40.1042 29.7574 40.1042 31.5441C40.1042 33.3309 42.1563 34.7794 44.6875 34.7794Z" fill="#F9703E"/>
<path fill-rule="evenodd" clip-rule="evenodd" d="M38.3854 31.5441C38.3854 29.0873 41.207 27.0956 44.6875 27.0956C48.168 27.0956 50.9896 29.0873 50.9896 31.5441C50.9896 34.0009 48.168 35.9926 44.6875 35.9926C41.207 35.9926 38.3854 34.0009 38.3854 31.5441ZM44.6875 29.5221C43.1055 29.5221 41.8229 30.4274 41.8229 31.5441C41.8229 32.6608 43.1055 33.5662 44.6875 33.5662C46.2695 33.5662 47.5521 32.6608 47.5521 31.5441C47.5521 30.4274 46.2695 29.5221 44.6875 29.5221Z" fill="#F9703E"/>
</svg>
