<svg width="234" height="248" viewBox="0 0 234 248" fill="none" xmlns="http://www.w3.org/2000/svg">
<g clip-path="url(#clip0_1481_1747)">
<path d="M116.52 231.04C179.768 231.04 231.04 179.768 231.04 116.52C231.04 53.2723 179.768 2 116.52 2C53.2723 2 2 53.2723 2 116.52C2 179.768 53.2723 231.04 116.52 231.04Z" fill="#026A8A" stroke="white" stroke-width="4" stroke-miterlimit="10"/>
<path d="M154.3 218.21L116.52 179.36L78.7502 218.21L155.35 218.56L116.52 180.06L77.7002 218.56L154.3 218.21Z" fill="#079FC3" stroke="white" stroke-width="8" stroke-miterlimit="10"/>
<path d="M126.04 30.2502L139.5 41.5502C142.16 43.7902 145.53 45.0102 149.01 45.0102H166.58C173.76 45.0102 179.91 50.1702 181.15 57.2402L184.2 74.5502C184.8 77.9802 186.6 81.0802 189.26 83.3202L202.72 94.6202C208.22 99.2402 209.61 107.14 206.02 113.35L197.23 128.57C195.49 131.58 194.87 135.11 195.47 138.54L198.52 155.85C199.77 162.92 195.76 169.87 189.01 172.32L172.5 178.33C169.23 179.52 166.49 181.82 164.75 184.84L155.96 200.06C152.37 206.28 144.83 209.02 138.08 206.57L121.57 200.56C118.3 199.37 114.72 199.37 111.45 200.56L94.9399 206.57C88.1899 209.03 80.6499 206.28 77.0599 200.06L68.2699 184.84C66.5299 181.83 63.7899 179.52 60.5199 178.33L44.0099 172.32C37.2599 169.86 33.2499 162.92 34.4999 155.85L37.5499 138.54C38.1499 135.11 37.5299 131.58 35.7899 128.57L26.9999 113.35C23.4099 107.13 24.7999 99.2302 30.2999 94.6202L43.7599 83.3202C46.4199 81.0802 48.2199 77.9802 48.8199 74.5502L51.8699 57.2402C53.1199 50.1702 59.2599 45.0102 66.4399 45.0102H84.0099C87.4899 45.0102 90.8599 43.7802 93.5199 41.5502L106.98 30.2502C112.48 25.6302 120.5 25.6302 126 30.2502H126.04Z" fill="#079FC3" stroke="white" stroke-width="8" stroke-miterlimit="10"/>
<path d="M190.2 216.65H46.1202C38.1673 216.65 31.7202 223.095 31.7202 231.045C31.7202 238.995 38.1673 245.44 46.1202 245.44H190.2C198.153 245.44 204.6 238.995 204.6 231.045C204.6 223.095 198.153 216.65 190.2 216.65Z" fill="#026A8A" stroke="white" stroke-width="4" stroke-miterlimit="10"/>
<path d="M118.16 177.8C153.302 177.8 181.79 152.128 181.79 120.46C181.79 88.7921 153.302 63.1201 118.16 63.1201C83.0179 63.1201 54.5298 88.7921 54.5298 120.46C54.5298 152.128 83.0179 177.8 118.16 177.8Z" stroke="white" stroke-width="7" stroke-miterlimit="10"/>
<path d="M206.66 63.7699L187.39 66.6499L206.56 70.0999L203.62 51.1699L200.12 69.9999L219.39 67.1299L200.21 63.6699L203.15 82.5999L206.66 63.7699Z" fill="white"/>
<path d="M60.7099 195.84L41.4399 198.72L60.6099 202.17L57.6699 183.24L54.1699 202.08L73.4399 199.2L54.2599 195.75L57.1999 214.68L60.7099 195.84Z" fill="white"/>
</g>
<defs>
<clipPath id="clip0_1481_1747">
<rect width="233.05" height="247.44" fill="white"/>
</clipPath>
</defs>
</svg>
