<svg width="13" height="16" viewBox="0 0 13 16" fill="none" xmlns="http://www.w3.org/2000/svg">
<path fill-rule="evenodd" clip-rule="evenodd" d="M6.2 0V3.6L6.19999 3.65441C6.19991 4.07848 6.19983 4.4906 6.24553 4.83052C6.29705 5.21372 6.42257 5.651 6.78579 6.01421C7.149 6.37743 7.58628 6.50295 7.96948 6.55447C8.30939 6.60017 8.72151 6.60009 9.14558 6.60001H9.14559L9.2 6.6H12.8V11.2C12.8 13.4627 12.8 14.5941 12.0971 15.2971C11.3941 16 10.2627 16 8 16H4.8C2.53726 16 1.40589 16 0.702944 15.2971C0 14.5941 0 13.4627 0 11.2V4.8C0 2.53726 0 1.40589 0.702944 0.702944C1.40589 0 2.53726 0 4.8 0H6.2ZM8.2 0.0119745V3.6C8.2 4.09967 8.20212 4.37383 8.22769 4.56402L8.22869 4.57131L8.23598 4.57231C8.42617 4.59788 8.70033 4.6 9.2 4.6H12.788C12.7741 4.37666 12.7438 4.20877 12.6782 4.05045C12.5564 3.75641 12.3252 3.52519 11.8627 3.06274L9.73726 0.937258C9.27481 0.47481 9.04359 0.243585 8.74955 0.121793C8.59123 0.0562126 8.42334 0.0259445 8.2 0.0119745ZM3 8.8C3 8.24771 3.44772 7.8 4 7.8L8.8 7.8C9.35229 7.8 9.8 8.24772 9.8 8.8C9.8 9.35229 9.35228 9.8 8.8 9.8H4C3.44772 9.8 3 9.35228 3 8.8ZM4 11C3.44772 11 3 11.4477 3 12C3 12.5523 3.44772 13 4 13H7.2C7.75228 13 8.2 12.5523 8.2 12C8.2 11.4477 7.75229 11 7.2 11H4Z" fill="#F9703E"/>
</svg>
