<svg width="11" height="18" viewBox="0 0 11 18" fill="none" xmlns="http://www.w3.org/2000/svg">
<path d="M0.292893 1.70711C-0.0976315 1.31658 -0.0976315 0.683417 0.292893 0.292893C0.683417 -0.0976311 1.31658 -0.0976311 1.70711 0.292893L0.292893 1.70711ZM9 9L9.70711 8.29289L10.4142 9L9.70711 9.70711L9 9ZM1.70711 17.7071C1.31658 18.0976 0.683417 18.0976 0.292893 17.7071C-0.0976315 17.3166 -0.0976315 16.6834 0.292893 16.2929L1.70711 17.7071ZM1.70711 0.292893L9.70711 8.29289L8.29289 9.70711L0.292893 1.70711L1.70711 0.292893ZM9.70711 9.70711L1.70711 17.7071L0.292893 16.2929L8.29289 8.29289L9.70711 9.70711Z" fill="#F9703E"/>
</svg>
