<svg width="16" height="16" viewBox="0 0 16 16" fill="none" xmlns="http://www.w3.org/2000/svg">
<path fill-rule="evenodd" clip-rule="evenodd" d="M9.21861 0.221985C8.73781 0.0774265 8.22904 0 7.70381 0C5.02474 0 2.7741 2.01442 2.47825 4.6771L2.24126 6.81001C2.11968 7.90418 1.76355 8.95926 1.19713 9.90328L0.6531 10.81C0.20737 11.5529 -0.0154948 11.9243 0.000836946 12.2298C0.0175685 12.5428 0.180091 12.8299 0.439877 13.0053C0.693455 13.1765 1.12663 13.1765 1.99297 13.1765H13.4147C14.281 13.1765 14.7142 13.1765 14.9677 13.0053C15.2275 12.8299 15.3901 12.5428 15.4068 12.2298C15.4231 11.9243 15.2002 11.5529 14.7545 10.81L14.2105 9.90329C13.8004 9.21989 13.5006 8.47829 13.3202 7.70579C10.6379 7.68928 8.46851 5.50974 8.46851 2.82353C8.46851 1.86722 8.74346 0.975126 9.21861 0.221985ZM11.7265 1.87184C11.5625 2.15107 11.4685 2.47632 11.4685 2.82353C11.4685 3.71745 12.0916 4.46583 12.9272 4.65802C12.8054 3.59656 12.3728 2.63889 11.7265 1.87184Z" fill="white"/>
<path d="M4.88028 13.1766C4.88028 13.5473 4.95332 13.9145 5.09521 14.2571C5.23711 14.5996 5.44509 14.9109 5.70728 15.1731C5.96947 15.4353 6.28073 15.6433 6.6233 15.7852C6.96586 15.9271 7.33302 16.0001 7.70381 16.0001C8.07461 16.0001 8.44177 15.9271 8.78433 15.7852C9.1269 15.6433 9.43816 15.4353 9.70035 15.1731C9.96254 14.9109 10.1705 14.5996 10.3124 14.2571C10.4543 13.9145 10.5273 13.5473 10.5273 13.1766L7.70381 13.1766H4.88028Z" fill="white"/>
<path fill-rule="evenodd" clip-rule="evenodd" d="M6.34768 0.252268C6.86891 0.0881649 7.42254 0 7.99485 0C10.7799 0 13.1226 2.08788 13.4418 4.8546L13.6621 6.76413C13.7918 7.88774 14.1693 8.96855 14.7674 9.92853L15.324 10.8219C15.7712 11.5396 15.9948 11.8985 15.9897 12.194C15.9838 12.5268 15.8128 12.8349 15.5334 13.0158C15.2853 13.1765 14.8625 13.1765 14.0169 13.1765H1.97283C1.12717 13.1765 0.704346 13.1765 0.456288 13.0158C0.176901 12.8349 0.00585842 12.5268 3.33786e-05 12.194C-0.0051384 11.8985 0.21846 11.5396 0.665653 10.8219L0.665662 10.8219L1.22228 9.92853C1.65118 9.24016 1.96664 8.48966 2.15861 7.7058C4.77587 7.69113 7.0854 5.61572 7.0854 2.82353C7.0854 1.8635 6.81237 0.988201 6.34768 0.252268ZM3.83832 1.9068C3.18449 2.66591 2.73344 3.60919 2.57426 4.6572C3.44013 4.46373 4.0854 3.7162 4.0854 2.82353C4.0854 2.49072 3.9957 2.17808 3.83832 1.9068Z" fill="white"/>
<path d="M10.932 13.1766C10.932 13.5473 10.8562 13.9145 10.7089 14.2571C10.5615 14.5996 10.3455 14.9109 10.0733 15.1731C9.80099 15.4353 9.47776 15.6433 9.12202 15.7852C8.76628 15.9271 8.385 16.0001 7.99996 16.0001C7.61491 16.0001 7.23363 15.9271 6.8779 15.7852C6.52216 15.6433 6.19893 15.4353 5.92666 15.1731C5.65439 14.9109 5.43841 14.5996 5.29106 14.2571C5.14371 13.9145 5.06787 13.5473 5.06787 13.1766L7.99996 13.1766H10.932Z" fill="white"/>
</svg>
