<svg width="24" height="24" viewBox="0 0 24 24" fill="none" xmlns="http://www.w3.org/2000/svg">
<g clip-path="url(#clip0_1981_8529)">
<path d="M17.7884 17.6702C17.9818 17.7789 18.1514 17.8769 18.3262 17.9723C18.5859 18.1127 18.8561 18.2372 19.1052 18.3909C19.5662 18.677 19.8391 19.0665 19.8232 19.607C19.8073 20.1846 19.2244 20.7648 18.6097 20.8178C18.0321 20.8681 17.534 20.6641 17.0624 20.3912C16.567 20.1051 16.0901 19.7924 15.6079 19.4851C15.5072 19.4215 15.4224 19.4083 15.3059 19.4533C14.0765 19.9302 12.7915 20.0468 11.4774 19.9806C10.6322 19.9382 9.80825 19.7898 9.02137 19.4984C7.18265 18.8201 5.96656 17.5749 5.29095 15.8501C4.81405 14.6313 4.67363 13.3649 4.75841 12.072C4.8273 11.0493 5.04985 10.061 5.51085 9.12843C6.45141 7.23143 8.04372 6.10541 10.2136 5.6921C11.6947 5.41126 13.1731 5.451 14.6196 5.86961C16.9194 6.53462 18.3607 7.99447 19.0283 10.1458C19.3489 11.1791 19.4257 12.2362 19.3754 13.304C19.3251 14.3558 19.1184 15.3758 18.6362 16.3296C18.4322 16.7323 18.1593 17.1033 17.9156 17.4874C17.8838 17.5378 17.844 17.5828 17.7884 17.6596V17.6702ZM12.4153 17.0291C12.3517 16.9946 12.2908 16.9602 12.2272 16.9284C11.9623 16.7853 11.692 16.6502 11.435 16.4992C11.2284 16.3773 11.0932 16.1972 11.0323 15.9719C10.868 15.3838 11.2549 14.7903 11.8987 14.6446C12.2987 14.5545 12.6776 14.6525 13.0432 14.7876C13.6155 14.9996 14.1242 15.3149 14.6355 15.6302C14.6965 15.6673 14.7601 15.7044 14.8316 15.7467C14.8766 15.6885 14.9217 15.6434 14.9482 15.5931C15.0965 15.3016 15.2661 15.0155 15.3774 14.7108C15.645 13.9743 15.6821 13.2086 15.6635 12.4376C15.6476 11.8441 15.5496 11.2665 15.3482 10.7048C14.7071 8.93237 13.1572 8.25941 11.4907 8.46872C10.2984 8.61709 9.46913 9.2503 8.96838 10.2703C8.6531 10.9115 8.51003 11.5924 8.47029 12.2945C8.41995 13.1662 8.47823 14.0273 8.80147 14.8486C9.26512 16.0302 10.1103 16.8304 11.4774 17.0556C11.7821 17.1059 12.0921 17.143 12.4153 17.0264V17.0291Z" fill="white"/>
<path d="M12.1504 23.5544C8.72202 23.4987 5.81823 22.3144 3.48936 19.9458C1.92619 18.3561 0.945895 16.475 0.598818 14.3396C0.0556815 10.9907 0.956493 8.00476 3.27741 5.40036C3.37809 5.28908 3.48141 5.18045 3.59004 5.07448C3.84704 4.81748 4.19941 4.79099 4.44846 5.00824C4.69751 5.2255 4.68691 5.54873 4.44051 5.81897C4.12523 6.1687 3.79935 6.51577 3.51586 6.8867C2.49847 8.22732 1.87585 9.72425 1.67979 11.359C1.33006 14.2601 2.16464 16.8407 4.19676 19.0529C5.74139 20.738 7.69668 21.8084 10.0202 22.2588C12.1186 22.6668 14.164 22.484 16.1564 21.7342C16.2862 21.6865 16.4372 21.6521 16.5723 21.6627C16.832 21.6838 17.0227 21.8852 17.0545 22.1237C17.0863 22.3515 16.9618 22.582 16.726 22.68C16.4452 22.794 16.1617 22.8973 15.8702 22.9874C14.6647 23.3636 13.4274 23.5597 12.1504 23.5544V23.5544Z" fill="white"/>
<path d="M23.9007 12.5594C23.8636 14.6366 23.2886 16.5601 22.1361 18.3299C22.0248 18.4994 21.8897 18.6266 21.6645 18.6452C21.4314 18.6664 21.2406 18.5948 21.1134 18.4094C20.9836 18.2213 20.9863 18.0225 21.1028 17.8265C21.2486 17.5827 21.4075 17.3416 21.5453 17.0926C22.1494 15.9984 22.5229 14.8353 22.6528 13.6086C22.9283 11.0227 22.2421 8.68325 20.5809 6.60344C20.255 6.19543 19.8629 5.8298 19.4946 5.45358C19.2668 5.22043 19.2297 4.93164 19.4204 4.70644C19.6456 4.44149 20.0378 4.4097 20.3001 4.67199C20.7346 5.10915 21.177 5.54896 21.5612 6.02321C22.764 7.5016 23.4794 9.17605 23.7549 11.0121C23.8318 11.5235 23.853 12.0428 23.898 12.5594H23.9007Z" fill="white"/>
<path d="M8.92866 4.06518C8.68756 3.99365 8.52065 4.10227 8.33519 4.22945C7.92187 4.51824 7.46087 4.70105 6.93098 4.7037C6.48322 4.7037 6.11495 4.55003 5.81556 4.24004C5.28302 3.68896 5.18764 2.91002 5.63805 2.36689C6.15734 1.73897 6.86474 1.43958 7.71257 1.52436C8.45176 1.59855 9.03729 2.34039 9.01079 3.09813C9.00373 3.28359 9.09911 3.37986 9.29693 3.38692C9.53538 3.39487 9.67315 3.48495 9.68905 3.64922C9.70495 3.81613 9.57513 3.97775 9.37112 4.02014C9.2254 4.04928 9.07438 4.05193 8.92866 4.06518V4.06518ZM7.26216 3.92476C7.02106 3.61742 7.14293 3.37103 7.5324 3.33393C7.64103 3.32334 7.74966 3.32599 7.86093 3.32334C8.04375 3.32069 8.09409 3.29154 8.04905 3.12463C7.99871 2.93122 7.92187 2.73251 7.8053 2.56559C7.63043 2.3139 7.35489 2.21587 7.03696 2.2927C6.68988 2.37483 6.40904 2.54175 6.3322 2.90207C6.26332 3.22796 6.49382 3.68631 6.80116 3.84793C6.93628 3.91946 7.082 3.9698 7.26216 3.92741V3.92476Z" fill="white"/>
<path d="M11.2098 3.58837C11.0376 3.56983 10.8522 3.56453 10.6746 3.53008C10.2295 3.44265 9.9328 3.19095 9.82418 2.77234C9.77384 2.57893 9.75529 2.38022 9.73409 2.18152C9.69965 1.82119 9.66521 1.46087 9.64666 1.10054C9.63077 0.801155 9.81093 0.623643 10.113 0.607746C10.3965 0.591849 10.6005 0.77731 10.6243 1.06875C10.6588 1.50591 10.6932 1.94042 10.7329 2.37758C10.7674 2.75645 10.9184 2.88097 11.3238 2.87567C11.3873 2.87567 11.4509 2.87302 11.5119 2.85977C11.8431 2.80149 11.9782 2.63987 11.9517 2.32459C11.9172 1.87683 11.8748 1.43172 11.8298 0.986616C11.8007 0.68458 11.9729 0.469975 12.2802 0.44613C12.5743 0.422285 12.7783 0.58655 12.8048 0.880639C12.8498 1.34959 12.8975 1.81589 12.932 2.28484C12.9823 2.94191 12.5558 3.41351 11.8033 3.53008C11.6099 3.55923 11.4138 3.56718 11.2072 3.58837H11.2098Z" fill="white"/>
<path d="M16.1352 3.60416C16.2358 3.6492 16.2968 3.67835 16.3577 3.70219C16.726 3.84526 17.0943 3.98038 17.4599 4.1261C17.746 4.24003 17.8493 4.41489 17.7619 4.6083C17.6798 4.79376 17.4731 4.85205 17.1976 4.74872C16.4902 4.48643 15.7881 4.21353 15.086 3.94594C15.0277 3.92475 14.9721 3.89295 14.9217 3.85851C14.6091 3.63861 14.6488 3.28093 15.0065 3.13786C15.6424 2.88351 16.2809 2.63711 16.9167 2.38542C16.9777 2.36157 17.0386 2.33243 17.1393 2.28739C17.0572 2.24765 17.0121 2.22115 16.9618 2.20261C16.6862 2.09398 16.4081 1.99065 16.1325 1.88202C16.0636 1.85553 15.9947 1.82374 15.9338 1.78399C15.7881 1.68861 15.7377 1.54024 15.7934 1.40247C15.8543 1.25675 16.0027 1.17197 16.1802 1.19317C16.2544 1.20377 16.3259 1.22496 16.3948 1.25146C16.983 1.47401 17.5685 1.69921 18.154 1.92176C18.3501 1.99595 18.5276 2.09663 18.5276 2.31918C18.5276 2.54703 18.3978 2.70335 18.1726 2.79078C17.5659 3.02658 16.9618 3.26503 16.3577 3.50348C16.2968 3.52733 16.2385 3.55647 16.1378 3.60151L16.1352 3.60416Z" fill="white"/>
<path d="M13.8434 3.63881C13.5069 3.63087 13.3161 3.41626 13.3665 3.10363C13.4751 2.41477 13.5811 1.72592 13.6897 1.03706C13.7347 0.74827 13.944 0.581355 14.2143 0.615798C14.5481 0.658189 14.7044 0.859547 14.6567 1.17218C14.5455 1.87163 14.4421 2.57109 14.3256 3.27054C14.2832 3.52489 14.1136 3.64411 13.8434 3.63881V3.63881Z" fill="white"/>
</g>
<defs>
<clipPath id="clip0_1981_8529">
<rect width="23.4555" height="23.1111" fill="white" transform="translate(0.445129 0.443359)"/>
</clipPath>
</defs>
</svg>
