<svg width="22" height="22" viewBox="0 0 22 22" fill="none" xmlns="http://www.w3.org/2000/svg">
<path d="M0.25 11C0.25 5.06294 5.06294 0.25 11 0.25C16.9371 0.25 21.75 5.06294 21.75 11C21.75 16.9371 16.9371 21.75 11 21.75C5.06294 21.75 0.25 16.9371 0.25 11ZM11.754 5.00007C11.7541 4.58586 11.4183 4.25004 11.0041 4.25C10.5899 4.24996 10.2541 4.58571 10.254 4.99993L10.2534 11.0043C10.2534 11.2033 10.3324 11.3941 10.4731 11.5347L14.7128 15.7744C15.0057 16.0673 15.4806 16.0673 15.7734 15.7744C16.0663 15.4815 16.0663 15.0067 15.7734 14.7138L11.7534 10.6938L11.754 5.00007Z" fill="#F9703E"/>
</svg>
