<svg width="20" height="20" viewBox="0 0 20 20" fill="none" xmlns="http://www.w3.org/2000/svg">
<path d="M1.04163 9.99996C1.04163 5.05241 5.05241 1.04163 9.99996 1.04163C14.9475 1.04163 18.9583 5.05241 18.9583 9.99996C18.9583 14.9475 14.9475 18.9583 9.99996 18.9583C5.05241 18.9583 1.04163 14.9475 1.04163 9.99996ZM9.1919 5.80802C8.94782 5.56394 8.5521 5.56394 8.30802 5.80802C8.06394 6.0521 8.06394 6.44782 8.30802 6.6919L11.6161 9.99996L8.30802 13.308C8.06394 13.5521 8.06394 13.9478 8.30802 14.1919C8.5521 14.436 8.94782 14.436 9.1919 14.1919L12.9419 10.4419C13.186 10.1978 13.186 9.8021 12.9419 9.55802L9.1919 5.80802Z" fill="#406FCA"/>
</svg>
