<svg width="32" height="32" viewBox="0 0 32 32" fill="none" xmlns="http://www.w3.org/2000/svg">
<path d="M4.75 23H27.25C29.3211 23 31 21.2091 31 19V5C31 2.79086 29.3211 1 27.25 1H4.75C2.67893 1 1 2.79086 1 5V19C1 21.2091 2.67893 23 4.75 23Z" fill="#EAEBFB"/>
<path d="M8.5 15V13M16 15V11M23.5 15V7M12.25 23L9.4375 31M23.1775 30.8889L19.863 23.1107M4.75 23C2.67893 23 1 21.2091 1 19V5C1 2.79086 2.67893 1 4.75 1H27.25C29.3211 1 31 2.79086 31 5V19C31 21.2091 29.3211 23 27.25 23H4.75Z" stroke="white" stroke-width="2" stroke-linecap="round" stroke-linejoin="round"/>
</svg>
