<svg width="40" height="40" viewBox="0 0 40 40" fill="none" xmlns="http://www.w3.org/2000/svg">
<rect x="0.5" y="0.5" width="39" height="39" rx="7.5" fill="white" stroke="#9AA5B1"/>
<g clip-path="url(#clip0_1782_12678)">
<path d="M18.3105 16.005C18.3105 14.98 18.3105 13.9616 18.3105 12.9432C18.3105 12.8271 18.3038 12.7111 18.3105 12.595C18.3291 12.2844 18.5151 12.1242 18.8751 12.103C18.9309 12.0997 18.9867 12.103 19.0408 12.103C22.1103 12.103 25.1782 12.103 28.2478 12.103C28.3036 12.103 28.3594 12.1014 28.4135 12.103C28.7786 12.1259 28.9932 12.3253 28.9966 12.6539C29.0017 13.0119 28.9966 13.3682 28.9966 13.7262C28.9966 15.8317 29 17.9371 28.9899 20.0426C28.9899 20.1914 28.9222 20.3548 28.831 20.4823C28.7194 20.6393 28.4997 20.6393 28.3053 20.6393C27.4111 20.6409 26.5186 20.6393 25.6245 20.6393C25.5687 20.6393 25.5129 20.6393 25.4588 20.6425C25.3574 20.6474 25.327 20.6948 25.349 20.7798C25.5501 21.5579 25.7529 22.336 25.949 23.1158C26.0775 23.6225 26.1941 24.1309 26.3226 24.6377C26.4544 25.1542 26.5964 25.6691 26.7282 26.1857C26.7908 26.4293 26.8466 26.6745 26.8922 26.9213C26.9564 27.2662 26.8111 27.4542 26.4291 27.5425C26.189 27.5981 25.8746 27.3905 25.8104 27.1387C25.6718 26.5993 25.5281 26.0598 25.3929 25.5204C25.2408 24.9139 25.0971 24.3075 24.945 23.701C24.7928 23.0962 24.634 22.4913 24.4784 21.8865C24.3821 21.5122 24.2824 21.1362 24.1911 20.7602C24.1691 20.6687 24.1117 20.6409 24.0187 20.6409C23.7804 20.6409 23.542 20.6409 23.3037 20.6409C23.2073 20.6409 23.1533 20.6736 23.133 20.7619C23.0434 21.1247 22.9453 21.4844 22.8524 21.8473C22.7679 22.1709 22.685 22.493 22.6022 22.8166C22.4957 23.24 22.3926 23.6634 22.2844 24.0868C22.2033 24.4055 22.1205 24.7243 22.0393 25.0414C21.9582 25.3569 21.8788 25.6708 21.801 25.9863C21.703 26.3753 21.6117 26.766 21.5103 27.1551C21.4444 27.4068 21.1773 27.5572 20.8849 27.5212C20.5671 27.482 20.3913 27.3202 20.4251 27.0374C20.4623 26.7366 20.5434 26.4407 20.6127 26.1432C20.6888 25.8228 20.7733 25.5057 20.8544 25.1869C20.9423 24.8436 21.0319 24.502 21.1181 24.1587C21.1993 23.835 21.2753 23.5097 21.3565 23.1861C21.463 22.7676 21.5728 22.3508 21.6793 21.9323C21.7621 21.6037 21.8416 21.2751 21.9227 20.9466C21.9278 20.927 21.9278 20.9073 21.9329 20.8894C21.9791 20.7226 21.9019 20.6393 21.7013 20.6393C20.7919 20.6393 19.8808 20.6409 18.9715 20.6393C18.7534 20.6393 18.532 20.6196 18.4018 20.4349C18.3596 20.3761 18.3258 20.3041 18.3224 20.2355C18.3089 19.9412 18.3055 19.647 18.3072 19.3528C18.3072 19.3168 18.3494 19.2547 18.3815 19.2481C18.7821 19.1828 19.0712 18.9768 19.3146 18.7071C19.3264 18.694 19.345 18.6842 19.3873 18.6564C19.3873 18.9539 19.3873 19.2269 19.3873 19.4999C19.3873 19.6928 19.3991 19.7042 19.6239 19.7042C22.2878 19.7042 24.9517 19.7042 27.6156 19.7042C27.6765 19.7042 27.7441 19.7124 27.7965 19.6928C27.8455 19.6732 27.8895 19.6258 27.9165 19.5833C27.9351 19.5538 27.9216 19.5081 27.9216 19.4688C27.9216 17.4059 27.9216 15.3445 27.9216 13.2816C27.9216 13.0478 27.9216 13.0462 27.6545 13.0462C24.9805 13.0462 22.3047 13.0462 19.6307 13.0462C19.394 13.0462 19.3906 13.0495 19.3906 13.2571C19.3906 13.8946 19.389 14.5321 19.3923 15.1696C19.3923 15.2579 19.3737 15.3217 19.2706 15.3462C18.8869 15.4377 18.6554 15.6927 18.4137 15.9379C18.3917 15.9592 18.3697 15.9804 18.3477 16.0017C18.3444 16.0033 18.3376 16.0017 18.319 16.0033L18.3105 16.005Z" fill="#323F4B"/>
<path d="M12.8966 20.6016C13.025 20.618 13.1434 20.6474 13.2617 20.6474C13.8567 20.6474 14.3012 20.4137 14.548 19.9494C14.7982 19.4803 14.6984 19.0356 14.3097 18.6449C14.0629 18.3965 13.8127 18.1513 13.5558 17.911C13.4679 17.8276 13.4595 17.772 13.5423 17.6805C13.7688 17.4304 13.9851 17.1737 14.2015 16.9171C14.237 16.8762 14.2573 16.8239 14.2843 16.7781C14.2708 16.7683 14.259 16.7602 14.2454 16.7504C14.1998 16.7798 14.1508 16.8043 14.1085 16.837C13.6876 17.1656 13.2718 17.499 12.8476 17.8227C12.7326 17.911 12.7259 17.9715 12.8307 18.0695C13.1366 18.3556 13.429 18.6515 13.735 18.9392C13.8871 19.083 13.9784 19.2481 14.0105 19.4378C14.0544 19.6879 13.7299 20.0262 13.4375 20.0573C13.1248 20.0916 12.8848 19.987 12.6853 19.7941C12.1968 19.3201 11.7151 18.8411 11.2249 18.3687C10.9189 18.0728 10.9189 17.656 11.279 17.3748C11.8689 16.9138 12.447 16.443 13.0284 15.9739C13.1383 15.8856 13.2414 15.7908 13.3496 15.7009C13.5828 15.5047 13.8516 15.3789 14.1846 15.3592C14.6325 15.3331 15.0821 15.2955 15.5182 15.423C16.0017 15.5636 16.2992 15.8693 16.4209 16.2926C16.4716 16.4676 16.4834 16.6555 16.4851 16.837C16.4885 20.1112 16.4851 23.3871 16.4851 26.6614C16.4851 26.9916 16.3769 27.2695 16.0304 27.4428C15.7667 27.5752 15.498 27.5572 15.2275 27.4558C15.1345 27.4215 15.1345 27.3757 15.1582 27.2956C15.214 27.1158 15.2833 26.9311 15.285 26.7497C15.2951 25.2621 15.2917 23.7745 15.29 22.287C15.29 22.1154 15.2681 22.0974 15.0703 22.0957C14.5666 22.0941 14.619 22.0761 14.619 22.4848C14.619 23.8759 14.6224 25.267 14.6139 26.6581C14.6139 26.8265 14.5835 27.0096 14.499 27.1583C14.3469 27.4264 13.9598 27.5915 13.7062 27.549C13.1704 27.4624 12.9507 27.173 12.905 26.8494C12.8966 26.7823 12.8966 26.7137 12.8966 26.6467C12.8949 24.6671 12.8932 22.6859 12.8915 20.7063C12.8915 20.6736 12.8949 20.6409 12.8983 20.6033L12.8966 20.6016Z" fill="#323F4B"/>
<path d="M14.6781 14.9604C13.7281 14.9669 12.9641 14.2885 12.9777 13.499C12.9929 12.546 13.7349 12.0033 14.6798 12C15.628 11.9967 16.3701 12.5705 16.387 13.4925C16.4005 14.2885 15.5993 14.9833 14.6781 14.9604Z" fill="#323F4B"/>
<path d="M17.1442 16.5133C17.4045 16.7079 17.6564 16.8877 17.8947 17.0789C18.0164 17.177 18.0874 17.1607 18.1871 17.0544C18.483 16.7405 18.7889 16.4349 19.0915 16.1275C19.3298 15.8856 19.7118 15.763 20.0549 15.9428C20.1124 15.9723 20.2087 15.9739 20.2747 15.9543C21.3632 15.6224 22.4484 15.2841 23.5336 14.9473C23.6485 14.9113 23.7432 14.9326 23.8023 15.029C23.8682 15.1386 23.7854 15.204 23.6925 15.253C23.2986 15.459 22.9031 15.66 22.5059 15.8611C21.6894 16.2763 20.873 16.6915 20.06 17.1083C19.9907 17.1443 19.9298 17.1983 19.8758 17.2522C19.5022 17.6282 19.1286 18.0042 18.7585 18.3834C18.6148 18.5305 18.4458 18.6678 18.226 18.6695C18.0452 18.6695 17.8457 18.6139 17.6851 18.5371C17.5093 18.4537 17.3623 18.318 17.2102 18.2003C17.1747 18.1725 17.1459 18.1186 17.1459 18.0761C17.1409 17.5612 17.1425 17.0479 17.1425 16.5117L17.1442 16.5133Z" fill="#323F4B"/>
</g>
<defs>
<clipPath id="clip0_1782_12678">
<rect width="18" height="15.5556" fill="white" transform="translate(11 12)"/>
</clipPath>
</defs>
</svg>
