<svg width="17" height="17" viewBox="0 0 17 17" fill="none" xmlns="http://www.w3.org/2000/svg">
<g clip-path="url(#clip0_1571_7280)">
<path d="M12.3957 12.3171C12.5259 12.3902 12.64 12.4562 12.7577 12.5204C12.9324 12.6149 13.1143 12.6987 13.282 12.8021C13.5923 12.9947 13.7759 13.2569 13.7652 13.6207C13.7545 14.0094 13.3622 14.4 12.9485 14.4356C12.5597 14.4695 12.2245 14.3322 11.9071 14.1485C11.5736 13.9559 11.2526 13.7455 10.928 13.5386C10.8603 13.4958 10.8032 13.4869 10.7247 13.5172C9.89731 13.8382 9.03241 13.9167 8.14791 13.8721C7.57904 13.8436 7.02444 13.7437 6.49481 13.5475C5.25721 13.091 4.43868 12.2529 3.98395 11.092C3.66296 10.2717 3.56844 9.41925 3.62551 8.54901C3.67187 7.86066 3.82167 7.1955 4.13196 6.56779C4.76502 5.29096 5.83678 4.53306 7.29728 4.25487C8.29414 4.06584 9.28921 4.09259 10.2629 4.37435C11.8108 4.82195 12.7809 5.80454 13.2303 7.25257C13.446 7.94804 13.4977 8.65957 13.4639 9.37824C13.43 10.0862 13.2909 10.7728 12.9663 11.4147C12.829 11.6858 12.6453 11.9355 12.4813 12.194C12.4599 12.2279 12.4331 12.2582 12.3957 12.3099V12.3171ZM8.77919 11.8855C8.73639 11.8623 8.69537 11.8392 8.65258 11.8178C8.47425 11.7215 8.29235 11.6305 8.11937 11.5289C7.98028 11.4468 7.88933 11.3256 7.84832 11.174C7.73775 10.7781 7.99811 10.3787 8.43145 10.2806C8.70072 10.2199 8.95573 10.2859 9.20183 10.3769C9.58701 10.5195 9.92941 10.7317 10.2736 10.944C10.3146 10.9689 10.3574 10.9939 10.4055 11.0224C10.4359 10.9832 10.4662 10.9529 10.484 10.919C10.5839 10.7228 10.698 10.5302 10.7729 10.3252C10.953 9.82941 10.978 9.31404 10.9655 8.7951C10.9548 8.39565 10.8888 8.00689 10.7533 7.62884C10.3217 6.43582 9.27851 5.98287 8.15682 6.12375C7.35435 6.22361 6.79618 6.64982 6.45914 7.33638C6.24693 7.76793 6.15063 8.22624 6.12388 8.69881C6.09 9.2855 6.12923 9.86507 6.34679 10.4179C6.65887 11.2132 7.22773 11.7518 8.14791 11.9034C8.35298 11.9372 8.56163 11.9622 8.77919 11.8837V11.8855Z" fill="#C99A2E"/>
<path d="M8.60051 16.2778C6.29294 16.2404 4.33847 15.4432 2.77097 13.849C1.71883 12.779 1.05902 11.5129 0.825407 10.0756C0.459834 7.82149 1.06615 5.81173 2.6283 4.05877C2.69607 3.98387 2.76562 3.91076 2.83873 3.83943C3.01171 3.66645 3.24888 3.64861 3.41651 3.79484C3.58414 3.94107 3.57701 4.15863 3.41116 4.34053C3.19895 4.57592 2.97961 4.80953 2.7888 5.05919C2.10402 5.96153 1.68495 6.96908 1.55299 8.06937C1.31759 10.0221 1.87933 11.759 3.2471 13.248C4.28675 14.3822 5.60281 15.1026 7.16675 15.4058C8.57911 15.6804 9.9558 15.5574 11.2968 15.0527C11.3842 15.0206 11.4859 14.9974 11.5768 15.0045C11.7516 15.0188 11.88 15.1543 11.9014 15.3148C11.9228 15.4682 11.8389 15.6233 11.6802 15.6893C11.4912 15.766 11.3004 15.8356 11.1042 15.8962C10.2928 16.1494 9.46005 16.2814 8.60051 16.2778V16.2778Z" fill="#C99A2E"/>
<path d="M16.5097 8.87712C16.4847 10.2752 16.0978 11.5699 15.322 12.7611C15.2471 12.8752 15.1562 12.9608 15.0046 12.9733C14.8477 12.9876 14.7193 12.9394 14.6337 12.8146C14.5463 12.688 14.5481 12.5542 14.6266 12.4223C14.7246 12.2582 14.8316 12.0959 14.9244 11.9283C15.331 11.1918 15.5824 10.409 15.6698 9.5833C15.8552 7.84282 15.3934 6.26819 14.2753 4.86831C14.0559 4.59369 13.792 4.34759 13.5441 4.09437C13.3907 3.93744 13.3658 3.74306 13.4942 3.59148C13.6458 3.41315 13.9097 3.39175 14.0862 3.5683C14.3787 3.86254 14.6765 4.15856 14.9351 4.47777C15.7447 5.47284 16.2262 6.59988 16.4116 7.83569C16.4633 8.17986 16.4776 8.52938 16.5079 8.87712H16.5097Z" fill="#C99A2E"/>
<path d="M6.43236 3.16009C6.27009 3.11194 6.15774 3.18506 6.03291 3.27066C5.75472 3.46503 5.44443 3.58808 5.08777 3.58986C4.7864 3.58986 4.53852 3.48643 4.33701 3.27779C3.97857 2.90687 3.91437 2.38258 4.21753 2.01701C4.56705 1.59437 5.04319 1.39286 5.61384 1.44993C6.11137 1.49986 6.50548 1.99918 6.48765 2.50919C6.48289 2.63402 6.54709 2.69882 6.68024 2.70357C6.84073 2.70892 6.93347 2.76955 6.94416 2.88012C6.95486 2.99246 6.86748 3.10124 6.73017 3.12978C6.63209 3.14939 6.53044 3.15118 6.43236 3.16009V3.16009ZM5.31068 3.06558C5.1484 2.85872 5.23043 2.69287 5.49257 2.66791C5.56569 2.66077 5.6388 2.66256 5.7137 2.66077C5.83675 2.65899 5.87063 2.63937 5.84031 2.52703C5.80643 2.39685 5.75472 2.2631 5.67625 2.15076C5.55856 1.98134 5.3731 1.91536 5.1591 1.96708C4.92549 2.02236 4.73646 2.13471 4.68475 2.37723C4.63838 2.59658 4.79353 2.90508 5.00039 3.01386C5.09134 3.06201 5.18942 3.09589 5.31068 3.06736V3.06558Z" fill="#C99A2E"/>
<path d="M7.96783 2.83916C7.85192 2.82668 7.72709 2.82311 7.60761 2.79993C7.30801 2.74108 7.10829 2.57167 7.03517 2.28991C7.00129 2.15973 6.98881 2.02599 6.97454 1.89224C6.95136 1.64971 6.92818 1.40719 6.91569 1.16466C6.90499 0.963152 7.02626 0.843672 7.22955 0.832972C7.42036 0.822273 7.55767 0.947102 7.57372 1.14326C7.59691 1.4375 7.62009 1.72996 7.64684 2.0242C7.67002 2.27921 7.77167 2.36303 8.04451 2.35946C8.08731 2.35946 8.13011 2.35768 8.17112 2.34876C8.39403 2.30953 8.48498 2.20075 8.46715 1.98854C8.44396 1.68716 8.41543 1.38757 8.38512 1.08798C8.3655 0.884687 8.48141 0.740242 8.68827 0.724192C8.88622 0.708143 9.02353 0.818706 9.04136 1.01665C9.07168 1.33229 9.10378 1.64615 9.12696 1.96179C9.16084 2.40404 8.87373 2.72147 8.36728 2.79993C8.2371 2.81955 8.10514 2.8249 7.96605 2.83916H7.96783Z" fill="#C99A2E"/>
<path d="M11.2826 2.84957C11.3504 2.87988 11.3914 2.8995 11.4324 2.91555C11.6803 3.01184 11.9281 3.10279 12.1742 3.20087C12.3668 3.27755 12.4364 3.39525 12.3775 3.52543C12.3222 3.65026 12.1831 3.68949 11.9977 3.61994C11.5215 3.4434 11.049 3.25972 10.5764 3.07961C10.5372 3.06534 10.4997 3.04394 10.4658 3.02076C10.2554 2.87275 10.2822 2.63201 10.5229 2.53571C10.9509 2.36451 11.3807 2.19867 11.8087 2.02926C11.8497 2.01321 11.8907 1.99359 11.9584 1.96328C11.9032 1.93653 11.8729 1.91869 11.839 1.90621C11.6535 1.8331 11.4663 1.76355 11.2808 1.69043C11.2344 1.6726 11.1881 1.6512 11.1471 1.62445C11.049 1.56025 11.0151 1.46039 11.0525 1.36766C11.0936 1.26958 11.1934 1.21251 11.3129 1.22678C11.3628 1.23391 11.411 1.24818 11.4573 1.26601C11.8532 1.41581 12.2473 1.56739 12.6414 1.71718C12.7734 1.76711 12.8929 1.83488 12.8929 1.98467C12.8929 2.13804 12.8055 2.24325 12.6539 2.3021C12.2456 2.46081 11.839 2.62131 11.4324 2.7818C11.3914 2.79785 11.3521 2.81747 11.2844 2.84778L11.2826 2.84957Z" fill="#C99A2E"/>
<path d="M9.74043 2.87269C9.51396 2.86734 9.38556 2.7229 9.41944 2.51247C9.49256 2.04882 9.56389 1.58516 9.637 1.12151C9.66732 0.927133 9.8082 0.814787 9.99009 0.837969C10.2148 0.866502 10.32 1.00203 10.2879 1.21246C10.213 1.68324 10.1435 2.15403 10.065 2.62482C10.0365 2.79601 9.92233 2.87626 9.74043 2.87269V2.87269Z" fill="#C99A2E"/>
</g>
<defs>
<clipPath id="clip0_1571_7280">
<rect width="15.7874" height="15.5556" fill="white" transform="translate(0.722168 0.722168)"/>
</clipPath>
</defs>
</svg>
