<svg width="24" height="24" viewBox="0 0 24 24" fill="none" xmlns="http://www.w3.org/2000/svg">
<path d="M12 1.25C6.06294 1.25 1.25 6.06294 1.25 12C1.25 17.9371 6.06294 22.75 12 22.75C17.9371 22.75 22.75 17.9371 22.75 12C22.75 6.06294 17.9371 1.25 12 1.25ZM9.05651 11.5H16.2458C16.6601 11.5 16.9958 11.8358 16.9958 12.25C16.9958 12.6642 16.6601 13 16.2458 13H9.05651L12.2762 16.2197C12.5691 16.5126 12.5691 16.9874 12.2762 17.2803C11.9833 17.5732 11.5084 17.5732 11.2155 17.2803L6.71552 12.7803C6.64361 12.7084 6.58936 12.6255 6.55276 12.5371C6.51609 12.4487 6.49585 12.3517 6.49585 12.25C6.49585 12.1483 6.51609 12.0513 6.55276 11.9629C6.58936 11.8745 6.64361 11.7916 6.71552 11.7197L11.2155 7.21967C11.5084 6.92678 11.9833 6.92678 12.2762 7.21967C12.5691 7.51256 12.5691 7.98744 12.2762 8.28033L9.05651 11.5Z" fill="#0A6CDF"/>
</svg>
