<svg width="32" height="32" viewBox="0 0 32 32" fill="none" xmlns="http://www.w3.org/2000/svg">
<path d="M16 31C24.2843 31 31 24.2843 31 16C31 7.71573 24.2843 1 16 1C7.71573 1 1 7.71573 1 16C1 24.2843 7.71573 31 16 31Z" fill="#FF9466" stroke="#FF9466" stroke-miterlimit="10"/>
<g clip-path="url(#clip0_1782_10150)">
<path d="M13.3778 10.4328C13.3778 9.5543 13.3778 8.68139 13.3778 7.80847C13.3778 7.70899 13.3722 7.60951 13.3778 7.51003C13.3933 7.24381 13.5482 7.1065 13.8483 7.08828C13.8947 7.08548 13.9412 7.08828 13.9863 7.08828C16.5443 7.08828 19.1009 7.08828 21.6588 7.08828C21.7053 7.08828 21.7518 7.08688 21.7969 7.08828C22.1011 7.1079 22.28 7.27884 22.2828 7.56047C22.2871 7.86732 22.2828 8.17277 22.2828 8.47962C22.2828 10.2843 22.2857 12.089 22.2772 13.8937C22.2772 14.0212 22.2209 14.1613 22.1448 14.2706C22.0518 14.4051 21.8687 14.4051 21.7067 14.4051C20.9616 14.4065 20.2179 14.4051 19.4727 14.4051C19.4262 14.4051 19.3798 14.4051 19.3347 14.4079C19.2502 14.4121 19.2248 14.4527 19.2431 14.5256C19.4107 15.1925 19.5798 15.8595 19.7432 16.5278C19.8502 16.9622 19.9474 17.3979 20.0545 17.8323C20.1643 18.2751 20.2827 18.7164 20.3925 19.1592C20.4446 19.368 20.4911 19.5781 20.5292 19.7897C20.5827 20.0853 20.4615 20.2465 20.1432 20.3221C19.9432 20.3698 19.6812 20.1918 19.6277 19.976C19.5122 19.5137 19.3924 19.0513 19.2797 18.5889C19.153 18.0691 19.0332 17.5493 18.9065 17.0294C18.7797 16.511 18.6473 15.9926 18.5177 15.4742C18.4374 15.1533 18.3543 14.831 18.2782 14.5088C18.2599 14.4303 18.212 14.4065 18.1346 14.4065C17.936 14.4065 17.7374 14.4065 17.5387 14.4065C17.4585 14.4065 17.4134 14.4345 17.3965 14.5102C17.3218 14.8212 17.2401 15.1295 17.1626 15.4405C17.0922 15.718 17.0232 15.994 16.9542 16.2714C16.8654 16.6343 16.7795 16.9972 16.6894 17.3601C16.6218 17.6333 16.5527 17.9066 16.4851 18.1784C16.4175 18.4488 16.3513 18.7178 16.2865 18.9882C16.2048 19.3217 16.1287 19.6566 16.0442 19.9901C15.9893 20.2058 15.7667 20.3347 15.5231 20.3039C15.2582 20.2703 15.1118 20.1316 15.1399 19.8892C15.1709 19.6314 15.2385 19.3778 15.2963 19.1227C15.3597 18.8481 15.4301 18.5763 15.4977 18.3031C15.5709 18.0088 15.6456 17.716 15.7174 17.4218C15.7851 17.1443 15.8484 16.8655 15.9161 16.5881C16.0048 16.2294 16.0964 15.8721 16.1851 15.5134C16.2541 15.2318 16.3203 14.9501 16.3879 14.6685C16.3922 14.6517 16.3922 14.6349 16.3964 14.6195C16.4349 14.4765 16.3706 14.4051 16.2034 14.4051C15.4456 14.4051 14.6864 14.4065 13.9285 14.4051C13.7468 14.4051 13.5623 14.3883 13.4538 14.2299C13.4186 14.1795 13.3905 14.1178 13.3876 14.059C13.3764 13.8068 13.3736 13.5546 13.375 13.3024C13.375 13.2716 13.4102 13.2183 13.4369 13.2127C13.7708 13.1567 14.0116 12.9801 14.2145 12.7489C14.2243 12.7377 14.2398 12.7293 14.2751 12.7055C14.2751 12.9605 14.2751 13.1945 14.2751 13.4285C14.2751 13.5938 14.2849 13.6036 14.4723 13.6036C16.6922 13.6036 18.9121 13.6036 21.132 13.6036C21.1827 13.6036 21.2391 13.6106 21.2828 13.5938C21.3236 13.577 21.3602 13.5364 21.3828 13.4999C21.3983 13.4747 21.387 13.4355 21.387 13.4019C21.387 11.6336 21.387 9.86676 21.387 8.09851C21.387 7.89815 21.387 7.89674 21.1644 7.89674C18.9361 7.89674 16.7063 7.89674 14.4779 7.89674C14.2807 7.89674 14.2779 7.89955 14.2779 8.07749C14.2779 8.62394 14.2765 9.17039 14.2793 9.71684C14.2793 9.7925 14.2638 9.84714 14.1779 9.86816C13.8581 9.94663 13.6651 10.1652 13.4637 10.3754C13.4454 10.3936 13.4271 10.4118 13.4088 10.43C13.406 10.4314 13.4003 10.43 13.3848 10.4314L13.3778 10.4328Z" fill="white"/>
<path d="M8.86624 14.3729C8.9733 14.3869 9.0719 14.4121 9.1705 14.4121C9.66632 14.4121 10.0368 14.2117 10.2424 13.8138C10.4509 13.4117 10.3678 13.0306 10.0438 12.6957C9.83817 12.4827 9.6297 12.2725 9.41559 12.0666C9.34235 11.9951 9.3353 11.9475 9.40432 11.869C9.59307 11.6546 9.77337 11.4346 9.95367 11.2147C9.98325 11.1796 10.0002 11.1348 10.0227 11.0956C10.0114 11.0872 10.0016 11.0802 9.99029 11.0717C9.95226 11.097 9.91141 11.118 9.8762 11.146C9.52546 11.4276 9.17895 11.7135 8.8254 11.9909C8.72961 12.0666 8.72398 12.1184 8.81131 12.2025C9.06626 12.4477 9.30995 12.7013 9.5649 12.9479C9.69167 13.0712 9.76774 13.2127 9.7945 13.3752C9.83112 13.5896 9.56068 13.8797 9.31699 13.9063C9.0564 13.9357 8.85638 13.846 8.69017 13.6807C8.28309 13.2744 7.88164 12.8638 7.47316 12.4589C7.2182 12.2053 7.2182 11.848 7.51823 11.607C8.00983 11.2119 8.49156 10.8083 8.97611 10.4062C9.06767 10.3305 9.1536 10.2493 9.24374 10.1722C9.43813 10.0041 9.66209 9.89619 9.93958 9.87937C10.3129 9.85695 10.6875 9.82473 11.051 9.93402C11.4538 10.0545 11.7017 10.3165 11.8031 10.6794C11.8454 10.8294 11.8553 10.9905 11.8567 11.146C11.8595 13.9525 11.8567 16.7604 11.8567 19.5669C11.8567 19.8499 11.7665 20.0881 11.4778 20.2367C11.258 20.3502 11.0341 20.3347 10.8087 20.2479C10.7312 20.2185 10.7312 20.1792 10.7509 20.1106C10.7974 19.9564 10.8552 19.7981 10.8566 19.6426C10.865 18.3675 10.8622 17.0925 10.8608 15.8174C10.8608 15.6703 10.8425 15.6549 10.6777 15.6535C10.2579 15.6521 10.3016 15.6367 10.3016 15.987C10.3016 17.1794 10.3044 18.3717 10.2974 19.5641C10.2974 19.7084 10.272 19.8654 10.2016 19.9929C10.0748 20.2227 9.75224 20.3642 9.54096 20.3277C9.09444 20.2535 8.91132 20.0055 8.87329 19.728C8.86624 19.6706 8.86624 19.6118 8.86624 19.5543C8.86484 17.8575 8.86343 16.1593 8.86202 14.4625C8.86202 14.4345 8.86484 14.4065 8.86765 14.3743L8.86624 14.3729Z" fill="white"/>
<path d="M10.3508 9.53749C9.55915 9.5431 8.92247 8.96162 8.93374 8.28487C8.94642 7.468 9.56479 7.00281 10.3522 7.00001C11.1424 6.99721 11.7608 7.48901 11.7749 8.27926C11.7861 8.96162 11.1185 9.55711 10.3508 9.53749Z" fill="white"/>
<path d="M12.4058 10.8686C12.6227 11.0353 12.8326 11.1895 13.0312 11.3534C13.1326 11.4375 13.1918 11.4234 13.2749 11.3324C13.5214 11.0634 13.7764 10.8013 14.0285 10.5379C14.2271 10.3306 14.5454 10.2255 14.8314 10.3796C14.8793 10.4048 14.9596 10.4062 15.0145 10.3894C15.9216 10.105 16.8259 9.81493 17.7303 9.52629C17.826 9.49547 17.9049 9.51368 17.9542 9.59635C18.0092 9.69023 17.9401 9.74627 17.8627 9.78831C17.5345 9.96485 17.2049 10.1372 16.8738 10.3095C16.1935 10.6654 15.5131 11.0213 14.8356 11.3786C14.7779 11.4094 14.7272 11.4557 14.6821 11.5019C14.3708 11.8242 14.0595 12.1464 13.751 12.4715C13.6313 12.5976 13.4904 12.7153 13.3073 12.7167C13.1566 12.7167 12.9904 12.6691 12.8566 12.6032C12.7101 12.5318 12.5875 12.4155 12.4607 12.3146C12.4312 12.2908 12.4072 12.2445 12.4072 12.2081C12.403 11.7667 12.4044 11.3268 12.4044 10.8672L12.4058 10.8686Z" fill="white"/>
</g>
<path d="M4.79505 22.7961C4.79505 23.1697 4.87809 23.4544 5.04416 23.6502C5.21024 23.8459 5.48307 23.9853 5.86267 24.0683L6.15626 24.1306C6.49434 24.2077 6.71973 24.2878 6.83242 24.3708C6.94511 24.4479 7.00146 24.5814 7.00146 24.7712C7.00146 24.961 6.93622 25.1122 6.80573 25.2249C6.68117 25.3376 6.5062 25.3939 6.28082 25.3939C5.81225 25.3939 5.55425 25.0618 5.5068 24.3975L4.70608 24.5221C4.75353 24.955 4.90478 25.2753 5.15982 25.4829C5.41486 25.6905 5.78853 25.7943 6.28082 25.7943C6.77904 25.7943 7.15864 25.6875 7.41961 25.474C7.68058 25.2605 7.81107 24.9639 7.81107 24.5843C7.81107 24.1988 7.72803 23.9111 7.56196 23.7214C7.39588 23.5256 7.12008 23.3833 6.73455 23.2943L6.39648 23.2053C6.07619 23.1282 5.86267 23.0482 5.75591 22.9651C5.64915 22.8821 5.59576 22.7486 5.59576 22.5648C5.59576 22.375 5.65508 22.2237 5.7737 22.111C5.89232 21.9983 6.0584 21.942 6.27192 21.942C6.48544 21.942 6.65448 22.028 6.77904 22.2C6.90359 22.372 6.9718 22.6152 6.98366 22.9295L7.78438 22.8139C7.731 22.3809 7.57975 22.0606 7.33064 21.853C7.08746 21.6454 6.73455 21.5416 6.27192 21.5416C5.28734 21.5416 4.79505 21.9598 4.79505 22.7961ZM12.2449 25.2338H10.9638V21.6217H9.95845V25.7142H12.2449V25.2338ZM15.1689 25.7142V21.6217H14.1635V25.7142H15.1689ZM17.5971 21.6217V25.7142H19.074C19.7264 25.7142 20.1713 25.5363 20.4085 25.1804C20.6517 24.8246 20.7733 24.3204 20.7733 23.668C20.7733 22.8732 20.6102 22.3216 20.284 22.0132C20.0111 21.7522 19.6078 21.6217 19.074 21.6217H17.5971ZM18.6025 25.3495V21.9865H18.9138C19.1392 21.9865 19.3142 22.0695 19.4388 22.2356C19.5692 22.3957 19.6552 22.5915 19.6968 22.8228C19.7383 23.0482 19.759 23.3299 19.759 23.668C19.759 24.006 19.7383 24.2907 19.6968 24.5221C19.6552 24.7474 19.5692 24.9432 19.4388 25.1093C19.3142 25.2694 19.1392 25.3495 18.9138 25.3495H18.6025ZM25.5576 25.2338H24.0185V23.8726H25.2907V23.3922H24.0185V22.1021H25.4509V21.6217H23.0131V25.7142H25.5576V25.2338Z" fill="white"/>
<defs>
<clipPath id="clip0_1782_10150">
<rect width="15" height="13.3333" fill="white" transform="translate(7.28564 7)"/>
</clipPath>
</defs>
</svg>
