<svg width="199" height="222" viewBox="0 0 199 222" fill="none" xmlns="http://www.w3.org/2000/svg">
<g clip-path="url(#clip0_1481_1773)">
<path d="M185.31 168.48L106.65 213.89C102.3 216.4 96.9404 216.4 92.5804 213.89L13.9304 168.49C9.58039 165.98 6.90039 161.33 6.90039 156.31V65.4901C6.90039 60.4601 9.58039 55.8201 13.9304 53.3101L92.5904 7.88006C96.9404 5.37006 102.3 5.37006 106.66 7.88006L185.32 53.2901C189.67 55.8001 192.35 60.4501 192.35 65.4701V156.29C192.35 161.32 189.67 165.96 185.32 168.47L185.31 168.48Z" fill="#12102B" stroke="#9CADD9" stroke-width="12" stroke-miterlimit="10"/>
<path d="M139.98 78.1001H59.2604C53.8038 78.1001 49.3804 82.5235 49.3804 87.9801V133.81C49.3804 139.267 53.8038 143.69 59.2604 143.69H139.98C145.437 143.69 149.86 139.267 149.86 133.81V87.9801C149.86 82.5235 145.437 78.1001 139.98 78.1001Z" fill="#9CADD9"/>
<path d="M165.791 67.39L146.521 70.27L165.701 73.72L162.761 54.79L159.251 73.62L178.521 70.75L159.351 67.29L162.291 86.22L165.791 67.39Z" fill="white"/>
<path d="M42.7305 151.66L23.4604 154.69L42.6304 158.29L39.7105 138.49L36.1905 158.19L55.4604 155.17L36.2904 151.57L39.2105 171.36L42.7305 151.66Z" fill="white"/>
</g>
<defs>
<clipPath id="clip0_1481_1773">
<rect width="197.45" height="221.78" fill="white" transform="translate(0.900391)"/>
</clipPath>
</defs>
</svg>
