<svg width="20" height="20" viewBox="0 0 20 20" fill="none" xmlns="http://www.w3.org/2000/svg">
<path d="M18.5797 10.5C18.5797 9.94772 18.132 9.5 17.5797 9.5C17.0275 9.5 16.5797 9.94772 16.5797 10.5H18.5797ZM9.57974 3.5C10.132 3.5 10.5797 3.05228 10.5797 2.5C10.5797 1.94772 10.132 1.5 9.57974 1.5V3.5ZM14.5797 10.5C14.5797 9.94772 14.132 9.5 13.5797 9.5C13.0275 9.5 12.5797 9.94772 12.5797 10.5H14.5797ZM9.57974 7.5C10.132 7.5 10.5797 7.05229 10.5797 6.5C10.5797 5.94772 10.132 5.5 9.57974 5.5V7.5ZM13.8224 7.51033C14.2129 7.11981 14.2129 6.48664 13.8224 6.09612C13.4319 5.70559 12.7987 5.70559 12.4082 6.09612L13.8224 7.51033ZM8.87263 9.63165C8.48211 10.0222 8.48211 10.6553 8.87263 11.0459C9.26316 11.4364 9.89632 11.4364 10.2868 11.0459L8.87263 9.63165ZM18.4203 4.32843L19.1274 5.03553C19.3952 4.7677 19.4887 4.37153 19.3689 4.0122C19.2492 3.65286 18.9366 3.39204 18.5617 3.33848L18.4203 4.32843ZM15.2383 7.51041L14.9221 8.45909C15.2814 8.57887 15.6776 8.48535 15.9454 8.21751L15.2383 7.51041ZM12.4099 4.68198L11.7028 3.97487C11.4349 4.24271 11.3414 4.63887 11.4612 4.99821L12.4099 4.68198ZM15.5918 1.5L16.5818 1.35858C16.5282 0.983613 16.2674 0.671095 15.9081 0.551317C15.5487 0.431538 15.1526 0.525061 14.8847 0.792893L15.5918 1.5ZM13.117 6.8033L12.1683 7.11953C12.2678 7.41813 12.5021 7.65245 12.8007 7.75198L13.117 6.8033ZM15.9454 3.97487L14.9554 4.1163C15.0183 4.55627 15.364 4.90197 15.804 4.96482L15.9454 3.97487ZM16.5797 10.5C16.5797 14.366 13.4457 17.5 9.57974 17.5V19.5C14.5503 19.5 18.5797 15.4706 18.5797 10.5H16.5797ZM9.57974 17.5C5.71375 17.5 2.57974 14.366 2.57974 10.5H0.579742C0.579742 15.4706 4.60918 19.5 9.57974 19.5V17.5ZM2.57974 10.5C2.57974 6.63401 5.71375 3.5 9.57974 3.5V1.5C4.60918 1.5 0.579742 5.52944 0.579742 10.5H2.57974ZM12.5797 10.5C12.5797 12.1569 11.2366 13.5 9.57974 13.5V15.5C12.3412 15.5 14.5797 13.2614 14.5797 10.5H12.5797ZM9.57974 13.5C7.92289 13.5 6.57974 12.1569 6.57974 10.5H4.57974C4.57974 13.2614 6.81832 15.5 9.57974 15.5V13.5ZM6.57974 10.5C6.57974 8.84315 7.92289 7.5 9.57974 7.5V5.5C6.81832 5.5 4.57974 7.73858 4.57974 10.5H6.57974ZM12.4082 6.09612L8.87263 9.63165L10.2868 11.0459L13.8224 7.51033L12.4082 6.09612ZM17.7132 3.62132L14.5312 6.8033L15.9454 8.21751L19.1274 5.03553L17.7132 3.62132ZM13.117 5.38909L16.2989 2.20711L14.8847 0.792893L11.7028 3.97487L13.117 5.38909ZM15.5545 6.56172L13.4332 5.85462L12.8007 7.75198L14.9221 8.45909L15.5545 6.56172ZM14.0656 6.48707L13.3585 4.36575L11.4612 4.99821L12.1683 7.11953L14.0656 6.48707ZM14.6019 1.64142L14.9554 4.1163L16.9353 3.83345L16.5818 1.35858L14.6019 1.64142ZM15.804 4.96482L18.2788 5.31838L18.5617 3.33848L16.0868 2.98492L15.804 4.96482Z" fill="#4C63B6"/>
</svg>
