<svg width="10" height="10" viewBox="0 0 10 10" fill="none" xmlns="http://www.w3.org/2000/svg">
<g clip-path="url(#clip0_1765_9682)">
<path d="M3.95835 0.520874C3.84211 0.520874 3.73547 0.585398 3.68153 0.688372L1.38986 5.06337C1.33912 5.16024 1.34271 5.27659 1.39932 5.37015C1.45593 5.46371 1.55733 5.52087 1.66669 5.52087H4.17798L3.23948 9.08718C3.20296 9.22596 3.26565 9.37177 3.39149 9.44075C3.51733 9.50972 3.67398 9.48412 3.77131 9.37867L8.77131 3.962C8.8555 3.8708 8.87773 3.73841 8.82795 3.62471C8.77817 3.511 8.66581 3.43754 8.54169 3.43754H6.05964L7.95408 1.02644C8.02799 0.932374 8.04171 0.804365 7.98941 0.696769C7.93712 0.589172 7.82799 0.520874 7.70835 0.520874H3.95835Z" fill="#F5F7FA" stroke="#CBD2D9"/>
</g>
<defs>
<clipPath id="clip0_1765_9682">
<rect width="10" height="10" fill="white"/>
</clipPath>
</defs>
</svg>
