<svg width="15" height="15" viewBox="0 0 15 15" fill="none" xmlns="http://www.w3.org/2000/svg">
<path d="M12.1876 1.875H2.81262C2.29486 1.875 1.87512 2.29473 1.87512 2.8125V12.1875C1.87512 12.7053 2.29486 13.125 2.81262 13.125H12.1876C12.7054 13.125 13.1251 12.7053 13.1251 12.1875V2.8125C13.1251 2.29473 12.7054 1.875 12.1876 1.875Z" fill="#1C1B1F"/>
<path fill-rule="evenodd" clip-rule="evenodd" d="M2.81262 2.34375C2.55374 2.34375 2.34387 2.55362 2.34387 2.8125V12.1875C2.34387 12.4464 2.55374 12.6562 2.81262 12.6562H12.1876C12.4465 12.6562 12.6564 12.4464 12.6564 12.1875V2.8125C12.6564 2.55362 12.4465 2.34375 12.1876 2.34375H2.81262ZM1.40637 2.8125C1.40637 2.03585 2.03597 1.40625 2.81262 1.40625H12.1876C12.9643 1.40625 13.5939 2.03585 13.5939 2.8125V12.1875C13.5939 12.9641 12.9643 13.5938 12.1876 13.5938H2.81262C2.03597 13.5938 1.40637 12.9641 1.40637 12.1875V2.8125Z" fill="#1C1B1F"/>
<path fill-rule="evenodd" clip-rule="evenodd" d="M5.98751 3.90893C6.20187 3.93187 6.37294 4.09807 6.40207 4.31168L7.09293 9.37794L8.00012 7.01925C8.06301 6.85573 8.21184 6.74093 8.38597 6.72162C8.5601 6.70232 8.73046 6.78173 8.82765 6.9275L9.71014 8.25125L10.2501 7.53127C10.3386 7.41323 10.4776 7.34377 10.6251 7.34377H11.5626C11.8215 7.34377 12.0314 7.55364 12.0314 7.81252C12.0314 8.0714 11.8215 8.28127 11.5626 8.28127H10.8595L10.0626 9.34377C9.97135 9.46547 9.82668 9.53531 9.67462 9.53109C9.52255 9.52687 9.38198 9.44911 9.2976 9.32253L8.55 8.20113L7.31263 11.4183C7.23581 11.618 7.0335 11.7404 6.82095 11.7156C6.6084 11.6909 6.43958 11.5254 6.41067 11.3134L5.72959 6.31875L5.12815 7.97271C5.06079 8.15796 4.88473 8.28127 4.68762 8.28127H3.75012C3.49124 8.28127 3.28137 8.0714 3.28137 7.81252C3.28137 7.55364 3.49124 7.34377 3.75012 7.34377H4.3593L5.49709 4.21483C5.57077 4.01222 5.77314 3.88599 5.98751 3.90893Z" fill="#FFFBFF"/>
</svg>
