<svg width="16" height="16" viewBox="0 0 16 16" fill="none" xmlns="http://www.w3.org/2000/svg">
<path fill-rule="evenodd" clip-rule="evenodd" d="M16 8C16 12.4183 12.4183 16 8 16C3.58172 16 0 12.4183 0 8C0 3.58172 3.58172 0 8 0C12.4183 0 16 3.58172 16 8ZM8.88889 4.44444C8.88889 4.93536 8.49092 5.33333 8 5.33333C7.50908 5.33333 7.11111 4.93536 7.11111 4.44444C7.11111 3.95352 7.50908 3.55556 8 3.55556C8.49092 3.55556 8.88889 3.95352 8.88889 4.44444ZM9 12.4444V7.11111H7V12.4444H9Z" fill="#F9703E"/>
</svg>
