<svg width="235" height="248" viewBox="0 0 235 248" fill="none" xmlns="http://www.w3.org/2000/svg">
<g clip-path="url(#clip0_1481_1794)">
<path d="M117.02 231.54C180.268 231.54 231.54 180.268 231.54 117.02C231.54 53.7723 180.268 2.5 117.02 2.5C53.7723 2.5 2.5 53.7723 2.5 117.02C2.5 180.268 53.7723 231.54 117.02 231.54Z" fill="#323F4B" stroke="#F3703F" stroke-width="5" stroke-miterlimit="10"/>
<path d="M154.8 218.71L117.02 179.86L79.2502 218.71L155.85 219.06L117.02 180.56L78.2002 219.06L154.8 218.71Z" fill="#F3703F" stroke="#F3703F" stroke-width="10" stroke-miterlimit="10"/>
<path d="M126.54 30.7502L140 42.0502C142.66 44.2902 146.03 45.5102 149.51 45.5102H167.08C174.26 45.5102 180.41 50.6702 181.65 57.7402L184.7 75.0502C185.3 78.4802 187.1 81.5802 189.76 83.8202L203.22 95.1202C208.72 99.7402 210.11 107.64 206.52 113.85L197.73 129.07C195.99 132.08 195.37 135.61 195.97 139.04L199.02 156.35C200.27 163.42 196.26 170.37 189.51 172.82L173 178.83C169.73 180.02 166.99 182.32 165.25 185.34L156.46 200.56C152.87 206.78 145.33 209.52 138.58 207.07L122.07 201.06C118.8 199.87 115.22 199.87 111.95 201.06L95.4399 207.07C88.6899 209.53 81.1499 206.78 77.5599 200.56L68.7699 185.34C67.0299 182.33 64.2899 180.02 61.0199 178.83L44.5099 172.82C37.7599 170.36 33.7499 163.42 34.9999 156.35L38.0499 139.04C38.6499 135.61 38.0299 132.08 36.2899 129.07L27.4999 113.85C23.9099 107.63 25.2999 99.7302 30.7999 95.1202L44.2599 83.8202C46.9199 81.5802 48.7199 78.4802 49.3199 75.0502L52.3699 57.7402C53.6199 50.6702 59.7599 45.5102 66.9399 45.5102H84.5099C87.9899 45.5102 91.3599 44.2802 94.0199 42.0502L107.48 30.7502C112.98 26.1302 121 26.1302 126.5 30.7502H126.54Z" fill="#E9B848" stroke="white" stroke-width="6" stroke-miterlimit="10"/>
<path d="M190.7 217.15H46.6202C38.6673 217.15 32.2202 223.595 32.2202 231.545C32.2202 239.495 38.6673 245.94 46.6202 245.94H190.7C198.653 245.94 205.1 239.495 205.1 231.545C205.1 223.595 198.653 217.15 190.7 217.15Z" fill="#DD3D26" stroke="white" stroke-width="3" stroke-miterlimit="10"/>
<path d="M118.66 178.3C153.802 178.3 182.29 152.628 182.29 120.96C182.29 89.2921 153.802 63.6201 118.66 63.6201C83.5179 63.6201 55.0298 89.2921 55.0298 120.96C55.0298 152.628 83.5179 178.3 118.66 178.3Z" stroke="white" stroke-width="7" stroke-miterlimit="10"/>
<path d="M202.13 62.9702L189.87 64.8002L202.07 67.0002L200.2 54.9502L197.97 66.9302L210.23 65.1002L198.03 62.9102L199.9 74.9502L202.13 62.9702Z" fill="white"/>
<path d="M55.1902 191.9L42.9302 193.73L55.1302 195.93L53.2602 183.88L51.0302 195.87L63.2902 194.04L51.0902 191.84L52.9602 203.88L55.1902 191.9Z" fill="white"/>
</g>
<defs>
<clipPath id="clip0_1481_1794">
<rect width="234.05" height="247.44" fill="white"/>
</clipPath>
</defs>
</svg>
