<svg width="16" height="16" viewBox="0 0 16 16" fill="none" xmlns="http://www.w3.org/2000/svg">
<path fill-rule="evenodd" clip-rule="evenodd" d="M9.66299 0.748948C9.68237 0.823678 9.69122 0.912169 9.70892 1.08915C9.74235 1.42347 9.75906 1.59062 9.79535 1.69811C9.98902 2.27176 10.644 2.54307 11.1866 2.27438C11.2882 2.22403 11.4183 2.11766 11.6783 1.9049C11.816 1.79228 11.8848 1.73597 11.9513 1.69683C12.2952 1.49458 12.7264 1.51609 13.0485 1.75155C13.1108 1.79711 13.1737 1.85999 13.2994 1.98575L13.2994 1.98576L14.0142 2.70053C14.14 2.8263 14.2029 2.88919 14.2484 2.95151C14.4839 3.27357 14.5054 3.70476 14.3031 4.04864C14.264 4.11519 14.2077 4.18402 14.0951 4.32168L14.0951 4.32169C13.8823 4.58173 13.7759 4.71175 13.7256 4.81342C13.4569 5.35599 13.7282 6.01097 14.3018 6.20464C14.4093 6.24093 14.5765 6.25765 14.9108 6.29108C15.0878 6.30878 15.1763 6.31763 15.2511 6.33702C15.6372 6.43718 15.9269 6.75728 15.9881 7.15149C16 7.22778 16 7.31672 16 7.4946V8.5055C16 8.68329 16 8.77218 15.9882 8.84843C15.9269 9.24271 15.6372 9.56286 15.251 9.663C15.1763 9.68237 15.0878 9.69122 14.9109 9.70891C14.5768 9.74232 14.4097 9.75903 14.3023 9.79527C13.7285 9.98889 13.4571 10.6441 13.7259 11.1867C13.7763 11.2883 13.8826 11.4182 14.0952 11.678L14.0952 11.6781C14.2077 11.8156 14.264 11.8844 14.3031 11.9509C14.5054 12.2948 14.4839 12.7261 14.2484 13.0482C14.2029 13.1105 14.14 13.1733 14.0144 13.299L14.0143 13.299L13.2995 14.0139C13.1737 14.1396 13.1108 14.2025 13.0485 14.2481C12.7264 14.4836 12.2952 14.5051 11.9514 14.3028C11.8848 14.2637 11.816 14.2074 11.6784 14.0948L11.6783 14.0947C11.4183 13.882 11.2883 13.7756 11.1866 13.7253C10.644 13.4566 9.98905 13.7279 9.79539 14.3015C9.7591 14.409 9.74238 14.5762 9.70894 14.9106L9.70893 14.9107L9.70893 14.9107C9.69122 15.0878 9.68236 15.1764 9.66296 15.2511C9.56279 15.6372 9.24274 15.9269 8.8486 15.9881C8.77226 16 8.68328 16 8.5053 16H7.49459C7.31672 16 7.22778 16 7.15149 15.9881C6.75728 15.9269 6.43718 15.6372 6.33702 15.2511C6.31763 15.1763 6.30878 15.0878 6.29108 14.9108C6.25765 14.5765 6.24093 14.4093 6.20464 14.3018C6.01097 13.7282 5.35599 13.4569 4.81343 13.7256C4.71176 13.7759 4.58172 13.8823 4.32166 14.0951C4.18399 14.2077 4.11515 14.264 4.04859 14.3032C3.70472 14.5054 3.27354 14.4839 2.95149 14.2485C2.88916 14.2029 2.82627 14.14 2.70049 14.0142L1.98573 13.2995L1.98573 13.2995C1.85996 13.1737 1.79707 13.1108 1.75151 13.0485C1.51606 12.7264 1.49455 12.2953 1.69679 11.9514C1.73592 11.8848 1.79224 11.816 1.90488 11.6783L1.90488 11.6783C2.11765 11.4183 2.22403 11.2882 2.27437 11.1866C2.54306 10.644 2.27175 9.98902 1.69811 9.79535C1.59062 9.75906 1.42346 9.74235 1.08915 9.70891C0.912167 9.69122 0.823678 9.68237 0.74895 9.66299C0.362777 9.56283 0.0730831 9.24272 0.0118494 8.8485C0 8.77221 0 8.68328 0 8.50542V7.49468C0 7.31672 0 7.22775 0.0118617 7.15142C0.0731182 6.75726 0.362764 6.43721 0.748872 6.33703C0.823638 6.31764 0.912173 6.30878 1.08924 6.29107C1.42374 6.25763 1.59098 6.2409 1.69852 6.20458C2.27205 6.01088 2.54331 5.35601 2.27473 4.81349C2.22437 4.71177 2.11792 4.58167 1.90503 4.32146L1.90502 4.32145C1.79229 4.18367 1.73593 4.11478 1.69677 4.04818C1.49461 3.70434 1.51611 3.27326 1.75148 2.95124C1.79707 2.88887 1.86 2.82594 1.98587 2.70007L2.70052 1.98541L2.70052 1.98541C2.8263 1.85963 2.88919 1.79674 2.95152 1.75118C3.27357 1.51573 3.70475 1.49423 4.04863 1.69646C4.11519 1.7356 4.18404 1.79193 4.32176 1.90461C4.58174 2.11733 4.71174 2.22368 4.81334 2.27401C5.35597 2.54281 6.01109 2.27145 6.20472 1.69768C6.24097 1.59025 6.25768 1.42318 6.2911 1.08904C6.30878 0.912161 6.31763 0.82372 6.33699 0.74903C6.43713 0.362791 6.7573 0.0730471 7.15158 0.0118367C7.22783 0 7.31671 0 7.49448 0H8.50542C8.68328 0 8.77221 0 8.8485 0.0118496C9.24272 0.0730838 9.56283 0.362777 9.66299 0.748948ZM8 11.2C9.76731 11.2 11.2 9.76731 11.2 8C11.2 6.23269 9.76731 4.8 8 4.8C6.23269 4.8 4.8 6.23269 4.8 8C4.8 9.76731 6.23269 11.2 8 11.2Z" fill="#F9703E"/>
</svg>
