<svg width="12" height="13" viewBox="0 0 12 13" fill="none" xmlns="http://www.w3.org/2000/svg">
<path fill-rule="evenodd" clip-rule="evenodd" d="M12 3H0V5C0.73638 5 1.33333 5.59695 1.33333 6.33333V8.33333C1.33333 9.88783 1.33333 10.6651 1.61441 11.2679C1.91249 11.9071 2.42625 12.4208 3.06548 12.7189C3.66825 13 4.4455 13 6 13C7.5545 13 8.33175 13 8.93452 12.7189C9.57375 12.4208 10.0875 11.9071 10.3856 11.2679C10.6667 10.6651 10.6667 9.88783 10.6667 8.33333V6.33333C10.6667 5.59695 11.2636 5 12 5V3ZM5.33333 6.33333C5.33333 5.78105 4.88562 5.33333 4.33333 5.33333C3.78105 5.33333 3.33333 5.78105 3.33333 6.33333V9.66667C3.33333 10.219 3.78105 10.6667 4.33333 10.6667C4.88562 10.6667 5.33333 10.219 5.33333 9.66667V6.33333ZM8.66667 6.33333C8.66667 5.78105 8.21895 5.33333 7.66667 5.33333C7.11438 5.33333 6.66667 5.78105 6.66667 6.33333V9.66667C6.66667 10.219 7.11438 10.6667 7.66667 10.6667C8.21895 10.6667 8.66667 10.219 8.66667 9.66667V6.33333Z" fill="white"/>
<path d="M4.71208 1.24706C4.78804 1.17618 4.95544 1.11355 5.1883 1.06888C5.42116 1.02421 5.70647 1 5.99998 1C6.29349 1 6.5788 1.02421 6.81166 1.06888C7.04452 1.11355 7.21191 1.17618 7.28788 1.24706" stroke="white" stroke-width="2" stroke-linecap="round"/>
</svg>
