<svg width="18" height="18" viewBox="0 0 18 18" fill="none" xmlns="http://www.w3.org/2000/svg">
<path fill-rule="evenodd" clip-rule="evenodd" d="M14.405 13.5035C15.1594 12.8171 15.7789 12.1255 16.2232 11.586C16.5946 11.1352 16.7802 10.9098 16.7802 10.5665C16.7802 10.2233 16.5946 9.99785 16.2232 9.54701C14.8647 7.89759 11.8683 4.8266 8.39012 4.8266C7.61145 4.8266 6.85692 4.98052 6.1395 5.23795L8.60612 7.70457C10.019 7.8097 11.1469 8.93769 11.2521 10.3505L14.405 13.5035ZM5.86335 9.20443C5.64443 9.60969 5.52016 10.0736 5.52016 10.5665C5.52016 12.1516 6.80508 13.4365 8.39012 13.4365C8.88305 13.4365 9.34695 13.3122 9.75221 13.0933L11.9541 15.2952C10.8681 15.8963 9.66127 16.3065 8.39012 16.3065C4.91198 16.3065 1.91554 13.2355 0.557005 11.586C0.185668 11.1352 0 10.9098 0 10.5665C0 10.2233 0.185668 9.99785 0.557006 9.54701C1.19226 8.77574 2.18565 7.69364 3.41895 6.76004L5.86335 9.20443Z" fill="#9AA5B1"/>
<path d="M1.69348 1L16.9999 16.3065" stroke="#9AA5B1" stroke-width="2"/>
</svg>
